<?xml version="1.0" encoding="UTF-8"?>
<svg xmlns="http://www.w3.org/2000/svg" width="172.72mm" height="128.5mm" viewBox="0 0 489.6 364.25">
  <g id="Background">
    <rect y="0" width="489.6" height="364.25" fill="#f0f0f0"/>
  </g>
  <g id="UI">
    <g>
      <path id="path12" d="M434.59,22.79h1.2v-1.2h1.2v2.4h1.2v-3.6h1.2v4.8h1.2v-6h1.2v6h1.2v-3.6h1.2v2.4h1.2v-1.2h1.2" fill="none" stroke="#b2b2b2" stroke-linecap="round" stroke-linejoin="round" stroke-width=".5"/>
      <path id="path13" d="M448.36,25.19l3.6-6c0,1.31,1.01,3.6,2.4,3.6h4.8l1.2,2.4" fill="none" stroke="#b2b2b2" stroke-linecap="square" stroke-linejoin="bevel" stroke-width=".5"/>
      <path id="path17" d="M464.4,19.19h-1.2v7.2h1.2" fill="none" stroke="#b2b2b2" stroke-linecap="square" stroke-linejoin="bevel" stroke-width=".5"/>
      <path id="path18" d="M474,19.19h1.2v7.2h-1.2" fill="none" stroke="#b2b2b2" stroke-linecap="square" stroke-linejoin="bevel" stroke-width=".5"/>
      <path id="path21" d="M465.6,19.82l2.4,2.4" fill="none" stroke="#b2b2b2" stroke-linejoin="bevel" stroke-width=".5"/>
      <path id="path22" d="M468,19.82l-2.4,2.4" fill="none" stroke="#b2b2b2" stroke-linejoin="bevel" stroke-width=".5"/>
      <path id="path23-5" d="M465.6,23.42l2.4,2.4" fill="none" stroke="#b2b2b2" stroke-linejoin="bevel" stroke-width=".5"/>
      <path id="path24" d="M465.6,25.82l2.4-2.4" fill="none" stroke="#b2b2b2" stroke-linejoin="bevel" stroke-width=".5"/>
      <path id="path25-3" d="M470.4,19.82l2.4,2.4" fill="none" stroke="#b2b2b2" stroke-linejoin="bevel" stroke-width=".5"/>
      <path id="path26-7" d="M472.8,19.82l-2.4,2.4" fill="none" stroke="#b2b2b2" stroke-linejoin="bevel" stroke-width=".5"/>
      <rect id="rect26" x="470.4" y="23.42" width="2.4" height="2.4" fill="none" stroke="#b2b2b2" stroke-linejoin="bevel" stroke-width=".5"/>
    </g>
  </g>
  <g id="Layer_10" data-name="Layer 10">
    <rect x="4.95" y="288.01" width="345.16" height="28.69" rx="4.25" ry="4.25" fill="#231f20"/>
    <rect id="rect48" x="367.37" y="33.59" width="115.03" height="326.4" rx="5.67" ry="5.67"/>
    <line x1="167.02" y1="345.59" x2="123.82" y2="345.59" fill="none" stroke="#b2b2b2" stroke-miterlimit="11.34" stroke-width=".75"/>
    <line x1="39.46" y1="151.19" x2="39.46" y2="266.71" fill="none" stroke="#b2b2b2" stroke-miterlimit="11.34" stroke-width=".75"/>
    <line x1="81.64" y1="151.19" x2="81.64" y2="266.71" fill="none" stroke="#b2b2b2" stroke-miterlimit="11.34" stroke-width=".75"/>
    <line x1="123.82" y1="151.19" x2="123.82" y2="266.71" fill="none" stroke="#b2b2b2" stroke-miterlimit="11.34" stroke-width=".75"/>
    <line x1="166" y1="151.19" x2="166" y2="266.71" fill="none" stroke="#b2b2b2" stroke-miterlimit="11.34" stroke-width=".75"/>
    <line x1="208.18" y1="151.19" x2="208.18" y2="266.71" fill="none" stroke="#b2b2b2" stroke-miterlimit="11.34" stroke-width=".75"/>
    <line x1="250.36" y1="151.19" x2="250.36" y2="266.71" fill="none" stroke="#b2b2b2" stroke-miterlimit="11.34" stroke-width=".75"/>
    <line x1="292.53" y1="151.19" x2="292.53" y2="266.71" fill="none" stroke="#b2b2b2" stroke-miterlimit="11.34" stroke-width=".75"/>
    <line x1="334.72" y1="151.19" x2="334.72" y2="266.71" fill="none" stroke="#b2b2b2" stroke-miterlimit="11.34" stroke-width=".75"/>
    <line x1="381.6" y1="50.39" x2="381.6" y2="281.11" fill="none" stroke="#0097de" stroke-miterlimit="10" stroke-width=".75"/>
    <line x1="410.4" y1="50.39" x2="410.4" y2="281.11" fill="none" stroke="#00c300" stroke-miterlimit="10"/>
    <line x1="468" y1="50.39" x2="468" y2="281.11" fill="none" stroke="#7b25cb" stroke-miterlimit="10"/>
    <line x1="439.2" y1="50.39" x2="439.2" y2="281.11" fill="none" stroke="#ff4b00" stroke-miterlimit="10"/>
    <line x1="334.72" y1="266.46" x2="38.95" y2="266.46" fill="none" stroke="#b2b2b2" stroke-miterlimit="11.34" stroke-width=".75"/>
    <line x1="334.72" y1="232.44" x2="38.95" y2="232.44" fill="none" stroke="#b2b2b2" stroke-miterlimit="11.34" stroke-width=".75"/>
    <line x1="334.72" y1="198.7" x2="38.95" y2="198.7" fill="none" stroke="#b2b2b2" stroke-miterlimit="11.34" stroke-width=".75"/>
    <g isolation="isolate">
      <g>
        <path d="M14.47,26.39l2.45-6.3h1.55l2.45,6.3h-1.53l-.46-1.2h-2.46l-.46,1.2h-1.53ZM16.93,23.91h1.52l-.76-2.02-.77,2.02Z" fill="#231f20"/>
        <path d="M21.37,26.39v-6.3h2.48c.46,0,.86.09,1.21.27.35.18.63.42.83.74.2.32.3.68.3,1.08s-.11.78-.32,1.1-.5.57-.85.73l1.42,2.38h-1.66l-1.21-2.12h-.76v2.12h-1.45ZM22.82,22.94h.98c.17,0,.32-.03.45-.1.13-.07.24-.16.31-.27.08-.12.11-.25.11-.39,0-.22-.08-.41-.25-.55-.17-.14-.38-.22-.65-.22h-.95v1.53Z" fill="#231f20"/>
        <path d="M27.04,26.39v-6.3h2.47c.46,0,.86.09,1.21.27.35.18.63.42.83.74.2.32.3.68.3,1.08s-.11.78-.32,1.1c-.21.32-.5.57-.85.73l1.42,2.38h-1.66l-1.21-2.12h-.77v2.12h-1.45ZM28.48,22.94h.98c.17,0,.32-.03.45-.1.13-.07.23-.16.31-.27.07-.12.11-.25.11-.39,0-.22-.08-.41-.25-.55-.17-.14-.38-.22-.65-.22h-.95v1.53Z" fill="#231f20"/>
        <path d="M32.23,26.39l2.45-6.3h1.55l2.45,6.3h-1.53l-.46-1.2h-2.47l-.46,1.2h-1.53ZM34.69,23.91h1.52l-.76-2.02-.76,2.02Z" fill="#231f20"/>
        <path d="M39.13,26.39v-6.3h1.52l2.76,3.84v-3.84h1.45v6.3h-1.45l-2.83-3.95v3.95h-1.45Z" fill="#231f20"/>
        <path d="M48.82,26.49c-.65,0-1.22-.14-1.71-.42s-.88-.66-1.17-1.15c-.28-.49-.42-1.05-.42-1.69s.14-1.2.42-1.69c.28-.49.67-.87,1.17-1.15.5-.28,1.07-.42,1.71-.42.4,0,.77.06,1.09.18.33.12.61.28.86.48s.45.44.61.7l-1.2.72c-.09-.14-.21-.27-.36-.39-.15-.11-.31-.2-.48-.27-.17-.06-.35-.09-.53-.09-.35,0-.67.08-.94.24-.27.16-.49.39-.64.68s-.23.62-.23,1,.08.71.22,1c.15.29.37.52.65.69s.61.25.98.25c.26,0,.49-.05.7-.14.21-.1.38-.23.5-.4.12-.17.2-.37.22-.59h-1.42v-1.12h2.82v.86c-.01.59-.14,1.08-.4,1.49s-.59.71-1.01.91c-.42.2-.91.31-1.45.31Z" fill="#231f20"/>
        <path d="M52.25,26.39v-6.3h4.1v1.33h-2.66v1.15h2.22v1.29h-2.22v1.2h2.7v1.33h-4.15Z" fill="#231f20"/>
      </g>
    </g>
    <g isolation="isolate">
      <g>
        <path d="M6.82,200.51c-.23,0-.43-.03-.62-.09s-.34-.14-.48-.25c-.13-.1-.25-.22-.34-.35-.09-.13-.15-.27-.19-.41l.58-.22c.06.19.18.36.35.5.17.14.38.21.63.22.3,0,.54-.07.71-.21.17-.14.26-.32.26-.55,0-.21-.07-.38-.22-.51-.15-.13-.35-.23-.6-.3l-.49-.15c-.2-.06-.37-.15-.53-.26s-.29-.25-.38-.43c-.09-.17-.14-.38-.14-.62,0-.45.13-.8.38-1.05.25-.25.62-.38,1.1-.38.28,0,.52.05.72.15.2.1.37.23.5.4.13.16.23.34.28.54l-.58.22c-.07-.21-.19-.38-.35-.51-.17-.13-.37-.19-.62-.19s-.46.07-.61.21-.22.33-.22.57c0,.21.06.36.17.47.12.11.27.19.47.25l.49.14c.4.11.71.3.92.56.22.26.33.54.33.85,0,.27-.06.51-.17.72s-.29.38-.51.5c-.23.12-.5.19-.83.19Z" fill="#231f20"/>
        <path d="M10.99,200.51c-.41,0-.77-.11-1.08-.33-.32-.22-.56-.52-.74-.9-.18-.38-.27-.82-.27-1.31s.09-.93.27-1.31c.18-.38.42-.68.74-.9.31-.22.67-.33,1.08-.33.26,0,.52.06.76.17.24.11.45.26.64.46.19.19.33.42.43.67l-.54.28c-.08-.19-.18-.36-.32-.5-.13-.14-.29-.25-.45-.33-.17-.08-.34-.12-.53-.12-.28,0-.54.08-.76.24-.22.16-.4.39-.52.67-.13.28-.19.61-.19.99s.06.71.19.99.3.51.53.68c.23.16.48.24.77.24.19,0,.36-.04.53-.13.17-.09.32-.21.45-.36s.24-.33.32-.52l.54.27c-.1.27-.25.5-.43.71-.19.21-.4.37-.64.48-.24.11-.5.17-.76.17Z" fill="#231f20"/>
        <path d="M13.08,200.43l1.72-4.9h.64l1.72,4.9h-.64l-.46-1.31h-1.88l-.46,1.31h-.64ZM14.39,198.51h1.47l-.73-2.11-.74,2.11Z" fill="#231f20"/>
        <path d="M17.75,200.43v-4.9h.6v4.27h1.98v.63h-2.58Z" fill="#231f20"/>
        <path d="M20.94,200.43v-4.9h2.56v.63h-1.97v1.46h1.77v.62h-1.77v1.57h1.98v.63h-2.58Z" fill="#231f20"/>
      </g>
    </g>
    <g>
      <path d="M39.46,206.33c-4.36,0-7.9-3.54-7.9-7.9s3.54-7.9,7.9-7.9,7.9,3.54,7.9,7.9-3.54,7.9-7.9,7.9Z" fill="#2b2b30"/>
      <path d="M39.46,191.03c4.08,0,7.4,3.32,7.4,7.4s-3.32,7.4-7.4,7.4-7.4-3.32-7.4-7.4,3.32-7.4,7.4-7.4M39.46,190.03c-4.64,0-8.4,3.76-8.4,8.4s3.76,8.4,8.4,8.4,8.4-3.76,8.4-8.4-3.76-8.4-8.4-8.4h0Z" fill="#2b7fd8"/>
    </g>
    <g>
      <path d="M81.64,206.33c-4.36,0-7.9-3.54-7.9-7.9s3.54-7.9,7.9-7.9,7.9,3.54,7.9,7.9-3.54,7.9-7.9,7.9Z" fill="#2b2b30"/>
      <path d="M81.64,191.03c4.08,0,7.4,3.32,7.4,7.4s-3.32,7.4-7.4,7.4-7.4-3.32-7.4-7.4,3.32-7.4,7.4-7.4M81.64,190.03c-4.64,0-8.4,3.76-8.4,8.4s3.76,8.4,8.4,8.4,8.4-3.76,8.4-8.4-3.76-8.4-8.4-8.4h0Z" fill="#2b7fd8"/>
    </g>
    <g>
      <path d="M123.82,206.33c-4.36,0-7.9-3.54-7.9-7.9s3.54-7.9,7.9-7.9,7.9,3.54,7.9,7.9-3.54,7.9-7.9,7.9Z" fill="#2b2b30"/>
      <path d="M123.82,191.03c4.08,0,7.4,3.32,7.4,7.4s-3.32,7.4-7.4,7.4-7.4-3.32-7.4-7.4,3.32-7.4,7.4-7.4M123.82,190.03c-4.64,0-8.4,3.76-8.4,8.4s3.76,8.4,8.4,8.4,8.4-3.76,8.4-8.4-3.76-8.4-8.4-8.4h0Z" fill="#2b7fd8"/>
    </g>
    <g>
      <path d="M166,206.33c-4.36,0-7.9-3.54-7.9-7.9s3.54-7.9,7.9-7.9,7.9,3.54,7.9,7.9-3.54,7.9-7.9,7.9Z" fill="#2b2b30"/>
      <path d="M166,191.03c4.08,0,7.4,3.32,7.4,7.4s-3.32,7.4-7.4,7.4-7.4-3.32-7.4-7.4,3.32-7.4,7.4-7.4M166,190.03c-4.64,0-8.4,3.76-8.4,8.4s3.76,8.4,8.4,8.4,8.4-3.76,8.4-8.4-3.76-8.4-8.4-8.4h0Z" fill="#2b7fd8"/>
    </g>
    <g>
      <path d="M208.18,206.33c-4.36,0-7.9-3.54-7.9-7.9s3.54-7.9,7.9-7.9,7.9,3.54,7.9,7.9-3.54,7.9-7.9,7.9Z" fill="#2b2b30"/>
      <path d="M208.18,191.03c4.08,0,7.4,3.32,7.4,7.4s-3.32,7.4-7.4,7.4-7.4-3.32-7.4-7.4,3.32-7.4,7.4-7.4M208.18,190.03c-4.64,0-8.4,3.76-8.4,8.4s3.76,8.4,8.4,8.4,8.4-3.76,8.4-8.4-3.76-8.4-8.4-8.4h0Z" fill="#2b7fd8"/>
    </g>
    <g>
      <path d="M250.36,206.33c-4.36,0-7.9-3.54-7.9-7.9s3.54-7.9,7.9-7.9,7.9,3.54,7.9,7.9-3.54,7.9-7.9,7.9Z" fill="#2b2b30"/>
      <path d="M250.36,191.03c4.08,0,7.4,3.32,7.4,7.4s-3.32,7.4-7.4,7.4-7.4-3.32-7.4-7.4,3.32-7.4,7.4-7.4M250.36,190.03c-4.64,0-8.4,3.76-8.4,8.4s3.76,8.4,8.4,8.4,8.4-3.76,8.4-8.4-3.76-8.4-8.4-8.4h0Z" fill="#2b7fd8"/>
    </g>
    <g>
      <path d="M292.54,206.33c-4.36,0-7.9-3.54-7.9-7.9s3.54-7.9,7.9-7.9,7.9,3.54,7.9,7.9-3.54,7.9-7.9,7.9Z" fill="#2b2b30"/>
      <path d="M292.54,191.03c4.08,0,7.4,3.32,7.4,7.4s-3.32,7.4-7.4,7.4-7.4-3.32-7.4-7.4,3.32-7.4,7.4-7.4M292.54,190.03c-4.64,0-8.4,3.76-8.4,8.4s3.76,8.4,8.4,8.4,8.4-3.76,8.4-8.4-3.76-8.4-8.4-8.4h0Z" fill="#2b7fd8"/>
    </g>
    <g>
      <path d="M334.72,206.33c-4.36,0-7.9-3.54-7.9-7.9s3.54-7.9,7.9-7.9,7.9,3.54,7.9,7.9-3.54,7.9-7.9,7.9Z" fill="#2b2b30"/>
      <path d="M334.72,191.03c4.08,0,7.4,3.32,7.4,7.4s-3.32,7.4-7.4,7.4-7.4-3.32-7.4-7.4,3.32-7.4,7.4-7.4M334.72,190.03c-4.64,0-8.4,3.76-8.4,8.4s3.76,8.4,8.4,8.4,8.4-3.76,8.4-8.4-3.76-8.4-8.4-8.4h0Z" fill="#2b7fd8"/>
    </g>
    <g isolation="isolate">
      <g>
        <path d="M7.87,234.44v-4.9h1.44c.28,0,.53.06.75.19.22.13.39.31.51.53.12.23.19.49.19.79,0,.32-.08.6-.24.85-.16.24-.37.42-.62.53l1.03,2.01h-.68l-.95-1.88h-.83v1.88h-.6ZM8.47,231.94h.9c.15,0,.28-.04.39-.12.12-.08.21-.18.28-.32.07-.13.11-.28.11-.45,0-.26-.08-.47-.24-.64-.16-.16-.36-.24-.62-.24h-.82v1.76Z" fill="#231f20"/>
        <path d="M13.56,234.53c-.41,0-.78-.11-1.1-.32-.32-.21-.57-.51-.75-.9s-.27-.82-.27-1.31.09-.94.27-1.32c.18-.38.43-.68.75-.9.32-.22.68-.33,1.1-.33s.78.11,1.1.33c.32.22.56.52.74.9.18.38.27.82.27,1.31s-.09.93-.27,1.32-.43.68-.74.9c-.31.21-.68.32-1.09.32ZM13.56,233.9c.29,0,.54-.08.77-.25.22-.16.4-.39.52-.67.12-.29.19-.61.19-.99s-.06-.7-.19-.98c-.13-.29-.3-.51-.53-.68-.22-.16-.48-.24-.78-.24s-.55.08-.78.24c-.23.16-.41.39-.53.68-.13.29-.19.62-.19.98s.07.7.19.99c.13.28.31.51.54.67.23.16.49.25.79.25Z" fill="#231f20"/>
        <path d="M18.3,234.53c-.41,0-.78-.11-1.1-.32-.32-.21-.57-.51-.75-.9s-.27-.82-.27-1.31.09-.94.27-1.32c.18-.38.43-.68.75-.9.32-.22.68-.33,1.1-.33s.78.11,1.1.33c.32.22.56.52.74.9.18.38.27.82.27,1.31s-.09.93-.27,1.32-.42.68-.74.9c-.31.21-.68.32-1.09.32ZM18.31,233.9c.29,0,.54-.08.77-.25.22-.16.4-.39.52-.67.13-.29.19-.61.19-.99s-.06-.7-.19-.98c-.13-.29-.3-.51-.53-.68-.23-.16-.48-.24-.78-.24s-.55.08-.78.24c-.23.16-.4.39-.53.68-.13.29-.19.62-.19.98s.06.7.2.99c.13.28.31.51.54.67.23.16.49.25.79.25Z" fill="#231f20"/>
        <path d="M21.99,234.44v-4.27h-1.33v-.63h3.27v.63h-1.33v4.27h-.6Z" fill="#231f20"/>
      </g>
    </g>
    <g>
      <path d="M39.46,240.34c-4.36,0-7.9-3.54-7.9-7.9s3.54-7.9,7.9-7.9,7.9,3.54,7.9,7.9-3.54,7.9-7.9,7.9Z" fill="#2b2b30"/>
      <path d="M39.46,225.04c4.08,0,7.4,3.32,7.4,7.4s-3.32,7.4-7.4,7.4-7.4-3.32-7.4-7.4,3.32-7.4,7.4-7.4M39.46,224.04c-4.64,0-8.4,3.76-8.4,8.4s3.76,8.4,8.4,8.4,8.4-3.76,8.4-8.4-3.76-8.4-8.4-8.4h0Z" fill="#2b7fd8"/>
    </g>
    <g>
      <path d="M81.64,240.34c-4.36,0-7.9-3.54-7.9-7.9s3.54-7.9,7.9-7.9,7.9,3.54,7.9,7.9-3.54,7.9-7.9,7.9Z" fill="#2b2b30"/>
      <path d="M81.64,225.04c4.08,0,7.4,3.32,7.4,7.4s-3.32,7.4-7.4,7.4-7.4-3.32-7.4-7.4,3.32-7.4,7.4-7.4M81.64,224.04c-4.64,0-8.4,3.76-8.4,8.4s3.76,8.4,8.4,8.4,8.4-3.76,8.4-8.4-3.76-8.4-8.4-8.4h0Z" fill="#2b7fd8"/>
    </g>
    <g>
      <path d="M123.82,240.34c-4.36,0-7.9-3.54-7.9-7.9s3.54-7.9,7.9-7.9,7.9,3.54,7.9,7.9-3.54,7.9-7.9,7.9Z" fill="#2b2b30"/>
      <path d="M123.82,225.04c4.08,0,7.4,3.32,7.4,7.4s-3.32,7.4-7.4,7.4-7.4-3.32-7.4-7.4,3.32-7.4,7.4-7.4M123.82,224.04c-4.64,0-8.4,3.76-8.4,8.4s3.76,8.4,8.4,8.4,8.4-3.76,8.4-8.4-3.76-8.4-8.4-8.4h0Z" fill="#2b7fd8"/>
    </g>
    <g>
      <path d="M166,240.34c-4.36,0-7.9-3.54-7.9-7.9s3.54-7.9,7.9-7.9,7.9,3.54,7.9,7.9-3.54,7.9-7.9,7.9Z" fill="#2b2b30"/>
      <path d="M166,225.04c4.08,0,7.4,3.32,7.4,7.4s-3.32,7.4-7.4,7.4-7.4-3.32-7.4-7.4,3.32-7.4,7.4-7.4M166,224.04c-4.64,0-8.4,3.76-8.4,8.4s3.76,8.4,8.4,8.4,8.4-3.76,8.4-8.4-3.76-8.4-8.4-8.4h0Z" fill="#2b7fd8"/>
    </g>
    <g>
      <path d="M208.18,240.34c-4.36,0-7.9-3.54-7.9-7.9s3.54-7.9,7.9-7.9,7.9,3.54,7.9,7.9-3.54,7.9-7.9,7.9Z" fill="#2b2b30"/>
      <path d="M208.18,225.04c4.08,0,7.4,3.32,7.4,7.4s-3.32,7.4-7.4,7.4-7.4-3.32-7.4-7.4,3.32-7.4,7.4-7.4M208.18,224.04c-4.64,0-8.4,3.76-8.4,8.4s3.76,8.4,8.4,8.4,8.4-3.76,8.4-8.4-3.76-8.4-8.4-8.4h0Z" fill="#2b7fd8"/>
    </g>
    <g>
      <path d="M250.36,240.34c-4.36,0-7.9-3.54-7.9-7.9s3.54-7.9,7.9-7.9,7.9,3.54,7.9,7.9-3.54,7.9-7.9,7.9Z" fill="#2b2b30"/>
      <path d="M250.36,225.04c4.08,0,7.4,3.32,7.4,7.4s-3.32,7.4-7.4,7.4-7.4-3.32-7.4-7.4,3.32-7.4,7.4-7.4M250.36,224.04c-4.64,0-8.4,3.76-8.4,8.4s3.76,8.4,8.4,8.4,8.4-3.76,8.4-8.4-3.76-8.4-8.4-8.4h0Z" fill="#2b7fd8"/>
    </g>
    <g>
      <path d="M292.54,240.34c-4.36,0-7.9-3.54-7.9-7.9s3.54-7.9,7.9-7.9,7.9,3.54,7.9,7.9-3.54,7.9-7.9,7.9Z" fill="#2b2b30"/>
      <path d="M292.54,225.04c4.08,0,7.4,3.32,7.4,7.4s-3.32,7.4-7.4,7.4-7.4-3.32-7.4-7.4,3.32-7.4,7.4-7.4M292.54,224.04c-4.64,0-8.4,3.76-8.4,8.4s3.76,8.4,8.4,8.4,8.4-3.76,8.4-8.4-3.76-8.4-8.4-8.4h0Z" fill="#2b7fd8"/>
    </g>
    <g>
      <path d="M334.72,240.34c-4.36,0-7.9-3.54-7.9-7.9s3.54-7.9,7.9-7.9,7.9,3.54,7.9,7.9-3.54,7.9-7.9,7.9Z" fill="#2b2b30"/>
      <path d="M334.72,225.04c4.08,0,7.4,3.32,7.4,7.4s-3.32,7.4-7.4,7.4-7.4-3.32-7.4-7.4,3.32-7.4,7.4-7.4M334.72,224.04c-4.64,0-8.4,3.76-8.4,8.4s3.76,8.4,8.4,8.4,8.4-3.76,8.4-8.4-3.76-8.4-8.4-8.4h0Z" fill="#2b7fd8"/>
    </g>
    <circle cx="60.55" cy="198.43" r="3" fill="#5a5a66" stroke="#2a2a33" stroke-width=".8"/>
    <circle cx="102.73" cy="198.43" r="3" fill="#5a5a66" stroke="#2a2a33" stroke-width=".8"/>
    <circle cx="144.91" cy="198.43" r="3" fill="#5a5a66" stroke="#2a2a33" stroke-width=".8"/>
    <circle cx="187.09" cy="198.43" r="3" fill="#5a5a66" stroke="#2a2a33" stroke-width=".8"/>
    <circle cx="229.26" cy="198.43" r="3" fill="#5a5a66" stroke="#2a2a33" stroke-width=".8"/>
    <circle cx="271.44" cy="198.43" r="3" fill="#5a5a66" stroke="#2a2a33" stroke-width=".8"/>
    <circle cx="313.62" cy="198.43" r="3" fill="#5a5a66" stroke="#2a2a33" stroke-width=".8"/>
    <circle cx="60.55" cy="232.44" r="3" fill="#5a5a66" stroke="#2a2a33" stroke-width=".8"/>
    <circle cx="102.73" cy="232.44" r="3" fill="#5a5a66" stroke="#2a2a33" stroke-width=".8"/>
    <circle cx="144.91" cy="232.44" r="3" fill="#5a5a66" stroke="#2a2a33" stroke-width=".8"/>
    <circle cx="187.09" cy="232.44" r="3" fill="#5a5a66" stroke="#2a2a33" stroke-width=".8"/>
    <circle cx="229.26" cy="232.44" r="3" fill="#5a5a66" stroke="#2a2a33" stroke-width=".8"/>
    <circle cx="271.44" cy="232.44" r="3" fill="#5a5a66" stroke="#2a2a33" stroke-width=".8"/>
    <circle cx="313.62" cy="232.44" r="3" fill="#5a5a66" stroke="#2a2a33" stroke-width=".8"/>
    <circle cx="60.55" cy="266.46" r="3" fill="#5a5a66" stroke="#2a2a33" stroke-width=".8"/>
    <circle cx="102.73" cy="266.46" r="3" fill="#5a5a66" stroke="#2a2a33" stroke-width=".8"/>
    <circle cx="144.91" cy="266.46" r="3" fill="#5a5a66" stroke="#2a2a33" stroke-width=".8"/>
    <circle cx="187.09" cy="266.46" r="3" fill="#5a5a66" stroke="#2a2a33" stroke-width=".8"/>
    <circle cx="229.26" cy="266.46" r="3" fill="#5a5a66" stroke="#2a2a33" stroke-width=".8"/>
    <circle cx="271.44" cy="266.46" r="3" fill="#5a5a66" stroke="#2a2a33" stroke-width=".8"/>
    <circle cx="313.62" cy="266.46" r="3" fill="#5a5a66" stroke="#2a2a33" stroke-width=".8"/>
    <g isolation="isolate">
      <g>
        <path d="M12.08,268.46v-4.9h1.37c.29,0,.54.05.75.15.21.1.37.25.49.46.12.2.17.45.17.74,0,.22-.05.42-.14.6-.09.17-.22.32-.38.43.21.12.37.27.48.47.11.2.17.43.17.7s-.06.53-.17.73c-.11.2-.27.36-.47.46-.2.1-.45.16-.73.16h-1.55ZM12.67,265.67h.88c.22,0,.39-.07.52-.2.13-.13.19-.32.19-.56s-.07-.44-.22-.57c-.15-.13-.35-.2-.62-.2h-.75v1.53ZM12.67,267.84h.92c.25,0,.45-.07.59-.21.14-.14.21-.32.21-.56,0-.26-.08-.46-.24-.61-.16-.14-.38-.21-.67-.21h-.8v1.58Z" fill="#231f20"/>
        <path d="M15.8,268.46v-4.9h1.44c.28,0,.53.07.75.2.22.13.39.32.51.56.12.24.19.51.19.82s-.06.57-.17.81c-.11.24-.27.42-.47.56-.2.14-.43.2-.69.2h-.96v1.75h-.6ZM16.4,266.07h.95c.21,0,.39-.09.53-.26s.21-.4.21-.68-.08-.51-.24-.68c-.16-.17-.37-.26-.61-.26h-.83v1.88Z" fill="#231f20"/>
        <path d="M19.37,268.46v-4.9h.63l1.41,2.4,1.41-2.4h.63v4.9h-.6v-3.79l-1.45,2.46-1.44-2.45v3.79h-.6Z" fill="#231f20"/>
      </g>
    </g>
    <g isolation="isolate">
      <g>
        <path d="M10.88,304.82c-.43,0-.81-.11-1.15-.33-.33-.22-.6-.52-.79-.9-.19-.38-.28-.82-.28-1.31s.09-.94.28-1.32c.19-.38.45-.68.79-.9.33-.22.72-.33,1.15-.33.24,0,.46.04.68.13.22.09.41.21.59.36.18.15.32.33.43.52l-.48.36c-.08-.14-.19-.27-.32-.38s-.27-.2-.43-.26c-.16-.06-.31-.09-.47-.09-.31,0-.59.08-.83.24-.24.16-.43.39-.57.67-.14.28-.21.62-.21.99s.07.7.2.98c.14.28.33.51.57.67s.53.25.84.25c.25,0,.48-.06.68-.18.2-.12.36-.28.47-.5.12-.21.18-.46.18-.74h-1.03v-.57h1.61v.5c0,.42-.09.8-.25,1.11s-.39.56-.68.74c-.29.17-.62.26-.99.26Z" fill="#fff"/>
        <path d="M13,304.73l1.72-4.9h.64l1.72,4.9h-.64l-.46-1.31h-1.88l-.46,1.31h-.64ZM14.3,302.81h1.47l-.73-2.11-.74,2.11Z" fill="#fff"/>
        <path d="M18.39,304.73v-4.27h-1.33v-.63h3.27v.63h-1.33v4.27h-.6Z" fill="#fff"/>
        <path d="M20.94,304.73v-4.9h2.56v.63h-1.97v1.46h1.77v.62h-1.77v1.57h1.98v.63h-2.58Z" fill="#fff"/>
      </g>
    </g>
    <g>
      <path d="M39.46,274.36c-4.36,0-7.9-3.54-7.9-7.9s3.54-7.9,7.9-7.9,7.9,3.54,7.9,7.9-3.54,7.9-7.9,7.9Z" fill="#2b2b30"/>
      <path d="M39.46,259.06c4.08,0,7.4,3.32,7.4,7.4s-3.32,7.4-7.4,7.4-7.4-3.32-7.4-7.4,3.32-7.4,7.4-7.4M39.46,258.06c-4.64,0-8.4,3.76-8.4,8.4s3.76,8.4,8.4,8.4,8.4-3.76,8.4-8.4-3.76-8.4-8.4-8.4h0Z" fill="#2b7fd8"/>
    </g>
    <g>
      <path d="M81.64,274.36c-4.36,0-7.9-3.54-7.9-7.9s3.54-7.9,7.9-7.9,7.9,3.54,7.9,7.9-3.54,7.9-7.9,7.9Z" fill="#2b2b30"/>
      <path d="M81.64,259.06c4.08,0,7.4,3.32,7.4,7.4s-3.32,7.4-7.4,7.4-7.4-3.32-7.4-7.4,3.32-7.4,7.4-7.4M81.64,258.06c-4.64,0-8.4,3.76-8.4,8.4s3.76,8.4,8.4,8.4,8.4-3.76,8.4-8.4-3.76-8.4-8.4-8.4h0Z" fill="#2b7fd8"/>
    </g>
    <g>
      <path d="M123.82,274.36c-4.36,0-7.9-3.54-7.9-7.9s3.54-7.9,7.9-7.9,7.9,3.54,7.9,7.9-3.54,7.9-7.9,7.9Z" fill="#2b2b30"/>
      <path d="M123.82,259.06c4.08,0,7.4,3.32,7.4,7.4s-3.32,7.4-7.4,7.4-7.4-3.32-7.4-7.4,3.32-7.4,7.4-7.4M123.82,258.06c-4.64,0-8.4,3.76-8.4,8.4s3.76,8.4,8.4,8.4,8.4-3.76,8.4-8.4-3.76-8.4-8.4-8.4h0Z" fill="#2b7fd8"/>
    </g>
    <g>
      <path d="M166,274.36c-4.36,0-7.9-3.54-7.9-7.9s3.54-7.9,7.9-7.9,7.9,3.54,7.9,7.9-3.54,7.9-7.9,7.9Z" fill="#2b2b30"/>
      <path d="M166,259.06c4.08,0,7.4,3.32,7.4,7.4s-3.32,7.4-7.4,7.4-7.4-3.32-7.4-7.4,3.32-7.4,7.4-7.4M166,258.06c-4.64,0-8.4,3.76-8.4,8.4s3.76,8.4,8.4,8.4,8.4-3.76,8.4-8.4-3.76-8.4-8.4-8.4h0Z" fill="#2b7fd8"/>
    </g>
    <g>
      <path d="M208.18,274.36c-4.36,0-7.9-3.54-7.9-7.9s3.54-7.9,7.9-7.9,7.9,3.54,7.9,7.9-3.54,7.9-7.9,7.9Z" fill="#2b2b30"/>
      <path d="M208.18,259.06c4.08,0,7.4,3.32,7.4,7.4s-3.32,7.4-7.4,7.4-7.4-3.32-7.4-7.4,3.32-7.4,7.4-7.4M208.18,258.06c-4.64,0-8.4,3.76-8.4,8.4s3.76,8.4,8.4,8.4,8.4-3.76,8.4-8.4-3.76-8.4-8.4-8.4h0Z" fill="#2b7fd8"/>
    </g>
    <g>
      <path d="M250.36,274.36c-4.36,0-7.9-3.54-7.9-7.9s3.54-7.9,7.9-7.9,7.9,3.54,7.9,7.9-3.54,7.9-7.9,7.9Z" fill="#2b2b30"/>
      <path d="M250.36,259.06c4.08,0,7.4,3.32,7.4,7.4s-3.32,7.4-7.4,7.4-7.4-3.32-7.4-7.4,3.32-7.4,7.4-7.4M250.36,258.06c-4.64,0-8.4,3.76-8.4,8.4s3.76,8.4,8.4,8.4,8.4-3.76,8.4-8.4-3.76-8.4-8.4-8.4h0Z" fill="#2b7fd8"/>
    </g>
    <g>
      <path d="M292.54,274.36c-4.36,0-7.9-3.54-7.9-7.9s3.54-7.9,7.9-7.9,7.9,3.54,7.9,7.9-3.54,7.9-7.9,7.9Z" fill="#2b2b30"/>
      <path d="M292.54,259.06c4.08,0,7.4,3.32,7.4,7.4s-3.32,7.4-7.4,7.4-7.4-3.32-7.4-7.4,3.32-7.4,7.4-7.4M292.54,258.06c-4.64,0-8.4,3.76-8.4,8.4s3.76,8.4,8.4,8.4,8.4-3.76,8.4-8.4-3.76-8.4-8.4-8.4h0Z" fill="#2b7fd8"/>
    </g>
    <g>
      <circle cx="334.72" cy="266.46" r="7.9" fill="#2b2b30"/>
      <path d="M334.72,259.06c4.08,0,7.4,3.32,7.4,7.4s-3.32,7.4-7.4,7.4-7.4-3.32-7.4-7.4,3.32-7.4,7.4-7.4M334.72,258.06c-4.64,0-8.4,3.76-8.4,8.4s3.76,8.4,8.4,8.4,8.4-3.76,8.4-8.4-3.76-8.4-8.4-8.4h0Z" fill="#2b7fd8"/>
    </g>
    <g isolation="isolate">
      <path d="M377.7,48.07c-.47,0-.88-.11-1.25-.33-.36-.22-.65-.52-.85-.9-.21-.38-.31-.82-.31-1.31s.1-.93.31-1.31c.21-.38.49-.68.85-.9.36-.22.77-.33,1.24-.33.3,0,.59.06.87.17s.52.26.74.46c.22.19.38.42.5.67l-.62.28c-.09-.19-.21-.36-.36-.5-.15-.14-.33-.25-.52-.33-.19-.08-.4-.12-.61-.12-.33,0-.62.08-.88.24-.26.16-.46.39-.6.67-.14.28-.22.61-.22.99s.07.71.22.99c.15.29.35.51.61.68s.55.24.89.24c.21,0,.42-.04.61-.13.19-.09.36-.21.51-.36.15-.15.27-.33.37-.52l.62.27c-.12.27-.28.5-.5.71-.21.21-.46.37-.74.48s-.57.17-.88.17Z" fill="#0097de"/>
      <path d="M380.67,47.99v-4.9h.69v2.07h2.64v-2.07h.69v4.9h-.69v-2.21h-2.64v2.21h-.69Z" fill="#0097de"/>
      <path d="M386.78,47.99v-4.01c-.17.14-.35.25-.53.33-.18.08-.37.12-.55.12v-.62c.1,0,.22-.03.36-.1.14-.07.28-.16.42-.27.14-.11.26-.23.37-.34h.61v4.9h-.67Z" fill="#0097de"/>
    </g>
    <g isolation="isolate">
      <path d="M405.98,48.07c-.47,0-.88-.11-1.25-.33-.36-.22-.65-.52-.85-.9-.21-.38-.31-.82-.31-1.31s.1-.93.31-1.31c.21-.38.49-.68.85-.9.36-.22.77-.33,1.24-.33.3,0,.59.06.87.17s.52.26.74.46.38.42.5.67l-.62.28c-.09-.19-.21-.36-.36-.5-.15-.14-.33-.25-.52-.33-.19-.08-.4-.12-.61-.12-.33,0-.62.08-.88.24-.26.16-.46.39-.6.67-.14.28-.22.61-.22.99s.07.71.22.99c.15.29.35.51.61.68.26.16.55.24.88.24.21,0,.42-.04.61-.13.19-.09.36-.21.51-.36s.27-.33.37-.52l.62.27c-.12.27-.28.5-.5.71-.21.21-.46.37-.74.48s-.57.17-.88.17Z" fill="#00c300"/>
      <path d="M408.95,47.99v-4.9h.69v2.07h2.64v-2.07h.69v4.9h-.69v-2.21h-2.64v2.21h-.69Z" fill="#00c300"/>
      <path d="M413.97,47.99v-.55c0-.14.03-.29.1-.45.07-.16.17-.31.29-.46.13-.15.28-.3.46-.43l.95-.7c.11-.08.21-.17.3-.28.09-.11.16-.21.22-.33.05-.11.08-.23.08-.34,0-.15-.04-.29-.11-.41-.08-.12-.18-.22-.32-.29s-.3-.11-.48-.11c-.18,0-.33.03-.46.1-.13.07-.24.16-.33.27-.09.11-.15.23-.19.36l-.71-.13c.05-.21.15-.42.3-.6.15-.19.34-.34.57-.45.23-.11.5-.17.79-.17.34,0,.63.06.87.19.25.12.44.29.57.51.13.22.2.46.2.75s-.07.52-.22.75-.36.45-.63.67l-.88.66c-.17.13-.31.27-.41.41-.1.14-.16.29-.19.45h2.39v.62h-3.17Z" fill="#00c300"/>
    </g>
    <g isolation="isolate">
      <path d="M434.84,48.07c-.47,0-.88-.11-1.25-.33-.36-.22-.65-.52-.85-.9-.21-.38-.31-.82-.31-1.31s.1-.93.31-1.31c.21-.38.49-.68.85-.9.36-.22.77-.33,1.24-.33.3,0,.59.06.87.17s.52.26.74.46.38.42.5.67l-.62.28c-.09-.19-.21-.36-.37-.5-.15-.14-.33-.25-.52-.33-.19-.08-.39-.12-.61-.12-.33,0-.62.08-.88.24-.26.16-.46.39-.6.67-.14.28-.22.61-.22.99s.07.71.22.99.35.51.61.68c.26.16.55.24.88.24.21,0,.42-.04.61-.13.19-.09.36-.21.51-.36.15-.15.28-.33.37-.52l.62.27c-.12.27-.28.5-.5.71-.21.21-.46.37-.74.48-.28.11-.57.17-.88.17Z" fill="#ff4b00"/>
      <path d="M437.81,47.99v-4.9h.69v2.07h2.64v-2.07h.69v4.9h-.69v-2.21h-2.64v2.21h-.69Z" fill="#ff4b00"/>
      <path d="M444.34,48.07c-.25,0-.48-.04-.69-.11-.21-.07-.38-.18-.52-.31-.14-.13-.25-.27-.32-.43l.6-.27c.05.07.11.14.17.22s.16.15.28.21c.12.06.26.08.43.08.29,0,.53-.08.7-.25.18-.17.26-.38.26-.64,0-.19-.05-.35-.15-.49-.1-.13-.25-.23-.45-.3-.2-.07-.44-.1-.72-.1h-.18v-.58h.18c.38,0,.68-.07.9-.2.21-.13.32-.32.32-.55,0-.14-.04-.26-.11-.37-.07-.11-.17-.2-.3-.27-.13-.07-.28-.1-.46-.1-.11,0-.22.02-.33.05-.1.04-.2.09-.29.15-.09.07-.17.16-.23.26l-.57-.26c.08-.17.19-.32.34-.44.14-.12.31-.21.5-.28s.39-.1.61-.1c.29,0,.56.06.79.17.23.11.41.27.54.46.13.2.2.42.2.66s-.07.47-.21.65-.33.32-.57.43c.28.12.5.29.66.5.16.21.24.46.24.76s-.07.54-.22.76c-.15.22-.34.38-.59.5-.25.12-.51.17-.81.17Z" fill="#ff4b00"/>
    </g>
    <g isolation="isolate">
      <path d="M463.37,48.07c-.47,0-.88-.11-1.25-.33-.36-.22-.65-.52-.85-.9-.21-.38-.31-.82-.31-1.31s.1-.93.31-1.31c.21-.38.49-.68.85-.9.36-.22.77-.33,1.24-.33.3,0,.59.06.87.17s.52.26.74.46c.22.19.38.42.5.67l-.62.28c-.09-.19-.21-.36-.36-.5-.15-.14-.33-.25-.52-.33-.19-.08-.4-.12-.61-.12-.33,0-.62.08-.88.24-.26.16-.46.39-.6.67-.14.28-.22.61-.22.99s.07.71.22.99c.15.29.35.51.61.68s.55.24.89.24c.21,0,.42-.04.61-.13.19-.09.36-.21.51-.36.15-.15.27-.33.37-.52l.62.27c-.12.27-.28.5-.5.71-.21.21-.46.37-.74.48s-.57.17-.88.17Z" fill="#7b25cb"/>
      <path d="M466.34,47.99v-4.9h.69v2.07h2.64v-2.07h.69v4.9h-.69v-2.21h-2.64v2.21h-.69Z" fill="#7b25cb"/>
      <path d="M473.51,47.99v-1.13h-2.26v-.54l2.21-3.23h.71v3.16h.96v.61h-.96v1.13h-.67ZM472,46.25h1.51v-2.21l-1.51,2.21Z" fill="#7b25cb"/>
    </g>
    <g>
      <path d="M381.6,125.59c-5.73,0-10.4-4.67-10.4-10.4s4.67-10.4,10.4-10.4,10.4,4.67,10.4,10.4-4.67,10.4-10.4,10.4Z" fill="#1a1a1a"/>
      <path d="M381.6,105.54c5.32,0,9.65,4.33,9.65,9.65s-4.33,9.65-9.65,9.65-9.65-4.33-9.65-9.65,4.33-9.65,9.65-9.65M381.6,104.04c-6.16,0-11.15,4.99-11.15,11.15s4.99,11.15,11.15,11.15,11.15-4.99,11.15-11.15-4.99-11.15-11.15-11.15h0Z" fill="#0097de"/>
    </g>
    <g>
      <path d="M410.4,125.59c-5.73,0-10.4-4.67-10.4-10.4s4.67-10.4,10.4-10.4,10.4,4.67,10.4,10.4-4.67,10.4-10.4,10.4Z" fill="#1a1a1a"/>
      <path d="M410.4,105.54c5.32,0,9.65,4.33,9.65,9.65s-4.33,9.65-9.65,9.65-9.65-4.33-9.65-9.65,4.33-9.65,9.65-9.65M410.4,104.04c-6.16,0-11.15,4.99-11.15,11.15s4.99,11.15,11.15,11.15,11.15-4.99,11.15-11.15-4.99-11.15-11.15-11.15h0Z" fill="#00c300"/>
    </g>
    <g>
      <path d="M439.2,125.59c-5.73,0-10.4-4.67-10.4-10.4s4.67-10.4,10.4-10.4,10.4,4.67,10.4,10.4-4.67,10.4-10.4,10.4Z" fill="#1a1a1a"/>
      <path d="M439.2,105.54c5.32,0,9.65,4.33,9.65,9.65s-4.33,9.65-9.65,9.65-9.65-4.33-9.65-9.65,4.33-9.65,9.65-9.65M439.2,104.04c-6.16,0-11.15,4.99-11.15,11.15s4.99,11.15,11.15,11.15,11.15-4.99,11.15-11.15-4.99-11.15-11.15-11.15h0Z" fill="#ff4b00"/>
    </g>
    <g>
      <path d="M468,125.59c-5.73,0-10.4-4.67-10.4-10.4s4.67-10.4,10.4-10.4,10.4,4.67,10.4,10.4-4.67,10.4-10.4,10.4Z" fill="#1a1a1a"/>
      <path d="M468,105.54c5.32,0,9.65,4.33,9.65,9.65s-4.33,9.65-9.65,9.65-9.65-4.33-9.65-9.65,4.33-9.65,9.65-9.65M468,104.04c-6.16,0-11.15,4.99-11.15,11.15s4.99,11.15,11.15,11.15,11.15-4.99,11.15-11.15-4.99-11.15-11.15-11.15h0Z" fill="#7b25cb"/>
    </g>
    <g isolation="isolate">
      <g>
        <path d="M420.26,57.58v-4.9h1.31c.41,0,.77.1,1.08.31.31.21.56.5.74.87.18.37.27.79.27,1.27s-.09.9-.27,1.27c-.18.37-.42.66-.74.87-.32.21-.68.32-1.08.32h-1.31ZM420.86,56.94h.72c.21,0,.4-.05.58-.14s.34-.22.47-.38c.14-.17.24-.36.32-.58.08-.22.11-.46.11-.71s-.04-.49-.11-.71c-.07-.22-.18-.41-.32-.58-.14-.17-.29-.29-.47-.38-.18-.09-.37-.14-.58-.14h-.72v3.61Z" fill="#fff"/>
        <path d="M424.47,57.58v-4.9h.6v4.9h-.6Z" fill="#fff"/>
        <path d="M427.41,57.58l-1.75-4.9h.64l1.44,4.1,1.44-4.1h.64l-1.75,4.9h-.66Z" fill="#fff"/>
      </g>
    </g>
    <g>
      <path d="M381.6,79.89c-4.36,0-7.9-3.54-7.9-7.9s3.54-7.9,7.9-7.9,7.9,3.54,7.9,7.9-3.54,7.9-7.9,7.9Z" fill="#2b2b30"/>
      <path d="M381.6,64.59c4.08,0,7.4,3.32,7.4,7.4s-3.32,7.4-7.4,7.4-7.4-3.32-7.4-7.4,3.32-7.4,7.4-7.4M381.6,63.59c-4.64,0-8.4,3.76-8.4,8.4s3.76,8.4,8.4,8.4,8.4-3.76,8.4-8.4-3.76-8.4-8.4-8.4h0Z" fill="#2b7fd8"/>
    </g>
    <g>
      <path d="M410.4,79.89c-4.36,0-7.9-3.54-7.9-7.9s3.54-7.9,7.9-7.9,7.9,3.54,7.9,7.9-3.54,7.9-7.9,7.9Z" fill="#2b2b30"/>
      <path d="M410.4,64.59c4.08,0,7.4,3.32,7.4,7.4s-3.32,7.4-7.4,7.4-7.4-3.32-7.4-7.4,3.32-7.4,7.4-7.4M410.4,63.59c-4.64,0-8.4,3.76-8.4,8.4s3.76,8.4,8.4,8.4,8.4-3.76,8.4-8.4-3.76-8.4-8.4-8.4h0Z" fill="#2b7fd8"/>
    </g>
    <g>
      <path d="M439.2,79.89c-4.36,0-7.9-3.54-7.9-7.9s3.54-7.9,7.9-7.9,7.9,3.54,7.9,7.9-3.54,7.9-7.9,7.9Z" fill="#2b2b30"/>
      <path d="M439.2,64.59c4.08,0,7.4,3.32,7.4,7.4s-3.32,7.4-7.4,7.4-7.4-3.32-7.4-7.4,3.32-7.4,7.4-7.4M439.2,63.59c-4.64,0-8.4,3.76-8.4,8.4s3.76,8.4,8.4,8.4,8.4-3.76,8.4-8.4-3.76-8.4-8.4-8.4h0Z" fill="#2b7fd8"/>
    </g>
    <g>
      <path d="M468,79.89c-4.36,0-7.9-3.54-7.9-7.9s3.54-7.9,7.9-7.9,7.9,3.54,7.9,7.9-3.54,7.9-7.9,7.9Z" fill="#2b2b30"/>
      <path d="M468,64.59c4.08,0,7.4,3.32,7.4,7.4s-3.32,7.4-7.4,7.4-7.4-3.32-7.4-7.4,3.32-7.4,7.4-7.4M468,63.59c-4.64,0-8.4,3.76-8.4,8.4s3.76,8.4,8.4,8.4,8.4-3.76,8.4-8.4-3.76-8.4-8.4-8.4h0Z" fill="#2b7fd8"/>
    </g>
    <g isolation="isolate">
      <g>
        <path d="M416.94,98.47c-.41,0-.77-.11-1.08-.33-.32-.22-.56-.52-.74-.9-.18-.38-.27-.82-.27-1.31s.09-.93.27-1.31c.18-.38.42-.68.74-.9.31-.22.67-.33,1.08-.33.26,0,.52.06.75.17s.45.26.64.46.33.42.43.67l-.54.28c-.08-.19-.18-.36-.32-.5-.13-.14-.29-.25-.45-.33-.17-.08-.34-.12-.53-.12-.28,0-.54.08-.76.24-.22.16-.4.39-.52.67-.12.28-.19.61-.19.99s.06.71.19.99c.13.29.3.51.53.68s.48.24.77.24c.19,0,.36-.04.53-.13.17-.09.32-.21.45-.36.13-.15.24-.33.32-.52l.54.27c-.1.27-.25.5-.43.71-.19.21-.4.37-.64.48s-.5.17-.76.17Z" fill="#fff"/>
        <path d="M419.52,98.39v-4.9h.6v4.27h1.98v.63h-2.58Z" fill="#fff"/>
        <path d="M424.46,98.47c-.41,0-.78-.11-1.1-.32-.32-.21-.57-.51-.75-.9-.18-.38-.27-.82-.27-1.31s.09-.94.27-1.32c.18-.38.43-.68.75-.9.32-.22.68-.33,1.1-.33s.78.11,1.1.33c.32.22.56.52.74.9.18.38.27.82.27,1.31s-.09.93-.27,1.32c-.18.38-.42.68-.74.9-.31.21-.68.32-1.09.32ZM424.46,97.84c.29,0,.54-.08.77-.25s.4-.39.52-.67c.13-.29.19-.61.19-.99s-.06-.7-.19-.98-.3-.51-.53-.68c-.22-.16-.48-.24-.78-.24s-.55.08-.78.24c-.23.16-.41.39-.53.68s-.19.62-.19.98.06.7.19.99c.13.28.31.51.54.67s.49.25.79.25Z" fill="#fff"/>
        <path d="M429.17,98.47c-.41,0-.77-.11-1.08-.33-.32-.22-.56-.52-.74-.9-.18-.38-.27-.82-.27-1.31s.09-.93.27-1.31c.18-.38.42-.68.74-.9.31-.22.67-.33,1.08-.33.26,0,.52.06.75.17.24.11.45.26.64.46.19.19.33.42.44.67l-.54.28c-.08-.19-.18-.36-.32-.5-.13-.14-.29-.25-.45-.33-.17-.08-.34-.12-.53-.12-.29,0-.54.08-.76.24-.22.16-.4.39-.52.67-.13.28-.19.61-.19.99s.06.71.19.99.3.51.53.68c.22.16.48.24.77.24.19,0,.36-.04.53-.13.17-.09.32-.21.45-.36s.24-.33.32-.52l.54.27c-.1.27-.25.5-.43.71-.19.21-.4.37-.64.48-.24.11-.5.17-.76.17Z" fill="#fff"/>
        <path d="M431.75,98.39v-4.9h.58v2.17l1.81-2.17h.76l-1.82,2.21,1.9,2.7h-.74l-1.56-2.22-.35.43v1.79h-.58Z" fill="#fff"/>
      </g>
    </g>
    <g>
      <path d="M381.6,183.19c-5.73,0-10.4-4.67-10.4-10.4s4.67-10.4,10.4-10.4,10.4,4.67,10.4,10.4-4.67,10.4-10.4,10.4Z" fill="#1a1a1a"/>
      <path d="M381.6,163.14c5.32,0,9.65,4.33,9.65,9.65s-4.33,9.65-9.65,9.65-9.65-4.33-9.65-9.65,4.33-9.65,9.65-9.65M381.6,161.64c-6.16,0-11.15,4.99-11.15,11.15s4.99,11.15,11.15,11.15,11.15-4.99,11.15-11.15-4.99-11.15-11.15-11.15h0Z" fill="#0097de"/>
    </g>
    <g>
      <path d="M410.4,183.19c-5.73,0-10.4-4.67-10.4-10.4s4.67-10.4,10.4-10.4,10.4,4.67,10.4,10.4-4.67,10.4-10.4,10.4Z" fill="#1a1a1a"/>
      <path d="M410.4,163.14c5.32,0,9.65,4.33,9.65,9.65s-4.33,9.65-9.65,9.65-9.65-4.33-9.65-9.65,4.33-9.65,9.65-9.65M410.4,161.64c-6.16,0-11.15,4.99-11.15,11.15s4.99,11.15,11.15,11.15,11.15-4.99,11.15-11.15-4.99-11.15-11.15-11.15h0Z" fill="#00c300"/>
    </g>
    <g>
      <path d="M439.2,183.19c-5.73,0-10.4-4.67-10.4-10.4s4.67-10.4,10.4-10.4,10.4,4.67,10.4,10.4-4.67,10.4-10.4,10.4Z" fill="#1a1a1a"/>
      <path d="M439.2,163.14c5.32,0,9.65,4.33,9.65,9.65s-4.33,9.65-9.65,9.65-9.65-4.33-9.65-9.65,4.33-9.65,9.65-9.65M439.2,161.64c-6.16,0-11.15,4.99-11.15,11.15s4.99,11.15,11.15,11.15,11.15-4.99,11.15-11.15-4.99-11.15-11.15-11.15h0Z" fill="#ff4b00"/>
    </g>
    <g>
      <path d="M468,183.19c-5.73,0-10.4-4.67-10.4-10.4s4.67-10.4,10.4-10.4,10.4,4.67,10.4,10.4-4.67,10.4-10.4,10.4Z" fill="#1a1a1a"/>
      <path d="M468,163.14c5.32,0,9.65,4.33,9.65,9.65s-4.33,9.65-9.65,9.65-9.65-4.33-9.65-9.65,4.33-9.65,9.65-9.65M468,161.64c-6.16,0-11.15,4.99-11.15,11.15s4.99,11.15,11.15,11.15,11.15-4.99,11.15-11.15-4.99-11.15-11.15-11.15h0Z" fill="#7b25cb"/>
    </g>
    <g isolation="isolate">
      <g>
        <path d="M419.47,155.99v-4.9h1.37c.29,0,.54.05.75.15.21.1.37.25.49.46.12.2.17.45.17.74,0,.22-.05.42-.14.6-.09.17-.22.32-.38.43.21.12.37.27.48.47.11.2.17.43.17.7s-.06.53-.17.73c-.11.2-.27.36-.47.46-.2.1-.45.16-.73.16h-1.55ZM420.06,153.19h.88c.22,0,.39-.07.52-.2.13-.13.19-.32.19-.56s-.07-.44-.22-.57c-.15-.13-.35-.2-.62-.2h-.75v1.53ZM420.06,155.36h.92c.25,0,.45-.07.59-.21.14-.14.21-.32.21-.56,0-.26-.08-.46-.24-.61-.16-.14-.38-.21-.67-.21h-.8v1.58Z" fill="#fff"/>
        <path d="M422.7,155.99l1.72-4.9h.64l1.72,4.9h-.64l-.46-1.31h-1.88l-.46,1.31h-.64ZM424.01,154.06h1.47l-.73-2.11-.74,2.11Z" fill="#fff"/>
        <path d="M427.37,155.99v-4.9h1.44c.28,0,.53.06.75.19.22.13.39.31.51.53.12.23.19.49.19.79,0,.32-.08.6-.24.85-.16.24-.37.42-.62.53l1.03,2.01h-.68l-.95-1.88h-.83v1.88h-.6ZM427.97,153.48h.9c.15,0,.28-.04.39-.12.12-.08.21-.18.28-.32.07-.13.11-.28.11-.45,0-.26-.08-.47-.24-.64-.16-.16-.36-.24-.62-.24h-.82v1.76Z" fill="#fff"/>
      </g>
    </g>
    <g isolation="isolate">
      <g>
        <path d="M416.25,213.58v-4.9h1.44c.29,0,.54.06.75.19.22.13.39.31.51.53.12.23.19.49.19.79,0,.32-.08.6-.24.85-.16.24-.37.42-.62.53l1.03,2.01h-.68l-.95-1.88h-.83v1.88h-.6ZM416.85,211.08h.89c.15,0,.28-.04.39-.12.12-.08.21-.18.28-.32.07-.13.11-.28.11-.45,0-.26-.08-.47-.24-.64-.16-.16-.36-.24-.62-.24h-.82v1.76Z" fill="#fff"/>
        <path d="M420.09,213.58v-4.9h2.56v.63h-1.97v1.46h1.77v.62h-1.77v1.57h1.98v.63h-2.58Z" fill="#fff"/>
        <path d="M425.07,213.67c-.23,0-.43-.03-.62-.09-.18-.06-.34-.14-.48-.25-.14-.1-.25-.22-.34-.35-.09-.13-.15-.27-.19-.41l.58-.22c.06.19.18.36.35.5.17.14.38.21.63.22.3,0,.54-.07.71-.21.17-.14.26-.32.26-.55,0-.21-.08-.38-.23-.51-.15-.13-.35-.23-.6-.3l-.49-.15c-.19-.06-.37-.15-.53-.26-.16-.11-.29-.25-.38-.43-.09-.17-.14-.38-.14-.62,0-.45.13-.8.38-1.05.25-.25.62-.38,1.1-.38.28,0,.51.05.72.15.2.1.37.23.5.4.13.16.23.34.28.54l-.58.22c-.07-.21-.19-.38-.35-.51-.17-.13-.37-.19-.62-.19-.26,0-.46.07-.61.21-.15.14-.22.33-.22.57,0,.21.06.36.17.47.12.11.27.19.46.25l.49.14c.4.11.71.3.92.56.22.26.33.54.33.85,0,.27-.06.51-.17.72s-.29.38-.51.5c-.22.12-.5.19-.83.19Z" fill="#fff"/>
        <path d="M427.42,213.58v-4.9h2.56v.63h-1.97v1.46h1.77v.62h-1.77v1.57h1.98v.63h-2.58Z" fill="#fff"/>
        <path d="M431.88,213.58v-4.27h-1.33v-.63h3.27v.63h-1.33v4.27h-.6Z" fill="#fff"/>
      </g>
    </g>
    <g>
      <path d="M381.6,240.79c-5.73,0-10.4-4.67-10.4-10.4s4.67-10.4,10.4-10.4,10.4,4.67,10.4,10.4-4.67,10.4-10.4,10.4Z" fill="#1a1a1a"/>
      <path d="M381.6,220.74c5.32,0,9.65,4.33,9.65,9.65s-4.33,9.65-9.65,9.65-9.65-4.33-9.65-9.65,4.33-9.65,9.65-9.65M381.6,219.24c-6.16,0-11.15,4.99-11.15,11.15s4.99,11.15,11.15,11.15,11.15-4.99,11.15-11.15-4.99-11.15-11.15-11.15h0Z" fill="#0097de"/>
    </g>
    <g>
      <path d="M410.4,240.79c-5.73,0-10.4-4.67-10.4-10.4s4.67-10.4,10.4-10.4,10.4,4.67,10.4,10.4-4.67,10.4-10.4,10.4Z" fill="#1a1a1a"/>
      <path d="M410.4,220.74c5.32,0,9.65,4.33,9.65,9.65s-4.33,9.65-9.65,9.65-9.65-4.33-9.65-9.65,4.33-9.65,9.65-9.65M410.4,219.24c-6.16,0-11.15,4.99-11.15,11.15s4.99,11.15,11.15,11.15,11.15-4.99,11.15-11.15-4.99-11.15-11.15-11.15h0Z" fill="#00c300"/>
    </g>
    <g>
      <path d="M439.2,240.79c-5.73,0-10.4-4.67-10.4-10.4s4.67-10.4,10.4-10.4,10.4,4.67,10.4,10.4-4.67,10.4-10.4,10.4Z" fill="#1a1a1a"/>
      <path d="M439.2,220.74c5.32,0,9.65,4.33,9.65,9.65s-4.33,9.65-9.65,9.65-9.65-4.33-9.65-9.65,4.33-9.65,9.65-9.65M439.2,219.24c-6.16,0-11.15,4.99-11.15,11.15s4.99,11.15,11.15,11.15,11.15-4.99,11.15-11.15-4.99-11.15-11.15-11.15h0Z" fill="#ff4b00"/>
    </g>
    <g>
      <path d="M468,240.79c-5.73,0-10.4-4.67-10.4-10.4s4.67-10.4,10.4-10.4,10.4,4.67,10.4,10.4-4.67,10.4-10.4,10.4Z" fill="#1a1a1a"/>
      <path d="M468,220.74c5.32,0,9.65,4.33,9.65,9.65s-4.33,9.65-9.65,9.65-9.65-4.33-9.65-9.65,4.33-9.65,9.65-9.65M468,219.24c-6.16,0-11.15,4.99-11.15,11.15s4.99,11.15,11.15,11.15,11.15-4.99,11.15-11.15-4.99-11.15-11.15-11.15h0Z" fill="#7b25cb"/>
    </g>
    <g isolation="isolate">
      <g>
        <path d="M418.97,266.39v-4.9h2.56v.63h-1.97v1.46h1.77v.62h-1.77v1.57h1.98v.63h-2.58Z" fill="#fff"/>
        <path d="M424.42,266.47c-.41,0-.78-.11-1.1-.32-.32-.21-.57-.51-.75-.9s-.27-.82-.27-1.31.09-.94.27-1.32c.18-.38.43-.68.75-.9.32-.22.68-.33,1.1-.33s.78.11,1.1.33c.32.22.56.52.74.9.18.38.27.82.27,1.31s-.09.93-.27,1.32-.42.68-.74.9c-.31.21-.68.32-1.09.32ZM424.42,265.84c.29,0,.54-.08.77-.25.22-.16.4-.39.52-.67.13-.29.19-.61.19-.99s-.06-.7-.19-.98c-.13-.29-.3-.51-.53-.68-.23-.16-.48-.24-.78-.24s-.55.08-.78.24c-.23.16-.4.39-.53.68-.13.29-.19.62-.19.98s.06.7.2.99c.13.28.31.51.54.67.23.16.49.25.79.25Z" fill="#fff"/>
        <path d="M429.13,266.47c-.41,0-.77-.11-1.08-.33-.32-.22-.56-.52-.74-.9-.18-.38-.27-.82-.27-1.31s.09-.93.27-1.31c.18-.38.42-.68.74-.9.31-.22.67-.33,1.08-.33.26,0,.52.06.75.17s.45.26.64.46.33.42.43.67l-.54.28c-.08-.19-.18-.36-.32-.5-.13-.14-.29-.25-.45-.33-.17-.08-.34-.12-.53-.12-.28,0-.54.08-.76.24-.22.16-.4.39-.52.67-.12.28-.19.61-.19.99s.06.71.19.99c.13.29.3.51.53.68s.48.24.77.24c.19,0,.36-.04.53-.13.17-.09.32-.21.45-.36.13-.15.24-.33.32-.52l.54.27c-.1.27-.25.5-.43.71-.19.21-.4.37-.64.48s-.5.17-.76.17Z" fill="#fff"/>
      </g>
    </g>
    <g>
      <path d="M381.6,293.59c-5.73,0-10.4-4.67-10.4-10.4s4.67-10.4,10.4-10.4,10.4,4.67,10.4,10.4-4.67,10.4-10.4,10.4Z" fill="#1a1a1a"/>
      <path d="M381.6,273.54c5.32,0,9.65,4.33,9.65,9.65s-4.33,9.65-9.65,9.65-9.65-4.33-9.65-9.65,4.33-9.65,9.65-9.65M381.6,272.04c-6.16,0-11.15,4.99-11.15,11.15s4.99,11.15,11.15,11.15,11.15-4.99,11.15-11.15-4.99-11.15-11.15-11.15h0Z" fill="#0097de"/>
    </g>
    <g>
      <path d="M410.4,293.59c-5.73,0-10.4-4.67-10.4-10.4s4.67-10.4,10.4-10.4,10.4,4.67,10.4,10.4-4.67,10.4-10.4,10.4Z" fill="#1a1a1a"/>
      <path d="M410.4,273.54c5.32,0,9.65,4.33,9.65,9.65s-4.33,9.65-9.65,9.65-9.65-4.33-9.65-9.65,4.33-9.65,9.65-9.65M410.4,272.04c-6.16,0-11.15,4.99-11.15,11.15s4.99,11.15,11.15,11.15,11.15-4.99,11.15-11.15-4.99-11.15-11.15-11.15h0Z" fill="#00c300"/>
    </g>
    <g>
      <path d="M439.2,293.59c-5.73,0-10.4-4.67-10.4-10.4s4.67-10.4,10.4-10.4,10.4,4.67,10.4,10.4-4.67,10.4-10.4,10.4Z" fill="#1a1a1a"/>
      <path d="M439.2,273.54c5.32,0,9.65,4.33,9.65,9.65s-4.33,9.65-9.65,9.65-9.65-4.33-9.65-9.65,4.33-9.65,9.65-9.65M439.2,272.04c-6.16,0-11.15,4.99-11.15,11.15s4.99,11.15,11.15,11.15,11.15-4.99,11.15-11.15-4.99-11.15-11.15-11.15h0Z" fill="#ff4b00"/>
    </g>
    <g>
      <path d="M468,293.59c-5.73,0-10.4-4.67-10.4-10.4s4.67-10.4,10.4-10.4,10.4,4.67,10.4,10.4-4.67,10.4-10.4,10.4Z" fill="#1a1a1a"/>
      <path d="M468,273.54c5.32,0,9.65,4.33,9.65,9.65s-4.33,9.65-9.65,9.65-9.65-4.33-9.65-9.65,4.33-9.65,9.65-9.65M468,272.04c-6.16,0-11.15,4.99-11.15,11.15s4.99,11.15,11.15,11.15,11.15-4.99,11.15-11.15-4.99-11.15-11.15-11.15h0Z" fill="#7b25cb"/>
    </g>
    <g>
      <path d="M39.46,356.48c-5.73,0-10.4-4.67-10.4-10.4s4.67-10.4,10.4-10.4,10.4,4.67,10.4,10.4-4.67,10.4-10.4,10.4Z" fill="#1a1a1a"/>
      <path d="M39.46,336.43c5.32,0,9.65,4.33,9.65,9.65s-4.33,9.65-9.65,9.65-9.65-4.33-9.65-9.65,4.33-9.65,9.65-9.65M39.46,334.93c-6.16,0-11.15,4.99-11.15,11.15s4.99,11.15,11.15,11.15,11.15-4.99,11.15-11.15-4.99-11.15-11.15-11.15h0Z" fill="#d0595a"/>
    </g>
    <g>
      <path d="M39.46,312.79c-5.73,0-10.4-4.67-10.4-10.4s4.67-10.4,10.4-10.4,10.4,4.67,10.4,10.4-4.67,10.4-10.4,10.4Z" fill="#1a1a1a"/>
      <path d="M39.46,292.74c5.32,0,9.65,4.33,9.65,9.65s-4.33,9.65-9.65,9.65-9.65-4.33-9.65-9.65,4.33-9.65,9.65-9.65M39.46,291.24c-6.16,0-11.15,4.99-11.15,11.15s4.99,11.15,11.15,11.15,11.15-4.99,11.15-11.15-4.99-11.15-11.15-11.15h0Z" fill="#d0595a"/>
    </g>
    <g>
      <path d="M81.64,312.79c-5.73,0-10.4-4.67-10.4-10.4s4.67-10.4,10.4-10.4,10.4,4.67,10.4,10.4-4.67,10.4-10.4,10.4Z" fill="#1a1a1a"/>
      <path d="M81.64,292.74c5.32,0,9.65,4.33,9.65,9.65s-4.33,9.65-9.65,9.65-9.65-4.33-9.65-9.65,4.33-9.65,9.65-9.65M81.64,291.24c-6.16,0-11.15,4.99-11.15,11.15s4.99,11.15,11.15,11.15,11.15-4.99,11.15-11.15-4.99-11.15-11.15-11.15h0Z" fill="#d0595a"/>
    </g>
    <g>
      <path d="M123.82,312.79c-5.73,0-10.4-4.67-10.4-10.4s4.67-10.4,10.4-10.4,10.4,4.67,10.4,10.4-4.67,10.4-10.4,10.4Z" fill="#1a1a1a"/>
      <path d="M123.82,292.74c5.32,0,9.65,4.33,9.65,9.65s-4.33,9.65-9.65,9.65-9.65-4.33-9.65-9.65,4.33-9.65,9.65-9.65M123.82,291.24c-6.16,0-11.15,4.99-11.15,11.15s4.99,11.15,11.15,11.15,11.15-4.99,11.15-11.15-4.99-11.15-11.15-11.15h0Z" fill="#d0595a"/>
    </g>
    <g>
      <path d="M166,312.79c-5.73,0-10.4-4.67-10.4-10.4s4.67-10.4,10.4-10.4,10.4,4.67,10.4,10.4-4.67,10.4-10.4,10.4Z" fill="#1a1a1a"/>
      <path d="M166,292.74c5.32,0,9.65,4.33,9.65,9.65s-4.33,9.65-9.65,9.65-9.65-4.33-9.65-9.65,4.33-9.65,9.65-9.65M166,291.24c-6.16,0-11.15,4.99-11.15,11.15s4.99,11.15,11.15,11.15,11.15-4.99,11.15-11.15-4.99-11.15-11.15-11.15h0Z" fill="#d0595a"/>
    </g>
    <g>
      <path d="M208.18,312.79c-5.73,0-10.4-4.67-10.4-10.4s4.67-10.4,10.4-10.4,10.4,4.67,10.4,10.4-4.67,10.4-10.4,10.4Z" fill="#1a1a1a"/>
      <path d="M208.18,292.74c5.32,0,9.65,4.33,9.65,9.65s-4.33,9.65-9.65,9.65-9.65-4.33-9.65-9.65,4.33-9.65,9.65-9.65M208.18,291.24c-6.16,0-11.15,4.99-11.15,11.15s4.99,11.15,11.15,11.15,11.15-4.99,11.15-11.15-4.99-11.15-11.15-11.15h0Z" fill="#d0595a"/>
    </g>
    <g>
      <path d="M250.36,312.79c-5.73,0-10.4-4.67-10.4-10.4s4.67-10.4,10.4-10.4,10.4,4.67,10.4,10.4-4.67,10.4-10.4,10.4Z" fill="#1a1a1a"/>
      <path d="M250.36,292.74c5.32,0,9.65,4.33,9.65,9.65s-4.33,9.65-9.65,9.65-9.65-4.33-9.65-9.65,4.33-9.65,9.65-9.65M250.36,291.24c-6.16,0-11.15,4.99-11.15,11.15s4.99,11.15,11.15,11.15,11.15-4.99,11.15-11.15-4.99-11.15-11.15-11.15h0Z" fill="#d0595a"/>
    </g>
    <g>
      <path d="M292.54,312.79c-5.73,0-10.4-4.67-10.4-10.4s4.67-10.4,10.4-10.4,10.4,4.67,10.4,10.4-4.67,10.4-10.4,10.4Z" fill="#1a1a1a"/>
      <path d="M292.54,292.74c5.32,0,9.65,4.33,9.65,9.65s-4.33,9.65-9.65,9.65-9.65-4.33-9.65-9.65,4.33-9.65,9.65-9.65M292.54,291.24c-6.16,0-11.15,4.99-11.15,11.15s4.99,11.15,11.15,11.15,11.15-4.99,11.15-11.15-4.99-11.15-11.15-11.15h0Z" fill="#d0595a"/>
    </g>
    <g>
      <path d="M334.72,312.79c-5.73,0-10.4-4.67-10.4-10.4s4.67-10.4,10.4-10.4,10.4,4.67,10.4,10.4-4.67,10.4-10.4,10.4Z" fill="#1a1a1a"/>
      <path d="M334.72,292.74c5.32,0,9.65,4.33,9.65,9.65s-4.33,9.65-9.65,9.65-9.65-4.33-9.65-9.65,4.33-9.65,9.65-9.65M334.72,291.24c-6.16,0-11.15,4.99-11.15,11.15s4.99,11.15,11.15,11.15,11.15-4.99,11.15-11.15-4.99-11.15-11.15-11.15h0Z" fill="#d0595a"/>
    </g>
    <g isolation="isolate">
      <g>
        <path d="M34.13,328.79v-4.9h1.37c.29,0,.54.05.75.15s.37.25.49.46c.12.2.17.45.17.74,0,.22-.05.42-.14.6-.09.17-.22.32-.38.43.21.12.37.27.48.47.11.2.17.43.17.7s-.06.53-.17.73c-.11.2-.27.36-.47.46-.2.1-.45.16-.73.16h-1.55ZM34.72,325.99h.88c.22,0,.39-.07.52-.2.13-.13.19-.32.19-.56s-.07-.44-.22-.57c-.15-.13-.35-.2-.61-.2h-.76v1.53ZM34.72,328.16h.92c.25,0,.45-.07.59-.21.14-.14.21-.32.21-.56,0-.26-.08-.46-.24-.61s-.38-.21-.67-.21h-.8v1.58Z" fill="#231f20"/>
        <path d="M37.36,328.79l1.72-4.9h.64l1.72,4.9h-.64l-.46-1.31h-1.88l-.46,1.31h-.64ZM38.66,326.86h1.47l-.73-2.11-.74,2.11Z" fill="#231f20"/>
        <path d="M42.03,328.79v-4.9h1.44c.28,0,.54.06.75.19.22.13.39.31.51.53.12.23.19.49.19.79,0,.32-.08.6-.24.85-.16.24-.37.42-.62.53l1.03,2.01h-.68l-.95-1.88h-.83v1.88h-.6ZM42.63,326.28h.89c.15,0,.28-.04.39-.12.12-.08.21-.18.28-.32s.11-.28.11-.45c0-.26-.08-.47-.24-.64-.16-.16-.36-.24-.62-.24h-.82v1.76Z" fill="#231f20"/>
      </g>
    </g>
    <g>
      <path d="M81.64,355.99c-5.73,0-10.4-4.67-10.4-10.4s4.67-10.4,10.4-10.4,10.4,4.67,10.4,10.4-4.67,10.4-10.4,10.4Z" fill="#1a1a1a"/>
      <path d="M81.64,335.94c5.32,0,9.65,4.33,9.65,9.65s-4.33,9.65-9.65,9.65-9.65-4.33-9.65-9.65,4.33-9.65,9.65-9.65M81.64,334.44c-6.16,0-11.15,4.99-11.15,11.15s4.99,11.15,11.15,11.15,11.15-4.99,11.15-11.15-4.99-11.15-11.15-11.15h0Z" fill="#d0595a"/>
    </g>
    <g isolation="isolate">
      <g>
        <path d="M73.78,328.87c-.41,0-.77-.11-1.08-.33-.32-.22-.56-.52-.74-.9-.18-.38-.27-.82-.27-1.31s.09-.93.27-1.31c.18-.38.42-.68.74-.9.31-.22.67-.33,1.08-.33.26,0,.52.06.76.17.24.11.45.26.64.46.19.19.33.42.43.67l-.54.28c-.08-.19-.18-.36-.32-.5-.13-.14-.29-.25-.45-.33-.17-.08-.34-.12-.53-.12-.28,0-.54.08-.76.24-.22.16-.4.39-.52.67-.13.28-.19.61-.19.99s.06.71.19.99.3.51.53.68c.23.16.48.24.77.24.19,0,.36-.04.53-.13.17-.09.32-.21.45-.36s.24-.33.32-.52l.54.27c-.1.27-.25.5-.43.71-.19.21-.4.37-.64.48-.24.11-.5.17-.76.17Z" fill="#231f20"/>
        <path d="M76.36,328.79v-4.9h.6v4.27h1.98v.63h-2.58Z" fill="#231f20"/>
        <path d="M81.3,328.87c-.41,0-.78-.11-1.1-.32-.32-.21-.57-.51-.75-.9s-.27-.82-.27-1.31.09-.94.27-1.32c.18-.38.43-.68.75-.9.32-.22.68-.33,1.1-.33s.78.11,1.1.33c.32.22.56.52.74.9.18.38.27.82.27,1.31s-.09.93-.27,1.32-.42.68-.74.9c-.31.21-.68.32-1.09.32ZM81.3,328.24c.29,0,.54-.08.77-.25.22-.16.4-.39.52-.67.13-.29.19-.61.19-.99s-.06-.7-.19-.98c-.13-.29-.3-.51-.53-.68-.23-.16-.48-.24-.78-.24s-.55.08-.78.24c-.23.16-.4.39-.53.68-.13.29-.19.62-.19.98s.06.7.2.99c.13.28.31.51.54.67.23.16.49.25.79.25Z" fill="#231f20"/>
        <path d="M86.01,328.87c-.41,0-.77-.11-1.08-.33-.32-.22-.56-.52-.74-.9-.18-.38-.27-.82-.27-1.31s.09-.93.27-1.31c.18-.38.42-.68.74-.9.31-.22.67-.33,1.08-.33.26,0,.52.06.75.17s.45.26.64.46.33.42.43.67l-.54.28c-.08-.19-.18-.36-.32-.5-.13-.14-.29-.25-.45-.33-.17-.08-.34-.12-.53-.12-.28,0-.54.08-.76.24-.22.16-.4.39-.52.67-.12.28-.19.61-.19.99s.06.71.19.99c.13.29.3.51.53.68s.48.24.77.24c.19,0,.36-.04.53-.13.17-.09.32-.21.45-.36.13-.15.24-.33.32-.52l.54.27c-.1.27-.25.5-.43.71-.19.21-.4.37-.64.48s-.5.17-.76.17Z" fill="#231f20"/>
        <path d="M88.59,328.79v-4.9h.58v2.17l1.81-2.17h.76l-1.82,2.21,1.9,2.7h-.74l-1.56-2.22-.35.43v1.79h-.58Z" fill="#231f20"/>
      </g>
    </g>
    <g>
      <path d="M123.82,355.99c-5.73,0-10.4-4.67-10.4-10.4s4.67-10.4,10.4-10.4,10.4,4.67,10.4,10.4-4.67,10.4-10.4,10.4Z" fill="#1a1a1a"/>
      <path d="M123.82,335.94c5.32,0,9.65,4.33,9.65,9.65s-4.33,9.65-9.65,9.65-9.65-4.33-9.65-9.65,4.33-9.65,9.65-9.65M123.82,334.44c-6.16,0-11.15,4.99-11.15,11.15s4.99,11.15,11.15,11.15,11.15-4.99,11.15-11.15-4.99-11.15-11.15-11.15h0Z" fill="#d0595a"/>
    </g>
    <g isolation="isolate">
      <g>
        <path d="M115.27,328.79v-4.9h1.44c.28,0,.53.06.75.19.22.13.39.31.51.53.12.23.19.49.19.79,0,.32-.08.6-.24.85-.16.24-.37.42-.62.53l1.03,2.01h-.68l-.95-1.88h-.83v1.88h-.6ZM115.87,326.28h.9c.15,0,.28-.04.39-.12.12-.08.21-.18.28-.32.07-.13.11-.28.11-.45,0-.26-.08-.47-.24-.64-.16-.16-.36-.24-.62-.24h-.82v1.76Z" fill="#231f20"/>
        <path d="M119.11,328.79v-4.9h2.56v.63h-1.97v1.46h1.77v.62h-1.77v1.57h1.98v.63h-2.58Z" fill="#231f20"/>
        <path d="M124.09,328.87c-.23,0-.43-.03-.62-.09-.18-.06-.34-.14-.48-.25-.14-.1-.25-.22-.34-.35-.09-.13-.15-.27-.19-.41l.58-.22c.06.19.18.36.35.5.17.14.38.21.63.22.3,0,.54-.07.71-.21s.26-.32.26-.55c0-.21-.08-.38-.22-.51-.15-.13-.35-.23-.6-.3l-.49-.15c-.2-.06-.37-.15-.53-.26s-.29-.25-.38-.43c-.09-.17-.14-.38-.14-.62,0-.45.13-.8.38-1.05.25-.25.62-.38,1.1-.38.28,0,.52.05.72.15.2.1.37.23.5.4.13.16.23.34.28.54l-.58.22c-.07-.21-.19-.38-.35-.51-.17-.13-.37-.19-.62-.19s-.46.07-.61.21-.22.33-.22.57c0,.21.06.36.17.47.12.11.27.19.47.25l.49.14c.4.11.71.3.92.56.22.26.33.54.33.85,0,.27-.06.51-.17.72-.12.21-.29.38-.51.5-.22.12-.5.19-.83.19Z" fill="#231f20"/>
        <path d="M126.44,328.79v-4.9h2.56v.63h-1.97v1.46h1.77v.62h-1.77v1.57h1.98v.63h-2.58Z" fill="#231f20"/>
        <path d="M130.9,328.79v-4.27h-1.33v-.63h3.27v.63h-1.33v4.27h-.6Z" fill="#231f20"/>
      </g>
    </g>
    <g>
      <path d="M166,353.56c-4.4,0-7.97-3.58-7.97-7.97s3.58-7.97,7.97-7.97,7.97,3.58,7.97,7.97-3.58,7.97-7.97,7.97Z" fill="#5a5a66"/>
      <path d="M166,338.12c4.12,0,7.47,3.35,7.47,7.47s-3.35,7.47-7.47,7.47-7.47-3.35-7.47-7.47,3.35-7.47,7.47-7.47M166,337.12c-4.68,0-8.47,3.79-8.47,8.47s3.79,8.47,8.47,8.47,8.47-3.79,8.47-8.47-3.79-8.47-8.47-8.47h0Z" fill="#2a2a33"/>
    </g>
    <g>
      <path d="M381.6,355.99c-5.73,0-10.4-4.67-10.4-10.4s4.67-10.4,10.4-10.4,10.4,4.67,10.4,10.4-4.67,10.4-10.4,10.4Z" fill="#1a1a1a"/>
      <path d="M381.6,335.94c5.32,0,9.65,4.33,9.65,9.65s-4.33,9.65-9.65,9.65-9.65-4.33-9.65-9.65,4.33-9.65,9.65-9.65M381.6,334.44c-6.16,0-11.15,4.99-11.15,11.15s4.99,11.15,11.15,11.15,11.15-4.99,11.15-11.15-4.99-11.15-11.15-11.15h0Z" fill="#e0803f"/>
    </g>
    <g>
      <path d="M410.4,355.99c-5.73,0-10.4-4.67-10.4-10.4s4.67-10.4,10.4-10.4,10.4,4.67,10.4,10.4-4.67,10.4-10.4,10.4Z" fill="#1a1a1a"/>
      <path d="M410.4,335.94c5.32,0,9.65,4.33,9.65,9.65s-4.33,9.65-9.65,9.65-9.65-4.33-9.65-9.65,4.33-9.65,9.65-9.65M410.4,334.44c-6.16,0-11.15,4.99-11.15,11.15s4.99,11.15,11.15,11.15,11.15-4.99,11.15-11.15-4.99-11.15-11.15-11.15h0Z" fill="#e0803f"/>
    </g>
    <g isolation="isolate">
      <g>
        <path d="M375.91,328.79v-4.9h1.37c.29,0,.54.05.75.15.21.1.37.25.49.46.12.2.17.45.17.74,0,.22-.05.42-.14.6-.09.17-.22.32-.38.43.21.12.37.27.48.47.11.2.17.43.17.7s-.06.53-.17.73c-.11.2-.27.36-.47.46-.2.1-.45.16-.73.16h-1.55ZM376.5,325.99h.88c.22,0,.39-.07.52-.2.13-.13.19-.32.19-.56s-.07-.44-.22-.57c-.15-.13-.35-.2-.62-.2h-.75v1.53ZM376.5,328.16h.92c.25,0,.45-.07.59-.21.14-.14.21-.32.21-.56,0-.26-.08-.46-.24-.61-.16-.14-.38-.21-.67-.21h-.8v1.58Z" fill="#fff"/>
        <path d="M379.63,328.79v-4.9h1.44c.28,0,.53.07.75.2.22.13.39.32.51.56.12.24.19.51.19.82s-.06.57-.17.81c-.11.24-.27.42-.47.56-.2.14-.43.2-.69.2h-.96v1.75h-.6ZM380.23,326.4h.95c.21,0,.39-.09.53-.26s.21-.4.21-.68-.08-.51-.24-.68c-.16-.17-.37-.26-.61-.26h-.83v1.88Z" fill="#fff"/>
        <path d="M383.2,328.79v-4.9h.63l1.41,2.4,1.41-2.4h.63v4.9h-.6v-3.79l-1.45,2.46-1.44-2.45v3.79h-.6Z" fill="#fff"/>
      </g>
    </g>
    <g>
      <path d="M439.2,355.99c-5.73,0-10.4-4.67-10.4-10.4s4.67-10.4,10.4-10.4,10.4,4.67,10.4,10.4-4.67,10.4-10.4,10.4Z" fill="#1a1a1a"/>
      <path d="M439.2,335.94c5.32,0,9.65,4.33,9.65,9.65s-4.33,9.65-9.65,9.65-9.65-4.33-9.65-9.65,4.33-9.65,9.65-9.65M439.2,334.44c-6.16,0-11.15,4.99-11.15,11.15s4.99,11.15,11.15,11.15,11.15-4.99,11.15-11.15-4.99-11.15-11.15-11.15h0Z" fill="#e0803f"/>
    </g>
    <g isolation="isolate">
      <g>
        <path d="M402.61,328.79v-4.9h1.44c.29,0,.54.06.75.19.22.13.39.31.51.53.12.23.19.49.19.79,0,.32-.08.6-.24.85-.16.24-.37.42-.62.53l1.03,2.01h-.68l-.95-1.88h-.83v1.88h-.6ZM403.2,326.28h.89c.15,0,.28-.04.39-.12.12-.08.21-.18.28-.32.07-.13.11-.28.11-.45,0-.26-.08-.47-.24-.64-.16-.16-.36-.24-.62-.24h-.82v1.76Z" fill="#fff"/>
        <path d="M408.29,328.87c-.41,0-.78-.11-1.1-.32-.32-.21-.57-.51-.75-.9s-.27-.82-.27-1.31.09-.94.27-1.32c.18-.38.43-.68.75-.9.32-.22.68-.33,1.1-.33s.78.11,1.1.33c.32.22.56.52.74.9.18.38.27.82.27,1.31s-.09.93-.27,1.32-.42.68-.74.9c-.31.21-.68.32-1.09.32ZM408.3,328.24c.29,0,.54-.08.77-.25.22-.16.4-.39.52-.67.13-.29.19-.61.19-.99s-.06-.7-.19-.98c-.13-.29-.3-.51-.53-.68-.23-.16-.48-.24-.78-.24s-.55.08-.78.24c-.23.16-.4.39-.53.68-.13.29-.19.62-.19.98s.06.7.2.99c.13.28.31.51.54.67.23.16.49.25.79.25Z" fill="#fff"/>
        <path d="M413.04,328.87c-.41,0-.78-.11-1.1-.32-.32-.21-.57-.51-.75-.9s-.27-.82-.27-1.31.09-.94.27-1.32c.18-.38.43-.68.75-.9.32-.22.68-.33,1.1-.33s.78.11,1.1.33c.32.22.56.52.74.9.18.38.27.82.27,1.31s-.09.93-.27,1.32-.43.68-.74.9c-.31.21-.68.32-1.09.32ZM413.04,328.24c.29,0,.54-.08.77-.25.22-.16.4-.39.52-.67.12-.29.19-.61.19-.99s-.06-.7-.19-.98c-.13-.29-.3-.51-.53-.68-.22-.16-.48-.24-.78-.24s-.55.08-.78.24c-.23.16-.41.39-.53.68-.13.29-.19.62-.19.98s.07.7.19.99c.13.28.31.51.54.67.23.16.49.25.79.25Z" fill="#fff"/>
        <path d="M416.73,328.79v-4.27h-1.33v-.63h3.27v.63h-1.33v4.27h-.6Z" fill="#fff"/>
      </g>
    </g>
    <g>
      <path d="M468,355.99c-5.73,0-10.4-4.67-10.4-10.4s4.67-10.4,10.4-10.4,10.4,4.67,10.4,10.4-4.67,10.4-10.4,10.4Z" fill="#1a1a1a"/>
      <path d="M468,335.94c5.32,0,9.65,4.33,9.65,9.65s-4.33,9.65-9.65,9.65-9.65-4.33-9.65-9.65,4.33-9.65,9.65-9.65M468,334.44c-6.16,0-11.15,4.99-11.15,11.15s4.99,11.15,11.15,11.15,11.15-4.99,11.15-11.15-4.99-11.15-11.15-11.15h0Z" fill="#e0803f"/>
    </g>
    <g isolation="isolate">
      <g>
        <path d="M431.57,328.87c-.23,0-.43-.03-.62-.09-.18-.06-.34-.14-.48-.25-.14-.1-.25-.22-.34-.35-.09-.13-.15-.27-.19-.41l.58-.22c.06.19.18.36.35.5.17.14.38.21.63.22.3,0,.54-.07.71-.21s.26-.32.26-.55c0-.21-.08-.38-.22-.51-.15-.13-.35-.23-.6-.3l-.49-.15c-.2-.06-.37-.15-.53-.26s-.29-.25-.38-.43c-.09-.17-.14-.38-.14-.62,0-.45.13-.8.38-1.05.25-.25.62-.38,1.1-.38.28,0,.52.05.72.15.2.1.37.23.5.4.13.16.23.34.28.54l-.58.22c-.07-.21-.19-.38-.35-.51-.17-.13-.37-.19-.62-.19s-.46.07-.61.21-.22.33-.22.57c0,.21.06.36.17.47.12.11.27.19.47.25l.49.14c.4.11.71.3.92.56.22.26.33.54.33.85,0,.27-.06.51-.17.72-.12.21-.29.38-.51.5-.22.12-.5.19-.83.19Z" fill="#fff"/>
        <path d="M435.73,328.87c-.41,0-.77-.11-1.08-.33-.32-.22-.56-.52-.74-.9-.18-.38-.27-.82-.27-1.31s.09-.93.27-1.31c.18-.38.42-.68.74-.9.31-.22.67-.33,1.08-.33.26,0,.52.06.75.17s.45.26.64.46.33.42.43.67l-.54.28c-.08-.19-.18-.36-.32-.5-.13-.14-.29-.25-.45-.33-.17-.08-.34-.12-.53-.12-.28,0-.54.08-.76.24-.22.16-.4.39-.52.67-.12.28-.19.61-.19.99s.06.71.19.99c.13.29.3.51.53.68s.48.24.77.24c.19,0,.36-.04.53-.13.17-.09.32-.21.45-.36.13-.15.24-.33.32-.52l.54.27c-.1.27-.25.5-.43.71-.19.21-.4.37-.64.48s-.5.17-.76.17Z" fill="#fff"/>
        <path d="M437.83,328.79l1.72-4.9h.64l1.72,4.9h-.64l-.46-1.31h-1.88l-.46,1.31h-.64ZM439.13,326.86h1.47l-.73-2.11-.74,2.11Z" fill="#fff"/>
        <path d="M442.5,328.79v-4.9h.6v4.27h1.98v.63h-2.58Z" fill="#fff"/>
        <path d="M445.69,328.79v-4.9h2.56v.63h-1.97v1.46h1.77v.62h-1.77v1.57h1.98v.63h-2.58Z" fill="#fff"/>
      </g>
    </g>
    <g isolation="isolate">
      <g>
        <path d="M456.79,328.79v-4.9h1.44c.28,0,.54.07.75.2.22.13.39.32.51.56.12.24.19.51.19.82s-.06.57-.17.81c-.11.24-.27.42-.47.56-.2.14-.43.2-.69.2h-.96v1.75h-.6ZM457.38,326.4h.95c.21,0,.39-.09.53-.26.14-.17.21-.4.21-.68s-.08-.51-.24-.68c-.16-.17-.36-.26-.61-.26h-.83v1.88Z" fill="#fff"/>
        <path d="M460.36,328.79v-4.9h.6v2.07h2.3v-2.07h.6v4.9h-.6v-2.21h-2.3v2.21h-.6Z" fill="#fff"/>
        <path d="M464.93,328.79v-4.9h1.44c.28,0,.54.06.75.19.22.13.39.31.51.53.12.23.19.49.19.79,0,.32-.08.6-.24.85-.16.24-.37.42-.62.53l1.03,2.01h-.68l-.95-1.88h-.83v1.88h-.6ZM465.53,326.28h.89c.15,0,.28-.04.39-.12.12-.08.21-.18.28-.32s.11-.28.11-.45c0-.26-.08-.47-.24-.64-.16-.16-.36-.24-.62-.24h-.82v1.76Z" fill="#fff"/>
        <path d="M468.3,328.79l1.72-4.9h.64l1.72,4.9h-.64l-.46-1.31h-1.88l-.46,1.31h-.64ZM469.6,326.86h1.47l-.73-2.11-.74,2.11Z" fill="#fff"/>
        <path d="M474.35,328.87c-.23,0-.43-.03-.62-.09s-.34-.14-.48-.25c-.13-.1-.25-.22-.34-.35-.09-.13-.15-.27-.19-.41l.58-.22c.06.19.18.36.35.5.17.14.38.21.63.22.3,0,.54-.07.71-.21.17-.14.26-.32.26-.55,0-.21-.07-.38-.22-.51-.15-.13-.35-.23-.6-.3l-.49-.15c-.2-.06-.37-.15-.53-.26s-.29-.25-.38-.43c-.09-.17-.14-.38-.14-.62,0-.45.13-.8.38-1.05.25-.25.62-.38,1.1-.38.28,0,.52.05.72.15.2.1.37.23.5.4.13.16.23.34.28.54l-.58.22c-.07-.21-.19-.38-.35-.51-.17-.13-.37-.19-.62-.19s-.46.07-.61.21-.22.33-.22.57c0,.21.06.36.17.47.12.11.27.19.47.25l.49.14c.4.11.71.3.92.56.22.26.33.54.33.85,0,.27-.06.51-.17.72s-.29.38-.51.5c-.23.12-.5.19-.83.19Z" fill="#fff"/>
        <path d="M476.7,328.79v-4.9h2.56v.63h-1.97v1.46h1.77v.62h-1.77v1.57h1.98v.63h-2.58Z" fill="#fff"/>
      </g>
    </g>
  </g>
</svg>