<?xml version="1.0" encoding="UTF-8"?>
<svg xmlns="http://www.w3.org/2000/svg" width="121.92mm" height="128.5mm" viewBox="0 0 345.6 364.25">
  <g id="Background">
    <rect y="0" width="345.6" height="364.25" fill="#f0f0f0"/>
  </g>
  <g id="UI">
    <g>
      <path id="path12" d="M290.59,22.78h1.2v-1.2h1.2v2.4h1.2v-3.6h1.2v4.8h1.2v-6h1.2v6h1.2v-3.6h1.2v2.4h1.2v-1.2h1.2" fill="none" stroke="#b2b2b2" stroke-linecap="round" stroke-linejoin="round" stroke-width=".5"/>
      <path id="path13" d="M304.36,25.18l3.6-6c0,1.31,1.01,3.6,2.4,3.6h4.8l1.2,2.4" fill="none" stroke="#b2b2b2" stroke-linecap="square" stroke-linejoin="bevel" stroke-width=".5"/>
      <path id="path17" d="M320.4,19.18h-1.2v7.2h1.2" fill="none" stroke="#b2b2b2" stroke-linecap="square" stroke-linejoin="bevel" stroke-width=".5"/>
      <path id="path18" d="M330,19.18h1.2v7.2h-1.2" fill="none" stroke="#b2b2b2" stroke-linecap="square" stroke-linejoin="bevel" stroke-width=".5"/>
      <path id="path21" d="M321.6,19.82l2.4,2.4" fill="none" stroke="#b2b2b2" stroke-linejoin="bevel" stroke-width=".5"/>
      <path id="path22" d="M324,19.82l-2.4,2.4" fill="none" stroke="#b2b2b2" stroke-linejoin="bevel" stroke-width=".5"/>
      <path id="path23-5" d="M321.6,23.42l2.4,2.4" fill="none" stroke="#b2b2b2" stroke-linejoin="bevel" stroke-width=".5"/>
      <path id="path24" d="M321.6,25.82l2.4-2.4" fill="none" stroke="#b2b2b2" stroke-linejoin="bevel" stroke-width=".5"/>
      <path id="path25-3" d="M326.4,19.82l2.4,2.4" fill="none" stroke="#b2b2b2" stroke-linejoin="bevel" stroke-width=".5"/>
      <path id="path26-7" d="M328.8,19.82l-2.4,2.4" fill="none" stroke="#b2b2b2" stroke-linejoin="bevel" stroke-width=".5"/>
      <rect id="rect26" x="326.4" y="23.42" width="2.4" height="2.4" fill="none" stroke="#b2b2b2" stroke-linejoin="bevel" stroke-width=".5"/>
    </g>
  </g>
  <g id="Text">
    <g>
      <rect x="12" y="16.78" width="84" height="12" fill="none"/>
      <path d="M12.61,25.93v-6.3h2.21c.43,0,.81.07,1.14.2.33.13.59.33.77.6.19.27.28.61.28,1.03,0,.22-.06.43-.17.62-.12.2-.28.37-.48.53.29.15.51.35.66.59s.23.54.23.9c0,.4-.09.73-.27,1-.18.27-.43.48-.75.62-.32.14-.69.21-1.12.21h-2.5ZM14.03,22.11h.75c.23,0,.41-.06.55-.18.14-.12.21-.28.21-.49s-.07-.38-.22-.5c-.15-.12-.34-.18-.59-.18h-.69v1.34ZM14.03,24.66h.93c.25,0,.44-.06.58-.19.14-.13.22-.29.22-.5,0-.22-.08-.39-.22-.51-.15-.12-.36-.18-.62-.18h-.88v1.39Z" fill="#231f20"/>
      <path d="M17.36,25.93l2.45-6.3h1.55l2.45,6.3h-1.53l-.46-1.2h-2.47l-.46,1.2h-1.53ZM19.82,23.46h1.52l-.76-2.02-.76,2.02Z" fill="#231f20"/>
      <path d="M24.27,25.93v-6.3h1.52l2.76,3.84v-3.84h1.45v6.3h-1.45l-2.84-3.95v3.95h-1.45Z" fill="#231f20"/>
      <path d="M31,25.93v-6.3h2.06c.67,0,1.26.13,1.77.41.51.27.91.64,1.2,1.11.29.47.43,1.02.43,1.63s-.14,1.16-.43,1.63c-.29.47-.69.85-1.2,1.12-.51.27-1.1.41-1.77.41h-2.06ZM32.45,24.57h.61c.28,0,.53-.04.77-.13.23-.09.44-.21.61-.37s.31-.35.41-.57.14-.46.14-.72-.05-.5-.14-.71-.23-.41-.41-.57-.38-.28-.61-.37c-.23-.09-.49-.13-.77-.13h-.61v3.56Z" fill="#231f20"/>
    </g>
  </g>
  <g id="Layer_8" data-name="Layer 8">
    <line x1="14.4" y1="143.98" x2="86.4" y2="143.98" fill="none" stroke="#b2b2b2" stroke-miterlimit="11.34" stroke-width=".5"/>
    <line x1="28.8" y1="230.38" x2="72" y2="230.38" fill="none" stroke="#b2b2b2" stroke-miterlimit="11.34" stroke-width=".5"/>
    <line x1="28.8" y1="172.78" x2="72" y2="172.78" fill="none" stroke="#b2b2b2" stroke-miterlimit="11.34" stroke-width=".5"/>
    <line x1="28.8" y1="287.98" x2="72" y2="287.98" fill="none" stroke="#b2b2b2" stroke-miterlimit="11.34" stroke-width=".5"/>
    <line x1="93.6" y1="143.98" x2="165.6" y2="143.98" fill="none" stroke="#b2b2b2" stroke-miterlimit="11.34" stroke-width=".5"/>
    <line x1="108" y1="230.38" x2="151.2" y2="230.38" fill="none" stroke="#b2b2b2" stroke-miterlimit="11.34" stroke-width=".5"/>
    <line x1="108" y1="172.78" x2="151.2" y2="172.78" fill="none" stroke="#b2b2b2" stroke-miterlimit="11.34" stroke-width=".5"/>
    <line x1="108" y1="287.98" x2="151.2" y2="287.98" fill="none" stroke="#b2b2b2" stroke-miterlimit="11.34" stroke-width=".5"/>
    <line x1="172.8" y1="143.98" x2="244.8" y2="143.98" fill="none" stroke="#b2b2b2" stroke-miterlimit="11.34" stroke-width=".5"/>
    <line x1="14.4" y1="316.78" x2="244.8" y2="316.78" fill="none" stroke="#b2b2b2" stroke-miterlimit="11.34" stroke-width=".5"/>
    <line x1="187.2" y1="230.38" x2="230.4" y2="230.38" fill="none" stroke="#b2b2b2" stroke-miterlimit="11.34" stroke-width=".5"/>
    <line x1="187.2" y1="172.78" x2="230.4" y2="172.78" fill="none" stroke="#b2b2b2" stroke-miterlimit="11.34" stroke-width=".5"/>
    <line x1="187.2" y1="287.98" x2="230.4" y2="287.98" fill="none" stroke="#b2b2b2" stroke-miterlimit="11.34" stroke-width=".5"/>
    <line x1="187.2" y1="345.58" x2="230.4" y2="345.58" fill="none" stroke="#b2b2b2" stroke-miterlimit="11.34" stroke-width=".5"/>
    <line x1="252" y1="143.98" x2="324" y2="143.98" fill="none" stroke="#b2b2b2" stroke-miterlimit="11.34" stroke-width=".5"/>
    <line x1="266.4" y1="230.38" x2="309.6" y2="230.38" fill="none" stroke="#b2b2b2" stroke-miterlimit="11.34" stroke-width=".5"/>
    <line x1="266.4" y1="172.78" x2="309.6" y2="172.78" fill="none" stroke="#b2b2b2" stroke-miterlimit="11.34" stroke-width=".5"/>
    <line x1="266.4" y1="287.98" x2="309.6" y2="287.98" fill="none" stroke="#b2b2b2" stroke-miterlimit="11.34" stroke-width=".5"/>
    <rect x="254.4" y="316.78" width="72" height="43.2" rx="3" ry="3" fill="#2a2a2a"/>
    <g isolation="isolate">
      <g>
        <path d="M304.07,328.78v-4.9h.73l1.62,2.4,1.62-2.4h.73v4.9h-.69v-3.79l-1.67,2.46-1.66-2.45v3.79h-.69Z" fill="#fff"/>
        <path d="M310.02,328.78v-4.9h.69v4.9h-.69Z" fill="#fff"/>
        <path d="M311.4,328.78l1.76-2.49-1.74-2.41h.83l1.31,1.85,1.29-1.85h.83l-1.74,2.41,1.75,2.49h-.84l-1.29-1.93-1.31,1.93h-.84Z" fill="#fff"/>
      </g>
    </g>
    <g isolation="isolate">
      <g>
        <path d="M260.74,328.79v-4.9h1.65c.33,0,.62.07.87.2.25.13.45.32.59.56.14.24.21.51.21.82s-.06.57-.2.81c-.13.24-.31.42-.54.56-.23.14-.5.2-.79.2h-1.1v1.75h-.69ZM261.42,326.4h1.09c.25,0,.45-.09.61-.26.16-.18.24-.4.24-.68s-.09-.51-.28-.68c-.18-.17-.42-.26-.7-.26h-.96v1.88Z" fill="#fff"/>
        <path d="M266.96,328.87c-.48,0-.9-.11-1.27-.32s-.66-.51-.87-.9c-.21-.38-.31-.82-.31-1.31s.1-.94.31-1.32c.21-.38.49-.68.86-.9.36-.22.78-.33,1.26-.33s.9.11,1.26.33c.36.22.65.52.85.9s.31.82.31,1.31-.1.93-.31,1.32c-.21.38-.49.68-.85.9-.36.21-.78.32-1.25.32ZM266.97,328.24c.33,0,.63-.08.88-.25.26-.16.46-.39.6-.67.14-.29.22-.61.22-.99s-.07-.7-.22-.98c-.15-.29-.35-.51-.61-.68s-.56-.25-.89-.25-.63.08-.9.25c-.26.16-.47.39-.61.68-.15.29-.22.62-.22.98s.08.7.22.99c.15.28.36.51.62.67s.57.25.91.25Z" fill="#fff"/>
        <path d="M270.29,328.79v-4.9h.69v4.27h2.28v.63h-2.96Z" fill="#fff"/>
        <path d="M274.99,328.79v-2.05l-1.75-2.85h.79l1.3,2.14,1.3-2.14h.8l-1.75,2.84v2.06h-.69Z" fill="#fff"/>
      </g>
    </g>
  </g>
  <g id="Layer_10" data-name="Layer 10">
    <path d="M47.83,139.18l1.88-4.9h1.39l1.88,4.9h-1.37l-.29-.78h-1.83l-.29.78h-1.37ZM49.91,137.26h.99l-.49-1.36-.5,1.36Z" fill="#0097de"/>
    <g isolation="isolate">
      <g>
        <path d="M38.36,158.38v-4.9h.69v4.27h2.28v.63h-2.96Z" fill="#231f20"/>
        <path d="M42.03,158.38v-4.9h2.95v.63h-2.26v1.46h2.04v.62h-2.04v1.57h2.28v.63h-2.96Z" fill="#231f20"/>
        <path d="M47.62,158.38l-2.01-4.9h.74l1.65,4.1,1.66-4.1h.73l-2.01,4.9h-.76Z" fill="#231f20"/>
        <path d="M51.08,158.38v-4.9h2.95v.63h-2.26v1.46h2.04v.62h-2.04v1.57h2.27v.63h-2.96Z" fill="#231f20"/>
        <path d="M55.21,158.38v-4.9h.69v4.27h2.27v.63h-2.96Z" fill="#231f20"/>
      </g>
    </g>
    <g isolation="isolate">
      <g>
        <path d="M29.48,215.98v-4.9h.69v2.07h2.64v-2.07h.69v4.9h-.69v-2.21h-2.64v2.21h-.69Z" fill="#231f20"/>
        <path d="M34.18,215.98l1.97-4.9h.73l1.97,4.9h-.74l-.53-1.31h-2.16l-.53,1.31h-.73ZM35.68,214.06h1.69l-.84-2.11-.85,2.11Z" fill="#231f20"/>
        <path d="M39.55,215.98v-4.9h1.65c.33,0,.61.06.86.19.25.13.45.31.59.53.14.23.21.49.21.79,0,.32-.09.6-.27.85-.18.24-.42.42-.71.53l1.18,2.01h-.78l-1.09-1.88h-.96v1.88h-.69ZM40.23,213.48h1.03c.17,0,.32-.04.45-.12.13-.08.24-.18.32-.32s.12-.28.12-.45c0-.26-.09-.47-.27-.64-.18-.16-.42-.24-.71-.24h-.95v1.76Z" fill="#231f20"/>
        <path d="M43.96,215.98v-4.9h.73l1.62,2.4,1.62-2.4h.73v4.9h-.69v-3.79l-1.67,2.46-1.66-2.45v3.79h-.69Z" fill="#231f20"/>
        <path d="M52.03,216.07c-.48,0-.9-.11-1.27-.32-.37-.21-.66-.51-.86-.9-.21-.38-.31-.82-.31-1.31s.1-.94.31-1.32c.21-.38.49-.68.86-.9.36-.22.78-.33,1.26-.33s.9.11,1.26.33c.36.22.65.52.85.9.21.38.31.82.31,1.31s-.1.93-.31,1.32c-.21.38-.49.68-.85.9-.36.21-.78.32-1.25.32ZM52.04,215.44c.33,0,.62-.08.88-.25.26-.16.46-.39.6-.67.14-.29.22-.61.22-.99s-.07-.7-.22-.98c-.15-.29-.35-.51-.61-.68-.26-.16-.56-.24-.89-.24s-.63.08-.9.24c-.26.16-.46.39-.61.68-.15.29-.22.62-.22.98s.07.7.22.99c.15.28.36.51.62.67.26.16.56.25.91.25Z" fill="#231f20"/>
        <path d="M55.36,215.98v-4.9h.71l2.77,3.75v-3.75h.69v4.9h-.69l-2.79-3.79v3.79h-.69Z" fill="#231f20"/>
        <path d="M60.78,215.98v-4.9h.69v4.9h-.69Z" fill="#231f20"/>
        <path d="M64.8,216.07c-.47,0-.88-.11-1.25-.33-.36-.22-.65-.52-.85-.9-.21-.38-.31-.82-.31-1.31s.1-.93.31-1.31c.21-.38.49-.68.85-.9.36-.22.77-.33,1.24-.33.3,0,.59.06.87.17s.52.26.74.46c.22.19.38.42.5.67l-.62.28c-.09-.19-.21-.36-.36-.5-.15-.14-.33-.25-.52-.33-.19-.08-.4-.12-.61-.12-.33,0-.62.08-.88.24-.26.16-.46.39-.6.67-.14.28-.22.61-.22.99s.07.71.22.99c.15.29.35.51.61.68s.55.24.89.24c.21,0,.42-.04.61-.13.19-.09.36-.21.51-.36.15-.15.27-.33.37-.52l.62.27c-.12.27-.28.5-.5.71-.21.21-.46.37-.74.48s-.57.17-.88.17Z" fill="#231f20"/>
      </g>
    </g>
    <g isolation="isolate">
      <g>
        <path d="M35.4,273.58v-4.9h2.95v.63h-2.26v1.46h2.04v.62h-2.04v1.57h2.27v.63h-2.96Z" fill="#231f20"/>
        <path d="M39.54,273.58v-4.9h.71l2.77,3.75v-3.75h.69v4.9h-.69l-2.79-3.79v3.79h-.69Z" fill="#231f20"/>
        <path d="M44.4,273.58l1.97-4.9h.74l1.97,4.9h-.74l-.53-1.31h-2.16l-.53,1.31h-.73ZM45.89,271.66h1.69l-.84-2.11-.85,2.11Z" fill="#231f20"/>
        <path d="M49.76,273.58v-4.9h1.57c.34,0,.62.05.87.15s.43.25.56.46c.13.2.2.45.2.74,0,.22-.05.42-.16.6-.11.17-.25.32-.44.43.24.12.43.27.56.47.13.2.19.43.19.7s-.06.53-.19.73c-.13.2-.31.36-.54.46-.23.1-.51.16-.84.16h-1.78ZM50.44,270.79h1.01c.25,0,.45-.07.6-.2.15-.13.22-.32.22-.56s-.08-.44-.25-.57c-.17-.13-.4-.2-.71-.2h-.87v1.53ZM50.44,272.96h1.06c.29,0,.51-.07.68-.21s.24-.32.24-.56c0-.26-.09-.46-.28-.61s-.44-.21-.77-.21h-.92v1.58Z" fill="#231f20"/>
        <path d="M54.04,273.58v-4.9h.69v4.27h2.27v.63h-2.96Z" fill="#231f20"/>
        <path d="M57.71,273.58v-4.9h2.95v.63h-2.26v1.46h2.04v.62h-2.04v1.57h2.27v.63h-2.96Z" fill="#231f20"/>
      </g>
    </g>
    <g isolation="isolate">
      <g>
        <path d="M13.35,331.18l1.97-4.9h.74l1.97,4.9h-.74l-.53-1.31h-2.16l-.53,1.31h-.73ZM14.85,329.26h1.69l-.84-2.11-.85,2.11Z" fill="#231f20"/>
        <path d="M20.55,331.29c-.38,0-.71-.08-1-.24s-.51-.38-.67-.66c-.16-.28-.24-.61-.24-.98v-3.14h.69v3.14c0,.24.05.46.16.64.1.19.25.33.43.43.18.1.4.15.64.15s.46-.05.64-.15c.19-.1.33-.25.43-.43.1-.19.15-.4.15-.64v-3.14h.69v3.14c0,.37-.08.69-.24.98-.16.28-.39.5-.68.66-.29.16-.63.24-1.02.24Z" fill="#231f20"/>
        <path d="M23.66,331.18v-4.9h1.51c.47,0,.88.1,1.24.31.36.21.65.5.85.87.21.37.31.79.31,1.27s-.1.9-.31,1.27c-.21.37-.49.66-.85.87-.36.21-.78.32-1.24.32h-1.51ZM24.34,330.54h.83c.24,0,.46-.05.67-.14.21-.09.39-.22.54-.38.16-.17.28-.36.37-.58.09-.22.13-.46.13-.71s-.04-.49-.13-.71c-.09-.22-.21-.41-.37-.58-.16-.17-.34-.29-.54-.38-.21-.09-.43-.14-.67-.14h-.83v3.61Z" fill="#231f20"/>
        <path d="M28.5,331.18v-4.9h.69v4.9h-.69Z" fill="#231f20"/>
        <path d="M32.55,331.27c-.48,0-.9-.11-1.27-.32-.37-.21-.66-.51-.87-.9-.21-.38-.31-.82-.31-1.31s.1-.94.31-1.32c.21-.38.49-.68.86-.9.36-.22.78-.33,1.26-.33s.9.11,1.26.33c.36.22.65.52.85.9.21.38.31.82.31,1.31s-.1.93-.31,1.32-.49.68-.85.9c-.36.21-.78.32-1.25.32ZM32.56,330.64c.33,0,.63-.08.88-.25.26-.16.46-.39.6-.67.14-.29.22-.61.22-.99s-.07-.7-.22-.98c-.15-.29-.35-.51-.61-.68-.26-.16-.56-.24-.89-.24s-.63.08-.9.24c-.26.16-.47.39-.61.68-.15.29-.22.62-.22.98s.08.7.22.99c.15.28.36.51.62.67s.57.25.91.25Z" fill="#231f20"/>
        <path d="M37.59,331.18v-4.9h.69v4.9h-.69Z" fill="#231f20"/>
        <path d="M39.52,331.18v-4.9h.71l2.77,3.75v-3.75h.69v4.9h-.69l-2.79-3.79v3.79h-.69Z" fill="#231f20"/>
      </g>
    </g>
    <rect x="14.4" y="33.58" width="316.8" height="85.04" rx="8.5" ry="8.5" fill="none" stroke="#8a8a8a" stroke-dasharray="4 3" stroke-miterlimit="11.34" stroke-width=".6"/>
    <g isolation="isolate">
      <g>
        <path d="M63,331.18l-2.01-4.9h.74l1.65,4.1,1.66-4.1h.73l-2.01,4.9h-.76Z" fill="#231f20"/>
        <path d="M65.94,331.77l1.93-5.82h.67l-1.92,5.82h-.68Z" fill="#231f20"/>
        <path d="M71.38,331.27c-.48,0-.9-.11-1.27-.32-.37-.21-.66-.51-.87-.9-.21-.38-.31-.82-.31-1.31s.1-.94.31-1.32c.21-.38.49-.68.86-.9.36-.22.78-.33,1.26-.33s.9.11,1.26.33c.36.22.65.52.85.9.21.38.31.82.31,1.31s-.1.93-.31,1.32c-.21.38-.49.68-.85.9-.36.21-.78.32-1.25.32ZM71.39,330.64c.33,0,.62-.08.88-.25s.46-.39.6-.67c.14-.29.22-.61.22-.99s-.07-.7-.22-.98-.35-.51-.61-.68c-.26-.16-.56-.24-.89-.24s-.63.08-.9.24c-.26.16-.47.39-.61.68s-.22.62-.22.98.07.7.22.99c.15.28.36.51.62.67s.57.25.91.25Z" fill="#231f20"/>
        <path d="M76.8,331.27c-.47,0-.88-.11-1.25-.33-.36-.22-.65-.52-.85-.9-.21-.38-.31-.82-.31-1.31s.1-.93.31-1.31c.21-.38.49-.68.85-.9.36-.22.77-.33,1.24-.33.3,0,.59.06.87.17s.52.26.74.46.38.42.5.67l-.62.28c-.09-.19-.21-.36-.37-.5-.15-.14-.33-.25-.52-.33-.19-.08-.39-.12-.61-.12-.33,0-.62.08-.88.24-.26.16-.46.39-.6.67-.14.28-.22.61-.22.99s.07.71.22.99.35.51.61.68c.26.16.55.24.88.24.21,0,.42-.04.61-.13.19-.09.36-.21.51-.36.15-.15.28-.33.37-.52l.62.27c-.12.27-.28.5-.5.71-.21.21-.46.37-.74.48-.28.11-.57.17-.88.17Z" fill="#231f20"/>
        <path d="M80.76,331.18v-4.27h-1.53v-.63h3.76v.63h-1.53v4.27h-.69Z" fill="#231f20"/>
      </g>
    </g>
    <g isolation="isolate">
      <g>
        <path d="M107.79,331.27c-.26,0-.5-.03-.71-.09-.21-.06-.4-.14-.55-.25-.16-.1-.29-.22-.39-.35-.1-.13-.18-.27-.22-.41l.67-.22c.07.19.2.36.4.5.2.14.44.21.72.22.34,0,.62-.07.82-.21s.3-.32.3-.55c0-.21-.09-.38-.26-.51-.17-.13-.4-.23-.69-.3l-.57-.15c-.22-.06-.43-.15-.61-.26s-.33-.25-.44-.43c-.11-.17-.16-.38-.16-.62,0-.45.15-.8.44-1.05.29-.25.71-.38,1.26-.38.32,0,.59.05.83.15.23.1.43.23.58.4.15.16.26.34.32.54l-.66.22c-.08-.21-.21-.38-.41-.51-.19-.13-.43-.19-.71-.19-.29,0-.53.07-.7.21-.17.14-.25.33-.25.57,0,.21.07.36.2.47.13.11.31.19.54.25l.57.14c.46.11.81.3,1.06.56.25.26.38.54.38.85,0,.27-.07.51-.2.72s-.33.38-.59.5c-.26.12-.58.19-.96.19Z" fill="#231f20"/>
        <path d="M110.5,331.18v-4.9h.69v2.07h2.64v-2.07h.69v4.9h-.69v-2.21h-2.64v2.21h-.69Z" fill="#231f20"/>
        <path d="M115.75,331.18v-4.9h.69v4.9h-.69Z" fill="#231f20"/>
        <path d="M117.69,331.18v-4.9h2.97v.63h-2.28v1.54h1.99v.63h-1.99v2.1h-.69Z" fill="#231f20"/>
        <path d="M122.5,331.18v-4.27h-1.53v-.63h3.76v.63h-1.53v4.27h-.69Z" fill="#231f20"/>
      </g>
    </g>
    <g isolation="isolate">
      <g>
        <path d="M144.64,331.18v-4.27h-1.53v-.63h3.76v.63h-1.53v4.27h-.69Z" fill="#231f20"/>
        <path d="M149.4,331.29c-.38,0-.71-.08-1-.24s-.51-.38-.67-.66c-.16-.28-.24-.61-.24-.98v-3.14h.69v3.14c0,.24.05.46.16.64.11.19.25.33.43.43.18.1.4.15.64.15s.46-.05.64-.15c.19-.1.33-.25.43-.43.1-.19.15-.4.15-.64v-3.14h.69v3.14c0,.37-.08.69-.24.98-.16.28-.39.5-.68.66-.29.16-.63.24-1.02.24Z" fill="#231f20"/>
        <path d="M152.51,331.18v-4.9h.71l2.77,3.75v-3.75h.69v4.9h-.69l-2.79-3.79v3.79h-.69Z" fill="#231f20"/>
        <path d="M157.93,331.18v-4.9h2.95v.63h-2.26v1.46h2.04v.62h-2.04v1.57h2.27v.63h-2.96Z" fill="#231f20"/>
      </g>
    </g>
    <g isolation="isolate">
      <g>
        <path d="M177.43,331.18l-1.48-4.9h.7l1.15,3.84,1.12-3.84h.69l1.1,3.82,1.18-3.82h.69l-1.51,4.9h-.73l-1.08-3.79-1.1,3.79h-.74Z" fill="#231f20"/>
        <path d="M183.27,331.18v-4.9h.69v4.9h-.69Z" fill="#231f20"/>
        <path d="M185.21,331.18v-4.9h1.51c.47,0,.88.1,1.24.31.36.21.64.5.85.87.21.37.31.79.31,1.27s-.1.9-.31,1.27c-.21.37-.49.66-.85.87s-.78.32-1.24.32h-1.51ZM185.89,330.54h.83c.24,0,.46-.05.66-.14.21-.09.39-.22.54-.38.16-.17.28-.36.36-.58.09-.22.13-.46.13-.71s-.04-.49-.13-.71c-.09-.22-.21-.41-.36-.58s-.34-.29-.54-.38c-.21-.09-.43-.14-.66-.14h-.83v3.61Z" fill="#231f20"/>
        <path d="M190.95,331.18v-4.27h-1.53v-.63h3.76v.63h-1.53v4.27h-.69Z" fill="#231f20"/>
        <path d="M193.89,331.18v-4.9h.69v2.07h2.64v-2.07h.69v4.9h-.69v-2.21h-2.64v2.21h-.69Z" fill="#231f20"/>
      </g>
    </g>
    <circle cx="28.8" cy="287.98" r=".7" fill="#2faa55"/>
    <path d="M127.87,139.18v-4.9h1.76c.34,0,.64.05.9.15s.47.26.62.48c.15.21.22.49.22.82,0,.15-.04.3-.13.44s-.2.28-.35.4c.21.12.38.27.5.46.12.19.17.42.17.7,0,.31-.07.58-.22.79-.14.22-.34.38-.6.49s-.55.17-.88.17h-2.01ZM129.13,136.14h.41c.15,0,.27-.04.36-.11.09-.07.14-.18.14-.31s-.05-.24-.14-.32c-.09-.07-.21-.11-.36-.11h-.41v.85ZM129.13,138.04h.59c.15,0,.28-.04.37-.13s.14-.19.14-.32-.04-.23-.14-.31-.21-.12-.37-.12h-.59v.88Z" fill="#1fbc17"/>
    <g isolation="isolate">
      <g>
        <path d="M117.56,158.38v-4.9h.69v4.27h2.27v.63h-2.96Z" fill="#231f20"/>
        <path d="M121.23,158.38v-4.9h2.95v.63h-2.26v1.46h2.04v.62h-2.04v1.57h2.27v.63h-2.96Z" fill="#231f20"/>
        <path d="M126.82,158.38l-2.01-4.9h.74l1.65,4.1,1.66-4.1h.74l-2.01,4.9h-.76Z" fill="#231f20"/>
        <path d="M130.28,158.38v-4.9h2.95v.63h-2.26v1.46h2.04v.62h-2.04v1.57h2.28v.63h-2.96Z" fill="#231f20"/>
        <path d="M134.41,158.38v-4.9h.69v4.27h2.28v.63h-2.96Z" fill="#231f20"/>
      </g>
    </g>
    <g isolation="isolate">
      <g>
        <path d="M108.68,215.98v-4.9h.69v2.07h2.64v-2.07h.69v4.9h-.69v-2.21h-2.64v2.21h-.69Z" fill="#231f20"/>
        <path d="M113.38,215.98l1.97-4.9h.73l1.97,4.9h-.73l-.53-1.31h-2.16l-.53,1.31h-.74ZM114.88,214.06h1.69l-.84-2.11-.85,2.11Z" fill="#231f20"/>
        <path d="M118.75,215.98v-4.9h1.65c.33,0,.62.06.87.19.25.13.45.31.59.53.14.23.21.49.21.79,0,.32-.09.6-.27.85-.18.24-.42.42-.71.53l1.18,2.01h-.78l-1.09-1.88h-.96v1.88h-.69ZM119.43,213.48h1.03c.17,0,.32-.04.45-.12.13-.08.24-.18.32-.32.08-.13.12-.28.12-.45,0-.26-.09-.47-.27-.64-.18-.16-.42-.24-.71-.24h-.94v1.76Z" fill="#231f20"/>
        <path d="M123.16,215.98v-4.9h.73l1.62,2.4,1.62-2.4h.73v4.9h-.69v-3.79l-1.67,2.46-1.66-2.45v3.79h-.69Z" fill="#231f20"/>
        <path d="M131.23,216.07c-.48,0-.9-.11-1.27-.32-.37-.21-.66-.51-.87-.9-.21-.38-.31-.82-.31-1.31s.1-.94.31-1.32c.21-.38.49-.68.86-.9.36-.22.78-.33,1.26-.33s.9.11,1.26.33c.36.22.65.52.85.9.21.38.31.82.31,1.31s-.1.93-.31,1.32c-.21.38-.49.68-.85.9-.36.21-.78.32-1.25.32ZM131.24,215.44c.33,0,.62-.08.88-.25s.46-.39.6-.67c.14-.29.22-.61.22-.99s-.07-.7-.22-.98-.35-.51-.61-.68c-.26-.16-.56-.24-.89-.24s-.63.08-.9.24c-.26.16-.47.39-.61.68s-.22.62-.22.98.07.7.22.99c.15.28.36.51.62.67s.57.25.91.25Z" fill="#231f20"/>
        <path d="M134.56,215.98v-4.9h.71l2.77,3.75v-3.75h.69v4.9h-.69l-2.79-3.79v3.79h-.69Z" fill="#231f20"/>
        <path d="M139.98,215.98v-4.9h.69v4.9h-.69Z" fill="#231f20"/>
        <path d="M144,216.07c-.47,0-.88-.11-1.25-.33-.36-.22-.65-.52-.85-.9-.21-.38-.31-.82-.31-1.31s.1-.93.31-1.31c.21-.38.49-.68.85-.9.36-.22.77-.33,1.24-.33.3,0,.59.06.87.17s.52.26.74.46.38.42.5.67l-.62.28c-.09-.19-.21-.36-.37-.5-.15-.14-.33-.25-.52-.33-.19-.08-.39-.12-.61-.12-.33,0-.62.08-.88.24-.26.16-.46.39-.6.67-.14.28-.22.61-.22.99s.07.71.22.99.35.51.61.68c.26.16.55.24.88.24.21,0,.42-.04.61-.13.19-.09.36-.21.51-.36.15-.15.28-.33.37-.52l.62.27c-.12.27-.28.5-.5.71-.21.21-.46.37-.74.48-.28.11-.57.17-.88.17Z" fill="#231f20"/>
      </g>
    </g>
    <g isolation="isolate">
      <g>
        <path d="M114.6,273.58v-4.9h2.95v.63h-2.26v1.46h2.04v.62h-2.04v1.57h2.28v.63h-2.96Z" fill="#231f20"/>
        <path d="M118.74,273.58v-4.9h.71l2.77,3.75v-3.75h.69v4.9h-.69l-2.79-3.79v3.79h-.69Z" fill="#231f20"/>
        <path d="M123.59,273.58l1.97-4.9h.73l1.97,4.9h-.74l-.53-1.31h-2.16l-.53,1.31h-.73ZM125.09,271.66h1.69l-.84-2.11-.85,2.11Z" fill="#231f20"/>
        <path d="M128.96,273.58v-4.9h1.58c.34,0,.62.05.86.15s.43.25.56.46c.13.2.2.45.2.74,0,.22-.05.42-.16.6-.1.17-.25.32-.44.43.24.12.43.27.56.47.13.2.19.43.19.7s-.06.53-.19.73c-.13.2-.31.36-.54.46-.23.1-.51.16-.84.16h-1.78ZM129.64,270.79h1.01c.25,0,.45-.07.6-.2.15-.13.22-.32.22-.56s-.08-.44-.25-.57c-.17-.13-.4-.2-.71-.2h-.87v1.53ZM129.64,272.96h1.06c.29,0,.51-.07.68-.21.16-.14.24-.32.24-.56,0-.26-.09-.46-.28-.61-.19-.14-.44-.21-.77-.21h-.92v1.58Z" fill="#231f20"/>
        <path d="M133.24,273.58v-4.9h.69v4.27h2.28v.63h-2.96Z" fill="#231f20"/>
        <path d="M136.91,273.58v-4.9h2.95v.63h-2.26v1.46h2.04v.62h-2.04v1.57h2.28v.63h-2.96Z" fill="#231f20"/>
      </g>
    </g>
    <circle cx="108" cy="287.98" r=".7" fill="#2faa55"/>
    <path d="M208.93,139.27c-.49,0-.92-.11-1.3-.33-.38-.22-.67-.52-.89-.9-.21-.38-.32-.82-.32-1.31s.11-.93.32-1.31c.21-.38.51-.68.89-.9.38-.22.81-.33,1.3-.33.38,0,.72.07,1.02.2.3.13.56.31.78.55.22.23.39.5.5.81l-1.23.39c-.07-.15-.15-.29-.25-.4s-.22-.2-.36-.26-.29-.09-.46-.09c-.23,0-.43.06-.61.17s-.32.27-.42.47c-.1.2-.15.43-.15.7s.05.49.15.7c.1.2.24.36.42.48s.39.17.62.17c.18,0,.34-.03.47-.09.13-.06.25-.15.34-.27s.18-.25.25-.4l1.23.39c-.11.31-.28.58-.5.82-.22.24-.48.42-.79.55-.31.13-.65.2-1.03.2Z" fill="#dd6400"/>
    <g isolation="isolate">
      <g>
        <path d="M196.76,158.38v-4.9h.69v4.27h2.28v.63h-2.96Z" fill="#231f20"/>
        <path d="M200.43,158.38v-4.9h2.95v.63h-2.26v1.46h2.04v.62h-2.04v1.57h2.28v.63h-2.96Z" fill="#231f20"/>
        <path d="M206.02,158.38l-2.01-4.9h.73l1.65,4.1,1.66-4.1h.74l-2.01,4.9h-.76Z" fill="#231f20"/>
        <path d="M209.48,158.38v-4.9h2.95v.63h-2.26v1.46h2.04v.62h-2.04v1.57h2.27v.63h-2.96Z" fill="#231f20"/>
        <path d="M213.61,158.38v-4.9h.69v4.27h2.27v.63h-2.96Z" fill="#231f20"/>
      </g>
    </g>
    <g isolation="isolate">
      <g>
        <path d="M187.88,215.98v-4.9h.69v2.07h2.64v-2.07h.69v4.9h-.69v-2.21h-2.64v2.21h-.69Z" fill="#231f20"/>
        <path d="M192.58,215.98l1.97-4.9h.74l1.97,4.9h-.74l-.53-1.31h-2.16l-.53,1.31h-.73ZM194.08,214.06h1.69l-.84-2.11-.85,2.11Z" fill="#231f20"/>
        <path d="M197.95,215.98v-4.9h1.65c.33,0,.61.06.86.19.25.13.45.31.59.53.14.23.21.49.21.79,0,.32-.09.6-.27.85-.18.24-.42.42-.71.53l1.18,2.01h-.78l-1.09-1.88h-.96v1.88h-.69ZM198.63,213.48h1.03c.17,0,.32-.04.45-.12.13-.08.24-.18.32-.32.08-.13.12-.28.12-.45,0-.26-.09-.47-.27-.64-.18-.16-.42-.24-.71-.24h-.95v1.76Z" fill="#231f20"/>
        <path d="M202.36,215.98v-4.9h.73l1.62,2.4,1.62-2.4h.73v4.9h-.69v-3.79l-1.67,2.46-1.66-2.45v3.79h-.69Z" fill="#231f20"/>
        <path d="M210.43,216.07c-.48,0-.9-.11-1.27-.32-.37-.21-.66-.51-.86-.9s-.31-.82-.31-1.31.1-.94.31-1.32c.21-.38.49-.68.86-.9.36-.22.78-.33,1.26-.33s.9.11,1.26.33c.36.22.65.52.85.9.21.38.31.82.31,1.31s-.1.93-.31,1.32-.49.68-.85.9c-.36.21-.78.32-1.25.32ZM210.44,215.44c.33,0,.63-.08.88-.25.26-.16.46-.39.6-.67.14-.29.22-.61.22-.99s-.07-.7-.22-.98-.35-.51-.61-.68c-.26-.16-.56-.24-.89-.24s-.63.08-.9.24c-.26.16-.46.39-.61.68s-.22.62-.22.98.08.7.22.99c.15.28.36.51.62.67.26.16.57.25.91.25Z" fill="#231f20"/>
        <path d="M213.76,215.98v-4.9h.71l2.77,3.75v-3.75h.69v4.9h-.69l-2.79-3.79v3.79h-.69Z" fill="#231f20"/>
        <path d="M219.18,215.98v-4.9h.69v4.9h-.69Z" fill="#231f20"/>
        <path d="M223.2,216.07c-.47,0-.88-.11-1.25-.33-.36-.22-.65-.52-.85-.9-.21-.38-.31-.82-.31-1.31s.1-.93.31-1.31c.21-.38.49-.68.85-.9.36-.22.77-.33,1.24-.33.3,0,.59.06.87.17s.52.26.74.46c.22.19.38.42.5.67l-.62.28c-.09-.19-.21-.36-.36-.5-.15-.14-.33-.25-.52-.33-.19-.08-.4-.12-.61-.12-.33,0-.62.08-.88.24-.26.16-.46.39-.6.67-.14.28-.22.61-.22.99s.07.71.22.99.35.51.61.68c.26.16.55.24.89.24.21,0,.42-.04.61-.13.19-.09.36-.21.51-.36.15-.15.27-.33.37-.52l.62.27c-.12.27-.28.5-.5.71-.21.21-.46.37-.74.48-.28.11-.57.17-.88.17Z" fill="#231f20"/>
      </g>
    </g>
    <g isolation="isolate">
      <g>
        <path d="M193.8,273.58v-4.9h2.95v.63h-2.26v1.46h2.04v.62h-2.04v1.57h2.27v.63h-2.96Z" fill="#231f20"/>
        <path d="M197.94,273.58v-4.9h.71l2.77,3.75v-3.75h.69v4.9h-.69l-2.79-3.79v3.79h-.69Z" fill="#231f20"/>
        <path d="M202.79,273.58l1.97-4.9h.74l1.97,4.9h-.73l-.53-1.31h-2.16l-.53,1.31h-.74ZM204.29,271.66h1.69l-.84-2.11-.85,2.11Z" fill="#231f20"/>
        <path d="M208.16,273.58v-4.9h1.58c.34,0,.62.05.86.15s.43.25.56.46c.13.2.2.45.2.74,0,.22-.05.42-.16.6-.11.17-.25.32-.44.43.24.12.43.27.56.47.13.2.19.43.19.7s-.06.53-.19.73c-.13.2-.31.36-.54.46-.23.1-.51.16-.84.16h-1.78ZM208.84,270.79h1.01c.25,0,.45-.07.6-.2.15-.13.22-.32.22-.56s-.08-.44-.25-.57c-.17-.13-.4-.2-.71-.2h-.87v1.53ZM208.84,272.96h1.06c.29,0,.52-.07.68-.21.16-.14.24-.32.24-.56,0-.26-.09-.46-.28-.61-.18-.14-.44-.21-.77-.21h-.92v1.58Z" fill="#231f20"/>
        <path d="M212.44,273.58v-4.9h.69v4.27h2.27v.63h-2.96Z" fill="#231f20"/>
        <path d="M216.11,273.58v-4.9h2.95v.63h-2.26v1.46h2.04v.62h-2.04v1.57h2.27v.63h-2.96Z" fill="#231f20"/>
      </g>
    </g>
    <circle cx="187.2" cy="287.98" r=".7" fill="#2faa55"/>
    <path d="M285.93,139.18v-4.9h1.64c.54,0,1.01.11,1.42.32.41.21.74.5.97.86.23.37.35.79.35,1.27s-.12.9-.35,1.27c-.23.37-.56.66-.97.87-.41.21-.89.32-1.42.32h-1.64ZM287.23,137.96h.34c.21,0,.39-.03.57-.09.17-.06.32-.14.45-.25.13-.11.22-.24.29-.38.07-.15.1-.31.1-.5s-.04-.35-.1-.5c-.07-.15-.17-.28-.29-.38-.13-.11-.28-.19-.45-.25-.17-.06-.36-.09-.57-.09h-.34v2.45Z" fill="#692fbc"/>
    <g isolation="isolate">
      <g>
        <path d="M275.96,158.38v-4.9h.69v4.27h2.27v.63h-2.96Z" fill="#231f20"/>
        <path d="M279.63,158.38v-4.9h2.95v.63h-2.26v1.46h2.04v.62h-2.04v1.57h2.27v.63h-2.96Z" fill="#231f20"/>
        <path d="M285.22,158.38l-2.01-4.9h.74l1.65,4.1,1.66-4.1h.74l-2.01,4.9h-.76Z" fill="#231f20"/>
        <path d="M288.68,158.38v-4.9h2.95v.63h-2.26v1.46h2.04v.62h-2.04v1.57h2.28v.63h-2.96Z" fill="#231f20"/>
        <path d="M292.81,158.38v-4.9h.69v4.27h2.28v.63h-2.96Z" fill="#231f20"/>
      </g>
    </g>
    <g isolation="isolate">
      <g>
        <path d="M267.08,215.98v-4.9h.69v2.07h2.64v-2.07h.69v4.9h-.69v-2.21h-2.64v2.21h-.69Z" fill="#231f20"/>
        <path d="M271.78,215.98l1.97-4.9h.73l1.97,4.9h-.73l-.53-1.31h-2.16l-.53,1.31h-.74ZM273.28,214.06h1.69l-.84-2.11-.85,2.11Z" fill="#231f20"/>
        <path d="M277.15,215.98v-4.9h1.65c.33,0,.62.06.87.19.25.13.45.31.59.53.14.23.21.49.21.79,0,.32-.09.6-.27.85-.18.24-.42.42-.71.53l1.18,2.01h-.78l-1.09-1.88h-.96v1.88h-.69ZM277.83,213.48h1.03c.17,0,.32-.04.45-.12.13-.08.24-.18.32-.32.08-.13.12-.28.12-.45,0-.26-.09-.47-.27-.64-.18-.16-.42-.24-.71-.24h-.94v1.76Z" fill="#231f20"/>
        <path d="M281.57,215.98v-4.9h.73l1.62,2.4,1.62-2.4h.73v4.9h-.69v-3.79l-1.67,2.46-1.66-2.45v3.79h-.69Z" fill="#231f20"/>
        <path d="M289.63,216.07c-.48,0-.9-.11-1.27-.32-.37-.21-.66-.51-.87-.9-.21-.38-.31-.82-.31-1.31s.1-.94.31-1.32c.21-.38.49-.68.86-.9.36-.22.78-.33,1.26-.33s.9.11,1.26.33c.36.22.65.52.85.9.21.38.31.82.31,1.31s-.1.93-.31,1.32c-.21.38-.49.68-.85.9-.36.21-.78.32-1.25.32ZM289.64,215.44c.33,0,.62-.08.88-.25s.46-.39.6-.67c.14-.29.22-.61.22-.99s-.07-.7-.22-.98-.35-.51-.61-.68c-.26-.16-.56-.24-.89-.24s-.63.08-.9.24c-.26.16-.47.39-.61.68s-.22.62-.22.98.07.7.22.99c.15.28.36.51.62.67s.57.25.91.25Z" fill="#231f20"/>
        <path d="M292.96,215.98v-4.9h.71l2.77,3.75v-3.75h.69v4.9h-.69l-2.79-3.79v3.79h-.69Z" fill="#231f20"/>
        <path d="M298.38,215.98v-4.9h.69v4.9h-.69Z" fill="#231f20"/>
        <path d="M302.4,216.07c-.47,0-.88-.11-1.25-.33-.36-.22-.65-.52-.85-.9-.21-.38-.31-.82-.31-1.31s.1-.93.31-1.31c.21-.38.49-.68.85-.9.36-.22.77-.33,1.24-.33.3,0,.59.06.87.17s.52.26.74.46.38.42.5.67l-.62.28c-.09-.19-.21-.36-.37-.5-.15-.14-.33-.25-.52-.33-.19-.08-.39-.12-.61-.12-.33,0-.62.08-.88.24-.26.16-.46.39-.6.67-.14.28-.22.61-.22.99s.07.71.22.99.35.51.61.68c.26.16.55.24.88.24.21,0,.42-.04.61-.13.19-.09.36-.21.51-.36.15-.15.28-.33.37-.52l.62.27c-.12.27-.28.5-.5.71-.21.21-.46.37-.74.48-.28.11-.57.17-.88.17Z" fill="#231f20"/>
      </g>
    </g>
    <g isolation="isolate">
      <g>
        <path d="M273,273.58v-4.9h2.95v.63h-2.26v1.46h2.04v.62h-2.04v1.57h2.28v.63h-2.96Z" fill="#231f20"/>
        <path d="M277.14,273.58v-4.9h.71l2.77,3.75v-3.75h.69v4.9h-.69l-2.79-3.79v3.79h-.69Z" fill="#231f20"/>
        <path d="M282,273.58l1.97-4.9h.73l1.97,4.9h-.74l-.53-1.31h-2.16l-.53,1.31h-.73ZM283.49,271.66h1.69l-.84-2.11-.85,2.11Z" fill="#231f20"/>
        <path d="M287.36,273.58v-4.9h1.58c.34,0,.62.05.86.15s.43.25.56.46c.13.2.2.45.2.74,0,.22-.05.42-.16.6-.1.17-.25.32-.44.43.24.12.43.27.56.47.13.2.19.43.19.7s-.06.53-.19.73c-.13.2-.31.36-.54.46-.23.1-.51.16-.84.16h-1.78ZM288.04,270.79h1.01c.25,0,.45-.07.6-.2.15-.13.22-.32.22-.56s-.08-.44-.25-.57c-.17-.13-.4-.2-.71-.2h-.87v1.53ZM288.04,272.96h1.06c.29,0,.51-.07.68-.21.16-.14.24-.32.24-.56,0-.26-.09-.46-.28-.61-.19-.14-.44-.21-.77-.21h-.92v1.58Z" fill="#231f20"/>
        <path d="M291.64,273.58v-4.9h.69v4.27h2.28v.63h-2.96Z" fill="#231f20"/>
        <path d="M295.31,273.58v-4.9h2.95v.63h-2.26v1.46h2.04v.62h-2.04v1.57h2.28v.63h-2.96Z" fill="#231f20"/>
      </g>
    </g>
    <circle cx="266.4" cy="287.98" r=".7" fill="#2faa55"/>
  </g>
</svg>