<?xml version="1.0" encoding="UTF-8"?>
<svg xmlns="http://www.w3.org/2000/svg" width="132.08mm" height="128.5mm" viewBox="0 0 374.4 364.25">
<rect x="0" y="0" width="374.4" height="364.25" rx="0" fill="#f0f0f0" stroke="none" stroke-width="1" />
<rect x="0.5" y="0.5" width="373.4" height="363.25" rx="0" fill="none" stroke="#c8c8c8" stroke-width="1" />
<text x="14.17" y="25.51" font-family="sans-serif" font-size="13" font-weight="bold" fill="#231f20" text-anchor="start">CHANCE</text>
<rect x="14.17" y="34.02" width="345.83" height="175.75" rx="8.5" fill="#1a1a2e" stroke="#404060" stroke-width="1" />
<line x1="18.01" y1="86.74" x2="356.16" y2="86.74" stroke="#2a2a3e" stroke-width="1" />
<line x1="18.01" y1="150.01" x2="356.16" y2="150.01" stroke="#2a2a3e" stroke-width="1" />
<text x="357.0" y="43.02" font-family="sans-serif" font-size="5.5" font-weight="normal" fill="#8a8aaa" text-anchor="end">WALK — core grey · played blue · harmony teal</text>
<line x1="36.85" y1="39.78" x2="36.85" y2="82.9" stroke="#2f2f4a" stroke-width="0.6" stroke-dasharray="2,3"/>
<line x1="79.37" y1="39.78" x2="79.37" y2="82.9" stroke="#2f2f4a" stroke-width="0.6" stroke-dasharray="2,3"/>
<line x1="121.89" y1="39.78" x2="121.89" y2="82.9" stroke="#2f2f4a" stroke-width="0.6" stroke-dasharray="2,3"/>
<line x1="164.41" y1="39.78" x2="164.41" y2="82.9" stroke="#2f2f4a" stroke-width="0.6" stroke-dasharray="2,3"/>
<line x1="206.93" y1="39.78" x2="206.93" y2="82.9" stroke="#2f2f4a" stroke-width="0.6" stroke-dasharray="2,3"/>
<line x1="249.45" y1="39.78" x2="249.45" y2="82.9" stroke="#2f2f4a" stroke-width="0.6" stroke-dasharray="2,3"/>
<line x1="291.97" y1="39.78" x2="291.97" y2="82.9" stroke="#2f2f4a" stroke-width="0.6" stroke-dasharray="2,3"/>
<line x1="334.49" y1="39.78" x2="334.49" y2="82.9" stroke="#2f2f4a" stroke-width="0.6" stroke-dasharray="2,3"/>
<polyline points="36.85,58.32 79.37,52.14 121.89,48.02 164.41,54.2 206.93,56.26 249.45,52.14 291.97,54.2 334.49,45.96" fill="none" stroke="#3fc99a" stroke-width="1.3"/>
<polyline points="36.85,70.68 79.37,62.44 121.89,54.2 164.41,60.38 206.93,64.5 249.45,70.68 291.97,62.44 334.49,52.14" fill="none" stroke="#0097de" stroke-width="1.6"/>
<circle cx="36.85" cy="70.68" r="2.3" fill="#0097de" stroke="none" stroke-width="1"/>
<circle cx="36.85" cy="58.32" r="1.82" fill="#3fc99a" stroke="none" stroke-width="1"/>
<circle cx="79.37" cy="62.44" r="2.3" fill="#0097de" stroke="none" stroke-width="1"/>
<circle cx="79.37" cy="52.14" r="1.82" fill="#3fc99a" stroke="none" stroke-width="1"/>
<circle cx="121.89" cy="54.2" r="2.3" fill="#0097de" stroke="none" stroke-width="1"/>
<circle cx="121.89" cy="48.02" r="1.82" fill="#3fc99a" stroke="none" stroke-width="1"/>
<circle cx="164.41" cy="60.38" r="2.3" fill="#0097de" stroke="none" stroke-width="1"/>
<circle cx="164.41" cy="54.2" r="1.82" fill="#3fc99a" stroke="none" stroke-width="1"/>
<circle cx="206.93" cy="64.5" r="2.3" fill="#0097de" stroke="none" stroke-width="1"/>
<circle cx="206.93" cy="56.26" r="1.82" fill="#3fc99a" stroke="none" stroke-width="1"/>
<circle cx="249.45" cy="70.68" r="2.3" fill="#0097de" stroke="none" stroke-width="1"/>
<circle cx="249.45" cy="52.14" r="1.82" fill="#3fc99a" stroke="none" stroke-width="1"/>
<circle cx="291.97" cy="62.44" r="2.3" fill="#0097de" stroke="none" stroke-width="1"/>
<circle cx="291.97" cy="54.2" r="1.82" fill="#3fc99a" stroke="none" stroke-width="1"/>
<circle cx="334.49" cy="52.14" r="2.3" fill="#0097de" stroke="none" stroke-width="1"/>
<circle cx="334.49" cy="45.96" r="1.82" fill="#3fc99a" stroke="none" stroke-width="1"/>
<circle cx="121.89" cy="54.2" r="3.26" fill="#ec652e" stroke="none" stroke-width="1"/>
<text x="17.17" y="44.94" font-family="sans-serif" font-size="7" font-weight="normal" fill="#a8a8cc" text-anchor="start">C Maj</text>
<text x="18.01" y="83.74" font-family="sans-serif" font-size="5.5" font-weight="normal" fill="#8a8aaa" text-anchor="start">PATTERN BANK  (click=focus/edit · dbl-click=on/off · boxes=repeats · R=reseed)</text>
<rect x="18.97" y="89.62" width="40.35" height="57.51" rx="2" fill="#25344a" stroke="#3a3a52" stroke-width="0.8" />
<rect x="20.77" y="91.42" width="36.75" height="53.91" rx="1.5" fill="none" stroke="#ccdcf0" stroke-width="1" />
<rect x="19.47" y="90.12" width="39.35" height="56.51" rx="2" fill="none" stroke="#ec652e" stroke-width="1.2" />
<text x="21.97" y="97.62" font-family="sans-serif" font-size="7" font-weight="normal" fill="#e6e6f0" text-anchor="start">1</text>
<rect x="48.76" y="91.54" width="8.64" height="8.64" rx="1.5" fill="none" stroke="#50506a" stroke-width="0.8" />
<text x="53.08" y="97.86" font-family="sans-serif" font-size="6" font-weight="normal" fill="#50506a" text-anchor="middle">R</text>
<rect x="21.85" y="102.1" width="34.59" height="32.55" rx="0" fill="none" stroke="#33334d" stroke-width="0.5" />
<rect x="21.59" y="137.27" width="3.16" height="7.24" rx="0.8" fill="#0d5986" stroke="none" stroke-width="1" />
<rect x="26.16" y="137.27" width="3.16" height="7.24" rx="0.8" fill="#2c2c3c" stroke="none" stroke-width="1" />
<rect x="30.72" y="137.27" width="3.16" height="7.24" rx="0.8" fill="#2c2c3c" stroke="none" stroke-width="1" />
<rect x="35.28" y="137.27" width="3.16" height="7.24" rx="0.8" fill="#2c2c3c" stroke="none" stroke-width="1" />
<rect x="39.85" y="137.27" width="3.16" height="7.24" rx="0.8" fill="#2c2c3c" stroke="none" stroke-width="1" />
<rect x="44.41" y="137.27" width="3.16" height="7.24" rx="0.8" fill="#2c2c3c" stroke="none" stroke-width="1" />
<rect x="48.97" y="137.27" width="3.16" height="7.24" rx="0.8" fill="#2c2c3c" stroke="none" stroke-width="1" />
<rect x="53.54" y="137.27" width="3.16" height="7.24" rx="0.8" fill="#2c2c3c" stroke="none" stroke-width="1" />
<rect x="61.24" y="89.62" width="40.35" height="57.51" rx="2" fill="#25344a" stroke="#3a3a52" stroke-width="0.8" />
<text x="64.24" y="97.62" font-family="sans-serif" font-size="7" font-weight="normal" fill="#e6e6f0" text-anchor="start">2</text>
<rect x="91.03" y="91.54" width="8.64" height="8.64" rx="1.5" fill="#ec652e" stroke="#50506a" stroke-width="0.8" />
<text x="95.35" y="97.86" font-family="sans-serif" font-size="6" font-weight="normal" fill="#1a1a2e" text-anchor="middle">R</text>
<rect x="64.12" y="102.1" width="34.59" height="32.55" rx="0" fill="none" stroke="#33334d" stroke-width="0.5" />
<rect x="63.86" y="137.27" width="3.16" height="7.24" rx="0.8" fill="#0d5986" stroke="none" stroke-width="1" />
<rect x="68.43" y="137.27" width="3.16" height="7.24" rx="0.8" fill="#2c2c3c" stroke="none" stroke-width="1" />
<rect x="72.99" y="137.27" width="3.16" height="7.24" rx="0.8" fill="#2c2c3c" stroke="none" stroke-width="1" />
<rect x="77.55" y="137.27" width="3.16" height="7.24" rx="0.8" fill="#2c2c3c" stroke="none" stroke-width="1" />
<rect x="82.12" y="137.27" width="3.16" height="7.24" rx="0.8" fill="#2c2c3c" stroke="none" stroke-width="1" />
<rect x="86.68" y="137.27" width="3.16" height="7.24" rx="0.8" fill="#2c2c3c" stroke="none" stroke-width="1" />
<rect x="91.24" y="137.27" width="3.16" height="7.24" rx="0.8" fill="#2c2c3c" stroke="none" stroke-width="1" />
<rect x="95.81" y="137.27" width="3.16" height="7.24" rx="0.8" fill="#2c2c3c" stroke="none" stroke-width="1" />
<rect x="103.51" y="89.62" width="40.35" height="57.51" rx="2" fill="#25344a" stroke="#3a3a52" stroke-width="0.8" />
<text x="106.51" y="97.62" font-family="sans-serif" font-size="7" font-weight="normal" fill="#e6e6f0" text-anchor="start">3</text>
<rect x="133.3" y="91.54" width="8.64" height="8.64" rx="1.5" fill="none" stroke="#50506a" stroke-width="0.8" />
<text x="137.62" y="97.86" font-family="sans-serif" font-size="6" font-weight="normal" fill="#50506a" text-anchor="middle">R</text>
<rect x="106.39" y="102.1" width="34.59" height="32.55" rx="0" fill="none" stroke="#33334d" stroke-width="0.5" />
<rect x="106.13" y="137.27" width="3.16" height="7.24" rx="0.8" fill="#0d5986" stroke="none" stroke-width="1" />
<rect x="110.69" y="137.27" width="3.16" height="7.24" rx="0.8" fill="#0d5986" stroke="none" stroke-width="1" />
<rect x="115.26" y="137.27" width="3.16" height="7.24" rx="0.8" fill="#0d5986" stroke="none" stroke-width="1" />
<rect x="119.82" y="137.27" width="3.16" height="7.24" rx="0.8" fill="#2c2c3c" stroke="none" stroke-width="1" />
<rect x="124.38" y="137.27" width="3.16" height="7.24" rx="0.8" fill="#2c2c3c" stroke="none" stroke-width="1" />
<rect x="128.95" y="137.27" width="3.16" height="7.24" rx="0.8" fill="#2c2c3c" stroke="none" stroke-width="1" />
<rect x="133.51" y="137.27" width="3.16" height="7.24" rx="0.8" fill="#2c2c3c" stroke="none" stroke-width="1" />
<rect x="138.07" y="137.27" width="3.16" height="7.24" rx="0.8" fill="#2c2c3c" stroke="none" stroke-width="1" />
<rect x="145.78" y="89.62" width="40.35" height="57.51" rx="2" fill="#222230" stroke="#3a3a52" stroke-width="0.8" />
<text x="148.78" y="97.62" font-family="sans-serif" font-size="7" font-weight="normal" fill="#e6e6f0" text-anchor="start">4</text>
<rect x="175.57" y="91.54" width="8.64" height="8.64" rx="1.5" fill="none" stroke="#50506a" stroke-width="0.8" />
<text x="179.89" y="97.86" font-family="sans-serif" font-size="6" font-weight="normal" fill="#50506a" text-anchor="middle">R</text>
<rect x="148.66" y="102.1" width="34.59" height="32.55" rx="0" fill="none" stroke="#33334d" stroke-width="0.5" />
<rect x="148.4" y="137.27" width="3.16" height="7.24" rx="0.8" fill="#0d5986" stroke="none" stroke-width="1" />
<rect x="152.96" y="137.27" width="3.16" height="7.24" rx="0.8" fill="#2c2c3c" stroke="none" stroke-width="1" />
<rect x="157.53" y="137.27" width="3.16" height="7.24" rx="0.8" fill="#2c2c3c" stroke="none" stroke-width="1" />
<rect x="162.09" y="137.27" width="3.16" height="7.24" rx="0.8" fill="#2c2c3c" stroke="none" stroke-width="1" />
<rect x="166.65" y="137.27" width="3.16" height="7.24" rx="0.8" fill="#2c2c3c" stroke="none" stroke-width="1" />
<rect x="171.22" y="137.27" width="3.16" height="7.24" rx="0.8" fill="#2c2c3c" stroke="none" stroke-width="1" />
<rect x="175.78" y="137.27" width="3.16" height="7.24" rx="0.8" fill="#2c2c3c" stroke="none" stroke-width="1" />
<rect x="180.34" y="137.27" width="3.16" height="7.24" rx="0.8" fill="#2c2c3c" stroke="none" stroke-width="1" />
<rect x="188.05" y="89.62" width="40.35" height="57.51" rx="2" fill="#222230" stroke="#3a3a52" stroke-width="0.8" />
<text x="191.05" y="97.62" font-family="sans-serif" font-size="7" font-weight="normal" fill="#e6e6f0" text-anchor="start">5</text>
<rect x="217.84" y="91.54" width="8.64" height="8.64" rx="1.5" fill="none" stroke="#50506a" stroke-width="0.8" />
<text x="222.16" y="97.86" font-family="sans-serif" font-size="6" font-weight="normal" fill="#50506a" text-anchor="middle">R</text>
<rect x="190.93" y="102.1" width="34.59" height="32.55" rx="0" fill="none" stroke="#33334d" stroke-width="0.5" />
<rect x="190.67" y="137.27" width="3.16" height="7.24" rx="0.8" fill="#0d5986" stroke="none" stroke-width="1" />
<rect x="195.23" y="137.27" width="3.16" height="7.24" rx="0.8" fill="#2c2c3c" stroke="none" stroke-width="1" />
<rect x="199.79" y="137.27" width="3.16" height="7.24" rx="0.8" fill="#2c2c3c" stroke="none" stroke-width="1" />
<rect x="204.36" y="137.27" width="3.16" height="7.24" rx="0.8" fill="#2c2c3c" stroke="none" stroke-width="1" />
<rect x="208.92" y="137.27" width="3.16" height="7.24" rx="0.8" fill="#2c2c3c" stroke="none" stroke-width="1" />
<rect x="213.48" y="137.27" width="3.16" height="7.24" rx="0.8" fill="#2c2c3c" stroke="none" stroke-width="1" />
<rect x="218.05" y="137.27" width="3.16" height="7.24" rx="0.8" fill="#2c2c3c" stroke="none" stroke-width="1" />
<rect x="222.61" y="137.27" width="3.16" height="7.24" rx="0.8" fill="#2c2c3c" stroke="none" stroke-width="1" />
<rect x="230.32" y="89.62" width="40.35" height="57.51" rx="2" fill="#222230" stroke="#3a3a52" stroke-width="0.8" />
<text x="233.32" y="97.62" font-family="sans-serif" font-size="7" font-weight="normal" fill="#e6e6f0" text-anchor="start">6</text>
<rect x="260.1" y="91.54" width="8.64" height="8.64" rx="1.5" fill="none" stroke="#50506a" stroke-width="0.8" />
<text x="264.42" y="97.86" font-family="sans-serif" font-size="6" font-weight="normal" fill="#50506a" text-anchor="middle">R</text>
<rect x="233.2" y="102.1" width="34.59" height="32.55" rx="0" fill="none" stroke="#33334d" stroke-width="0.5" />
<rect x="232.94" y="137.27" width="3.16" height="7.24" rx="0.8" fill="#0d5986" stroke="none" stroke-width="1" />
<rect x="237.5" y="137.27" width="3.16" height="7.24" rx="0.8" fill="#2c2c3c" stroke="none" stroke-width="1" />
<rect x="242.06" y="137.27" width="3.16" height="7.24" rx="0.8" fill="#2c2c3c" stroke="none" stroke-width="1" />
<rect x="246.63" y="137.27" width="3.16" height="7.24" rx="0.8" fill="#2c2c3c" stroke="none" stroke-width="1" />
<rect x="251.19" y="137.27" width="3.16" height="7.24" rx="0.8" fill="#2c2c3c" stroke="none" stroke-width="1" />
<rect x="255.75" y="137.27" width="3.16" height="7.24" rx="0.8" fill="#2c2c3c" stroke="none" stroke-width="1" />
<rect x="260.32" y="137.27" width="3.16" height="7.24" rx="0.8" fill="#2c2c3c" stroke="none" stroke-width="1" />
<rect x="264.88" y="137.27" width="3.16" height="7.24" rx="0.8" fill="#2c2c3c" stroke="none" stroke-width="1" />
<rect x="272.58" y="89.62" width="40.35" height="57.51" rx="2" fill="#222230" stroke="#3a3a52" stroke-width="0.8" />
<text x="275.58" y="97.62" font-family="sans-serif" font-size="7" font-weight="normal" fill="#e6e6f0" text-anchor="start">7</text>
<rect x="302.37" y="91.54" width="8.64" height="8.64" rx="1.5" fill="none" stroke="#50506a" stroke-width="0.8" />
<text x="306.69" y="97.86" font-family="sans-serif" font-size="6" font-weight="normal" fill="#50506a" text-anchor="middle">R</text>
<rect x="275.46" y="102.1" width="34.59" height="32.55" rx="0" fill="none" stroke="#33334d" stroke-width="0.5" />
<rect x="275.2" y="137.27" width="3.16" height="7.24" rx="0.8" fill="#0d5986" stroke="none" stroke-width="1" />
<rect x="279.77" y="137.27" width="3.16" height="7.24" rx="0.8" fill="#2c2c3c" stroke="none" stroke-width="1" />
<rect x="284.33" y="137.27" width="3.16" height="7.24" rx="0.8" fill="#2c2c3c" stroke="none" stroke-width="1" />
<rect x="288.89" y="137.27" width="3.16" height="7.24" rx="0.8" fill="#2c2c3c" stroke="none" stroke-width="1" />
<rect x="293.46" y="137.27" width="3.16" height="7.24" rx="0.8" fill="#2c2c3c" stroke="none" stroke-width="1" />
<rect x="298.02" y="137.27" width="3.16" height="7.24" rx="0.8" fill="#2c2c3c" stroke="none" stroke-width="1" />
<rect x="302.59" y="137.27" width="3.16" height="7.24" rx="0.8" fill="#2c2c3c" stroke="none" stroke-width="1" />
<rect x="307.15" y="137.27" width="3.16" height="7.24" rx="0.8" fill="#2c2c3c" stroke="none" stroke-width="1" />
<rect x="314.85" y="89.62" width="40.35" height="57.51" rx="2" fill="#222230" stroke="#3a3a52" stroke-width="0.8" />
<text x="317.85" y="97.62" font-family="sans-serif" font-size="7" font-weight="normal" fill="#e6e6f0" text-anchor="start">8</text>
<rect x="344.64" y="91.54" width="8.64" height="8.64" rx="1.5" fill="none" stroke="#50506a" stroke-width="0.8" />
<text x="348.96" y="97.86" font-family="sans-serif" font-size="6" font-weight="normal" fill="#50506a" text-anchor="middle">R</text>
<rect x="317.73" y="102.1" width="34.59" height="32.55" rx="0" fill="none" stroke="#33334d" stroke-width="0.5" />
<rect x="317.47" y="137.27" width="3.16" height="7.24" rx="0.8" fill="#0d5986" stroke="none" stroke-width="1" />
<rect x="322.04" y="137.27" width="3.16" height="7.24" rx="0.8" fill="#2c2c3c" stroke="none" stroke-width="1" />
<rect x="326.6" y="137.27" width="3.16" height="7.24" rx="0.8" fill="#2c2c3c" stroke="none" stroke-width="1" />
<rect x="331.16" y="137.27" width="3.16" height="7.24" rx="0.8" fill="#2c2c3c" stroke="none" stroke-width="1" />
<rect x="335.73" y="137.27" width="3.16" height="7.24" rx="0.8" fill="#2c2c3c" stroke="none" stroke-width="1" />
<rect x="340.29" y="137.27" width="3.16" height="7.24" rx="0.8" fill="#2c2c3c" stroke="none" stroke-width="1" />
<rect x="344.85" y="137.27" width="3.16" height="7.24" rx="0.8" fill="#2c2c3c" stroke="none" stroke-width="1" />
<rect x="349.42" y="137.27" width="3.16" height="7.24" rx="0.8" fill="#2c2c3c" stroke="none" stroke-width="1" />
<text x="23.77" y="159.57" font-family="sans-serif" font-size="5.5" font-weight="normal" fill="#8a8aaa" text-anchor="start">GRAV</text>
<rect x="23.77" y="160.57" width="103.76" height="6.72" rx="3" fill="#24243a" stroke="none" stroke-width="1" />
<circle cx="80.84" cy="163.93" r="3.07" fill="#ec652e" stroke="none" stroke-width="1"/>
<line x1="75.65" y1="159.61" x2="75.65" y2="168.25" stroke="#50506a" stroke-width="1" />
<text x="135.21" y="159.57" font-family="sans-serif" font-size="5.5" font-weight="normal" fill="#8a8aaa" text-anchor="start">DRIFT</text>
<rect x="135.21" y="160.57" width="103.76" height="6.72" rx="3" fill="#24243a" stroke="none" stroke-width="1" />
<circle cx="202.65" cy="163.93" r="3.07" fill="#ec652e" stroke="none" stroke-width="1"/>
<text x="246.64" y="159.57" font-family="sans-serif" font-size="5.5" font-weight="normal" fill="#8a8aaa" text-anchor="start">BRANCH</text>
<rect x="246.64" y="160.57" width="103.76" height="6.72" rx="3" fill="#24243a" stroke="none" stroke-width="1" />
<circle cx="310.97" cy="163.93" r="3.07" fill="#ec652e" stroke="none" stroke-width="1"/>
<text x="19.93" y="174.93" font-family="sans-serif" font-size="5.5" font-weight="normal" fill="#8a8aaa" text-anchor="start">GATE  P1  (·off | gate  T tie)</text>
<rect x="30.61" y="175.93" width="12.48" height="11.52" rx="2" fill="#0d5986" stroke="none" stroke-width="1" />
<text x="36.85" y="183.69" font-family="sans-serif" font-size="6" font-weight="normal" fill="#e6e6f0" text-anchor="middle">|</text>
<rect x="73.13" y="175.93" width="12.48" height="11.52" rx="2" fill="#0d5986" stroke="none" stroke-width="1" />
<text x="79.37" y="183.69" font-family="sans-serif" font-size="6" font-weight="normal" fill="#e6e6f0" text-anchor="middle">|</text>
<rect x="128.13" y="180.73" width="30.04" height="1.92" rx="0" fill="#ec652e" stroke="none" stroke-width="1" />
<rect x="115.65" y="175.93" width="12.48" height="11.52" rx="2" fill="#ec652e" stroke="none" stroke-width="1" />
<text x="121.89" y="183.69" font-family="sans-serif" font-size="6" font-weight="normal" fill="#e6e6f0" text-anchor="middle">T</text>
<rect x="158.17" y="175.93" width="12.48" height="11.52" rx="2" fill="#0d5986" stroke="none" stroke-width="1" />
<text x="164.41" y="183.69" font-family="sans-serif" font-size="6" font-weight="normal" fill="#e6e6f0" text-anchor="middle">|</text>
<rect x="200.69" y="175.93" width="12.48" height="11.52" rx="2" fill="none" stroke="#44445a" stroke-width="1" />
<text x="206.93" y="183.69" font-family="sans-serif" font-size="6" font-weight="normal" fill="#55556a" text-anchor="middle">·</text>
<rect x="243.21" y="175.93" width="12.48" height="11.52" rx="2" fill="#0d5986" stroke="none" stroke-width="1" />
<text x="249.45" y="183.69" font-family="sans-serif" font-size="6" font-weight="normal" fill="#e6e6f0" text-anchor="middle">|</text>
<rect x="298.21" y="180.73" width="30.04" height="1.92" rx="0" fill="#ec652e" stroke="none" stroke-width="1" />
<rect x="285.73" y="175.93" width="12.48" height="11.52" rx="2" fill="#ec652e" stroke="none" stroke-width="1" />
<text x="291.97" y="183.69" font-family="sans-serif" font-size="6" font-weight="normal" fill="#e6e6f0" text-anchor="middle">T</text>
<rect x="328.25" y="175.93" width="12.48" height="11.52" rx="2" fill="#0d5986" stroke="none" stroke-width="1" />
<text x="334.49" y="183.69" font-family="sans-serif" font-size="6" font-weight="normal" fill="#e6e6f0" text-anchor="middle">|</text>
<circle cx="22.68" cy="243.78" r="13.33" fill="#2b2b30" stroke="#101014" stroke-width="1"/>
<line x1="22.68" y1="231.02" x2="22.68" y2="238.11" stroke="#e0e0e0" stroke-width="1.2" />
<text x="22.68" y="265.04" font-family="sans-serif" font-size="6" font-weight="normal" fill="#231f20" text-anchor="middle">KEY</text>
<circle cx="56.69" cy="243.78" r="13.33" fill="#2b2b30" stroke="#101014" stroke-width="1"/>
<line x1="56.69" y1="231.02" x2="56.69" y2="238.11" stroke="#e0e0e0" stroke-width="1.2" />
<text x="56.69" y="265.04" font-family="sans-serif" font-size="6" font-weight="normal" fill="#231f20" text-anchor="middle">ROOT</text>
<circle cx="90.71" cy="243.78" r="13.33" fill="#2b2b30" stroke="#101014" stroke-width="1"/>
<line x1="90.71" y1="231.02" x2="90.71" y2="238.11" stroke="#e0e0e0" stroke-width="1.2" />
<text x="90.71" y="265.04" font-family="sans-serif" font-size="6" font-weight="normal" fill="#231f20" text-anchor="middle">START</text>
<circle cx="124.72" cy="243.78" r="13.33" fill="#2b2b30" stroke="#101014" stroke-width="1"/>
<line x1="124.72" y1="231.02" x2="124.72" y2="238.11" stroke="#e0e0e0" stroke-width="1.2" />
<text x="124.72" y="265.04" font-family="sans-serif" font-size="6" font-weight="normal" fill="#231f20" text-anchor="middle">END</text>
<circle cx="311.81" cy="243.78" r="13.33" fill="#2b2b30" stroke="#101014" stroke-width="1"/>
<line x1="311.81" y1="231.02" x2="311.81" y2="238.11" stroke="#e0e0e0" stroke-width="1.2" />
<text x="311.81" y="265.04" font-family="sans-serif" font-size="6" font-weight="normal" fill="#231f20" text-anchor="middle">GATE</text>
<circle cx="345.83" cy="243.78" r="13.33" fill="#2b2b30" stroke="#101014" stroke-width="1"/>
<line x1="345.83" y1="231.02" x2="345.83" y2="238.11" stroke="#e0e0e0" stroke-width="1.2" />
<text x="345.83" y="265.04" font-family="sans-serif" font-size="6" font-weight="normal" fill="#231f20" text-anchor="middle">GLIDE</text>
<text x="164.41" y="243.78" font-family="sans-serif" font-size="4.5" font-weight="normal" fill="#909090" text-anchor="middle">(GRAV/DRIFT/BRANCH → on-screen)</text>
<text x="164.41" y="252.28" font-family="sans-serif" font-size="4.5" font-weight="normal" fill="#909090" text-anchor="middle">(CLOCK removed)</text>
<circle cx="22.68" cy="286.3" r="8.4" fill="#2b2b30" stroke="#101014" stroke-width="1"/>
<line x1="22.68" y1="278.93" x2="22.68" y2="283.46" stroke="#e0e0e0" stroke-width="1" />
<text x="22.68" y="301.89" font-family="sans-serif" font-size="5" font-weight="normal" fill="#231f20" text-anchor="middle">RESTS</text>
<circle cx="56.69" cy="286.3" r="8.4" fill="#2b2b30" stroke="#101014" stroke-width="1"/>
<line x1="56.69" y1="278.93" x2="56.69" y2="283.46" stroke="#e0e0e0" stroke-width="1" />
<text x="56.69" y="301.89" font-family="sans-serif" font-size="5" font-weight="normal" fill="#231f20" text-anchor="middle">HOLD</text>
<circle cx="90.71" cy="286.3" r="8.4" fill="#2b2b30" stroke="#101014" stroke-width="1"/>
<line x1="90.71" y1="278.93" x2="90.71" y2="283.46" stroke="#e0e0e0" stroke-width="1" />
<text x="90.71" y="301.89" font-family="sans-serif" font-size="5" font-weight="normal" fill="#231f20" text-anchor="middle">OCTAVE</text>
<circle cx="124.72" cy="286.3" r="8.4" fill="#2b2b30" stroke="#101014" stroke-width="1"/>
<line x1="124.72" y1="278.93" x2="124.72" y2="283.46" stroke="#e0e0e0" stroke-width="1" />
<text x="124.72" y="301.89" font-family="sans-serif" font-size="5" font-weight="normal" fill="#231f20" text-anchor="middle">REPEAT</text>
<circle cx="175.75" cy="286.3" r="13.33" fill="#2b2b30" stroke="#101014" stroke-width="1"/>
<line x1="175.75" y1="273.54" x2="175.75" y2="280.63" stroke="#e0e0e0" stroke-width="1.2" />
<text x="175.75" y="307.56" font-family="sans-serif" font-size="6" font-weight="normal" fill="#231f20" text-anchor="middle">HARMONY</text>
<circle cx="320.32" cy="286.3" r="8.47" fill="#5a5a66" stroke="#2a2a33" stroke-width="1"/>
<text x="320.32" y="304.72" font-family="sans-serif" font-size="5" font-weight="normal" fill="#231f20" text-anchor="middle">RND</text>
<circle cx="354.33" cy="286.3" r="8.47" fill="#5a5a66" stroke="#2a2a33" stroke-width="1"/>
<text x="354.33" y="304.72" font-family="sans-serif" font-size="5" font-weight="normal" fill="#231f20" text-anchor="middle">RST</text>
<circle cx="22.68" cy="331.65" r="11.15" fill="#1a1a1a" stroke="#d0595a" stroke-width="1.5"/>
<circle cx="22.68" cy="331.65" r="4.5" fill="#333" stroke="none" stroke-width="1"/>
<text x="22.68" y="350.93" font-family="sans-serif" font-size="4.5" font-weight="normal" fill="#231f20" text-anchor="middle">ROOT CV</text>
<circle cx="53.86" cy="331.65" r="11.15" fill="#1a1a1a" stroke="#d0595a" stroke-width="1.5"/>
<circle cx="53.86" cy="331.65" r="4.5" fill="#333" stroke="none" stroke-width="1"/>
<text x="53.86" y="350.93" font-family="sans-serif" font-size="4.5" font-weight="normal" fill="#231f20" text-anchor="middle">GRAV CV</text>
<circle cx="85.04" cy="331.65" r="11.15" fill="#1a1a1a" stroke="#d0595a" stroke-width="1.5"/>
<circle cx="85.04" cy="331.65" r="4.5" fill="#333" stroke="none" stroke-width="1"/>
<text x="85.04" y="350.93" font-family="sans-serif" font-size="4.5" font-weight="normal" fill="#231f20" text-anchor="middle">DRIFT CV</text>
<circle cx="116.22" cy="331.65" r="11.15" fill="#1a1a1a" stroke="#d0595a" stroke-width="1.5"/>
<circle cx="116.22" cy="331.65" r="4.5" fill="#333" stroke="none" stroke-width="1"/>
<text x="116.22" y="350.93" font-family="sans-serif" font-size="4.5" font-weight="normal" fill="#231f20" text-anchor="middle">BRNCH CV</text>
<circle cx="150.24" cy="331.65" r="11.15" fill="#1a1a1a" stroke="#d0595a" stroke-width="1.5"/>
<circle cx="150.24" cy="331.65" r="4.5" fill="#333" stroke="none" stroke-width="1"/>
<text x="150.24" y="350.93" font-family="sans-serif" font-size="4.5" font-weight="normal" fill="#231f20" text-anchor="middle">CLOCK</text>
<circle cx="181.42" cy="331.65" r="11.15" fill="#1a1a1a" stroke="#d0595a" stroke-width="1.5"/>
<circle cx="181.42" cy="331.65" r="4.5" fill="#333" stroke="none" stroke-width="1"/>
<text x="181.42" y="350.93" font-family="sans-serif" font-size="4.5" font-weight="normal" fill="#231f20" text-anchor="middle">RND IN</text>
<circle cx="212.6" cy="331.65" r="11.15" fill="#1a1a1a" stroke="#d0595a" stroke-width="1.5"/>
<circle cx="212.6" cy="331.65" r="4.5" fill="#333" stroke="none" stroke-width="1"/>
<text x="212.6" y="350.93" font-family="sans-serif" font-size="4.5" font-weight="normal" fill="#231f20" text-anchor="middle">RST IN</text>
<circle cx="243.78" cy="331.65" r="11.15" fill="#1a1a1a" stroke="#e0803f" stroke-width="1.5"/>
<circle cx="243.78" cy="331.65" r="4.5" fill="#333" stroke="none" stroke-width="1"/>
<text x="243.78" y="350.93" font-family="sans-serif" font-size="4.5" font-weight="normal" fill="#231f20" text-anchor="middle">CV</text>
<circle cx="272.13" cy="331.65" r="11.15" fill="#1a1a1a" stroke="#e0803f" stroke-width="1.5"/>
<circle cx="272.13" cy="331.65" r="4.5" fill="#333" stroke="none" stroke-width="1"/>
<text x="272.13" y="350.93" font-family="sans-serif" font-size="4.5" font-weight="normal" fill="#231f20" text-anchor="middle">GATE</text>
<circle cx="300.47" cy="331.65" r="11.15" fill="#1a1a1a" stroke="#e0803f" stroke-width="1.5"/>
<circle cx="300.47" cy="331.65" r="4.5" fill="#333" stroke="none" stroke-width="1"/>
<text x="300.47" y="350.93" font-family="sans-serif" font-size="4.5" font-weight="normal" fill="#231f20" text-anchor="middle">HARM CV</text>
<circle cx="328.82" cy="331.65" r="11.15" fill="#1a1a1a" stroke="#e0803f" stroke-width="1.5"/>
<circle cx="328.82" cy="331.65" r="4.5" fill="#333" stroke="none" stroke-width="1"/>
<text x="328.82" y="350.93" font-family="sans-serif" font-size="4.5" font-weight="normal" fill="#231f20" text-anchor="middle">HARM GT</text>
<circle cx="357.17" cy="331.65" r="11.15" fill="#1a1a1a" stroke="#e0803f" stroke-width="1.5"/>
<circle cx="357.17" cy="331.65" r="4.5" fill="#333" stroke="none" stroke-width="1"/>
<text x="357.17" y="350.93" font-family="sans-serif" font-size="4.5" font-weight="normal" fill="#231f20" text-anchor="middle">EOC</text>
</svg>
