<?xml version="1.0" encoding="UTF-8"?>
<svg xmlns="http://www.w3.org/2000/svg" width="132.08mm" height="128.5mm" viewBox="0 0 374.40 364.25">
  <rect x="0" y="0" width="374.40" height="364.25" fill="#f0f0f0"/>
  <text x="17.01" y="25.51" font-family="sans-serif" font-size="14.17" font-weight="bold" fill="#231f20">CHANCE</text>
  <rect x="14.17" y="34.02" width="345.83" height="85.04" rx="5.67" fill="#1a1a2e" stroke="#8a8a8a" stroke-dasharray="4 3" stroke-width="0.6"/>
  <g><circle cx="36.85" cy="133.23" r="2.00" fill="none" stroke="#7a7a7a" stroke-width="0.6"/><circle cx="36.85" cy="133.23" r="0.6" fill="#7a7a7a"/></g>
  <g><circle cx="36.85" cy="161.58" r="8.60" fill="none" stroke="#2b7fd8" stroke-width="0.6"/><circle cx="36.85" cy="161.58" r="0.6" fill="#2b7fd8"/></g>
  <g><circle cx="36.85" cy="195.59" r="8.60" fill="none" stroke="#2b7fd8" stroke-width="0.6"/><circle cx="36.85" cy="195.59" r="0.6" fill="#2b7fd8"/></g>
  <text x="36.85" y="123.31" font-family="sans-serif" font-size="4.82" fill="#231f20" text-anchor="middle">1</text>
  <g><circle cx="79.37" cy="133.23" r="2.00" fill="none" stroke="#7a7a7a" stroke-width="0.6"/><circle cx="79.37" cy="133.23" r="0.6" fill="#7a7a7a"/></g>
  <g><circle cx="79.37" cy="161.58" r="8.60" fill="none" stroke="#2b7fd8" stroke-width="0.6"/><circle cx="79.37" cy="161.58" r="0.6" fill="#2b7fd8"/></g>
  <g><circle cx="79.37" cy="195.59" r="8.60" fill="none" stroke="#2b7fd8" stroke-width="0.6"/><circle cx="79.37" cy="195.59" r="0.6" fill="#2b7fd8"/></g>
  <text x="79.37" y="123.31" font-family="sans-serif" font-size="4.82" fill="#231f20" text-anchor="middle">2</text>
  <g><circle cx="121.89" cy="133.23" r="2.00" fill="none" stroke="#7a7a7a" stroke-width="0.6"/><circle cx="121.89" cy="133.23" r="0.6" fill="#7a7a7a"/></g>
  <g><circle cx="121.89" cy="161.58" r="8.60" fill="none" stroke="#2b7fd8" stroke-width="0.6"/><circle cx="121.89" cy="161.58" r="0.6" fill="#2b7fd8"/></g>
  <g><circle cx="121.89" cy="195.59" r="8.60" fill="none" stroke="#2b7fd8" stroke-width="0.6"/><circle cx="121.89" cy="195.59" r="0.6" fill="#2b7fd8"/></g>
  <text x="121.89" y="123.31" font-family="sans-serif" font-size="4.82" fill="#231f20" text-anchor="middle">3</text>
  <g><circle cx="164.41" cy="133.23" r="2.00" fill="none" stroke="#7a7a7a" stroke-width="0.6"/><circle cx="164.41" cy="133.23" r="0.6" fill="#7a7a7a"/></g>
  <g><circle cx="164.41" cy="161.58" r="8.60" fill="none" stroke="#2b7fd8" stroke-width="0.6"/><circle cx="164.41" cy="161.58" r="0.6" fill="#2b7fd8"/></g>
  <g><circle cx="164.41" cy="195.59" r="8.60" fill="none" stroke="#2b7fd8" stroke-width="0.6"/><circle cx="164.41" cy="195.59" r="0.6" fill="#2b7fd8"/></g>
  <text x="164.41" y="123.31" font-family="sans-serif" font-size="4.82" fill="#231f20" text-anchor="middle">4</text>
  <g><circle cx="206.93" cy="133.23" r="2.00" fill="none" stroke="#7a7a7a" stroke-width="0.6"/><circle cx="206.93" cy="133.23" r="0.6" fill="#7a7a7a"/></g>
  <g><circle cx="206.93" cy="161.58" r="8.60" fill="none" stroke="#2b7fd8" stroke-width="0.6"/><circle cx="206.93" cy="161.58" r="0.6" fill="#2b7fd8"/></g>
  <g><circle cx="206.93" cy="195.59" r="8.60" fill="none" stroke="#2b7fd8" stroke-width="0.6"/><circle cx="206.93" cy="195.59" r="0.6" fill="#2b7fd8"/></g>
  <text x="206.93" y="123.31" font-family="sans-serif" font-size="4.82" fill="#231f20" text-anchor="middle">5</text>
  <g><circle cx="249.45" cy="133.23" r="2.00" fill="none" stroke="#7a7a7a" stroke-width="0.6"/><circle cx="249.45" cy="133.23" r="0.6" fill="#7a7a7a"/></g>
  <g><circle cx="249.45" cy="161.58" r="8.60" fill="none" stroke="#2b7fd8" stroke-width="0.6"/><circle cx="249.45" cy="161.58" r="0.6" fill="#2b7fd8"/></g>
  <g><circle cx="249.45" cy="195.59" r="8.60" fill="none" stroke="#2b7fd8" stroke-width="0.6"/><circle cx="249.45" cy="195.59" r="0.6" fill="#2b7fd8"/></g>
  <text x="249.45" y="123.31" font-family="sans-serif" font-size="4.82" fill="#231f20" text-anchor="middle">6</text>
  <g><circle cx="291.97" cy="133.23" r="2.00" fill="none" stroke="#7a7a7a" stroke-width="0.6"/><circle cx="291.97" cy="133.23" r="0.6" fill="#7a7a7a"/></g>
  <g><circle cx="291.97" cy="161.58" r="8.60" fill="none" stroke="#2b7fd8" stroke-width="0.6"/><circle cx="291.97" cy="161.58" r="0.6" fill="#2b7fd8"/></g>
  <g><circle cx="291.97" cy="195.59" r="8.60" fill="none" stroke="#2b7fd8" stroke-width="0.6"/><circle cx="291.97" cy="195.59" r="0.6" fill="#2b7fd8"/></g>
  <text x="291.97" y="123.31" font-family="sans-serif" font-size="4.82" fill="#231f20" text-anchor="middle">7</text>
  <g><circle cx="334.49" cy="133.23" r="2.00" fill="none" stroke="#7a7a7a" stroke-width="0.6"/><circle cx="334.49" cy="133.23" r="0.6" fill="#7a7a7a"/></g>
  <g><circle cx="334.49" cy="161.58" r="8.60" fill="none" stroke="#2b7fd8" stroke-width="0.6"/><circle cx="334.49" cy="161.58" r="0.6" fill="#2b7fd8"/></g>
  <g><circle cx="334.49" cy="195.59" r="8.60" fill="none" stroke="#2b7fd8" stroke-width="0.6"/><circle cx="334.49" cy="195.59" r="0.6" fill="#2b7fd8"/></g>
  <text x="334.49" y="123.31" font-family="sans-serif" font-size="4.82" fill="#231f20" text-anchor="middle">8</text>
  <text x="9.92" y="163.84" font-family="sans-serif" font-size="4.82" fill="#231f20" text-anchor="end">WGT</text>
  <text x="9.92" y="197.86" font-family="sans-serif" font-size="4.82" fill="#231f20" text-anchor="end">DRFT</text>
  <g><circle cx="22.68" cy="243.78" r="11.00" fill="none" stroke="#7a7a7a" stroke-width="0.6"/><circle cx="22.68" cy="243.78" r="0.6" fill="#7a7a7a"/></g>
  <text x="22.68" y="225.35" font-family="sans-serif" font-size="4.82" fill="#231f20" text-anchor="middle">KEY</text>
  <g><circle cx="56.69" cy="243.78" r="11.00" fill="none" stroke="#7a7a7a" stroke-width="0.6"/><circle cx="56.69" cy="243.78" r="0.6" fill="#7a7a7a"/></g>
  <text x="56.69" y="225.35" font-family="sans-serif" font-size="4.82" fill="#231f20" text-anchor="middle">ROOT</text>
  <g><circle cx="90.71" cy="243.78" r="11.00" fill="none" stroke="#7a7a7a" stroke-width="0.6"/><circle cx="90.71" cy="243.78" r="0.6" fill="#7a7a7a"/></g>
  <text x="90.71" y="225.35" font-family="sans-serif" font-size="4.82" fill="#231f20" text-anchor="middle">START</text>
  <g><circle cx="124.72" cy="243.78" r="11.00" fill="none" stroke="#7a7a7a" stroke-width="0.6"/><circle cx="124.72" cy="243.78" r="0.6" fill="#7a7a7a"/></g>
  <text x="124.72" y="225.35" font-family="sans-serif" font-size="4.82" fill="#231f20" text-anchor="middle">END</text>
  <g><circle cx="164.41" cy="243.78" r="11.00" fill="none" stroke="#7a7a7a" stroke-width="0.6"/><circle cx="164.41" cy="243.78" r="0.6" fill="#7a7a7a"/></g>
  <text x="164.41" y="225.35" font-family="sans-serif" font-size="4.82" fill="#231f20" text-anchor="middle">GRAVITY</text>
  <g><circle cx="201.26" cy="243.78" r="11.00" fill="none" stroke="#7a7a7a" stroke-width="0.6"/><circle cx="201.26" cy="243.78" r="0.6" fill="#7a7a7a"/></g>
  <text x="201.26" y="225.35" font-family="sans-serif" font-size="4.82" fill="#231f20" text-anchor="middle">DRIFT</text>
  <g><circle cx="238.11" cy="243.78" r="11.00" fill="none" stroke="#7a7a7a" stroke-width="0.6"/><circle cx="238.11" cy="243.78" r="0.6" fill="#7a7a7a"/></g>
  <text x="238.11" y="225.35" font-family="sans-serif" font-size="4.82" fill="#231f20" text-anchor="middle">BRANCH</text>
  <g><circle cx="274.96" cy="243.78" r="11.00" fill="none" stroke="#7a7a7a" stroke-width="0.6"/><circle cx="274.96" cy="243.78" r="0.6" fill="#7a7a7a"/></g>
  <text x="274.96" y="225.35" font-family="sans-serif" font-size="4.82" fill="#231f20" text-anchor="middle">CLOCK</text>
  <g><circle cx="311.81" cy="243.78" r="11.00" fill="none" stroke="#7a7a7a" stroke-width="0.6"/><circle cx="311.81" cy="243.78" r="0.6" fill="#7a7a7a"/></g>
  <text x="311.81" y="225.35" font-family="sans-serif" font-size="4.82" fill="#231f20" text-anchor="middle">GATE</text>
  <g><circle cx="345.83" cy="243.78" r="11.00" fill="none" stroke="#7a7a7a" stroke-width="0.6"/><circle cx="345.83" cy="243.78" r="0.6" fill="#7a7a7a"/></g>
  <text x="345.83" y="225.35" font-family="sans-serif" font-size="4.82" fill="#231f20" text-anchor="middle">GLIDE</text>
  <g><circle cx="22.68" cy="286.30" r="8.60" fill="none" stroke="#2b7fd8" stroke-width="0.6"/><circle cx="22.68" cy="286.30" r="0.6" fill="#2b7fd8"/></g>
  <text x="22.68" y="272.13" font-family="sans-serif" font-size="4.82" fill="#231f20" text-anchor="middle">RESTS</text>
  <g><circle cx="56.69" cy="286.30" r="8.60" fill="none" stroke="#2b7fd8" stroke-width="0.6"/><circle cx="56.69" cy="286.30" r="0.6" fill="#2b7fd8"/></g>
  <text x="56.69" y="272.13" font-family="sans-serif" font-size="4.82" fill="#231f20" text-anchor="middle">HOLD</text>
  <g><circle cx="90.71" cy="286.30" r="8.60" fill="none" stroke="#2b7fd8" stroke-width="0.6"/><circle cx="90.71" cy="286.30" r="0.6" fill="#2b7fd8"/></g>
  <text x="90.71" y="272.13" font-family="sans-serif" font-size="4.82" fill="#231f20" text-anchor="middle">OCT</text>
  <g><circle cx="124.72" cy="286.30" r="8.60" fill="none" stroke="#2b7fd8" stroke-width="0.6"/><circle cx="124.72" cy="286.30" r="0.6" fill="#2b7fd8"/></g>
  <text x="124.72" y="272.13" font-family="sans-serif" font-size="4.82" fill="#231f20" text-anchor="middle">RPT</text>
  <rect x="314.65" y="280.63" width="11.34" height="11.34" rx="1" fill="none" stroke="#7a7a7a" stroke-width="0.6"/>
  <text x="320.32" y="273.54" font-family="sans-serif" font-size="4.82" fill="#231f20" text-anchor="middle">RND</text>
  <rect x="348.66" y="280.63" width="11.34" height="11.34" rx="1" fill="none" stroke="#7a7a7a" stroke-width="0.6"/>
  <text x="354.33" y="273.54" font-family="sans-serif" font-size="4.82" fill="#231f20" text-anchor="middle">RST</text>
  <g><circle cx="22.68" cy="331.65" r="11.30" fill="none" stroke="#d83b3b" stroke-width="0.6"/><circle cx="22.68" cy="331.65" r="0.6" fill="#d83b3b"/></g>
  <text x="22.68" y="316.91" font-family="sans-serif" font-size="4.39" fill="#231f20" text-anchor="middle">ROOTcv</text>
  <g><circle cx="53.86" cy="331.65" r="11.30" fill="none" stroke="#d83b3b" stroke-width="0.6"/><circle cx="53.86" cy="331.65" r="0.6" fill="#d83b3b"/></g>
  <text x="53.86" y="316.91" font-family="sans-serif" font-size="4.39" fill="#231f20" text-anchor="middle">GRVcv</text>
  <g><circle cx="85.04" cy="331.65" r="11.30" fill="none" stroke="#d83b3b" stroke-width="0.6"/><circle cx="85.04" cy="331.65" r="0.6" fill="#d83b3b"/></g>
  <text x="85.04" y="316.91" font-family="sans-serif" font-size="4.39" fill="#231f20" text-anchor="middle">DRFcv</text>
  <g><circle cx="116.22" cy="331.65" r="11.30" fill="none" stroke="#d83b3b" stroke-width="0.6"/><circle cx="116.22" cy="331.65" r="0.6" fill="#d83b3b"/></g>
  <text x="116.22" y="316.91" font-family="sans-serif" font-size="4.39" fill="#231f20" text-anchor="middle">BRNcv</text>
  <g><circle cx="150.24" cy="331.65" r="11.30" fill="none" stroke="#d83b3b" stroke-width="0.6"/><circle cx="150.24" cy="331.65" r="0.6" fill="#d83b3b"/></g>
  <text x="150.24" y="316.91" font-family="sans-serif" font-size="4.39" fill="#231f20" text-anchor="middle">CLK</text>
  <g><circle cx="181.42" cy="331.65" r="11.30" fill="none" stroke="#d83b3b" stroke-width="0.6"/><circle cx="181.42" cy="331.65" r="0.6" fill="#d83b3b"/></g>
  <text x="181.42" y="316.91" font-family="sans-serif" font-size="4.39" fill="#231f20" text-anchor="middle">RNDg</text>
  <g><circle cx="212.60" cy="331.65" r="11.30" fill="none" stroke="#d83b3b" stroke-width="0.6"/><circle cx="212.60" cy="331.65" r="0.6" fill="#d83b3b"/></g>
  <text x="212.60" y="316.91" font-family="sans-serif" font-size="4.39" fill="#231f20" text-anchor="middle">RSTg</text>
  <g><circle cx="255.12" cy="331.65" r="11.30" fill="none" stroke="#dd6400" stroke-width="0.6"/><circle cx="255.12" cy="331.65" r="0.6" fill="#dd6400"/></g>
  <text x="255.12" y="316.91" font-family="sans-serif" font-size="4.39" fill="#231f20" text-anchor="middle">CV</text>
  <g><circle cx="286.30" cy="331.65" r="11.30" fill="none" stroke="#dd6400" stroke-width="0.6"/><circle cx="286.30" cy="331.65" r="0.6" fill="#dd6400"/></g>
  <text x="286.30" y="316.91" font-family="sans-serif" font-size="4.39" fill="#231f20" text-anchor="middle">GATE</text>
  <g><circle cx="317.48" cy="331.65" r="11.30" fill="none" stroke="#dd6400" stroke-width="0.6"/><circle cx="317.48" cy="331.65" r="0.6" fill="#dd6400"/></g>
  <text x="317.48" y="316.91" font-family="sans-serif" font-size="4.39" fill="#231f20" text-anchor="middle">EOC</text>
  <g><circle cx="348.66" cy="331.65" r="11.30" fill="none" stroke="#dd6400" stroke-width="0.6"/><circle cx="348.66" cy="331.65" r="0.6" fill="#dd6400"/></g>
  <text x="348.66" y="316.91" font-family="sans-serif" font-size="4.39" fill="#231f20" text-anchor="middle">HARM</text>
</svg>
