<?xml version="1.0" encoding="UTF-8"?>
<svg xmlns="http://www.w3.org/2000/svg" width="132.08mm" height="128.5mm" viewBox="0 0 374.4 364.25">
  <g id="Background">
    <rect y="0" width="374.4" height="364.25" fill="#f0f0f0"/>
  </g>
  <g id="UI">
    <g>
      <path id="path12" d="M319.39,22.76h1.2v-1.2h1.2v2.4h1.2v-3.6h1.2v4.8h1.2v-6h1.2v6h1.2v-3.6h1.2v2.4h1.2v-1.2h1.2" fill="none" stroke="#b2b2b2" stroke-linecap="round" stroke-linejoin="round" stroke-width=".5"/>
      <path id="path13" d="M333.16,25.16l3.6-6c0,1.31,1.01,3.6,2.4,3.6h4.8l1.2,2.4" fill="none" stroke="#b2b2b2" stroke-linecap="square" stroke-linejoin="bevel" stroke-width=".5"/>
      <path id="path17" d="M349.2,19.16h-1.2v7.2h1.2" fill="none" stroke="#b2b2b2" stroke-linecap="square" stroke-linejoin="bevel" stroke-width=".5"/>
      <path id="path18" d="M358.8,19.16h1.2v7.2h-1.2" fill="none" stroke="#b2b2b2" stroke-linecap="square" stroke-linejoin="bevel" stroke-width=".5"/>
      <path id="path21" d="M350.4,19.8l2.4,2.4" fill="none" stroke="#b2b2b2" stroke-linejoin="bevel" stroke-width=".5"/>
      <path id="path22" d="M352.8,19.8l-2.4,2.4" fill="none" stroke="#b2b2b2" stroke-linejoin="bevel" stroke-width=".5"/>
      <path id="path23-5" d="M350.4,23.4l2.4,2.4" fill="none" stroke="#b2b2b2" stroke-linejoin="bevel" stroke-width=".5"/>
      <path id="path24" d="M350.4,25.8l2.4-2.4" fill="none" stroke="#b2b2b2" stroke-linejoin="bevel" stroke-width=".5"/>
      <path id="path25-3" d="M355.2,19.8l2.4,2.4" fill="none" stroke="#b2b2b2" stroke-linejoin="bevel" stroke-width=".5"/>
      <path id="path26-7" d="M357.6,19.8l-2.4,2.4" fill="none" stroke="#b2b2b2" stroke-linejoin="bevel" stroke-width=".5"/>
      <rect id="rect26" x="355.2" y="23.4" width="2.4" height="2.4" fill="none" stroke="#b2b2b2" stroke-linejoin="bevel" stroke-width=".5"/>
    </g>
  </g>
  <g id="Layer_10" data-name="Layer 10">
    <line x1="265.45" y1="345.56" x2="304.79" y2="345.56" fill="none" stroke="#b2b2b2" stroke-miterlimit="11.34" stroke-width=".75"/>
    <rect x="286.89" y="273.39" width="73.31" height="88.51" rx="4.25" ry="4.25"/>
    <line x1="146.67" y1="302.2" x2="146.67" y2="345.56" fill="none" stroke="#b2b2b2" stroke-miterlimit="11.34" stroke-width=".75"/>
    <line x1="107.4" y1="211.68" x2="107.4" y2="255.04" fill="none" stroke="#b2b2b2" stroke-miterlimit="11.34" stroke-width=".75"/>
    <line x1="107.4" y1="201.58" x2="107.4" y2="206.24" fill="none" stroke="#b2b2b2" stroke-miterlimit="11.34" stroke-width=".75"/>
    <line x1="146.66" y1="211.68" x2="146.66" y2="255.04" fill="none" stroke="#b2b2b2" stroke-miterlimit="11.34" stroke-width=".75"/>
    <line x1="186" y1="211.68" x2="186" y2="255.04" fill="none" stroke="#b2b2b2" stroke-miterlimit="11.34" stroke-width=".75"/>
    <line x1="225.3" y1="211.68" x2="225.3" y2="255.04" fill="none" stroke="#b2b2b2" stroke-miterlimit="11.34" stroke-width=".75"/>
    <line x1="264.6" y1="211.68" x2="264.6" y2="255.04" fill="none" stroke="#b2b2b2" stroke-miterlimit="11.34" stroke-width=".75"/>
    <line x1="303.9" y1="211.68" x2="303.9" y2="255.04" fill="none" stroke="#b2b2b2" stroke-miterlimit="11.34" stroke-width=".75"/>
    <line x1="343.2" y1="211.68" x2="343.2" y2="255.04" fill="none" stroke="#b2b2b2" stroke-miterlimit="11.34" stroke-width=".75"/>
    <line x1="186" y1="302.2" x2="186" y2="345.56" fill="none" stroke="#b2b2b2" stroke-miterlimit="11.34" stroke-width=".75"/>
    <line x1="107.4" y1="302.2" x2="107.4" y2="345.56" fill="none" stroke="#b2b2b2" stroke-miterlimit="11.34" stroke-width=".75"/>
    <line x1="68.1" y1="302.2" x2="68.1" y2="345.56" fill="none" stroke="#b2b2b2" stroke-miterlimit="11.34" stroke-width=".75"/>
    <g isolation="isolate">
      <g>
        <path d="M17.86,26.47c-.62,0-1.17-.14-1.65-.42-.48-.28-.85-.66-1.12-1.15-.27-.49-.41-1.05-.41-1.69s.14-1.2.41-1.69c.27-.49.65-.87,1.12-1.15.48-.28,1.03-.42,1.65-.42.46,0,.88.08,1.26.24.38.16.71.38.99.67s.49.62.64,1l-1.36.46c-.09-.21-.21-.39-.36-.55-.15-.16-.33-.28-.52-.36-.2-.08-.41-.13-.64-.13-.33,0-.62.08-.88.24-.26.16-.46.39-.6.68s-.22.62-.22,1,.07.71.22,1c.15.29.35.52.61.68s.56.25.9.25c.25,0,.46-.04.66-.13.19-.09.36-.22.5-.38.14-.16.26-.35.37-.56l1.36.46c-.14.38-.36.72-.64,1.01s-.62.52-1,.68c-.38.16-.81.24-1.27.24Z" fill="#231f20"/>
        <path d="M21.33,26.36v-6.31h1.45v2.43h2.62v-2.42h1.45v6.3h-1.45v-2.55h-2.62v2.55h-1.45Z" fill="#231f20"/>
        <path d="M27.31,26.36l2.45-6.3h1.55l2.45,6.3h-1.53l-.46-1.2h-2.47l-.46,1.2h-1.53ZM29.76,23.89h1.52l-.76-2.02-.76,2.02Z" fill="#231f20"/>
        <path d="M34.21,26.36v-6.3h1.52l2.76,3.84v-3.84h1.45v6.3h-1.45l-2.83-3.95v3.95h-1.45Z" fill="#231f20"/>
        <path d="M43.79,26.47c-.62,0-1.17-.14-1.65-.42-.48-.28-.85-.66-1.12-1.15-.27-.49-.41-1.05-.41-1.69s.14-1.2.41-1.69c.27-.49.65-.87,1.12-1.15.48-.28,1.03-.42,1.65-.42.46,0,.87.08,1.25.24.38.16.71.38.99.67.28.29.49.62.64,1l-1.36.46c-.09-.21-.21-.39-.36-.55s-.33-.28-.52-.36-.41-.13-.64-.13c-.33,0-.62.08-.88.24s-.46.39-.6.68-.22.62-.22,1,.07.71.22,1c.15.29.35.52.61.68.26.17.56.25.9.25.25,0,.46-.04.66-.13.19-.09.36-.22.5-.38.14-.16.26-.35.36-.56l1.36.46c-.14.38-.36.72-.64,1.01-.28.29-.62.52-1,.68s-.81.24-1.27.24Z" fill="#231f20"/>
        <path d="M47.26,26.36v-6.3h4.1v1.33h-2.66v1.15h2.22v1.29h-2.22v1.2h2.7v1.33h-4.15Z" fill="#231f20"/>
      </g>
    </g>
    <rect x="14.17" y="34.02" width="345.83" height="153.94" rx="3.77" ry="3.77" fill="#1a1a2e"/>
    <g isolation="isolate">
      <g>
        <path d="M101.58,200.61c-.43,0-.81-.11-1.15-.33-.33-.22-.6-.52-.79-.9-.19-.38-.28-.82-.28-1.31s.09-.94.28-1.32c.19-.38.45-.68.79-.9.33-.22.72-.33,1.15-.33.24,0,.46.04.68.13.22.09.41.21.59.36.18.15.32.33.43.52l-.48.36c-.08-.14-.19-.27-.32-.38s-.27-.2-.43-.26c-.16-.06-.31-.09-.47-.09-.31,0-.59.08-.83.24-.24.16-.43.39-.57.67-.14.28-.21.62-.21.99s.07.7.2.98c.14.28.33.51.57.67s.53.25.84.25c.25,0,.48-.06.68-.18.2-.12.36-.28.47-.5.12-.21.18-.46.18-.74h-1.03v-.57h1.61v.5c0,.42-.09.8-.25,1.11s-.39.56-.68.74c-.29.17-.62.26-.99.26Z" fill="#231f20"/>
        <path d="M104.25,200.52v-4.9h1.44c.29,0,.54.06.75.19.22.13.39.31.51.53.12.23.19.49.19.79,0,.32-.08.6-.24.85-.16.24-.37.42-.62.53l1.03,2.01h-.68l-.95-1.88h-.83v1.88h-.6ZM104.85,198.02h.89c.15,0,.28-.04.39-.12.12-.08.21-.18.28-.32.07-.13.11-.28.11-.45,0-.26-.08-.47-.24-.64-.16-.16-.36-.24-.62-.24h-.82v1.76Z" fill="#231f20"/>
        <path d="M107.62,200.52l1.72-4.9h.64l1.72,4.9h-.64l-.46-1.31h-1.88l-.46,1.31h-.64ZM108.93,198.6h1.47l-.73-2.11-.74,2.11Z" fill="#231f20"/>
        <path d="M113.23,200.52l-1.75-4.9h.64l1.44,4.1,1.44-4.1h.64l-1.75,4.9h-.66Z" fill="#231f20"/>
      </g>
    </g>
    <g isolation="isolate">
      <g>
        <path d="M138.97,200.52v-4.9h1.32c.41,0,.77.1,1.08.31.31.21.56.5.74.87.18.37.27.79.27,1.27s-.09.9-.27,1.27c-.18.37-.43.66-.74.87s-.67.32-1.08.32h-1.32ZM139.57,199.88h.72c.21,0,.4-.05.58-.14s.34-.22.47-.38c.14-.17.24-.36.32-.58.07-.22.11-.46.11-.71s-.04-.49-.11-.71c-.08-.22-.18-.41-.32-.58s-.29-.29-.47-.38c-.18-.09-.37-.14-.58-.14h-.72v3.61Z" fill="#231f20"/>
        <path d="M143.18,200.52v-4.9h1.44c.28,0,.53.06.75.19.22.13.39.31.51.53.12.23.19.49.19.79,0,.32-.08.6-.24.85-.16.24-.37.42-.62.53l1.03,2.01h-.68l-.95-1.88h-.83v1.88h-.6ZM143.78,198.02h.9c.15,0,.28-.04.39-.12.12-.08.21-.18.28-.32.07-.13.11-.28.11-.45,0-.26-.08-.47-.24-.64-.16-.16-.36-.24-.62-.24h-.82v1.76Z" fill="#231f20"/>
        <path d="M147.02,200.52v-4.9h.6v4.9h-.6Z" fill="#231f20"/>
        <path d="M148.7,200.52v-4.9h2.58v.63h-1.98v1.54h1.73v.63h-1.73v2.1h-.6Z" fill="#231f20"/>
        <path d="M152.89,200.52v-4.27h-1.33v-.63h3.27v.63h-1.33v4.27h-.6Z" fill="#231f20"/>
      </g>
    </g>
    <g isolation="isolate">
      <g>
        <path d="M174.9,200.52v-4.9h1.37c.29,0,.54.05.75.15.21.1.37.25.49.46.12.2.17.45.17.74,0,.22-.05.42-.14.6-.09.17-.22.32-.38.43.21.12.37.27.48.47.11.2.17.43.17.7s-.05.53-.17.73-.27.36-.47.46c-.2.1-.45.16-.73.16h-1.55ZM175.49,197.73h.88c.22,0,.39-.07.52-.2.13-.13.19-.32.19-.56s-.07-.44-.22-.57c-.15-.13-.35-.2-.62-.2h-.76v1.53ZM175.49,199.9h.92c.25,0,.45-.07.59-.21s.21-.32.21-.56c0-.26-.08-.46-.24-.61-.16-.14-.38-.21-.67-.21h-.8v1.58Z" fill="#231f20"/>
        <path d="M178.63,200.52v-4.9h1.44c.28,0,.53.06.75.19.22.13.39.31.51.53.12.23.19.49.19.79,0,.32-.08.6-.24.85-.16.24-.37.42-.62.53l1.03,2.01h-.68l-.95-1.88h-.83v1.88h-.6ZM179.22,198.02h.9c.15,0,.28-.04.39-.12.12-.08.21-.18.28-.32.07-.13.11-.28.11-.45,0-.26-.08-.47-.24-.64-.16-.16-.36-.24-.62-.24h-.82v1.76Z" fill="#231f20"/>
        <path d="M182,200.52l1.72-4.9h.64l1.72,4.9h-.64l-.46-1.31h-1.88l-.46,1.31h-.64ZM183.3,198.6h1.47l-.73-2.11-.74,2.11Z" fill="#231f20"/>
        <path d="M186.67,200.52v-4.9h.62l2.41,3.75v-3.75h.6v4.9h-.6l-2.43-3.79v3.79h-.6Z" fill="#231f20"/>
        <path d="M193.2,200.61c-.41,0-.77-.11-1.08-.33-.32-.22-.56-.52-.74-.9-.18-.38-.27-.82-.27-1.31s.09-.93.27-1.31c.18-.38.42-.68.74-.9.31-.22.67-.33,1.08-.33.26,0,.52.06.75.17.24.11.45.26.64.46.19.19.33.42.44.67l-.54.28c-.08-.19-.18-.36-.32-.5-.13-.14-.29-.25-.45-.33-.17-.08-.34-.12-.53-.12-.28,0-.54.08-.76.24-.22.16-.4.39-.52.67-.13.28-.19.61-.19.99s.06.71.19.99c.13.29.3.51.53.68s.48.24.77.24c.19,0,.36-.04.53-.13.17-.09.32-.21.45-.36.13-.15.24-.33.32-.52l.54.27c-.1.27-.25.5-.43.71-.19.21-.4.37-.64.48-.24.11-.5.17-.76.17Z" fill="#231f20"/>
        <path d="M195.78,200.52v-4.9h.6v2.07h2.3v-2.07h.6v4.9h-.6v-2.21h-2.3v2.21h-.6Z" fill="#231f20"/>
      </g>
    </g>
    <g isolation="isolate">
      <g>
        <path d="M217.18,200.52v-4.9h1.44c.28,0,.53.06.75.19.22.13.39.31.51.53.12.23.19.49.19.79,0,.32-.08.6-.24.85-.16.24-.37.42-.62.53l1.03,2.01h-.68l-.95-1.88h-.83v1.88h-.6ZM217.78,198.02h.9c.15,0,.28-.04.39-.12.12-.08.21-.18.28-.32.07-.13.11-.28.11-.45,0-.26-.08-.47-.24-.64-.16-.16-.36-.24-.62-.24h-.82v1.76Z" fill="#231f20"/>
        <path d="M221.02,200.52v-4.9h2.56v.63h-1.97v1.46h1.77v.62h-1.77v1.57h1.98v.63h-2.58Z" fill="#231f20"/>
        <path d="M226,200.61c-.23,0-.43-.03-.62-.09s-.34-.14-.48-.25c-.13-.1-.25-.22-.34-.35-.09-.13-.15-.27-.19-.41l.58-.22c.06.19.18.36.35.5.17.14.38.21.63.22.3,0,.54-.07.71-.21.17-.14.26-.32.26-.55,0-.21-.07-.38-.22-.51-.15-.13-.35-.23-.6-.3l-.49-.15c-.2-.06-.37-.15-.53-.26s-.29-.25-.38-.43c-.09-.17-.14-.38-.14-.62,0-.45.13-.8.38-1.05.25-.25.62-.38,1.1-.38.28,0,.52.05.72.15.2.1.37.23.5.4.13.16.23.34.28.54l-.58.22c-.07-.21-.19-.38-.35-.51-.17-.13-.37-.19-.62-.19s-.46.07-.61.21-.22.33-.22.57c0,.21.06.36.17.47.12.11.27.19.47.25l.49.14c.4.11.71.3.92.56.22.26.33.54.33.85,0,.27-.06.51-.17.72s-.29.38-.51.5c-.23.12-.5.19-.83.19Z" fill="#231f20"/>
        <path d="M229.21,200.52v-4.27h-1.33v-.63h3.27v.63h-1.33v4.27h-.6Z" fill="#231f20"/>
      </g>
    </g>
    <g isolation="isolate">
      <g>
        <path d="M256.79,200.52v-4.9h.6v2.07h2.3v-2.07h.6v4.9h-.6v-2.21h-2.3v2.21h-.6Z" fill="#231f20"/>
        <path d="M263.2,200.61c-.41,0-.78-.11-1.1-.32-.32-.21-.57-.51-.75-.9-.18-.38-.27-.82-.27-1.31s.09-.94.27-1.32c.18-.38.43-.68.75-.9.32-.22.68-.33,1.1-.33s.78.11,1.1.33c.32.22.56.52.74.9.18.38.27.82.27,1.31s-.09.93-.27,1.32c-.18.38-.43.68-.74.9-.31.21-.68.32-1.09.32ZM263.21,199.98c.29,0,.54-.08.77-.25s.4-.39.52-.67c.13-.29.19-.61.19-.99s-.06-.7-.19-.98-.3-.51-.53-.68c-.23-.16-.48-.24-.78-.24s-.55.08-.78.24c-.23.16-.4.39-.53.68s-.19.62-.19.98.07.7.2.99c.13.28.31.51.54.67.23.16.49.25.79.25Z" fill="#231f20"/>
        <path d="M266.1,200.52v-4.9h.6v4.27h1.98v.63h-2.58Z" fill="#231f20"/>
        <path d="M269.29,200.52v-4.9h1.31c.41,0,.77.1,1.08.31.31.21.56.5.74.87.18.37.27.79.27,1.27s-.09.9-.27,1.27c-.18.37-.42.66-.74.87-.32.21-.68.32-1.08.32h-1.31ZM269.89,199.88h.72c.21,0,.4-.05.58-.14s.34-.22.47-.38c.14-.17.24-.36.32-.58.08-.22.11-.46.11-.71s-.04-.49-.11-.71c-.07-.22-.18-.41-.32-.58-.14-.17-.29-.29-.47-.38-.18-.09-.37-.14-.58-.14h-.72v3.61Z" fill="#231f20"/>
      </g>
    </g>
    <g isolation="isolate">
      <g>
        <path d="M297.17,200.52v-4.9h.6v4.27h1.98v.63h-2.58Z" fill="#231f20"/>
        <path d="M300.36,200.52v-4.9h2.56v.63h-1.97v1.46h1.77v.62h-1.77v1.57h1.98v.63h-2.58Z" fill="#231f20"/>
        <path d="M303.47,200.52l1.72-4.9h.64l1.72,4.9h-.64l-.46-1.31h-1.88l-.46,1.31h-.64ZM304.78,198.6h1.47l-.73-2.11-.74,2.11Z" fill="#231f20"/>
        <path d="M308.14,200.52v-4.9h1.44c.28,0,.53.07.75.2.22.13.39.32.51.56.12.24.19.51.19.82s-.06.57-.17.81c-.11.24-.27.42-.47.56-.2.14-.43.2-.69.2h-.96v1.75h-.6ZM308.74,198.14h.95c.22,0,.39-.09.53-.26.14-.17.21-.4.21-.68s-.08-.51-.24-.68c-.16-.17-.37-.26-.61-.26h-.83v1.88Z" fill="#231f20"/>
      </g>
    </g>
    <g isolation="isolate">
      <g>
        <path d="M330.09,200.52v-4.9h1.44c.28,0,.53.06.75.19.22.13.39.31.51.53.12.23.19.49.19.79,0,.32-.08.6-.24.85-.16.24-.37.42-.62.53l1.03,2.01h-.68l-.95-1.88h-.83v1.88h-.6ZM330.69,198.02h.9c.15,0,.28-.04.39-.12.12-.08.21-.18.28-.32.07-.13.11-.28.11-.45,0-.26-.08-.47-.24-.64-.16-.16-.36-.24-.62-.24h-.82v1.76Z" fill="#231f20"/>
        <path d="M333.46,200.52l1.72-4.9h.64l1.72,4.9h-.64l-.46-1.31h-1.88l-.46,1.31h-.64ZM334.77,198.6h1.47l-.73-2.11-.74,2.11Z" fill="#231f20"/>
        <path d="M338.86,200.52v-4.27h-1.33v-.63h3.27v.63h-1.33v4.27h-.6Z" fill="#231f20"/>
        <path d="M343.22,200.61c-.41,0-.77-.11-1.08-.33-.32-.22-.56-.52-.74-.9-.18-.38-.27-.82-.27-1.31s.09-.93.27-1.31c.18-.38.42-.68.74-.9.31-.22.67-.33,1.08-.33.26,0,.52.06.75.17s.45.26.64.46.33.42.43.67l-.54.28c-.08-.19-.18-.36-.32-.5-.13-.14-.29-.25-.45-.33-.17-.08-.34-.12-.53-.12-.28,0-.54.08-.76.24-.22.16-.4.39-.52.67-.12.28-.19.61-.19.99s.06.71.19.99c.13.29.3.51.53.68s.48.24.77.24c.19,0,.36-.04.53-.13.17-.09.32-.21.45-.36.13-.15.24-.33.32-.52l.54.27c-.1.27-.25.5-.43.71-.19.21-.4.37-.64.48s-.5.17-.76.17Z" fill="#231f20"/>
        <path d="M345.8,200.52v-4.9h.6v2.07h2.3v-2.07h.6v4.9h-.6v-2.21h-2.3v2.21h-.6Z" fill="#231f20"/>
        <path d="M350.38,200.52v-4.9h2.56v.63h-1.97v1.46h1.77v.62h-1.77v1.57h1.98v.63h-2.58Z" fill="#231f20"/>
        <path d="M354.84,200.52v-4.27h-1.33v-.63h3.27v.63h-1.33v4.27h-.6Z" fill="#231f20"/>
      </g>
    </g>
    <g>
      <path d="M107.4,224.2c-4.36,0-7.9-3.54-7.9-7.9s3.54-7.9,7.9-7.9,7.9,3.54,7.9,7.9-3.54,7.9-7.9,7.9Z" fill="#2b2b30"/>
      <path d="M107.4,208.9c4.08,0,7.4,3.32,7.4,7.4s-3.32,7.4-7.4,7.4-7.4-3.32-7.4-7.4,3.32-7.4,7.4-7.4M107.4,207.9c-4.64,0-8.4,3.76-8.4,8.4s3.76,8.4,8.4,8.4,8.4-3.76,8.4-8.4-3.76-8.4-8.4-8.4h0Z" fill="#2b7fd8"/>
    </g>
    <g>
      <path d="M146.7,224.2c-4.36,0-7.9-3.54-7.9-7.9s3.54-7.9,7.9-7.9,7.9,3.54,7.9,7.9-3.54,7.9-7.9,7.9Z" fill="#2b2b30"/>
      <path d="M146.7,208.9c4.08,0,7.4,3.32,7.4,7.4s-3.32,7.4-7.4,7.4-7.4-3.32-7.4-7.4,3.32-7.4,7.4-7.4M146.7,207.9c-4.64,0-8.4,3.76-8.4,8.4s3.76,8.4,8.4,8.4,8.4-3.76,8.4-8.4-3.76-8.4-8.4-8.4h0Z" fill="#2b7fd8"/>
    </g>
    <g>
      <path d="M186,224.2c-4.36,0-7.9-3.54-7.9-7.9s3.54-7.9,7.9-7.9,7.9,3.54,7.9,7.9-3.54,7.9-7.9,7.9Z" fill="#2b2b30"/>
      <path d="M186,208.9c4.08,0,7.4,3.32,7.4,7.4s-3.32,7.4-7.4,7.4-7.4-3.32-7.4-7.4,3.32-7.4,7.4-7.4M186,207.9c-4.64,0-8.4,3.76-8.4,8.4s3.76,8.4,8.4,8.4,8.4-3.76,8.4-8.4-3.76-8.4-8.4-8.4h0Z" fill="#2b7fd8"/>
    </g>
    <g>
      <path d="M225.3,224.2c-4.36,0-7.9-3.54-7.9-7.9s3.54-7.9,7.9-7.9,7.9,3.54,7.9,7.9-3.54,7.9-7.9,7.9Z" fill="#2b2b30"/>
      <path d="M225.3,208.9c4.08,0,7.4,3.32,7.4,7.4s-3.32,7.4-7.4,7.4-7.4-3.32-7.4-7.4,3.32-7.4,7.4-7.4M225.3,207.9c-4.64,0-8.4,3.76-8.4,8.4s3.76,8.4,8.4,8.4,8.4-3.76,8.4-8.4-3.76-8.4-8.4-8.4h0Z" fill="#2b7fd8"/>
    </g>
    <g>
      <path d="M264.6,224.2c-4.36,0-7.9-3.54-7.9-7.9s3.54-7.9,7.9-7.9,7.9,3.54,7.9,7.9-3.54,7.9-7.9,7.9Z" fill="#2b2b30"/>
      <path d="M264.6,208.9c4.08,0,7.4,3.32,7.4,7.4s-3.32,7.4-7.4,7.4-7.4-3.32-7.4-7.4,3.32-7.4,7.4-7.4M264.6,207.9c-4.64,0-8.4,3.76-8.4,8.4s3.76,8.4,8.4,8.4,8.4-3.76,8.4-8.4-3.76-8.4-8.4-8.4h0Z" fill="#2b7fd8"/>
    </g>
    <g>
      <path d="M303.9,224.2c-4.36,0-7.9-3.54-7.9-7.9s3.54-7.9,7.9-7.9,7.9,3.54,7.9,7.9-3.54,7.9-7.9,7.9Z" fill="#2b2b30"/>
      <path d="M303.9,208.9c4.08,0,7.4,3.32,7.4,7.4s-3.32,7.4-7.4,7.4-7.4-3.32-7.4-7.4,3.32-7.4,7.4-7.4M303.9,207.9c-4.64,0-8.4,3.76-8.4,8.4s3.76,8.4,8.4,8.4,8.4-3.76,8.4-8.4-3.76-8.4-8.4-8.4h0Z" fill="#2b7fd8"/>
    </g>
    <g>
      <path d="M343.2,224.2c-4.36,0-7.9-3.54-7.9-7.9s3.54-7.9,7.9-7.9,7.9,3.54,7.9,7.9-3.54,7.9-7.9,7.9Z" fill="#2b2b30"/>
      <path d="M343.2,208.9c4.08,0,7.4,3.32,7.4,7.4s-3.32,7.4-7.4,7.4-7.4-3.32-7.4-7.4,3.32-7.4,7.4-7.4M343.2,207.9c-4.64,0-8.4,3.76-8.4,8.4s3.76,8.4,8.4,8.4,8.4-3.76,8.4-8.4-3.76-8.4-8.4-8.4h0Z" fill="#2b7fd8"/>
    </g>
    <g>
      <path d="M107.4,265.82c-5.9,0-10.7-4.8-10.7-10.7s4.8-10.7,10.7-10.7,10.7,4.8,10.7,10.7-4.8,10.7-10.7,10.7Z" fill="#1a1a1a"/>
      <path d="M107.4,245.02c5.57,0,10.1,4.53,10.1,10.1s-4.53,10.1-10.1,10.1-10.1-4.53-10.1-10.1,4.53-10.1,10.1-10.1M107.4,243.82c-6.24,0-11.3,5.06-11.3,11.3s5.06,11.3,11.3,11.3,11.3-5.06,11.3-11.3-5.06-11.3-11.3-11.3h0Z" fill="#d83b3b"/>
    </g>
    <g>
      <path d="M146.7,265.82c-5.9,0-10.7-4.8-10.7-10.7s4.8-10.7,10.7-10.7,10.7,4.8,10.7,10.7-4.8,10.7-10.7,10.7Z" fill="#1a1a1a"/>
      <path d="M146.7,245.02c5.57,0,10.1,4.53,10.1,10.1s-4.53,10.1-10.1,10.1-10.1-4.53-10.1-10.1,4.53-10.1,10.1-10.1M146.7,243.82c-6.24,0-11.3,5.06-11.3,11.3s5.06,11.3,11.3,11.3,11.3-5.06,11.3-11.3-5.06-11.3-11.3-11.3h0Z" fill="#d83b3b"/>
    </g>
    <g>
      <path d="M186,265.82c-5.9,0-10.7-4.8-10.7-10.7s4.8-10.7,10.7-10.7,10.7,4.8,10.7,10.7-4.8,10.7-10.7,10.7Z" fill="#1a1a1a"/>
      <path d="M186,245.02c5.57,0,10.1,4.53,10.1,10.1s-4.53,10.1-10.1,10.1-10.1-4.53-10.1-10.1,4.53-10.1,10.1-10.1M186,243.82c-6.24,0-11.3,5.06-11.3,11.3s5.06,11.3,11.3,11.3,11.3-5.06,11.3-11.3-5.06-11.3-11.3-11.3h0Z" fill="#d83b3b"/>
    </g>
    <g>
      <path d="M225.3,265.82c-5.9,0-10.7-4.8-10.7-10.7s4.8-10.7,10.7-10.7,10.7,4.8,10.7,10.7-4.8,10.7-10.7,10.7Z" fill="#1a1a1a"/>
      <path d="M225.3,245.02c5.57,0,10.1,4.53,10.1,10.1s-4.53,10.1-10.1,10.1-10.1-4.53-10.1-10.1,4.53-10.1,10.1-10.1M225.3,243.82c-6.24,0-11.3,5.06-11.3,11.3s5.06,11.3,11.3,11.3,11.3-5.06,11.3-11.3-5.06-11.3-11.3-11.3h0Z" fill="#d83b3b"/>
    </g>
    <g>
      <path d="M264.6,265.82c-5.9,0-10.7-4.8-10.7-10.7s4.8-10.7,10.7-10.7,10.7,4.8,10.7,10.7-4.8,10.7-10.7,10.7Z" fill="#1a1a1a"/>
      <path d="M264.6,245.02c5.57,0,10.1,4.53,10.1,10.1s-4.53,10.1-10.1,10.1-10.1-4.53-10.1-10.1,4.53-10.1,10.1-10.1M264.6,243.82c-6.24,0-11.3,5.06-11.3,11.3s5.06,11.3,11.3,11.3,11.3-5.06,11.3-11.3-5.06-11.3-11.3-11.3h0Z" fill="#d83b3b"/>
    </g>
    <g>
      <path d="M303.9,265.82c-5.9,0-10.7-4.8-10.7-10.7s4.8-10.7,10.7-10.7,10.7,4.8,10.7,10.7-4.8,10.7-10.7,10.7Z" fill="#1a1a1a"/>
      <path d="M303.9,245.02c5.57,0,10.1,4.53,10.1,10.1s-4.53,10.1-10.1,10.1-10.1-4.53-10.1-10.1,4.53-10.1,10.1-10.1M303.9,243.82c-6.24,0-11.3,5.06-11.3,11.3s5.06,11.3,11.3,11.3,11.3-5.06,11.3-11.3-5.06-11.3-11.3-11.3h0Z" fill="#d83b3b"/>
    </g>
    <g>
      <path d="M343.2,265.82c-5.9,0-10.7-4.8-10.7-10.7s4.8-10.7,10.7-10.7,10.7,4.8,10.7,10.7-4.8,10.7-10.7,10.7Z" fill="#1a1a1a"/>
      <path d="M343.2,245.02c5.57,0,10.1,4.53,10.1,10.1s-4.53,10.1-10.1,10.1-10.1-4.53-10.1-10.1,4.53-10.1,10.1-10.1M343.2,243.82c-6.24,0-11.3,5.06-11.3,11.3s5.06,11.3,11.3,11.3,11.3-5.06,11.3-11.3-5.06-11.3-11.3-11.3h0Z" fill="#d83b3b"/>
    </g>
    <g isolation="isolate">
      <g>
        <path d="M63.06,284.16v-4.9h.58v2.17l1.81-2.17h.76l-1.82,2.21,1.9,2.7h-.74l-1.56-2.22-.35.43v1.79h-.58Z" fill="#231f20"/>
        <path d="M66.87,284.16v-4.9h2.56v.63h-1.97v1.46h1.77v.62h-1.77v1.57h1.98v.63h-2.58Z" fill="#231f20"/>
        <path d="M71.5,284.16v-2.05l-1.52-2.85h.69l1.13,2.14,1.13-2.14h.69l-1.52,2.84v2.06h-.6Z" fill="#231f20"/>
      </g>
    </g>
    <g isolation="isolate">
      <g>
        <path d="M99.61,284.16v-4.9h1.44c.28,0,.54.06.75.19.22.13.39.31.51.53.12.23.19.49.19.79,0,.32-.08.6-.24.85-.16.24-.37.42-.62.53l1.03,2.01h-.68l-.95-1.88h-.83v1.88h-.6ZM100.2,281.65h.89c.15,0,.28-.04.39-.12.12-.08.21-.18.28-.32s.11-.28.11-.45c0-.26-.08-.47-.24-.64-.16-.16-.36-.24-.62-.24h-.82v1.76Z" fill="#231f20"/>
        <path d="M105.29,284.24c-.41,0-.78-.11-1.1-.32-.32-.21-.57-.51-.75-.9-.18-.38-.27-.82-.27-1.31s.09-.94.27-1.32c.18-.38.43-.68.75-.9.32-.22.68-.33,1.1-.33s.78.11,1.1.33c.32.22.56.52.74.9.18.38.27.82.27,1.31s-.09.93-.27,1.32c-.18.38-.42.68-.74.9-.31.21-.68.32-1.09.32ZM105.3,283.61c.29,0,.54-.08.77-.25s.4-.39.52-.67c.13-.29.19-.61.19-.99s-.06-.7-.19-.98-.3-.51-.53-.68c-.22-.16-.48-.24-.78-.24s-.55.08-.78.24c-.23.16-.41.39-.53.68s-.19.62-.19.98.06.7.19.99c.13.28.31.51.54.67s.49.25.79.25Z" fill="#231f20"/>
        <path d="M110.04,284.24c-.41,0-.78-.11-1.1-.32-.32-.21-.57-.51-.75-.9-.18-.38-.27-.82-.27-1.31s.09-.94.27-1.32c.18-.38.43-.68.75-.9.32-.22.68-.33,1.1-.33s.78.11,1.1.33c.32.22.56.52.74.9.18.38.27.82.27,1.31s-.09.93-.27,1.32c-.18.38-.43.68-.74.9-.31.21-.68.32-1.09.32ZM110.04,283.61c.29,0,.54-.08.77-.25s.4-.39.52-.67c.13-.29.19-.61.19-.99s-.06-.7-.19-.98-.3-.51-.53-.68c-.23-.16-.48-.24-.78-.24s-.55.08-.78.24c-.23.16-.4.39-.53.68s-.19.62-.19.98.07.7.2.99c.13.28.31.51.54.67.23.16.49.25.79.25Z" fill="#231f20"/>
        <path d="M113.73,284.16v-4.27h-1.33v-.63h3.27v.63h-1.33v4.27h-.6Z" fill="#231f20"/>
      </g>
    </g>
    <g isolation="isolate">
      <g>
        <path d="M249.65,328.82v-4.9h.6v2.07h2.3v-2.07h.6v4.9h-.6v-2.21h-2.3v2.21h-.6Z" fill="#231f20"/>
        <path d="M253.74,328.82l1.72-4.9h.64l1.72,4.9h-.64l-.46-1.31h-1.88l-.46,1.31h-.64ZM255.04,326.89h1.47l-.73-2.11-.74,2.11Z" fill="#231f20"/>
        <path d="M258.41,328.82v-4.9h1.44c.28,0,.53.06.75.19.22.13.39.31.51.53.12.23.19.49.19.79,0,.32-.08.6-.24.85-.16.24-.37.42-.62.53l1.03,2.01h-.68l-.95-1.88h-.83v1.88h-.6ZM259.01,326.31h.9c.15,0,.28-.04.39-.12.12-.08.21-.18.28-.32.07-.13.11-.28.11-.45,0-.26-.08-.47-.24-.64-.16-.16-.36-.24-.62-.24h-.82v1.76Z" fill="#231f20"/>
        <path d="M262.25,328.82v-4.9h.63l1.41,2.4,1.41-2.4h.63v4.9h-.6v-3.79l-1.45,2.46-1.44-2.45v3.79h-.6Z" fill="#231f20"/>
        <path d="M269.27,328.9c-.41,0-.78-.11-1.1-.32-.32-.21-.57-.51-.75-.9-.18-.38-.27-.82-.27-1.31s.09-.94.27-1.32c.18-.38.43-.68.75-.9.32-.22.68-.33,1.1-.33s.78.11,1.1.33c.32.22.56.52.74.9.18.38.27.82.27,1.31s-.09.93-.27,1.32c-.18.38-.42.68-.74.9-.31.21-.68.32-1.09.32ZM269.27,328.27c.29,0,.54-.08.77-.25s.4-.39.52-.67c.13-.29.19-.61.19-.99s-.06-.7-.19-.98-.3-.51-.53-.68c-.22-.16-.48-.24-.78-.24s-.55.08-.78.24c-.23.16-.41.39-.53.68s-.19.62-.19.98.06.7.19.99c.13.28.31.51.54.67s.49.25.79.25Z" fill="#231f20"/>
        <path d="M272.16,328.82v-4.9h.62l2.41,3.75v-3.75h.6v4.9h-.6l-2.43-3.79v3.79h-.6Z" fill="#231f20"/>
        <path d="M277.91,328.82v-2.05l-1.52-2.85h.69l1.13,2.14,1.13-2.14h.69l-1.52,2.84v2.06h-.6Z" fill="#231f20"/>
      </g>
    </g>
    <g isolation="isolate">
      <g>
        <path d="M21.65,200.61c-.23,0-.43-.03-.62-.09s-.34-.14-.48-.25c-.13-.1-.25-.22-.34-.35-.09-.13-.15-.27-.19-.41l.58-.22c.06.19.18.36.35.5.17.14.38.21.63.22.3,0,.54-.07.71-.21.17-.14.26-.32.26-.55,0-.21-.07-.38-.22-.51-.15-.13-.35-.23-.6-.3l-.49-.15c-.2-.06-.37-.15-.53-.26s-.29-.25-.38-.43c-.09-.17-.14-.38-.14-.62,0-.45.13-.8.38-1.05.25-.25.62-.38,1.1-.38.28,0,.52.05.72.15.2.1.37.23.5.4.13.16.23.34.28.54l-.58.22c-.07-.21-.19-.38-.35-.51-.17-.13-.37-.19-.62-.19s-.46.07-.61.21-.22.33-.22.57c0,.21.06.36.17.47.12.11.27.19.47.25l.49.14c.4.11.71.3.92.56.22.26.33.54.33.85,0,.27-.06.51-.17.72s-.29.38-.51.5c-.23.12-.5.19-.83.19Z" fill="#231f20"/>
        <path d="M24.86,200.52v-4.27h-1.33v-.63h3.27v.63h-1.33v4.27h-.6Z" fill="#231f20"/>
        <path d="M26.52,200.52l1.72-4.9h.64l1.72,4.9h-.64l-.46-1.31h-1.88l-.46,1.31h-.64ZM27.82,198.6h1.47l-.73-2.11-.74,2.11Z" fill="#231f20"/>
        <path d="M31.19,200.52v-4.9h1.44c.28,0,.54.06.75.19.22.13.39.31.51.53.12.23.19.49.19.79,0,.32-.08.6-.24.85-.16.24-.37.42-.62.53l1.03,2.01h-.68l-.95-1.88h-.83v1.88h-.6ZM31.79,198.02h.89c.15,0,.28-.04.39-.12.12-.08.21-.18.28-.32s.11-.28.11-.45c0-.26-.08-.47-.24-.64-.16-.16-.36-.24-.62-.24h-.82v1.76Z" fill="#231f20"/>
        <path d="M35.86,200.52v-4.27h-1.33v-.63h3.27v.63h-1.33v4.27h-.6Z" fill="#231f20"/>
      </g>
    </g>
    <g isolation="isolate">
      <g>
        <path d="M63.24,200.52v-4.9h2.56v.63h-1.97v1.46h1.77v.62h-1.77v1.57h1.98v.63h-2.58Z" fill="#231f20"/>
        <path d="M66.84,200.52v-4.9h.61l2.41,3.75v-3.75h.6v4.9h-.6l-2.43-3.79v3.79h-.6Z" fill="#231f20"/>
        <path d="M71.55,200.52v-4.9h1.32c.41,0,.77.1,1.08.31.31.21.56.5.74.87.18.37.27.79.27,1.27s-.09.9-.27,1.27c-.18.37-.43.66-.74.87s-.67.32-1.08.32h-1.32ZM72.15,199.88h.72c.21,0,.4-.05.58-.14s.34-.22.47-.38c.14-.17.24-.36.32-.58.07-.22.11-.46.11-.71s-.04-.49-.11-.71c-.08-.22-.18-.41-.32-.58s-.29-.29-.47-.38c-.18-.09-.37-.14-.58-.14h-.72v3.61Z" fill="#231f20"/>
      </g>
    </g>
    <g isolation="isolate">
      <g>
        <path d="M17.99,239.6c-.43,0-.81-.11-1.15-.34-.33-.22-.6-.53-.79-.93s-.28-.84-.28-1.35.09-.97.28-1.36.45-.7.79-.93c.33-.22.72-.34,1.15-.34.24,0,.46.04.68.13.22.09.41.21.59.37.18.16.32.34.43.54l-.48.38c-.08-.15-.19-.28-.32-.4-.13-.12-.27-.21-.43-.27-.16-.06-.31-.1-.47-.1-.31,0-.59.08-.83.25-.24.17-.43.4-.57.69-.14.29-.21.64-.21,1.03s.07.72.2,1.01c.14.29.33.53.57.69.25.17.53.25.84.25.25,0,.48-.06.68-.18s.36-.29.47-.51c.12-.22.18-.47.18-.76h-1.03v-.59h1.61v.52c0,.44-.09.82-.25,1.15-.16.33-.39.58-.68.76s-.62.27-.99.27Z" fill="#231f20"/>
        <path d="M20.1,239.51l1.72-5.06h.64l1.72,5.06h-.64l-.46-1.35h-1.88l-.46,1.35h-.64ZM21.4,237.52h1.47l-.73-2.18-.74,2.18Z" fill="#231f20"/>
        <path d="M25.5,239.51v-4.41h-1.33v-.65h3.27v.65h-1.33v4.41h-.6Z" fill="#231f20"/>
        <path d="M28.05,239.51v-5.06h2.56v.65h-1.97v1.5h1.77v.64h-1.77v1.62h1.98v.65h-2.58Z" fill="#231f20"/>
        <path d="M33.13,239.51v-5.06h.6v4.41h1.98v.65h-2.58Z" fill="#231f20"/>
        <path d="M36.32,239.51v-5.06h2.56v.65h-1.97v1.5h1.77v.64h-1.77v1.62h1.98v.65h-2.58Z" fill="#231f20"/>
        <path d="M39.92,239.51v-5.06h.62l2.41,3.88v-3.88h.6v5.06h-.6l-2.43-3.91v3.91h-.6Z" fill="#231f20"/>
      </g>
    </g>
    <g isolation="isolate">
      <g>
        <path d="M61.94,239.64c-.43,0-.81-.11-1.15-.33-.33-.22-.6-.52-.79-.9-.19-.38-.28-.82-.28-1.31s.09-.94.28-1.32c.19-.38.45-.68.79-.9.34-.22.72-.33,1.15-.33.23,0,.46.04.68.13.22.09.41.21.59.36.18.15.32.33.43.52l-.48.36c-.08-.14-.19-.27-.32-.38-.13-.11-.27-.2-.43-.26-.16-.06-.31-.09-.47-.09-.31,0-.59.08-.83.24-.24.16-.43.39-.57.67-.14.28-.21.62-.21.99s.07.7.2.98c.14.28.33.51.57.67.25.16.53.25.84.25.25,0,.48-.06.68-.18s.36-.28.47-.5c.12-.21.17-.46.18-.74h-1.03v-.57h1.61v.5c0,.42-.09.8-.25,1.11-.16.32-.39.56-.68.74s-.62.26-.99.26Z" fill="#231f20"/>
        <path d="M64.6,239.56v-4.9h.6v4.27h1.98v.63h-2.58Z" fill="#231f20"/>
        <path d="M67.8,239.56v-4.9h.6v4.9h-.6Z" fill="#231f20"/>
        <path d="M69.47,239.56v-4.9h1.32c.41,0,.77.1,1.08.31.31.21.56.5.74.87.18.37.27.79.27,1.27s-.09.9-.27,1.27c-.18.37-.43.66-.74.87s-.67.32-1.08.32h-1.32ZM70.07,238.92h.72c.21,0,.4-.05.58-.14.18-.09.34-.22.47-.38.14-.17.24-.36.32-.58.08-.22.11-.46.11-.71s-.04-.49-.11-.71c-.08-.22-.18-.41-.32-.58-.13-.17-.29-.29-.47-.38-.18-.09-.37-.14-.58-.14h-.72v3.61Z" fill="#231f20"/>
        <path d="M73.68,239.56v-4.9h2.56v.63h-1.97v1.46h1.77v.62h-1.77v1.57h1.98v.63h-2.58Z" fill="#231f20"/>
      </g>
    </g>
    <g isolation="isolate">
      <g>
        <path d="M140.83,284.16v-4.9h1.44c.28,0,.53.06.75.19.22.13.39.31.51.53.12.23.19.49.19.79,0,.32-.08.6-.24.85-.16.24-.37.42-.62.53l1.03,2.01h-.68l-.95-1.88h-.83v1.88h-.6ZM141.42,281.65h.9c.15,0,.28-.04.39-.12.12-.08.21-.18.28-.32.07-.13.11-.28.11-.45,0-.26-.08-.47-.24-.64-.16-.16-.36-.24-.62-.24h-.82v1.76Z" fill="#231f20"/>
        <path d="M144.67,284.16v-4.9h.62l2.41,3.75v-3.75h.6v4.9h-.6l-2.43-3.79v3.79h-.6Z" fill="#231f20"/>
        <path d="M149.38,284.16v-4.9h1.31c.41,0,.77.1,1.08.31.31.21.56.5.74.87.18.37.27.79.27,1.27s-.09.9-.27,1.27c-.18.37-.42.66-.74.87-.32.21-.68.32-1.08.32h-1.31ZM149.98,283.52h.72c.21,0,.4-.05.58-.14s.34-.22.47-.38c.14-.17.24-.36.32-.58.08-.22.11-.46.11-.71s-.04-.49-.11-.71c-.07-.22-.18-.41-.32-.58-.14-.17-.29-.29-.47-.38-.18-.09-.37-.14-.58-.14h-.72v3.61Z" fill="#231f20"/>
      </g>
    </g>
    <g isolation="isolate">
      <g>
        <path d="M182.25,284.16v-4.9h1.44c.28,0,.53.06.75.19.22.13.39.31.51.53.12.23.19.49.19.79,0,.32-.08.6-.24.85-.16.24-.37.42-.62.53l1.03,2.01h-.68l-.95-1.88h-.83v1.88h-.6ZM182.85,281.65h.9c.15,0,.28-.04.39-.12.12-.08.21-.18.28-.32.07-.13.11-.28.11-.45,0-.26-.08-.47-.24-.64-.16-.16-.36-.24-.62-.24h-.82v1.76Z" fill="#231f20"/>
        <path d="M187.47,284.24c-.23,0-.43-.03-.62-.09-.18-.06-.34-.14-.48-.25-.14-.1-.25-.22-.34-.35-.09-.13-.15-.27-.19-.41l.58-.22c.06.19.18.36.35.5.17.14.38.21.63.22.3,0,.54-.07.71-.21s.26-.32.26-.55c0-.21-.08-.38-.22-.51-.15-.13-.35-.23-.6-.3l-.49-.15c-.2-.06-.37-.15-.53-.26s-.29-.25-.38-.43c-.09-.17-.14-.38-.14-.62,0-.45.13-.8.38-1.05.25-.25.62-.38,1.1-.38.28,0,.52.05.72.15.2.1.37.23.5.4.13.16.23.34.28.54l-.58.22c-.07-.21-.19-.38-.35-.51-.17-.13-.37-.19-.62-.19s-.46.07-.61.21-.22.33-.22.57c0,.21.06.36.17.47.12.11.27.19.47.25l.49.14c.4.11.71.3.92.56.22.26.33.54.33.85,0,.27-.06.51-.17.72-.12.21-.29.38-.51.5-.22.12-.5.19-.83.19Z" fill="#231f20"/>
        <path d="M190.68,284.16v-4.27h-1.33v-.63h3.27v.63h-1.33v4.27h-.6Z" fill="#231f20"/>
      </g>
    </g>
    <g>
      <path d="M68.1,310.26c-4.36,0-7.9-3.54-7.9-7.9s3.54-7.9,7.9-7.9,7.9,3.54,7.9,7.9-3.54,7.9-7.9,7.9Z" fill="#2b2b30"/>
      <path d="M68.1,294.96c4.08,0,7.4,3.32,7.4,7.4s-3.32,7.4-7.4,7.4-7.4-3.32-7.4-7.4,3.32-7.4,7.4-7.4M68.1,293.96c-4.64,0-8.4,3.76-8.4,8.4s3.76,8.4,8.4,8.4,8.4-3.76,8.4-8.4-3.76-8.4-8.4-8.4h0Z" fill="#2b7fd8"/>
    </g>
    <g>
      <path d="M107.4,310.26c-4.36,0-7.9-3.54-7.9-7.9s3.54-7.9,7.9-7.9,7.9,3.54,7.9,7.9-3.54,7.9-7.9,7.9Z" fill="#2b2b30"/>
      <path d="M107.4,294.96c4.08,0,7.4,3.32,7.4,7.4s-3.32,7.4-7.4,7.4-7.4-3.32-7.4-7.4,3.32-7.4,7.4-7.4M107.4,293.96c-4.64,0-8.4,3.76-8.4,8.4s3.76,8.4,8.4,8.4,8.4-3.76,8.4-8.4-3.76-8.4-8.4-8.4h0Z" fill="#2b7fd8"/>
    </g>
    <g>
      <path d="M264.6,353.46c-4.36,0-7.9-3.54-7.9-7.9s3.54-7.9,7.9-7.9,7.9,3.54,7.9,7.9-3.54,7.9-7.9,7.9Z" fill="#2b2b30"/>
      <path d="M264.6,338.16c4.08,0,7.4,3.32,7.4,7.4s-3.32,7.4-7.4,7.4-7.4-3.32-7.4-7.4,3.32-7.4,7.4-7.4M264.6,337.16c-4.64,0-8.4,3.76-8.4,8.4s3.76,8.4,8.4,8.4,8.4-3.76,8.4-8.4-3.76-8.4-8.4-8.4h0Z" fill="#2b7fd8"/>
    </g>
    <g>
      <circle cx="28.8" cy="216.3" r="7.9" fill="#2b2b30"/>
      <path d="M28.8,208.9c4.08,0,7.4,3.32,7.4,7.4s-3.32,7.4-7.4,7.4-7.4-3.32-7.4-7.4,3.32-7.4,7.4-7.4M28.8,207.9c-4.64,0-8.4,3.76-8.4,8.4s3.76,8.4,8.4,8.4,8.4-3.76,8.4-8.4-3.76-8.4-8.4-8.4h0Z" fill="#2b7fd8"/>
    </g>
    <g>
      <path d="M68.1,224.2c-4.36,0-7.9-3.54-7.9-7.9s3.54-7.9,7.9-7.9,7.9,3.54,7.9,7.9-3.54,7.9-7.9,7.9Z" fill="#2b2b30"/>
      <path d="M68.1,208.9c4.08,0,7.4,3.32,7.4,7.4s-3.32,7.4-7.4,7.4-7.4-3.32-7.4-7.4,3.32-7.4,7.4-7.4M68.1,207.9c-4.64,0-8.4,3.76-8.4,8.4s3.76,8.4,8.4,8.4,8.4-3.76,8.4-8.4-3.76-8.4-8.4-8.4h0Z" fill="#2b7fd8"/>
    </g>
    <g>
      <path d="M28.8,263.02c-4.36,0-7.9-3.54-7.9-7.9s3.54-7.9,7.9-7.9,7.9,3.54,7.9,7.9-3.54,7.9-7.9,7.9Z" fill="#2b2b30"/>
      <path d="M28.8,247.72c4.08,0,7.4,3.32,7.4,7.4s-3.32,7.4-7.4,7.4-7.4-3.32-7.4-7.4,3.32-7.4,7.4-7.4M28.8,246.72c-4.64,0-8.4,3.76-8.4,8.4s3.76,8.4,8.4,8.4,8.4-3.76,8.4-8.4-3.76-8.4-8.4-8.4h0Z" fill="#2b7fd8"/>
    </g>
    <g>
      <path d="M68.1,263.02c-4.36,0-7.9-3.54-7.9-7.9s3.54-7.9,7.9-7.9,7.9,3.54,7.9,7.9-3.54,7.9-7.9,7.9Z" fill="#2b2b30"/>
      <path d="M68.1,247.72c4.08,0,7.4,3.32,7.4,7.4s-3.32,7.4-7.4,7.4-7.4-3.32-7.4-7.4,3.32-7.4,7.4-7.4M68.1,246.72c-4.64,0-8.4,3.76-8.4,8.4s3.76,8.4,8.4,8.4,8.4-3.76,8.4-8.4-3.76-8.4-8.4-8.4h0Z" fill="#2b7fd8"/>
    </g>
    <g>
      <path d="M146.7,310.33c-4.39,0-7.97-3.58-7.97-7.97s3.58-7.97,7.97-7.97,7.97,3.58,7.97,7.97-3.58,7.97-7.97,7.97Z" fill="#5a5a66"/>
      <path d="M146.7,294.89c4.12,0,7.47,3.35,7.47,7.47s-3.35,7.47-7.47,7.47-7.47-3.35-7.47-7.47,3.35-7.47,7.47-7.47M146.7,293.89c-4.68,0-8.47,3.79-8.47,8.47s3.79,8.47,8.47,8.47,8.47-3.79,8.47-8.47-3.79-8.47-8.47-8.47h0Z" fill="#2a2a33"/>
    </g>
    <g>
      <path d="M186,310.33c-4.39,0-7.97-3.58-7.97-7.97s3.58-7.97,7.97-7.97,7.97,3.58,7.97,7.97-3.58,7.97-7.97,7.97Z" fill="#5a5a66"/>
      <path d="M186,294.89c4.12,0,7.47,3.35,7.47,7.47s-3.35,7.47-7.47,7.47-7.47-3.35-7.47-7.47,3.35-7.47,7.47-7.47M186,293.89c-4.68,0-8.47,3.79-8.47,8.47s3.79,8.47,8.47,8.47,8.47-3.79,8.47-8.47-3.79-8.47-8.47-8.47h0Z" fill="#2a2a33"/>
    </g>
    <g isolation="isolate">
      <g>
        <path d="M25.46,323.97c-.41,0-.77-.11-1.08-.33-.32-.22-.56-.52-.74-.9-.18-.38-.27-.82-.27-1.31s.09-.93.27-1.31c.18-.38.42-.68.74-.9.31-.22.67-.33,1.08-.33.26,0,.52.06.76.17.24.11.45.26.64.46.19.19.33.42.43.67l-.54.28c-.08-.19-.18-.36-.32-.5-.13-.14-.29-.25-.45-.33-.17-.08-.34-.12-.53-.12-.28,0-.54.08-.76.24-.22.16-.4.39-.52.67-.13.28-.19.61-.19.99s.06.71.19.99.3.51.53.68c.23.16.48.24.77.24.19,0,.36-.04.53-.13.17-.09.32-.21.45-.36s.24-.33.32-.52l.54.27c-.1.27-.25.5-.43.71-.19.21-.4.37-.64.48-.24.11-.5.17-.76.17Z" fill="#231f20"/>
        <path d="M28.04,323.88v-4.9h.6v4.27h1.98v.63h-2.58Z" fill="#231f20"/>
        <path d="M31.23,323.88v-4.9h.58v2.17l1.81-2.17h.76l-1.82,2.21,1.9,2.7h-.74l-1.56-2.22-.35.43v1.79h-.58Z" fill="#231f20"/>
      </g>
    </g>
    <g>
      <path d="M68.1,356.26c-5.9,0-10.7-4.8-10.7-10.7s4.8-10.7,10.7-10.7,10.7,4.8,10.7,10.7-4.8,10.7-10.7,10.7Z" fill="#1a1a1a"/>
      <path d="M68.1,335.46c5.57,0,10.1,4.53,10.1,10.1s-4.53,10.1-10.1,10.1-10.1-4.53-10.1-10.1,4.53-10.1,10.1-10.1M68.1,334.26c-6.24,0-11.3,5.06-11.3,11.3s5.06,11.3,11.3,11.3,11.3-5.06,11.3-11.3-5.06-11.3-11.3-11.3h0Z" fill="#d83b3b"/>
    </g>
    <g>
      <path d="M107.4,356.26c-5.9,0-10.7-4.8-10.7-10.7s4.8-10.7,10.7-10.7,10.7,4.8,10.7,10.7-4.8,10.7-10.7,10.7Z" fill="#1a1a1a"/>
      <path d="M107.4,335.46c5.57,0,10.1,4.53,10.1,10.1s-4.53,10.1-10.1,10.1-10.1-4.53-10.1-10.1,4.53-10.1,10.1-10.1M107.4,334.26c-6.24,0-11.3,5.06-11.3,11.3s5.06,11.3,11.3,11.3,11.3-5.06,11.3-11.3-5.06-11.3-11.3-11.3h0Z" fill="#d83b3b"/>
    </g>
    <g>
      <path d="M28.8,356.26c-5.9,0-10.7-4.8-10.7-10.7s4.8-10.7,10.7-10.7,10.7,4.8,10.7,10.7-4.8,10.7-10.7,10.7Z" fill="#1a1a1a"/>
      <path d="M28.8,335.46c5.57,0,10.1,4.53,10.1,10.1s-4.53,10.1-10.1,10.1-10.1-4.53-10.1-10.1,4.53-10.1,10.1-10.1M28.8,334.26c-6.24,0-11.3,5.06-11.3,11.3s5.06,11.3,11.3,11.3,11.3-5.06,11.3-11.3-5.06-11.3-11.3-11.3h0Z" fill="#d83b3b"/>
    </g>
    <g>
      <path d="M146.67,356.26c-5.9,0-10.7-4.8-10.7-10.7s4.8-10.7,10.7-10.7,10.7,4.8,10.7,10.7-4.8,10.7-10.7,10.7Z" fill="#1a1a1a"/>
      <path d="M146.67,335.46c5.57,0,10.1,4.53,10.1,10.1s-4.53,10.1-10.1,10.1-10.1-4.53-10.1-10.1,4.53-10.1,10.1-10.1M146.67,334.26c-6.24,0-11.3,5.06-11.3,11.3s5.06,11.3,11.3,11.3,11.3-5.06,11.3-11.3-5.06-11.3-11.3-11.3h0Z" fill="#d83b3b"/>
    </g>
    <g>
      <path d="M186,356.26c-5.9,0-10.7-4.8-10.7-10.7s4.8-10.7,10.7-10.7,10.7,4.8,10.7,10.7-4.8,10.7-10.7,10.7Z" fill="#1a1a1a"/>
      <path d="M186,335.46c5.57,0,10.1,4.53,10.1,10.1s-4.53,10.1-10.1,10.1-10.1-4.53-10.1-10.1,4.53-10.1,10.1-10.1M186,334.26c-6.24,0-11.3,5.06-11.3,11.3s5.06,11.3,11.3,11.3,11.3-5.06,11.3-11.3-5.06-11.3-11.3-11.3h0Z" fill="#d83b3b"/>
    </g>
    <g isolation="isolate">
      <g>
        <path d="M296.07,284.16l-1.75-4.9h.64l1.44,4.1,1.44-4.1h.64l-1.75,4.9h-.66Z" fill="#fff"/>
        <path d="M298.63,284.75l1.68-5.82h.58l-1.67,5.82h-.59Z" fill="#fff"/>
        <path d="M303.36,284.24c-.41,0-.78-.11-1.1-.32-.32-.21-.57-.51-.75-.9s-.27-.82-.27-1.31.09-.94.27-1.32c.18-.38.43-.68.75-.9.32-.22.68-.33,1.1-.33s.78.11,1.1.33c.32.22.56.52.74.9.18.38.27.82.27,1.31s-.09.93-.27,1.32-.43.68-.74.9c-.31.21-.68.32-1.09.32ZM303.37,283.61c.29,0,.54-.08.77-.25.22-.16.4-.39.52-.67.12-.29.19-.61.19-.99s-.06-.7-.19-.98c-.13-.29-.3-.51-.53-.68-.22-.16-.48-.24-.78-.24s-.55.08-.78.24c-.23.16-.41.39-.53.68-.13.29-.19.62-.19.98s.07.7.19.99c.13.28.31.51.54.67.23.16.49.25.79.25Z" fill="#fff"/>
        <path d="M308.08,284.24c-.41,0-.77-.11-1.08-.33-.32-.22-.56-.52-.74-.9-.18-.38-.27-.82-.27-1.31s.09-.93.27-1.31c.18-.38.42-.68.74-.9.31-.22.67-.33,1.08-.33.26,0,.52.06.75.17.24.11.45.26.64.46.19.19.33.42.44.67l-.54.28c-.08-.19-.18-.36-.32-.5-.13-.14-.29-.25-.45-.33-.17-.08-.34-.12-.53-.12-.28,0-.54.08-.76.24-.22.16-.4.39-.52.67-.13.28-.19.61-.19.99s.06.71.19.99c.13.29.3.51.53.68s.48.24.77.24c.19,0,.36-.04.53-.13.17-.09.32-.21.45-.36.13-.15.24-.33.32-.52l.54.27c-.1.27-.25.5-.43.71-.19.21-.4.37-.64.48-.24.11-.5.17-.76.17Z" fill="#fff"/>
        <path d="M311.52,284.16v-4.27h-1.33v-.63h3.27v.63h-1.33v4.27h-.6Z" fill="#fff"/>
      </g>
    </g>
    <g isolation="isolate">
      <g>
        <path d="M339.23,284.24c-.43,0-.81-.11-1.15-.33-.33-.22-.6-.52-.79-.9-.19-.38-.28-.82-.28-1.31s.09-.94.28-1.32c.19-.38.45-.68.79-.9.33-.22.72-.33,1.15-.33.24,0,.46.04.68.13s.41.21.59.36c.18.15.32.33.43.52l-.48.36c-.08-.14-.19-.27-.32-.38s-.27-.2-.43-.26c-.16-.06-.31-.09-.47-.09-.31,0-.59.08-.83.24-.24.16-.43.39-.57.67-.14.28-.21.62-.21.99s.07.7.2.98c.14.28.33.51.57.67s.53.25.84.25c.25,0,.48-.06.68-.18s.36-.28.47-.5c.12-.21.17-.46.18-.74h-1.03v-.57h1.61v.5c0,.42-.09.8-.25,1.11-.16.32-.39.56-.68.74-.29.17-.62.26-.99.26Z" fill="#fff"/>
        <path d="M341.34,284.16l1.72-4.9h.64l1.72,4.9h-.64l-.46-1.31h-1.88l-.46,1.31h-.64ZM342.64,282.23h1.47l-.73-2.11-.74,2.11Z" fill="#fff"/>
        <path d="M346.74,284.16v-4.27h-1.33v-.63h3.27v.63h-1.33v4.27h-.6Z" fill="#fff"/>
        <path d="M349.29,284.16v-4.9h2.56v.63h-1.97v1.46h1.77v.62h-1.77v1.57h1.98v.63h-2.58Z" fill="#fff"/>
      </g>
    </g>
    <g isolation="isolate">
      <g>
        <path d="M291.78,328.82v-4.9h.6v2.07h2.3v-2.07h.6v4.9h-.6v-2.21h-2.3v2.21h-.6Z" fill="#fff"/>
        <path d="M299.1,328.82l-1.75-4.9h.64l1.44,4.1,1.44-4.1h.64l-1.75,4.9h-.66Z" fill="#fff"/>
        <path d="M301.66,329.4l1.68-5.82h.58l-1.67,5.82h-.59Z" fill="#fff"/>
        <path d="M306.39,328.9c-.41,0-.78-.11-1.1-.32-.32-.21-.57-.51-.75-.9s-.27-.82-.27-1.31.09-.94.27-1.32c.18-.38.43-.68.75-.9.32-.22.68-.33,1.1-.33s.78.11,1.1.33c.32.22.56.52.74.9.18.38.27.82.27,1.31s-.09.93-.27,1.32-.43.68-.74.9c-.31.21-.68.32-1.09.32ZM306.4,328.27c.29,0,.54-.08.77-.25.22-.16.4-.39.52-.67.12-.29.19-.61.19-.99s-.06-.7-.19-.98c-.13-.29-.3-.51-.53-.68-.22-.16-.48-.24-.78-.24s-.55.08-.78.24c-.23.16-.41.39-.53.68-.13.29-.19.62-.19.98s.07.7.19.99c.13.28.31.51.54.67.23.16.49.25.79.25Z" fill="#fff"/>
        <path d="M311.11,328.9c-.41,0-.77-.11-1.08-.33-.32-.22-.56-.52-.74-.9-.18-.38-.27-.82-.27-1.31s.09-.93.27-1.31c.18-.38.42-.68.74-.9.31-.22.67-.33,1.08-.33.26,0,.52.06.75.17.24.11.45.26.64.46.19.19.33.42.44.67l-.54.28c-.08-.19-.18-.36-.32-.5-.13-.14-.29-.25-.45-.33-.17-.08-.34-.12-.53-.12-.28,0-.54.08-.76.24-.22.16-.4.39-.52.67-.13.28-.19.61-.19.99s.06.71.19.99c.13.29.3.51.53.68s.48.24.77.24c.19,0,.36-.04.53-.13.17-.09.32-.21.45-.36.13-.15.24-.33.32-.52l.54.27c-.1.27-.25.5-.43.71-.19.21-.4.37-.64.48-.24.11-.5.17-.76.17Z" fill="#fff"/>
        <path d="M314.55,328.82v-4.27h-1.33v-.63h3.27v.63h-1.33v4.27h-.6Z" fill="#fff"/>
      </g>
    </g>
    <g isolation="isolate">
      <g>
        <path d="M334.26,328.82v-4.9h.6v2.07h2.3v-2.07h.6v4.9h-.6v-2.21h-2.3v2.21h-.6Z" fill="#fff"/>
        <path d="M342.26,328.9c-.43,0-.81-.11-1.15-.33-.33-.22-.6-.52-.79-.9-.19-.38-.28-.82-.28-1.31s.09-.94.28-1.32c.19-.38.45-.68.79-.9.33-.22.72-.33,1.15-.33.24,0,.46.04.68.13.22.09.41.21.59.36.18.15.32.33.43.52l-.48.36c-.08-.14-.19-.27-.32-.38s-.27-.2-.43-.26c-.16-.06-.31-.09-.47-.09-.31,0-.59.08-.83.24-.24.16-.43.39-.57.67-.14.28-.21.62-.21.99s.07.7.2.98c.14.28.33.51.57.67s.53.25.84.25c.25,0,.48-.06.68-.18.2-.12.36-.28.47-.5.12-.21.18-.46.18-.74h-1.03v-.57h1.61v.5c0,.42-.09.8-.25,1.11s-.39.56-.68.74c-.29.17-.62.26-.99.26Z" fill="#fff"/>
        <path d="M344.37,328.82l1.72-4.9h.64l1.72,4.9h-.64l-.46-1.31h-1.88l-.46,1.31h-.64ZM345.67,326.89h1.47l-.73-2.11-.74,2.11Z" fill="#fff"/>
        <path d="M349.76,328.82v-4.27h-1.33v-.63h3.27v.63h-1.33v4.27h-.6Z" fill="#fff"/>
        <path d="M352.31,328.82v-4.9h2.56v.63h-1.97v1.46h1.77v.62h-1.77v1.57h1.98v.63h-2.58Z" fill="#fff"/>
      </g>
    </g>
    <g>
      <path d="M303.9,313.06c-5.9,0-10.7-4.8-10.7-10.7s4.8-10.7,10.7-10.7,10.7,4.8,10.7,10.7-4.8,10.7-10.7,10.7Z" fill="#1a1a1a"/>
      <path d="M303.9,292.26c5.57,0,10.1,4.53,10.1,10.1s-4.53,10.1-10.1,10.1-10.1-4.53-10.1-10.1,4.53-10.1,10.1-10.1M303.9,291.06c-6.24,0-11.3,5.06-11.3,11.3s5.06,11.3,11.3,11.3,11.3-5.06,11.3-11.3-5.06-11.3-11.3-11.3h0Z" fill="#dd6400"/>
    </g>
    <g>
      <path d="M343.2,313.06c-5.9,0-10.7-4.8-10.7-10.7s4.8-10.7,10.7-10.7,10.7,4.8,10.7,10.7-4.8,10.7-10.7,10.7Z" fill="#1a1a1a"/>
      <path d="M343.2,292.26c5.57,0,10.1,4.53,10.1,10.1s-4.53,10.1-10.1,10.1-10.1-4.53-10.1-10.1,4.53-10.1,10.1-10.1M343.2,291.06c-6.24,0-11.3,5.06-11.3,11.3s5.06,11.3,11.3,11.3,11.3-5.06,11.3-11.3-5.06-11.3-11.3-11.3h0Z" fill="#dd6400"/>
    </g>
    <g>
      <path d="M303.9,356.26c-5.9,0-10.7-4.8-10.7-10.7s4.8-10.7,10.7-10.7,10.7,4.8,10.7,10.7-4.8,10.7-10.7,10.7Z" fill="#1a1a1a"/>
      <path d="M303.9,335.46c5.57,0,10.1,4.53,10.1,10.1s-4.53,10.1-10.1,10.1-10.1-4.53-10.1-10.1,4.53-10.1,10.1-10.1M303.9,334.26c-6.24,0-11.3,5.06-11.3,11.3s5.06,11.3,11.3,11.3,11.3-5.06,11.3-11.3-5.06-11.3-11.3-11.3h0Z" fill="#dd6400"/>
    </g>
    <g>
      <path d="M343.2,356.26c-5.9,0-10.7-4.8-10.7-10.7s4.8-10.7,10.7-10.7,10.7,4.8,10.7,10.7-4.8,10.7-10.7,10.7Z" fill="#1a1a1a"/>
      <path d="M343.2,335.46c5.57,0,10.1,4.53,10.1,10.1s-4.53,10.1-10.1,10.1-10.1-4.53-10.1-10.1,4.53-10.1,10.1-10.1M343.2,334.26c-6.24,0-11.3,5.06-11.3,11.3s5.06,11.3,11.3,11.3,11.3-5.06,11.3-11.3-5.06-11.3-11.3-11.3h0Z" fill="#dd6400"/>
    </g>
  </g>
</svg>