<?xml version="1.0" encoding="UTF-8"?>
<svg xmlns="http://www.w3.org/2000/svg" width="132.08mm" height="128.5mm" viewBox="0 0 374.4 364.25">
  <g id="Background">
    <rect y="0" width="374.4" height="364.25" fill="#f0f0f0"/>
  </g>
  <g id="UI">
    <g>
      <path id="path12" d="M319.2,22.78h1.2v-1.2h1.2v2.4h1.2v-3.6h1.2v4.8h1.2v-6h1.2v6h1.2v-3.6h1.2v2.4h1.2v-1.2h1.2" fill="none" stroke="#b2b2b2" stroke-linecap="round" stroke-linejoin="round" stroke-width=".5"/>
      <path id="path13" d="M332.97,25.18l3.6-6c0,1.31,1.01,3.6,2.4,3.6h4.8l1.2,2.4" fill="none" stroke="#b2b2b2" stroke-linecap="square" stroke-linejoin="bevel" stroke-width=".5"/>
      <path id="path17" d="M349.01,19.18h-1.2v7.2h1.2" fill="none" stroke="#b2b2b2" stroke-linecap="square" stroke-linejoin="bevel" stroke-width=".5"/>
      <path id="path18" d="M358.61,19.18h1.2v7.2h-1.2" fill="none" stroke="#b2b2b2" stroke-linecap="square" stroke-linejoin="bevel" stroke-width=".5"/>
      <path id="path21" d="M350.21,19.82l2.4,2.4" fill="none" stroke="#b2b2b2" stroke-linejoin="bevel" stroke-width=".5"/>
      <path id="path22" d="M352.61,19.82l-2.4,2.4" fill="none" stroke="#b2b2b2" stroke-linejoin="bevel" stroke-width=".5"/>
      <path id="path23-5" d="M350.21,23.42l2.4,2.4" fill="none" stroke="#b2b2b2" stroke-linejoin="bevel" stroke-width=".5"/>
      <path id="path24" d="M350.21,25.82l2.4-2.4" fill="none" stroke="#b2b2b2" stroke-linejoin="bevel" stroke-width=".5"/>
      <path id="path25-3" d="M355.01,19.82l2.4,2.4" fill="none" stroke="#b2b2b2" stroke-linejoin="bevel" stroke-width=".5"/>
      <path id="path26-7" d="M357.41,19.82l-2.4,2.4" fill="none" stroke="#b2b2b2" stroke-linejoin="bevel" stroke-width=".5"/>
      <rect id="rect26" x="355.01" y="23.42" width="2.4" height="2.4" fill="none" stroke="#b2b2b2" stroke-linejoin="bevel" stroke-width=".5"/>
    </g>
  </g>
  <g id="Text">
    <g>
      <rect x="16.8" y="16.78" width="84" height="12" fill="none"/>
      <path d="M20.26,26.04c-.62,0-1.17-.14-1.65-.42-.48-.28-.85-.66-1.12-1.15-.27-.49-.41-1.05-.41-1.69s.14-1.2.41-1.69c.27-.49.65-.87,1.12-1.15.48-.28,1.03-.42,1.65-.42.46,0,.87.08,1.26.24.38.16.71.38.99.67.28.29.49.62.64,1l-1.36.46c-.09-.21-.21-.39-.37-.55-.15-.16-.33-.28-.52-.36-.2-.08-.41-.13-.64-.13-.33,0-.62.08-.88.24s-.46.39-.6.68c-.14.29-.22.62-.22,1s.07.71.22,1c.15.29.35.52.61.68.26.17.56.25.9.25.25,0,.46-.04.66-.13.19-.09.36-.22.5-.38.14-.16.26-.35.36-.56l1.36.46c-.14.38-.36.72-.64,1.01-.28.29-.61.52-1,.68-.38.16-.81.24-1.27.24Z" fill="#231f20"/>
      <path d="M25.4,25.93v-2.66l-2.22-3.64h1.65l1.3,2.19,1.3-2.19h1.65l-2.21,3.63v2.67h-1.45Z" fill="#231f20"/>
      <path d="M32.34,26.04c-.62,0-1.17-.14-1.65-.42-.48-.28-.85-.66-1.12-1.15-.27-.49-.41-1.05-.41-1.69s.14-1.2.41-1.69c.27-.49.65-.87,1.12-1.15.48-.28,1.03-.42,1.65-.42.46,0,.87.08,1.26.24.38.16.71.38.99.67.28.29.49.62.64,1l-1.36.46c-.09-.21-.21-.39-.37-.55-.15-.16-.33-.28-.52-.36-.2-.08-.41-.13-.64-.13-.33,0-.62.08-.88.24s-.46.39-.6.68c-.14.29-.22.62-.22,1s.07.71.22,1c.15.29.35.52.61.68.26.17.56.25.9.25.25,0,.46-.04.66-.13.19-.09.36-.22.5-.38.14-.16.26-.35.36-.56l1.36.46c-.14.38-.36.72-.64,1.01-.28.29-.61.52-1,.68-.38.16-.81.24-1.27.24Z" fill="#231f20"/>
      <path d="M35.82,25.93v-6.3h1.45v4.97h2.68v1.33h-4.13Z" fill="#231f20"/>
      <path d="M40.5,25.93v-6.3h4.1v1.33h-2.66v1.15h2.22v1.29h-2.22v1.2h2.7v1.33h-4.15Z" fill="#231f20"/>
    </g>
  </g>
  <g id="Layer_8" data-name="Layer 8">
    <rect x="295.2" y="143.98" width="72" height="216" rx="3" ry="3" fill="#2a2a2a"/>
  </g>
  <g id="Layer_10" data-name="Layer 10">
    <rect x="14.4" y="33.58" width="345.6" height="84" rx="8.81" ry="8.81" fill="none" stroke="#8a8a8a" stroke-dasharray="4.15 3.11" stroke-width=".62"/>
    <line x1="230.39" y1="302.38" x2="273.59" y2="302.38" fill="none" stroke="#b2b2b2" stroke-miterlimit="11.34" stroke-width=".5"/>
    <line x1="143.99" y1="302.38" x2="187.19" y2="302.38" fill="none" stroke="#b2b2b2" stroke-miterlimit="11.34" stroke-width=".5"/>
    <line x1="230.39" y1="345.58" x2="273.59" y2="345.58" fill="none" stroke="#b2b2b2" stroke-miterlimit="11.34" stroke-width=".5"/>
    <line x1="230.39" y1="259.18" x2="273.59" y2="259.18" fill="none" stroke="#b2b2b2" stroke-miterlimit="11.34" stroke-width=".5"/>
    <line x1="143.99" y1="259.18" x2="187.19" y2="259.18" fill="none" stroke="#b2b2b2" stroke-miterlimit="11.34" stroke-width=".5"/>
    <line x1="230.39" y1="215.98" x2="273.59" y2="215.98" fill="none" stroke="#b2b2b2" stroke-miterlimit="11.34" stroke-width=".5"/>
    <line x1="143.99" y1="215.98" x2="187.19" y2="215.98" fill="none" stroke="#b2b2b2" stroke-miterlimit="11.34" stroke-width=".5"/>
    <line x1="230.39" y1="172.78" x2="273.59" y2="172.78" fill="none" stroke="#b2b2b2" stroke-miterlimit="11.34" stroke-width=".5"/>
    <line x1="143.99" y1="172.78" x2="187.19" y2="172.78" fill="none" stroke="#b2b2b2" stroke-miterlimit="11.34" stroke-width=".5"/>
    <g isolation="isolate">
      <g>
        <path d="M22.67,331.18v-4.9h1.58c.34,0,.62.05.86.15s.43.25.56.46c.13.2.2.45.2.74,0,.22-.05.42-.16.6-.11.17-.25.32-.44.43.24.12.43.27.56.47.13.2.19.43.19.7s-.06.53-.19.73c-.13.2-.31.36-.54.46-.23.1-.51.16-.84.16h-1.78ZM23.35,328.39h1.01c.25,0,.45-.07.6-.2.15-.13.22-.32.22-.56s-.08-.44-.25-.57c-.17-.13-.4-.2-.71-.2h-.87v1.53ZM23.35,330.56h1.06c.29,0,.52-.07.68-.21.16-.14.24-.32.24-.56,0-.26-.09-.46-.28-.61-.18-.14-.44-.21-.77-.21h-.92v1.58Z" fill="#231f20"/>
        <path d="M26.39,331.18l1.97-4.9h.74l1.97,4.9h-.73l-.53-1.31h-2.16l-.53,1.31h-.74ZM27.89,329.26h1.69l-.84-2.11-.85,2.11Z" fill="#231f20"/>
        <path d="M31.76,331.18v-4.9h1.65c.33,0,.62.06.87.19.25.13.45.31.59.53.14.23.21.49.21.79,0,.32-.09.6-.27.85-.18.24-.42.42-.71.53l1.18,2.01h-.78l-1.09-1.88h-.96v1.88h-.69ZM32.44,328.68h1.03c.17,0,.32-.04.45-.12.13-.08.24-.18.32-.32s.12-.28.12-.45c0-.26-.09-.47-.27-.64-.18-.16-.42-.24-.71-.24h-.94v1.76Z" fill="#231f20"/>
      </g>
    </g>
    <g isolation="isolate">
      <g>
        <path d="M64.13,331.18v-4.9h1.58c.34,0,.62.05.86.15s.43.25.56.46c.13.2.2.45.2.74,0,.22-.05.42-.16.6-.11.17-.25.32-.44.43.24.12.43.27.56.47.13.2.19.43.19.7s-.06.53-.19.73c-.13.2-.31.36-.54.46-.23.1-.51.16-.84.16h-1.78ZM64.81,328.39h1.01c.25,0,.45-.07.6-.2.15-.13.22-.32.22-.56s-.08-.44-.25-.57c-.17-.13-.4-.2-.71-.2h-.87v1.53ZM64.81,330.56h1.06c.29,0,.52-.07.68-.21.16-.14.24-.32.24-.56,0-.26-.09-.46-.28-.61-.18-.14-.44-.21-.77-.21h-.92v1.58Z" fill="#231f20"/>
        <path d="M68.41,331.18v-4.9h2.95v.63h-2.26v1.46h2.04v.62h-2.04v1.57h2.27v.63h-2.96Z" fill="#231f20"/>
        <path d="M71.98,331.18l1.97-4.9h.74l1.97,4.9h-.74l-.53-1.31h-2.16l-.53,1.31h-.73ZM73.48,329.26h1.69l-.84-2.11-.85,2.11Z" fill="#231f20"/>
        <path d="M78.18,331.18v-4.27h-1.53v-.63h3.76v.63h-1.53v4.27h-.69Z" fill="#231f20"/>
      </g>
    </g>
    <g isolation="isolate">
      <g>
        <path d="M242.17,331.18v-4.9h1.65c.33,0,.61.06.86.19.25.13.45.31.59.53.14.23.21.49.21.79,0,.32-.09.6-.27.85-.18.24-.42.42-.71.53l1.18,2.01h-.78l-1.09-1.88h-.96v1.88h-.69ZM242.86,328.68h1.03c.17,0,.32-.04.45-.12.13-.08.24-.18.32-.32.08-.13.12-.28.12-.45,0-.26-.09-.47-.27-.64-.18-.16-.42-.24-.71-.24h-.95v1.76Z" fill="#231f20"/>
        <path d="M246.59,331.18v-4.9h2.95v.63h-2.26v1.46h2.04v.62h-2.04v1.57h2.27v.63h-2.96Z" fill="#231f20"/>
        <path d="M252.31,331.27c-.26,0-.5-.03-.71-.09s-.4-.14-.55-.25c-.16-.1-.29-.22-.39-.35-.1-.13-.17-.27-.22-.41l.67-.22c.07.19.2.36.4.5.2.14.44.21.72.22.35,0,.62-.07.82-.21.2-.14.3-.32.3-.55,0-.21-.09-.38-.26-.51-.17-.13-.4-.23-.69-.3l-.57-.15c-.22-.06-.43-.15-.61-.26-.18-.11-.33-.25-.44-.43-.11-.17-.16-.38-.16-.62,0-.45.15-.8.44-1.05.29-.25.71-.38,1.26-.38.32,0,.59.05.83.15.23.1.43.23.58.4.15.16.26.34.33.54l-.67.22c-.08-.21-.21-.38-.41-.51-.19-.13-.43-.19-.71-.19-.29,0-.53.07-.7.21s-.26.33-.26.57c0,.21.07.36.2.47.13.11.31.19.54.25l.57.14c.46.11.81.3,1.06.56.25.26.38.54.38.85,0,.27-.07.51-.2.72s-.33.38-.59.5c-.26.12-.58.19-.96.19Z" fill="#231f20"/>
        <path d="M255.01,331.18v-4.9h2.95v.63h-2.26v1.46h2.04v.62h-2.04v1.57h2.28v.63h-2.96Z" fill="#231f20"/>
        <path d="M260.14,331.18v-4.27h-1.53v-.63h3.76v.63h-1.53v4.27h-.69Z" fill="#231f20"/>
      </g>
    </g>
    <g isolation="isolate">
      <g>
        <path d="M338.9,328.78v-4.9h2.95v.63h-2.26v1.46h2.04v.62h-2.04v1.57h2.28v.63h-2.96Z" fill="#fff"/>
        <path d="M345.16,328.87c-.48,0-.9-.11-1.27-.32-.37-.21-.66-.51-.86-.9s-.31-.82-.31-1.31.1-.94.31-1.32c.21-.38.49-.68.86-.9.36-.22.78-.33,1.26-.33s.9.11,1.26.33c.36.22.65.52.85.9.21.38.31.82.31,1.31s-.1.93-.31,1.32-.49.68-.85.9c-.36.21-.78.32-1.25.32ZM345.17,328.24c.33,0,.63-.08.88-.25.26-.16.46-.39.6-.67.14-.29.22-.61.22-.99s-.07-.7-.22-.98-.35-.51-.61-.68c-.26-.16-.56-.24-.89-.24s-.63.08-.9.24c-.26.16-.46.39-.61.68s-.22.62-.22.98.08.7.22.99c.15.28.36.51.62.67.26.16.57.25.91.25Z" fill="#fff"/>
        <path d="M350.58,328.87c-.47,0-.88-.11-1.25-.33-.36-.22-.65-.52-.85-.9-.21-.38-.31-.82-.31-1.31s.1-.93.31-1.31c.21-.38.49-.68.85-.9.36-.22.77-.33,1.24-.33.3,0,.59.06.87.17s.52.26.74.46c.22.19.38.42.5.67l-.62.28c-.09-.19-.21-.36-.36-.5-.15-.14-.33-.25-.52-.33-.19-.08-.4-.12-.61-.12-.33,0-.62.08-.88.24-.26.16-.46.39-.6.67-.14.28-.22.61-.22.99s.07.71.22.99.35.51.61.68c.26.16.55.24.89.24.21,0,.42-.04.61-.13.19-.09.36-.21.51-.36.15-.15.27-.33.37-.52l.62.27c-.12.27-.28.5-.5.71-.21.21-.46.37-.74.48-.28.11-.57.17-.88.17Z" fill="#fff"/>
      </g>
    </g>
    <g isolation="isolate">
      <g>
        <path d="M243.23,153.67c-.26,0-.5-.03-.71-.09-.21-.06-.4-.14-.55-.25-.16-.1-.29-.22-.39-.35-.1-.13-.18-.27-.22-.41l.67-.22c.07.19.2.36.4.5.2.14.44.21.72.22.34,0,.62-.07.82-.21s.3-.32.3-.55c0-.21-.09-.38-.26-.51-.17-.13-.4-.23-.69-.3l-.57-.15c-.22-.06-.43-.15-.61-.26s-.33-.25-.44-.43c-.11-.17-.16-.38-.16-.62,0-.45.15-.8.44-1.05.29-.25.71-.38,1.26-.38.32,0,.59.05.83.15.23.1.43.23.58.4.15.16.26.34.32.54l-.66.22c-.08-.21-.21-.38-.41-.51-.19-.13-.43-.19-.71-.19-.29,0-.53.07-.7.21-.17.14-.25.33-.25.57,0,.21.07.36.2.47.13.11.31.19.54.25l.57.14c.46.11.81.3,1.06.56.25.26.38.54.38.85,0,.27-.07.51-.2.72s-.33.38-.59.5c-.26.12-.58.19-.96.19Z" fill="#231f20"/>
        <path d="M248.02,153.67c-.47,0-.88-.11-1.25-.33-.36-.22-.65-.52-.85-.9-.21-.38-.31-.82-.31-1.31s.1-.93.31-1.31c.21-.38.49-.68.85-.9.36-.22.77-.33,1.24-.33.3,0,.59.06.87.17s.52.26.74.46c.22.19.38.42.5.67l-.62.28c-.09-.19-.21-.36-.36-.5-.15-.14-.33-.25-.52-.33-.19-.08-.4-.12-.61-.12-.33,0-.62.08-.88.24-.26.16-.46.39-.6.67-.14.28-.22.61-.22.99s.07.71.22.99.35.51.61.68c.26.16.55.24.89.24.21,0,.42-.04.61-.13.19-.09.36-.21.51-.36.15-.15.27-.33.37-.52l.62.27c-.12.27-.28.5-.5.71-.21.21-.46.37-.74.48-.28.11-.57.17-.88.17Z" fill="#231f20"/>
        <path d="M250.42,153.58l1.97-4.9h.74l1.97,4.9h-.74l-.53-1.31h-2.16l-.53,1.31h-.73ZM251.92,151.66h1.69l-.84-2.11-.85,2.11Z" fill="#231f20"/>
        <path d="M255.79,153.58v-4.9h.69v4.27h2.28v.63h-2.96Z" fill="#231f20"/>
        <path d="M259.46,153.58v-4.9h2.95v.63h-2.26v1.46h2.04v.62h-2.04v1.57h2.28v.63h-2.96Z" fill="#231f20"/>
      </g>
    </g>
    <g isolation="isolate">
      <g>
        <path d="M156.51,153.67c-.26,0-.5-.03-.71-.09s-.4-.14-.55-.25c-.16-.1-.29-.22-.39-.35-.1-.13-.18-.27-.22-.41l.66-.22c.07.19.2.36.4.5.2.14.44.21.72.22.34,0,.62-.07.81-.21.2-.14.3-.32.3-.55,0-.21-.09-.38-.26-.51-.17-.13-.4-.23-.69-.3l-.57-.15c-.22-.06-.43-.15-.61-.26-.18-.11-.33-.25-.44-.43-.11-.17-.16-.38-.16-.62,0-.45.15-.8.44-1.05.29-.25.71-.38,1.26-.38.32,0,.59.05.83.15.23.1.43.23.58.4.15.16.26.34.33.54l-.67.22c-.08-.21-.21-.38-.41-.51-.19-.13-.43-.19-.71-.19s-.53.07-.7.21-.25.33-.25.57c0,.21.07.36.2.47.13.11.31.19.54.25l.57.14c.46.11.81.3,1.06.56.25.26.37.54.37.85,0,.27-.07.51-.2.72s-.33.38-.59.5c-.26.12-.58.19-.96.19Z" fill="#231f20"/>
        <path d="M159.21,153.58v-4.9h.69v2.07h2.64v-2.07h.69v4.9h-.69v-2.21h-2.64v2.21h-.69Z" fill="#231f20"/>
        <path d="M163.91,153.58l1.97-4.9h.73l1.97,4.9h-.74l-.53-1.31h-2.16l-.53,1.31h-.73ZM165.41,151.66h1.69l-.84-2.11-.85,2.11Z" fill="#231f20"/>
        <path d="M169.28,153.58v-4.9h1.65c.33,0,.61.07.86.2.25.13.45.32.59.56.14.24.21.51.21.82s-.07.57-.2.81c-.13.24-.31.42-.54.56-.23.14-.5.2-.79.2h-1.1v1.75h-.69ZM169.97,151.2h1.09c.25,0,.45-.09.61-.26s.24-.4.24-.68-.09-.51-.28-.68c-.18-.17-.42-.26-.7-.26h-.96v1.88Z" fill="#231f20"/>
        <path d="M173.38,153.58v-4.9h2.95v.63h-2.26v1.46h2.04v.62h-2.04v1.57h2.28v.63h-2.96Z" fill="#231f20"/>
      </g>
    </g>
    <g isolation="isolate">
      <g>
        <path d="M313.08,156.09c-.38,0-.71-.08-1-.24s-.51-.38-.67-.66-.24-.61-.24-.98v-3.14h.69v3.14c0,.24.05.46.16.64s.25.33.43.43c.18.1.4.15.64.15s.46-.05.64-.15c.19-.1.33-.25.43-.43s.15-.4.15-.64v-3.14h.69v3.14c0,.37-.08.69-.24.98-.16.28-.39.5-.68.66s-.63.24-1.02.24Z" fill="#fff"/>
        <path d="M316.18,155.98v-4.9h.71l2.77,3.75v-3.75h.69v4.9h-.69l-2.79-3.79v3.79h-.69Z" fill="#fff"/>
        <path d="M321.6,155.98v-4.9h.69v4.9h-.69Z" fill="#fff"/>
      </g>
    </g>
    <g isolation="isolate">
      <g>
        <path d="M343.08,155.98v-4.9h1.58c.34,0,.62.05.86.15s.43.25.56.46c.13.2.2.45.2.74,0,.22-.05.42-.16.6-.11.17-.25.32-.44.43.24.12.43.27.56.47.13.2.19.43.19.7s-.06.53-.19.73c-.13.2-.31.36-.54.46-.23.1-.51.16-.84.16h-1.78ZM343.76,153.19h1.01c.25,0,.45-.07.6-.2.15-.13.22-.32.22-.56s-.08-.44-.25-.57c-.17-.13-.4-.2-.71-.2h-.87v1.53ZM343.76,155.36h1.06c.29,0,.52-.07.68-.21.16-.14.24-.32.24-.56,0-.26-.09-.46-.28-.61-.18-.14-.44-.21-.77-.21h-.92v1.58Z" fill="#fff"/>
        <path d="M347.36,155.98v-4.9h.69v4.9h-.69Z" fill="#fff"/>
      </g>
    </g>
    <g isolation="isolate">
      <g>
        <path d="M37.33,153.58v-4.9h1.65c.33,0,.61.07.86.2.25.13.45.32.59.56.14.24.21.51.21.82s-.07.57-.2.81c-.13.24-.31.42-.54.56-.23.14-.5.2-.79.2h-1.1v1.75h-.69ZM38.01,151.2h1.09c.25,0,.45-.09.61-.26.16-.17.24-.4.24-.68s-.09-.51-.28-.68c-.18-.17-.42-.26-.7-.26h-.96v1.88Z" fill="#231f20"/>
        <path d="M41.43,153.58v-4.9h.69v2.07h2.64v-2.07h.69v4.9h-.69v-2.21h-2.64v2.21h-.69Z" fill="#231f20"/>
        <path d="M46.13,153.58l1.97-4.9h.74l1.97,4.9h-.74l-.53-1.31h-2.16l-.53,1.31h-.73ZM47.63,151.66h1.69l-.84-2.11-.85,2.11Z" fill="#231f20"/>
        <path d="M53.08,153.67c-.26,0-.5-.03-.71-.09s-.4-.14-.55-.25c-.16-.1-.29-.22-.39-.35-.1-.13-.18-.27-.22-.41l.66-.22c.07.19.2.36.4.5.2.14.44.21.72.22.34,0,.62-.07.81-.21.2-.14.3-.32.3-.55,0-.21-.09-.38-.26-.51-.17-.13-.4-.23-.69-.3l-.57-.15c-.22-.06-.43-.15-.61-.26-.18-.11-.33-.25-.44-.43-.11-.17-.16-.38-.16-.62,0-.45.15-.8.44-1.05.29-.25.71-.38,1.26-.38.32,0,.59.05.83.15.23.1.43.23.58.4.15.16.26.34.33.54l-.67.22c-.08-.21-.21-.38-.41-.51-.19-.13-.43-.19-.71-.19s-.53.07-.7.21-.25.33-.25.57c0,.21.07.36.2.47.13.11.31.19.54.25l.57.14c.46.11.81.3,1.06.56.25.26.37.54.37.85,0,.27-.07.51-.2.72s-.33.38-.59.5c-.26.12-.58.19-.96.19Z" fill="#231f20"/>
        <path d="M55.78,153.58v-4.9h2.95v.63h-2.26v1.46h2.04v.62h-2.04v1.57h2.28v.63h-2.96Z" fill="#231f20"/>
      </g>
    </g>
    <g isolation="isolate">
      <g>
        <path d="M33.91,211.27c-.26,0-.5-.03-.71-.09s-.4-.14-.55-.25c-.16-.1-.29-.22-.39-.35-.1-.13-.17-.27-.22-.41l.67-.22c.07.19.2.36.4.5.2.14.44.21.72.22.35,0,.62-.07.82-.21.2-.14.3-.32.3-.55,0-.21-.09-.38-.26-.51-.17-.13-.4-.23-.69-.3l-.57-.15c-.22-.06-.43-.15-.61-.26-.18-.11-.33-.25-.44-.43-.11-.17-.16-.38-.16-.62,0-.45.15-.8.44-1.05.29-.25.71-.38,1.26-.38.32,0,.59.05.83.15.23.1.43.23.58.4.15.16.26.34.33.54l-.67.22c-.08-.21-.21-.38-.41-.51-.19-.13-.43-.19-.71-.19-.29,0-.53.07-.7.21s-.26.33-.26.57c0,.21.07.36.2.47.13.11.31.19.54.25l.57.14c.46.11.81.3,1.06.56.25.26.38.54.38.85,0,.27-.07.51-.2.72s-.33.38-.59.5c-.26.12-.58.19-.96.19Z" fill="#231f20"/>
        <path d="M37.6,211.18v-4.27h-1.53v-.63h3.76v.63h-1.53v4.27h-.69Z" fill="#231f20"/>
        <path d="M39.51,211.18l1.97-4.9h.74l1.97,4.9h-.73l-.53-1.31h-2.16l-.53,1.31h-.74ZM41,209.26h1.69l-.84-2.11-.85,2.11Z" fill="#231f20"/>
        <path d="M44.87,211.18v-4.9h1.58c.34,0,.62.05.86.15s.43.25.56.46c.13.2.2.45.2.74,0,.22-.05.42-.16.6-.1.17-.25.32-.44.43.24.12.43.27.56.47.13.2.19.43.19.7s-.06.53-.19.73-.31.36-.54.46c-.23.1-.51.16-.84.16h-1.78ZM45.55,208.39h1.01c.25,0,.45-.07.6-.2.15-.13.22-.32.22-.56s-.08-.44-.25-.57c-.17-.13-.4-.2-.71-.2h-.87v1.53ZM45.55,210.56h1.06c.29,0,.51-.07.68-.21.16-.14.24-.32.24-.56,0-.26-.09-.46-.28-.61-.18-.14-.44-.21-.77-.21h-.92v1.58Z" fill="#231f20"/>
        <path d="M49.15,211.18v-4.9h.69v4.9h-.69Z" fill="#231f20"/>
        <path d="M51.08,211.18v-4.9h.69v4.27h2.27v.63h-2.96Z" fill="#231f20"/>
        <path d="M54.75,211.18v-4.9h.69v4.9h-.69Z" fill="#231f20"/>
        <path d="M57.68,211.18v-4.27h-1.53v-.63h3.76v.63h-1.53v4.27h-.69Z" fill="#231f20"/>
        <path d="M61.8,211.18v-2.05l-1.75-2.85h.79l1.3,2.14,1.3-2.14h.8l-1.75,2.84v2.06h-.69Z" fill="#231f20"/>
      </g>
    </g>
    <g isolation="isolate">
      <g>
        <path d="M39.7,268.78v-4.9h2.97v.63h-2.28v1.54h1.99v.63h-1.99v2.1h-.69Z" fill="#231f20"/>
        <path d="M43.52,268.78v-4.9h1.65c.33,0,.61.06.86.19.25.13.45.31.59.53.14.23.21.49.21.79,0,.32-.09.6-.27.85-.18.24-.42.42-.71.53l1.18,2.01h-.78l-1.09-1.88h-.96v1.88h-.69ZM44.21,266.28h1.03c.17,0,.32-.04.45-.12.13-.08.24-.18.32-.32.08-.13.12-.28.12-.45,0-.26-.09-.47-.27-.64-.18-.16-.42-.24-.71-.24h-.95v1.76Z" fill="#231f20"/>
        <path d="M47.94,268.78v-4.9h2.95v.63h-2.26v1.46h2.04v.62h-2.04v1.57h2.27v.63h-2.96Z" fill="#231f20"/>
        <path d="M56.16,269.06l-.6-.6c-.19.13-.39.23-.63.3-.23.07-.48.11-.74.11-.48,0-.9-.11-1.27-.32-.37-.21-.66-.51-.87-.9-.21-.38-.31-.82-.31-1.32,0-.37.06-.71.18-1.02.12-.31.29-.58.5-.8s.47-.4.77-.53c.3-.12.62-.19.98-.19.48,0,.9.11,1.27.33.36.22.65.52.85.9.21.38.31.82.31,1.31,0,.34-.05.66-.15.95-.1.29-.24.55-.42.76l.57.57-.44.44ZM54.2,268.24c.17,0,.32-.02.47-.07.14-.05.28-.12.41-.2l-.68-.69.45-.43.7.71c.12-.16.21-.35.27-.55s.09-.43.09-.67c0-.37-.07-.7-.22-.99-.15-.29-.35-.51-.61-.67-.26-.16-.56-.24-.9-.24s-.63.08-.89.24c-.26.16-.47.39-.61.67-.15.28-.22.61-.22.99s.07.7.22.99c.15.28.36.51.62.67s.56.25.9.25Z" fill="#231f20"/>
      </g>
    </g>
    <g>
      <path d="M7.31,310.09l1.66-4.99h.57l-1.64,4.99h-.58Z" fill="#b2b2b2"/>
      <path d="M11.41,309.66c-.29,0-.53-.05-.73-.16-.2-.11-.35-.25-.47-.44-.12-.19-.2-.4-.25-.64-.05-.24-.08-.5-.08-.78,0-.35.04-.66.11-.95.07-.28.18-.53.32-.73.14-.2.31-.36.52-.47.2-.11.44-.17.7-.17.21,0,.42.03.63.1.21.07.39.16.56.27l-.32.43c-.13-.09-.27-.16-.41-.2s-.29-.07-.41-.07c-.38,0-.67.16-.88.48-.2.32-.3.82-.28,1.48l-.12-.1c.1-.24.25-.42.45-.57.21-.14.45-.21.73-.21s.51.06.72.18c.21.12.37.28.49.49s.17.44.17.71-.06.49-.18.7-.29.36-.51.48c-.22.12-.47.17-.76.17ZM11.42,309.14c.16,0,.31-.04.44-.11.13-.07.23-.17.3-.3.07-.13.11-.28.11-.44s-.04-.32-.11-.45c-.07-.13-.18-.23-.3-.3s-.27-.11-.44-.11-.32.04-.45.11-.23.17-.31.3c-.07.13-.11.28-.11.45s.04.31.11.44c.07.13.18.23.31.3.13.07.28.11.45.11Z" fill="#b2b2b2"/>
      <path d="M15.21,309.58v-.97h-1.94v-.46l1.9-2.77h.61v2.71h.82v.52h-.82v.97h-.57ZM13.92,308.09h1.29v-1.89l-1.29,1.89Z" fill="#b2b2b2"/>
    </g>
    <g>
      <path d="M44.32,309.58l1.51-2.14-1.49-2.06h.71l1.12,1.59,1.11-1.59h.71l-1.49,2.06,1.5,2.14h-.72l-1.11-1.66-1.12,1.66h-.72Z" fill="#b2b2b2"/>
      <path d="M49.89,309.66c-.31,0-.58-.05-.81-.15-.23-.1-.41-.23-.53-.41-.13-.17-.19-.38-.19-.61,0-.25.07-.47.2-.66.13-.19.32-.33.55-.43-.19-.09-.34-.22-.44-.38-.11-.16-.16-.35-.16-.56,0-.22.06-.42.17-.59s.27-.31.48-.4c.21-.1.45-.14.73-.14s.52.05.73.14c.21.1.37.23.48.4s.17.37.17.59c0,.21-.05.4-.16.56-.11.16-.26.29-.45.38.24.1.42.25.55.43.13.19.2.41.2.66,0,.23-.06.43-.19.61-.12.17-.3.31-.53.41-.23.1-.5.15-.82.15ZM49.89,309.14c.28,0,.5-.07.67-.2.17-.13.26-.31.26-.52s-.09-.4-.26-.53c-.17-.14-.4-.2-.67-.2-.18,0-.34.03-.48.09-.14.06-.25.15-.33.26s-.12.24-.12.39.04.27.12.38c.08.11.19.2.33.25.14.06.3.09.48.09ZM49.89,307.17c.24,0,.43-.06.58-.18s.22-.28.22-.47c0-.21-.07-.38-.22-.51s-.34-.2-.58-.2-.42.07-.57.2c-.15.13-.22.3-.22.51,0,.19.07.35.22.47.15.12.34.18.57.18Z" fill="#b2b2b2"/>
    </g>
    <line x1="251.99" y1="184.78" x2="251.99" y2="172.83" fill="none" stroke="#b2b2b2" stroke-miterlimit="11.34" stroke-width=".5"/>
    <line x1="251.99" y1="227.93" x2="251.99" y2="215.98" fill="none" stroke="#b2b2b2" stroke-miterlimit="11.34" stroke-width=".5"/>
    <line x1="251.99" y1="271.18" x2="251.99" y2="259.23" fill="none" stroke="#b2b2b2" stroke-miterlimit="11.34" stroke-width=".5"/>
    <line x1="165.6" y1="184.78" x2="165.6" y2="172.83" fill="none" stroke="#b2b2b2" stroke-miterlimit="11.34" stroke-width=".5"/>
    <line x1="165.6" y1="227.93" x2="165.6" y2="215.98" fill="none" stroke="#b2b2b2" stroke-miterlimit="11.34" stroke-width=".5"/>
    <line x1="165.6" y1="271.18" x2="165.6" y2="259.23" fill="none" stroke="#b2b2b2" stroke-miterlimit="11.34" stroke-width=".5"/>
    <g>
      <polyline points="242.39 194.38 230.39 194.38 230.39 203.44" fill="none" stroke="#b2b2b2" stroke-miterlimit="11.34" stroke-width=".5"/>
      <polygon points="228.34 201.78 228.71 201.44 230.39 203.25 232.07 201.44 232.43 201.78 230.39 203.98 228.34 201.78" fill="#b2b2b2"/>
    </g>
    <g>
      <polyline points="242.39 237.58 230.39 237.58 230.39 246.64" fill="none" stroke="#b2b2b2" stroke-miterlimit="11.34" stroke-width=".5"/>
      <polygon points="228.34 244.98 228.71 244.64 230.39 246.45 232.07 244.64 232.43 244.98 230.39 247.18 228.34 244.98" fill="#b2b2b2"/>
    </g>
    <g>
      <polyline points="242.39 280.78 230.39 280.78 230.39 289.84" fill="none" stroke="#b2b2b2" stroke-miterlimit="11.34" stroke-width=".5"/>
      <polygon points="228.34 288.18 228.71 287.84 230.39 289.65 232.07 287.84 232.43 288.18 230.39 290.38 228.34 288.18" fill="#b2b2b2"/>
    </g>
    <g>
      <polyline points="155.99 194.38 143.99 194.38 143.99 203.44" fill="none" stroke="#b2b2b2" stroke-miterlimit="11.34" stroke-width=".5"/>
      <polygon points="141.95 201.78 142.31 201.44 143.99 203.25 145.67 201.44 146.04 201.78 143.99 203.98 141.95 201.78" fill="#b2b2b2"/>
    </g>
    <g>
      <polyline points="155.99 237.58 143.99 237.58 143.99 246.64" fill="none" stroke="#b2b2b2" stroke-miterlimit="11.34" stroke-width=".5"/>
      <polygon points="141.95 244.98 142.31 244.64 143.99 246.45 145.67 244.64 146.04 244.98 143.99 247.18 141.95 244.98" fill="#b2b2b2"/>
    </g>
    <g>
      <polyline points="155.99 280.78 143.99 280.78 143.99 289.84" fill="none" stroke="#b2b2b2" stroke-miterlimit="11.34" stroke-width=".5"/>
      <polygon points="141.95 288.18 142.31 287.84 143.99 289.65 145.67 287.84 146.04 288.18 143.99 290.38 141.95 288.18" fill="#b2b2b2"/>
    </g>
    <g>
      <line x1="230.39" y1="184.78" x2="230.39" y2="189.58" fill="none" stroke="#b2b2b2" stroke-miterlimit="11.34" stroke-width=".5"/>
      <line x1="225.59" y1="187.18" x2="227.99" y2="187.18" fill="none" stroke="#b2b2b2" stroke-miterlimit="11.34" stroke-width=".5"/>
      <line x1="232.79" y1="187.18" x2="235.19" y2="187.18" fill="none" stroke="#b2b2b2" stroke-miterlimit="11.34" stroke-width=".5"/>
      <line x1="233.99" y1="188.38" x2="233.99" y2="185.98" fill="none" stroke="#b2b2b2" stroke-miterlimit="11.34" stroke-width=".5"/>
    </g>
    <g>
      <line x1="230.39" y1="227.98" x2="230.39" y2="232.78" fill="none" stroke="#b2b2b2" stroke-miterlimit="11.34" stroke-width=".5"/>
      <line x1="225.59" y1="230.38" x2="227.99" y2="230.38" fill="none" stroke="#b2b2b2" stroke-miterlimit="11.34" stroke-width=".5"/>
      <line x1="232.79" y1="230.38" x2="235.19" y2="230.38" fill="none" stroke="#b2b2b2" stroke-miterlimit="11.34" stroke-width=".5"/>
      <line x1="233.99" y1="231.58" x2="233.99" y2="229.18" fill="none" stroke="#b2b2b2" stroke-miterlimit="11.34" stroke-width=".5"/>
    </g>
    <g>
      <line x1="230.39" y1="271.18" x2="230.39" y2="275.98" fill="none" stroke="#b2b2b2" stroke-miterlimit="11.34" stroke-width=".5"/>
      <line x1="225.59" y1="273.58" x2="227.99" y2="273.58" fill="none" stroke="#b2b2b2" stroke-miterlimit="11.34" stroke-width=".5"/>
      <line x1="232.79" y1="273.58" x2="235.19" y2="273.58" fill="none" stroke="#b2b2b2" stroke-miterlimit="11.34" stroke-width=".5"/>
      <line x1="233.99" y1="274.78" x2="233.99" y2="272.38" fill="none" stroke="#b2b2b2" stroke-miterlimit="11.34" stroke-width=".5"/>
    </g>
    <g>
      <line x1="230.39" y1="314.38" x2="230.39" y2="319.18" fill="none" stroke="#b2b2b2" stroke-miterlimit="11.34" stroke-width=".5"/>
      <line x1="225.59" y1="316.78" x2="227.99" y2="316.78" fill="none" stroke="#b2b2b2" stroke-miterlimit="11.34" stroke-width=".5"/>
      <line x1="232.79" y1="316.78" x2="235.19" y2="316.78" fill="none" stroke="#b2b2b2" stroke-miterlimit="11.34" stroke-width=".5"/>
      <line x1="233.99" y1="317.98" x2="233.99" y2="315.58" fill="none" stroke="#b2b2b2" stroke-miterlimit="11.34" stroke-width=".5"/>
    </g>
    <line x1="28.8" y1="172.78" x2="72" y2="172.78" fill="none" stroke="#b2b2b2" stroke-miterlimit="11.34" stroke-width=".5"/>
    <line x1="28.8" y1="230.38" x2="72" y2="230.38" fill="none" stroke="#b2b2b2" stroke-miterlimit="11.34" stroke-width=".5"/>
    <line x1="28.8" y1="304.78" x2="28.8" y2="323.98" fill="none" stroke="#b2b2b2" stroke-miterlimit="11.34" stroke-width=".5"/>
    <line x1="28.8" y1="287.98" x2="72" y2="287.98" fill="none" stroke="#b2b2b2" stroke-miterlimit="11.34" stroke-width=".5"/>
    <line x1="93.6" y1="172.78" x2="115.2" y2="172.78" fill="none" stroke="#b2b2b2" stroke-miterlimit="11.34" stroke-width=".5"/>
    <polyline points="110.4 172.78 110.4 215.98 115.2 215.98" fill="none" stroke="#b2b2b2" stroke-miterlimit="11.34" stroke-width=".5"/>
    <polyline points="105.6 172.78 105.6 259.18 115.2 259.18" fill="none" stroke="#b2b2b2" stroke-miterlimit="11.34" stroke-width=".5"/>
    <polyline points="100.8 172.78 100.8 302.38 115.2 302.38" fill="none" stroke="#b2b2b2" stroke-miterlimit="11.34" stroke-width=".5"/>
    <polyline points="72 323.98 72 319.18 38.4 319.18" fill="none" stroke="#b2b2b2" stroke-miterlimit="11.34" stroke-width=".45"/>
    <line x1="31.2" y1="314.38" x2="36" y2="314.38" fill="none" stroke="#b2b2b2" stroke-miterlimit="11.34" stroke-width=".5"/>
    <line x1="31.2" y1="319.18" x2="36" y2="319.18" fill="none" stroke="#b2b2b2" stroke-miterlimit="11.34" stroke-width=".5"/>
    <line x1="31.2" y1="323.98" x2="36" y2="323.98" fill="none" stroke="#b2b2b2" stroke-miterlimit="11.34" stroke-width=".5"/>
    <line x1="31.2" y1="309.58" x2="36" y2="309.58" fill="none" stroke="#b2b2b2" stroke-miterlimit="11.34" stroke-width=".5"/>
    <line x1="31.2" y1="304.78" x2="36" y2="304.78" fill="none" stroke="#b2b2b2" stroke-miterlimit="11.34" stroke-width=".5"/>
    <line x1="9.6" y1="187.18" x2="14.4" y2="191.98" fill="none" stroke="#b2b2b2" stroke-miterlimit="11.34" stroke-width=".5"/>
    <g>
      <line x1="40.8" y1="187.18" x2="45.6" y2="191.98" fill="none" stroke="#b2b2b2" stroke-miterlimit="11.34" stroke-width=".5"/>
      <line x1="38.4" y1="187.18" x2="43.2" y2="191.98" fill="none" stroke="#b2b2b2" stroke-miterlimit="11.34" stroke-width=".5"/>
      <line x1="43.2" y1="187.18" x2="48" y2="191.98" fill="none" stroke="#b2b2b2" stroke-miterlimit="11.34" stroke-width=".5"/>
      <line x1="45.6" y1="187.18" x2="50.4" y2="191.98" fill="none" stroke="#b2b2b2" stroke-miterlimit="11.34" stroke-width=".5"/>
    </g>
    <path d="M121.84,305.88v-7h2.34c.77,0,1.44.15,2.03.45.59.3,1.05.71,1.39,1.23.33.52.5,1.13.5,1.82s-.17,1.28-.5,1.81c-.33.53-.79.94-1.39,1.24-.59.3-1.27.45-2.03.45h-2.34ZM123.7,304.13h.49c.29,0,.56-.04.81-.13.25-.09.46-.21.64-.36.18-.15.32-.34.42-.55.1-.21.15-.45.15-.71s-.05-.5-.15-.71c-.1-.21-.24-.4-.42-.55-.18-.15-.39-.27-.64-.36-.25-.09-.52-.13-.81-.13h-.49v3.5Z" fill="#692fbc"/>
    <path d="M124.99,262.8c-.7,0-1.32-.16-1.86-.46-.54-.31-.96-.74-1.26-1.28s-.46-1.17-.46-1.88.15-1.33.46-1.88.73-.97,1.26-1.28c.54-.31,1.16-.46,1.86-.46.54,0,1.03.09,1.46.28s.81.45,1.12.78c.31.33.55.72.72,1.16l-1.76.56c-.09-.22-.21-.41-.36-.58s-.32-.29-.51-.38c-.2-.09-.42-.13-.67-.13-.33,0-.62.08-.87.25s-.45.39-.59.67c-.14.29-.21.62-.21,1s.07.71.22,1,.35.52.6.68c.26.16.55.25.89.25.26,0,.48-.04.67-.13.19-.09.35-.22.49-.38.14-.16.25-.36.35-.58l1.76.56c-.16.44-.4.83-.71,1.17-.31.34-.69.6-1.13.79-.44.19-.93.28-1.47.28Z" fill="#dd6400"/>
    <path d="M122.33,219.48v-7h2.52c.49,0,.92.07,1.29.22.37.15.67.37.88.68.21.31.32.7.32,1.17,0,.21-.06.42-.18.63-.12.21-.29.4-.5.57.31.17.54.39.71.66.17.27.25.6.25,1,0,.45-.1.83-.31,1.13-.21.31-.49.54-.86.71s-.78.24-1.25.24h-2.87ZM124.13,215.13h.59c.21,0,.39-.05.52-.16.13-.11.2-.26.2-.45s-.07-.34-.2-.45c-.13-.11-.31-.16-.52-.16h-.59v1.22ZM124.13,217.85h.85c.22,0,.39-.06.53-.18.13-.12.19-.27.19-.46s-.06-.34-.19-.45c-.13-.11-.31-.17-.53-.17h-.85v1.25Z" fill="#67bd45"/>
    <path d="M121.12,176.28l2.68-7h1.99l2.68,7h-1.96l-.41-1.12h-2.61l-.41,1.12h-1.96ZM124.09,173.53h1.41l-.7-1.94-.71,1.94Z" fill="#0097de"/>
  </g>
</svg>