<?xml version="1.0" encoding="UTF-8"?>
<svg xmlns="http://www.w3.org/2000/svg" width="50.8mm" height="128.69mm" viewBox="0 0 144 364.8">
  <g id="Background">
    <rect x="0" width="144" height="364.25" fill="#f0f0f0"/>
  </g>
  <g id="UI">
    <g>
      <path id="path12" d="M89.48,14.75h1.2v-1.2h1.2v2.4h1.2v-3.6h1.2v4.8h1.2v-6h1.2v6h1.2v-3.6h1.2v2.4h1.2v-1.2h1.2" fill="none" stroke="#b2b2b2" stroke-linecap="round" stroke-linejoin="round" stroke-width=".5"/>
      <path id="path13" d="M103.26,17.15l3.6-6c0,1.31,1.01,3.6,2.4,3.6h4.8l1.2,2.4" fill="none" stroke="#b2b2b2" stroke-linecap="square" stroke-linejoin="bevel" stroke-width=".5"/>
      <path id="path17" d="M119.29,11.15h-1.2v7.2h1.2" fill="none" stroke="#b2b2b2" stroke-linecap="square" stroke-linejoin="bevel" stroke-width=".5"/>
      <path id="path18" d="M128.89,11.15h1.2v7.2h-1.2" fill="none" stroke="#b2b2b2" stroke-linecap="square" stroke-linejoin="bevel" stroke-width=".5"/>
      <path id="path21" d="M120.49,11.78l2.4,2.4" fill="none" stroke="#b2b2b2" stroke-linejoin="bevel" stroke-width=".5"/>
      <path id="path22" d="M122.89,11.78l-2.4,2.4" fill="none" stroke="#b2b2b2" stroke-linejoin="bevel" stroke-width=".5"/>
      <path id="path23-5" d="M120.49,15.38l2.4,2.4" fill="none" stroke="#b2b2b2" stroke-linejoin="bevel" stroke-width=".5"/>
      <path id="path24" d="M120.49,17.78l2.4-2.4" fill="none" stroke="#b2b2b2" stroke-linejoin="bevel" stroke-width=".5"/>
      <path id="path25-3" d="M125.29,11.78l2.4,2.4" fill="none" stroke="#b2b2b2" stroke-linejoin="bevel" stroke-width=".5"/>
      <path id="path26-7" d="M127.69,11.78l-2.4,2.4" fill="none" stroke="#b2b2b2" stroke-linejoin="bevel" stroke-width=".5"/>
      <rect id="rect26" x="125.29" y="15.38" width="2.4" height="2.4" fill="none" stroke="#b2b2b2" stroke-linejoin="bevel" stroke-width=".5"/>
    </g>
  </g>
  <g id="Text">
    <g>
      <rect x="14.08" y="8.75" width="55.2" height="12" fill="none"/>
      <path d="M14.69,17.9v-6.3h2.06c.67,0,1.26.13,1.77.41.51.27.91.64,1.2,1.11.29.47.43,1.02.43,1.63s-.14,1.16-.43,1.63c-.29.47-.69.85-1.2,1.12-.51.27-1.1.41-1.77.41h-2.06ZM16.14,16.53h.61c.28,0,.53-.04.77-.13s.44-.21.61-.37.31-.35.41-.57.14-.46.14-.72-.05-.5-.14-.71-.23-.41-.41-.57-.38-.28-.61-.37-.49-.13-.77-.13h-.61v3.56Z" fill="#231f20"/>
      <path d="M20.81,17.9v-6.3h2.47c.46,0,.86.09,1.21.27s.63.42.83.74c.2.32.3.68.3,1.08s-.11.78-.32,1.1-.5.57-.85.73l1.42,2.38h-1.66l-1.21-2.12h-.77v2.12h-1.45ZM22.26,14.45h.98c.17,0,.32-.03.45-.1.13-.07.24-.16.31-.27.08-.12.11-.25.11-.39,0-.22-.08-.41-.25-.55-.17-.14-.38-.22-.65-.22h-.96v1.53Z" fill="#231f20"/>
      <path d="M26.48,17.9v-6.3h1.45v6.3h-1.45Z" fill="#231f20"/>
      <path d="M28.92,17.9v-6.3h4.18v1.33h-2.73v1.21h2.21v1.32h-2.21v2.43h-1.45Z" fill="#231f20"/>
      <path d="M35.1,17.9v-4.97h-1.84v-1.33h5.11v1.33h-1.84v4.97h-1.44Z" fill="#231f20"/>
    </g>
    <path d="M9.82,350.4h124.36c1.45,0,2.62-1.17,2.62-2.62v-85.96c0-1.45-1.17-2.62-2.62-2.62h-16.36c-1.45,0-2.62,1.17-2.62,2.62v37.96c0,1.45-1.17,2.62-2.62,2.62H31.42c-1.45,0-2.62-1.17-2.62-2.62v-37.96c0-1.45-1.17-2.62-2.62-2.62H9.82c-1.45,0-2.62,1.17-2.62,2.62v85.96c0,1.45,1.17,2.62,2.62,2.62Z" fill="#231f20"/>
  </g>
  <g id="Layer_10" data-name="Layer 10">
    <g isolation="isolate">
      <g>
        <path d="M28.09,29.85c-.23,0-.43-.03-.62-.09-.18-.06-.34-.14-.48-.25-.14-.1-.25-.22-.34-.35-.09-.13-.15-.27-.19-.41l.58-.22c.06.19.18.36.35.5.17.14.38.21.63.22.3,0,.54-.07.71-.21.17-.14.26-.32.26-.55,0-.21-.08-.38-.23-.51-.15-.13-.35-.23-.6-.3l-.49-.15c-.19-.06-.37-.15-.53-.26-.16-.11-.29-.25-.38-.43-.09-.17-.14-.38-.14-.62,0-.45.13-.8.38-1.05s.62-.38,1.1-.38c.28,0,.51.05.72.15.2.1.37.23.5.4.13.16.23.34.28.54l-.58.22c-.07-.21-.19-.38-.35-.51-.17-.13-.37-.19-.62-.19-.26,0-.46.07-.61.21-.15.14-.22.33-.22.57,0,.21.06.36.17.47.12.11.27.19.46.25l.49.14c.4.11.71.3.92.56.22.26.33.54.33.85,0,.27-.06.51-.17.72s-.29.38-.51.5c-.22.12-.5.19-.83.19Z" fill="#231f20"/>
        <path d="M30.44,29.76v-4.9h.6v2.06h2.3v-2.06h.6v4.9h-.6v-2.21h-2.3v2.21h-.6Z" fill="#231f20"/>
        <path d="M34.53,29.76l1.72-4.9h.64l1.72,4.9h-.64l-.46-1.31h-1.88l-.46,1.31h-.64ZM35.83,27.84h1.47l-.73-2.11-.74,2.11Z" fill="#231f20"/>
        <path d="M39.2,29.76v-4.9h1.44c.28,0,.53.07.75.2.22.13.39.32.51.56.12.24.19.51.19.82s-.06.57-.17.81c-.11.24-.27.42-.47.56-.2.14-.43.2-.69.2h-.96v1.75h-.6ZM39.8,27.38h.95c.22,0,.39-.09.53-.26.14-.18.21-.4.21-.68s-.08-.51-.24-.68c-.16-.18-.37-.26-.61-.26h-.83v1.88Z" fill="#231f20"/>
        <path d="M42.77,29.76v-4.9h2.56v.63h-1.97v1.46h1.77v.62h-1.77v1.57h1.98v.63h-2.58Z" fill="#231f20"/>
      </g>
    </g>
    <g isolation="isolate">
      <g>
        <path d="M100.16,29.85c-.23,0-.43-.03-.62-.09-.19-.06-.35-.14-.48-.25s-.25-.22-.34-.35c-.09-.13-.15-.27-.19-.41l.58-.22c.06.19.18.36.35.5.17.14.38.21.63.22.3,0,.54-.07.71-.21s.26-.32.26-.55c0-.21-.08-.38-.23-.51-.15-.13-.35-.23-.6-.3l-.49-.15c-.19-.06-.37-.15-.53-.26-.16-.11-.29-.25-.38-.43-.09-.17-.14-.38-.14-.62,0-.45.13-.8.38-1.05.25-.25.62-.38,1.1-.38.28,0,.51.05.72.15.2.1.37.23.5.4.13.16.23.34.28.54l-.58.22c-.07-.21-.19-.38-.35-.51-.17-.13-.37-.19-.62-.19-.26,0-.46.07-.61.21-.15.14-.22.33-.22.57,0,.21.06.36.17.47.12.11.27.19.47.25l.49.14c.4.11.71.3.92.56.22.26.33.54.33.85,0,.27-.06.51-.17.72-.12.21-.29.38-.51.5-.23.12-.5.19-.83.19Z" fill="#231f20"/>
        <path d="M103.38,29.76v-4.27h-1.33v-.63h3.27v.63h-1.33v4.27h-.6Z" fill="#231f20"/>
        <path d="M105.03,29.76l1.72-4.9h.64l1.72,4.9h-.64l-.46-1.31h-1.88l-.46,1.31h-.64ZM106.34,27.84h1.47l-.73-2.11-.74,2.11Z" fill="#231f20"/>
        <path d="M109.7,29.76v-4.9h1.37c.29,0,.54.05.75.15.21.1.37.25.49.46.12.2.17.45.17.74,0,.22-.04.42-.14.6-.09.18-.22.32-.38.43.21.12.37.27.48.47.11.2.17.43.17.7,0,.28-.06.53-.17.73-.11.2-.27.36-.47.46-.2.1-.45.16-.73.16h-1.55ZM110.3,26.97h.88c.22,0,.39-.07.52-.2.13-.14.19-.32.19-.56s-.07-.44-.22-.57c-.15-.13-.35-.2-.61-.2h-.75v1.53ZM110.3,29.14h.92c.25,0,.45-.07.59-.21s.21-.32.21-.56c0-.26-.08-.46-.24-.61-.16-.14-.38-.21-.67-.21h-.8v1.58Z" fill="#231f20"/>
        <path d="M113.42,29.76v-4.9h.6v4.9h-.6Z" fill="#231f20"/>
        <path d="M115.11,29.76v-4.9h.6v4.27h1.98v.63h-2.58Z" fill="#231f20"/>
      </g>
    </g>
    <g>
      <line x1="30.33" y1="42.52" x2="41.67" y2="42.52" fill="none" stroke="red" stroke-miterlimit="11.34" stroke-width=".57"/>
      <line x1="36" y1="36.85" x2="36" y2="48.19" fill="none" stroke="red" stroke-miterlimit="11.34" stroke-width=".57"/>
      <circle cx="36" cy="42.52" r="4.25" fill="none" stroke="red" stroke-miterlimit="11.34" stroke-width=".43"/>
    </g>
    <g>
      <line x1="102.33" y1="42.52" x2="113.67" y2="42.52" fill="none" stroke="red" stroke-miterlimit="11.34" stroke-width=".57"/>
      <line x1="108" y1="36.85" x2="108" y2="48.19" fill="none" stroke="red" stroke-miterlimit="11.34" stroke-width=".57"/>
      <circle cx="108" cy="42.52" r="4.25" fill="none" stroke="red" stroke-miterlimit="11.34" stroke-width=".43"/>
    </g>
    <g isolation="isolate">
      <g>
        <path d="M26.57,93.63c-.41,0-.77-.11-1.08-.33-.32-.22-.56-.52-.74-.9-.18-.38-.27-.82-.27-1.31s.09-.93.27-1.31c.18-.38.42-.68.74-.9.31-.22.67-.33,1.08-.33.26,0,.52.05.75.16.24.11.45.26.64.46.19.19.33.42.44.68l-.54.28c-.08-.19-.18-.36-.32-.5-.13-.14-.29-.25-.45-.33-.17-.08-.34-.12-.53-.12-.28,0-.54.08-.76.25-.22.16-.4.39-.52.67-.13.28-.19.61-.19.99s.06.71.19.99c.13.29.3.51.53.68.23.16.48.24.77.24.19,0,.36-.04.53-.13s.32-.21.45-.36c.13-.15.24-.33.32-.52l.54.27c-.1.27-.25.5-.43.71-.19.21-.4.37-.64.48-.24.11-.5.17-.76.17Z" fill="#231f20"/>
        <path d="M29.16,93.54v-4.9h2.56v.63h-1.97v1.46h1.77v.62h-1.77v1.57h1.98v.63h-2.58Z" fill="#231f20"/>
        <path d="M32.75,93.54v-4.9h.62l2.41,3.75v-3.75h.6v4.9h-.6l-2.43-3.79v3.79h-.6Z" fill="#231f20"/>
        <path d="M38.33,93.54v-4.27h-1.33v-.63h3.27v.63h-1.33v4.27h-.6Z" fill="#231f20"/>
        <path d="M40.88,93.54v-4.9h2.56v.63h-1.97v1.46h1.77v.62h-1.77v1.57h1.98v.63h-2.58Z" fill="#231f20"/>
        <path d="M44.48,93.54v-4.9h1.44c.28,0,.54.06.75.19s.39.31.51.53c.12.23.19.49.19.79,0,.32-.08.6-.24.85-.16.24-.37.42-.62.53l1.03,2.01h-.68l-.95-1.88h-.83v1.88h-.6ZM45.08,91.04h.89c.15,0,.28-.04.39-.12s.21-.18.28-.31.11-.28.11-.45c0-.26-.08-.47-.24-.64-.16-.16-.36-.25-.62-.25h-.82v1.76Z" fill="#231f20"/>
      </g>
    </g>
    <g isolation="isolate">
      <g>
        <path d="M99.29,93.54v-2.05l-1.52-2.85h.69l1.13,2.14,1.13-2.14h.69l-1.52,2.84v2.06h-.6Z" fill="#231f20"/>
        <path d="M104.86,93.63c-.23,0-.43-.03-.62-.09s-.34-.14-.48-.25c-.13-.1-.25-.22-.34-.35-.09-.13-.15-.27-.19-.41l.58-.22c.06.19.18.36.35.5.17.14.38.21.63.22.3,0,.54-.07.71-.21.17-.14.26-.32.26-.55,0-.21-.07-.38-.22-.51-.15-.13-.35-.23-.6-.3l-.49-.15c-.2-.06-.37-.15-.53-.26-.16-.11-.29-.25-.38-.43-.09-.17-.14-.38-.14-.62,0-.45.13-.8.38-1.05.25-.25.62-.38,1.1-.38.28,0,.52.05.72.15.2.1.37.23.5.4.13.16.23.34.28.54l-.58.22c-.07-.21-.19-.38-.35-.51s-.37-.19-.62-.19-.46.07-.61.21-.22.33-.22.57c0,.21.06.36.17.47.12.11.27.19.47.25l.49.14c.4.11.71.3.92.56.22.26.33.54.33.85,0,.27-.06.51-.17.72s-.29.38-.51.5-.5.19-.83.19Z" fill="#231f20"/>
        <path d="M107.21,93.54v-4.9h1.44c.29,0,.54.07.75.2.22.13.39.32.51.56.12.24.19.51.19.82s-.06.57-.17.81c-.11.24-.27.42-.47.56-.2.14-.43.2-.69.2h-.96v1.75h-.6ZM107.81,91.16h.95c.22,0,.39-.09.53-.26.14-.18.21-.4.21-.68s-.08-.51-.24-.68c-.16-.18-.36-.26-.61-.26h-.83v1.88Z" fill="#231f20"/>
        <path d="M110.78,93.54v-4.9h1.44c.28,0,.54.06.75.19s.39.31.51.53c.12.23.19.49.19.79,0,.32-.08.6-.24.85-.16.24-.37.42-.62.53l1.03,2.01h-.68l-.95-1.88h-.83v1.88h-.6ZM111.38,91.04h.89c.15,0,.28-.04.39-.12s.21-.18.28-.31.11-.28.11-.45c0-.26-.08-.47-.24-.64-.16-.16-.36-.25-.62-.25h-.82v1.76Z" fill="#231f20"/>
        <path d="M114.62,93.54v-4.9h1.32c.41,0,.77.1,1.08.31s.56.5.74.86.27.79.27,1.27-.09.9-.27,1.27-.43.66-.74.87-.67.31-1.08.31h-1.32ZM115.22,92.9h.72c.21,0,.4-.05.58-.14.18-.09.34-.22.47-.39s.24-.36.32-.58c.07-.22.11-.46.11-.71s-.04-.49-.11-.71c-.08-.22-.18-.41-.32-.58s-.29-.29-.47-.39c-.18-.09-.37-.14-.58-.14h-.72v3.61Z" fill="#231f20"/>
      </g>
    </g>
    <g>
      <line x1="30.33" y1="106.3" x2="41.67" y2="106.3" fill="none" stroke="red" stroke-miterlimit="11.34" stroke-width=".57"/>
      <line x1="36" y1="100.63" x2="36" y2="111.97" fill="none" stroke="red" stroke-miterlimit="11.34" stroke-width=".57"/>
      <circle cx="36" cy="106.3" r="4.25" fill="none" stroke="red" stroke-miterlimit="11.34" stroke-width=".43"/>
    </g>
    <g>
      <line x1="102.33" y1="106.3" x2="113.67" y2="106.3" fill="none" stroke="red" stroke-miterlimit="11.34" stroke-width=".57"/>
      <line x1="108" y1="100.63" x2="108" y2="111.97" fill="none" stroke="red" stroke-miterlimit="11.34" stroke-width=".57"/>
      <circle cx="108" cy="106.3" r="4.25" fill="none" stroke="red" stroke-miterlimit="11.34" stroke-width=".43"/>
    </g>
    <g isolation="isolate">
      <g>
        <path d="M28.78,164.41v-4.9h2.58v.63h-1.99v1.54h1.73v.63h-1.73v2.1h-.6Z" fill="#231f20"/>
        <path d="M32.1,164.41v-4.9h1.44c.28,0,.53.06.75.19.22.13.39.31.51.53.12.23.19.49.19.79,0,.32-.08.6-.24.85s-.37.42-.62.53l1.03,2.01h-.68l-.95-1.88h-.83v1.88h-.6ZM32.7,161.9h.9c.15,0,.28-.04.39-.12.12-.08.21-.18.28-.31.07-.13.11-.28.11-.45,0-.26-.08-.47-.24-.64-.16-.16-.36-.25-.62-.25h-.82v1.76Z" fill="#231f20"/>
        <path d="M35.95,164.41v-4.9h2.56v.63h-1.97v1.46h1.77v.62h-1.77v1.57h1.98v.63h-2.58Z" fill="#231f20"/>
        <path d="M43.09,164.69l-.52-.6c-.16.13-.34.23-.54.3s-.42.1-.64.1c-.41,0-.78-.11-1.1-.32-.32-.21-.57-.51-.75-.9-.18-.38-.27-.82-.27-1.32,0-.37.05-.71.16-1.02.1-.31.25-.57.44-.8s.41-.4.67-.52.54-.19.85-.19c.42,0,.79.11,1.1.33.32.22.56.52.74.9.18.38.27.82.27,1.31,0,.34-.04.66-.13.95s-.21.55-.37.76l.49.57-.38.44ZM41.39,163.86c.15,0,.28-.02.41-.07.12-.05.24-.12.35-.2l-.59-.69.39-.43.61.71c.1-.16.18-.35.24-.55.05-.2.08-.43.08-.67,0-.37-.06-.7-.19-.99s-.3-.51-.53-.67c-.22-.16-.49-.25-.78-.25s-.55.08-.77.25c-.23.16-.41.39-.53.67s-.19.61-.19.99.06.7.19.99.31.51.54.67c.23.16.49.25.78.25Z" fill="#231f20"/>
      </g>
    </g>
    <g isolation="isolate">
      <g>
        <path d="M97.72,164.41l1.53-2.49-1.52-2.41h.72l1.14,1.85,1.13-1.85h.72l-1.51,2.41,1.52,2.49h-.73l-1.13-1.93-1.14,1.93h-.73Z" fill="#231f20"/>
        <path d="M104.91,164.49c-.23,0-.43-.03-.62-.09-.18-.06-.34-.14-.48-.25-.14-.1-.25-.22-.34-.35-.09-.13-.15-.27-.19-.41l.58-.22c.06.19.18.36.35.5.17.14.38.21.63.22.3,0,.54-.07.71-.21s.26-.32.26-.55c0-.21-.08-.38-.22-.51-.15-.13-.35-.23-.6-.3l-.49-.15c-.2-.06-.37-.15-.53-.26-.16-.11-.29-.25-.38-.43-.09-.17-.14-.38-.14-.62,0-.45.13-.8.38-1.05s.62-.38,1.1-.38c.28,0,.52.05.72.15.2.1.37.23.5.4.13.16.23.34.28.54l-.58.22c-.07-.21-.19-.38-.35-.51s-.37-.19-.62-.19-.46.07-.61.21-.22.33-.22.57c0,.21.06.36.17.47.12.11.27.19.47.25l.49.14c.4.11.71.3.92.56.22.26.33.54.33.85,0,.27-.06.51-.17.72-.12.21-.29.38-.51.5-.22.12-.5.19-.83.19Z" fill="#231f20"/>
        <path d="M107.26,164.41v-4.9h1.44c.28,0,.54.07.75.2.22.13.39.32.51.56.12.24.19.51.19.82s-.06.57-.17.81c-.11.24-.27.42-.47.56-.2.14-.43.2-.69.2h-.96v1.75h-.6ZM107.86,162.02h.95c.21,0,.39-.09.53-.26.14-.18.21-.4.21-.68s-.08-.51-.24-.68c-.16-.18-.36-.26-.61-.26h-.83v1.88Z" fill="#231f20"/>
        <path d="M110.83,164.41v-4.9h1.44c.28,0,.54.06.75.19s.39.31.51.53c.12.23.19.49.19.79,0,.32-.08.6-.24.85-.16.24-.37.42-.62.53l1.03,2.01h-.68l-.95-1.88h-.83v1.88h-.6ZM111.43,161.9h.89c.15,0,.28-.04.39-.12s.21-.18.28-.31.11-.28.11-.45c0-.26-.08-.47-.24-.64-.16-.16-.36-.25-.62-.25h-.82v1.76Z" fill="#231f20"/>
        <path d="M114.67,164.41v-4.9h1.32c.41,0,.77.1,1.08.31s.56.5.74.86c.18.37.27.79.27,1.27s-.09.9-.27,1.27c-.18.37-.43.66-.74.87s-.67.31-1.08.31h-1.32ZM115.27,163.77h.72c.21,0,.4-.05.58-.14.18-.09.34-.22.47-.39.14-.17.24-.36.32-.58.08-.22.11-.46.11-.71s-.04-.49-.11-.71c-.08-.22-.18-.41-.32-.58-.13-.17-.29-.29-.47-.39-.18-.09-.37-.14-.58-.14h-.72v3.61Z" fill="#231f20"/>
      </g>
    </g>
    <g>
      <line x1="30.33" y1="177.17" x2="41.67" y2="177.17" fill="none" stroke="red" stroke-miterlimit="11.34" stroke-width=".57"/>
      <line x1="36" y1="171.5" x2="36" y2="182.83" fill="none" stroke="red" stroke-miterlimit="11.34" stroke-width=".57"/>
      <circle cx="36" cy="177.17" r="4.25" fill="none" stroke="red" stroke-miterlimit="11.34" stroke-width=".43"/>
    </g>
    <g>
      <line x1="102.33" y1="177.17" x2="113.67" y2="177.17" fill="none" stroke="red" stroke-miterlimit="11.34" stroke-width=".57"/>
      <line x1="108" y1="171.5" x2="108" y2="182.83" fill="none" stroke="red" stroke-miterlimit="11.34" stroke-width=".57"/>
      <circle cx="108" cy="177.17" r="4.25" fill="none" stroke="red" stroke-miterlimit="11.34" stroke-width=".43"/>
    </g>
    <g isolation="isolate">
      <g>
        <path d="M9.82,229.69c-.23,0-.43-.03-.62-.09-.18-.06-.34-.14-.48-.25-.14-.11-.25-.22-.34-.35-.09-.13-.15-.27-.19-.41l.58-.22c.06.19.18.36.35.5.17.14.38.21.63.22.3,0,.54-.07.71-.21.17-.14.26-.32.26-.55,0-.21-.08-.38-.23-.51-.15-.13-.35-.23-.6-.3l-.49-.15c-.19-.06-.37-.15-.53-.26-.16-.11-.29-.25-.38-.43-.09-.17-.14-.38-.14-.62,0-.45.13-.8.38-1.05s.62-.38,1.1-.38c.28,0,.51.05.72.15s.37.23.5.4c.13.16.23.34.28.54l-.58.22c-.07-.21-.19-.38-.35-.51-.17-.13-.37-.19-.62-.19-.26,0-.46.07-.61.21-.15.14-.22.33-.22.57,0,.21.06.36.17.47.12.11.27.19.46.25l.49.14c.4.11.71.3.92.56.22.26.33.54.33.85,0,.27-.06.51-.17.72-.12.21-.29.38-.51.5-.22.12-.5.19-.83.19Z" fill="#231f20"/>
        <path d="M12.17,229.61v-4.9h.6v2.06h2.3v-2.06h.6v4.9h-.6v-2.21h-2.3v2.21h-.6Z" fill="#231f20"/>
        <path d="M16.26,229.61l1.72-4.9h.64l1.72,4.9h-.64l-.46-1.31h-1.88l-.46,1.31h-.64ZM17.56,227.68h1.47l-.73-2.11-.74,2.11Z" fill="#231f20"/>
        <path d="M20.93,229.61v-4.9h1.44c.28,0,.53.07.75.2.22.13.39.32.51.56.12.24.19.51.19.82s-.06.57-.17.81-.27.42-.47.56c-.2.14-.43.2-.69.2h-.96v1.75h-.6ZM21.53,227.22h.95c.22,0,.39-.09.53-.26.14-.17.21-.4.21-.68s-.08-.51-.24-.68c-.16-.18-.37-.26-.61-.26h-.83v1.88Z" fill="#231f20"/>
        <path d="M24.5,229.61v-4.9h2.56v.63h-1.97v1.46h1.77v.62h-1.77v1.57h1.98v.63h-2.58Z" fill="#231f20"/>
      </g>
    </g>
    <g isolation="isolate">
      <g>
        <path d="M48.33,229.69c-.23,0-.43-.03-.62-.09-.18-.06-.34-.14-.48-.25-.14-.11-.25-.22-.34-.35-.09-.13-.15-.27-.19-.41l.58-.22c.06.19.18.36.35.5.17.14.38.21.63.22.3,0,.54-.07.71-.21s.26-.32.26-.55c0-.21-.08-.38-.22-.51-.15-.13-.35-.23-.6-.3l-.49-.15c-.2-.06-.37-.15-.53-.26s-.29-.25-.38-.43-.14-.38-.14-.62c0-.45.13-.8.38-1.05s.62-.38,1.1-.38c.28,0,.52.05.72.15s.37.23.5.4.23.34.28.54l-.58.22c-.07-.21-.19-.38-.35-.51-.17-.13-.37-.19-.62-.19s-.46.07-.61.21c-.15.14-.22.33-.22.57,0,.21.06.36.17.47s.27.19.47.25l.49.14c.4.11.71.3.92.56.22.26.33.54.33.85,0,.27-.06.51-.17.72-.12.21-.29.38-.51.5-.22.12-.5.19-.83.19Z" fill="#231f20"/>
        <path d="M51.55,229.61v-4.27h-1.33v-.63h3.27v.63h-1.33v4.27h-.6Z" fill="#231f20"/>
        <path d="M53.2,229.61l1.72-4.9h.64l1.72,4.9h-.64l-.46-1.31h-1.88l-.46,1.31h-.64ZM54.5,227.68h1.47l-.73-2.11-.74,2.11Z" fill="#231f20"/>
        <path d="M57.87,229.61v-4.9h1.37c.29,0,.54.05.75.15.21.1.37.25.49.46.12.2.17.45.17.74,0,.22-.05.42-.14.6s-.22.32-.38.43c.21.12.37.27.48.47s.17.43.17.7c0,.28-.05.53-.17.73s-.27.36-.47.46c-.2.1-.45.16-.73.16h-1.55ZM58.46,226.81h.88c.22,0,.39-.07.52-.2.13-.13.19-.32.19-.56s-.07-.44-.22-.57c-.15-.13-.35-.2-.62-.2h-.76v1.53ZM58.46,228.98h.92c.25,0,.45-.07.59-.21s.21-.32.21-.56c0-.26-.08-.46-.24-.61-.16-.14-.38-.21-.67-.21h-.8v1.58Z" fill="#231f20"/>
      </g>
    </g>
    <g isolation="isolate">
      <g>
        <path d="M82.26,229.69v-4.9h2.58v.63h-1.98v1.54h1.73v.63h-1.73v2.1h-.6Z" fill="#231f20"/>
        <path d="M85.59,229.69v-4.9h1.44c.29,0,.54.06.75.19.22.13.39.31.51.53.12.23.19.49.19.79,0,.32-.08.6-.24.85-.16.24-.37.42-.62.53l1.03,2.01h-.68l-.95-1.88h-.83v1.88h-.6ZM86.18,227.19h.89c.15,0,.28-.04.39-.12.12-.08.21-.18.28-.32.07-.13.11-.28.11-.45,0-.26-.08-.47-.24-.64-.16-.16-.36-.25-.62-.25h-.82v1.76Z" fill="#231f20"/>
        <path d="M89.43,229.69v-4.9h2.56v.63h-1.97v1.46h1.77v.62h-1.77v1.57h1.98v.63h-2.58Z" fill="#231f20"/>
        <path d="M96.58,229.97l-.52-.6c-.16.13-.34.23-.54.3-.2.07-.42.1-.64.1-.41,0-.78-.11-1.1-.32-.32-.21-.57-.51-.75-.9-.18-.38-.27-.82-.27-1.32,0-.37.05-.71.16-1.02s.25-.58.44-.8c.19-.23.41-.4.67-.52.26-.12.54-.19.85-.19.42,0,.79.11,1.1.33.32.22.56.52.74.9.18.38.27.82.27,1.31,0,.34-.04.66-.13.95s-.21.55-.37.76l.49.57-.38.44ZM94.87,229.15c.15,0,.28-.02.41-.07s.24-.12.35-.2l-.59-.69.39-.43.61.71c.1-.16.18-.35.23-.55s.08-.43.08-.67c0-.37-.06-.7-.19-.99-.13-.29-.3-.51-.53-.67-.23-.16-.49-.25-.78-.25s-.54.08-.77.25c-.23.16-.4.39-.53.67-.13.28-.19.61-.19.99s.07.7.2.99c.13.29.31.51.54.67.23.16.49.25.78.25Z" fill="#231f20"/>
      </g>
    </g>
    <g isolation="isolate">
      <g>
        <path d="M117.07,229.61l1.53-2.49-1.52-2.41h.72l1.14,1.85,1.13-1.85h.72l-1.51,2.41,1.52,2.49h-.73l-1.13-1.93-1.14,1.93h-.73Z" fill="#231f20"/>
        <path d="M124.26,229.69c-.23,0-.43-.03-.62-.09s-.34-.14-.48-.25c-.13-.11-.25-.22-.34-.35-.09-.13-.15-.27-.19-.41l.58-.22c.06.19.18.36.35.5.17.14.38.21.63.22.3,0,.54-.07.71-.21.17-.14.26-.32.26-.55,0-.21-.07-.38-.22-.51-.15-.13-.35-.23-.6-.3l-.49-.15c-.2-.06-.37-.15-.53-.26s-.29-.25-.38-.43c-.09-.17-.14-.38-.14-.62,0-.45.13-.8.38-1.05.25-.25.62-.38,1.1-.38.28,0,.52.05.72.15s.37.23.5.4c.13.16.23.34.28.54l-.58.22c-.07-.21-.19-.38-.35-.51-.17-.13-.37-.19-.62-.19s-.46.07-.61.21c-.15.14-.22.33-.22.57,0,.21.06.36.17.47.12.11.27.19.47.25l.49.14c.4.11.71.3.92.56.22.26.33.54.33.85,0,.27-.06.51-.17.72-.12.21-.29.38-.51.5-.23.12-.5.19-.83.19Z" fill="#231f20"/>
        <path d="M126.61,229.61v-4.9h1.44c.29,0,.54.07.75.2s.39.32.51.56c.12.24.19.51.19.82s-.06.57-.17.81-.27.42-.47.56c-.2.14-.43.2-.69.2h-.96v1.75h-.6ZM127.2,227.22h.95c.22,0,.39-.09.53-.26s.21-.4.21-.68-.08-.51-.24-.68c-.16-.18-.36-.26-.61-.26h-.83v1.88Z" fill="#231f20"/>
        <path d="M130.18,229.61v-4.9h1.44c.29,0,.54.06.75.19.22.13.39.31.51.53.12.23.19.49.19.79,0,.32-.08.6-.24.85-.16.24-.37.42-.62.53l1.03,2.01h-.68l-.95-1.88h-.83v1.88h-.6ZM130.77,227.1h.89c.15,0,.28-.04.39-.12.12-.08.21-.18.28-.32.07-.13.11-.28.11-.45,0-.26-.08-.47-.24-.64-.16-.16-.36-.25-.62-.25h-.82v1.76Z" fill="#231f20"/>
      </g>
    </g>
    <g>
      <line x1="13.62" y1="241.98" x2="22.13" y2="241.98" fill="none" stroke="#06f" stroke-miterlimit="11.34" stroke-width=".57"/>
      <line x1="17.88" y1="237.73" x2="17.88" y2="246.23" fill="none" stroke="#06f" stroke-miterlimit="11.34" stroke-width=".57"/>
      <circle cx="17.88" cy="241.98" r="3.4" fill="none" stroke="#06f" stroke-miterlimit="11.34" stroke-width=".43"/>
    </g>
    <g>
      <line x1="49.48" y1="241.98" x2="57.98" y2="241.98" fill="none" stroke="#06f" stroke-miterlimit="11.34" stroke-width=".57"/>
      <line x1="53.73" y1="237.73" x2="53.73" y2="246.23" fill="none" stroke="#06f" stroke-miterlimit="11.34" stroke-width=".57"/>
      <circle cx="53.73" cy="241.98" r="3.4" fill="none" stroke="#06f" stroke-miterlimit="11.34" stroke-width=".43"/>
    </g>
    <g>
      <line x1="85.23" y1="241.98" x2="93.74" y2="241.98" fill="none" stroke="#06f" stroke-miterlimit="11.34" stroke-width=".57"/>
      <line x1="89.48" y1="237.73" x2="89.48" y2="246.23" fill="none" stroke="#06f" stroke-miterlimit="11.34" stroke-width=".57"/>
      <circle cx="89.48" cy="241.98" r="3.4" fill="none" stroke="#06f" stroke-miterlimit="11.34" stroke-width=".43"/>
    </g>
    <g>
      <line x1="120.99" y1="241.98" x2="129.49" y2="241.98" fill="none" stroke="#06f" stroke-miterlimit="11.34" stroke-width=".57"/>
      <line x1="125.24" y1="237.73" x2="125.24" y2="246.23" fill="none" stroke="#06f" stroke-miterlimit="11.34" stroke-width=".57"/>
      <circle cx="125.24" cy="241.98" r="3.4" fill="none" stroke="#06f" stroke-miterlimit="11.34" stroke-width=".43"/>
    </g>
    <g isolation="isolate">
      <g>
        <path d="M13.75,276.38v-4.9h.63l1.41,2.4,1.41-2.4h.63v4.9h-.6v-3.79l-1.45,2.46-1.44-2.45v3.79h-.6Z" fill="#fff"/>
        <path d="M18.91,276.38v-4.9h.6v4.9h-.6Z" fill="#fff"/>
        <path d="M20.6,276.38v-4.9h.61l2.41,3.75v-3.75h.6v4.9h-.6l-2.43-3.79v3.79h-.6Z" fill="#fff"/>
      </g>
    </g>
    <g isolation="isolate">
      <g>
        <path d="M47.9,276.46c-.41,0-.77-.11-1.08-.33-.32-.22-.56-.52-.74-.9-.18-.38-.27-.82-.27-1.31s.09-.93.27-1.31c.18-.38.42-.68.74-.9s.67-.33,1.08-.33c.26,0,.52.05.75.16s.45.26.64.46.33.42.43.68l-.54.28c-.08-.19-.18-.36-.32-.5-.13-.14-.29-.25-.45-.33-.17-.08-.34-.12-.53-.12-.28,0-.54.08-.76.25-.22.16-.4.39-.52.67-.12.28-.19.61-.19.99s.06.71.19.99c.13.29.3.51.53.68s.48.24.77.24c.19,0,.36-.04.53-.13.17-.09.32-.21.45-.36.13-.15.24-.33.32-.52l.54.27c-.1.27-.25.5-.43.71-.19.21-.4.37-.64.48s-.5.17-.76.17Z" fill="#231f20"/>
        <path d="M50.48,276.38v-4.9h.62l2.41,3.75v-3.75h.6v4.9h-.6l-2.43-3.79v3.79h-.6Z" fill="#231f20"/>
        <path d="M56.06,276.38v-4.27h-1.33v-.63h3.27v.63h-1.33v4.27h-.6Z" fill="#231f20"/>
        <path d="M58.61,276.38v-4.9h1.44c.28,0,.53.06.75.19.22.13.39.31.51.53.12.23.19.49.19.79,0,.32-.08.6-.24.85-.16.24-.37.42-.62.53l1.03,2.01h-.68l-.95-1.88h-.83v1.88h-.6ZM59.21,273.87h.9c.15,0,.28-.04.39-.12s.21-.18.28-.32c.07-.13.11-.28.11-.45,0-.26-.08-.47-.24-.64-.16-.16-.36-.25-.62-.25h-.82v1.76Z" fill="#231f20"/>
      </g>
    </g>
    <g isolation="isolate">
      <g>
        <path d="M82.88,276.38v-2.05l-1.52-2.85h.69l1.13,2.14,1.13-2.14h.7l-1.52,2.84v2.06h-.6Z" fill="#231f20"/>
        <path d="M88.45,276.46c-.23,0-.43-.03-.62-.09-.19-.06-.35-.14-.48-.25-.14-.11-.25-.22-.34-.35-.09-.13-.15-.27-.19-.41l.58-.22c.06.19.18.36.35.5.17.14.38.21.63.22.3,0,.54-.07.71-.21s.26-.32.26-.55c0-.21-.08-.38-.23-.51-.15-.13-.35-.23-.6-.3l-.49-.15c-.19-.06-.37-.15-.53-.26-.16-.11-.29-.25-.38-.43s-.14-.38-.14-.62c0-.45.13-.8.38-1.05.25-.25.62-.38,1.1-.38.28,0,.51.05.72.15s.37.23.5.4.23.34.28.54l-.58.22c-.07-.21-.19-.38-.35-.51-.17-.13-.37-.19-.62-.19-.26,0-.46.07-.61.21-.15.14-.22.33-.22.57,0,.21.06.36.17.47s.27.19.47.25l.49.14c.4.11.71.3.92.56.22.26.33.54.33.85,0,.27-.06.51-.17.72-.12.21-.29.38-.51.5-.23.12-.5.19-.83.19Z" fill="#231f20"/>
        <path d="M90.8,276.38v-4.9h1.44c.28,0,.53.07.75.2.22.13.39.32.51.56.12.24.19.51.19.82s-.06.57-.17.81-.27.42-.47.56c-.2.14-.43.2-.69.2h-.96v1.75h-.6ZM91.4,273.99h.95c.22,0,.39-.09.53-.26.14-.17.21-.4.21-.68s-.08-.51-.24-.68c-.16-.18-.37-.26-.61-.26h-.83v1.88Z" fill="#231f20"/>
        <path d="M94.37,276.38v-4.9h1.44c.29,0,.54.06.75.19.22.13.39.31.51.53.12.23.19.49.19.79,0,.32-.08.6-.24.85-.16.24-.37.42-.62.53l1.03,2.01h-.68l-.95-1.88h-.83v1.88h-.6ZM94.97,273.87h.89c.15,0,.28-.04.39-.12.12-.08.21-.18.28-.32.07-.13.11-.28.11-.45,0-.26-.08-.47-.24-.64-.16-.16-.36-.25-.62-.25h-.82v1.76Z" fill="#231f20"/>
      </g>
    </g>
    <g isolation="isolate">
      <g>
        <path d="M119.18,276.38v-4.9h.63l1.41,2.4,1.41-2.4h.63v4.9h-.6v-3.79l-1.45,2.46-1.44-2.45v3.79h-.6Z" fill="#fff"/>
        <path d="M123.86,276.38l1.72-4.9h.64l1.72,4.9h-.64l-.46-1.31h-1.88l-.46,1.31h-.64ZM125.17,274.45h1.47l-.73-2.11-.74,2.11Z" fill="#fff"/>
        <path d="M128.05,276.38l1.53-2.49-1.52-2.41h.72l1.14,1.85,1.13-1.85h.72l-1.51,2.41,1.52,2.49h-.73l-1.13-1.93-1.14,1.93h-.73Z" fill="#fff"/>
      </g>
    </g>
    <g>
      <line x1="13.48" y1="290.42" x2="21.98" y2="290.42" fill="none" stroke="#06f" stroke-miterlimit="11.34" stroke-width=".57"/>
      <line x1="17.73" y1="286.17" x2="17.73" y2="294.67" fill="none" stroke="#06f" stroke-miterlimit="11.34" stroke-width=".57"/>
      <circle cx="17.73" cy="290.42" r="3.4" fill="none" stroke="#06f" stroke-miterlimit="11.34" stroke-width=".43"/>
    </g>
    <g>
      <line x1="49.48" y1="289.23" x2="57.98" y2="289.23" fill="none" stroke="#06f" stroke-miterlimit="11.34" stroke-width=".57"/>
      <line x1="53.73" y1="284.98" x2="53.73" y2="293.48" fill="none" stroke="#06f" stroke-miterlimit="11.34" stroke-width=".57"/>
      <circle cx="53.73" cy="289.23" r="3.4" fill="none" stroke="#06f" stroke-miterlimit="11.34" stroke-width=".43"/>
    </g>
    <g>
      <line x1="85.23" y1="289.23" x2="93.74" y2="289.23" fill="none" stroke="#06f" stroke-miterlimit="11.34" stroke-width=".57"/>
      <line x1="89.48" y1="284.98" x2="89.48" y2="293.48" fill="none" stroke="#06f" stroke-miterlimit="11.34" stroke-width=".57"/>
      <circle cx="89.48" cy="289.23" r="3.4" fill="none" stroke="#06f" stroke-miterlimit="11.34" stroke-width=".43"/>
    </g>
    <g>
      <line x1="120.99" y1="289.23" x2="129.49" y2="289.23" fill="none" stroke="#06f" stroke-miterlimit="11.34" stroke-width=".57"/>
      <line x1="125.24" y1="284.98" x2="125.24" y2="293.48" fill="none" stroke="#06f" stroke-miterlimit="11.34" stroke-width=".57"/>
      <circle cx="125.24" cy="289.23" r="3.4" fill="none" stroke="#06f" stroke-miterlimit="11.34" stroke-width=".43"/>
    </g>
    <g isolation="isolate">
      <path d="M15.84,320.32l1.72-4.9h.64l1.72,4.9h-.64l-.46-1.31h-1.88l-.46,1.31h-.64ZM17.14,318.39h1.47l-.73-2.11-.74,2.11Z" fill="#fff"/>
    </g>
    <g isolation="isolate">
      <path d="M52.41,320.32v-4.9h1.37c.29,0,.54.05.75.15s.37.25.49.46c.12.2.17.45.17.74,0,.22-.04.42-.14.6-.09.17-.22.32-.38.43.21.12.37.27.48.47.11.2.17.43.17.7s-.06.53-.17.73-.27.36-.47.46c-.2.1-.45.16-.73.16h-1.55ZM53,317.52h.88c.22,0,.39-.07.52-.2.13-.13.19-.32.19-.56s-.07-.44-.22-.57c-.15-.13-.35-.2-.61-.2h-.75v1.53ZM53,319.69h.92c.25,0,.45-.07.59-.21s.21-.32.21-.56c0-.26-.08-.46-.24-.61s-.38-.21-.67-.21h-.8v1.58Z" fill="#fff"/>
    </g>
    <g isolation="isolate">
      <path d="M89.64,320.4c-.41,0-.77-.11-1.08-.33-.32-.22-.56-.52-.74-.9-.18-.38-.27-.82-.27-1.31s.09-.93.27-1.31c.18-.38.42-.68.74-.9.31-.22.67-.33,1.08-.33.26,0,.52.06.75.17s.45.26.64.46.33.42.43.67l-.54.28c-.08-.19-.18-.36-.32-.5-.13-.14-.29-.25-.45-.33-.17-.08-.34-.12-.53-.12-.28,0-.54.08-.76.24-.22.16-.4.39-.52.67-.12.28-.19.61-.19.99s.06.71.19.99c.13.29.3.51.53.68s.48.24.77.24c.19,0,.36-.04.53-.13.17-.09.32-.21.45-.36.13-.15.24-.33.32-.52l.54.27c-.1.27-.25.5-.43.71-.19.21-.4.37-.64.48s-.5.17-.76.17Z" fill="#fff"/>
    </g>
    <g isolation="isolate">
      <path d="M123.68,320.32v-4.9h1.31c.41,0,.77.1,1.08.31.31.21.56.5.74.87.18.37.27.79.27,1.27s-.09.9-.27,1.27c-.18.37-.42.66-.74.87-.32.21-.68.32-1.08.32h-1.31ZM124.27,319.67h.72c.21,0,.4-.05.58-.14s.34-.22.47-.38c.14-.17.24-.36.32-.58.08-.22.11-.46.11-.71s-.04-.49-.11-.71c-.07-.22-.18-.41-.32-.58-.14-.17-.29-.29-.47-.38-.18-.09-.37-.14-.58-.14h-.72v3.61Z" fill="#fff"/>
    </g>
    <g>
      <line x1="13.62" y1="332.68" x2="22.13" y2="332.68" fill="none" stroke="#06f" stroke-miterlimit="11.34" stroke-width=".57"/>
      <line x1="17.88" y1="328.43" x2="17.88" y2="336.93" fill="none" stroke="#06f" stroke-miterlimit="11.34" stroke-width=".57"/>
      <circle cx="17.88" cy="332.68" r="3.4" fill="none" stroke="#06f" stroke-miterlimit="11.34" stroke-width=".43"/>
    </g>
    <g>
      <line x1="49.48" y1="332.68" x2="57.98" y2="332.68" fill="none" stroke="#06f" stroke-miterlimit="11.34" stroke-width=".57"/>
      <line x1="53.73" y1="328.43" x2="53.73" y2="336.93" fill="none" stroke="#06f" stroke-miterlimit="11.34" stroke-width=".57"/>
      <circle cx="53.73" cy="332.68" r="3.4" fill="none" stroke="#06f" stroke-miterlimit="11.34" stroke-width=".43"/>
    </g>
    <g>
      <line x1="85.23" y1="332.68" x2="93.74" y2="332.68" fill="none" stroke="#06f" stroke-miterlimit="11.34" stroke-width=".57"/>
      <line x1="89.48" y1="328.43" x2="89.48" y2="336.93" fill="none" stroke="#06f" stroke-miterlimit="11.34" stroke-width=".57"/>
      <circle cx="89.48" cy="332.68" r="3.4" fill="none" stroke="#06f" stroke-miterlimit="11.34" stroke-width=".43"/>
    </g>
    <g>
      <line x1="120.99" y1="332.68" x2="129.49" y2="332.68" fill="none" stroke="#06f" stroke-miterlimit="11.34" stroke-width=".57"/>
      <line x1="125.24" y1="328.43" x2="125.24" y2="336.93" fill="none" stroke="#06f" stroke-miterlimit="11.34" stroke-width=".57"/>
      <circle cx="125.24" cy="332.68" r="3.4" fill="none" stroke="#06f" stroke-miterlimit="11.34" stroke-width=".43"/>
    </g>
  </g>
</svg>