<?xml version="1.0" encoding="UTF-8"?>
<svg xmlns="http://www.w3.org/2000/svg" width="50.8mm" height="128.69mm" viewBox="0 0 144 364.8">
  <g id="Background">
    <rect x="0" width="144" height="364.25" fill="#f0f0f0"/>
  </g>
  <g id="UI">
    <g>
      <path id="path12" d="M89.48,14.75h1.2v-1.2h1.2v2.4h1.2v-3.6h1.2v4.8h1.2v-6h1.2v6h1.2v-3.6h1.2v2.4h1.2v-1.2h1.2" fill="none" stroke="#b2b2b2" stroke-linecap="round" stroke-linejoin="round" stroke-width=".5"/>
      <path id="path13" d="M103.26,17.15l3.6-6c0,1.31,1.01,3.6,2.4,3.6h4.8l1.2,2.4" fill="none" stroke="#b2b2b2" stroke-linecap="square" stroke-linejoin="bevel" stroke-width=".5"/>
      <path id="path17" d="M119.29,11.15h-1.2v7.2h1.2" fill="none" stroke="#b2b2b2" stroke-linecap="square" stroke-linejoin="bevel" stroke-width=".5"/>
      <path id="path18" d="M128.89,11.15h1.2v7.2h-1.2" fill="none" stroke="#b2b2b2" stroke-linecap="square" stroke-linejoin="bevel" stroke-width=".5"/>
      <path id="path21" d="M120.49,11.78l2.4,2.4" fill="none" stroke="#b2b2b2" stroke-linejoin="bevel" stroke-width=".5"/>
      <path id="path22" d="M122.89,11.78l-2.4,2.4" fill="none" stroke="#b2b2b2" stroke-linejoin="bevel" stroke-width=".5"/>
      <path id="path23-5" d="M120.49,15.38l2.4,2.4" fill="none" stroke="#b2b2b2" stroke-linejoin="bevel" stroke-width=".5"/>
      <path id="path24" d="M120.49,17.78l2.4-2.4" fill="none" stroke="#b2b2b2" stroke-linejoin="bevel" stroke-width=".5"/>
      <path id="path25-3" d="M125.29,11.78l2.4,2.4" fill="none" stroke="#b2b2b2" stroke-linejoin="bevel" stroke-width=".5"/>
      <path id="path26-7" d="M127.69,11.78l-2.4,2.4" fill="none" stroke="#b2b2b2" stroke-linejoin="bevel" stroke-width=".5"/>
      <rect id="rect26" x="125.29" y="15.38" width="2.4" height="2.4" fill="none" stroke="#b2b2b2" stroke-linejoin="bevel" stroke-width=".5"/>
    </g>
  </g>
  <g id="Text">
    <g>
      <rect x="14.08" y="8.75" width="55.2" height="12" fill="none"/>
      <path d="M14.69,17.9v-6.3h2.06c.67,0,1.26.13,1.77.41.51.27.91.64,1.2,1.11.29.47.43,1.02.43,1.63s-.14,1.16-.43,1.63c-.29.47-.69.85-1.2,1.12-.51.27-1.1.41-1.77.41h-2.06ZM16.14,16.53h.61c.28,0,.53-.04.77-.13s.44-.21.61-.37.31-.35.41-.57.14-.46.14-.72-.05-.5-.14-.71-.23-.41-.41-.57-.38-.28-.61-.37-.49-.13-.77-.13h-.61v3.56Z" fill="#231f20"/>
      <path d="M20.81,17.9v-6.3h2.47c.46,0,.86.09,1.21.27s.63.42.83.74c.2.32.3.68.3,1.08s-.11.78-.32,1.1-.5.57-.85.73l1.42,2.38h-1.66l-1.21-2.12h-.77v2.12h-1.45ZM22.26,14.45h.98c.17,0,.32-.03.45-.1.13-.07.24-.16.31-.27.08-.12.11-.25.11-.39,0-.22-.08-.41-.25-.55-.17-.14-.38-.22-.65-.22h-.96v1.53Z" fill="#231f20"/>
      <path d="M26.48,17.9v-6.3h1.45v6.3h-1.45Z" fill="#231f20"/>
      <path d="M28.92,17.9v-6.3h4.18v1.33h-2.73v1.21h2.21v1.32h-2.21v2.43h-1.45Z" fill="#231f20"/>
      <path d="M35.1,17.9v-4.97h-1.84v-1.33h5.11v1.33h-1.84v4.97h-1.44Z" fill="#231f20"/>
    </g>
    <path d="M5.02,350.4h133.96c1.45,0,2.62-1.17,2.62-2.62v-85.96c0-1.45-1.17-2.62-2.62-2.62h-28.13c-1.45,0-2.62,1.17-2.62,2.62v42.76c0,1.45-1.17,2.62-2.62,2.62H36c-1.45,0-2.62-1.17-2.62-2.62v-42.76c0-1.45-1.17-2.62-2.62-2.62H5.02c-1.45,0-2.62,1.17-2.62,2.62v85.96c0,1.45,1.17,2.62,2.62,2.62Z" fill="#231f20"/>
  </g>
  <g id="Templates">
    <path id="path23" d="M33.7,31.17v2.37l5.9-4.75v2.37" fill="none" stroke="#b2b2b2" stroke-miterlimit="10" stroke-width=".5"/>
    <path id="path25" d="M51.7,53.01v-2.37h2.95v4.75h2.95v-2.37" fill="none" stroke="#b2b2b2" stroke-miterlimit="10" stroke-width=".5"/>
    <path id="path26" d="M19.95,70.03v-.87c0-.83.66-1.51,1.47-1.51h0c.81,0,1.47.67,1.47,1.51h0v1.73c0,.83.66,1.51,1.47,1.51h0c.81,0,1.47-.67,1.47-1.51h0v-.87" fill="none" stroke="#b2b2b2" stroke-miterlimit="10" stroke-width=".5"/>
    <path id="path27" d="M47.31,72.88l.99-1.83c.17-.32.54-.45.87-.32l.51.2c.32.12.68-.03.81-.36l.32-.78c.09-.23.35-.33.57-.24.05.02.09.05.12.08l.5.46c.16.15.42.14.56-.03.04-.04.07-.09.08-.15l.56-1.78" fill="none" stroke="#b2b2b2" stroke-miterlimit="10" stroke-width=".5"/>
    <path id="path72" d="M91.2,188.54v2.13" fill="none" stroke="#b2b2b2" stroke-miterlimit="10" stroke-width=".5"/>
    <path id="path76" d="M114.38,188.18v2.83" fill="none" stroke="#b2b2b2" stroke-miterlimit="10" stroke-width=".5"/>
    <path id="path77" d="M125.88,188.18v2.83" fill="none" stroke="#b2b2b2" stroke-miterlimit="10" stroke-width=".5"/>
    <path id="path79" d="M82.8,101.03h3.6v28.35h-3.6" fill="none" stroke="#b2b2b2" stroke-miterlimit="10" stroke-width=".5"/>
    <path id="path80" d="M61.39,101.13h-3.6" fill="none" stroke="#b2b2b2" stroke-miterlimit="10" stroke-width=".5"/>
    <path id="path81" d="M61.39,129.47h-3.6" fill="none" stroke="#b2b2b2" stroke-miterlimit="10" stroke-width=".5"/>
    <path id="path82" d="M59.59,108.21h-1.8" fill="none" stroke="#b2b2b2" stroke-miterlimit="10" stroke-width=".5"/>
    <path id="path83" d="M59.59,122.39h-1.8" fill="none" stroke="#b2b2b2" stroke-miterlimit="10" stroke-width=".5"/>
    <path id="path84" d="M59.4,115.3h-1.8" fill="none" stroke="#b2b2b2" stroke-miterlimit="10" stroke-width=".5"/>
    <path id="path85" d="M52.78,115.3h-4.78" fill="none" stroke="#b2b2b2" stroke-miterlimit="10" stroke-width=".5"/>
    <path id="path86" d="M97.66,115.3h-6.46" fill="none" stroke="#b2b2b2" stroke-miterlimit="10" stroke-width=".58"/>
    <path id="path91" d="M45,190.93v-2.83h1.8v2.83h1.8v-2.83h1.8v2.83h1.8v-2.83h1.8v2.83" fill="none" stroke="#b2b2b2" stroke-miterlimit="10" stroke-width=".5"/>
    <path id="path92" d="M18,191.1v-2.83h4.5v2.83h4.5v-2.83" fill="none" stroke="#b2b2b2" stroke-miterlimit="10" stroke-width=".5"/>
    <path id="path5" d="M15.53,52.8l1.8-2.37,2.64,4.25,1.46-1.88" fill="none" stroke="#b2b2b2" stroke-miterlimit="10" stroke-width=".5"/>
    <path d="M60,110.21c3,0,3,9.98,5.99,9.98s3-9.98,6-9.98,3,9.98,6,9.98,3-9.98,6-9.98" fill="none" stroke="#b2b2b2" stroke-miterlimit="10" stroke-width=".5"/>
  </g>
  <g id="Layer_10" data-name="Layer 10">
    <g isolation="isolate">
      <g>
        <path d="M28.09,40.88c-.23,0-.43-.03-.62-.09-.18-.06-.34-.14-.48-.25-.14-.1-.25-.22-.34-.35-.09-.13-.15-.27-.19-.41l.58-.22c.06.19.18.36.35.5.17.14.38.21.63.22.3,0,.54-.07.71-.21s.26-.32.26-.55c0-.21-.08-.38-.22-.51-.15-.13-.35-.23-.6-.3l-.49-.15c-.2-.06-.37-.15-.53-.26-.16-.11-.29-.25-.38-.43-.09-.17-.14-.38-.14-.62,0-.45.13-.8.38-1.05s.62-.38,1.1-.38c.28,0,.52.05.72.15.2.1.37.23.5.4.13.16.23.34.28.54l-.58.22c-.07-.21-.19-.38-.35-.51s-.37-.19-.62-.19-.46.07-.61.21-.22.33-.22.57c0,.21.06.36.17.47.12.11.27.19.47.25l.49.14c.4.11.71.3.92.56.22.26.33.54.33.85,0,.27-.06.51-.17.72-.12.21-.29.38-.51.5-.22.12-.5.19-.83.19Z" fill="#231f20"/>
        <path d="M30.44,40.8v-4.9h.6v2.06h2.29v-2.06h.6v4.9h-.6v-2.21h-2.29v2.21h-.6Z" fill="#231f20"/>
        <path d="M34.53,40.8l1.72-4.9h.64l1.72,4.9h-.64l-.46-1.31h-1.88l-.46,1.31h-.64ZM35.83,38.88h1.47l-.73-2.11-.74,2.11Z" fill="#231f20"/>
        <path d="M39.2,40.8v-4.9h1.44c.28,0,.53.07.75.2.22.13.39.32.51.56.12.24.19.51.19.82s-.06.57-.17.81c-.11.24-.27.42-.47.56-.2.14-.43.2-.69.2h-.96v1.75h-.6ZM39.8,38.41h.95c.21,0,.39-.09.53-.26.14-.18.21-.4.21-.68s-.08-.51-.24-.68c-.16-.18-.37-.26-.61-.26h-.83v1.88Z" fill="#231f20"/>
        <path d="M42.77,40.8v-4.9h2.56v.63h-1.97v1.46h1.77v.62h-1.77v1.57h1.98v.63h-2.58Z" fill="#231f20"/>
      </g>
    </g>
    <g isolation="isolate">
      <g>
        <path d="M100.16,41.01c-.23,0-.43-.03-.62-.09-.19-.06-.35-.14-.48-.25s-.25-.22-.34-.35c-.09-.13-.15-.27-.19-.41l.58-.22c.06.19.18.36.35.5.17.14.38.21.63.22.3,0,.54-.07.71-.21s.26-.32.26-.55c0-.21-.08-.38-.23-.51-.15-.13-.35-.23-.6-.3l-.49-.15c-.19-.06-.37-.15-.53-.26-.16-.11-.29-.25-.38-.43-.09-.17-.14-.38-.14-.62,0-.45.13-.8.38-1.05.25-.25.62-.38,1.1-.38.28,0,.51.05.72.15.2.1.37.23.5.4.13.16.23.34.28.54l-.58.22c-.07-.21-.19-.38-.35-.51-.17-.13-.37-.19-.62-.19-.26,0-.46.07-.61.21-.15.14-.22.33-.22.57,0,.21.06.36.17.47.12.11.27.19.47.25l.49.14c.4.11.71.3.92.56.22.26.33.54.33.85,0,.27-.06.51-.17.72-.12.21-.29.38-.51.5-.23.12-.5.19-.83.19Z" fill="#231f20"/>
        <path d="M103.38,40.93v-4.27h-1.33v-.63h3.27v.63h-1.33v4.27h-.6Z" fill="#231f20"/>
        <path d="M105.03,40.93l1.72-4.9h.64l1.72,4.9h-.64l-.46-1.31h-1.88l-.46,1.31h-.64ZM106.34,39.01h1.47l-.73-2.11-.74,2.11Z" fill="#231f20"/>
        <path d="M109.7,40.93v-4.9h1.37c.29,0,.54.05.75.15.21.1.37.25.49.46.12.2.17.45.17.74,0,.22-.04.42-.14.6-.09.18-.22.32-.38.43.21.12.37.27.48.47.11.2.17.43.17.7,0,.28-.06.53-.17.73-.11.2-.27.36-.47.46-.2.1-.45.16-.73.16h-1.55ZM110.3,38.14h.88c.22,0,.39-.07.52-.2.13-.14.19-.32.19-.56s-.07-.44-.22-.57c-.15-.13-.35-.2-.61-.2h-.75v1.53ZM110.3,40.31h.92c.25,0,.45-.07.59-.21s.21-.32.21-.56c0-.26-.08-.46-.24-.61-.16-.14-.38-.21-.67-.21h-.8v1.58Z" fill="#231f20"/>
        <path d="M113.42,40.93v-4.9h.6v4.9h-.6Z" fill="#231f20"/>
        <path d="M115.11,40.93v-4.9h.6v4.27h1.98v.63h-2.58Z" fill="#231f20"/>
      </g>
    </g>
    <g isolation="isolate">
      <g>
        <path d="M26.57,98.48c-.41,0-.77-.11-1.08-.33-.32-.22-.56-.52-.74-.9-.18-.38-.27-.82-.27-1.31s.09-.93.27-1.31c.18-.38.42-.68.74-.9.31-.22.67-.33,1.08-.33.26,0,.52.05.75.16.24.11.45.26.64.46.19.19.33.42.44.68l-.54.28c-.08-.19-.18-.36-.32-.5-.13-.14-.29-.25-.45-.33-.17-.08-.34-.12-.53-.12-.28,0-.54.08-.76.25-.22.16-.4.39-.52.67-.13.28-.19.61-.19.99s.06.71.19.99c.13.29.3.51.53.68.23.16.48.24.77.24.19,0,.36-.04.53-.13s.32-.21.45-.36c.13-.15.24-.33.32-.52l.54.27c-.1.27-.25.5-.43.71-.19.21-.4.37-.64.48-.24.11-.5.17-.76.17Z" fill="#231f20"/>
        <path d="M29.16,98.4v-4.9h2.56v.63h-1.97v1.46h1.77v.62h-1.77v1.57h1.98v.63h-2.58Z" fill="#231f20"/>
        <path d="M32.75,98.4v-4.9h.62l2.41,3.75v-3.75h.6v4.9h-.6l-2.43-3.79v3.79h-.6Z" fill="#231f20"/>
        <path d="M38.33,98.4v-4.27h-1.33v-.63h3.27v.63h-1.33v4.27h-.6Z" fill="#231f20"/>
        <path d="M40.88,98.4v-4.9h2.56v.63h-1.97v1.46h1.77v.62h-1.77v1.57h1.98v.63h-2.58Z" fill="#231f20"/>
        <path d="M44.48,98.4v-4.9h1.44c.28,0,.54.06.75.19s.39.31.51.53c.12.23.19.49.19.79,0,.32-.08.6-.24.85-.16.24-.37.42-.62.53l1.03,2.01h-.68l-.95-1.88h-.83v1.88h-.6ZM45.08,95.89h.89c.15,0,.28-.04.39-.12s.21-.18.28-.31.11-.28.11-.45c0-.26-.08-.47-.24-.64-.16-.16-.36-.25-.62-.25h-.82v1.76Z" fill="#231f20"/>
      </g>
    </g>
    <g>
      <path d="M91.87,74.46c-.24,0-.44-.08-.63-.23-.18-.16-.33-.37-.43-.64-.1-.27-.15-.58-.15-.94s.05-.67.15-.94c.1-.27.24-.48.43-.64.18-.15.39-.23.63-.23s.45.08.63.23c.18.16.32.37.43.64.1.27.16.58.16.94s-.05.67-.16.94c-.1.27-.25.48-.43.64-.18.15-.39.23-.63.23ZM91.87,74.01c.15,0,.29-.06.41-.17.12-.12.21-.28.28-.48s.1-.44.1-.71-.03-.5-.1-.71-.16-.37-.28-.48c-.12-.12-.26-.18-.41-.18s-.29.06-.41.18c-.12.12-.21.28-.28.48s-.1.44-.1.71.03.5.1.71.16.36.28.48c.12.12.25.17.41.17Z" fill="#b2b2b2"/>
      <path d="M94.16,72.5c-.13,0-.25-.04-.36-.11-.1-.07-.18-.17-.24-.3-.06-.13-.09-.27-.09-.43s.03-.31.09-.44c.06-.12.14-.22.24-.29.1-.07.22-.11.36-.11s.25.04.35.11c.1.07.18.17.24.29s.09.27.09.44-.03.3-.09.43c-.06.13-.14.23-.24.3s-.22.11-.36.11ZM93.69,74.4l2.16-3.5h.45l-2.17,3.5h-.44ZM94.16,72.15c.1,0,.19-.05.26-.14s.1-.21.1-.35-.03-.26-.1-.35-.15-.14-.26-.14-.19.05-.25.14c-.07.09-.1.21-.1.35s.03.26.1.35c.07.09.15.14.25.14ZM95.84,74.48c-.13,0-.25-.04-.36-.11-.1-.07-.19-.17-.24-.3-.06-.13-.09-.27-.09-.43s.03-.31.09-.44c.06-.12.14-.22.24-.3.1-.07.22-.11.36-.11s.25.04.35.11c.1.07.18.17.24.3.06.12.09.27.09.44s-.03.3-.09.43c-.06.13-.14.23-.24.3-.1.07-.22.11-.35.11ZM95.84,74.12c.1,0,.19-.05.25-.14.06-.09.1-.21.1-.35s-.03-.26-.1-.35c-.07-.09-.15-.14-.25-.14s-.19.05-.26.14-.1.21-.1.35.03.26.1.35c.07.09.15.14.26.14Z" fill="#b2b2b2"/>
    </g>
    <g>
      <path d="M117.89,74.4v-2.87c-.11.1-.22.18-.33.24s-.23.09-.34.08v-.45c.06,0,.14-.02.22-.07.09-.05.17-.11.26-.19.09-.08.16-.16.23-.25h.38v3.5h-.42Z" fill="#b2b2b2"/>
      <path d="M120.18,74.46c-.24,0-.44-.08-.63-.23-.18-.16-.33-.37-.43-.64s-.15-.58-.15-.94.05-.67.15-.94.25-.48.43-.64c.18-.15.39-.23.63-.23s.45.08.63.23c.18.16.32.37.43.64.1.27.16.58.16.94s-.05.67-.16.94c-.11.27-.25.48-.43.64-.18.15-.39.23-.63.23ZM120.18,74.01c.15,0,.29-.06.41-.17.12-.12.21-.28.28-.48.07-.2.1-.44.1-.71s-.03-.5-.1-.71c-.07-.21-.16-.37-.28-.48-.12-.12-.26-.18-.41-.18s-.29.06-.41.18-.21.28-.28.48c-.07.21-.1.44-.1.71s.03.5.1.71c.07.2.16.36.28.48s.26.17.41.17Z" fill="#b2b2b2"/>
      <path d="M122.98,74.46c-.23,0-.44-.08-.62-.23-.18-.16-.33-.37-.43-.64-.1-.27-.15-.58-.15-.94s.05-.67.15-.94c.1-.27.25-.48.43-.64.18-.15.39-.23.63-.23s.45.08.63.23c.18.16.32.37.43.64s.16.58.16.94-.05.67-.16.94-.25.48-.43.64c-.18.15-.39.23-.63.23ZM122.98,74.01c.15,0,.29-.06.41-.17.12-.12.21-.28.28-.48.07-.2.1-.44.1-.71s-.03-.5-.1-.71c-.07-.21-.16-.37-.28-.48-.12-.12-.26-.18-.41-.18s-.29.06-.41.18-.21.28-.28.48c-.07.21-.1.44-.1.71s.03.5.1.71c.07.2.16.36.28.48s.25.17.41.17Z" fill="#b2b2b2"/>
      <path d="M125.26,72.5c-.13,0-.25-.04-.35-.11s-.18-.17-.24-.3c-.06-.13-.09-.27-.09-.43s.03-.31.09-.44.14-.22.24-.29c.1-.07.22-.11.36-.11s.25.04.35.11c.1.07.18.17.24.29.06.12.09.27.09.44s-.03.3-.09.43c-.06.13-.14.23-.24.3-.1.07-.22.11-.36.11ZM124.79,74.4l2.16-3.5h.45l-2.17,3.5h-.44ZM125.26,72.15c.1,0,.19-.05.26-.14s.1-.21.1-.35-.03-.26-.1-.35-.15-.14-.26-.14-.19.05-.25.14c-.07.09-.1.21-.1.35s.03.26.1.35c.07.09.15.14.25.14ZM126.94,74.48c-.13,0-.25-.04-.36-.11-.11-.07-.19-.17-.24-.3-.06-.13-.09-.27-.09-.43s.03-.31.09-.44.14-.22.24-.3c.1-.07.22-.11.36-.11s.25.04.36.11c.1.07.18.17.24.3s.09.27.09.44-.03.3-.09.43c-.06.13-.14.23-.24.3-.1.07-.22.11-.36.11ZM126.94,74.12c.11,0,.19-.05.25-.14.07-.09.1-.21.1-.35s-.03-.26-.1-.35-.15-.14-.25-.14-.19.05-.26.14-.1.21-.1.35.03.26.1.35c.07.09.15.14.26.14Z" fill="#b2b2b2"/>
    </g>
    <g>
      <path d="M18.17,130.72v-.42h1.3v.42h-1.3Z" fill="#b2b2b2"/>
      <path d="M20.99,132.06c-.13,0-.26-.02-.39-.07-.13-.05-.25-.11-.37-.21-.11-.09-.2-.21-.27-.35l.36-.19c.09.13.19.23.3.29.11.06.22.09.34.09.19,0,.34-.06.46-.19.12-.13.17-.3.17-.52s-.06-.38-.17-.52-.26-.2-.44-.2c-.11,0-.21.03-.3.08-.1.05-.17.12-.22.19l-.39-.1.16-1.87h1.65v.45h-1.27l-.09,1.03c.08-.05.17-.1.27-.13.1-.03.2-.05.3-.05.18,0,.34.05.49.14.14.09.26.22.34.39s.12.35.12.57c0,.23-.05.43-.14.6s-.21.31-.37.41-.34.15-.54.15Z" fill="#b2b2b2"/>
      <path d="M23.52,132l-1.25-3.5h.46l1.03,2.93,1.03-2.93h.46l-1.25,3.5h-.47Z" fill="#b2b2b2"/>
    </g>
    <g>
      <path d="M46.63,130.71v-.4h1.98v.4h-1.98ZM47.45,131.65v-2.28h.35v2.28h-.35Z" fill="#b2b2b2"/>
      <path d="M50.25,132.06c-.13,0-.26-.02-.39-.07-.13-.05-.25-.11-.37-.21-.11-.09-.2-.21-.27-.35l.36-.19c.09.13.19.23.3.29.11.06.22.09.34.09.19,0,.34-.06.46-.19.12-.13.17-.3.17-.52s-.06-.38-.17-.52-.26-.2-.44-.2c-.11,0-.21.03-.3.08-.1.05-.17.12-.22.19l-.39-.1.16-1.87h1.65v.45h-1.27l-.09,1.03c.08-.05.17-.1.27-.13.1-.03.2-.05.3-.05.18,0,.34.05.49.14.14.09.26.22.34.39s.12.35.12.57c0,.23-.05.43-.14.6s-.21.31-.37.41-.34.15-.54.15Z" fill="#b2b2b2"/>
      <path d="M52.78,132l-1.25-3.5h.46l1.03,2.93,1.03-2.93h.46l-1.25,3.5h-.47Z" fill="#b2b2b2"/>
    </g>
    <g>
      <path d="M92.07,132.06c-.23,0-.44-.08-.63-.23-.18-.16-.33-.37-.43-.64s-.15-.58-.15-.94.05-.67.15-.94.25-.48.43-.64c.18-.15.39-.23.63-.23s.45.08.63.23c.18.16.32.37.43.64.1.27.16.58.16.94s-.05.67-.16.94c-.1.27-.25.48-.43.64-.18.15-.39.23-.63.23ZM92.07,131.61c.15,0,.29-.06.41-.17s.21-.28.28-.48.1-.44.1-.71-.03-.5-.1-.71-.16-.37-.28-.48-.26-.18-.41-.18-.29.06-.41.18c-.12.12-.21.28-.28.48s-.1.44-.1.71.03.5.1.71.16.36.28.48c.12.12.25.17.41.17Z" fill="#b2b2b2"/>
      <path d="M94.76,132l-1.25-3.5h.46l1.03,2.93,1.03-2.93h.46l-1.25,3.5h-.47Z" fill="#b2b2b2"/>
    </g>
    <g>
      <path d="M120.89,132.06c-.13,0-.26-.02-.39-.07-.13-.05-.25-.11-.37-.21-.11-.09-.2-.21-.27-.35l.36-.19c.09.13.19.23.3.29.11.06.22.09.34.09.19,0,.34-.06.46-.19.12-.13.17-.3.17-.52s-.06-.38-.17-.52-.26-.2-.44-.2c-.11,0-.21.03-.3.08-.1.05-.17.12-.22.19l-.39-.1.16-1.87h1.65v.45h-1.27l-.09,1.03c.08-.05.17-.1.27-.13.1-.03.2-.05.3-.05.18,0,.34.05.49.14.14.09.26.22.34.39s.12.35.12.57c0,.23-.05.43-.14.6s-.21.31-.37.41-.34.15-.54.15Z" fill="#b2b2b2"/>
      <path d="M123.42,132l-1.25-3.5h.46l1.03,2.93,1.03-2.93h.46l-1.25,3.5h-.47Z" fill="#b2b2b2"/>
    </g>
    <g isolation="isolate">
      <g>
        <path d="M99.29,98.4v-2.05l-1.52-2.85h.69l1.13,2.14,1.13-2.14h.69l-1.52,2.84v2.06h-.6Z" fill="#231f20"/>
        <path d="M104.86,98.48c-.23,0-.43-.03-.62-.09s-.34-.14-.48-.25c-.13-.1-.25-.22-.34-.35-.09-.13-.15-.27-.19-.41l.58-.22c.06.19.18.36.35.5.17.14.38.21.63.22.3,0,.54-.07.71-.21.17-.14.26-.32.26-.55,0-.21-.07-.38-.22-.51-.15-.13-.35-.23-.6-.3l-.49-.15c-.2-.06-.37-.15-.53-.26-.16-.11-.29-.25-.38-.43-.09-.17-.14-.38-.14-.62,0-.45.13-.8.38-1.05.25-.25.62-.38,1.1-.38.28,0,.52.05.72.15.2.1.37.23.5.4.13.16.23.34.28.54l-.58.22c-.07-.21-.19-.38-.35-.51s-.37-.19-.62-.19-.46.07-.61.21-.22.33-.22.57c0,.21.06.36.17.47.12.11.27.19.47.25l.49.14c.4.11.71.3.92.56.22.26.33.54.33.85,0,.27-.06.51-.17.72s-.29.38-.51.5-.5.19-.83.19Z" fill="#231f20"/>
        <path d="M107.21,98.4v-4.9h1.44c.29,0,.54.07.75.2.22.13.39.32.51.56.12.24.19.51.19.82s-.06.57-.17.81c-.11.24-.27.42-.47.56-.2.14-.43.2-.69.2h-.96v1.75h-.6ZM107.81,96.01h.95c.22,0,.39-.09.53-.26.14-.18.21-.4.21-.68s-.08-.51-.24-.68c-.16-.18-.36-.26-.61-.26h-.83v1.88Z" fill="#231f20"/>
        <path d="M110.78,98.4v-4.9h1.44c.28,0,.54.06.75.19s.39.31.51.53c.12.23.19.49.19.79,0,.32-.08.6-.24.85-.16.24-.37.42-.62.53l1.03,2.01h-.68l-.95-1.88h-.83v1.88h-.6ZM111.38,95.89h.89c.15,0,.28-.04.39-.12s.21-.18.28-.31.11-.28.11-.45c0-.26-.08-.47-.24-.64-.16-.16-.36-.25-.62-.25h-.82v1.76Z" fill="#231f20"/>
        <path d="M114.62,98.4v-4.9h1.32c.41,0,.77.1,1.08.31s.56.5.74.86.27.79.27,1.27-.09.9-.27,1.27-.43.66-.74.87-.67.31-1.08.31h-1.32ZM115.22,97.76h.72c.21,0,.4-.05.58-.14.18-.09.34-.22.47-.39s.24-.36.32-.58c.07-.22.11-.46.11-.71s-.04-.49-.11-.71c-.08-.22-.18-.41-.32-.58s-.29-.29-.47-.39c-.18-.09-.37-.14-.58-.14h-.72v3.61Z" fill="#231f20"/>
      </g>
    </g>
    <g isolation="isolate">
      <g>
        <path d="M28.78,156v-4.9h2.58v.63h-1.99v1.54h1.73v.63h-1.73v2.1h-.6Z" fill="#231f20"/>
        <path d="M32.1,156v-4.9h1.44c.28,0,.53.06.75.19.22.13.39.31.51.53.12.23.19.49.19.79,0,.32-.08.6-.24.85s-.37.42-.62.53l1.03,2.01h-.68l-.95-1.88h-.83v1.88h-.6ZM32.7,153.49h.9c.15,0,.28-.04.39-.12.12-.08.21-.18.28-.31.07-.13.11-.28.11-.45,0-.26-.08-.47-.24-.64-.16-.16-.36-.25-.62-.25h-.82v1.76Z" fill="#231f20"/>
        <path d="M35.95,156v-4.9h2.56v.63h-1.97v1.46h1.77v.62h-1.77v1.57h1.98v.63h-2.58Z" fill="#231f20"/>
        <path d="M43.09,156.28l-.52-.6c-.16.13-.34.23-.54.3s-.42.1-.64.1c-.41,0-.78-.11-1.1-.32-.32-.21-.57-.51-.75-.9-.18-.38-.27-.82-.27-1.32,0-.37.05-.71.16-1.02.1-.31.25-.57.44-.8s.41-.4.67-.52.54-.19.85-.19c.42,0,.79.11,1.1.33.32.22.56.52.74.9.18.38.27.82.27,1.31,0,.34-.04.66-.13.95s-.21.55-.37.76l.49.57-.38.44ZM41.39,155.45c.15,0,.28-.02.41-.07.12-.05.24-.12.35-.2l-.59-.69.39-.43.61.71c.1-.16.18-.35.24-.55.05-.2.08-.43.08-.67,0-.37-.06-.7-.19-.99s-.3-.51-.53-.67c-.22-.16-.49-.25-.78-.25s-.55.08-.77.25c-.23.16-.41.39-.53.67s-.19.61-.19.99.06.7.19.99.31.51.54.67c.23.16.49.25.78.25Z" fill="#231f20"/>
      </g>
    </g>
    <g isolation="isolate">
      <g>
        <path d="M97.72,156l1.53-2.49-1.52-2.41h.72l1.14,1.85,1.13-1.85h.72l-1.51,2.41,1.52,2.49h-.73l-1.13-1.93-1.14,1.93h-.73Z" fill="#231f20"/>
        <path d="M104.91,156.08c-.23,0-.43-.03-.62-.09-.18-.06-.34-.14-.48-.25-.14-.1-.25-.22-.34-.35-.09-.13-.15-.27-.19-.41l.58-.22c.06.19.18.36.35.5.17.14.38.21.63.22.3,0,.54-.07.71-.21s.26-.32.26-.55c0-.21-.08-.38-.22-.51-.15-.13-.35-.23-.6-.3l-.49-.15c-.2-.06-.37-.15-.53-.26-.16-.11-.29-.25-.38-.43-.09-.17-.14-.38-.14-.62,0-.45.13-.8.38-1.05s.62-.38,1.1-.38c.28,0,.52.05.72.15.2.1.37.23.5.4.13.16.23.34.28.54l-.58.22c-.07-.21-.19-.38-.35-.51s-.37-.19-.62-.19-.46.07-.61.21-.22.33-.22.57c0,.21.06.36.17.47.12.11.27.19.47.25l.49.14c.4.11.71.3.92.56.22.26.33.54.33.85,0,.27-.06.51-.17.72-.12.21-.29.38-.51.5-.22.12-.5.19-.83.19Z" fill="#231f20"/>
        <path d="M107.26,156v-4.9h1.44c.28,0,.54.07.75.2.22.13.39.32.51.56.12.24.19.51.19.82s-.06.57-.17.81c-.11.24-.27.42-.47.56-.2.14-.43.2-.69.2h-.96v1.75h-.6ZM107.86,153.61h.95c.21,0,.39-.09.53-.26.14-.18.21-.4.21-.68s-.08-.51-.24-.68c-.16-.18-.36-.26-.61-.26h-.83v1.88Z" fill="#231f20"/>
        <path d="M110.83,156v-4.9h1.44c.28,0,.54.06.75.19s.39.31.51.53c.12.23.19.49.19.79,0,.32-.08.6-.24.85-.16.24-.37.42-.62.53l1.03,2.01h-.68l-.95-1.88h-.83v1.88h-.6ZM111.43,153.49h.89c.15,0,.28-.04.39-.12s.21-.18.28-.31.11-.28.11-.45c0-.26-.08-.47-.24-.64-.16-.16-.36-.25-.62-.25h-.82v1.76Z" fill="#231f20"/>
        <path d="M114.67,156v-4.9h1.32c.41,0,.77.1,1.08.31s.56.5.74.86c.18.37.27.79.27,1.27s-.09.9-.27,1.27c-.18.37-.43.66-.74.87s-.67.31-1.08.31h-1.32ZM115.27,155.36h.72c.21,0,.4-.05.58-.14.18-.09.34-.22.47-.39.14-.17.24-.36.32-.58.08-.22.11-.46.11-.71s-.04-.49-.11-.71c-.08-.22-.18-.41-.32-.58-.13-.17-.29-.29-.47-.39-.18-.09-.37-.14-.58-.14h-.72v3.61Z" fill="#231f20"/>
      </g>
    </g>
    <g isolation="isolate">
      <g>
        <path d="M9.82,226.33c-.23,0-.43-.03-.62-.09-.18-.06-.34-.14-.48-.25-.14-.1-.25-.22-.34-.35-.09-.13-.15-.27-.19-.41l.58-.22c.06.19.18.36.35.5s.38.21.63.22c.3,0,.54-.07.71-.21.17-.14.26-.32.26-.55,0-.21-.08-.38-.23-.51-.15-.13-.35-.23-.6-.3l-.49-.15c-.19-.06-.37-.15-.53-.26-.16-.11-.29-.25-.38-.43-.09-.17-.14-.38-.14-.62,0-.45.13-.8.38-1.05s.62-.38,1.1-.38c.28,0,.51.05.72.15.2.1.37.23.5.4.13.16.23.34.28.54l-.58.22c-.07-.21-.19-.38-.35-.51-.17-.13-.37-.19-.62-.19-.26,0-.46.07-.61.21-.15.14-.22.33-.22.57,0,.21.06.36.17.47.12.11.27.19.46.25l.49.14c.4.11.71.3.92.56s.33.54.33.85c0,.27-.06.5-.17.72-.12.21-.29.38-.51.5-.22.12-.5.19-.83.19Z" fill="#231f20"/>
        <path d="M12.17,226.24v-4.9h.6v2.07h2.3v-2.07h.6v4.9h-.6v-2.21h-2.3v2.21h-.6Z" fill="#231f20"/>
        <path d="M16.26,226.24l1.72-4.9h.64l1.72,4.9h-.64l-.46-1.31h-1.88l-.46,1.31h-.64ZM17.56,224.32h1.47l-.73-2.11-.74,2.11Z" fill="#231f20"/>
        <path d="M20.93,226.24v-4.9h1.44c.28,0,.53.07.75.2.22.13.39.32.51.56.12.24.19.51.19.82s-.06.57-.17.81c-.11.24-.27.42-.47.56-.2.14-.43.2-.69.2h-.96v1.75h-.6ZM21.53,223.86h.95c.22,0,.39-.09.53-.26.14-.18.21-.4.21-.68s-.08-.51-.24-.68c-.16-.17-.37-.26-.61-.26h-.83v1.88Z" fill="#231f20"/>
        <path d="M24.5,226.24v-4.9h2.56v.63h-1.97v1.46h1.77v.62h-1.77v1.57h1.98v.63h-2.58Z" fill="#231f20"/>
      </g>
    </g>
    <g isolation="isolate">
      <g>
        <path d="M48.33,226.33c-.23,0-.43-.03-.62-.09-.18-.06-.34-.14-.48-.25-.14-.1-.25-.22-.34-.35s-.15-.27-.19-.41l.58-.22c.06.19.18.36.35.5.17.14.38.21.63.22.3,0,.54-.07.71-.21s.26-.32.26-.55c0-.21-.08-.38-.22-.51-.15-.13-.35-.23-.6-.3l-.49-.15c-.2-.06-.37-.15-.53-.26-.16-.11-.29-.25-.38-.43-.09-.17-.14-.38-.14-.62,0-.45.13-.8.38-1.05s.62-.38,1.1-.38c.28,0,.52.05.72.15.2.1.37.23.5.4.13.16.23.34.28.54l-.58.22c-.07-.21-.19-.38-.35-.51-.17-.13-.37-.19-.62-.19s-.46.07-.61.21c-.15.14-.22.33-.22.57,0,.21.06.36.17.47.12.11.27.19.47.25l.49.14c.4.11.71.3.92.56.22.26.33.54.33.85,0,.27-.06.5-.17.72-.12.21-.29.38-.51.5-.22.12-.5.19-.83.19Z" fill="#231f20"/>
        <path d="M51.55,226.24v-4.27h-1.33v-.63h3.27v.63h-1.33v4.27h-.6Z" fill="#231f20"/>
        <path d="M53.2,226.24l1.72-4.9h.64l1.72,4.9h-.64l-.46-1.31h-1.88l-.46,1.31h-.64ZM54.5,224.32h1.47l-.73-2.11-.74,2.11Z" fill="#231f20"/>
        <path d="M57.87,226.24v-4.9h1.37c.29,0,.54.05.75.15.21.1.37.25.49.46.12.2.17.45.17.74,0,.22-.05.42-.14.6-.09.18-.22.32-.38.43.21.12.37.27.48.47.11.2.17.43.17.7,0,.29-.05.53-.17.73-.11.2-.27.36-.47.46-.2.11-.45.16-.73.16h-1.55ZM58.46,223.45h.88c.22,0,.39-.07.52-.2.13-.14.19-.32.19-.56s-.07-.44-.22-.57c-.15-.13-.35-.2-.62-.2h-.76v1.53ZM58.46,225.62h.92c.25,0,.45-.07.59-.21s.21-.32.21-.56c0-.26-.08-.46-.24-.61-.16-.14-.38-.21-.67-.21h-.8v1.58Z" fill="#231f20"/>
      </g>
    </g>
    <g isolation="isolate">
      <g>
        <path d="M82.26,226.33v-4.9h2.58v.63h-1.98v1.54h1.73v.63h-1.73v2.1h-.6Z" fill="#231f20"/>
        <path d="M85.59,226.33v-4.9h1.44c.29,0,.54.06.75.19.22.13.39.31.51.53.12.23.19.49.19.79,0,.32-.08.6-.24.85-.16.24-.37.42-.62.53l1.03,2.01h-.68l-.95-1.88h-.83v1.88h-.6ZM86.18,223.82h.89c.15,0,.28-.04.39-.12.12-.08.21-.18.28-.31.07-.13.11-.28.11-.45,0-.26-.08-.47-.24-.64s-.36-.25-.62-.25h-.82v1.76Z" fill="#231f20"/>
        <path d="M89.43,226.33v-4.9h2.56v.63h-1.97v1.46h1.77v.62h-1.77v1.57h1.98v.63h-2.58Z" fill="#231f20"/>
        <path d="M96.58,226.61l-.52-.6c-.16.13-.34.23-.54.3-.2.07-.42.11-.64.11-.41,0-.78-.11-1.1-.32-.32-.21-.57-.51-.75-.9-.18-.38-.27-.82-.27-1.32,0-.37.05-.71.16-1.02.1-.31.25-.57.44-.8.19-.23.41-.4.67-.53.26-.12.54-.19.85-.19.42,0,.79.11,1.1.33.32.22.56.52.74.9.18.38.27.82.27,1.31,0,.34-.04.66-.13.95s-.21.55-.37.76l.49.57-.38.44ZM94.87,225.78c.15,0,.28-.02.41-.07.13-.05.24-.12.35-.2l-.59-.69.39-.43.61.71c.1-.16.18-.35.23-.55.05-.2.08-.43.08-.67,0-.37-.06-.7-.19-.99-.13-.28-.3-.51-.53-.67-.23-.16-.49-.25-.78-.25s-.54.08-.77.25c-.23.16-.4.39-.53.67-.13.29-.19.61-.19.99s.07.7.2.99c.13.28.31.51.54.67.23.16.49.25.78.25Z" fill="#231f20"/>
      </g>
    </g>
    <g isolation="isolate">
      <g>
        <path d="M117.07,226.24l1.53-2.49-1.52-2.41h.72l1.14,1.86,1.13-1.86h.72l-1.51,2.41,1.52,2.49h-.73l-1.13-1.93-1.14,1.93h-.73Z" fill="#231f20"/>
        <path d="M124.26,226.33c-.23,0-.43-.03-.62-.09s-.34-.14-.48-.25c-.13-.1-.25-.22-.34-.35-.09-.13-.15-.27-.19-.41l.58-.22c.06.19.18.36.35.5s.38.21.63.22c.3,0,.54-.07.71-.21.17-.14.26-.32.26-.55,0-.21-.07-.38-.22-.51s-.35-.23-.6-.3l-.49-.15c-.2-.06-.37-.15-.53-.26-.16-.11-.29-.25-.38-.43-.09-.17-.14-.38-.14-.62,0-.45.13-.8.38-1.05.25-.25.62-.38,1.1-.38.28,0,.52.05.72.15.2.1.37.23.5.4.13.16.23.34.28.54l-.58.22c-.07-.21-.19-.38-.35-.51-.17-.13-.37-.19-.62-.19s-.46.07-.61.21c-.15.14-.22.33-.22.57,0,.21.06.36.17.47.12.11.27.19.47.25l.49.14c.4.11.71.3.92.56s.33.54.33.85c0,.27-.06.5-.17.72-.12.21-.29.38-.51.5-.23.12-.5.19-.83.19Z" fill="#231f20"/>
        <path d="M126.61,226.24v-4.9h1.44c.29,0,.54.07.75.2.22.13.39.32.51.56.12.24.19.51.19.82s-.06.57-.17.81c-.11.24-.27.42-.47.56-.2.14-.43.2-.69.2h-.96v1.75h-.6ZM127.2,223.86h.95c.22,0,.39-.09.53-.26.14-.18.21-.4.21-.68s-.08-.51-.24-.68c-.16-.17-.36-.26-.61-.26h-.83v1.88Z" fill="#231f20"/>
        <path d="M130.18,226.24v-4.9h1.44c.29,0,.54.06.75.19.22.13.39.31.51.53.12.23.19.49.19.79,0,.32-.08.6-.24.85-.16.24-.37.42-.62.53l1.03,2.01h-.68l-.95-1.88h-.83v1.88h-.6ZM130.77,223.74h.89c.15,0,.28-.04.39-.12.12-.08.21-.18.28-.31.07-.13.11-.28.11-.45,0-.26-.08-.47-.24-.64s-.36-.25-.62-.25h-.82v1.76Z" fill="#231f20"/>
      </g>
    </g>
    <g>
      <line x1="13.62" y1="241.98" x2="22.13" y2="241.98" fill="none" stroke="#06f" stroke-miterlimit="11.34" stroke-width=".57"/>
      <line x1="17.88" y1="237.73" x2="17.88" y2="246.23" fill="none" stroke="#06f" stroke-miterlimit="11.34" stroke-width=".57"/>
      <circle cx="17.88" cy="241.98" r="3.4" fill="none" stroke="#06f" stroke-miterlimit="11.34" stroke-width=".43"/>
    </g>
    <g>
      <line x1="49.48" y1="241.98" x2="57.98" y2="241.98" fill="none" stroke="#06f" stroke-miterlimit="11.34" stroke-width=".57"/>
      <line x1="53.73" y1="237.73" x2="53.73" y2="246.23" fill="none" stroke="#06f" stroke-miterlimit="11.34" stroke-width=".57"/>
      <circle cx="53.73" cy="241.98" r="3.4" fill="none" stroke="#06f" stroke-miterlimit="11.34" stroke-width=".43"/>
    </g>
    <g>
      <line x1="85.23" y1="241.98" x2="93.74" y2="241.98" fill="none" stroke="#06f" stroke-miterlimit="11.34" stroke-width=".57"/>
      <line x1="89.48" y1="237.73" x2="89.48" y2="246.23" fill="none" stroke="#06f" stroke-miterlimit="11.34" stroke-width=".57"/>
      <circle cx="89.48" cy="241.98" r="3.4" fill="none" stroke="#06f" stroke-miterlimit="11.34" stroke-width=".43"/>
    </g>
    <g>
      <line x1="120.99" y1="241.98" x2="129.49" y2="241.98" fill="none" stroke="#06f" stroke-miterlimit="11.34" stroke-width=".57"/>
      <line x1="125.24" y1="237.73" x2="125.24" y2="246.23" fill="none" stroke="#06f" stroke-miterlimit="11.34" stroke-width=".57"/>
      <circle cx="125.24" cy="241.98" r="3.4" fill="none" stroke="#06f" stroke-miterlimit="11.34" stroke-width=".43"/>
    </g>
    <g isolation="isolate">
      <g>
        <path d="M13.75,273.01v-4.9h.63l1.41,2.4,1.41-2.4h.63v4.9h-.6v-3.79l-1.45,2.46-1.44-2.45v3.79h-.6Z" fill="#fff"/>
        <path d="M18.91,273.01v-4.9h.6v4.9h-.6Z" fill="#fff"/>
        <path d="M20.6,273.01v-4.9h.61l2.41,3.75v-3.75h.6v4.9h-.6l-2.43-3.79v3.79h-.6Z" fill="#fff"/>
      </g>
    </g>
    <g isolation="isolate">
      <g>
        <path d="M47.9,273.1c-.41,0-.77-.11-1.08-.33-.32-.22-.56-.52-.74-.9s-.27-.82-.27-1.31.09-.93.27-1.31.42-.68.74-.9c.31-.22.67-.33,1.08-.33.26,0,.52.05.75.17.24.11.45.26.64.46.19.19.33.42.43.67l-.54.28c-.08-.19-.18-.36-.32-.5-.13-.14-.29-.25-.45-.33-.17-.08-.34-.12-.53-.12-.28,0-.54.08-.76.25-.22.16-.4.39-.52.67-.12.29-.19.61-.19.99s.06.71.19.99c.13.29.3.51.53.68.22.16.48.24.77.24.19,0,.36-.04.53-.13.17-.09.32-.21.45-.36.13-.15.24-.33.32-.52l.54.27c-.1.27-.25.5-.43.71-.19.21-.4.37-.64.48s-.5.17-.76.17Z" fill="#231f20"/>
        <path d="M50.48,273.01v-4.9h.62l2.41,3.75v-3.75h.6v4.9h-.6l-2.43-3.79v3.79h-.6Z" fill="#231f20"/>
        <path d="M56.06,273.01v-4.27h-1.33v-.63h3.27v.63h-1.33v4.27h-.6Z" fill="#231f20"/>
        <path d="M58.61,273.01v-4.9h1.44c.28,0,.53.06.75.19.22.13.39.31.51.53.12.23.19.49.19.79,0,.32-.08.6-.24.85-.16.24-.37.42-.62.53l1.03,2.01h-.68l-.95-1.88h-.83v1.88h-.6ZM59.21,270.51h.9c.15,0,.28-.04.39-.12s.21-.18.28-.31c.07-.13.11-.28.11-.45,0-.26-.08-.47-.24-.64s-.36-.25-.62-.25h-.82v1.76Z" fill="#231f20"/>
      </g>
    </g>
    <g isolation="isolate">
      <g>
        <path d="M82.88,273.01v-2.05l-1.52-2.85h.69l1.13,2.14,1.13-2.14h.7l-1.52,2.84v2.06h-.6Z" fill="#231f20"/>
        <path d="M88.45,273.1c-.23,0-.43-.03-.62-.09-.19-.06-.35-.14-.48-.25-.14-.1-.25-.22-.34-.35s-.15-.27-.19-.41l.58-.22c.06.19.18.36.35.5.17.14.38.21.63.22.3,0,.54-.07.71-.21s.26-.32.26-.55c0-.21-.08-.38-.23-.51s-.35-.23-.6-.3l-.49-.15c-.19-.06-.37-.15-.53-.26-.16-.11-.29-.25-.38-.43-.09-.17-.14-.38-.14-.62,0-.45.13-.8.38-1.05.25-.25.62-.38,1.1-.38.28,0,.51.05.72.15.2.1.37.23.5.4.13.16.23.34.28.54l-.58.22c-.07-.21-.19-.38-.35-.51-.17-.13-.37-.19-.62-.19-.26,0-.46.07-.61.21-.15.14-.22.33-.22.57,0,.21.06.36.17.47.12.11.27.19.47.25l.49.14c.4.11.71.3.92.56.22.26.33.54.33.85,0,.27-.06.5-.17.72-.12.21-.29.38-.51.5-.23.12-.5.19-.83.19Z" fill="#231f20"/>
        <path d="M90.8,273.01v-4.9h1.44c.28,0,.53.07.75.2.22.13.39.32.51.56.12.24.19.51.19.82s-.06.57-.17.81c-.11.24-.27.42-.47.56-.2.14-.43.2-.69.2h-.96v1.75h-.6ZM91.4,270.63h.95c.22,0,.39-.09.53-.26.14-.18.21-.4.21-.68s-.08-.51-.24-.68c-.16-.17-.37-.26-.61-.26h-.83v1.88Z" fill="#231f20"/>
        <path d="M94.37,273.01v-4.9h1.44c.29,0,.54.06.75.19.22.13.39.31.51.53.12.23.19.49.19.79,0,.32-.08.6-.24.85-.16.24-.37.42-.62.53l1.03,2.01h-.68l-.95-1.88h-.83v1.88h-.6ZM94.97,270.51h.89c.15,0,.28-.04.39-.12.12-.08.21-.18.28-.31.07-.13.11-.28.11-.45,0-.26-.08-.47-.24-.64s-.36-.25-.62-.25h-.82v1.76Z" fill="#231f20"/>
      </g>
    </g>
    <g isolation="isolate">
      <g>
        <path d="M119.18,273.01v-4.9h.63l1.41,2.4,1.41-2.4h.63v4.9h-.6v-3.79l-1.45,2.46-1.44-2.45v3.79h-.6Z" fill="#fff"/>
        <path d="M123.86,273.01l1.72-4.9h.64l1.72,4.9h-.64l-.46-1.31h-1.88l-.46,1.31h-.64ZM125.17,271.09h1.47l-.73-2.11-.74,2.11Z" fill="#fff"/>
        <path d="M128.05,273.01l1.53-2.49-1.52-2.41h.72l1.14,1.86,1.13-1.86h.72l-1.51,2.41,1.52,2.49h-.73l-1.13-1.93-1.14,1.93h-.73Z" fill="#fff"/>
      </g>
    </g>
    <g>
      <line x1="13.48" y1="290.42" x2="21.98" y2="290.42" fill="none" stroke="#06f" stroke-miterlimit="11.34" stroke-width=".57"/>
      <line x1="17.73" y1="286.17" x2="17.73" y2="294.67" fill="none" stroke="#06f" stroke-miterlimit="11.34" stroke-width=".57"/>
      <circle cx="17.73" cy="290.42" r="3.4" fill="none" stroke="#06f" stroke-miterlimit="11.34" stroke-width=".43"/>
    </g>
    <g>
      <line x1="49.48" y1="289.23" x2="57.98" y2="289.23" fill="none" stroke="#06f" stroke-miterlimit="11.34" stroke-width=".57"/>
      <line x1="53.73" y1="284.98" x2="53.73" y2="293.48" fill="none" stroke="#06f" stroke-miterlimit="11.34" stroke-width=".57"/>
      <circle cx="53.73" cy="289.23" r="3.4" fill="none" stroke="#06f" stroke-miterlimit="11.34" stroke-width=".43"/>
    </g>
    <g>
      <line x1="85.23" y1="289.23" x2="93.74" y2="289.23" fill="none" stroke="#06f" stroke-miterlimit="11.34" stroke-width=".57"/>
      <line x1="89.48" y1="284.98" x2="89.48" y2="293.48" fill="none" stroke="#06f" stroke-miterlimit="11.34" stroke-width=".57"/>
      <circle cx="89.48" cy="289.23" r="3.4" fill="none" stroke="#06f" stroke-miterlimit="11.34" stroke-width=".43"/>
    </g>
    <g>
      <line x1="120.99" y1="289.23" x2="129.49" y2="289.23" fill="none" stroke="#06f" stroke-miterlimit="11.34" stroke-width=".57"/>
      <line x1="125.24" y1="284.98" x2="125.24" y2="293.48" fill="none" stroke="#06f" stroke-miterlimit="11.34" stroke-width=".57"/>
      <circle cx="125.24" cy="289.23" r="3.4" fill="none" stroke="#06f" stroke-miterlimit="11.34" stroke-width=".43"/>
    </g>
    <g isolation="isolate">
      <path d="M15.84,316.95l1.72-4.9h.64l1.72,4.9h-.64l-.46-1.31h-1.88l-.46,1.31h-.64ZM17.14,315.03h1.47l-.73-2.11-.74,2.11Z" fill="#fff"/>
    </g>
    <g isolation="isolate">
      <path d="M52.41,316.95v-4.9h1.37c.29,0,.54.05.75.15s.37.25.49.46c.12.2.17.45.17.74,0,.22-.04.42-.14.6-.09.17-.22.32-.38.43.21.12.37.27.48.47.11.2.17.43.17.7s-.06.53-.17.73-.27.36-.47.46c-.2.1-.45.16-.73.16h-1.55ZM53,314.16h.88c.22,0,.39-.07.52-.2.13-.13.19-.32.19-.56s-.07-.44-.22-.57c-.15-.13-.35-.2-.61-.2h-.75v1.53ZM53,316.33h.92c.25,0,.45-.07.59-.21s.21-.32.21-.56c0-.26-.08-.46-.24-.61s-.38-.21-.67-.21h-.8v1.58Z" fill="#fff"/>
    </g>
    <g isolation="isolate">
      <path d="M89.64,317.04c-.41,0-.77-.11-1.08-.33-.32-.22-.56-.52-.74-.9-.18-.38-.27-.82-.27-1.31s.09-.93.27-1.31c.18-.38.42-.68.74-.9.31-.22.67-.33,1.08-.33.26,0,.52.06.75.17s.45.26.64.46.33.42.43.67l-.54.28c-.08-.19-.18-.36-.32-.5-.13-.14-.29-.25-.45-.33-.17-.08-.34-.12-.53-.12-.28,0-.54.08-.76.24-.22.16-.4.39-.52.67-.12.28-.19.61-.19.99s.06.71.19.99c.13.29.3.51.53.68s.48.24.77.24c.19,0,.36-.04.53-.13.17-.09.32-.21.45-.36.13-.15.24-.33.32-.52l.54.27c-.1.27-.25.5-.43.71-.19.21-.4.37-.64.48s-.5.17-.76.17Z" fill="#fff"/>
    </g>
    <g isolation="isolate">
      <path d="M123.68,316.95v-4.9h1.31c.41,0,.77.1,1.08.31.31.21.56.5.74.87.18.37.27.79.27,1.27s-.09.9-.27,1.27c-.18.37-.42.66-.74.87-.32.21-.68.32-1.08.32h-1.31ZM124.27,316.31h.72c.21,0,.4-.05.58-.14s.34-.22.47-.38c.14-.17.24-.36.32-.58.08-.22.11-.46.11-.71s-.04-.49-.11-.71c-.07-.22-.18-.41-.32-.58-.14-.17-.29-.29-.47-.38-.18-.09-.37-.14-.58-.14h-.72v3.61Z" fill="#fff"/>
    </g>
    <g>
      <line x1="13.62" y1="332.68" x2="22.13" y2="332.68" fill="none" stroke="#06f" stroke-miterlimit="11.34" stroke-width=".57"/>
      <line x1="17.88" y1="328.43" x2="17.88" y2="336.93" fill="none" stroke="#06f" stroke-miterlimit="11.34" stroke-width=".57"/>
      <circle cx="17.88" cy="332.68" r="3.4" fill="none" stroke="#06f" stroke-miterlimit="11.34" stroke-width=".43"/>
    </g>
    <g>
      <line x1="49.48" y1="332.68" x2="57.98" y2="332.68" fill="none" stroke="#06f" stroke-miterlimit="11.34" stroke-width=".57"/>
      <line x1="53.73" y1="328.43" x2="53.73" y2="336.93" fill="none" stroke="#06f" stroke-miterlimit="11.34" stroke-width=".57"/>
      <circle cx="53.73" cy="332.68" r="3.4" fill="none" stroke="#06f" stroke-miterlimit="11.34" stroke-width=".43"/>
    </g>
    <g>
      <line x1="85.23" y1="332.68" x2="93.74" y2="332.68" fill="none" stroke="#06f" stroke-miterlimit="11.34" stroke-width=".57"/>
      <line x1="89.48" y1="328.43" x2="89.48" y2="336.93" fill="none" stroke="#06f" stroke-miterlimit="11.34" stroke-width=".57"/>
      <circle cx="89.48" cy="332.68" r="3.4" fill="none" stroke="#06f" stroke-miterlimit="11.34" stroke-width=".43"/>
    </g>
    <g>
      <line x1="120.99" y1="332.68" x2="129.49" y2="332.68" fill="none" stroke="#06f" stroke-miterlimit="11.34" stroke-width=".57"/>
      <line x1="125.24" y1="328.43" x2="125.24" y2="336.93" fill="none" stroke="#06f" stroke-miterlimit="11.34" stroke-width=".57"/>
      <circle cx="125.24" cy="332.68" r="3.4" fill="none" stroke="#06f" stroke-miterlimit="11.34" stroke-width=".43"/>
    </g>
    <circle cx="36" cy="57.6" r="13.33" fill="#9a9aa6"/>
    <circle cx="108" cy="57.6" r="13.33" fill="#9a9aa6"/>
    <circle cx="36" cy="115.2" r="13.33" fill="#9a9aa6"/>
    <circle cx="108" cy="115.2" r="13.33" fill="#9a9aa6"/>
    <circle cx="36" cy="172.8" r="13.33" fill="#9a9aa6"/>
    <circle cx="108" cy="172.8" r="13.33" fill="#9a9aa6"/>
    <circle cx="17.88" cy="241.98" r="11.15" fill="#d0595a"/>
    <circle cx="53.73" cy="241.98" r="11.15" fill="#d0595a"/>
    <circle cx="89.48" cy="241.98" r="11.15" fill="#d0595a"/>
    <circle cx="125.24" cy="241.98" r="11.15" fill="#d0595a"/>
    <circle cx="53.73" cy="289.23" r="11.15" fill="#d0595a"/>
    <circle cx="89.48" cy="289.23" r="11.15" fill="#d0595a"/>
    <circle cx="17.73" cy="290.42" r="11.15" fill="#e0803f"/>
    <circle cx="125.24" cy="289.23" r="11.15" fill="#e0803f"/>
    <circle cx="17.88" cy="332.68" r="11.15" fill="#e0803f"/>
    <circle cx="53.73" cy="332.68" r="11.15" fill="#e0803f"/>
    <circle cx="89.48" cy="332.68" r="11.15" fill="#e0803f"/>
    <circle cx="125.24" cy="332.68" r="11.15" fill="#e0803f"/>
  </g>
</svg>