<?xml version="1.0" encoding="UTF-8"?>
<svg xmlns="http://www.w3.org/2000/svg" width="101.58mm" height="128.5mm" viewBox="0 0 287.96 364.25">
  <g id="Background">
    <rect width="287.96" height="364.25" fill="#f0f0f0"/>
  </g>
  <g id="UI">
    <g>
      <path id="path12" d="M232.95,22.8h1.2v-1.2h1.2v2.4h1.2v-3.6h1.2v4.8h1.2v-6h1.2v6h1.2v-3.6h1.2v2.4h1.2v-1.2h1.2" fill="none" stroke="#b2b2b2" stroke-linecap="round" stroke-linejoin="round" stroke-width=".5"/>
      <path id="path13" d="M246.72,25.2l3.6-6c0,1.31,1.01,3.6,2.4,3.6h4.8l1.2,2.4" fill="none" stroke="#b2b2b2" stroke-linecap="square" stroke-linejoin="bevel" stroke-width=".5"/>
      <path id="path17" d="M262.76,19.2h-1.2v7.2h1.2" fill="none" stroke="#b2b2b2" stroke-linecap="square" stroke-linejoin="bevel" stroke-width=".5"/>
      <path id="path18" d="M272.36,19.2h1.2v7.2h-1.2" fill="none" stroke="#b2b2b2" stroke-linecap="square" stroke-linejoin="bevel" stroke-width=".5"/>
      <path id="path21" d="M263.96,19.84l2.4,2.4" fill="none" stroke="#b2b2b2" stroke-linejoin="bevel" stroke-width=".5"/>
      <path id="path22" d="M266.36,19.84l-2.4,2.4" fill="none" stroke="#b2b2b2" stroke-linejoin="bevel" stroke-width=".5"/>
      <path id="path23-5" d="M263.96,23.44l2.4,2.4" fill="none" stroke="#b2b2b2" stroke-linejoin="bevel" stroke-width=".5"/>
      <path id="path24" d="M263.96,25.84l2.4-2.4" fill="none" stroke="#b2b2b2" stroke-linejoin="bevel" stroke-width=".5"/>
      <path id="path25-3" d="M268.76,19.84l2.4,2.4" fill="none" stroke="#b2b2b2" stroke-linejoin="bevel" stroke-width=".5"/>
      <path id="path26-7" d="M271.16,19.84l-2.4,2.4" fill="none" stroke="#b2b2b2" stroke-linejoin="bevel" stroke-width=".5"/>
      <rect id="rect26" x="268.76" y="23.44" width="2.4" height="2.4" fill="none" stroke="#b2b2b2" stroke-linejoin="bevel" stroke-width=".5"/>
    </g>
  </g>
  <g id="Text">
    <g>
      <rect x="14.36" y="16.8" width="55.2" height="12" fill="none"/>
      <path d="M14.97,25.95v-6.3h4.18v1.33h-2.73v1.21h2.21v1.32h-2.21v2.43h-1.45Z" fill="#231f20"/>
      <path d="M22.3,26.07c-.54,0-1.01-.1-1.4-.31-.39-.2-.7-.49-.9-.87-.21-.38-.31-.82-.31-1.34v-3.91h1.45v3.91c0,.24.05.45.14.62.1.17.23.31.41.41.18.1.39.14.63.14s.45-.05.63-.14c.18-.1.32-.23.41-.41.1-.17.14-.38.14-.62v-3.91h1.45v3.91c0,.52-.11.96-.32,1.34s-.52.67-.92.87c-.4.2-.87.31-1.42.31Z" fill="#231f20"/>
      <path d="M28.83,26.06c-.65,0-1.22-.14-1.71-.42-.49-.28-.88-.66-1.16-1.15-.28-.49-.42-1.05-.42-1.69s.14-1.2.42-1.69c.28-.49.67-.87,1.16-1.15.5-.28,1.07-.42,1.71-.42.4,0,.77.06,1.09.18s.61.28.86.48.45.44.61.7l-1.2.72c-.09-.14-.21-.27-.36-.39-.15-.11-.31-.2-.48-.27-.17-.06-.35-.09-.53-.09-.35,0-.67.08-.94.24-.27.16-.49.39-.64.68s-.23.62-.23,1,.08.71.23,1c.15.29.37.52.65.69.28.17.61.25.98.25.26,0,.49-.05.7-.14.21-.1.38-.23.5-.4.13-.17.2-.37.22-.59h-1.42v-1.12h2.82v.86c-.01.59-.14,1.08-.39,1.49s-.59.71-1.01.91c-.42.2-.91.31-1.45.31Z" fill="#231f20"/>
      <path d="M34.79,26.07c-.54,0-1.01-.1-1.4-.31-.39-.2-.69-.49-.9-.87-.21-.38-.31-.82-.31-1.34v-3.91h1.45v3.91c0,.24.05.45.14.62.1.17.23.31.41.41.18.1.39.14.63.14s.45-.05.63-.14c.18-.1.32-.23.41-.41.1-.17.14-.38.14-.62v-3.91h1.45v3.91c0,.52-.11.96-.32,1.34s-.52.67-.92.87c-.4.2-.87.31-1.42.31Z" fill="#231f20"/>
      <path d="M38.35,25.95v-6.3h4.1v1.33h-2.66v1.15h2.22v1.29h-2.22v1.2h2.7v1.33h-4.15Z" fill="#231f20"/>
    </g>
  </g>
  <g id="Layer_10" data-name="Layer 10">
    <rect x="209.3" y="247.38" width="62.17" height="101.65" rx="2.51" ry="2.51" fill="#231f20"/>
    <line x1="91.62" y1="121.98" x2="271.65" y2="121.98" fill="none" stroke="#b2b2b2" stroke-miterlimit="11.34" stroke-width=".5"/>
    <line x1="91.62" y1="159.88" x2="271.65" y2="159.88" fill="none" stroke="#b2b2b2" stroke-miterlimit="11.34" stroke-width=".5"/>
    <line x1="91.62" y1="140.93" x2="271.65" y2="140.93" fill="none" stroke="#b2b2b2" stroke-miterlimit="11.34" stroke-width=".5"/>
    <line x1="91.62" y1="150.31" x2="271.65" y2="150.31" fill="none" stroke="#b2b2b2" stroke-miterlimit="11.34" stroke-width=".5"/>
    <line x1="91.62" y1="131.45" x2="271.65" y2="131.45" fill="none" stroke="#b2b2b2" stroke-miterlimit="11.34" stroke-width=".5"/>
    <line x1="91.62" y1="112.42" x2="271.65" y2="112.42" fill="none" stroke="#b2b2b2" stroke-miterlimit="11.34" stroke-width=".5"/>
    <line x1="91.62" y1="93.27" x2="271.65" y2="93.27" fill="none" stroke="#b2b2b2" stroke-miterlimit="11.34" stroke-width=".5"/>
    <line x1="91.62" y1="83.7" x2="271.65" y2="83.7" fill="none" stroke="#b2b2b2" stroke-miterlimit="11.34" stroke-width=".5"/>
    <line x1="91.62" y1="102.84" x2="271.65" y2="102.84" fill="none" stroke="#b2b2b2" stroke-miterlimit="11.34" stroke-width=".5"/>
    <line x1="96.71" y1="273.49" x2="96.71" y2="341.23" fill="none" stroke="#b2b2b2" stroke-miterlimit="11.34" stroke-width=".5"/>
    <line x1="190.28" y1="273.49" x2="190.28" y2="341.23" fill="none" stroke="#b2b2b2" stroke-miterlimit="11.34" stroke-width=".5"/>
    <line x1="143.5" y1="273.49" x2="143.5" y2="341.23" fill="none" stroke="#b2b2b2" stroke-miterlimit="11.34" stroke-width=".5"/>
    <line x1="120.11" y1="273.49" x2="120.11" y2="341.23" fill="none" stroke="#b2b2b2" stroke-miterlimit="11.34" stroke-width=".5"/>
    <line x1="166.9" y1="273.49" x2="166.9" y2="341.23" fill="none" stroke="#b2b2b2" stroke-miterlimit="11.34" stroke-width=".5"/>
    <line x1="178.59" y1="273.49" x2="178.59" y2="341.23" fill="none" stroke="#b2b2b2" stroke-miterlimit="11.34" stroke-width=".5"/>
    <line x1="155.19" y1="273.49" x2="155.19" y2="341.23" fill="none" stroke="#b2b2b2" stroke-miterlimit="11.34" stroke-width=".5"/>
    <line x1="131.8" y1="273.49" x2="131.8" y2="341.23" fill="none" stroke="#b2b2b2" stroke-miterlimit="11.34" stroke-width=".5"/>
    <line x1="108.41" y1="273.49" x2="108.41" y2="341.23" fill="none" stroke="#b2b2b2" stroke-miterlimit="11.34" stroke-width=".5"/>
    <path d="M10.84,285.83h-.79l-.63-1.85h-2.53l-.63,1.85h-.77l2.2-6.28h.96l2.2,6.28h-.01ZM9.23,283.3l-.79-2.28-.27-.78h-.04l-.27.78-.79,2.28h2.17-.01Z"/>
    <path d="M6.07,310.69v-6.28h2.58c.52,0,.92.15,1.22.44s.45.69.45,1.18c0,.31-.06.56-.17.75s-.25.32-.41.41-.31.15-.45.17v.05c.11,0,.24.04.38.09s.28.14.4.26c.13.11.24.26.32.44s.13.4.13.67c0,.34-.07.65-.21.93s-.33.49-.58.65c-.24.16-.52.24-.83.24h-2.83ZM6.82,305.08v2.05h1.74c.2,0,.37-.03.51-.1s.25-.17.33-.3.12-.29.12-.47v-.31c0-.19-.04-.34-.12-.47s-.19-.23-.33-.3-.31-.1-.51-.1h-1.74ZM6.82,307.78v2.25h1.86c.22,0,.4-.04.56-.11.16-.08.28-.18.36-.33.08-.14.13-.32.13-.53v-.31c0-.21-.04-.39-.13-.53-.08-.14-.2-.25-.36-.33s-.34-.11-.56-.11h-1.86Z"/>
    <path d="M8.42,335.67c-.53,0-.98-.12-1.36-.36s-.67-.6-.87-1.08c-.2-.48-.3-1.07-.3-1.77s.1-1.3.3-1.79c.2-.49.49-.86.87-1.12s.83-.38,1.36-.38.96.12,1.32.36c.36.24.64.58.84,1.02l-.61.37c-.13-.32-.32-.58-.58-.78-.26-.2-.58-.29-.97-.29-.54,0-.96.2-1.26.59-.3.39-.45.91-.45,1.55v.94c0,.64.15,1.15.45,1.52.3.37.72.55,1.26.55.4,0,.74-.1,1.01-.31s.47-.48.59-.82l.6.38c-.2.44-.48.79-.86,1.04-.38.26-.82.39-1.35.39h.01Z"/>
    <line x1="64.82" y1="282.49" x2="95.16" y2="282.49" fill="none" stroke="#b2b2b2" stroke-miterlimit="11.34" stroke-width=".5"/>
    <line x1="64.82" y1="307.36" x2="95.16" y2="307.36" fill="none" stroke="#b2b2b2" stroke-miterlimit="11.34" stroke-width=".5"/>
    <line x1="64.82" y1="332.23" x2="95.16" y2="332.23" fill="none" stroke="#b2b2b2" stroke-miterlimit="11.34" stroke-width=".5"/>
    <g isolation="isolate">
      <g>
        <path d="M20.96,45.6v-4.9h1.44c.28,0,.54.06.75.19.22.13.39.31.51.53.12.23.19.49.19.79,0,.32-.08.6-.24.85s-.37.42-.62.53l1.03,2.01h-.68l-.95-1.88h-.83v1.88h-.6ZM21.56,43.09h.89c.15,0,.28-.04.39-.12.12-.08.21-.18.28-.31.07-.13.11-.28.11-.45,0-.26-.08-.47-.24-.64-.16-.16-.36-.25-.61-.25h-.82v1.76Z" fill="#231f20"/>
        <path d="M26.65,45.68c-.41,0-.78-.11-1.1-.32-.32-.21-.57-.51-.75-.9-.18-.38-.27-.82-.27-1.31s.09-.94.27-1.32c.18-.38.43-.68.75-.9.32-.22.68-.33,1.1-.33s.78.11,1.1.33c.32.22.56.52.74.9.18.38.27.82.27,1.31s-.09.93-.27,1.32c-.18.38-.43.68-.74.9-.31.21-.68.32-1.09.32ZM26.65,45.05c.29,0,.54-.08.77-.25.22-.16.4-.39.52-.67s.19-.61.19-.99-.06-.7-.19-.98-.3-.51-.53-.68c-.23-.16-.48-.25-.78-.25s-.55.08-.78.25c-.23.16-.41.39-.53.68s-.19.62-.19.98.06.7.19.99.31.51.54.67c.23.16.49.25.79.25Z" fill="#231f20"/>
        <path d="M31.39,45.68c-.41,0-.78-.11-1.1-.32-.32-.21-.57-.51-.75-.9-.18-.38-.27-.82-.27-1.31s.09-.94.27-1.32c.18-.38.43-.68.75-.9.32-.22.68-.33,1.1-.33s.78.11,1.1.33c.32.22.56.52.74.9.18.38.27.82.27,1.31s-.09.93-.27,1.32c-.18.38-.43.68-.74.9-.31.21-.68.32-1.09.32ZM31.4,45.05c.29,0,.54-.08.77-.25.22-.16.4-.39.52-.67s.19-.61.19-.99-.06-.7-.19-.98-.3-.51-.53-.68c-.23-.16-.48-.25-.78-.25s-.55.08-.78.25c-.23.16-.41.39-.53.68s-.19.62-.19.98.06.7.19.99.31.51.54.67c.23.16.49.25.79.25Z" fill="#231f20"/>
        <path d="M35.08,45.6v-4.27h-1.33v-.63h3.27v.63h-1.33v4.27h-.6Z" fill="#231f20"/>
      </g>
    </g>
    <g isolation="isolate">
      <g>
        <path d="M21.66,124.88c-.23,0-.43-.03-.62-.09s-.34-.14-.48-.25c-.14-.1-.25-.22-.34-.35-.09-.13-.15-.27-.19-.41l.58-.22c.06.19.18.36.35.5.17.14.38.21.63.22.3,0,.54-.07.71-.21.17-.14.26-.32.26-.55,0-.21-.08-.38-.23-.51-.15-.13-.35-.23-.6-.3l-.49-.15c-.2-.06-.37-.15-.53-.26-.16-.11-.29-.25-.38-.43-.09-.17-.14-.38-.14-.62,0-.45.13-.8.38-1.05s.62-.38,1.1-.38c.28,0,.52.05.72.15.2.1.37.23.5.4.13.16.23.34.28.54l-.58.22c-.07-.21-.19-.38-.35-.51-.17-.13-.37-.19-.61-.19-.26,0-.46.07-.61.21s-.22.33-.22.57c0,.21.06.36.17.47.12.11.27.19.47.25l.49.14c.4.11.71.3.92.56.22.26.33.54.33.85,0,.27-.06.51-.17.72-.12.21-.29.38-.51.5s-.5.19-.83.19Z" fill="#231f20"/>
        <path d="M24.87,124.8v-4.27h-1.33v-.63h3.27v.63h-1.33v4.27h-.6Z" fill="#231f20"/>
        <path d="M27.42,124.8v-4.9h2.56v.63h-1.97v1.46h1.77v.62h-1.77v1.57h1.98v.63h-2.58Z" fill="#231f20"/>
        <path d="M31.02,124.8v-4.9h1.44c.28,0,.54.07.75.2.22.13.39.32.51.56.12.24.19.51.19.82s-.06.57-.17.81c-.11.24-.27.42-.47.56-.2.14-.43.2-.69.2h-.96v1.75h-.6ZM31.62,122.41h.95c.21,0,.39-.09.53-.26.14-.18.21-.4.21-.68s-.08-.51-.24-.68c-.16-.18-.36-.26-.61-.26h-.83v1.88Z" fill="#231f20"/>
        <path d="M35.97,124.88c-.23,0-.43-.03-.62-.09s-.34-.14-.48-.25c-.14-.1-.25-.22-.34-.35-.09-.13-.15-.27-.19-.41l.58-.22c.06.19.18.36.35.5.17.14.38.21.63.22.3,0,.54-.07.71-.21.17-.14.26-.32.26-.55,0-.21-.08-.38-.23-.51-.15-.13-.35-.23-.6-.3l-.49-.15c-.2-.06-.37-.15-.53-.26-.16-.11-.29-.25-.38-.43-.09-.17-.14-.38-.14-.62,0-.45.13-.8.38-1.05s.62-.38,1.1-.38c.28,0,.52.05.72.15.2.1.37.23.5.4.13.16.23.34.28.54l-.58.22c-.07-.21-.19-.38-.35-.51-.17-.13-.37-.19-.61-.19-.26,0-.46.07-.61.21s-.22.33-.22.57c0,.21.06.36.17.47.12.11.27.19.47.25l.49.14c.4.11.71.3.92.56.22.26.33.54.33.85,0,.27-.06.51-.17.72-.12.21-.29.38-.51.5s-.5.19-.83.19Z" fill="#231f20"/>
      </g>
    </g>
    <g isolation="isolate">
      <g>
        <path d="M20.21,199.2v-4.9h1.44c.28,0,.54.06.75.19.22.13.39.31.51.53.12.23.19.49.19.79,0,.32-.08.6-.24.85-.16.24-.37.42-.62.53l1.03,2.01h-.68l-.95-1.88h-.83v1.88h-.6ZM20.8,196.69h.89c.15,0,.28-.04.39-.12.12-.08.21-.18.28-.32.07-.13.11-.28.11-.45,0-.26-.08-.47-.24-.64-.16-.16-.36-.25-.61-.25h-.82v1.76Z" fill="#231f20"/>
        <path d="M24.05,199.2v-4.9h2.56v.63h-1.97v1.46h1.77v.62h-1.77v1.57h1.98v.63h-2.58Z" fill="#231f20"/>
        <path d="M29.02,199.28c-.23,0-.43-.03-.62-.09s-.34-.14-.48-.25c-.14-.11-.25-.22-.34-.35-.09-.13-.15-.27-.19-.41l.58-.22c.06.19.18.36.35.5.17.14.38.21.63.22.3,0,.54-.07.71-.21.17-.14.26-.32.26-.55,0-.21-.08-.38-.23-.51-.15-.13-.35-.23-.6-.3l-.49-.15c-.2-.06-.37-.15-.53-.26s-.29-.25-.38-.43c-.09-.17-.14-.38-.14-.62,0-.45.13-.8.38-1.05s.62-.38,1.1-.38c.28,0,.52.05.72.15s.37.23.5.4.23.34.28.54l-.58.22c-.07-.21-.19-.38-.35-.51-.17-.13-.37-.19-.61-.19-.26,0-.46.07-.61.21-.15.14-.22.33-.22.57,0,.21.06.36.17.47.12.11.27.19.47.25l.49.14c.4.11.71.3.92.56.22.26.33.54.33.85,0,.27-.06.51-.17.72-.12.21-.29.38-.51.5-.23.12-.5.19-.83.19Z" fill="#231f20"/>
        <path d="M31.37,199.2v-4.9h2.56v.63h-1.97v1.46h1.77v.62h-1.77v1.57h1.98v.63h-2.58Z" fill="#231f20"/>
        <path d="M35.84,199.2v-4.27h-1.33v-.63h3.27v.63h-1.33v4.27h-.6Z" fill="#231f20"/>
      </g>
    </g>
    <g isolation="isolate">
      <g>
        <path d="M20.9,259.28c-.41,0-.77-.11-1.08-.33-.32-.22-.56-.52-.74-.9s-.27-.82-.27-1.31.09-.93.27-1.31.42-.68.74-.9c.31-.22.67-.33,1.08-.33.26,0,.52.05.76.17.24.11.45.26.64.46.19.19.33.42.44.67l-.54.28c-.08-.19-.18-.36-.32-.5s-.29-.25-.45-.33c-.17-.08-.34-.12-.53-.12-.28,0-.54.08-.76.25s-.4.39-.52.67c-.13.29-.19.61-.19.99s.06.71.19.99.3.51.53.68c.23.16.48.24.77.24.19,0,.36-.04.53-.13.17-.09.32-.21.45-.36.13-.15.24-.33.32-.52l.54.27c-.1.27-.25.5-.43.71s-.4.37-.64.48c-.24.11-.5.17-.76.17Z" fill="#231f20"/>
        <path d="M23.48,259.2v-4.9h.6v4.27h1.98v.63h-2.58Z" fill="#231f20"/>
        <path d="M28.41,259.28c-.41,0-.78-.11-1.1-.32-.32-.21-.57-.51-.75-.9-.18-.38-.27-.82-.27-1.31s.09-.94.27-1.32c.18-.38.43-.68.75-.9.32-.22.68-.33,1.1-.33s.78.11,1.1.33c.32.22.56.52.74.9.18.38.27.82.27,1.31s-.09.93-.27,1.32c-.18.38-.43.68-.74.9s-.68.32-1.09.32ZM28.42,258.65c.29,0,.54-.08.77-.25s.4-.39.52-.67c.13-.29.19-.61.19-.99s-.06-.7-.19-.98-.3-.51-.53-.68c-.23-.16-.48-.25-.78-.25s-.55.08-.78.25c-.23.16-.41.39-.53.68s-.19.62-.19.98.06.7.19.99c.13.28.31.51.54.67s.49.25.79.25Z" fill="#231f20"/>
        <path d="M33.13,259.28c-.41,0-.77-.11-1.08-.33-.32-.22-.56-.52-.74-.9s-.27-.82-.27-1.31.09-.93.27-1.31.42-.68.74-.9c.31-.22.67-.33,1.08-.33.26,0,.52.05.76.17.24.11.45.26.64.46.19.19.33.42.44.67l-.54.28c-.08-.19-.18-.36-.32-.5s-.29-.25-.45-.33c-.17-.08-.34-.12-.53-.12-.28,0-.54.08-.76.25s-.4.39-.52.67c-.13.29-.19.61-.19.99s.06.71.19.99.3.51.53.68c.23.16.48.24.77.24.19,0,.36-.04.53-.13.17-.09.32-.21.45-.36.13-.15.24-.33.32-.52l.54.27c-.1.27-.25.5-.43.71s-.4.37-.64.48c-.24.11-.5.17-.76.17Z" fill="#231f20"/>
        <path d="M35.71,259.2v-4.9h.58v2.17l1.81-2.17h.76l-1.82,2.21,1.9,2.7h-.74l-1.56-2.22-.35.43v1.79h-.58Z" fill="#231f20"/>
      </g>
    </g>
    <g isolation="isolate">
      <g>
        <path d="M101.02,259.2l-1.29-4.9h.61l1,3.84.97-3.84h.6l.96,3.82,1.02-3.82h.6l-1.31,4.9h-.64l-.94-3.79-.96,3.79h-.64Z" fill="#231f20"/>
        <path d="M105.35,259.2l1.72-4.9h.64l1.72,4.9h-.64l-.46-1.31h-1.88l-.46,1.31h-.64ZM106.65,257.28h1.47l-.73-2.11-.74,2.11Z" fill="#231f20"/>
        <path d="M110.02,259.2v-4.9h.62l2.41,3.75v-3.75h.6v4.9h-.6l-2.43-3.79v3.79h-.6Z" fill="#231f20"/>
        <path d="M114.73,259.2v-4.9h1.32c.41,0,.77.1,1.08.31.31.21.56.5.74.86.18.37.27.79.27,1.27s-.09.9-.27,1.27c-.18.37-.43.66-.74.87s-.67.32-1.08.32h-1.32ZM115.33,258.56h.72c.21,0,.4-.04.58-.14.18-.09.34-.22.47-.39.14-.17.24-.36.32-.58s.11-.46.11-.71-.04-.49-.11-.71-.18-.41-.32-.58c-.14-.17-.29-.29-.47-.39-.18-.09-.37-.14-.58-.14h-.72v3.61Z" fill="#231f20"/>
        <path d="M118.94,259.2v-4.9h2.56v.63h-1.97v1.46h1.77v.62h-1.77v1.57h1.98v.63h-2.58Z" fill="#231f20"/>
        <path d="M122.54,259.2v-4.9h1.44c.28,0,.54.06.75.19.22.13.39.31.51.53s.19.49.19.79c0,.32-.08.6-.24.85-.16.24-.37.42-.62.53l1.03,2.01h-.68l-.95-1.88h-.83v1.88h-.6ZM123.14,256.69h.89c.15,0,.28-.04.39-.12.12-.08.21-.18.28-.31.07-.13.11-.28.11-.45,0-.26-.08-.47-.24-.64-.16-.16-.36-.25-.61-.25h-.82v1.76Z" fill="#231f20"/>
      </g>
    </g>
    <g isolation="isolate">
      <g>
        <path d="M222.64,259.28c-.43,0-.81-.11-1.15-.33-.33-.22-.6-.52-.79-.9s-.28-.82-.28-1.31.09-.94.28-1.32.45-.68.79-.9c.33-.22.72-.33,1.15-.33.24,0,.46.04.68.13.22.09.41.21.59.36.18.15.32.33.43.52l-.48.36c-.08-.14-.19-.27-.32-.38s-.27-.2-.43-.26c-.16-.06-.31-.09-.47-.09-.31,0-.59.08-.83.25-.24.16-.43.39-.57.67-.14.29-.21.62-.21.99s.07.7.2.98c.14.28.33.51.57.67.25.16.53.25.84.25.25,0,.48-.06.68-.18s.36-.29.47-.5c.12-.21.18-.46.18-.74h-1.03v-.57h1.61v.5c0,.42-.09.8-.25,1.11-.16.32-.39.56-.68.74s-.62.26-.99.26Z" fill="#fff"/>
        <path d="M224.75,259.2l1.72-4.9h.64l1.72,4.9h-.64l-.46-1.31h-1.88l-.46,1.31h-.64ZM226.05,257.28h1.47l-.73-2.11-.74,2.11Z" fill="#fff"/>
        <path d="M230.14,259.2v-4.27h-1.33v-.63h3.27v.63h-1.33v4.27h-.6Z" fill="#fff"/>
        <path d="M232.7,259.2v-4.9h2.56v.63h-1.97v1.46h1.77v.62h-1.77v1.57h1.98v.63h-2.58Z" fill="#fff"/>
      </g>
    </g>
    <g isolation="isolate">
      <g>
        <path d="M252.38,259.28c-.41,0-.77-.11-1.08-.33-.32-.22-.56-.52-.74-.9s-.27-.82-.27-1.31.09-.93.27-1.31.42-.68.74-.9c.31-.22.67-.33,1.08-.33.26,0,.52.05.76.17.24.11.45.26.64.46.19.19.33.42.44.67l-.54.28c-.08-.19-.18-.36-.32-.5s-.29-.25-.45-.33c-.17-.08-.34-.12-.53-.12-.28,0-.54.08-.76.25s-.4.39-.52.67c-.13.29-.19.61-.19.99s.06.71.19.99.3.51.53.68c.23.16.48.24.77.24.19,0,.36-.04.53-.13.17-.09.32-.21.45-.36.13-.15.24-.33.32-.52l.54.27c-.1.27-.25.5-.43.71s-.4.37-.64.48c-.24.11-.5.17-.76.17Z" fill="#fff"/>
        <path d="M256.22,259.2l-1.75-4.9h.64l1.44,4.1,1.44-4.1h.64l-1.75,4.9h-.66Z" fill="#fff"/>
      </g>
    </g>
    <g isolation="isolate">
      <g>
        <path d="M58.47,125.11c-.23,0-.43-.03-.62-.09s-.34-.14-.48-.25c-.14-.1-.25-.22-.34-.35-.09-.13-.15-.27-.19-.41l.58-.22c.06.19.18.36.35.5.17.14.38.21.63.22.3,0,.54-.07.71-.21.17-.14.26-.32.26-.55,0-.21-.08-.38-.23-.51-.15-.13-.35-.23-.6-.3l-.49-.15c-.2-.06-.37-.15-.53-.26-.16-.11-.29-.25-.38-.43-.09-.17-.14-.38-.14-.62,0-.45.13-.8.38-1.05s.62-.38,1.1-.38c.28,0,.52.05.72.15.2.1.37.23.5.4.13.16.23.34.28.54l-.58.22c-.07-.21-.19-.38-.35-.51-.17-.13-.37-.19-.61-.19-.26,0-.46.07-.61.21s-.22.33-.22.57c0,.21.06.36.17.47.12.11.27.19.47.25l.49.14c.4.11.71.3.92.56.22.26.33.54.33.85,0,.27-.06.51-.17.72-.12.21-.29.38-.51.5s-.5.19-.83.19Z" fill="#231f20"/>
        <path d="M60.82,125.03v-4.9h.6v4.27h1.98v.63h-2.58Z" fill="#231f20"/>
        <path d="M64.01,125.03v-4.9h2.56v.63h-1.97v1.46h1.77v.62h-1.77v1.57h1.98v.63h-2.58Z" fill="#231f20"/>
        <path d="M68.42,125.03l-1.29-4.9h.61l1,3.84.97-3.84h.6l.96,3.81,1.02-3.81h.6l-1.31,4.9h-.64l-.94-3.79-.96,3.79h-.64Z" fill="#231f20"/>
      </g>
    </g>
    <g isolation="isolate">
      <g>
        <path d="M57.13,45.68c-.23,0-.43-.03-.62-.09s-.34-.14-.48-.25c-.14-.1-.25-.22-.34-.35-.09-.13-.15-.27-.19-.41l.58-.22c.06.19.18.36.35.5.17.14.38.21.63.22.3,0,.54-.07.71-.21.17-.14.26-.32.26-.55,0-.21-.08-.38-.23-.51-.15-.13-.35-.23-.6-.3l-.49-.15c-.2-.06-.37-.15-.53-.26-.16-.11-.29-.25-.38-.43-.09-.17-.14-.38-.14-.62,0-.45.13-.8.38-1.05s.62-.38,1.1-.38c.28,0,.52.05.72.15.2.1.37.23.5.4.13.16.23.34.28.54l-.58.22c-.07-.21-.19-.38-.35-.51-.17-.13-.37-.19-.61-.19-.26,0-.46.07-.61.21s-.22.33-.22.57c0,.21.06.36.17.47.12.11.27.19.47.25l.49.14c.4.11.71.3.92.56.22.26.33.54.33.85,0,.27-.06.51-.17.72-.12.21-.29.38-.51.5s-.5.19-.83.19Z" fill="#231f20"/>
        <path d="M61.29,45.68c-.41,0-.77-.11-1.08-.33-.32-.22-.56-.52-.74-.9-.18-.38-.27-.82-.27-1.31s.09-.93.27-1.31c.18-.38.42-.68.74-.9.31-.22.67-.33,1.08-.33.26,0,.52.05.76.16.24.11.45.26.64.46.19.19.33.42.44.68l-.54.28c-.08-.19-.18-.36-.32-.5-.13-.14-.29-.25-.45-.33-.17-.08-.34-.12-.53-.12-.28,0-.54.08-.76.25-.22.16-.4.39-.52.67s-.19.61-.19.99.06.71.19.99c.13.29.3.51.53.68.23.16.48.24.77.24.19,0,.36-.04.53-.13.17-.09.32-.21.45-.36.13-.15.24-.33.32-.52l.54.27c-.1.27-.25.5-.43.71-.19.21-.4.37-.64.48-.24.11-.5.17-.76.17Z" fill="#231f20"/>
        <path d="M63.39,45.6l1.72-4.9h.64l1.72,4.9h-.64l-.46-1.31h-1.88l-.46,1.31h-.64ZM64.69,43.68h1.47l-.73-2.11-.74,2.11Z" fill="#231f20"/>
        <path d="M68.06,45.6v-4.9h.6v4.27h1.98v.63h-2.58Z" fill="#231f20"/>
        <path d="M71.25,45.6v-4.9h2.56v.63h-1.97v1.46h1.77v.62h-1.77v1.57h1.98v.63h-2.58Z" fill="#231f20"/>
      </g>
    </g>
  </g>
</svg>