<?xml version="1.0" encoding="UTF-8"?>
<svg xmlns="http://www.w3.org/2000/svg" width="152.4mm" height="128.5mm" viewBox="0 0 432 364.25">
  <g id="Background">
    <g id="Background-2" data-name="Background">
      <rect y="0" width="432" height="364.25" fill="#efefef"/>
    </g>
  </g>
  <g id="UI">
    <g>
      <path id="path12" d="M376.99,22.78h1.2v-1.2h1.2v2.4h1.2v-3.6h1.2v4.8h1.2v-6h1.2v6h1.2v-3.6h1.2v2.4h1.2v-1.2h1.2" fill="none" stroke="#b2b2b2" stroke-linecap="round" stroke-linejoin="round" stroke-width=".5"/>
      <path id="path13" d="M390.76,25.18l3.6-6c0,1.31,1.01,3.6,2.4,3.6h4.8l1.2,2.4" fill="none" stroke="#b2b2b2" stroke-linecap="square" stroke-linejoin="bevel" stroke-width=".5"/>
      <path id="path17" d="M406.8,19.18h-1.2v7.2h1.2" fill="none" stroke="#b2b2b2" stroke-linecap="square" stroke-linejoin="bevel" stroke-width=".5"/>
      <path id="path18" d="M416.4,19.18h1.2v7.2h-1.2" fill="none" stroke="#b2b2b2" stroke-linecap="square" stroke-linejoin="bevel" stroke-width=".5"/>
      <path id="path21" d="M408,19.82l2.4,2.4" fill="none" stroke="#b2b2b2" stroke-linejoin="bevel" stroke-width=".5"/>
      <path id="path22" d="M410.4,19.82l-2.4,2.4" fill="none" stroke="#b2b2b2" stroke-linejoin="bevel" stroke-width=".5"/>
      <path id="path23-5" d="M408,23.42l2.4,2.4" fill="none" stroke="#b2b2b2" stroke-linejoin="bevel" stroke-width=".5"/>
      <path id="path24" d="M408,25.82l2.4-2.4" fill="none" stroke="#b2b2b2" stroke-linejoin="bevel" stroke-width=".5"/>
      <path id="path25-3" d="M412.8,19.82l2.4,2.4" fill="none" stroke="#b2b2b2" stroke-linejoin="bevel" stroke-width=".5"/>
      <path id="path26-7" d="M415.2,19.82l-2.4,2.4" fill="none" stroke="#b2b2b2" stroke-linejoin="bevel" stroke-width=".5"/>
      <rect id="rect26" x="412.8" y="23.42" width="2.4" height="2.4" fill="none" stroke="#b2b2b2" stroke-linejoin="bevel" stroke-width=".5"/>
    </g>
  </g>
  <g id="Text">
    <g>
      <rect x="14.4" y="16.78" width="43.2" height="12" fill="none"/>
      <path d="M17.97,26.04c-.65,0-1.22-.14-1.71-.42s-.88-.66-1.17-1.15c-.28-.49-.42-1.05-.42-1.69s.14-1.2.42-1.69c.28-.49.67-.87,1.17-1.15.5-.28,1.07-.42,1.71-.42.4,0,.77.06,1.09.18.33.12.61.28.86.48.25.2.45.44.61.7l-1.2.72c-.09-.14-.21-.27-.36-.39-.15-.11-.31-.2-.48-.27-.17-.06-.35-.09-.53-.09-.35,0-.67.08-.94.24-.27.16-.49.39-.64.68-.16.29-.23.62-.23,1s.08.71.23,1c.15.29.37.52.65.69s.61.25.98.25c.26,0,.49-.05.7-.14.21-.1.38-.23.5-.4s.2-.37.22-.59h-1.42v-1.12h2.82v.86c-.01.59-.14,1.08-.4,1.49s-.59.71-1.01.91-.91.31-1.45.31Z" fill="#231f20"/>
      <path d="M21.4,25.93v-6.3h2.47c.46,0,.86.09,1.21.27.35.18.63.42.83.74.2.32.3.68.3,1.08s-.11.78-.32,1.1-.5.57-.85.73l1.42,2.38h-1.66l-1.21-2.12h-.77v2.12h-1.45ZM22.85,22.49h.98c.17,0,.32-.03.45-.1s.24-.16.31-.27.11-.25.11-.39c0-.22-.08-.41-.25-.55-.17-.14-.38-.22-.65-.22h-.95v1.53Z" fill="#231f20"/>
      <path d="M26.6,25.93l2.45-6.3h1.55l2.45,6.3h-1.53l-.46-1.2h-2.47l-.46,1.2h-1.53ZM29.05,23.46h1.52l-.76-2.02-.76,2.02Z" fill="#231f20"/>
      <path d="M34.58,25.93l-2.47-6.3h1.56l1.69,4.56,1.67-4.56h1.57l-2.46,6.3h-1.57Z" fill="#231f20"/>
      <path d="M39.05,25.93v-6.3h1.45v6.3h-1.45Z" fill="#231f20"/>
      <path d="M42.87,25.93v-4.97h-1.84v-1.33h5.11v1.33h-1.84v4.97h-1.44Z" fill="#231f20"/>
      <path d="M48.33,25.93v-2.66l-2.22-3.64h1.65l1.3,2.19,1.3-2.19h1.65l-2.21,3.63v2.67h-1.45Z" fill="#231f20"/>
    </g>
  </g>
  <g id="Layer_8" data-name="Layer 8">
    <g isolation="isolate">
      <g>
        <path d="M19.24,86.38v-4.9h.73l1.62,2.4,1.62-2.4h.73v4.9h-.69v-3.79l-1.67,2.46-1.66-2.45v3.79h-.69Z" fill="#231f20"/>
        <path d="M27.3,86.47c-.48,0-.9-.11-1.27-.32-.37-.21-.66-.51-.86-.9-.21-.38-.31-.82-.31-1.31s.1-.94.31-1.32c.21-.38.49-.68.86-.9.36-.22.78-.33,1.26-.33s.9.11,1.26.33c.36.22.65.52.85.9.21.38.31.82.31,1.31s-.1.93-.31,1.32c-.21.38-.49.68-.85.9-.36.21-.78.32-1.25.32ZM27.31,85.84c.33,0,.62-.08.88-.25.26-.16.46-.39.6-.67s.22-.61.22-.99-.07-.7-.22-.98c-.15-.29-.35-.51-.61-.68-.26-.16-.56-.25-.89-.25s-.63.08-.9.25c-.26.16-.47.39-.61.68-.15.29-.22.62-.22.98s.07.7.22.99.36.51.62.67c.26.16.57.25.91.25Z" fill="#231f20"/>
        <path d="M30.63,86.38v-4.9h1.51c.47,0,.88.1,1.24.31.36.21.65.5.85.86s.31.79.31,1.27-.1.9-.31,1.27-.49.66-.85.87c-.36.21-.78.31-1.24.31h-1.51ZM31.32,85.74h.83c.24,0,.46-.05.67-.14.21-.09.39-.22.54-.39.16-.17.28-.36.36-.58.09-.22.13-.46.13-.71s-.04-.49-.13-.71c-.09-.22-.21-.41-.36-.58-.16-.17-.34-.29-.54-.39-.21-.09-.43-.14-.67-.14h-.83v3.61Z" fill="#231f20"/>
        <path d="M35.47,86.38v-4.9h2.95v.63h-2.26v1.46h2.04v.62h-2.04v1.57h2.28v.63h-2.96Z" fill="#231f20"/>
      </g>
    </g>
    <g isolation="isolate">
      <g>
        <path d="M17.03,158.47c-.5,0-.93-.11-1.32-.33-.38-.22-.69-.52-.9-.9-.22-.38-.33-.82-.33-1.31s.11-.94.33-1.32c.22-.38.52-.68.9-.9.39-.22.83-.33,1.32-.33.27,0,.53.04.78.13.25.09.48.21.68.36.2.15.37.33.49.52l-.55.36c-.09-.15-.21-.27-.36-.39-.15-.11-.31-.2-.49-.26s-.36-.09-.54-.09c-.36,0-.68.08-.96.25-.28.16-.5.39-.65.67-.16.28-.24.62-.24.99s.08.7.23.98.38.51.66.67c.28.16.61.25.97.25.29,0,.55-.06.78-.18.23-.12.41-.28.54-.5.13-.21.2-.46.21-.74h-1.18v-.57h1.86v.5c0,.42-.1.8-.29,1.11-.19.32-.45.56-.78.74-.33.18-.71.26-1.14.26Z" fill="#231f20"/>
        <path d="M20.09,158.38v-4.9h1.65c.33,0,.61.06.86.19s.45.31.59.53c.14.23.21.49.21.79,0,.32-.09.6-.27.85-.18.24-.42.42-.71.53l1.18,2.01h-.78l-1.09-1.88h-.96v1.88h-.69ZM20.78,155.88h1.03c.17,0,.32-.04.45-.12s.24-.18.32-.31c.08-.13.12-.28.12-.45,0-.26-.09-.47-.27-.64-.18-.16-.42-.25-.71-.25h-.94v1.76Z" fill="#231f20"/>
        <path d="M23.97,158.38l1.97-4.9h.73l1.97,4.9h-.74l-.53-1.31h-2.16l-.53,1.31h-.74ZM25.47,156.46h1.69l-.84-2.11-.85,2.11Z" fill="#231f20"/>
        <path d="M30.42,158.38l-2.01-4.9h.73l1.65,4.1,1.66-4.1h.74l-2.01,4.9h-.76Z" fill="#231f20"/>
        <path d="M33.87,158.38v-4.9h.69v4.9h-.69Z" fill="#231f20"/>
        <path d="M36.8,158.38v-4.27h-1.53v-.63h3.76v.63h-1.53v4.27h-.69Z" fill="#231f20"/>
        <path d="M40.92,158.38v-2.05l-1.75-2.85h.79l1.3,2.14,1.3-2.14h.8l-1.75,2.84v2.06h-.69Z" fill="#231f20"/>
      </g>
    </g>
    <g isolation="isolate">
      <g>
        <path d="M19.16,230.47c-.47,0-.88-.11-1.25-.33-.36-.22-.65-.52-.85-.9-.21-.38-.31-.82-.31-1.31s.1-.93.31-1.31c.21-.38.49-.68.85-.9s.77-.33,1.24-.33c.3,0,.59.05.87.16s.52.26.74.46.38.42.5.68l-.62.28c-.09-.19-.21-.36-.36-.5-.15-.14-.33-.25-.52-.33-.19-.08-.4-.12-.61-.12-.33,0-.62.08-.88.25-.26.16-.46.39-.6.67-.14.28-.22.61-.22.99s.07.71.22.99c.15.29.35.51.61.68.26.16.55.24.88.24.21,0,.42-.04.61-.13.19-.09.36-.21.51-.36s.27-.33.37-.52l.62.27c-.12.27-.28.5-.5.71-.21.21-.46.37-.74.48-.28.11-.57.17-.88.17Z" fill="#231f20"/>
        <path d="M22.13,230.38v-4.9h.69v2.06h2.64v-2.06h.69v4.9h-.69v-2.21h-2.64v2.21h-.69Z" fill="#231f20"/>
        <path d="M26.83,230.38l1.97-4.9h.73l1.97,4.9h-.74l-.53-1.31h-2.16l-.53,1.31h-.74ZM28.32,228.46h1.69l-.84-2.11-.85,2.11Z" fill="#231f20"/>
        <path d="M34.15,230.47c-.48,0-.9-.11-1.27-.32-.37-.21-.66-.51-.87-.9-.21-.38-.31-.82-.31-1.31s.1-.94.31-1.32c.21-.38.49-.68.86-.9.36-.22.78-.33,1.26-.33s.9.11,1.26.33.65.52.85.9c.21.38.31.82.31,1.31s-.1.93-.31,1.32c-.21.38-.49.68-.85.9-.36.21-.78.32-1.25.32ZM34.16,229.84c.33,0,.63-.08.88-.25.26-.16.46-.39.6-.67.14-.28.22-.61.22-.99s-.07-.7-.22-.98c-.15-.29-.35-.51-.61-.67-.26-.16-.56-.25-.89-.25s-.63.08-.9.25c-.26.16-.46.39-.61.67-.15.29-.22.62-.22.98s.08.7.22.99c.15.29.36.51.62.67.26.16.57.25.91.25Z" fill="#231f20"/>
        <path d="M39.07,230.47c-.26,0-.5-.03-.71-.09-.21-.06-.4-.14-.55-.25-.16-.11-.29-.22-.39-.35-.1-.13-.17-.27-.22-.41l.67-.22c.07.19.2.36.4.5.2.14.44.21.72.22.34,0,.62-.07.82-.21s.3-.32.3-.55c0-.21-.09-.38-.26-.51-.17-.13-.4-.23-.69-.3l-.57-.15c-.22-.06-.43-.15-.61-.26s-.33-.25-.44-.43-.16-.38-.16-.62c0-.45.15-.8.44-1.05s.71-.38,1.26-.38c.32,0,.59.05.83.15s.43.23.58.4.26.34.33.54l-.67.22c-.08-.21-.21-.38-.41-.51-.19-.13-.43-.19-.71-.19-.29,0-.53.07-.7.21-.17.14-.25.33-.25.57,0,.21.07.36.2.47s.31.19.54.25l.57.14c.46.11.81.3,1.06.56.25.26.38.54.38.85,0,.27-.07.51-.2.72-.13.21-.33.38-.59.5-.26.12-.58.19-.96.19Z" fill="#231f20"/>
      </g>
    </g>
    <g isolation="isolate">
      <g>
        <path d="M20.26,302.47c-.26,0-.5-.03-.71-.09-.21-.06-.4-.14-.55-.25-.16-.1-.29-.22-.39-.35s-.17-.27-.22-.41l.67-.22c.07.19.2.36.4.5.2.14.44.21.72.22.34,0,.62-.07.82-.21s.3-.32.3-.55c0-.21-.09-.38-.26-.51-.17-.13-.4-.23-.69-.3l-.57-.15c-.22-.06-.43-.15-.61-.26-.18-.11-.33-.25-.44-.43-.11-.17-.16-.38-.16-.62,0-.45.15-.8.44-1.05s.71-.38,1.26-.38c.32,0,.59.05.83.15.23.1.43.23.58.4.15.16.26.34.33.54l-.67.22c-.08-.21-.21-.38-.41-.51s-.43-.19-.71-.19c-.29,0-.53.07-.7.21-.17.14-.25.33-.25.57,0,.21.07.36.2.47.13.11.31.19.54.25l.57.14c.46.11.81.3,1.06.56.25.26.38.54.38.85,0,.27-.07.5-.2.72s-.33.38-.59.5-.58.19-.96.19Z" fill="#231f20"/>
        <path d="M22.96,302.38v-4.9h1.65c.33,0,.62.07.87.2.25.13.45.32.59.56.14.24.21.51.21.82s-.07.57-.2.81c-.13.24-.31.43-.54.56-.23.14-.5.2-.79.2h-1.1v1.75h-.69ZM23.64,300h1.09c.25,0,.45-.09.61-.26.16-.17.24-.4.24-.68s-.09-.51-.28-.68c-.18-.17-.42-.26-.7-.26h-.96v1.88Z" fill="#231f20"/>
        <path d="M27.06,302.38v-4.9h2.95v.63h-2.26v1.46h2.04v.62h-2.04v1.57h2.27v.63h-2.96Z" fill="#231f20"/>
        <path d="M31.2,302.38v-4.9h2.95v.63h-2.26v1.46h2.04v.62h-2.04v1.57h2.27v.63h-2.96Z" fill="#231f20"/>
        <path d="M35.33,302.38v-4.9h1.51c.47,0,.88.1,1.24.31.36.21.64.5.85.86.21.37.31.79.31,1.27s-.1.9-.31,1.27c-.21.37-.49.66-.85.87-.36.21-.78.31-1.24.31h-1.51ZM36.02,301.74h.83c.24,0,.46-.04.67-.14.21-.09.39-.22.54-.39.16-.17.28-.36.36-.58.09-.22.13-.46.13-.71s-.04-.49-.13-.71c-.09-.22-.21-.41-.36-.58s-.34-.29-.54-.38c-.21-.09-.43-.14-.67-.14h-.83v3.61Z" fill="#231f20"/>
      </g>
    </g>
    <line x1="28.8" y1="98.77" x2="28.8" y2="127.57" fill="none" stroke="#b2b2b2" stroke-miterlimit="11.34" stroke-width=".5"/>
    <line x1="28.8" y1="171.27" x2="28.8" y2="200.07" fill="none" stroke="#b2b2b2" stroke-miterlimit="11.34" stroke-width=".5"/>
    <line x1="28.8" y1="244.78" x2="28.8" y2="273.58" fill="none" stroke="#b2b2b2" stroke-miterlimit="11.34" stroke-width=".5"/>
    <line x1="28.8" y1="317.27" x2="28.8" y2="346.07" fill="none" stroke="#b2b2b2" stroke-miterlimit="11.34" stroke-width=".5"/>
    <rect x="345.6" y="273.58" width="72" height="86.4" rx="3" ry="3" fill="#2a2a2a"/>
    <g isolation="isolate">
      <g>
        <path d="M388.8,328.78v-4.9h1.65c.33,0,.62.06.87.19.25.13.45.31.59.53.14.23.21.49.21.79,0,.32-.09.6-.27.85-.18.24-.42.42-.71.53l1.18,2.01h-.78l-1.09-1.88h-.96v1.88h-.69ZM389.49,326.28h1.03c.17,0,.32-.04.45-.12s.24-.18.32-.32c.08-.13.12-.28.12-.45,0-.26-.09-.47-.27-.64-.18-.16-.42-.25-.71-.25h-.95v1.76Z" fill="#fff"/>
        <path d="M392.68,328.78l1.97-4.9h.74l1.97,4.9h-.73l-.53-1.31h-2.16l-.53,1.31h-.73ZM394.18,326.86h1.69l-.84-2.11-.85,2.11Z" fill="#fff"/>
        <path d="M398.05,328.78v-4.9h1.51c.47,0,.88.1,1.24.31.36.21.65.5.85.86.21.37.31.79.31,1.27s-.1.9-.31,1.27c-.21.37-.49.66-.85.87-.36.21-.78.31-1.24.31h-1.51ZM398.74,328.14h.83c.24,0,.46-.05.67-.14s.39-.22.54-.38c.16-.17.28-.36.36-.58.09-.22.13-.46.13-.71s-.04-.49-.13-.71c-.09-.22-.21-.41-.36-.58-.16-.17-.34-.29-.54-.38s-.43-.14-.67-.14h-.83v3.61Z" fill="#fff"/>
        <path d="M402.89,328.78v-4.9h.69v4.9h-.69Z" fill="#fff"/>
        <path d="M406.65,328.89c-.38,0-.71-.08-1-.23s-.51-.38-.67-.66c-.16-.28-.24-.61-.24-.98v-3.14h.69v3.14c0,.24.05.46.16.64.1.19.25.33.43.43s.4.15.64.15.46-.05.64-.15c.19-.1.33-.25.43-.43.1-.19.15-.4.15-.64v-3.14h.69v3.14c0,.37-.08.69-.24.98s-.39.5-.68.66c-.29.16-.63.23-1.02.23Z" fill="#fff"/>
        <path d="M411.34,328.87c-.26,0-.5-.03-.71-.09-.21-.06-.4-.14-.55-.25-.16-.11-.29-.22-.39-.35-.1-.13-.18-.27-.22-.41l.67-.22c.07.19.2.36.4.5.2.14.44.21.72.22.35,0,.62-.07.82-.21s.3-.32.3-.55c0-.21-.09-.38-.26-.51-.17-.13-.4-.23-.69-.3l-.57-.15c-.22-.06-.43-.15-.61-.26-.18-.11-.33-.25-.44-.43s-.16-.38-.16-.62c0-.45.15-.8.44-1.05.29-.25.71-.38,1.26-.38.32,0,.59.05.83.15s.43.23.58.4c.15.16.26.34.33.54l-.67.22c-.08-.21-.21-.38-.41-.51-.19-.13-.43-.19-.71-.19s-.53.07-.7.21c-.17.14-.26.33-.26.57,0,.21.07.36.2.47.13.11.31.19.54.25l.57.14c.46.11.81.3,1.06.56.25.26.37.54.37.85,0,.27-.07.51-.2.72-.13.21-.33.38-.59.5-.26.12-.58.19-.96.19Z" fill="#fff"/>
      </g>
    </g>
    <g isolation="isolate">
      <g>
        <path d="M348.4,328.78l1.97-4.9h.73l1.97,4.9h-.74l-.53-1.31h-2.16l-.53,1.31h-.74ZM349.9,326.86h1.69l-.84-2.11-.85,2.11Z" fill="#fff"/>
        <path d="M353.77,328.78v-4.9h.71l2.77,3.75v-3.75h.69v4.9h-.69l-2.79-3.79v3.79h-.69Z" fill="#fff"/>
        <path d="M361.41,328.87c-.5,0-.93-.11-1.32-.33-.38-.22-.69-.52-.9-.9s-.33-.82-.33-1.31.11-.94.33-1.32.52-.68.9-.9c.39-.22.83-.33,1.32-.33.27,0,.53.04.78.13.25.09.48.21.68.36.2.15.37.33.49.52l-.55.36c-.09-.14-.21-.27-.36-.38s-.31-.2-.49-.26c-.18-.06-.36-.09-.54-.09-.36,0-.68.08-.96.25s-.5.39-.65.67c-.16.29-.24.62-.24.99s.08.7.23.98c.16.28.38.51.66.67s.61.25.97.25c.29,0,.55-.06.78-.18.23-.12.41-.29.54-.5s.2-.46.21-.74h-1.18v-.57h1.86v.5c0,.42-.1.8-.29,1.11-.19.32-.45.56-.78.74s-.71.26-1.14.26Z" fill="#fff"/>
        <path d="M364.48,328.78v-4.9h.69v4.27h2.27v.63h-2.96Z" fill="#fff"/>
        <path d="M368.15,328.78v-4.9h2.95v.63h-2.26v1.46h2.04v.62h-2.04v1.57h2.27v.63h-2.96Z" fill="#fff"/>
      </g>
    </g>
    <g isolation="isolate">
      <path d="M402.86,285.58v-2.05l-1.75-2.85h.79l1.3,2.14,1.3-2.14h.8l-1.75,2.84v2.06h-.69Z" fill="#fff"/>
    </g>
    <g isolation="isolate">
      <path d="M357.86,285.58l1.76-2.49-1.74-2.41h.83l1.31,1.86,1.29-1.86h.83l-1.74,2.41,1.75,2.49h-.84l-1.29-1.93-1.31,1.93h-.84Z" fill="#fff"/>
    </g>
    <circle cx="215.43" cy="289.14" r="15.56" fill="#231f20"/>
    <line x1="215.43" y1="181.42" x2="215.43" y2="289.13" fill="none" stroke="#dbdbe4" stroke-width=".85"/>
    <circle cx="308.72" cy="235.28" r="15.56" fill="#231f20"/>
    <line x1="215.43" y1="181.42" x2="308.71" y2="235.28" fill="none" stroke="#dbdbe4" stroke-width=".85"/>
    <circle cx="308.72" cy="127.56" r="15.56" fill="#231f20"/>
    <line x1="215.43" y1="181.42" x2="308.71" y2="127.57" fill="none" stroke="#dbdbe4" stroke-width=".85"/>
    <circle cx="215.43" cy="73.7" r="15.56" fill="#231f20"/>
    <circle cx="145.98" cy="61.13" r="15.56" fill="#231f20"/>
    <line x1="215.43" y1="181.42" x2="215.43" y2="73.71" fill="none" stroke="#dbdbe4" stroke-width=".85"/>
    <circle cx="122.14" cy="127.56" r="15.56" fill="#231f20"/>
    <line x1="215.43" y1="181.42" x2="122.15" y2="127.57" fill="none" stroke="#dbdbe4" stroke-width=".85"/>
    <circle cx="122.14" cy="235.28" r="15.56" fill="#231f20"/>
    <line x1="215.43" y1="181.42" x2="122.15" y2="235.28" fill="none" stroke="#dbdbe4" stroke-width=".85"/>
    <line x1="215.43" y1="181.42" x2="145.98" y2="61.13" fill="none" stroke="#dbdbe4" stroke-width=".85"/>
    <circle cx="76.53" cy="181.42" r="15.56" fill="#231f20"/>
    <line x1="215.43" y1="181.42" x2="76.53" y2="181.42" fill="none" stroke="#dbdbe4" stroke-width=".85"/>
    <circle cx="145.98" cy="301.71" r="15.56" fill="#231f20"/>
    <line x1="215.43" y1="181.42" x2="145.98" y2="301.71" fill="none" stroke="#dbdbe4" stroke-width=".85"/>
    <circle cx="284.88" cy="301.71" r="15.56" fill="#231f20"/>
    <line x1="215.43" y1="181.42" x2="284.88" y2="301.71" fill="none" stroke="#dbdbe4" stroke-width=".85"/>
    <circle cx="354.33" cy="181.42" r="15.56" fill="#231f20"/>
    <line x1="215.43" y1="181.42" x2="354.33" y2="181.42" fill="none" stroke="#dbdbe4" stroke-width=".85"/>
    <circle cx="284.88" cy="61.13" r="15.56" fill="#231f20"/>
    <line x1="215.43" y1="181.42" x2="284.88" y2="61.13" fill="none" stroke="#dbdbe4" stroke-width=".85"/>
  </g>
  <g id="Layer_10" data-name="Layer 10">
    <circle cx="215.43" cy="181.42" r="138.9" fill="none" stroke="#dbdbe4" stroke-width=".85"/>
    <circle cx="215.43" cy="181.42" r="107.72" fill="none" stroke="#dbdbe4" stroke-width=".85"/>
    <circle cx="215.43" cy="181.42" r="85.04" fill="#1a1a30" stroke="#404062" stroke-width=".85"/>
    <g>
      <line x1="23.13" y1="100.78" x2="34.47" y2="100.78" fill="none" stroke="red" stroke-miterlimit="11.34" stroke-width=".57"/>
      <line x1="28.8" y1="95.11" x2="28.8" y2="106.45" fill="none" stroke="red" stroke-miterlimit="11.34" stroke-width=".57"/>
      <circle cx="28.8" cy="100.78" r="4.25" fill="none" stroke="red" stroke-miterlimit="11.34" stroke-width=".43"/>
    </g>
    <g>
      <line x1="23.13" y1="129.58" x2="34.47" y2="129.58" fill="none" stroke="red" stroke-miterlimit="11.34" stroke-width=".57"/>
      <line x1="28.8" y1="123.91" x2="28.8" y2="135.25" fill="none" stroke="red" stroke-miterlimit="11.34" stroke-width=".57"/>
      <circle cx="28.8" cy="129.58" r="4.25" fill="none" stroke="red" stroke-miterlimit="11.34" stroke-width=".43"/>
    </g>
    <g>
      <line x1="23.13" y1="172.78" x2="34.47" y2="172.78" fill="none" stroke="red" stroke-miterlimit="11.34" stroke-width=".57"/>
      <line x1="28.8" y1="167.11" x2="28.8" y2="178.45" fill="none" stroke="red" stroke-miterlimit="11.34" stroke-width=".57"/>
      <circle cx="28.8" cy="172.78" r="4.25" fill="none" stroke="red" stroke-miterlimit="11.34" stroke-width=".43"/>
    </g>
    <g>
      <line x1="23.13" y1="201.58" x2="34.47" y2="201.58" fill="none" stroke="red" stroke-miterlimit="11.34" stroke-width=".57"/>
      <line x1="28.8" y1="195.91" x2="28.8" y2="207.25" fill="none" stroke="red" stroke-miterlimit="11.34" stroke-width=".57"/>
      <circle cx="28.8" cy="201.58" r="4.25" fill="none" stroke="red" stroke-miterlimit="11.34" stroke-width=".43"/>
    </g>
    <g>
      <line x1="23.13" y1="244.78" x2="34.47" y2="244.78" fill="none" stroke="red" stroke-miterlimit="11.34" stroke-width=".57"/>
      <line x1="28.8" y1="239.11" x2="28.8" y2="250.45" fill="none" stroke="red" stroke-miterlimit="11.34" stroke-width=".57"/>
      <circle cx="28.8" cy="244.78" r="4.25" fill="none" stroke="red" stroke-miterlimit="11.34" stroke-width=".43"/>
    </g>
    <g>
      <line x1="23.13" y1="273.58" x2="34.47" y2="273.58" fill="none" stroke="red" stroke-miterlimit="11.34" stroke-width=".57"/>
      <line x1="28.8" y1="267.91" x2="28.8" y2="279.25" fill="none" stroke="red" stroke-miterlimit="11.34" stroke-width=".57"/>
      <circle cx="28.8" cy="273.58" r="4.25" fill="none" stroke="red" stroke-miterlimit="11.34" stroke-width=".43"/>
    </g>
    <g>
      <line x1="23.13" y1="316.78" x2="34.47" y2="316.78" fill="none" stroke="red" stroke-miterlimit="11.34" stroke-width=".57"/>
      <line x1="28.8" y1="311.11" x2="28.8" y2="322.45" fill="none" stroke="red" stroke-miterlimit="11.34" stroke-width=".57"/>
      <circle cx="28.8" cy="316.78" r="4.25" fill="none" stroke="red" stroke-miterlimit="11.34" stroke-width=".43"/>
    </g>
    <g>
      <line x1="23.13" y1="345.58" x2="34.47" y2="345.58" fill="none" stroke="red" stroke-miterlimit="11.34" stroke-width=".57"/>
      <line x1="28.8" y1="339.91" x2="28.8" y2="351.25" fill="none" stroke="red" stroke-miterlimit="11.34" stroke-width=".57"/>
      <circle cx="28.8" cy="345.58" r="4.25" fill="none" stroke="red" stroke-miterlimit="11.34" stroke-width=".43"/>
    </g>
    <g>
      <line x1="397.53" y1="345.58" x2="408.87" y2="345.58" fill="none" stroke="red" stroke-miterlimit="11.34" stroke-width=".57"/>
      <line x1="403.2" y1="339.91" x2="403.2" y2="351.25" fill="none" stroke="red" stroke-miterlimit="11.34" stroke-width=".57"/>
      <circle cx="403.2" cy="345.58" r="4.25" fill="none" stroke="red" stroke-miterlimit="11.34" stroke-width=".43"/>
    </g>
    <g>
      <line x1="354.33" y1="345.58" x2="365.67" y2="345.58" fill="none" stroke="red" stroke-miterlimit="11.34" stroke-width=".57"/>
      <line x1="360" y1="339.91" x2="360" y2="351.25" fill="none" stroke="red" stroke-miterlimit="11.34" stroke-width=".57"/>
      <circle cx="360" cy="345.58" r="4.25" fill="none" stroke="red" stroke-miterlimit="11.34" stroke-width=".43"/>
    </g>
    <g>
      <line x1="397.53" y1="302.38" x2="408.87" y2="302.38" fill="none" stroke="red" stroke-miterlimit="11.34" stroke-width=".57"/>
      <line x1="403.2" y1="296.71" x2="403.2" y2="308.05" fill="none" stroke="red" stroke-miterlimit="11.34" stroke-width=".57"/>
      <circle cx="403.2" cy="302.38" r="4.25" fill="none" stroke="red" stroke-miterlimit="11.34" stroke-width=".43"/>
    </g>
    <g>
      <line x1="354.33" y1="302.38" x2="365.67" y2="302.38" fill="none" stroke="red" stroke-miterlimit="11.34" stroke-width=".57"/>
      <line x1="360" y1="296.71" x2="360" y2="308.05" fill="none" stroke="red" stroke-miterlimit="11.34" stroke-width=".57"/>
      <circle cx="360" cy="302.38" r="4.25" fill="none" stroke="red" stroke-miterlimit="11.34" stroke-width=".43"/>
    </g>
    <g>
      <line x1="209.76" y1="289.13" x2="221.1" y2="289.13" fill="none" stroke="red" stroke-miterlimit="11.34" stroke-width=".57"/>
      <line x1="215.43" y1="283.46" x2="215.43" y2="294.8" fill="none" stroke="red" stroke-miterlimit="11.34" stroke-width=".57"/>
      <circle cx="215.43" cy="289.13" r="4.25" fill="none" stroke="red" stroke-miterlimit="11.34" stroke-width=".43"/>
    </g>
    <g>
      <line x1="303.05" y1="235.28" x2="314.39" y2="235.28" fill="none" stroke="red" stroke-miterlimit="11.34" stroke-width=".57"/>
      <line x1="308.72" y1="229.61" x2="308.72" y2="240.95" fill="none" stroke="red" stroke-miterlimit="11.34" stroke-width=".57"/>
      <circle cx="308.72" cy="235.28" r="4.25" fill="none" stroke="red" stroke-miterlimit="11.34" stroke-width=".43"/>
    </g>
    <g>
      <line x1="303.05" y1="127.56" x2="314.39" y2="127.56" fill="none" stroke="red" stroke-miterlimit="11.34" stroke-width=".57"/>
      <line x1="308.72" y1="121.89" x2="308.72" y2="133.23" fill="none" stroke="red" stroke-miterlimit="11.34" stroke-width=".57"/>
      <circle cx="308.72" cy="127.56" r="4.25" fill="none" stroke="red" stroke-miterlimit="11.34" stroke-width=".43"/>
    </g>
    <g>
      <line x1="209.76" y1="73.7" x2="221.1" y2="73.7" fill="none" stroke="red" stroke-miterlimit="11.34" stroke-width=".57"/>
      <line x1="215.43" y1="68.03" x2="215.43" y2="79.37" fill="none" stroke="red" stroke-miterlimit="11.34" stroke-width=".57"/>
      <circle cx="215.43" cy="73.7" r="4.25" fill="none" stroke="red" stroke-miterlimit="11.34" stroke-width=".43"/>
    </g>
    <g>
      <line x1="116.48" y1="127.56" x2="127.82" y2="127.56" fill="none" stroke="red" stroke-miterlimit="11.34" stroke-width=".57"/>
      <line x1="122.15" y1="121.89" x2="122.15" y2="133.23" fill="none" stroke="red" stroke-miterlimit="11.34" stroke-width=".57"/>
      <circle cx="122.15" cy="127.56" r="4.25" fill="none" stroke="red" stroke-miterlimit="11.34" stroke-width=".43"/>
    </g>
    <g>
      <line x1="116.48" y1="235.28" x2="127.82" y2="235.28" fill="none" stroke="red" stroke-miterlimit="11.34" stroke-width=".57"/>
      <line x1="122.15" y1="229.61" x2="122.15" y2="240.95" fill="none" stroke="red" stroke-miterlimit="11.34" stroke-width=".57"/>
      <circle cx="122.15" cy="235.28" r="4.25" fill="none" stroke="red" stroke-miterlimit="11.34" stroke-width=".43"/>
    </g>
    <g>
      <line x1="279.21" y1="301.71" x2="290.55" y2="301.71" fill="none" stroke="red" stroke-miterlimit="11.34" stroke-width=".57"/>
      <line x1="284.88" y1="296.04" x2="284.88" y2="307.38" fill="none" stroke="red" stroke-miterlimit="11.34" stroke-width=".57"/>
      <circle cx="284.88" cy="301.71" r="4.25" fill="none" stroke="red" stroke-miterlimit="11.34" stroke-width=".43"/>
    </g>
    <g>
      <line x1="348.66" y1="181.42" x2="360" y2="181.42" fill="none" stroke="red" stroke-miterlimit="11.34" stroke-width=".57"/>
      <line x1="354.33" y1="175.75" x2="354.33" y2="187.09" fill="none" stroke="red" stroke-miterlimit="11.34" stroke-width=".57"/>
      <circle cx="354.33" cy="181.42" r="4.25" fill="none" stroke="red" stroke-miterlimit="11.34" stroke-width=".43"/>
    </g>
    <g>
      <line x1="279.21" y1="61.13" x2="290.55" y2="61.13" fill="none" stroke="red" stroke-miterlimit="11.34" stroke-width=".57"/>
      <line x1="284.88" y1="55.46" x2="284.88" y2="66.8" fill="none" stroke="red" stroke-miterlimit="11.34" stroke-width=".57"/>
      <circle cx="284.88" cy="61.13" r="4.25" fill="none" stroke="red" stroke-miterlimit="11.34" stroke-width=".43"/>
    </g>
    <g>
      <line x1="140.31" y1="61.13" x2="151.65" y2="61.13" fill="none" stroke="red" stroke-miterlimit="11.34" stroke-width=".57"/>
      <line x1="145.98" y1="55.46" x2="145.98" y2="66.8" fill="none" stroke="red" stroke-miterlimit="11.34" stroke-width=".57"/>
      <circle cx="145.98" cy="61.13" r="4.25" fill="none" stroke="red" stroke-miterlimit="11.34" stroke-width=".43"/>
    </g>
    <g>
      <line x1="70.87" y1="181.42" x2="82.21" y2="181.42" fill="none" stroke="red" stroke-miterlimit="11.34" stroke-width=".57"/>
      <line x1="76.54" y1="175.75" x2="76.54" y2="187.09" fill="none" stroke="red" stroke-miterlimit="11.34" stroke-width=".57"/>
      <circle cx="76.54" cy="181.42" r="4.25" fill="none" stroke="red" stroke-miterlimit="11.34" stroke-width=".43"/>
    </g>
    <g>
      <line x1="140.31" y1="301.71" x2="151.65" y2="301.71" fill="none" stroke="red" stroke-miterlimit="11.34" stroke-width=".57"/>
      <line x1="145.98" y1="296.04" x2="145.98" y2="307.38" fill="none" stroke="red" stroke-miterlimit="11.34" stroke-width=".57"/>
      <circle cx="145.98" cy="301.71" r="4.25" fill="none" stroke="red" stroke-miterlimit="11.34" stroke-width=".43"/>
    </g>
  </g>
</svg>