<?xml version="1.0" encoding="UTF-8"?>
<svg xmlns="http://www.w3.org/2000/svg" width="223.52mm" height="128.5mm" viewBox="0 0 633.6 364.25">
  <g id="Background">
    <rect y=".55" width="633.6" height="364.25" fill="#f0f0f0"/>
    <path d="M212.59,244.8h55.6c1.81,0,3.29,1.47,3.29,3.29v98.99c0,1.39-1.13,2.51-2.51,2.51h-57.15c-1.39,0-2.51-1.13-2.51-2.51v-98.99c0-1.81,1.47-3.29,3.29-3.29Z" fill="#231f20"/>
    <line x1="91.62" y1="122.53" x2="271.65" y2="122.53" fill="none" stroke="#606060" stroke-miterlimit="10" stroke-width=".5"/>
    <line x1="91.62" y1="160.43" x2="271.65" y2="160.43" fill="none" stroke="#606060" stroke-miterlimit="10" stroke-width=".5"/>
    <line x1="91.62" y1="141.48" x2="271.65" y2="141.48" fill="none" stroke="#606060" stroke-miterlimit="10" stroke-width=".5"/>
    <line x1="91.62" y1="150.86" x2="271.65" y2="150.86" fill="none" stroke="#606060" stroke-miterlimit="10" stroke-width=".5"/>
    <line x1="91.62" y1="132" x2="271.65" y2="132" fill="none" stroke="#606060" stroke-miterlimit="10" stroke-width=".5"/>
    <line x1="91.62" y1="112.97" x2="271.65" y2="112.97" fill="none" stroke="#606060" stroke-miterlimit="10" stroke-width=".5"/>
    <line x1="91.62" y1="93.82" x2="271.65" y2="93.82" fill="none" stroke="#606060" stroke-miterlimit="10" stroke-width=".5"/>
    <line x1="91.62" y1="84.25" x2="271.65" y2="84.25" fill="none" stroke="#606060" stroke-miterlimit="10" stroke-width=".5"/>
    <line x1="91.62" y1="103.39" x2="271.65" y2="103.39" fill="none" stroke="#606060" stroke-miterlimit="10" stroke-width=".5"/>
    <line x1="96.71" y1="274.04" x2="96.71" y2="341.78" fill="none" stroke="#606060" stroke-miterlimit="10" stroke-width=".5"/>
    <line x1="190.28" y1="274.04" x2="190.28" y2="341.78" fill="none" stroke="#606060" stroke-miterlimit="10" stroke-width=".5"/>
    <line x1="143.5" y1="274.04" x2="143.5" y2="341.78" fill="none" stroke="#606060" stroke-miterlimit="10" stroke-width=".5"/>
    <line x1="120.11" y1="274.04" x2="120.11" y2="341.78" fill="none" stroke="#606060" stroke-miterlimit="10" stroke-width=".5"/>
    <line x1="166.9" y1="274.04" x2="166.9" y2="341.78" fill="none" stroke="#606060" stroke-miterlimit="10" stroke-width=".5"/>
    <line x1="178.59" y1="274.04" x2="178.59" y2="341.78" fill="none" stroke="#606060" stroke-miterlimit="10" stroke-width=".5"/>
    <line x1="155.19" y1="274.04" x2="155.19" y2="341.78" fill="none" stroke="#606060" stroke-miterlimit="10" stroke-width=".5"/>
    <line x1="131.8" y1="274.04" x2="131.8" y2="341.78" fill="none" stroke="#606060" stroke-miterlimit="10" stroke-width=".5"/>
    <line x1="108.41" y1="274.04" x2="108.41" y2="341.78" fill="none" stroke="#606060" stroke-miterlimit="10" stroke-width=".5"/>
    <g>
      <path d="M19.05,44.03v2.7h-.76v-6.28h2.5c.37,0,.68.07.94.21.26.14.46.34.6.6.14.26.21.59.21.97,0,.46-.11.83-.32,1.13-.22.3-.53.5-.94.59l1.44,2.77h-.85l-1.36-2.7h-1.47.01ZM19.05,43.38h1.75c.2,0,.37-.03.51-.1s.25-.17.32-.31c.08-.14.11-.3.11-.49v-.47c0-.19-.04-.36-.11-.49-.08-.13-.18-.24-.32-.31-.14-.07-.31-.1-.51-.1h-1.75v2.27Z"/>
      <path d="M26.09,46.84c-.54,0-1.01-.12-1.41-.37s-.71-.61-.93-1.1c-.22-.48-.33-1.08-.33-1.78s.11-1.29.33-1.78c.22-.48.53-.85.93-1.1s.87-.37,1.41-.37,1.01.12,1.41.37c.4.25.71.62.93,1.1.22.48.33,1.08.33,1.78s-.11,1.29-.33,1.78c-.22.48-.53.85-.93,1.1s-.87.37-1.41.37ZM26.09,46.16c.37,0,.69-.09.96-.26.28-.17.49-.41.65-.72s.24-.67.24-1.08v-1.04c0-.41-.08-.78-.24-1.08-.16-.31-.38-.55-.65-.72s-.6-.25-.96-.25-.68.08-.96.25-.5.41-.66.72-.24.67-.24,1.08v1.04c0,.41.08.77.24,1.08s.38.54.66.72c.28.17.6.26.96.26Z"/>
      <path d="M32.24,46.84c-.54,0-1.01-.12-1.41-.37s-.71-.61-.93-1.1c-.22-.48-.33-1.08-.33-1.78s.11-1.29.33-1.78c.22-.48.53-.85.93-1.1s.87-.37,1.41-.37,1.01.12,1.41.37c.4.25.71.62.93,1.1.22.48.33,1.08.33,1.78s-.11,1.29-.33,1.78c-.22.48-.53.85-.93,1.1s-.87.37-1.41.37ZM32.24,46.16c.37,0,.69-.09.96-.26.28-.17.49-.41.65-.72s.24-.67.24-1.08v-1.04c0-.41-.08-.78-.24-1.08-.16-.31-.38-.55-.65-.72s-.6-.25-.96-.25-.68.08-.96.25-.5.41-.66.72-.24.67-.24,1.08v1.04c0,.41.08.77.24,1.08s.38.54.66.72c.28.17.6.26.96.26Z"/>
      <path d="M39.97,41.11h-2v5.62h-.76v-5.62h-2v-.67h4.75v.67h.01Z"/>
    </g>
    <g>
      <path d="M54.7,46.84c-.5,0-.94-.1-1.3-.29-.36-.19-.67-.46-.92-.81l.56-.47c.22.29.47.52.74.67.27.15.59.23.95.23.45,0,.79-.11,1.03-.32.24-.22.36-.5.36-.86,0-.2-.04-.37-.12-.5s-.2-.25-.37-.35c-.17-.09-.39-.17-.67-.23l-.51-.12c-.38-.09-.7-.21-.96-.35s-.46-.33-.6-.56-.21-.5-.21-.82c0-.37.09-.69.26-.94s.42-.45.73-.58.68-.2,1.08-.2c.47,0,.88.09,1.22.26.34.17.63.43.86.77l-.57.41c-.17-.24-.38-.43-.63-.57s-.56-.21-.92-.21c-.4,0-.72.09-.95.26s-.35.43-.35.76c0,.2.04.36.13.5.09.13.22.24.39.33s.39.16.66.22l.51.12c.41.09.74.21,1,.37s.45.35.57.58c.12.23.18.5.18.81,0,.38-.09.72-.26,1s-.42.5-.74.66c-.32.16-.71.23-1.16.23h0Z"/>
      <path d="M60.16,46.84c-.53,0-.98-.12-1.36-.36s-.67-.6-.87-1.08c-.2-.48-.3-1.07-.3-1.77s.1-1.3.3-1.79.49-.86.87-1.12c.38-.26.83-.38,1.36-.38s.96.12,1.32.36c.36.24.64.58.84,1.02l-.61.37c-.13-.32-.32-.58-.58-.78s-.58-.29-.97-.29c-.54,0-.96.2-1.26.59s-.45.91-.45,1.55v.94c0,.64.15,1.15.45,1.52s.72.55,1.26.55c.4,0,.74-.1,1.01-.31s.47-.48.59-.82l.6.38c-.2.44-.48.79-.86,1.04-.38.26-.82.39-1.35.39h.01Z"/>
      <path d="M68.03,46.73h-.79l-.63-1.85h-2.54l-.63,1.85h-.77l2.2-6.28h.96l2.2,6.28ZM66.42,44.21l-.79-2.28-.27-.78h-.04l-.27.78-.79,2.28h2.17-.01Z"/>
      <path d="M72.28,46.73h-3.43v-6.28h.76v5.62h2.67v.67h0Z"/>
      <path d="M76.98,46.73h-3.83v-6.28h3.83v.67h-3.08v2.11h2.9v.67h-2.9v2.18h3.08v.67-.02Z"/>
    </g>
    <g>
      <path d="M18.77,126.02c-.5,0-.94-.1-1.3-.29-.36-.19-.67-.46-.92-.81l.56-.47c.22.29.47.52.74.67.27.15.59.23.95.23.45,0,.79-.11,1.03-.32.24-.22.36-.5.36-.86,0-.2-.04-.37-.12-.5s-.2-.25-.37-.35c-.17-.09-.39-.17-.67-.23l-.51-.12c-.38-.09-.7-.21-.96-.35s-.46-.33-.6-.56-.21-.5-.21-.82c0-.37.09-.69.26-.94s.42-.45.73-.58.68-.2,1.08-.2c.47,0,.88.09,1.22.26.34.17.63.43.86.77l-.57.41c-.17-.24-.38-.43-.63-.57s-.56-.21-.92-.21c-.4,0-.72.09-.95.26s-.35.43-.35.76c0,.2.04.36.13.5.09.13.22.24.39.33s.39.16.66.22l.51.12c.41.09.74.21,1,.37s.45.35.57.58.18.5.18.81c0,.38-.09.72-.26,1s-.42.5-.74.66-.71.23-1.16.23h.01Z"/>
      <path d="M26.01,120.29h-2v5.62h-.76v-5.62h-2v-.67h4.75v.67h.01Z"/>
      <path d="M30.65,125.91h-3.83v-6.28h3.83v.67h-3.08v2.11h2.9v.67h-2.9v2.18h3.08v.67-.02Z"/>
      <path d="M32.59,125.91h-.76v-6.28h2.5c.38,0,.7.07.96.22.26.15.46.35.59.62.13.27.2.59.2.96s-.07.68-.2.95c-.14.27-.33.48-.59.63-.26.15-.58.22-.96.22h-1.75v2.68h.01ZM32.59,120.29v2.27h1.75c.2,0,.37-.03.51-.1s.25-.17.32-.31c.08-.14.11-.3.11-.49v-.47c0-.19-.04-.36-.11-.49-.08-.13-.18-.24-.32-.31s-.31-.1-.51-.1c0,0-1.75,0-1.75,0Z"/>
      <path d="M38.83,126.02c-.5,0-.94-.1-1.3-.29s-.67-.46-.92-.81l.56-.47c.22.29.47.52.74.67s.59.23.95.23c.45,0,.79-.11,1.03-.32.24-.22.36-.5.36-.86,0-.2-.04-.37-.12-.5s-.2-.25-.37-.35c-.17-.09-.39-.17-.67-.23l-.51-.12c-.38-.09-.7-.21-.96-.35s-.46-.33-.6-.56-.21-.5-.21-.82c0-.37.09-.69.26-.94s.42-.45.73-.58c.31-.13.68-.2,1.08-.2.47,0,.88.09,1.22.26.34.17.63.43.86.77l-.57.41c-.17-.24-.38-.43-.63-.57s-.56-.21-.92-.21c-.4,0-.72.09-.95.26s-.35.43-.35.76c0,.2.04.36.13.5.09.13.22.24.39.33s.39.16.66.22l.51.12c.41.09.74.21,1,.37s.45.35.57.58.18.5.18.81c0,.38-.09.72-.26,1s-.42.5-.74.66c-.32.16-.71.23-1.16.23h0Z"/>
    </g>
    <g>
      <path d="M17.54,198.95v2.7h-.76v-6.28h2.5c.37,0,.68.07.94.21.26.14.46.34.6.6.14.26.21.59.21.97,0,.46-.11.83-.32,1.13s-.53.5-.94.59l1.44,2.77h-.85l-1.36-2.7h-1.47.01ZM17.54,198.3h1.75c.2,0,.37-.03.51-.1s.25-.17.32-.31.11-.3.11-.49v-.47c0-.19-.04-.36-.11-.49-.08-.13-.18-.24-.32-.31-.14-.07-.31-.1-.51-.1h-1.75v2.27h0Z"/>
      <path d="M26.15,201.66h-3.83v-6.28h3.83v.67h-3.08v2.11h2.9v.67h-2.9v2.18h3.08v.67-.02Z"/>
      <path d="M29.11,201.77c-.5,0-.94-.1-1.3-.29-.36-.2-.67-.46-.92-.81l.56-.47c.22.29.47.52.74.67s.59.23.95.23c.45,0,.79-.11,1.03-.32.24-.22.36-.5.36-.86,0-.2-.04-.37-.12-.5-.08-.14-.2-.25-.37-.35s-.39-.17-.67-.23l-.51-.12c-.38-.09-.7-.21-.96-.35-.26-.14-.46-.33-.6-.56-.14-.23-.21-.5-.21-.82,0-.37.09-.69.26-.94s.42-.45.73-.58.68-.2,1.08-.2c.47,0,.88.09,1.22.26s.63.43.86.76l-.57.41c-.17-.24-.38-.43-.63-.57-.25-.14-.56-.21-.92-.21-.4,0-.72.09-.95.26s-.35.43-.35.76c0,.2.04.36.13.5s.22.24.39.33.39.16.66.22l.51.12c.41.09.74.21,1,.37s.45.35.57.58c.12.23.18.5.18.81,0,.38-.09.72-.26,1s-.42.5-.74.66-.71.23-1.16.23h.01Z"/>
      <path d="M36.18,201.66h-3.83v-6.28h3.83v.67h-3.08v2.11h2.9v.67h-2.9v2.18h3.08v.67-.02Z"/>
      <path d="M41.48,196.03h-2v5.62h-.76v-5.62h-2v-.67h4.75v.67h.01Z"/>
    </g>
    <g>
      <path d="M18.57,259.72c-.53,0-.98-.12-1.36-.36s-.67-.6-.87-1.08-.3-1.07-.3-1.77.1-1.3.3-1.79c.2-.49.49-.86.87-1.12s.83-.38,1.36-.38.96.12,1.32.36.64.58.84,1.02l-.61.37c-.13-.32-.32-.58-.58-.78-.26-.19-.58-.29-.97-.29-.54,0-.96.2-1.26.59s-.45.91-.45,1.55v.94c0,.64.15,1.15.45,1.52.3.37.72.55,1.26.55.4,0,.74-.1,1.01-.31s.47-.48.59-.82l.6.38c-.2.44-.48.79-.86,1.04s-.82.39-1.35.39h.01Z"/>
      <path d="M25.15,259.62h-3.43v-6.28h.76v5.62h2.67v.67h0Z"/>
      <path d="M28.08,259.72c-.54,0-1.01-.12-1.41-.37s-.71-.62-.93-1.1c-.22-.48-.33-1.08-.33-1.78s.11-1.29.33-1.78c.22-.48.53-.85.93-1.1s.87-.37,1.41-.37,1.01.12,1.41.37.71.62.93,1.1c.22.48.33,1.08.33,1.78s-.11,1.29-.33,1.78c-.22.48-.53.85-.93,1.1s-.87.37-1.41.37ZM28.08,259.05c.37,0,.69-.08.96-.26.28-.17.49-.41.65-.71.16-.31.24-.67.24-1.08v-1.04c0-.41-.08-.78-.24-1.08-.16-.31-.38-.55-.65-.71s-.6-.25-.96-.25-.68.08-.96.25-.5.41-.66.71c-.16.31-.24.67-.24,1.08v1.04c0,.41.08.77.24,1.08s.38.54.66.71c.28.17.6.26.96.26Z"/>
      <path d="M34.09,259.72c-.53,0-.98-.12-1.36-.36s-.67-.6-.87-1.08-.3-1.07-.3-1.77.1-1.3.3-1.79c.2-.49.49-.86.87-1.12s.83-.38,1.36-.38.96.12,1.32.36.64.58.84,1.02l-.61.37c-.13-.32-.32-.58-.58-.78-.26-.19-.58-.29-.97-.29-.54,0-.96.2-1.26.59-.3.39-.45.91-.45,1.55v.94c0,.64.15,1.15.45,1.52.3.37.72.55,1.26.55.4,0,.74-.1,1.01-.31s.47-.48.59-.82l.6.38c-.2.44-.48.79-.86,1.04s-.82.39-1.35.39h.01Z"/>
      <path d="M40.98,259.62l-2.09-3.09-.89.99v2.1h-.76v-6.28h.76v3.34h.03l.9-1.09,1.9-2.25h.93l-2.34,2.69,2.5,3.59h-.94Z"/>
    </g>
    <path d="M10.84,286.37h-.79l-.63-1.85h-2.53l-.63,1.85h-.77l2.2-6.28h.96l2.2,6.28h-.01ZM9.23,283.85l-.79-2.28-.27-.78h-.04l-.27.78-.79,2.28h2.17-.01Z"/>
    <path d="M6.07,311.24v-6.28h2.58c.52,0,.92.15,1.22.44s.45.69.45,1.18c0,.31-.06.56-.17.75s-.25.32-.41.41-.31.15-.45.17v.05c.11,0,.24.04.38.09s.28.14.4.26c.13.11.24.26.32.44s.13.4.13.67c0,.34-.07.65-.21.93s-.33.49-.58.65c-.24.16-.52.24-.83.24h-2.83ZM6.82,305.63v2.05h1.74c.2,0,.37-.03.51-.1s.25-.17.33-.3.12-.29.12-.47v-.31c0-.19-.04-.34-.12-.47s-.19-.23-.33-.3-.31-.1-.51-.1h-1.74ZM6.82,308.33v2.25h1.86c.22,0,.4-.04.56-.11.16-.08.28-.18.36-.33.08-.14.13-.32.13-.53v-.31c0-.21-.04-.39-.13-.53-.08-.14-.2-.25-.36-.33s-.34-.11-.56-.11h-1.86Z"/>
    <path d="M8.42,336.22c-.53,0-.98-.12-1.36-.36s-.67-.6-.87-1.08c-.2-.48-.3-1.07-.3-1.77s.1-1.3.3-1.79c.2-.49.49-.86.87-1.12s.83-.38,1.36-.38.96.12,1.32.36c.36.24.64.58.84,1.02l-.61.37c-.13-.32-.32-.58-.58-.78-.26-.2-.58-.29-.97-.29-.54,0-.96.2-1.26.59-.3.39-.45.91-.45,1.55v.94c0,.64.15,1.15.45,1.52.3.37.72.55,1.26.55.4,0,.74-.1,1.01-.31s.47-.48.59-.82l.6.38c-.2.44-.48.79-.86,1.04-.38.26-.82.39-1.35.39h.01Z"/>
    <g>
      <path d="M99.26,259.62h-.84l-1.53-6.28h.8l.67,3.02.52,2.35h.02l.58-2.35.79-3.02h.86l.77,3.02.58,2.34h.03l.54-2.34.71-3.02h.77l-1.61,6.28h-.84l-.82-3.13-.58-2.3h-.02l-.59,2.3-.84,3.13h.03Z"/>
      <path d="M110.04,259.62h-.79l-.63-1.85h-2.54l-.63,1.85h-.77l2.2-6.28h.96l2.2,6.28ZM108.43,257.1l-.79-2.28-.27-.78h-.04l-.27.78-.79,2.28h2.17-.01Z"/>
      <path d="M114.67,259.62l-2.29-3.83-.76-1.4h-.03v5.23h-.74v-6.28h.87l2.29,3.83.76,1.39h.03v-5.23h.74v6.28h-.87Z"/>
      <path d="M117,259.62v-6.28h2.11c.52,0,.98.12,1.36.35.39.23.69.58.9,1.04.21.46.31,1.05.31,1.75s-.1,1.29-.31,1.75-.51.81-.9,1.04-.84.35-1.36.35h-2.11ZM117.75,258.95h1.35c.35,0,.65-.08.92-.23s.47-.38.62-.67.23-.64.23-1.06v-1.03c0-.41-.08-.77-.23-1.06s-.36-.52-.62-.67-.57-.23-.92-.23h-1.35v4.95h0Z"/>
      <path d="M126.64,259.62h-3.83v-6.28h3.83v.67h-3.08v2.11h2.9v.67h-2.9v2.18h3.08v.67-.02Z"/>
      <path d="M128.59,256.92v2.7h-.76v-6.28h2.5c.37,0,.68.07.94.21s.46.34.6.6c.14.26.21.59.21.97,0,.46-.11.83-.32,1.13s-.53.5-.94.59l1.44,2.77h-.85l-1.36-2.7h-1.47.01ZM128.59,256.27h1.75c.2,0,.37-.03.51-.1s.25-.17.32-.31.11-.3.11-.49v-.47c0-.19-.04-.36-.11-.49-.08-.13-.18-.24-.32-.31-.14-.07-.31-.1-.51-.1h-1.75v2.27h0Z"/>
    </g>
    <g>
      <path d="M56.26,126.02c-.5,0-.94-.1-1.3-.29s-.67-.46-.92-.81l.56-.47c.22.29.47.52.74.67s.59.23.95.23c.45,0,.79-.11,1.03-.32.24-.22.36-.5.36-.86,0-.2-.04-.37-.12-.5s-.2-.25-.37-.35c-.17-.09-.39-.17-.67-.23l-.51-.12c-.38-.09-.7-.21-.96-.35s-.46-.33-.6-.56-.21-.5-.21-.82c0-.37.09-.69.26-.94s.42-.45.73-.58.68-.2,1.08-.2c.47,0,.88.09,1.22.26.34.17.63.43.86.77l-.57.41c-.17-.24-.38-.43-.63-.57s-.56-.21-.92-.21c-.4,0-.72.09-.95.26s-.35.43-.35.76c0,.2.04.36.13.5.09.13.22.24.39.33s.39.16.66.22l.51.12c.41.09.74.21,1,.37s.45.35.57.58.18.5.18.81c0,.38-.09.72-.26,1s-.42.5-.74.66c-.32.16-.71.23-1.16.23h0Z"/>
      <path d="M62.93,125.91h-3.43v-6.28h.76v5.62h2.67v.67h0Z"/>
      <path d="M67.62,125.91h-3.83v-6.28h3.83v.67h-3.08v2.11h2.9v.67h-2.9v2.18h3.08v.67-.02Z"/>
      <path d="M70.52,125.91h-.84l-1.53-6.28h.8l.67,3.02.52,2.35h.02l.58-2.35.79-3.02h.86l.77,3.02.58,2.34h.03l.54-2.34.71-3.02h.77l-1.61,6.28h-.84l-.82-3.13-.58-2.3h-.02l-.59,2.3-.84,3.13h.03Z"/>
    </g>
    <g>
      <path d="M221.04,259.62v-.92h-.03c-.08.29-.27.54-.57.73s-.69.29-1.17.29c-.51,0-.96-.12-1.36-.37-.39-.25-.7-.62-.92-1.1-.22-.48-.33-1.08-.33-1.78s.11-1.29.33-1.77c.22-.48.53-.85.94-1.1.4-.25.87-.38,1.4-.38.56,0,1.04.13,1.41.38s.67.59.87.99l-.62.38c-.14-.34-.36-.6-.64-.79-.29-.19-.62-.29-1.02-.29-.37,0-.69.08-.97.26s-.5.41-.66.72-.23.67-.23,1.08v1.02c0,.41.08.78.23,1.08.16.31.38.55.67.72s.63.26,1.03.26c.29,0,.56-.05.8-.15.24-.1.43-.25.58-.46.15-.2.22-.46.22-.76v-.62h-1.39v-.67h2.12v3.23h-.7v.02Z" fill="#fff"/>
      <path d="M227.74,259.62h-.79l-.63-1.85h-2.54l-.63,1.85h-.76l2.2-6.28h.96l2.2,6.28h-.01ZM226.13,257.1l-.79-2.28-.27-.78h-.04l-.27.78-.79,2.28h2.17-.01Z" fill="#fff"/>
      <path d="M232.09,254h-2v5.62h-.76v-5.62h-2v-.67h4.75v.67h0Z" fill="#fff"/>
      <path d="M236.73,259.62h-3.83v-6.28h3.83v.67h-3.08v2.11h2.9v.67h-2.9v2.18h3.08v.67-.02Z" fill="#fff"/>
    </g>
    <g>
      <path d="M251.68,259.72c-.53,0-.98-.12-1.36-.36s-.67-.6-.87-1.08-.3-1.07-.3-1.77.1-1.3.3-1.79c.2-.49.49-.86.87-1.12s.83-.38,1.36-.38.96.12,1.32.36.64.58.84,1.02l-.61.37c-.13-.32-.32-.58-.58-.78-.26-.19-.58-.29-.97-.29-.54,0-.96.2-1.26.59-.3.39-.46.91-.46,1.55v.94c0,.64.15,1.15.46,1.52.3.37.72.55,1.26.55.4,0,.74-.1,1.01-.31.27-.21.47-.48.59-.82l.6.38c-.2.44-.48.79-.86,1.04s-.82.39-1.35.39h.01Z" fill="#fff"/>
      <path d="M257.19,259.62h-.92l-2.09-6.28h.81l1.03,3.17.69,2.36h.04l.71-2.36,1.04-3.17h.78l-2.12,6.28h.03Z" fill="#fff"/>
    </g>
    <line x1="64.82" y1="283.04" x2="95.16" y2="283.04" fill="none" stroke="#606060" stroke-miterlimit="10" stroke-width=".5"/>
    <line x1="64.82" y1="307.91" x2="95.16" y2="307.91" fill="none" stroke="#606060" stroke-miterlimit="10" stroke-width=".5"/>
    <line x1="64.82" y1="332.78" x2="95.16" y2="332.78" fill="none" stroke="#606060" stroke-miterlimit="10" stroke-width=".5"/>
  </g>
  <g id="UI">
    <rect x="302.4" y="245.35" width="230.37" height="100.77" rx="2.37" ry="2.37"/>
    <rect x="590.4" y="245.35" width="28.8" height="100.77" rx="2.37" ry="2.37"/>
    <g>
      <path id="path12" d="M561.65,23.35h1.7v-1.7h1.7v3.4h1.7v-5.1h1.7v6.8h1.7v-8.5h1.7v8.5h1.7v-5.1h1.7v3.4h1.7v-1.7h1.7" fill="none" stroke="#b2b2b2" stroke-linecap="round" stroke-linejoin="round" stroke-width=".85"/>
      <path id="path13" d="M581.17,26.75l5.1-8.5c0,1.86,1.43,5.1,3.4,5.1h6.8l1.7,3.4" fill="none" stroke="#b2b2b2" stroke-linecap="square" stroke-linejoin="bevel" stroke-width=".85"/>
      <path id="path17" d="M603.9,18.25h-1.7v10.2h1.7" fill="none" stroke="#b2b2b2" stroke-linecap="square" stroke-linejoin="bevel" stroke-width=".85"/>
      <path id="path18" d="M617.5,18.25h1.7v10.2h-1.7" fill="none" stroke="#b2b2b2" stroke-linecap="square" stroke-linejoin="bevel" stroke-width=".85"/>
      <path id="path21" d="M605.6,19.15l3.4,3.4" fill="none" stroke="#b2b2b2" stroke-linejoin="bevel" stroke-width=".85"/>
      <path id="path22" d="M609,19.15l-3.4,3.4" fill="none" stroke="#b2b2b2" stroke-linejoin="bevel" stroke-width=".85"/>
      <path id="path23-5" d="M605.6,24.25l3.4,3.4" fill="none" stroke="#b2b2b2" stroke-linejoin="bevel" stroke-width=".85"/>
      <path id="path24" d="M605.6,27.65l3.4-3.4" fill="none" stroke="#b2b2b2" stroke-linejoin="bevel" stroke-width=".85"/>
      <path id="path25-3" d="M612.4,19.15l3.4,3.4" fill="none" stroke="#b2b2b2" stroke-linejoin="bevel" stroke-width=".85"/>
      <path id="path26-7" d="M615.8,19.15l-3.4,3.4" fill="none" stroke="#b2b2b2" stroke-linejoin="bevel" stroke-width=".85"/>
      <rect id="rect26" x="612.4" y="24.25" width="3.4" height="3.4" fill="none" stroke="#b2b2b2" stroke-linejoin="bevel" stroke-width=".85"/>
    </g>
    <line x1="302.4" y1="96.37" x2="619.2" y2="96.37" fill="none" stroke="#b2b2b2" stroke-miterlimit="11.34" stroke-width=".5"/>
    <line x1="316.8" y1="130.15" x2="345.6" y2="130.15" fill="none" stroke="#b2b2b2" stroke-miterlimit="11.34" stroke-width=".5"/>
    <line x1="316.8" y1="173.35" x2="345.6" y2="173.35" fill="none" stroke="#b2b2b2" stroke-miterlimit="11.34" stroke-width=".5"/>
    <line x1="316.8" y1="216.55" x2="345.6" y2="216.55" fill="none" stroke="#b2b2b2" stroke-miterlimit="11.34" stroke-width=".5"/>
    <line x1="403.2" y1="130.15" x2="432" y2="130.15" fill="none" stroke="#b2b2b2" stroke-miterlimit="11.34" stroke-width=".5"/>
    <line x1="403.2" y1="173.35" x2="432" y2="173.35" fill="none" stroke="#b2b2b2" stroke-miterlimit="11.34" stroke-width=".5"/>
    <line x1="403.2" y1="216.55" x2="432" y2="216.55" fill="none" stroke="#b2b2b2" stroke-miterlimit="11.34" stroke-width=".5"/>
    <line x1="489.6" y1="130.15" x2="518.4" y2="130.15" fill="none" stroke="#b2b2b2" stroke-miterlimit="11.34" stroke-width=".5"/>
    <line x1="489.6" y1="173.35" x2="518.4" y2="173.35" fill="none" stroke="#b2b2b2" stroke-miterlimit="11.34" stroke-width=".5"/>
    <line x1="489.6" y1="216.55" x2="518.4" y2="216.55" fill="none" stroke="#b2b2b2" stroke-miterlimit="11.34" stroke-width=".5"/>
    <line x1="576" y1="130.15" x2="604.8" y2="130.15" fill="none" stroke="#b2b2b2" stroke-miterlimit="11.34" stroke-width=".5"/>
    <line x1="576" y1="173.35" x2="604.8" y2="173.35" fill="none" stroke="#b2b2b2" stroke-miterlimit="11.34" stroke-width=".5"/>
    <line x1="576" y1="216.55" x2="604.8" y2="216.55" fill="none" stroke="#b2b2b2" stroke-miterlimit="11.34" stroke-width=".5"/>
    <line x1="316.8" y1="79.75" x2="345.6" y2="79.75" fill="none" stroke="#b2b2b2" stroke-miterlimit="11.34" stroke-width=".5"/>
    <line x1="374.41" y1="96.55" x2="374.41" y2="238.15" fill="none" stroke="#b2b2b2" stroke-miterlimit="10" stroke-width=".5"/>
    <line x1="461.13" y1="96.55" x2="461.13" y2="238.21" fill="none" stroke="#b2b2b2" stroke-miterlimit="10" stroke-width=".5"/>
    <line x1="547.53" y1="96.55" x2="547.53" y2="238.21" fill="none" stroke="#b2b2b2" stroke-miterlimit="10" stroke-width=".5"/>
    <line x1="302.4" y1="238.15" x2="622.26" y2="238.15" fill="none" stroke="#b2b2b2" stroke-miterlimit="10" stroke-width=".5"/>
  </g>
  <g id="Text">
    <g>
      <rect x="14.4" y="17.35" width="86.4" height="12" fill="none"/>
      <path d="M15.01,26.5v-6.3h1.59l1.67,2.48,1.68-2.48h1.59v6.3h-1.45v-4.05l-1.82,2.66-1.83-2.66v4.05h-1.45Z" fill="#231f20"/>
      <path d="M22.55,26.5v-6.3h4.1v1.33h-2.66v1.15h2.22v1.29h-2.22v1.2h2.7v1.33h-4.15Z" fill="#231f20"/>
      <path d="M28.98,26.5v-4.97h-1.84v-1.33h5.11v1.33h-1.84v4.97h-1.44Z" fill="#231f20"/>
      <path d="M31.68,26.5l2.45-6.3h1.55l2.45,6.3h-1.53l-.46-1.2h-2.47l-.46,1.2h-1.53ZM34.14,24.02h1.52l-.76-2.02-.76,2.02Z" fill="#231f20"/>
      <path d="M38.58,26.5v-6.3h4.18v1.33h-2.73v1.21h2.21v1.32h-2.21v2.43h-1.45Z" fill="#231f20"/>
      <path d="M45.92,26.62c-.54,0-1.01-.1-1.4-.31-.39-.2-.69-.49-.9-.87s-.31-.82-.31-1.34v-3.91h1.45v3.91c0,.24.05.45.14.62.1.17.23.31.41.41.18.1.39.14.63.14s.45-.05.63-.14c.18-.1.32-.23.41-.41.1-.17.14-.38.14-.62v-3.91h1.45v3.91c0,.52-.11.96-.32,1.34s-.52.67-.92.87c-.4.2-.87.31-1.42.31Z" fill="#231f20"/>
      <path d="M52.44,26.61c-.65,0-1.22-.14-1.71-.42s-.88-.66-1.17-1.15c-.28-.49-.42-1.05-.42-1.69s.14-1.2.42-1.69c.28-.49.67-.87,1.17-1.15.5-.28,1.07-.42,1.71-.42.4,0,.77.06,1.09.18.33.12.61.28.86.48.25.2.45.44.61.7l-1.2.72c-.09-.14-.21-.27-.36-.39-.15-.11-.31-.2-.48-.27-.17-.06-.35-.09-.53-.09-.35,0-.67.08-.94.24-.27.16-.49.39-.64.68-.16.29-.23.62-.23,1s.08.71.23,1c.15.29.37.52.65.69s.61.25.98.25c.26,0,.49-.05.7-.14.21-.1.38-.23.5-.4s.2-.37.22-.59h-1.42v-1.12h2.82v.86c-.01.59-.14,1.08-.4,1.49s-.59.71-1.01.91-.91.31-1.45.31Z" fill="#231f20"/>
      <path d="M58.4,26.62c-.54,0-1.01-.1-1.4-.31-.39-.2-.69-.49-.9-.87s-.31-.82-.31-1.34v-3.91h1.45v3.91c0,.24.05.45.14.62.1.17.23.31.41.41.18.1.39.14.63.14s.45-.05.63-.14c.18-.1.32-.23.41-.41.1-.17.14-.38.14-.62v-3.91h1.45v3.91c0,.52-.11.96-.32,1.34s-.52.67-.92.87c-.4.2-.87.31-1.42.31Z" fill="#231f20"/>
      <path d="M61.97,26.5v-6.3h4.1v1.33h-2.66v1.15h2.22v1.29h-2.22v1.2h2.7v1.33h-4.15Z" fill="#231f20"/>
    </g>
    <g isolation="isolate">
      <path d="M307.82,62.95v-4.9h1.65c.33,0,.61.06.86.19s.45.31.59.53c.14.23.21.49.21.79,0,.32-.09.6-.27.85-.18.24-.42.42-.71.53l1.18,2.01h-.78l-1.09-1.88h-.96v1.88h-.69ZM308.51,60.44h1.03c.17,0,.32-.04.45-.12s.24-.18.32-.31c.08-.13.12-.28.12-.45,0-.26-.09-.47-.27-.64-.18-.16-.42-.25-.71-.25h-.95v1.76Z" fill="#231f20"/>
      <path d="M311.7,62.95l1.97-4.9h.73l1.97,4.9h-.73l-.53-1.31h-2.16l-.53,1.31h-.74ZM313.2,61.02h1.69l-.84-2.11-.85,2.11Z" fill="#231f20"/>
      <path d="M317.07,62.95v-4.9h.71l2.77,3.75v-3.75h.69v4.9h-.69l-2.79-3.79v3.79h-.69Z" fill="#231f20"/>
      <path d="M322.49,62.95v-4.9h1.51c.47,0,.88.1,1.24.31s.65.5.85.86.31.79.31,1.27-.1.9-.31,1.27-.49.66-.85.87-.78.31-1.24.31h-1.51ZM323.17,62.3h.83c.24,0,.46-.05.67-.14.21-.09.39-.22.54-.39.16-.17.28-.36.36-.58.09-.22.13-.46.13-.71s-.04-.49-.13-.71c-.09-.22-.21-.41-.36-.58-.16-.17-.34-.29-.54-.39-.21-.09-.43-.14-.67-.14h-.83v3.61Z" fill="#231f20"/>
      <path d="M329.45,63.03c-.48,0-.9-.11-1.27-.32-.37-.21-.66-.51-.87-.9-.21-.38-.31-.82-.31-1.31s.1-.94.31-1.32c.21-.38.49-.68.86-.9.36-.22.78-.33,1.26-.33s.9.11,1.26.33c.36.22.65.52.85.9.21.38.31.82.31,1.31s-.1.93-.31,1.32c-.21.38-.49.68-.85.9-.36.21-.78.32-1.25.32ZM329.45,62.4c.33,0,.63-.08.88-.25.26-.16.46-.39.6-.67s.22-.61.22-.99-.07-.7-.22-.98c-.15-.29-.35-.51-.61-.68-.26-.16-.56-.25-.89-.25s-.63.08-.9.25c-.26.16-.47.39-.61.68-.15.29-.22.62-.22.98s.08.7.22.99.36.51.62.67c.26.16.57.25.91.25Z" fill="#231f20"/>
      <path d="M332.78,62.95v-4.9h.73l1.62,2.4,1.62-2.4h.73v4.9h-.69v-3.79l-1.67,2.46-1.66-2.45v3.79h-.69Z" fill="#231f20"/>
      <path d="M342.01,63.03c-.26,0-.5-.03-.71-.09s-.4-.14-.55-.25-.29-.22-.39-.35c-.1-.13-.18-.27-.22-.41l.66-.22c.07.19.2.36.4.5.2.14.44.21.72.22.34,0,.62-.07.81-.21.2-.14.3-.32.3-.55,0-.21-.09-.38-.26-.51-.17-.13-.4-.23-.69-.3l-.57-.15c-.22-.06-.43-.15-.61-.26-.18-.11-.33-.25-.44-.43-.11-.17-.16-.38-.16-.62,0-.45.15-.8.44-1.05s.71-.38,1.26-.38c.32,0,.59.05.83.15.23.1.43.23.58.4.15.16.26.34.33.54l-.67.22c-.08-.21-.21-.38-.41-.51s-.43-.19-.71-.19-.53.07-.7.21-.25.33-.25.57c0,.21.07.36.2.47.13.11.31.19.54.25l.57.14c.46.11.81.3,1.06.56.25.26.37.54.37.85,0,.27-.07.51-.2.72s-.33.38-.59.5c-.26.12-.58.19-.96.19Z" fill="#231f20"/>
      <path d="M344.71,62.95v-4.9h2.95v.63h-2.26v1.46h2.04v.62h-2.04v1.57h2.27v.63h-2.96Z" fill="#231f20"/>
      <path d="M352.93,63.23l-.6-.6c-.19.13-.4.23-.63.3-.23.07-.48.1-.74.1-.48,0-.9-.11-1.27-.32-.37-.21-.66-.51-.86-.9-.21-.38-.31-.82-.31-1.32,0-.37.06-.71.18-1.02.12-.31.29-.57.5-.8s.47-.4.77-.52.62-.19.98-.19c.48,0,.9.11,1.27.33.36.22.65.52.85.9.21.38.31.82.31,1.31,0,.34-.05.66-.15.95-.1.29-.24.55-.42.76l.57.57-.44.44ZM350.97,62.4c.17,0,.32-.02.47-.07.14-.05.28-.12.41-.2l-.68-.69.45-.43.7.71c.12-.16.21-.35.27-.55.06-.2.1-.43.1-.67,0-.37-.07-.7-.22-.99-.15-.28-.35-.51-.61-.67-.26-.16-.56-.25-.9-.25s-.63.08-.89.25c-.26.16-.46.39-.61.67-.15.28-.22.61-.22.99s.07.7.22.99.36.51.62.67c.26.16.56.25.9.25Z" fill="#231f20"/>
    </g>
    <g isolation="isolate">
      <path d="M395.81,63.03c-.26,0-.5-.03-.71-.09-.21-.06-.4-.14-.55-.25-.16-.11-.29-.22-.39-.35-.1-.13-.17-.27-.22-.41l.67-.22c.07.19.2.36.4.5.2.14.44.21.72.22.34,0,.62-.07.82-.21s.3-.32.3-.55c0-.21-.09-.38-.26-.51-.17-.13-.4-.23-.69-.3l-.57-.15c-.22-.06-.43-.15-.61-.26s-.33-.25-.44-.43-.16-.38-.16-.62c0-.45.15-.8.44-1.05s.71-.38,1.26-.38c.32,0,.59.05.83.15s.43.23.58.4.26.34.33.54l-.67.22c-.08-.21-.21-.38-.41-.51-.19-.13-.43-.19-.71-.19-.29,0-.53.07-.7.21-.17.14-.25.33-.25.57,0,.21.07.36.2.47s.31.19.54.25l.57.14c.46.11.81.3,1.06.56.25.26.38.54.38.85,0,.27-.07.51-.2.72-.13.21-.33.38-.59.5-.26.12-.58.19-.96.19Z" fill="#231f20"/>
      <path d="M399.69,63.05c-.28,0-.53-.06-.75-.17-.22-.11-.39-.26-.51-.46-.13-.2-.19-.42-.19-.67,0-.2.04-.38.12-.54.08-.16.18-.3.31-.44.13-.13.27-.25.42-.36l.71-.49c.11-.08.21-.15.32-.23.11-.08.2-.17.28-.28.08-.11.12-.22.12-.35,0-.17-.06-.3-.18-.4-.12-.1-.27-.15-.45-.15-.16,0-.29.05-.41.15s-.17.23-.17.38c0,.13.04.25.12.35.08.1.18.23.3.37l.88,1.06,1.74,2.11h-.81l-1.45-1.74-.88-1.06c-.11-.14-.21-.28-.29-.39-.08-.12-.15-.23-.19-.35-.04-.11-.07-.23-.07-.35,0-.21.05-.4.16-.56.11-.17.25-.3.44-.39s.39-.14.61-.14c.25,0,.47.05.67.14.2.09.35.22.46.39.11.17.17.36.17.59,0,.19-.05.36-.15.52-.1.16-.23.32-.41.47s-.37.3-.59.46l-.51.36c-.1.07-.19.14-.28.22-.09.08-.16.17-.21.28s-.08.23-.08.38c0,.21.07.38.22.51s.33.2.57.2.45-.04.65-.12c.21-.08.39-.19.54-.33.16-.14.28-.32.37-.52.09-.21.13-.43.13-.69h.64c0,.43-.1.82-.3,1.16-.2.34-.48.6-.84.79-.35.19-.76.29-1.22.29Z" fill="#231f20"/>
      <path d="M403.02,62.95v-4.9h.69v2.06h2.64v-2.06h.69v4.9h-.69v-2.21h-2.64v2.21h-.69Z" fill="#231f20"/>
    </g>
    <g isolation="isolate">
      <path d="M309.41,113.43c-.26,0-.5-.03-.71-.09-.21-.06-.4-.14-.55-.25s-.29-.22-.39-.35c-.1-.13-.17-.27-.22-.41l.67-.22c.07.19.2.36.4.5.2.14.44.21.72.22.34,0,.62-.07.82-.21s.3-.32.3-.55c0-.21-.09-.38-.26-.51-.17-.13-.4-.23-.69-.3l-.57-.15c-.22-.06-.43-.15-.61-.26-.18-.11-.33-.25-.44-.43-.11-.17-.16-.38-.16-.62,0-.45.15-.8.44-1.05s.71-.38,1.26-.38c.32,0,.59.05.83.15.23.1.43.23.58.4.15.16.26.34.33.54l-.67.22c-.08-.21-.21-.38-.41-.51s-.43-.19-.71-.19c-.29,0-.53.07-.7.21-.17.14-.25.33-.25.57,0,.21.07.36.2.47.13.11.31.19.54.25l.57.14c.46.11.81.3,1.06.56.25.26.38.54.38.85,0,.27-.07.51-.2.72s-.33.38-.59.5-.58.19-.96.19Z" fill="#231f20"/>
      <path d="M313.1,113.35v-4.27h-1.53v-.63h3.76v.63h-1.53v4.27h-.69Z" fill="#231f20"/>
      <path d="M316.03,113.35v-4.9h2.95v.63h-2.26v1.46h2.04v.62h-2.04v1.57h2.28v.63h-2.96Z" fill="#231f20"/>
      <path d="M320.17,113.35v-4.9h1.65c.33,0,.62.07.87.2.25.13.45.32.59.56.14.24.21.51.21.82s-.07.57-.2.81c-.13.24-.31.42-.54.56-.23.14-.5.2-.79.2h-1.1v1.75h-.69ZM320.86,110.96h1.09c.25,0,.45-.09.61-.26.16-.18.24-.4.24-.68s-.09-.51-.28-.68c-.18-.18-.42-.26-.7-.26h-.96v1.88Z" fill="#231f20"/>
      <path d="M325.86,113.43c-.26,0-.5-.03-.71-.09-.21-.06-.4-.14-.55-.25s-.29-.22-.39-.35c-.1-.13-.18-.27-.22-.41l.67-.22c.07.19.2.36.4.5.2.14.44.21.72.22.35,0,.62-.07.82-.21s.3-.32.3-.55c0-.21-.09-.38-.26-.51-.17-.13-.4-.23-.69-.3l-.57-.15c-.22-.06-.43-.15-.61-.26-.18-.11-.33-.25-.44-.43-.11-.17-.16-.38-.16-.62,0-.45.15-.8.44-1.05.29-.25.71-.38,1.26-.38.32,0,.59.05.83.15.23.1.43.23.58.4.15.16.26.34.33.54l-.67.22c-.08-.21-.21-.38-.41-.51s-.43-.19-.71-.19-.53.07-.7.21c-.17.14-.26.33-.26.57,0,.21.07.36.2.47.13.11.31.19.54.25l.57.14c.46.11.81.3,1.06.56.25.26.37.54.37.85,0,.27-.07.51-.2.72s-.33.38-.59.5c-.26.12-.58.19-.96.19Z" fill="#231f20"/>
    </g>
    <g isolation="isolate">
      <path d="M394.22,112.64v-4.9h1.65c.33,0,.62.06.87.19.25.13.45.31.59.53.14.23.21.49.21.79,0,.32-.09.6-.27.85-.18.24-.42.42-.71.53l1.18,2.01h-.78l-1.09-1.88h-.96v1.88h-.69ZM394.91,110.13h1.03c.17,0,.32-.04.45-.12s.24-.18.32-.31c.08-.13.12-.28.12-.45,0-.26-.09-.47-.27-.64-.18-.16-.42-.25-.71-.25h-.95v1.76Z" fill="#231f20"/>
      <path d="M398.1,112.64l1.97-4.9h.74l1.97,4.9h-.73l-.53-1.31h-2.16l-.53,1.31h-.73ZM399.6,110.71h1.69l-.84-2.11-.85,2.11Z" fill="#231f20"/>
      <path d="M403.47,112.64v-4.9h.71l2.77,3.75v-3.75h.69v4.9h-.69l-2.79-3.79v3.79h-.69Z" fill="#231f20"/>
      <path d="M411.11,112.72c-.49,0-.93-.11-1.32-.33-.38-.22-.69-.52-.9-.9-.22-.38-.33-.82-.33-1.31s.11-.94.33-1.32c.22-.38.52-.68.9-.9.38-.22.83-.33,1.32-.33.27,0,.53.04.78.13.25.09.48.21.68.36.2.15.37.33.49.52l-.55.36c-.09-.15-.21-.27-.36-.39-.15-.11-.31-.2-.49-.26s-.36-.09-.54-.09c-.36,0-.68.08-.96.25-.28.16-.5.39-.66.67-.16.28-.24.62-.24.99s.08.7.23.98.38.51.66.67c.28.16.61.25.97.25.29,0,.55-.06.78-.18.23-.12.41-.28.54-.5.13-.21.2-.46.21-.74h-1.18v-.57h1.85v.5c0,.42-.1.8-.29,1.11-.19.32-.45.56-.78.74-.33.18-.71.26-1.14.26Z" fill="#231f20"/>
      <path d="M414.18,112.64v-4.9h2.95v.63h-2.26v1.46h2.04v.62h-2.04v1.57h2.27v.63h-2.96Z" fill="#231f20"/>
    </g>
    <g isolation="isolate">
      <path d="M481.43,112.72c-.26,0-.5-.03-.71-.09-.21-.06-.4-.14-.55-.25s-.29-.22-.39-.35c-.1-.13-.17-.27-.22-.41l.67-.22c.07.19.2.36.4.5.2.14.44.21.72.22.34,0,.62-.07.82-.21s.3-.32.3-.55c0-.21-.09-.38-.26-.51-.17-.13-.4-.23-.69-.3l-.57-.15c-.22-.06-.43-.15-.61-.26-.18-.11-.33-.25-.44-.43-.11-.17-.16-.38-.16-.62,0-.45.15-.8.44-1.05s.71-.38,1.26-.38c.32,0,.59.05.83.15.23.1.43.23.58.4.15.16.26.34.33.54l-.67.22c-.08-.21-.21-.38-.41-.51s-.43-.19-.71-.19c-.29,0-.53.07-.7.21-.17.14-.25.33-.25.57,0,.21.07.36.2.47.13.11.31.19.54.25l.57.14c.46.11.81.3,1.06.56.25.26.38.54.38.85,0,.27-.07.51-.2.72s-.33.38-.59.5-.58.19-.96.19Z" fill="#231f20"/>
      <path d="M484.13,112.64v-4.9h.69v4.27h2.28v.63h-2.96Z" fill="#231f20"/>
      <path d="M487.8,112.64v-4.9h2.95v.63h-2.26v1.46h2.04v.62h-2.04v1.57h2.28v.63h-2.96Z" fill="#231f20"/>
      <path d="M491.94,112.64v-4.9h2.95v.63h-2.26v1.46h2.04v.62h-2.04v1.57h2.28v.63h-2.96Z" fill="#231f20"/>
      <path d="M496.07,112.64v-4.9h1.65c.33,0,.62.07.87.2.25.13.45.32.59.56.14.24.21.51.21.82s-.07.57-.2.81c-.13.24-.31.42-.54.56-.23.14-.5.2-.79.2h-1.1v1.75h-.69ZM496.76,110.25h1.09c.25,0,.45-.09.61-.26.16-.18.24-.4.24-.68s-.09-.51-.28-.68c-.18-.18-.42-.26-.7-.26h-.96v1.88Z" fill="#231f20"/>
    </g>
    <g isolation="isolate">
      <path d="M567.02,112.64v-4.9h1.65c.33,0,.61.07.86.2.25.13.45.32.59.56.14.24.21.51.21.82s-.07.57-.2.81c-.13.24-.31.42-.54.56-.23.14-.5.2-.79.2h-1.1v1.75h-.69ZM567.71,110.25h1.09c.25,0,.45-.09.61-.26.16-.18.24-.4.24-.68s-.09-.51-.28-.68c-.18-.18-.42-.26-.7-.26h-.96v1.88Z" fill="#231f20"/>
      <path d="M571.13,112.64v-4.9h1.65c.33,0,.62.06.87.19.25.13.45.31.59.53.14.23.21.49.21.79,0,.32-.09.6-.27.85-.18.24-.42.42-.71.53l1.18,2.01h-.78l-1.09-1.88h-.96v1.88h-.69ZM571.81,110.13h1.03c.17,0,.32-.04.45-.12s.24-.18.32-.31c.08-.13.12-.28.12-.45,0-.26-.09-.47-.27-.64-.18-.16-.42-.25-.71-.25h-.95v1.76Z" fill="#231f20"/>
      <path d="M577.66,112.72c-.48,0-.9-.11-1.27-.32-.37-.21-.66-.51-.86-.9-.21-.38-.31-.82-.31-1.31s.1-.94.31-1.32c.21-.38.49-.68.86-.9.36-.22.78-.33,1.26-.33s.9.11,1.26.33c.36.22.65.52.85.9.21.38.31.82.31,1.31s-.1.93-.31,1.32c-.21.38-.49.68-.85.9-.36.21-.78.32-1.25.32ZM577.67,112.09c.33,0,.62-.08.88-.25.26-.16.46-.39.6-.67s.22-.61.22-.99-.07-.7-.22-.98c-.15-.29-.35-.51-.61-.68-.26-.16-.56-.25-.89-.25s-.63.08-.9.25c-.26.16-.47.39-.61.68-.15.29-.22.62-.22.98s.07.7.22.99.36.51.62.67c.26.16.57.25.91.25Z" fill="#231f20"/>
      <path d="M580.99,112.64v-4.9h1.58c.34,0,.62.05.86.15.24.1.43.25.56.46.13.2.2.45.2.74,0,.22-.05.42-.16.6-.11.18-.25.32-.44.43.24.12.43.27.56.47.13.2.19.43.19.7,0,.28-.06.53-.19.73-.13.2-.31.36-.54.46s-.51.16-.84.16h-1.78ZM581.67,109.85h1.01c.25,0,.45-.07.6-.2.15-.14.22-.32.22-.56s-.08-.44-.25-.57-.4-.2-.71-.2h-.87v1.53ZM581.67,112.02h1.06c.29,0,.51-.07.68-.21.16-.14.24-.32.24-.56,0-.26-.09-.46-.28-.61-.18-.14-.44-.21-.77-.21h-.92v1.58Z" fill="#231f20"/>
    </g>
    <g isolation="isolate">
      <path d="M292.86,132.55l1.97-4.9h.74l1.97,4.9h-.73l-.53-1.31h-2.16l-.53,1.31h-.73ZM294.35,130.62h1.69l-.84-2.11-.85,2.11Z" fill="#231f20"/>
    </g>
    <g isolation="isolate">
      <path d="M293.95,175.75v-4.9h1.58c.34,0,.62.05.86.15.24.1.43.25.56.46.13.2.2.45.2.74,0,.22-.05.42-.16.6-.1.18-.25.32-.44.43.24.12.43.27.56.47.13.2.19.43.19.7,0,.28-.06.53-.19.73-.13.2-.31.36-.54.46s-.51.16-.84.16h-1.78ZM294.63,172.95h1.01c.25,0,.45-.07.6-.2.15-.14.22-.32.22-.56s-.08-.44-.25-.57-.4-.2-.71-.2h-.87v1.53ZM294.63,175.12h1.06c.29,0,.51-.07.68-.21.16-.14.24-.32.24-.56,0-.26-.09-.46-.28-.61-.19-.14-.44-.21-.77-.21h-.92v1.58Z" fill="#231f20"/>
    </g>
    <g isolation="isolate">
      <path d="M295.26,219.03c-.47,0-.88-.11-1.25-.33-.36-.22-.65-.52-.85-.9-.21-.38-.31-.82-.31-1.31s.1-.93.31-1.31c.21-.38.49-.68.85-.9.36-.22.77-.33,1.24-.33.3,0,.59.05.87.16.28.11.52.26.74.46.22.19.38.42.5.68l-.62.28c-.09-.19-.21-.36-.36-.5-.15-.14-.33-.25-.52-.33-.19-.08-.4-.12-.61-.12-.33,0-.62.08-.88.25-.26.16-.46.39-.6.67s-.22.61-.22.99.07.71.22.99c.15.29.35.51.61.68.26.16.55.24.89.24.21,0,.42-.04.61-.13.19-.09.36-.21.51-.36.15-.15.27-.33.37-.52l.62.27c-.12.27-.28.5-.5.71-.21.21-.46.37-.74.48s-.57.17-.88.17Z" fill="#231f20"/>
    </g>
    <g isolation="isolate">
      <path d="M379.25,132.55l1.97-4.9h.73l1.97,4.9h-.74l-.53-1.31h-2.16l-.53,1.31h-.74ZM380.75,130.62h1.69l-.84-2.11-.85,2.11Z" fill="#231f20"/>
    </g>
    <g isolation="isolate">
      <path d="M380.35,175.75v-4.9h1.57c.34,0,.62.05.87.15.24.1.43.25.56.46.13.2.2.45.2.74,0,.22-.05.42-.16.6-.11.18-.25.32-.44.43.24.12.43.27.56.47.13.2.19.43.19.7,0,.28-.06.53-.19.73-.13.2-.31.36-.54.46-.23.1-.51.16-.84.16h-1.78ZM381.03,172.95h1.01c.25,0,.45-.07.6-.2.15-.14.22-.32.22-.56s-.08-.44-.25-.57-.4-.2-.71-.2h-.87v1.53ZM381.03,175.12h1.06c.29,0,.51-.07.68-.21s.24-.32.24-.56c0-.26-.09-.46-.28-.61-.18-.14-.44-.21-.77-.21h-.92v1.58Z" fill="#231f20"/>
    </g>
    <g isolation="isolate">
      <path d="M381.66,219.03c-.47,0-.88-.11-1.25-.33-.36-.22-.65-.52-.85-.9-.21-.38-.31-.82-.31-1.31s.1-.93.31-1.31c.21-.38.49-.68.85-.9.36-.22.77-.33,1.24-.33.3,0,.59.05.87.16.28.11.52.26.74.46.22.19.38.42.5.68l-.62.28c-.09-.19-.21-.36-.36-.5-.15-.14-.33-.25-.52-.33-.19-.08-.4-.12-.61-.12-.33,0-.62.08-.88.25-.26.16-.46.39-.6.67-.14.28-.22.61-.22.99s.07.71.22.99c.15.29.35.51.61.68.26.16.55.24.89.24.21,0,.42-.04.61-.13.19-.09.36-.21.51-.36.15-.15.27-.33.37-.52l.62.27c-.12.27-.28.5-.5.71-.21.21-.46.37-.74.48-.28.11-.57.17-.88.17Z" fill="#231f20"/>
    </g>
    <g isolation="isolate">
      <path d="M465.66,132.55l1.97-4.9h.74l1.97,4.9h-.74l-.53-1.31h-2.16l-.53,1.31h-.73ZM467.15,130.62h1.69l-.84-2.11-.85,2.11Z" fill="#231f20"/>
    </g>
    <g isolation="isolate">
      <path d="M466.75,175.75v-4.9h1.58c.34,0,.62.05.86.15.24.1.43.25.56.46s.2.45.2.74c0,.22-.05.42-.16.6-.1.18-.25.32-.44.43.24.12.43.27.56.47.13.2.19.43.19.7,0,.28-.06.53-.19.73-.13.2-.31.36-.54.46-.23.1-.51.16-.84.16h-1.78ZM467.43,172.95h1.01c.25,0,.45-.07.6-.2.15-.14.22-.32.22-.56s-.08-.44-.25-.57-.4-.2-.71-.2h-.87v1.53ZM467.43,175.12h1.06c.29,0,.51-.07.68-.21s.24-.32.24-.56c0-.26-.09-.46-.28-.61-.18-.14-.44-.21-.77-.21h-.92v1.58Z" fill="#231f20"/>
    </g>
    <g isolation="isolate">
      <path d="M468.06,219.03c-.47,0-.88-.11-1.25-.33-.36-.22-.65-.52-.85-.9-.21-.38-.31-.82-.31-1.31s.1-.93.31-1.31c.21-.38.49-.68.85-.9.36-.22.77-.33,1.24-.33.3,0,.59.05.87.16.28.11.52.26.74.46.22.19.38.42.5.68l-.62.28c-.09-.19-.21-.36-.36-.5-.15-.14-.33-.25-.52-.33-.19-.08-.4-.12-.61-.12-.33,0-.62.08-.88.25-.26.16-.46.39-.6.67-.14.28-.22.61-.22.99s.07.71.22.99c.15.29.35.51.61.68.26.16.55.24.88.24.21,0,.42-.04.61-.13s.36-.21.51-.36c.15-.15.27-.33.37-.52l.62.27c-.12.27-.28.5-.5.71-.21.21-.46.37-.74.48-.28.11-.57.17-.88.17Z" fill="#231f20"/>
    </g>
    <g isolation="isolate">
      <path d="M552.05,132.55l1.97-4.9h.73l1.97,4.9h-.74l-.53-1.31h-2.16l-.53,1.31h-.73ZM553.55,130.62h1.69l-.84-2.11-.85,2.11Z" fill="#231f20"/>
    </g>
    <g isolation="isolate">
      <path d="M553.15,175.75v-4.9h1.58c.34,0,.62.05.86.15.24.1.43.25.56.46.13.2.2.45.2.74,0,.22-.05.42-.16.6-.11.18-.25.32-.44.43.24.12.43.27.56.47.13.2.19.43.19.7,0,.28-.06.53-.19.73-.13.2-.31.36-.54.46s-.51.16-.84.16h-1.78ZM553.82,172.95h1.01c.25,0,.45-.07.6-.2.15-.14.22-.32.22-.56s-.08-.44-.25-.57-.4-.2-.71-.2h-.87v1.53ZM553.82,175.12h1.06c.29,0,.51-.07.68-.21.16-.14.24-.32.24-.56,0-.26-.09-.46-.28-.61-.18-.14-.44-.21-.77-.21h-.92v1.58Z" fill="#231f20"/>
    </g>
    <g isolation="isolate">
      <path d="M554.46,219.03c-.47,0-.88-.11-1.25-.33-.36-.22-.65-.52-.85-.9-.21-.38-.31-.82-.31-1.31s.1-.93.31-1.31c.21-.38.49-.68.85-.9.36-.22.77-.33,1.24-.33.3,0,.59.05.87.16.28.11.52.26.74.46.22.19.38.42.5.68l-.62.28c-.09-.19-.21-.36-.36-.5-.15-.14-.33-.25-.52-.33-.19-.08-.4-.12-.61-.12-.33,0-.62.08-.88.25-.26.16-.46.39-.6.67s-.22.61-.22.99.07.71.22.99c.15.29.35.51.61.68.26.16.55.24.89.24.21,0,.42-.04.61-.13.19-.09.36-.21.51-.36.15-.15.27-.33.37-.52l.62.27c-.12.27-.28.5-.5.71-.21.21-.46.37-.74.48-.28.11-.57.17-.88.17Z" fill="#231f20"/>
    </g>
    <g isolation="isolate">
      <path d="M571.05,276.55v-4.9h.73l1.62,2.4,1.62-2.4h.73v4.9h-.69v-3.79l-1.67,2.46-1.66-2.45v3.79h-.69Z" fill="#231f20"/>
      <path d="M576.43,276.55l1.97-4.9h.74l1.97,4.9h-.73l-.53-1.31h-2.16l-.53,1.31h-.73ZM577.93,274.62h1.69l-.84-2.11-.85,2.11Z" fill="#231f20"/>
      <path d="M581.25,276.55l1.76-2.49-1.74-2.41h.83l1.31,1.85,1.29-1.85h.83l-1.74,2.41,1.75,2.49h-.84l-1.29-1.93-1.31,1.93h-.84Z" fill="#231f20"/>
    </g>
    <g isolation="isolate">
      <path d="M573.51,305.63v-4.9h.73l1.62,2.4,1.62-2.4h.73v4.9h-.69v-3.79l-1.67,2.46-1.66-2.45v3.79h-.69Z" fill="#231f20"/>
      <path d="M579.45,305.63v-4.9h.69v4.9h-.69Z" fill="#231f20"/>
      <path d="M581.39,305.63v-4.9h1.51c.47,0,.88.1,1.24.31s.65.5.85.86.31.79.31,1.27-.1.9-.31,1.27-.49.66-.85.87-.78.31-1.24.31h-1.51ZM582.07,304.99h.83c.24,0,.46-.05.67-.14.21-.09.39-.22.54-.39.16-.17.28-.36.36-.58.09-.22.13-.46.13-.71s-.04-.49-.13-.71c-.09-.22-.21-.41-.36-.58-.16-.17-.34-.29-.54-.39-.21-.09-.43-.14-.67-.14h-.83v3.61Z" fill="#231f20"/>
    </g>
    <g isolation="isolate">
      <path d="M572.93,333.98v-4.9h.73l1.62,2.4,1.62-2.4h.73v4.9h-.69v-3.79l-1.67,2.46-1.66-2.45v3.79h-.69Z" fill="#231f20"/>
      <path d="M578.87,333.98v-4.9h.69v4.9h-.69Z" fill="#231f20"/>
      <path d="M580.81,333.98v-4.9h.71l2.77,3.75v-3.75h.69v4.9h-.69l-2.79-3.79v3.79h-.69Z" fill="#231f20"/>
    </g>
    <g isolation="isolate">
      <path d="M292.86,276.55l1.97-4.9h.74l1.97,4.9h-.73l-.53-1.31h-2.16l-.53,1.31h-.73ZM294.35,274.62h1.69l-.84-2.11-.85,2.11Z" fill="#231f20"/>
    </g>
    <g isolation="isolate">
      <path d="M293.95,305.35v-4.9h1.58c.34,0,.62.05.86.15.24.1.43.25.56.46.13.2.2.45.2.74,0,.22-.05.42-.16.6-.11.18-.25.32-.44.43.24.12.43.27.56.47.13.2.19.43.19.7,0,.28-.06.53-.19.73-.13.2-.31.36-.54.46s-.51.16-.84.16h-1.78ZM294.63,302.56h1.01c.25,0,.45-.07.6-.2.15-.14.22-.32.22-.56s-.08-.44-.25-.57-.4-.2-.71-.2h-.87v1.53ZM294.63,304.72h1.06c.29,0,.51-.07.68-.21.16-.14.24-.32.24-.56,0-.26-.09-.46-.28-.61-.18-.14-.44-.21-.77-.21h-.92v1.58Z" fill="#231f20"/>
    </g>
    <g isolation="isolate">
      <path d="M295.26,334.23c-.47,0-.88-.11-1.25-.33-.36-.22-.65-.52-.85-.9-.21-.38-.31-.82-.31-1.31s.1-.93.31-1.31c.21-.38.49-.68.85-.9.36-.22.77-.33,1.24-.33.3,0,.59.06.87.17s.52.26.74.46c.22.19.38.42.5.67l-.62.28c-.09-.19-.21-.36-.36-.5-.15-.14-.33-.25-.52-.33-.19-.08-.4-.12-.61-.12-.33,0-.62.08-.88.24-.26.16-.46.39-.6.67-.14.28-.22.61-.22.99s.07.71.22.99c.15.29.35.51.61.68s.55.24.89.24c.21,0,.42-.04.61-.13.19-.09.36-.21.51-.36.15-.15.27-.33.37-.52l.62.27c-.12.27-.28.5-.5.71-.21.21-.46.37-.74.48-.28.11-.57.17-.88.17Z" fill="#231f20"/>
    </g>
    <g isolation="isolate">
      <path d="M310.05,255.03c-.5,0-.93-.11-1.32-.33-.38-.22-.69-.52-.9-.9-.22-.38-.33-.82-.33-1.31s.11-.94.33-1.32c.22-.38.52-.68.9-.9.39-.22.83-.33,1.32-.33.27,0,.53.04.78.13.25.09.48.21.68.36.2.15.37.33.49.52l-.55.36c-.09-.15-.21-.27-.36-.39-.15-.11-.31-.2-.49-.26s-.36-.09-.54-.09c-.36,0-.68.08-.96.25-.28.16-.5.39-.65.67-.16.28-.24.62-.24.99s.08.7.23.98.38.51.66.67c.28.16.61.25.97.25.29,0,.55-.06.78-.18.23-.12.41-.28.54-.5.13-.21.2-.46.21-.74h-1.18v-.57h1.86v.5c0,.42-.1.8-.29,1.11-.19.32-.45.56-.78.74-.33.18-.71.26-1.14.26Z" fill="#fff"/>
      <path d="M312.48,254.95l1.97-4.9h.74l1.97,4.9h-.73l-.53-1.31h-2.16l-.53,1.31h-.73ZM313.98,253.02h1.69l-.84-2.11-.85,2.11Z" fill="#fff"/>
      <path d="M318.68,254.95v-4.27h-1.53v-.63h3.76v.63h-1.53v4.27h-.69Z" fill="#fff"/>
      <path d="M321.61,254.95v-4.9h2.95v.63h-2.26v1.46h2.04v.62h-2.04v1.57h2.27v.63h-2.96Z" fill="#fff"/>
    </g>
    <g isolation="isolate">
      <path d="M602.53,255.03c-.47,0-.88-.11-1.25-.33-.36-.22-.65-.52-.85-.9-.21-.38-.31-.82-.31-1.31s.1-.93.31-1.31c.21-.38.49-.68.85-.9.36-.22.77-.33,1.24-.33.3,0,.59.05.87.16.28.11.52.26.74.46.22.19.38.42.5.68l-.62.28c-.09-.19-.21-.36-.36-.5-.15-.14-.33-.25-.52-.33-.19-.08-.4-.12-.61-.12-.33,0-.62.08-.88.25-.26.16-.46.39-.6.67-.14.28-.22.61-.22.99s.07.71.22.99c.15.29.35.51.61.68.26.16.55.24.89.24.21,0,.42-.04.61-.13.19-.09.36-.21.51-.36.15-.15.27-.33.37-.52l.62.27c-.12.27-.28.5-.5.71-.21.21-.46.37-.74.48-.28.11-.57.17-.88.17Z" fill="#fff"/>
      <path d="M606.94,254.95l-2.01-4.9h.73l1.65,4.1,1.66-4.1h.74l-2.01,4.9h-.76Z" fill="#fff"/>
    </g>
  </g>
  <g id="Templates">
    <g>
      <line x1="99.1" y1="54" x2="102.5" y2="54" fill="none" stroke="#f60" stroke-miterlimit="11.34" stroke-width=".43"/>
      <line x1="100.8" y1="52.3" x2="100.8" y2="55.7" fill="none" stroke="#f60" stroke-miterlimit="11.34" stroke-width=".43"/>
      <circle cx="100.8" cy="54" r="1.42" fill="none" stroke="#f60" stroke-miterlimit="11.34" stroke-width=".43"/>
    </g>
    <g>
      <line x1="122.2" y1="54" x2="125.6" y2="54" fill="none" stroke="#f60" stroke-miterlimit="11.34" stroke-width=".43"/>
      <line x1="123.9" y1="52.3" x2="123.9" y2="55.7" fill="none" stroke="#f60" stroke-miterlimit="11.34" stroke-width=".43"/>
      <circle cx="123.9" cy="54" r="1.42" fill="none" stroke="#f60" stroke-miterlimit="11.34" stroke-width=".43"/>
    </g>
    <g>
      <line x1="145.3" y1="54" x2="148.71" y2="54" fill="none" stroke="#f60" stroke-miterlimit="11.34" stroke-width=".43"/>
      <line x1="147" y1="52.3" x2="147" y2="55.7" fill="none" stroke="#f60" stroke-miterlimit="11.34" stroke-width=".43"/>
      <circle cx="147" cy="54" r="1.42" fill="none" stroke="#f60" stroke-miterlimit="11.34" stroke-width=".43"/>
    </g>
    <g>
      <line x1="168.41" y1="54" x2="171.81" y2="54" fill="none" stroke="#f60" stroke-miterlimit="11.34" stroke-width=".43"/>
      <line x1="170.11" y1="52.3" x2="170.11" y2="55.7" fill="none" stroke="#f60" stroke-miterlimit="11.34" stroke-width=".43"/>
      <circle cx="170.11" cy="54" r="1.42" fill="none" stroke="#f60" stroke-miterlimit="11.34" stroke-width=".43"/>
    </g>
    <g>
      <line x1="191.51" y1="54" x2="194.91" y2="54" fill="none" stroke="#f60" stroke-miterlimit="11.34" stroke-width=".43"/>
      <line x1="193.21" y1="52.3" x2="193.21" y2="55.7" fill="none" stroke="#f60" stroke-miterlimit="11.34" stroke-width=".43"/>
      <circle cx="193.21" cy="54" r="1.42" fill="none" stroke="#f60" stroke-miterlimit="11.34" stroke-width=".43"/>
    </g>
    <g>
      <line x1="214.61" y1="54" x2="218.01" y2="54" fill="none" stroke="#f60" stroke-miterlimit="11.34" stroke-width=".43"/>
      <line x1="216.31" y1="52.3" x2="216.31" y2="55.7" fill="none" stroke="#f60" stroke-miterlimit="11.34" stroke-width=".43"/>
      <circle cx="216.31" cy="54" r="1.42" fill="none" stroke="#f60" stroke-miterlimit="11.34" stroke-width=".43"/>
    </g>
    <g>
      <line x1="237.71" y1="54" x2="241.11" y2="54" fill="none" stroke="#f60" stroke-miterlimit="11.34" stroke-width=".43"/>
      <line x1="239.41" y1="52.3" x2="239.41" y2="55.7" fill="none" stroke="#f60" stroke-miterlimit="11.34" stroke-width=".43"/>
      <circle cx="239.41" cy="54" r="1.42" fill="none" stroke="#f60" stroke-miterlimit="11.34" stroke-width=".43"/>
    </g>
    <g>
      <line x1="260.82" y1="54" x2="264.22" y2="54" fill="none" stroke="#f60" stroke-miterlimit="11.34" stroke-width=".43"/>
      <line x1="262.52" y1="52.3" x2="262.52" y2="55.7" fill="none" stroke="#f60" stroke-miterlimit="11.34" stroke-width=".43"/>
      <circle cx="262.52" cy="54" r="1.42" fill="none" stroke="#f60" stroke-miterlimit="11.34" stroke-width=".43"/>
    </g>
    <g>
      <line x1="99.1" y1="62.5" x2="102.5" y2="62.5" fill="none" stroke="#f60" stroke-miterlimit="11.34" stroke-width=".43"/>
      <line x1="100.8" y1="60.8" x2="100.8" y2="64.2" fill="none" stroke="#f60" stroke-miterlimit="11.34" stroke-width=".43"/>
      <circle cx="100.8" cy="62.5" r="1.42" fill="none" stroke="#f60" stroke-miterlimit="11.34" stroke-width=".43"/>
    </g>
    <g>
      <line x1="122.2" y1="62.5" x2="125.6" y2="62.5" fill="none" stroke="#f60" stroke-miterlimit="11.34" stroke-width=".43"/>
      <line x1="123.9" y1="60.8" x2="123.9" y2="64.2" fill="none" stroke="#f60" stroke-miterlimit="11.34" stroke-width=".43"/>
      <circle cx="123.9" cy="62.5" r="1.42" fill="none" stroke="#f60" stroke-miterlimit="11.34" stroke-width=".43"/>
    </g>
    <g>
      <line x1="145.3" y1="62.5" x2="148.71" y2="62.5" fill="none" stroke="#f60" stroke-miterlimit="11.34" stroke-width=".43"/>
      <line x1="147" y1="60.8" x2="147" y2="64.2" fill="none" stroke="#f60" stroke-miterlimit="11.34" stroke-width=".43"/>
      <circle cx="147" cy="62.5" r="1.42" fill="none" stroke="#f60" stroke-miterlimit="11.34" stroke-width=".43"/>
    </g>
    <g>
      <line x1="168.41" y1="62.5" x2="171.81" y2="62.5" fill="none" stroke="#f60" stroke-miterlimit="11.34" stroke-width=".43"/>
      <line x1="170.11" y1="60.8" x2="170.11" y2="64.2" fill="none" stroke="#f60" stroke-miterlimit="11.34" stroke-width=".43"/>
      <circle cx="170.11" cy="62.5" r="1.42" fill="none" stroke="#f60" stroke-miterlimit="11.34" stroke-width=".43"/>
    </g>
    <g>
      <line x1="191.51" y1="62.5" x2="194.91" y2="62.5" fill="none" stroke="#f60" stroke-miterlimit="11.34" stroke-width=".43"/>
      <line x1="193.21" y1="60.8" x2="193.21" y2="64.2" fill="none" stroke="#f60" stroke-miterlimit="11.34" stroke-width=".43"/>
      <circle cx="193.21" cy="62.5" r="1.42" fill="none" stroke="#f60" stroke-miterlimit="11.34" stroke-width=".43"/>
    </g>
    <g>
      <line x1="214.61" y1="62.5" x2="218.01" y2="62.5" fill="none" stroke="#f60" stroke-miterlimit="11.34" stroke-width=".43"/>
      <line x1="216.31" y1="60.8" x2="216.31" y2="64.2" fill="none" stroke="#f60" stroke-miterlimit="11.34" stroke-width=".43"/>
      <circle cx="216.31" cy="62.5" r="1.42" fill="none" stroke="#f60" stroke-miterlimit="11.34" stroke-width=".43"/>
    </g>
    <g>
      <line x1="237.71" y1="62.5" x2="241.11" y2="62.5" fill="none" stroke="#f60" stroke-miterlimit="11.34" stroke-width=".43"/>
      <line x1="239.41" y1="60.8" x2="239.41" y2="64.2" fill="none" stroke="#f60" stroke-miterlimit="11.34" stroke-width=".43"/>
      <circle cx="239.41" cy="62.5" r="1.42" fill="none" stroke="#f60" stroke-miterlimit="11.34" stroke-width=".43"/>
    </g>
    <g>
      <line x1="260.82" y1="62.5" x2="264.22" y2="62.5" fill="none" stroke="#f60" stroke-miterlimit="11.34" stroke-width=".43"/>
      <line x1="262.52" y1="60.8" x2="262.52" y2="64.2" fill="none" stroke="#f60" stroke-miterlimit="11.34" stroke-width=".43"/>
      <circle cx="262.52" cy="62.5" r="1.42" fill="none" stroke="#f60" stroke-miterlimit="11.34" stroke-width=".43"/>
    </g>
    <g>
      <line x1="99.1" y1="70.98" x2="102.5" y2="70.98" fill="none" stroke="#f60" stroke-miterlimit="11.34" stroke-width=".43"/>
      <line x1="100.8" y1="69.28" x2="100.8" y2="72.68" fill="none" stroke="#f60" stroke-miterlimit="11.34" stroke-width=".43"/>
      <circle cx="100.8" cy="70.98" r="1.42" fill="none" stroke="#f60" stroke-miterlimit="11.34" stroke-width=".43"/>
    </g>
    <g>
      <line x1="122.2" y1="70.98" x2="125.6" y2="70.98" fill="none" stroke="#f60" stroke-miterlimit="11.34" stroke-width=".43"/>
      <line x1="123.9" y1="69.28" x2="123.9" y2="72.68" fill="none" stroke="#f60" stroke-miterlimit="11.34" stroke-width=".43"/>
      <circle cx="123.9" cy="70.98" r="1.42" fill="none" stroke="#f60" stroke-miterlimit="11.34" stroke-width=".43"/>
    </g>
    <g>
      <line x1="145.3" y1="70.98" x2="148.71" y2="70.98" fill="none" stroke="#f60" stroke-miterlimit="11.34" stroke-width=".43"/>
      <line x1="147" y1="69.28" x2="147" y2="72.68" fill="none" stroke="#f60" stroke-miterlimit="11.34" stroke-width=".43"/>
      <circle cx="147" cy="70.98" r="1.42" fill="none" stroke="#f60" stroke-miterlimit="11.34" stroke-width=".43"/>
    </g>
    <g>
      <line x1="168.41" y1="70.98" x2="171.81" y2="70.98" fill="none" stroke="#f60" stroke-miterlimit="11.34" stroke-width=".43"/>
      <line x1="170.11" y1="69.28" x2="170.11" y2="72.68" fill="none" stroke="#f60" stroke-miterlimit="11.34" stroke-width=".43"/>
      <circle cx="170.11" cy="70.98" r="1.42" fill="none" stroke="#f60" stroke-miterlimit="11.34" stroke-width=".43"/>
    </g>
    <g>
      <line x1="191.51" y1="70.98" x2="194.91" y2="70.98" fill="none" stroke="#f60" stroke-miterlimit="11.34" stroke-width=".43"/>
      <line x1="193.21" y1="69.28" x2="193.21" y2="72.68" fill="none" stroke="#f60" stroke-miterlimit="11.34" stroke-width=".43"/>
      <circle cx="193.21" cy="70.98" r="1.42" fill="none" stroke="#f60" stroke-miterlimit="11.34" stroke-width=".43"/>
    </g>
    <g>
      <line x1="214.61" y1="70.98" x2="218.01" y2="70.98" fill="none" stroke="#f60" stroke-miterlimit="11.34" stroke-width=".43"/>
      <line x1="216.31" y1="69.28" x2="216.31" y2="72.68" fill="none" stroke="#f60" stroke-miterlimit="11.34" stroke-width=".43"/>
      <circle cx="216.31" cy="70.98" r="1.42" fill="none" stroke="#f60" stroke-miterlimit="11.34" stroke-width=".43"/>
    </g>
    <g>
      <line x1="237.71" y1="70.98" x2="241.11" y2="70.98" fill="none" stroke="#f60" stroke-miterlimit="11.34" stroke-width=".43"/>
      <line x1="239.41" y1="69.28" x2="239.41" y2="72.68" fill="none" stroke="#f60" stroke-miterlimit="11.34" stroke-width=".43"/>
      <circle cx="239.41" cy="70.98" r="1.42" fill="none" stroke="#f60" stroke-miterlimit="11.34" stroke-width=".43"/>
    </g>
    <g>
      <line x1="260.82" y1="70.98" x2="264.22" y2="70.98" fill="none" stroke="#f60" stroke-miterlimit="11.34" stroke-width=".43"/>
      <line x1="262.52" y1="69.28" x2="262.52" y2="72.68" fill="none" stroke="#f60" stroke-miterlimit="11.34" stroke-width=".43"/>
      <circle cx="262.52" cy="70.98" r="1.42" fill="none" stroke="#f60" stroke-miterlimit="11.34" stroke-width=".43"/>
    </g>
    <g>
      <line x1="23.13" y1="64.91" x2="34.47" y2="64.91" fill="none" stroke="red" stroke-miterlimit="11.34" stroke-width=".57"/>
      <line x1="28.8" y1="59.24" x2="28.8" y2="70.58" fill="none" stroke="red" stroke-miterlimit="11.34" stroke-width=".57"/>
      <circle cx="28.8" cy="64.91" r="4.25" fill="none" stroke="red" stroke-miterlimit="11.34" stroke-width=".43"/>
    </g>
    <g>
      <line x1="59.13" y1="64.91" x2="70.47" y2="64.91" fill="none" stroke="red" stroke-miterlimit="11.34" stroke-width=".57"/>
      <line x1="64.8" y1="59.24" x2="64.8" y2="70.58" fill="none" stroke="red" stroke-miterlimit="11.34" stroke-width=".57"/>
      <circle cx="64.8" cy="64.91" r="4.25" fill="none" stroke="red" stroke-miterlimit="11.34" stroke-width=".43"/>
    </g>
    <g>
      <line x1="24.55" y1="96.01" x2="33.05" y2="96.01" fill="none" stroke="#06f" stroke-miterlimit="11.34" stroke-width=".57"/>
      <line x1="28.8" y1="91.76" x2="28.8" y2="100.26" fill="none" stroke="#06f" stroke-miterlimit="11.34" stroke-width=".57"/>
      <circle cx="28.8" cy="96.01" r="3.4" fill="none" stroke="#06f" stroke-miterlimit="11.34" stroke-width=".43"/>
    </g>
    <g>
      <line x1="60.55" y1="96.01" x2="69.05" y2="96.01" fill="none" stroke="#06f" stroke-miterlimit="11.34" stroke-width=".57"/>
      <line x1="64.8" y1="91.76" x2="64.8" y2="100.26" fill="none" stroke="#06f" stroke-miterlimit="11.34" stroke-width=".57"/>
      <circle cx="64.8" cy="96.01" r="3.4" fill="none" stroke="#06f" stroke-miterlimit="11.34" stroke-width=".43"/>
    </g>
    <g>
      <line x1="23.13" y1="143.49" x2="34.47" y2="143.49" fill="none" stroke="red" stroke-miterlimit="11.34" stroke-width=".57"/>
      <line x1="28.8" y1="137.82" x2="28.8" y2="149.16" fill="none" stroke="red" stroke-miterlimit="11.34" stroke-width=".57"/>
      <circle cx="28.8" cy="143.49" r="4.25" fill="none" stroke="red" stroke-miterlimit="11.34" stroke-width=".43"/>
    </g>
    <g>
      <line x1="59.13" y1="143.49" x2="70.47" y2="143.49" fill="none" stroke="red" stroke-miterlimit="11.34" stroke-width=".57"/>
      <line x1="64.8" y1="137.82" x2="64.8" y2="149.16" fill="none" stroke="red" stroke-miterlimit="11.34" stroke-width=".57"/>
      <circle cx="64.8" cy="143.49" r="4.25" fill="none" stroke="red" stroke-miterlimit="11.34" stroke-width=".43"/>
    </g>
    <g>
      <line x1="24.55" y1="174.7" x2="33.05" y2="174.7" fill="none" stroke="#06f" stroke-miterlimit="11.34" stroke-width=".57"/>
      <line x1="28.8" y1="170.45" x2="28.8" y2="178.95" fill="none" stroke="#06f" stroke-miterlimit="11.34" stroke-width=".57"/>
      <circle cx="28.8" cy="174.7" r="3.4" fill="none" stroke="#06f" stroke-miterlimit="11.34" stroke-width=".43"/>
    </g>
    <g>
      <line x1="60.55" y1="174.7" x2="69.05" y2="174.7" fill="none" stroke="#06f" stroke-miterlimit="11.34" stroke-width=".57"/>
      <line x1="64.8" y1="170.45" x2="64.8" y2="178.95" fill="none" stroke="#06f" stroke-miterlimit="11.34" stroke-width=".57"/>
      <circle cx="64.8" cy="174.7" r="3.4" fill="none" stroke="#06f" stroke-miterlimit="11.34" stroke-width=".43"/>
    </g>
    <g>
      <line x1="24.55" y1="218.92" x2="33.05" y2="218.92" fill="none" stroke="#06f" stroke-miterlimit="11.34" stroke-width=".57"/>
      <line x1="28.8" y1="214.67" x2="28.8" y2="223.17" fill="none" stroke="#06f" stroke-miterlimit="11.34" stroke-width=".57"/>
      <circle cx="28.8" cy="218.92" r="3.4" fill="none" stroke="#06f" stroke-miterlimit="11.34" stroke-width=".43"/>
    </g>
    <g>
      <line x1="61.97" y1="218.92" x2="67.63" y2="218.92" fill="none" stroke="#0c0" stroke-miterlimit="11.34" stroke-width=".57"/>
      <line x1="64.8" y1="216.09" x2="64.8" y2="221.75" fill="none" stroke="#0c0" stroke-miterlimit="11.34" stroke-width=".57"/>
      <circle cx="64.8" cy="218.92" r="2.27" fill="none" stroke="#0c0" stroke-miterlimit="11.34" stroke-width=".43"/>
    </g>
    <g>
      <line x1="96.55" y1="121.97" x2="105.05" y2="121.97" fill="none" stroke="#c0c" stroke-miterlimit="11.34" stroke-width=".57"/>
      <line x1="100.8" y1="117.72" x2="100.8" y2="126.23" fill="none" stroke="#c0c" stroke-miterlimit="11.34" stroke-width=".57"/>
      <circle cx="100.8" cy="121.97" r="3.4" fill="none" stroke="#c0c" stroke-miterlimit="11.34" stroke-width=".43"/>
    </g>
    <g>
      <line x1="119.65" y1="121.97" x2="128.15" y2="121.97" fill="none" stroke="#c0c" stroke-miterlimit="11.34" stroke-width=".57"/>
      <line x1="123.9" y1="117.72" x2="123.9" y2="126.23" fill="none" stroke="#c0c" stroke-miterlimit="11.34" stroke-width=".57"/>
      <circle cx="123.9" cy="121.97" r="3.4" fill="none" stroke="#c0c" stroke-miterlimit="11.34" stroke-width=".43"/>
    </g>
    <g>
      <line x1="142.75" y1="121.97" x2="151.26" y2="121.97" fill="none" stroke="#c0c" stroke-miterlimit="11.34" stroke-width=".57"/>
      <line x1="147" y1="117.72" x2="147" y2="126.23" fill="none" stroke="#c0c" stroke-miterlimit="11.34" stroke-width=".57"/>
      <circle cx="147" cy="121.97" r="3.4" fill="none" stroke="#c0c" stroke-miterlimit="11.34" stroke-width=".43"/>
    </g>
    <g>
      <line x1="165.86" y1="121.97" x2="174.36" y2="121.97" fill="none" stroke="#c0c" stroke-miterlimit="11.34" stroke-width=".57"/>
      <line x1="170.11" y1="117.72" x2="170.11" y2="126.23" fill="none" stroke="#c0c" stroke-miterlimit="11.34" stroke-width=".57"/>
      <circle cx="170.11" cy="121.97" r="3.4" fill="none" stroke="#c0c" stroke-miterlimit="11.34" stroke-width=".43"/>
    </g>
    <g>
      <line x1="188.96" y1="121.97" x2="197.46" y2="121.97" fill="none" stroke="#c0c" stroke-miterlimit="11.34" stroke-width=".57"/>
      <line x1="193.21" y1="117.72" x2="193.21" y2="126.23" fill="none" stroke="#c0c" stroke-miterlimit="11.34" stroke-width=".57"/>
      <circle cx="193.21" cy="121.97" r="3.4" fill="none" stroke="#c0c" stroke-miterlimit="11.34" stroke-width=".43"/>
    </g>
    <g>
      <line x1="212.06" y1="121.97" x2="220.56" y2="121.97" fill="none" stroke="#c0c" stroke-miterlimit="11.34" stroke-width=".57"/>
      <line x1="216.31" y1="117.72" x2="216.31" y2="126.23" fill="none" stroke="#c0c" stroke-miterlimit="11.34" stroke-width=".57"/>
      <circle cx="216.31" cy="121.97" r="3.4" fill="none" stroke="#c0c" stroke-miterlimit="11.34" stroke-width=".43"/>
    </g>
    <g>
      <line x1="235.16" y1="121.97" x2="243.67" y2="121.97" fill="none" stroke="#c0c" stroke-miterlimit="11.34" stroke-width=".57"/>
      <line x1="239.41" y1="117.72" x2="239.41" y2="126.23" fill="none" stroke="#c0c" stroke-miterlimit="11.34" stroke-width=".57"/>
      <circle cx="239.41" cy="121.97" r="3.4" fill="none" stroke="#c0c" stroke-miterlimit="11.34" stroke-width=".43"/>
    </g>
    <g>
      <line x1="258.26" y1="121.97" x2="266.77" y2="121.97" fill="none" stroke="#c0c" stroke-miterlimit="11.34" stroke-width=".57"/>
      <line x1="262.52" y1="117.72" x2="262.52" y2="126.23" fill="none" stroke="#c0c" stroke-miterlimit="11.34" stroke-width=".57"/>
      <circle cx="262.52" cy="121.97" r="3.4" fill="none" stroke="#c0c" stroke-miterlimit="11.34" stroke-width=".43"/>
    </g>
    <g>
      <line x1="97.97" y1="178.72" x2="103.63" y2="178.72" fill="none" stroke="#0c0" stroke-miterlimit="11.34" stroke-width=".57"/>
      <line x1="100.8" y1="175.89" x2="100.8" y2="181.56" fill="none" stroke="#0c0" stroke-miterlimit="11.34" stroke-width=".57"/>
      <circle cx="100.8" cy="178.72" r="2.27" fill="none" stroke="#0c0" stroke-miterlimit="11.34" stroke-width=".43"/>
    </g>
    <g>
      <line x1="121.07" y1="178.72" x2="126.74" y2="178.72" fill="none" stroke="#0c0" stroke-miterlimit="11.34" stroke-width=".57"/>
      <line x1="123.9" y1="175.89" x2="123.9" y2="181.56" fill="none" stroke="#0c0" stroke-miterlimit="11.34" stroke-width=".57"/>
      <circle cx="123.9" cy="178.72" r="2.27" fill="none" stroke="#0c0" stroke-miterlimit="11.34" stroke-width=".43"/>
    </g>
    <g>
      <line x1="144.17" y1="178.72" x2="149.84" y2="178.72" fill="none" stroke="#0c0" stroke-miterlimit="11.34" stroke-width=".57"/>
      <line x1="147" y1="175.89" x2="147" y2="181.56" fill="none" stroke="#0c0" stroke-miterlimit="11.34" stroke-width=".57"/>
      <circle cx="147" cy="178.72" r="2.27" fill="none" stroke="#0c0" stroke-miterlimit="11.34" stroke-width=".43"/>
    </g>
    <g>
      <line x1="167.27" y1="178.72" x2="172.94" y2="178.72" fill="none" stroke="#0c0" stroke-miterlimit="11.34" stroke-width=".57"/>
      <line x1="170.11" y1="175.89" x2="170.11" y2="181.56" fill="none" stroke="#0c0" stroke-miterlimit="11.34" stroke-width=".57"/>
      <circle cx="170.11" cy="178.72" r="2.27" fill="none" stroke="#0c0" stroke-miterlimit="11.34" stroke-width=".43"/>
    </g>
    <g>
      <line x1="190.37" y1="178.72" x2="196.04" y2="178.72" fill="none" stroke="#0c0" stroke-miterlimit="11.34" stroke-width=".57"/>
      <line x1="193.21" y1="175.89" x2="193.21" y2="181.56" fill="none" stroke="#0c0" stroke-miterlimit="11.34" stroke-width=".57"/>
      <circle cx="193.21" cy="178.72" r="2.27" fill="none" stroke="#0c0" stroke-miterlimit="11.34" stroke-width=".43"/>
    </g>
    <g>
      <line x1="213.48" y1="178.72" x2="219.15" y2="178.72" fill="none" stroke="#0c0" stroke-miterlimit="11.34" stroke-width=".57"/>
      <line x1="216.31" y1="175.89" x2="216.31" y2="181.56" fill="none" stroke="#0c0" stroke-miterlimit="11.34" stroke-width=".57"/>
      <circle cx="216.31" cy="178.72" r="2.27" fill="none" stroke="#0c0" stroke-miterlimit="11.34" stroke-width=".43"/>
    </g>
    <g>
      <line x1="236.58" y1="178.72" x2="242.25" y2="178.72" fill="none" stroke="#0c0" stroke-miterlimit="11.34" stroke-width=".57"/>
      <line x1="239.41" y1="175.89" x2="239.41" y2="181.56" fill="none" stroke="#0c0" stroke-miterlimit="11.34" stroke-width=".57"/>
      <circle cx="239.41" cy="178.72" r="2.27" fill="none" stroke="#0c0" stroke-miterlimit="11.34" stroke-width=".43"/>
    </g>
    <g>
      <line x1="259.68" y1="178.72" x2="265.35" y2="178.72" fill="none" stroke="#0c0" stroke-miterlimit="11.34" stroke-width=".57"/>
      <line x1="262.52" y1="175.89" x2="262.52" y2="181.56" fill="none" stroke="#0c0" stroke-miterlimit="11.34" stroke-width=".57"/>
      <circle cx="262.52" cy="178.72" r="2.27" fill="none" stroke="#0c0" stroke-miterlimit="11.34" stroke-width=".43"/>
    </g>
    <g>
      <line x1="97.97" y1="198.51" x2="103.63" y2="198.51" fill="none" stroke="#0c0" stroke-miterlimit="11.34" stroke-width=".57"/>
      <line x1="100.8" y1="195.68" x2="100.8" y2="201.34" fill="none" stroke="#0c0" stroke-miterlimit="11.34" stroke-width=".57"/>
      <circle cx="100.8" cy="198.51" r="2.27" fill="none" stroke="#0c0" stroke-miterlimit="11.34" stroke-width=".43"/>
    </g>
    <g>
      <line x1="121.07" y1="198.51" x2="126.74" y2="198.51" fill="none" stroke="#0c0" stroke-miterlimit="11.34" stroke-width=".57"/>
      <line x1="123.9" y1="195.68" x2="123.9" y2="201.34" fill="none" stroke="#0c0" stroke-miterlimit="11.34" stroke-width=".57"/>
      <circle cx="123.9" cy="198.51" r="2.27" fill="none" stroke="#0c0" stroke-miterlimit="11.34" stroke-width=".43"/>
    </g>
    <g>
      <line x1="144.17" y1="198.51" x2="149.84" y2="198.51" fill="none" stroke="#0c0" stroke-miterlimit="11.34" stroke-width=".57"/>
      <line x1="147" y1="195.68" x2="147" y2="201.34" fill="none" stroke="#0c0" stroke-miterlimit="11.34" stroke-width=".57"/>
      <circle cx="147" cy="198.51" r="2.27" fill="none" stroke="#0c0" stroke-miterlimit="11.34" stroke-width=".43"/>
    </g>
    <g>
      <line x1="167.27" y1="198.51" x2="172.94" y2="198.51" fill="none" stroke="#0c0" stroke-miterlimit="11.34" stroke-width=".57"/>
      <line x1="170.11" y1="195.68" x2="170.11" y2="201.34" fill="none" stroke="#0c0" stroke-miterlimit="11.34" stroke-width=".57"/>
      <circle cx="170.11" cy="198.51" r="2.27" fill="none" stroke="#0c0" stroke-miterlimit="11.34" stroke-width=".43"/>
    </g>
    <g>
      <line x1="190.37" y1="198.51" x2="196.04" y2="198.51" fill="none" stroke="#0c0" stroke-miterlimit="11.34" stroke-width=".57"/>
      <line x1="193.21" y1="195.68" x2="193.21" y2="201.34" fill="none" stroke="#0c0" stroke-miterlimit="11.34" stroke-width=".57"/>
      <circle cx="193.21" cy="198.51" r="2.27" fill="none" stroke="#0c0" stroke-miterlimit="11.34" stroke-width=".43"/>
    </g>
    <g>
      <line x1="213.48" y1="198.51" x2="219.15" y2="198.51" fill="none" stroke="#0c0" stroke-miterlimit="11.34" stroke-width=".57"/>
      <line x1="216.31" y1="195.68" x2="216.31" y2="201.34" fill="none" stroke="#0c0" stroke-miterlimit="11.34" stroke-width=".57"/>
      <circle cx="216.31" cy="198.51" r="2.27" fill="none" stroke="#0c0" stroke-miterlimit="11.34" stroke-width=".43"/>
    </g>
    <g>
      <line x1="236.58" y1="198.51" x2="242.25" y2="198.51" fill="none" stroke="#0c0" stroke-miterlimit="11.34" stroke-width=".57"/>
      <line x1="239.41" y1="195.68" x2="239.41" y2="201.34" fill="none" stroke="#0c0" stroke-miterlimit="11.34" stroke-width=".57"/>
      <circle cx="239.41" cy="198.51" r="2.27" fill="none" stroke="#0c0" stroke-miterlimit="11.34" stroke-width=".43"/>
    </g>
    <g>
      <line x1="259.68" y1="198.51" x2="265.35" y2="198.51" fill="none" stroke="#0c0" stroke-miterlimit="11.34" stroke-width=".57"/>
      <line x1="262.52" y1="195.68" x2="262.52" y2="201.34" fill="none" stroke="#0c0" stroke-miterlimit="11.34" stroke-width=".57"/>
      <circle cx="262.52" cy="198.51" r="2.27" fill="none" stroke="#0c0" stroke-miterlimit="11.34" stroke-width=".43"/>
    </g>
    <g>
      <line x1="97.97" y1="218.44" x2="103.63" y2="218.44" fill="none" stroke="#0c0" stroke-miterlimit="11.34" stroke-width=".57"/>
      <line x1="100.8" y1="215.6" x2="100.8" y2="221.27" fill="none" stroke="#0c0" stroke-miterlimit="11.34" stroke-width=".57"/>
      <circle cx="100.8" cy="218.44" r="2.27" fill="none" stroke="#0c0" stroke-miterlimit="11.34" stroke-width=".43"/>
    </g>
    <g>
      <line x1="121.07" y1="218.44" x2="126.74" y2="218.44" fill="none" stroke="#0c0" stroke-miterlimit="11.34" stroke-width=".57"/>
      <line x1="123.9" y1="215.6" x2="123.9" y2="221.27" fill="none" stroke="#0c0" stroke-miterlimit="11.34" stroke-width=".57"/>
      <circle cx="123.9" cy="218.44" r="2.27" fill="none" stroke="#0c0" stroke-miterlimit="11.34" stroke-width=".43"/>
    </g>
    <g>
      <line x1="144.17" y1="218.44" x2="149.84" y2="218.44" fill="none" stroke="#0c0" stroke-miterlimit="11.34" stroke-width=".57"/>
      <line x1="147" y1="215.6" x2="147" y2="221.27" fill="none" stroke="#0c0" stroke-miterlimit="11.34" stroke-width=".57"/>
      <circle cx="147" cy="218.44" r="2.27" fill="none" stroke="#0c0" stroke-miterlimit="11.34" stroke-width=".43"/>
    </g>
    <g>
      <line x1="167.27" y1="218.44" x2="172.94" y2="218.44" fill="none" stroke="#0c0" stroke-miterlimit="11.34" stroke-width=".57"/>
      <line x1="170.11" y1="215.6" x2="170.11" y2="221.27" fill="none" stroke="#0c0" stroke-miterlimit="11.34" stroke-width=".57"/>
      <circle cx="170.11" cy="218.44" r="2.27" fill="none" stroke="#0c0" stroke-miterlimit="11.34" stroke-width=".43"/>
    </g>
    <g>
      <line x1="190.37" y1="218.44" x2="196.04" y2="218.44" fill="none" stroke="#0c0" stroke-miterlimit="11.34" stroke-width=".57"/>
      <line x1="193.21" y1="215.6" x2="193.21" y2="221.27" fill="none" stroke="#0c0" stroke-miterlimit="11.34" stroke-width=".57"/>
      <circle cx="193.21" cy="218.44" r="2.27" fill="none" stroke="#0c0" stroke-miterlimit="11.34" stroke-width=".43"/>
    </g>
    <g>
      <line x1="213.48" y1="218.44" x2="219.15" y2="218.44" fill="none" stroke="#0c0" stroke-miterlimit="11.34" stroke-width=".57"/>
      <line x1="216.31" y1="215.6" x2="216.31" y2="221.27" fill="none" stroke="#0c0" stroke-miterlimit="11.34" stroke-width=".57"/>
      <circle cx="216.31" cy="218.44" r="2.27" fill="none" stroke="#0c0" stroke-miterlimit="11.34" stroke-width=".43"/>
    </g>
    <g>
      <line x1="236.58" y1="218.44" x2="242.25" y2="218.44" fill="none" stroke="#0c0" stroke-miterlimit="11.34" stroke-width=".57"/>
      <line x1="239.41" y1="215.6" x2="239.41" y2="221.27" fill="none" stroke="#0c0" stroke-miterlimit="11.34" stroke-width=".57"/>
      <circle cx="239.41" cy="218.44" r="2.27" fill="none" stroke="#0c0" stroke-miterlimit="11.34" stroke-width=".43"/>
    </g>
    <g>
      <line x1="259.68" y1="218.44" x2="265.35" y2="218.44" fill="none" stroke="#0c0" stroke-miterlimit="11.34" stroke-width=".57"/>
      <line x1="262.52" y1="215.6" x2="262.52" y2="221.27" fill="none" stroke="#0c0" stroke-miterlimit="11.34" stroke-width=".57"/>
      <circle cx="262.52" cy="218.44" r="2.27" fill="none" stroke="#0c0" stroke-miterlimit="11.34" stroke-width=".43"/>
    </g>
    <g>
      <line x1="24.55" y1="282.42" x2="33.05" y2="282.42" fill="none" stroke="#06f" stroke-miterlimit="11.34" stroke-width=".57"/>
      <line x1="28.8" y1="278.16" x2="28.8" y2="286.67" fill="none" stroke="#06f" stroke-miterlimit="11.34" stroke-width=".57"/>
      <circle cx="28.8" cy="282.42" r="3.4" fill="none" stroke="#06f" stroke-miterlimit="11.34" stroke-width=".43"/>
    </g>
    <g>
      <line x1="60.55" y1="282.42" x2="69.05" y2="282.42" fill="none" stroke="#06f" stroke-miterlimit="11.34" stroke-width=".57"/>
      <line x1="64.8" y1="278.16" x2="64.8" y2="286.67" fill="none" stroke="#06f" stroke-miterlimit="11.34" stroke-width=".57"/>
      <circle cx="64.8" cy="282.42" r="3.4" fill="none" stroke="#06f" stroke-miterlimit="11.34" stroke-width=".43"/>
    </g>
    <g>
      <line x1="134.93" y1="282.42" x2="151.94" y2="282.42" fill="none" stroke="#c60" stroke-miterlimit="11.34" stroke-width=".57"/>
      <line x1="143.43" y1="279.58" x2="143.43" y2="285.25" fill="none" stroke="#c60" stroke-miterlimit="11.34" stroke-width=".57"/>
      <circle cx="143.43" cy="282.42" r="2.27" fill="none" stroke="#c60" stroke-miterlimit="11.34" stroke-width=".43"/>
    </g>
    <g>
      <line x1="222.35" y1="282.42" x2="230.85" y2="282.42" fill="none" stroke="#06f" stroke-miterlimit="11.34" stroke-width=".57"/>
      <line x1="226.6" y1="278.16" x2="226.6" y2="286.67" fill="none" stroke="#06f" stroke-miterlimit="11.34" stroke-width=".57"/>
      <circle cx="226.6" cy="282.42" r="3.4" fill="none" stroke="#06f" stroke-miterlimit="11.34" stroke-width=".43"/>
    </g>
    <g>
      <line x1="249.73" y1="282.42" x2="258.24" y2="282.42" fill="none" stroke="#06f" stroke-miterlimit="11.34" stroke-width=".57"/>
      <line x1="253.98" y1="278.16" x2="253.98" y2="286.67" fill="none" stroke="#06f" stroke-miterlimit="11.34" stroke-width=".57"/>
      <circle cx="253.98" cy="282.42" r="3.4" fill="none" stroke="#06f" stroke-miterlimit="11.34" stroke-width=".43"/>
    </g>
    <g>
      <line x1="24.55" y1="307.33" x2="33.05" y2="307.33" fill="none" stroke="#06f" stroke-miterlimit="11.34" stroke-width=".57"/>
      <line x1="28.8" y1="303.08" x2="28.8" y2="311.58" fill="none" stroke="#06f" stroke-miterlimit="11.34" stroke-width=".57"/>
      <circle cx="28.8" cy="307.33" r="3.4" fill="none" stroke="#06f" stroke-miterlimit="11.34" stroke-width=".43"/>
    </g>
    <g>
      <line x1="60.55" y1="307.33" x2="69.05" y2="307.33" fill="none" stroke="#06f" stroke-miterlimit="11.34" stroke-width=".57"/>
      <line x1="64.8" y1="303.08" x2="64.8" y2="311.58" fill="none" stroke="#06f" stroke-miterlimit="11.34" stroke-width=".57"/>
      <circle cx="64.8" cy="307.33" r="3.4" fill="none" stroke="#06f" stroke-miterlimit="11.34" stroke-width=".43"/>
    </g>
    <g>
      <line x1="134.93" y1="307.33" x2="151.94" y2="307.33" fill="none" stroke="#c60" stroke-miterlimit="11.34" stroke-width=".57"/>
      <line x1="143.43" y1="304.5" x2="143.43" y2="310.17" fill="none" stroke="#c60" stroke-miterlimit="11.34" stroke-width=".57"/>
      <circle cx="143.43" cy="307.33" r="2.27" fill="none" stroke="#c60" stroke-miterlimit="11.34" stroke-width=".43"/>
    </g>
    <g>
      <line x1="222.35" y1="307.33" x2="230.85" y2="307.33" fill="none" stroke="#06f" stroke-miterlimit="11.34" stroke-width=".57"/>
      <line x1="226.6" y1="303.08" x2="226.6" y2="311.58" fill="none" stroke="#06f" stroke-miterlimit="11.34" stroke-width=".57"/>
      <circle cx="226.6" cy="307.33" r="3.4" fill="none" stroke="#06f" stroke-miterlimit="11.34" stroke-width=".43"/>
    </g>
    <g>
      <line x1="249.73" y1="307.33" x2="258.24" y2="307.33" fill="none" stroke="#06f" stroke-miterlimit="11.34" stroke-width=".57"/>
      <line x1="253.98" y1="303.08" x2="253.98" y2="311.58" fill="none" stroke="#06f" stroke-miterlimit="11.34" stroke-width=".57"/>
      <circle cx="253.98" cy="307.33" r="3.4" fill="none" stroke="#06f" stroke-miterlimit="11.34" stroke-width=".43"/>
    </g>
    <g>
      <line x1="24.55" y1="332.28" x2="33.05" y2="332.28" fill="none" stroke="#06f" stroke-miterlimit="11.34" stroke-width=".57"/>
      <line x1="28.8" y1="328.03" x2="28.8" y2="336.53" fill="none" stroke="#06f" stroke-miterlimit="11.34" stroke-width=".57"/>
      <circle cx="28.8" cy="332.28" r="3.4" fill="none" stroke="#06f" stroke-miterlimit="11.34" stroke-width=".43"/>
    </g>
    <g>
      <line x1="60.55" y1="332.28" x2="69.05" y2="332.28" fill="none" stroke="#06f" stroke-miterlimit="11.34" stroke-width=".57"/>
      <line x1="64.8" y1="328.03" x2="64.8" y2="336.53" fill="none" stroke="#06f" stroke-miterlimit="11.34" stroke-width=".57"/>
      <circle cx="64.8" cy="332.28" r="3.4" fill="none" stroke="#06f" stroke-miterlimit="11.34" stroke-width=".43"/>
    </g>
    <g>
      <line x1="134.93" y1="332.28" x2="151.94" y2="332.28" fill="none" stroke="#c60" stroke-miterlimit="11.34" stroke-width=".57"/>
      <line x1="143.43" y1="329.44" x2="143.43" y2="335.11" fill="none" stroke="#c60" stroke-miterlimit="11.34" stroke-width=".57"/>
      <circle cx="143.43" cy="332.28" r="2.27" fill="none" stroke="#c60" stroke-miterlimit="11.34" stroke-width=".43"/>
    </g>
    <g>
      <line x1="222.35" y1="332.28" x2="230.85" y2="332.28" fill="none" stroke="#06f" stroke-miterlimit="11.34" stroke-width=".57"/>
      <line x1="226.6" y1="328.03" x2="226.6" y2="336.53" fill="none" stroke="#06f" stroke-miterlimit="11.34" stroke-width=".57"/>
      <circle cx="226.6" cy="332.28" r="3.4" fill="none" stroke="#06f" stroke-miterlimit="11.34" stroke-width=".43"/>
    </g>
    <g>
      <line x1="249.73" y1="332.28" x2="258.24" y2="332.28" fill="none" stroke="#06f" stroke-miterlimit="11.34" stroke-width=".57"/>
      <line x1="253.98" y1="328.03" x2="253.98" y2="336.53" fill="none" stroke="#06f" stroke-miterlimit="11.34" stroke-width=".57"/>
      <circle cx="253.98" cy="332.28" r="3.4" fill="none" stroke="#06f" stroke-miterlimit="11.34" stroke-width=".43"/>
    </g>
    <g>
      <line x1="308.3" y1="79.75" x2="325.3" y2="79.75" fill="none" stroke="#c00" stroke-miterlimit="11.34" stroke-width=".57"/>
      <line x1="316.8" y1="71.24" x2="316.8" y2="88.25" fill="none" stroke="#c00" stroke-miterlimit="11.34" stroke-width=".57"/>
      <circle cx="316.8" cy="79.75" r="7.09" fill="none" stroke="#c00" stroke-miterlimit="11.34" stroke-width=".57"/>
    </g>
    <g>
      <line x1="337.1" y1="79.75" x2="354.1" y2="79.75" fill="none" stroke="#c00" stroke-miterlimit="11.34" stroke-width=".57"/>
      <line x1="345.6" y1="71.24" x2="345.6" y2="88.25" fill="none" stroke="#c00" stroke-miterlimit="11.34" stroke-width=".57"/>
      <circle cx="345.6" cy="79.75" r="9.92" fill="none" stroke="#c00" stroke-miterlimit="11.34" stroke-width=".57"/>
    </g>
    <g>
      <line x1="394.7" y1="79.75" x2="411.7" y2="79.75" fill="none" stroke="#c00" stroke-miterlimit="11.34" stroke-width=".57"/>
      <line x1="403.2" y1="71.24" x2="403.2" y2="88.25" fill="none" stroke="#c00" stroke-miterlimit="11.34" stroke-width=".57"/>
      <circle cx="403.2" cy="79.75" r="7.09" fill="none" stroke="#c00" stroke-miterlimit="11.34" stroke-width=".57"/>
    </g>
    <g>
      <line x1="567.5" y1="130.13" x2="584.5" y2="130.13" fill="none" stroke="#c00" stroke-miterlimit="11.34" stroke-width=".57"/>
      <line x1="576" y1="121.62" x2="576" y2="138.63" fill="none" stroke="#c00" stroke-miterlimit="11.34" stroke-width=".57"/>
      <circle cx="576" cy="130.13" r="8.5" fill="none" stroke="#c00" stroke-miterlimit="11.34" stroke-width=".57"/>
    </g>
    <g>
      <line x1="596.3" y1="130.13" x2="613.3" y2="130.13" fill="none" stroke="#c00" stroke-miterlimit="11.34" stroke-width=".57"/>
      <line x1="604.8" y1="121.62" x2="604.8" y2="138.63" fill="none" stroke="#c00" stroke-miterlimit="11.34" stroke-width=".57"/>
      <circle cx="604.8" cy="130.13" r="9.92" fill="none" stroke="#c00" stroke-miterlimit="11.34" stroke-width=".57"/>
    </g>
    <g>
      <line x1="481.42" y1="130.13" x2="498.43" y2="130.13" fill="none" stroke="#c00" stroke-miterlimit="11.34" stroke-width=".57"/>
      <line x1="489.93" y1="121.62" x2="489.93" y2="138.63" fill="none" stroke="#c00" stroke-miterlimit="11.34" stroke-width=".57"/>
      <circle cx="489.93" cy="130.13" r="8.5" fill="none" stroke="#c00" stroke-miterlimit="11.34" stroke-width=".57"/>
    </g>
    <g>
      <line x1="509.9" y1="130.13" x2="526.9" y2="130.13" fill="none" stroke="#c00" stroke-miterlimit="11.34" stroke-width=".57"/>
      <line x1="518.4" y1="121.62" x2="518.4" y2="138.63" fill="none" stroke="#c00" stroke-miterlimit="11.34" stroke-width=".57"/>
      <circle cx="518.4" cy="130.13" r="9.92" fill="none" stroke="#c00" stroke-miterlimit="11.34" stroke-width=".57"/>
    </g>
    <g>
      <line x1="481.42" y1="173.33" x2="498.43" y2="173.33" fill="none" stroke="#c00" stroke-miterlimit="11.34" stroke-width=".57"/>
      <line x1="489.93" y1="164.82" x2="489.93" y2="181.83" fill="none" stroke="#c00" stroke-miterlimit="11.34" stroke-width=".57"/>
      <circle cx="489.93" cy="173.33" r="8.5" fill="none" stroke="#c00" stroke-miterlimit="11.34" stroke-width=".57"/>
    </g>
    <g>
      <line x1="509.89" y1="173.35" x2="526.9" y2="173.35" fill="none" stroke="#c00" stroke-miterlimit="11.34" stroke-width=".57"/>
      <line x1="518.39" y1="164.84" x2="518.39" y2="181.85" fill="none" stroke="#c00" stroke-miterlimit="11.34" stroke-width=".57"/>
      <circle cx="518.39" cy="173.35" r="9.92" fill="none" stroke="#c00" stroke-miterlimit="11.34" stroke-width=".57"/>
    </g>
    <g>
      <line x1="481.42" y1="216.53" x2="498.43" y2="216.53" fill="none" stroke="#c00" stroke-miterlimit="11.34" stroke-width=".57"/>
      <line x1="489.93" y1="208.02" x2="489.93" y2="225.03" fill="none" stroke="#c00" stroke-miterlimit="11.34" stroke-width=".57"/>
      <circle cx="489.93" cy="216.53" r="8.5" fill="none" stroke="#c00" stroke-miterlimit="11.34" stroke-width=".57"/>
    </g>
    <g>
      <line x1="510.22" y1="216.53" x2="527.23" y2="216.53" fill="none" stroke="#c00" stroke-miterlimit="11.34" stroke-width=".57"/>
      <line x1="518.73" y1="208.02" x2="518.73" y2="225.03" fill="none" stroke="#c00" stroke-miterlimit="11.34" stroke-width=".57"/>
      <circle cx="518.73" cy="216.53" r="9.92" fill="none" stroke="#c00" stroke-miterlimit="11.34" stroke-width=".57"/>
    </g>
    <g>
      <line x1="394.7" y1="130.13" x2="411.71" y2="130.13" fill="none" stroke="#c00" stroke-miterlimit="11.34" stroke-width=".57"/>
      <line x1="403.21" y1="121.62" x2="403.21" y2="138.63" fill="none" stroke="#c00" stroke-miterlimit="11.34" stroke-width=".57"/>
      <circle cx="403.21" cy="130.13" r="8.5" fill="none" stroke="#c00" stroke-miterlimit="11.34" stroke-width=".57"/>
    </g>
    <g>
      <line x1="423.5" y1="130.13" x2="440.51" y2="130.13" fill="none" stroke="#c00" stroke-miterlimit="11.34" stroke-width=".57"/>
      <line x1="432.01" y1="121.62" x2="432.01" y2="138.63" fill="none" stroke="#c00" stroke-miterlimit="11.34" stroke-width=".57"/>
      <circle cx="432.01" cy="130.13" r="9.92" fill="none" stroke="#c00" stroke-miterlimit="11.34" stroke-width=".57"/>
    </g>
    <g>
      <line x1="394.7" y1="173.33" x2="411.71" y2="173.33" fill="none" stroke="#c00" stroke-miterlimit="11.34" stroke-width=".57"/>
      <line x1="403.21" y1="164.82" x2="403.21" y2="181.83" fill="none" stroke="#c00" stroke-miterlimit="11.34" stroke-width=".57"/>
      <circle cx="403.21" cy="173.33" r="8.5" fill="none" stroke="#c00" stroke-miterlimit="11.34" stroke-width=".57"/>
    </g>
    <g>
      <line x1="423.5" y1="173.33" x2="440.51" y2="173.33" fill="none" stroke="#c00" stroke-miterlimit="11.34" stroke-width=".57"/>
      <line x1="432.01" y1="164.82" x2="432.01" y2="181.83" fill="none" stroke="#c00" stroke-miterlimit="11.34" stroke-width=".57"/>
      <circle cx="432.01" cy="173.33" r="9.92" fill="none" stroke="#c00" stroke-miterlimit="11.34" stroke-width=".57"/>
    </g>
    <g>
      <line x1="423.5" y1="216.53" x2="440.51" y2="216.53" fill="none" stroke="#c00" stroke-miterlimit="11.34" stroke-width=".57"/>
      <line x1="432.01" y1="208.02" x2="432.01" y2="225.03" fill="none" stroke="#c00" stroke-miterlimit="11.34" stroke-width=".57"/>
      <circle cx="432.01" cy="216.53" r="9.92" fill="none" stroke="#c00" stroke-miterlimit="11.34" stroke-width=".57"/>
    </g>
    <g>
      <line x1="394.7" y1="216.53" x2="411.71" y2="216.53" fill="none" stroke="#c00" stroke-miterlimit="11.34" stroke-width=".57"/>
      <line x1="403.21" y1="208.02" x2="403.21" y2="225.03" fill="none" stroke="#c00" stroke-miterlimit="11.34" stroke-width=".57"/>
      <circle cx="403.21" cy="216.53" r="8.5" fill="none" stroke="#c00" stroke-miterlimit="11.34" stroke-width=".57"/>
    </g>
    <g>
      <line x1="308.3" y1="130.13" x2="325.31" y2="130.13" fill="none" stroke="#c00" stroke-miterlimit="11.34" stroke-width=".57"/>
      <line x1="316.81" y1="121.62" x2="316.81" y2="138.63" fill="none" stroke="#c00" stroke-miterlimit="11.34" stroke-width=".57"/>
      <circle cx="316.81" cy="130.13" r="8.5" fill="none" stroke="#c00" stroke-miterlimit="11.34" stroke-width=".57"/>
    </g>
    <g>
      <line x1="337.1" y1="130.13" x2="354.11" y2="130.13" fill="none" stroke="#c00" stroke-miterlimit="11.34" stroke-width=".57"/>
      <line x1="345.61" y1="121.62" x2="345.61" y2="138.63" fill="none" stroke="#c00" stroke-miterlimit="11.34" stroke-width=".57"/>
      <circle cx="345.61" cy="130.13" r="9.92" fill="none" stroke="#c00" stroke-miterlimit="11.34" stroke-width=".57"/>
    </g>
    <g>
      <line x1="308.3" y1="173.33" x2="325.31" y2="173.33" fill="none" stroke="#c00" stroke-miterlimit="11.34" stroke-width=".57"/>
      <line x1="316.81" y1="164.82" x2="316.81" y2="181.83" fill="none" stroke="#c00" stroke-miterlimit="11.34" stroke-width=".57"/>
      <circle cx="316.81" cy="173.33" r="8.5" fill="none" stroke="#c00" stroke-miterlimit="11.34" stroke-width=".57"/>
    </g>
    <g>
      <line x1="337.1" y1="173.33" x2="354.11" y2="173.33" fill="none" stroke="#c00" stroke-miterlimit="11.34" stroke-width=".57"/>
      <line x1="345.61" y1="164.82" x2="345.61" y2="181.83" fill="none" stroke="#c00" stroke-miterlimit="11.34" stroke-width=".57"/>
      <circle cx="345.61" cy="173.33" r="9.92" fill="none" stroke="#c00" stroke-miterlimit="11.34" stroke-width=".57"/>
    </g>
    <g>
      <line x1="308.3" y1="216.53" x2="325.31" y2="216.53" fill="none" stroke="#c00" stroke-miterlimit="11.34" stroke-width=".57"/>
      <line x1="316.81" y1="208.02" x2="316.81" y2="225.03" fill="none" stroke="#c00" stroke-miterlimit="11.34" stroke-width=".57"/>
      <circle cx="316.81" cy="216.53" r="8.5" fill="none" stroke="#c00" stroke-miterlimit="11.34" stroke-width=".57"/>
    </g>
    <g>
      <line x1="337.1" y1="216.53" x2="354.11" y2="216.53" fill="none" stroke="#c00" stroke-miterlimit="11.34" stroke-width=".57"/>
      <line x1="345.61" y1="208.02" x2="345.61" y2="225.03" fill="none" stroke="#c00" stroke-miterlimit="11.34" stroke-width=".57"/>
      <circle cx="345.61" cy="216.53" r="9.92" fill="none" stroke="#c00" stroke-miterlimit="11.34" stroke-width=".57"/>
    </g>
    <g>
      <line x1="567.5" y1="173.33" x2="584.5" y2="173.33" fill="none" stroke="#c00" stroke-miterlimit="11.34" stroke-width=".57"/>
      <line x1="576" y1="164.82" x2="576" y2="181.83" fill="none" stroke="#c00" stroke-miterlimit="11.34" stroke-width=".57"/>
      <circle cx="576" cy="173.33" r="8.5" fill="none" stroke="#c00" stroke-miterlimit="11.34" stroke-width=".57"/>
    </g>
    <g>
      <line x1="596.3" y1="173.33" x2="613.3" y2="173.33" fill="none" stroke="#c00" stroke-miterlimit="11.34" stroke-width=".57"/>
      <line x1="604.8" y1="164.82" x2="604.8" y2="181.83" fill="none" stroke="#c00" stroke-miterlimit="11.34" stroke-width=".57"/>
      <circle cx="604.8" cy="173.33" r="9.92" fill="none" stroke="#c00" stroke-miterlimit="11.34" stroke-width=".57"/>
    </g>
    <g>
      <line x1="567.5" y1="216.53" x2="584.5" y2="216.53" fill="none" stroke="#c00" stroke-miterlimit="11.34" stroke-width=".57"/>
      <line x1="576" y1="208.02" x2="576" y2="225.03" fill="none" stroke="#c00" stroke-miterlimit="11.34" stroke-width=".57"/>
      <circle cx="576" cy="216.53" r="8.5" fill="none" stroke="#c00" stroke-miterlimit="11.34" stroke-width=".57"/>
    </g>
    <g>
      <line x1="596.3" y1="216.53" x2="613.3" y2="216.53" fill="none" stroke="#c00" stroke-miterlimit="11.34" stroke-width=".57"/>
      <line x1="604.8" y1="208.02" x2="604.8" y2="225.03" fill="none" stroke="#c00" stroke-miterlimit="11.34" stroke-width=".57"/>
      <circle cx="604.8" cy="216.53" r="9.92" fill="none" stroke="#c00" stroke-miterlimit="11.34" stroke-width=".57"/>
    </g>
    <g>
      <line x1="596.3" y1="302.93" x2="613.3" y2="302.93" fill="none" stroke="#c00" stroke-miterlimit="11.34" stroke-width=".57"/>
      <line x1="604.8" y1="294.42" x2="604.8" y2="311.43" fill="none" stroke="#c00" stroke-miterlimit="11.34" stroke-width=".57"/>
      <circle cx="604.8" cy="302.93" r="9.92" fill="none" stroke="#c00" stroke-miterlimit="11.34" stroke-width=".57"/>
    </g>
    <g>
      <line x1="596.3" y1="331.73" x2="613.3" y2="331.73" fill="none" stroke="#c00" stroke-miterlimit="11.34" stroke-width=".57"/>
      <line x1="604.8" y1="323.22" x2="604.8" y2="340.23" fill="none" stroke="#c00" stroke-miterlimit="11.34" stroke-width=".57"/>
      <circle cx="604.8" cy="331.73" r="9.92" fill="none" stroke="#c00" stroke-miterlimit="11.34" stroke-width=".57"/>
    </g>
    <g>
      <line x1="452.3" y1="274.13" x2="469.31" y2="274.13" fill="none" stroke="#c00" stroke-miterlimit="11.34" stroke-width=".57"/>
      <line x1="460.81" y1="265.62" x2="460.81" y2="282.63" fill="none" stroke="#c00" stroke-miterlimit="11.34" stroke-width=".57"/>
      <circle cx="460.81" cy="274.13" r="9.92" fill="none" stroke="#c00" stroke-miterlimit="11.34" stroke-width=".57"/>
    </g>
    <g>
      <line x1="481.1" y1="274.13" x2="498.11" y2="274.13" fill="none" stroke="#c00" stroke-miterlimit="11.34" stroke-width=".57"/>
      <line x1="489.61" y1="265.62" x2="489.61" y2="282.63" fill="none" stroke="#c00" stroke-miterlimit="11.34" stroke-width=".57"/>
      <circle cx="489.61" cy="274.13" r="9.92" fill="none" stroke="#c00" stroke-miterlimit="11.34" stroke-width=".57"/>
    </g>
    <g>
      <line x1="509.9" y1="274.13" x2="526.91" y2="274.13" fill="none" stroke="#c00" stroke-miterlimit="11.34" stroke-width=".57"/>
      <line x1="518.41" y1="265.62" x2="518.41" y2="282.63" fill="none" stroke="#c00" stroke-miterlimit="11.34" stroke-width=".57"/>
      <circle cx="518.41" cy="274.13" r="9.92" fill="none" stroke="#c00" stroke-miterlimit="11.34" stroke-width=".57"/>
    </g>
    <g>
      <line x1="596.3" y1="274.13" x2="613.3" y2="274.13" fill="none" stroke="#c00" stroke-miterlimit="11.34" stroke-width=".57"/>
      <line x1="604.8" y1="265.62" x2="604.8" y2="282.63" fill="none" stroke="#c00" stroke-miterlimit="11.34" stroke-width=".57"/>
      <circle cx="604.8" cy="274.13" r="9.92" fill="none" stroke="#c00" stroke-miterlimit="11.34" stroke-width=".57"/>
    </g>
    <g>
      <line x1="452.3" y1="302.93" x2="469.31" y2="302.93" fill="none" stroke="#c00" stroke-miterlimit="11.34" stroke-width=".57"/>
      <line x1="460.81" y1="294.42" x2="460.81" y2="311.43" fill="none" stroke="#c00" stroke-miterlimit="11.34" stroke-width=".57"/>
      <circle cx="460.81" cy="302.93" r="9.92" fill="none" stroke="#c00" stroke-miterlimit="11.34" stroke-width=".57"/>
    </g>
    <g>
      <line x1="481.1" y1="302.93" x2="498.11" y2="302.93" fill="none" stroke="#c00" stroke-miterlimit="11.34" stroke-width=".57"/>
      <line x1="489.61" y1="294.42" x2="489.61" y2="311.43" fill="none" stroke="#c00" stroke-miterlimit="11.34" stroke-width=".57"/>
      <circle cx="489.61" cy="302.93" r="9.92" fill="none" stroke="#c00" stroke-miterlimit="11.34" stroke-width=".57"/>
    </g>
    <g>
      <line x1="509.9" y1="302.93" x2="526.91" y2="302.93" fill="none" stroke="#c00" stroke-miterlimit="11.34" stroke-width=".57"/>
      <line x1="518.41" y1="294.42" x2="518.41" y2="311.43" fill="none" stroke="#c00" stroke-miterlimit="11.34" stroke-width=".57"/>
      <circle cx="518.41" cy="302.93" r="9.92" fill="none" stroke="#c00" stroke-miterlimit="11.34" stroke-width=".57"/>
    </g>
    <g>
      <line x1="452.3" y1="331.73" x2="469.31" y2="331.73" fill="none" stroke="#c00" stroke-miterlimit="11.34" stroke-width=".57"/>
      <line x1="460.81" y1="323.22" x2="460.81" y2="340.23" fill="none" stroke="#c00" stroke-miterlimit="11.34" stroke-width=".57"/>
      <circle cx="460.81" cy="331.73" r="9.92" fill="none" stroke="#c00" stroke-miterlimit="11.34" stroke-width=".57"/>
    </g>
    <g>
      <line x1="481.1" y1="331.73" x2="498.11" y2="331.73" fill="none" stroke="#c00" stroke-miterlimit="11.34" stroke-width=".57"/>
      <line x1="489.61" y1="323.22" x2="489.61" y2="340.23" fill="none" stroke="#c00" stroke-miterlimit="11.34" stroke-width=".57"/>
      <circle cx="489.61" cy="331.73" r="9.92" fill="none" stroke="#c00" stroke-miterlimit="11.34" stroke-width=".57"/>
    </g>
    <g>
      <line x1="394.7" y1="274.13" x2="411.71" y2="274.13" fill="none" stroke="#c00" stroke-miterlimit="11.34" stroke-width=".57"/>
      <line x1="403.21" y1="265.62" x2="403.21" y2="282.63" fill="none" stroke="#c00" stroke-miterlimit="11.34" stroke-width=".57"/>
      <circle cx="403.21" cy="274.13" r="9.92" fill="none" stroke="#c00" stroke-miterlimit="11.34" stroke-width=".57"/>
    </g>
    <g>
      <line x1="423.5" y1="274.13" x2="440.51" y2="274.13" fill="none" stroke="#c00" stroke-miterlimit="11.34" stroke-width=".57"/>
      <line x1="432.01" y1="265.62" x2="432.01" y2="282.63" fill="none" stroke="#c00" stroke-miterlimit="11.34" stroke-width=".57"/>
      <circle cx="432.01" cy="274.13" r="9.92" fill="none" stroke="#c00" stroke-miterlimit="11.34" stroke-width=".57"/>
    </g>
    <g>
      <line x1="394.7" y1="302.93" x2="411.71" y2="302.93" fill="none" stroke="#c00" stroke-miterlimit="11.34" stroke-width=".57"/>
      <line x1="403.21" y1="294.42" x2="403.21" y2="311.43" fill="none" stroke="#c00" stroke-miterlimit="11.34" stroke-width=".57"/>
      <circle cx="403.21" cy="302.93" r="9.92" fill="none" stroke="#c00" stroke-miterlimit="11.34" stroke-width=".57"/>
    </g>
    <g>
      <line x1="423.5" y1="302.93" x2="440.51" y2="302.93" fill="none" stroke="#c00" stroke-miterlimit="11.34" stroke-width=".57"/>
      <line x1="432.01" y1="294.42" x2="432.01" y2="311.43" fill="none" stroke="#c00" stroke-miterlimit="11.34" stroke-width=".57"/>
      <circle cx="432.01" cy="302.93" r="9.92" fill="none" stroke="#c00" stroke-miterlimit="11.34" stroke-width=".57"/>
    </g>
    <g>
      <line x1="394.7" y1="331.73" x2="411.71" y2="331.73" fill="none" stroke="#c00" stroke-miterlimit="11.34" stroke-width=".57"/>
      <line x1="403.21" y1="323.22" x2="403.21" y2="340.23" fill="none" stroke="#c00" stroke-miterlimit="11.34" stroke-width=".57"/>
      <circle cx="403.21" cy="331.73" r="9.92" fill="none" stroke="#c00" stroke-miterlimit="11.34" stroke-width=".57"/>
    </g>
    <g>
      <line x1="423.5" y1="331.75" x2="440.5" y2="331.75" fill="none" stroke="#c00" stroke-miterlimit="11.34" stroke-width=".57"/>
      <line x1="432" y1="323.24" x2="432" y2="340.25" fill="none" stroke="#c00" stroke-miterlimit="11.34" stroke-width=".57"/>
      <circle cx="432" cy="331.75" r="9.92" fill="none" stroke="#c00" stroke-miterlimit="11.34" stroke-width=".57"/>
    </g>
    <g>
      <line x1="337.1" y1="274.13" x2="354.11" y2="274.13" fill="none" stroke="#c00" stroke-miterlimit="11.34" stroke-width=".57"/>
      <line x1="345.61" y1="265.62" x2="345.61" y2="282.63" fill="none" stroke="#c00" stroke-miterlimit="11.34" stroke-width=".57"/>
      <circle cx="345.61" cy="274.13" r="9.92" fill="none" stroke="#c00" stroke-miterlimit="11.34" stroke-width=".57"/>
    </g>
    <g>
      <line x1="365.9" y1="274.13" x2="382.91" y2="274.13" fill="none" stroke="#c00" stroke-miterlimit="11.34" stroke-width=".57"/>
      <line x1="374.41" y1="265.62" x2="374.41" y2="282.63" fill="none" stroke="#c00" stroke-miterlimit="11.34" stroke-width=".57"/>
      <circle cx="374.41" cy="274.13" r="9.92" fill="none" stroke="#c00" stroke-miterlimit="11.34" stroke-width=".57"/>
    </g>
    <g>
      <line x1="337.1" y1="302.93" x2="354.11" y2="302.93" fill="none" stroke="#c00" stroke-miterlimit="11.34" stroke-width=".57"/>
      <line x1="345.61" y1="294.42" x2="345.61" y2="311.43" fill="none" stroke="#c00" stroke-miterlimit="11.34" stroke-width=".57"/>
      <circle cx="345.61" cy="302.93" r="9.92" fill="none" stroke="#c00" stroke-miterlimit="11.34" stroke-width=".57"/>
    </g>
    <g>
      <line x1="365.9" y1="302.93" x2="382.91" y2="302.93" fill="none" stroke="#c00" stroke-miterlimit="11.34" stroke-width=".57"/>
      <line x1="374.41" y1="294.42" x2="374.41" y2="311.43" fill="none" stroke="#c00" stroke-miterlimit="11.34" stroke-width=".57"/>
      <circle cx="374.41" cy="302.93" r="9.92" fill="none" stroke="#c00" stroke-miterlimit="11.34" stroke-width=".57"/>
    </g>
    <g>
      <line x1="337.1" y1="331.73" x2="354.11" y2="331.73" fill="none" stroke="#c00" stroke-miterlimit="11.34" stroke-width=".57"/>
      <line x1="345.61" y1="323.22" x2="345.61" y2="340.23" fill="none" stroke="#c00" stroke-miterlimit="11.34" stroke-width=".57"/>
      <circle cx="345.61" cy="331.73" r="9.92" fill="none" stroke="#c00" stroke-miterlimit="11.34" stroke-width=".57"/>
    </g>
    <g>
      <line x1="308.3" y1="274.13" x2="325.31" y2="274.13" fill="none" stroke="#c00" stroke-miterlimit="11.34" stroke-width=".57"/>
      <line x1="316.81" y1="265.62" x2="316.81" y2="282.63" fill="none" stroke="#c00" stroke-miterlimit="11.34" stroke-width=".57"/>
      <circle cx="316.81" cy="274.13" r="9.92" fill="none" stroke="#c00" stroke-miterlimit="11.34" stroke-width=".57"/>
    </g>
    <g>
      <line x1="308.3" y1="302.93" x2="325.31" y2="302.93" fill="none" stroke="#c00" stroke-miterlimit="11.34" stroke-width=".57"/>
      <line x1="316.81" y1="294.42" x2="316.81" y2="311.43" fill="none" stroke="#c00" stroke-miterlimit="11.34" stroke-width=".57"/>
      <circle cx="316.81" cy="302.93" r="9.92" fill="none" stroke="#c00" stroke-miterlimit="11.34" stroke-width=".57"/>
    </g>
    <g>
      <line x1="308.3" y1="331.73" x2="325.31" y2="331.73" fill="none" stroke="#c00" stroke-miterlimit="11.34" stroke-width=".57"/>
      <line x1="316.81" y1="323.22" x2="316.81" y2="340.23" fill="none" stroke="#c00" stroke-miterlimit="11.34" stroke-width=".57"/>
      <circle cx="316.81" cy="331.73" r="9.92" fill="none" stroke="#c00" stroke-miterlimit="11.34" stroke-width=".57"/>
    </g>
    <g>
      <line x1="365.9" y1="331.73" x2="382.91" y2="331.73" fill="none" stroke="#c00" stroke-miterlimit="11.34" stroke-width=".57"/>
      <line x1="374.41" y1="323.22" x2="374.41" y2="340.23" fill="none" stroke="#c00" stroke-miterlimit="11.34" stroke-width=".57"/>
      <circle cx="374.41" cy="331.73" r="9.92" fill="none" stroke="#c00" stroke-miterlimit="11.34" stroke-width=".57"/>
    </g>
    <g>
      <line x1="509.9" y1="331.73" x2="526.91" y2="331.73" fill="none" stroke="#c00" stroke-miterlimit="11.34" stroke-width=".57"/>
      <line x1="518.41" y1="323.22" x2="518.41" y2="340.23" fill="none" stroke="#c00" stroke-miterlimit="11.34" stroke-width=".57"/>
      <circle cx="518.41" cy="331.73" r="9.92" fill="none" stroke="#c00" stroke-miterlimit="11.34" stroke-width=".57"/>
    </g>
  </g>
</svg>