<?xml version="1.0" encoding="UTF-8"?>
<svg xmlns="http://www.w3.org/2000/svg" width="40.64mm" height="128.5mm" viewBox="0 0 115.2 364.25">
  <g id="Labels">
    <rect y="0" width="115.2" height="364.25" fill="#f0f0f0"/>
  </g>
  <g id="UI">
    <g>
      <path id="path12" d="M60,22.78h1.2v-1.2h1.2v2.4h1.2v-3.6h1.2v4.8h1.2v-6h1.2v6h1.2v-3.6h1.2v2.4h1.2v-1.2h1.2" fill="none" stroke="#b2b2b2" stroke-linecap="round" stroke-linejoin="round" stroke-width=".5"/>
      <path id="path13" d="M73.77,25.18l3.6-6c0,1.31,1.01,3.6,2.4,3.6h4.8l1.2,2.4" fill="none" stroke="#b2b2b2" stroke-linecap="square" stroke-linejoin="bevel" stroke-width=".5"/>
      <path id="path17" d="M89.81,19.18h-1.2v7.2h1.2" fill="none" stroke="#b2b2b2" stroke-linecap="square" stroke-linejoin="bevel" stroke-width=".5"/>
      <path id="path18" d="M99.41,19.18h1.2v7.2h-1.2" fill="none" stroke="#b2b2b2" stroke-linecap="square" stroke-linejoin="bevel" stroke-width=".5"/>
      <path id="path21" d="M91.01,19.82l2.4,2.4" fill="none" stroke="#b2b2b2" stroke-linejoin="bevel" stroke-width=".5"/>
      <path id="path22" d="M93.41,19.82l-2.4,2.4" fill="none" stroke="#b2b2b2" stroke-linejoin="bevel" stroke-width=".5"/>
      <path id="path23-5" d="M91.01,23.42l2.4,2.4" fill="none" stroke="#b2b2b2" stroke-linejoin="bevel" stroke-width=".5"/>
      <path id="path24" d="M91.01,25.82l2.4-2.4" fill="none" stroke="#b2b2b2" stroke-linejoin="bevel" stroke-width=".5"/>
      <path id="path25-3" d="M95.81,19.82l2.4,2.4" fill="none" stroke="#b2b2b2" stroke-linejoin="bevel" stroke-width=".5"/>
      <path id="path26-7" d="M98.21,19.82l-2.4,2.4" fill="none" stroke="#b2b2b2" stroke-linejoin="bevel" stroke-width=".5"/>
      <rect id="rect26" x="95.81" y="23.42" width="2.4" height="2.4" fill="none" stroke="#b2b2b2" stroke-linejoin="bevel" stroke-width=".5"/>
    </g>
  </g>
  <g id="Layer_10" data-name="Layer 10">
    <g isolation="isolate">
      <g>
        <path d="M15.01,26.38v-6.3h1.59l1.67,2.48,1.68-2.48h1.59v6.3h-1.45v-4.05l-1.82,2.66-1.83-2.66v4.05h-1.45Z" fill="#231f20"/>
        <path d="M22.55,26.38v-6.3h4.1v1.33h-2.66v1.15h2.22v1.29h-2.22v1.2h2.7v1.33h-4.15Z" fill="#231f20"/>
        <path d="M28.98,26.38v-4.97h-1.84v-1.33h5.11v1.33h-1.84v4.97h-1.44Z" fill="#231f20"/>
        <path d="M32.78,26.38v-6.3h4.1v1.33h-2.65v1.15h2.22v1.29h-2.22v1.2h2.7v1.33h-4.15Z" fill="#231f20"/>
        <path d="M37.84,26.38v-6.3h2.48c.46,0,.86.09,1.21.27.35.18.63.42.83.74.2.32.3.68.3,1.08s-.11.78-.32,1.1-.5.57-.85.73l1.42,2.38h-1.66l-1.21-2.12h-.76v2.12h-1.45ZM39.28,22.93h.98c.17,0,.32-.03.45-.1.13-.07.24-.16.31-.27.08-.12.11-.25.11-.39,0-.22-.08-.41-.25-.55-.17-.14-.38-.22-.65-.22h-.95v1.53Z" fill="#231f20"/>
        <path d="M44.86,26.38l2.29-3.24-2.24-3.06h1.73l1.32,1.9,1.31-1.9h1.73l-2.23,3.06,2.29,3.24h-1.75l-1.35-2.04-1.36,2.04h-1.75Z" fill="#231f20"/>
      </g>
    </g>
    <rect id="rect48" x="61.53" y="38.38" width="48.87" height="316.8" rx="5.67" ry="5.67"/>
    <g isolation="isolate">
      <g>
        <path d="M7.54,59.81v-.55c0-.14.03-.29.09-.45.06-.16.14-.31.26-.46.11-.15.25-.3.4-.43l.82-.7c.1-.08.19-.17.26-.28.08-.11.14-.21.19-.33s.07-.23.07-.34c0-.15-.03-.29-.1-.41-.07-.12-.16-.22-.27-.29s-.26-.11-.42-.11c-.15,0-.29.03-.4.1-.12.07-.21.16-.29.27-.08.11-.13.23-.16.36l-.62-.13c.04-.21.13-.42.26-.6.13-.19.3-.34.5-.45.2-.11.43-.17.69-.17.29,0,.54.06.76.19.21.12.38.29.5.51.12.22.18.46.18.75s-.06.52-.19.75c-.13.23-.31.45-.55.67l-.76.66c-.15.13-.27.27-.36.41-.09.14-.14.29-.16.45h2.08v.62h-2.76Z" fill="#231f20"/>
        <path d="M12.84,59.81v-1.13h-1.97v-.54l1.92-3.23h.62v3.16h.83v.61h-.83v1.13h-.58ZM11.53,58.08h1.31v-2.21l-1.31,2.21Z" fill="#231f20"/>
        <path d="M14.98,59.81v-4.9h1.44c.28,0,.53.07.75.2.22.13.39.32.51.56.12.24.19.51.19.82s-.06.57-.17.81c-.11.24-.27.42-.47.56-.2.14-.43.2-.69.2h-.96v1.75h-.6ZM15.57,57.43h.95c.22,0,.39-.09.53-.26.14-.17.21-.4.21-.68s-.08-.51-.24-.68c-.16-.17-.37-.26-.61-.26h-.83v1.88Z" fill="#231f20"/>
        <path d="M18.54,59.81v-4.9h1.44c.28,0,.53.07.75.2.22.13.39.32.51.56.12.24.19.51.19.82s-.06.57-.17.81c-.11.24-.27.42-.47.56-.2.14-.43.2-.69.2h-.96v1.75h-.6ZM19.14,57.43h.95c.22,0,.39-.09.53-.26.14-.17.21-.4.21-.68s-.08-.51-.24-.68c-.16-.17-.37-.26-.61-.26h-.83v1.88Z" fill="#231f20"/>
        <path d="M25.66,60.09l-.52-.6c-.16.13-.34.23-.54.3-.2.07-.42.11-.64.11-.41,0-.78-.11-1.1-.32-.32-.21-.57-.51-.75-.9-.18-.38-.27-.82-.27-1.32,0-.37.05-.71.16-1.02.1-.31.25-.58.44-.8s.41-.4.67-.53c.26-.12.54-.19.85-.19.42,0,.79.11,1.1.33.32.22.56.52.74.9.18.38.27.82.27,1.31,0,.34-.04.66-.13.95s-.21.55-.37.76l.49.57-.38.44ZM23.96,59.27c.15,0,.28-.02.41-.07.12-.05.24-.12.35-.2l-.59-.69.39-.43.61.71c.1-.16.18-.35.24-.55.05-.2.08-.43.08-.67,0-.37-.06-.7-.19-.99-.13-.29-.3-.51-.53-.67-.22-.16-.49-.24-.78-.24s-.55.08-.77.24c-.23.16-.41.39-.53.67-.13.28-.19.61-.19.99s.06.7.19.99c.13.28.31.51.54.67s.49.25.78.25Z" fill="#231f20"/>
        <path d="M26.87,59.81v-4.9h.61l2.41,3.75v-3.75h.6v4.9h-.6l-2.43-3.79v3.79h-.6Z" fill="#231f20"/>
      </g>
    </g>
    <circle cx="76.55" cy="56.69" r="11.15" fill="#e0803f"/>
    <circle cx="99.22" cy="56.69" r="2.4" fill="#e6b800"/>
    <g isolation="isolate">
      <g>
        <path d="M7.74,90.99v-4.9h1.44c.28,0,.54.06.75.19.22.13.39.31.51.53.12.23.19.49.19.79,0,.32-.08.6-.24.85-.16.24-.37.42-.62.53l1.03,2.01h-.68l-.95-1.88h-.83v1.88h-.6ZM8.34,88.49h.89c.15,0,.28-.04.39-.12.12-.08.21-.18.28-.32s.11-.28.11-.45c0-.26-.08-.47-.24-.64-.16-.16-.36-.24-.62-.24h-.82v1.76Z" fill="#231f20"/>
        <path d="M13.18,91.1c-.33,0-.62-.08-.87-.24s-.44-.38-.58-.66c-.14-.28-.21-.61-.21-.98v-3.14h.6v3.14c0,.24.04.46.14.64s.22.33.38.43c.16.1.35.15.56.15s.4-.05.56-.15c.16-.1.29-.25.38-.43s.13-.4.13-.64v-3.14h.6v3.14c0,.37-.07.69-.21.98-.14.28-.34.5-.59.66s-.55.24-.89.24Z" fill="#231f20"/>
        <path d="M15.88,90.99v-4.9h.62l2.41,3.75v-3.75h.6v4.9h-.6l-2.43-3.79v3.79h-.6Z" fill="#231f20"/>
      </g>
    </g>
    <circle cx="76.55" cy="87.87" r="11.15" fill="#e0803f"/>
    <circle cx="99.22" cy="87.87" r="2.4" fill="#3fbf3f"/>
    <g isolation="isolate">
      <g>
        <path d="M7.74,122.18v-4.9h1.37c.29,0,.54.05.75.15.21.1.37.25.49.46.12.2.17.45.17.74,0,.22-.05.42-.14.6-.09.17-.22.32-.38.43.21.12.37.27.48.47.11.2.17.43.17.7s-.06.53-.17.73c-.11.2-.27.36-.47.46-.2.1-.45.16-.73.16h-1.55ZM8.33,119.39h.88c.22,0,.39-.07.52-.2.13-.13.19-.32.19-.56s-.07-.44-.22-.57c-.15-.13-.35-.2-.62-.2h-.75v1.53ZM8.33,121.56h.92c.25,0,.45-.07.59-.21.14-.14.21-.32.21-.56,0-.26-.08-.46-.24-.61-.16-.14-.38-.21-.67-.21h-.8v1.58Z" fill="#231f20"/>
        <path d="M10.97,122.18l1.72-4.9h.64l1.72,4.9h-.64l-.46-1.31h-1.88l-.46,1.31h-.64ZM12.28,120.26h1.47l-.73-2.11-.74,2.11Z" fill="#231f20"/>
        <path d="M15.65,122.18v-4.9h1.44c.28,0,.53.06.75.19.22.13.39.31.51.53.12.23.19.49.19.79,0,.32-.08.6-.24.85-.16.24-.37.42-.62.53l1.03,2.01h-.68l-.95-1.88h-.83v1.88h-.6ZM16.24,119.68h.9c.15,0,.28-.04.39-.12.12-.08.21-.18.28-.32.07-.13.11-.28.11-.45,0-.26-.08-.47-.24-.64-.16-.16-.36-.24-.62-.24h-.82v1.76Z" fill="#231f20"/>
      </g>
    </g>
    <circle cx="76.55" cy="119.06" r="11.15" fill="#e0803f"/>
    <circle cx="99.22" cy="119.06" r="2.4" fill="#e6b800"/>
    <g isolation="isolate">
      <g>
        <path d="M7.54,153.36v-.55c0-.14.03-.29.09-.45.06-.16.14-.31.26-.46.11-.15.25-.3.4-.43l.82-.7c.1-.08.19-.17.26-.28.08-.11.14-.21.19-.33s.07-.23.07-.34c0-.15-.03-.29-.1-.41-.07-.12-.16-.22-.27-.29s-.26-.11-.42-.11c-.15,0-.29.03-.4.1-.12.07-.21.16-.29.27-.08.11-.13.23-.16.36l-.62-.13c.04-.21.13-.42.26-.6.13-.19.3-.34.5-.45.2-.11.43-.17.69-.17.29,0,.54.06.76.19.21.12.38.29.5.51.12.22.18.46.18.75s-.06.52-.19.75c-.13.23-.31.45-.55.67l-.76.66c-.15.13-.27.27-.36.41-.09.14-.14.29-.16.45h2.08v.62h-2.76Z" fill="#231f20"/>
        <path d="M12.66,153.36v-4.9h1.37c.29,0,.54.05.75.15.21.1.37.25.49.46.12.2.17.45.17.74,0,.22-.05.42-.14.6-.09.17-.22.32-.38.43.21.12.37.27.48.47.11.2.17.43.17.7s-.06.53-.17.73c-.11.2-.27.36-.47.46-.2.1-.45.16-.73.16h-1.55ZM13.25,150.57h.88c.22,0,.39-.07.52-.2.13-.13.19-.32.19-.56s-.07-.44-.22-.57c-.15-.13-.35-.2-.62-.2h-.75v1.53ZM13.25,152.74h.92c.25,0,.45-.07.59-.21.14-.14.21-.32.21-.56,0-.26-.08-.46-.24-.61-.16-.14-.38-.21-.67-.21h-.8v1.58Z" fill="#231f20"/>
        <path d="M15.89,153.36l1.72-4.9h.64l1.72,4.9h-.64l-.46-1.31h-1.88l-.46,1.31h-.64ZM17.2,151.44h1.47l-.73-2.11-.74,2.11Z" fill="#231f20"/>
        <path d="M20.57,153.36v-4.9h1.44c.28,0,.53.06.75.19.22.13.39.31.51.53.12.23.19.49.19.79,0,.32-.08.6-.24.85-.16.24-.37.42-.62.53l1.03,2.01h-.68l-.95-1.88h-.83v1.88h-.6ZM21.16,150.86h.9c.15,0,.28-.04.39-.12.12-.08.21-.18.28-.32.07-.13.11-.28.11-.45,0-.26-.08-.47-.24-.64-.16-.16-.36-.24-.62-.24h-.82v1.76Z" fill="#231f20"/>
      </g>
    </g>
    <circle cx="76.55" cy="150.24" r="11.15" fill="#e0803f"/>
    <circle cx="99.22" cy="150.24" r="2.4" fill="#e6b800"/>
    <g isolation="isolate">
      <g>
        <path d="M9.4,184.54v-1.13h-1.97v-.54l1.92-3.23h.62v3.16h.83v.61h-.83v1.13h-.58ZM8.09,182.81h1.31v-2.21l-1.31,2.21Z" fill="#231f20"/>
        <path d="M13.03,184.54v-4.9h1.37c.29,0,.54.05.75.15.21.1.37.25.49.46.12.2.17.45.17.74,0,.22-.05.42-.14.6-.09.17-.22.32-.38.43.21.12.37.27.48.47.11.2.17.43.17.7s-.06.53-.17.73c-.11.2-.27.36-.47.46-.2.1-.45.16-.73.16h-1.55ZM13.62,181.75h.88c.22,0,.39-.07.52-.2.13-.13.19-.32.19-.56s-.07-.44-.22-.57c-.15-.13-.35-.2-.62-.2h-.75v1.53ZM13.62,183.92h.92c.25,0,.45-.07.59-.21.14-.14.21-.32.21-.56,0-.26-.08-.46-.24-.61-.16-.14-.38-.21-.67-.21h-.8v1.58Z" fill="#231f20"/>
        <path d="M16.26,184.54l1.72-4.9h.64l1.72,4.9h-.64l-.46-1.31h-1.88l-.46,1.31h-.64ZM17.56,182.62h1.47l-.73-2.11-.74,2.11Z" fill="#231f20"/>
        <path d="M20.93,184.54v-4.9h1.44c.28,0,.53.06.75.19.22.13.39.31.51.53.12.23.19.49.19.79,0,.32-.08.6-.24.85-.16.24-.37.42-.62.53l1.03,2.01h-.68l-.95-1.88h-.83v1.88h-.6ZM21.53,182.04h.9c.15,0,.28-.04.39-.12.12-.08.21-.18.28-.32.07-.13.11-.28.11-.45,0-.26-.08-.47-.24-.64-.16-.16-.36-.24-.62-.24h-.82v1.76Z" fill="#231f20"/>
      </g>
    </g>
    <circle cx="76.55" cy="181.42" r="11.15" fill="#e0803f"/>
    <circle cx="99.22" cy="181.42" r="2.4" fill="#e6b800"/>
    <g isolation="isolate">
      <g>
        <path d="M9.06,215.81c-.32,0-.59-.06-.82-.17-.23-.11-.41-.27-.54-.48s-.19-.44-.19-.71c0-.29.07-.54.2-.77.14-.22.32-.39.56-.51-.19-.11-.34-.26-.45-.45s-.16-.41-.16-.66c0-.26.06-.49.17-.69.12-.2.28-.36.49-.47.21-.11.46-.17.74-.17s.53.06.74.17c.21.11.38.27.49.47.12.2.17.43.17.69s-.05.47-.16.66-.26.34-.45.45c.24.12.43.29.56.51.14.22.21.48.21.77,0,.27-.06.51-.19.71s-.31.36-.54.48c-.23.11-.51.17-.83.17ZM9.06,215.21c.28,0,.51-.08.68-.23s.26-.36.26-.61-.09-.46-.26-.62c-.18-.16-.41-.24-.68-.24-.18,0-.34.04-.48.11-.14.07-.25.17-.33.3-.08.13-.12.28-.12.45,0,.16.04.31.12.44.08.13.19.23.33.3.14.07.3.11.49.11ZM9.06,212.9c.24,0,.43-.07.59-.21.15-.14.23-.33.23-.55,0-.24-.08-.44-.23-.59-.15-.15-.35-.23-.59-.23s-.43.08-.58.23c-.15.15-.23.35-.23.59,0,.22.08.41.23.55.15.14.34.21.58.21Z" fill="#231f20"/>
        <path d="M12.97,215.72v-4.9h1.37c.29,0,.54.05.75.15.21.1.37.25.49.46.12.2.17.45.17.74,0,.22-.05.42-.14.6-.09.17-.22.32-.38.43.21.12.37.27.48.47.11.2.17.43.17.7s-.05.53-.17.73-.27.36-.47.46c-.2.1-.45.16-.73.16h-1.55ZM13.56,212.93h.88c.22,0,.39-.07.52-.2.13-.13.19-.32.19-.56s-.07-.44-.22-.57c-.15-.13-.35-.2-.62-.2h-.76v1.53ZM13.56,215.1h.92c.25,0,.45-.07.59-.21s.21-.32.21-.56c0-.26-.08-.46-.24-.61-.16-.14-.38-.21-.67-.21h-.8v1.58Z" fill="#231f20"/>
        <path d="M16.2,215.72l1.72-4.9h.64l1.72,4.9h-.64l-.46-1.31h-1.88l-.46,1.31h-.64ZM17.5,213.8h1.47l-.73-2.11-.74,2.11Z" fill="#231f20"/>
        <path d="M20.87,215.72v-4.9h1.44c.29,0,.54.06.75.19.22.13.39.31.51.53.12.23.19.49.19.79,0,.32-.08.6-.24.85-.16.24-.37.42-.62.53l1.03,2.01h-.68l-.95-1.88h-.83v1.88h-.6ZM21.47,213.22h.89c.15,0,.28-.04.39-.12.12-.08.21-.18.28-.32.07-.13.11-.28.11-.45,0-.26-.08-.47-.24-.64-.16-.16-.36-.24-.62-.24h-.82v1.76Z" fill="#231f20"/>
      </g>
    </g>
    <circle cx="76.55" cy="212.6" r="11.15" fill="#e0803f"/>
    <circle cx="99.22" cy="212.6" r="2.4" fill="#e6b800"/>
    <g isolation="isolate">
      <g>
        <path d="M8.48,246.9v-4.01c-.15.14-.3.25-.46.33-.16.08-.32.12-.48.12v-.62c.09,0,.19-.03.31-.1.12-.07.24-.16.36-.27.12-.11.23-.23.32-.34h.53v4.9h-.58Z" fill="#231f20"/>
        <path d="M11.55,246.98c-.29,0-.54-.06-.74-.19-.2-.13-.36-.3-.48-.51-.12-.22-.21-.47-.26-.75-.05-.28-.08-.59-.08-.91,0-.41.04-.77.11-1.11.07-.33.18-.62.32-.85.14-.24.32-.42.52-.55.21-.13.44-.19.71-.19.21,0,.43.04.64.12s.4.18.57.32l-.32.5c-.13-.1-.27-.18-.42-.23-.15-.05-.29-.08-.42-.08-.39,0-.68.19-.89.56-.21.38-.3.95-.28,1.73l-.12-.12c.1-.27.25-.5.46-.66s.46-.25.74-.25.52.07.73.21c.21.14.38.33.49.57s.18.52.18.83-.06.57-.18.81c-.12.24-.29.42-.51.56-.22.14-.48.2-.77.2ZM11.55,246.38c.17,0,.31-.04.44-.13.13-.08.23-.2.31-.35.07-.15.11-.32.11-.51s-.04-.37-.11-.52c-.08-.15-.18-.27-.31-.35-.13-.08-.28-.13-.44-.13s-.32.04-.45.13-.24.2-.31.35c-.08.15-.11.33-.11.52s.04.36.11.51c.08.15.18.27.31.35s.28.13.45.13Z" fill="#231f20"/>
        <path d="M15.22,246.9v-4.9h1.37c.29,0,.54.05.75.15s.37.25.49.46c.12.2.17.45.17.74,0,.22-.04.42-.14.6-.09.17-.22.32-.38.43.21.12.37.27.48.47.11.2.17.43.17.7s-.06.53-.17.73-.27.36-.47.46c-.2.1-.45.16-.73.16h-1.55ZM15.82,244.11h.88c.22,0,.39-.07.52-.2.13-.13.19-.32.19-.56s-.07-.44-.22-.57c-.15-.13-.35-.2-.61-.2h-.75v1.53ZM15.82,246.28h.92c.25,0,.45-.07.59-.21s.21-.32.21-.56c0-.26-.08-.46-.24-.61s-.38-.21-.67-.21h-.8v1.58Z" fill="#231f20"/>
        <path d="M18.46,246.9l1.72-4.9h.64l1.72,4.9h-.64l-.46-1.31h-1.88l-.46,1.31h-.64ZM19.76,244.98h1.47l-.73-2.11-.74,2.11Z" fill="#231f20"/>
        <path d="M23.13,246.9v-4.9h1.44c.28,0,.53.06.75.19.22.13.39.31.51.53.12.23.19.49.19.79,0,.32-.08.6-.24.85-.16.24-.37.42-.62.53l1.03,2.01h-.68l-.95-1.88h-.83v1.88h-.6ZM23.72,244.39h.9c.15,0,.28-.04.39-.12.12-.08.21-.18.28-.32.07-.13.11-.28.11-.45,0-.26-.08-.47-.24-.64-.16-.16-.36-.24-.62-.24h-.82v1.76Z" fill="#231f20"/>
      </g>
    </g>
    <circle cx="76.55" cy="243.78" r="11.15" fill="#e0803f"/>
    <circle cx="99.22" cy="243.78" r="2.4" fill="#e6b800"/>
    <g isolation="isolate">
      <g>
        <path d="M8.86,278.17c-.22,0-.42-.04-.6-.11-.18-.07-.33-.18-.45-.31s-.22-.27-.28-.43l.52-.27c.04.07.09.14.15.22s.14.15.24.21c.1.06.23.08.38.08.26,0,.46-.08.61-.25.15-.17.23-.38.23-.64,0-.19-.04-.35-.13-.49-.09-.13-.22-.23-.39-.3s-.38-.1-.63-.1h-.15v-.58h.15c.33,0,.59-.07.78-.2.19-.13.28-.32.28-.55,0-.14-.03-.26-.09-.37-.06-.11-.15-.2-.26-.27s-.24-.1-.4-.1c-.1,0-.19.02-.28.05-.09.04-.18.09-.25.15-.08.07-.14.16-.2.26l-.5-.26c.07-.17.17-.32.29-.44.13-.12.27-.21.44-.28s.34-.1.53-.1c.26,0,.48.06.68.17.2.11.36.27.47.46.12.2.17.42.17.66s-.06.47-.18.65c-.12.18-.29.32-.5.43.24.12.43.29.57.5.14.21.21.46.21.76s-.06.54-.19.76c-.13.22-.3.38-.51.5-.21.12-.45.17-.7.17Z" fill="#231f20"/>
        <path d="M10.87,278.08v-.55c0-.14.03-.29.09-.45.06-.16.14-.31.26-.46.11-.15.24-.3.4-.43l.82-.7c.1-.08.19-.17.26-.28.08-.11.14-.21.19-.33s.07-.23.07-.34c0-.15-.03-.29-.1-.41-.06-.12-.16-.22-.27-.29-.12-.07-.26-.11-.42-.11-.15,0-.29.03-.41.1-.12.07-.21.16-.29.27-.08.11-.13.23-.16.36l-.62-.13c.04-.21.13-.42.26-.6.13-.19.3-.34.5-.45s.43-.17.69-.17c.29,0,.54.06.76.19.21.12.38.29.5.51.12.22.18.46.18.75s-.06.52-.19.75-.31.45-.55.67l-.76.66c-.15.13-.27.27-.36.41-.09.14-.14.29-.16.45h2.08v.62h-2.76Z" fill="#231f20"/>
        <path d="M15.99,278.08v-4.9h1.37c.29,0,.54.05.75.15s.37.25.49.46c.12.2.17.45.17.74,0,.22-.04.42-.14.6-.09.17-.22.32-.38.43.21.12.37.27.48.47.11.2.17.43.17.7s-.06.53-.17.73-.27.36-.47.46c-.2.1-.45.16-.73.16h-1.55ZM16.58,275.29h.88c.22,0,.39-.07.52-.2.13-.13.19-.32.19-.56s-.07-.44-.22-.57c-.15-.13-.35-.2-.61-.2h-.75v1.53ZM16.58,277.46h.92c.25,0,.45-.07.59-.21s.21-.32.21-.56c0-.26-.08-.46-.24-.61s-.38-.21-.67-.21h-.8v1.58Z" fill="#231f20"/>
        <path d="M19.23,278.08l1.72-4.9h.64l1.72,4.9h-.64l-.46-1.31h-1.88l-.46,1.31h-.64ZM20.53,276.16h1.47l-.73-2.11-.74,2.11Z" fill="#231f20"/>
        <path d="M23.9,278.08v-4.9h1.44c.28,0,.53.06.75.19.22.13.39.31.51.53.12.23.19.49.19.79,0,.32-.08.6-.24.85-.16.24-.37.42-.62.53l1.03,2.01h-.68l-.95-1.88h-.83v1.88h-.6ZM24.49,275.58h.9c.15,0,.28-.04.39-.12.12-.08.21-.18.28-.32.07-.13.11-.28.11-.45,0-.26-.08-.47-.24-.64-.16-.16-.36-.24-.62-.24h-.82v1.76Z" fill="#231f20"/>
      </g>
    </g>
    <circle cx="76.55" cy="274.96" r="11.15" fill="#e0803f"/>
    <circle cx="99.22" cy="274.96" r="2.4" fill="#e6b800"/>
    <g isolation="isolate">
      <g>
        <path d="M9.01,309.35c-.29,0-.54-.06-.74-.19-.2-.13-.36-.3-.48-.51-.12-.22-.21-.47-.26-.75-.05-.28-.08-.59-.08-.91,0-.41.04-.77.11-1.11.07-.33.18-.62.32-.85s.32-.42.52-.55c.21-.13.45-.19.71-.19.21,0,.43.04.64.12.21.08.4.18.57.32l-.32.5c-.13-.1-.27-.18-.42-.23s-.29-.08-.42-.08c-.39,0-.68.19-.89.56-.21.38-.3.95-.28,1.73l-.12-.12c.1-.27.25-.5.46-.66s.46-.25.74-.25.52.07.73.21c.21.14.38.33.49.57.12.24.18.52.18.83s-.06.57-.18.81c-.12.24-.29.42-.51.56-.22.14-.48.2-.77.2ZM9.02,308.74c.17,0,.31-.04.44-.13s.23-.2.31-.35c.07-.15.11-.32.11-.51s-.04-.37-.11-.52c-.08-.15-.18-.27-.31-.35s-.28-.13-.44-.13-.32.04-.45.13c-.13.08-.24.2-.31.35-.08.15-.11.33-.11.52s.04.36.11.51c.07.15.18.27.31.35.13.08.28.13.45.13Z" fill="#231f20"/>
        <path d="M12.87,309.26v-1.13h-1.97v-.54l1.92-3.23h.62v3.16h.83v.61h-.83v1.13h-.58ZM11.56,307.52h1.31v-2.21l-1.31,2.21Z" fill="#231f20"/>
        <path d="M16.49,309.26v-4.9h1.37c.29,0,.54.05.75.15.21.1.37.25.49.46.12.2.17.45.17.74,0,.22-.05.42-.14.6-.09.17-.22.32-.38.43.21.12.37.27.48.47.11.2.17.43.17.7s-.05.53-.17.73-.27.36-.47.46c-.2.1-.45.16-.73.16h-1.55ZM17.08,306.47h.88c.22,0,.39-.07.52-.2.13-.13.19-.32.19-.56s-.07-.44-.22-.57c-.15-.13-.35-.2-.62-.2h-.76v1.53ZM17.08,308.64h.92c.25,0,.45-.07.59-.21s.21-.32.21-.56c0-.26-.08-.46-.24-.61-.16-.14-.38-.21-.67-.21h-.8v1.58Z" fill="#231f20"/>
        <path d="M19.72,309.26l1.72-4.9h.64l1.72,4.9h-.64l-.46-1.31h-1.88l-.46,1.31h-.64ZM21.03,307.34h1.47l-.73-2.11-.74,2.11Z" fill="#231f20"/>
        <path d="M24.39,309.26v-4.9h1.44c.29,0,.54.06.75.19.22.13.39.31.51.53.12.23.19.49.19.79,0,.32-.08.6-.24.85-.16.24-.37.42-.62.53l1.03,2.01h-.68l-.95-1.88h-.83v1.88h-.6ZM24.99,306.76h.89c.15,0,.28-.04.39-.12.12-.08.21-.18.28-.32.07-.13.11-.28.11-.45,0-.26-.08-.47-.24-.64-.16-.16-.36-.24-.62-.24h-.82v1.76Z" fill="#231f20"/>
      </g>
    </g>
    <circle cx="76.55" cy="306.14" r="11.15" fill="#e0803f"/>
    <circle cx="99.22" cy="306.14" r="2.4" fill="#e6b800"/>
    <g isolation="isolate">
      <g>
        <path d="M8.48,340.44v-4.01c-.15.14-.3.25-.46.33-.16.08-.32.12-.48.12v-.62c.09,0,.19-.03.31-.1.12-.07.24-.16.36-.27.12-.11.23-.23.32-.34h.53v4.9h-.58Z" fill="#231f20"/>
        <path d="M10.07,340.44v-.55c0-.14.03-.29.09-.45.06-.16.14-.31.26-.46.11-.15.25-.3.4-.43l.82-.7c.1-.08.19-.17.27-.28.08-.11.14-.21.19-.33s.07-.23.07-.34c0-.15-.03-.29-.1-.41-.07-.12-.16-.22-.27-.29-.12-.07-.26-.11-.42-.11s-.29.03-.4.1c-.12.07-.21.16-.29.27-.08.11-.13.23-.17.36l-.61-.13c.04-.21.13-.42.26-.6.13-.19.3-.34.5-.45.2-.11.43-.17.69-.17.29,0,.54.06.76.19.21.12.38.29.5.51.12.22.18.46.18.75s-.06.52-.19.75-.31.45-.55.67l-.76.66c-.15.13-.27.27-.36.41-.09.14-.14.29-.16.45h2.08v.62h-2.76Z" fill="#231f20"/>
        <path d="M15.03,340.52c-.32,0-.59-.06-.82-.17-.23-.11-.41-.27-.54-.48s-.19-.44-.19-.71c0-.29.07-.54.2-.77.14-.22.32-.39.56-.51-.19-.11-.34-.26-.45-.45s-.16-.41-.16-.66c0-.26.06-.49.17-.69.12-.2.28-.36.49-.47.21-.11.46-.17.74-.17s.53.06.74.17c.21.11.38.27.49.47.12.2.17.43.17.69s-.05.47-.16.66-.26.34-.45.45c.24.12.43.29.56.51.14.22.21.48.21.77,0,.27-.06.51-.19.71s-.31.36-.54.48c-.23.11-.51.17-.83.17ZM15.03,339.93c.28,0,.51-.08.68-.23s.26-.36.26-.61-.09-.46-.26-.62c-.18-.16-.41-.24-.68-.24-.18,0-.34.04-.48.11-.14.07-.25.17-.33.3-.08.13-.12.28-.12.45,0,.16.04.31.12.44.08.13.19.23.33.3.14.07.3.11.49.11ZM15.03,337.62c.24,0,.43-.07.59-.21.15-.14.23-.33.23-.55,0-.24-.08-.44-.23-.59-.15-.15-.35-.23-.59-.23s-.43.08-.58.23c-.15.15-.23.35-.23.59,0,.22.08.41.23.55.15.14.34.21.58.21Z" fill="#231f20"/>
        <path d="M18.93,340.44v-4.9h1.37c.29,0,.54.05.75.15.21.1.37.25.49.46.12.2.17.45.17.74,0,.22-.05.42-.14.6-.09.17-.22.32-.38.43.21.12.37.27.48.47.11.2.17.43.17.7s-.05.53-.17.73-.27.36-.47.46c-.2.1-.45.16-.73.16h-1.55ZM19.52,337.65h.88c.22,0,.39-.07.52-.2.13-.13.19-.32.19-.56s-.07-.44-.22-.57c-.15-.13-.35-.2-.62-.2h-.76v1.53ZM19.52,339.82h.92c.25,0,.45-.07.59-.21s.21-.32.21-.56c0-.26-.08-.46-.24-.61-.16-.14-.38-.21-.67-.21h-.8v1.58Z" fill="#231f20"/>
        <path d="M22.17,340.44l1.72-4.9h.64l1.72,4.9h-.64l-.46-1.31h-1.88l-.46,1.31h-.64ZM23.47,338.52h1.47l-.73-2.11-.74,2.11Z" fill="#231f20"/>
        <path d="M26.84,340.44v-4.9h1.44c.29,0,.54.06.75.19.22.13.39.31.51.53.12.23.19.49.19.79,0,.32-.08.6-.24.85-.16.24-.37.42-.62.53l1.03,2.01h-.68l-.95-1.88h-.83v1.88h-.6ZM27.43,337.93h.89c.15,0,.28-.04.39-.12.12-.08.21-.18.28-.32.07-.13.11-.28.11-.45,0-.26-.08-.47-.24-.64-.16-.16-.36-.24-.62-.24h-.82v1.76Z" fill="#231f20"/>
      </g>
    </g>
    <circle cx="76.55" cy="337.32" r="11.15" fill="#e0803f"/>
    <circle cx="99.22" cy="337.32" r="2.4" fill="#e6b800"/>
  </g>
</svg>