<?xml version="1.0" encoding="UTF-8"?>
<svg xmlns="http://www.w3.org/2000/svg" width="17" height="261.00" viewBox="0 0 17 261.00">
  <!-- Track: recessed channel spanning the detent range -->
  <rect x="6.5" y="2.00" width="4" height="257.00" rx="1.5" ry="1.5" fill="#1a1a2e"/>
  <!-- Tick rail (40 ticks, one per detent, aligned to the panel grid) -->
  <g stroke="#a0a0a0" stroke-width="0.5" stroke-linecap="round" opacity="0.45">
    <line x1="11.5" y1="3.00" x2="13.5" y2="3.00"/>
    <line x1="11.5" y1="9.54" x2="13.5" y2="9.54"/>
    <line x1="11.5" y1="16.08" x2="13.5" y2="16.08"/>
    <line x1="11.5" y1="22.62" x2="13.5" y2="22.62"/>
    <line x1="11.5" y1="29.15" x2="13.5" y2="29.15"/>
    <line x1="11.5" y1="35.69" x2="13.5" y2="35.69"/>
    <line x1="11.5" y1="42.23" x2="13.5" y2="42.23"/>
    <line x1="11.5" y1="48.77" x2="13.5" y2="48.77"/>
    <line x1="11.5" y1="55.31" x2="13.5" y2="55.31"/>
    <line x1="11.5" y1="61.85" x2="13.5" y2="61.85"/>
    <line x1="11.5" y1="68.38" x2="13.5" y2="68.38"/>
    <line x1="11.5" y1="74.92" x2="13.5" y2="74.92"/>
    <line x1="11.5" y1="81.46" x2="13.5" y2="81.46"/>
    <line x1="11.5" y1="88.00" x2="13.5" y2="88.00"/>
    <line x1="11.5" y1="94.54" x2="13.5" y2="94.54"/>
    <line x1="11.5" y1="101.08" x2="13.5" y2="101.08"/>
    <line x1="11.5" y1="107.62" x2="13.5" y2="107.62"/>
    <line x1="11.5" y1="114.15" x2="13.5" y2="114.15"/>
    <line x1="11.5" y1="120.69" x2="13.5" y2="120.69"/>
    <line x1="11.5" y1="127.23" x2="13.5" y2="127.23"/>
    <line x1="11.5" y1="133.77" x2="13.5" y2="133.77"/>
    <line x1="11.5" y1="140.31" x2="13.5" y2="140.31"/>
    <line x1="11.5" y1="146.85" x2="13.5" y2="146.85"/>
    <line x1="11.5" y1="153.38" x2="13.5" y2="153.38"/>
    <line x1="11.5" y1="159.92" x2="13.5" y2="159.92"/>
    <line x1="11.5" y1="166.46" x2="13.5" y2="166.46"/>
    <line x1="11.5" y1="173.00" x2="13.5" y2="173.00"/>
    <line x1="11.5" y1="179.54" x2="13.5" y2="179.54"/>
    <line x1="11.5" y1="186.08" x2="13.5" y2="186.08"/>
    <line x1="11.5" y1="192.62" x2="13.5" y2="192.62"/>
    <line x1="11.5" y1="199.15" x2="13.5" y2="199.15"/>
    <line x1="11.5" y1="205.69" x2="13.5" y2="205.69"/>
    <line x1="11.5" y1="212.23" x2="13.5" y2="212.23"/>
    <line x1="11.5" y1="218.77" x2="13.5" y2="218.77"/>
    <line x1="11.5" y1="225.31" x2="13.5" y2="225.31"/>
    <line x1="11.5" y1="231.85" x2="13.5" y2="231.85"/>
    <line x1="11.5" y1="238.38" x2="13.5" y2="238.38"/>
    <line x1="11.5" y1="244.92" x2="13.5" y2="244.92"/>
    <line x1="11.5" y1="251.46" x2="13.5" y2="251.46"/>
    <line x1="11.5" y1="258.00" x2="13.5" y2="258.00"/>
  </g>
</svg>
