<?xml version="1.0" encoding="UTF-8"?>
<svg xmlns="http://www.w3.org/2000/svg" width="152.4mm" height="128.5mm" viewBox="0 0 432 364.25">
  <g id="Background">
    <g id="Background-2" data-name="Background">
      <rect y="0" width="432" height="364.25" fill="#f0f0f0"/>
    </g>
  </g>
  <g id="UI">
    <g>
      <path id="path12" d="M376.99,22.78h1.2v-1.2h1.2v2.4h1.2v-3.6h1.2v4.8h1.2v-6h1.2v6h1.2v-3.6h1.2v2.4h1.2v-1.2h1.2" fill="none" stroke="#b2b2b2" stroke-linecap="round" stroke-linejoin="round" stroke-width=".5"/>
      <path id="path13" d="M390.76,25.18l3.6-6c0,1.31,1.01,3.6,2.4,3.6h4.8l1.2,2.4" fill="none" stroke="#b2b2b2" stroke-linecap="square" stroke-linejoin="bevel" stroke-width=".5"/>
      <path id="path17" d="M406.8,19.18h-1.2v7.2h1.2" fill="none" stroke="#b2b2b2" stroke-linecap="square" stroke-linejoin="bevel" stroke-width=".5"/>
      <path id="path18" d="M416.4,19.18h1.2v7.2h-1.2" fill="none" stroke="#b2b2b2" stroke-linecap="square" stroke-linejoin="bevel" stroke-width=".5"/>
      <path id="path21" d="M408,19.82l2.4,2.4" fill="none" stroke="#b2b2b2" stroke-linejoin="bevel" stroke-width=".5"/>
      <path id="path22" d="M410.4,19.82l-2.4,2.4" fill="none" stroke="#b2b2b2" stroke-linejoin="bevel" stroke-width=".5"/>
      <path id="path23-5" d="M408,23.42l2.4,2.4" fill="none" stroke="#b2b2b2" stroke-linejoin="bevel" stroke-width=".5"/>
      <path id="path24" d="M408,25.82l2.4-2.4" fill="none" stroke="#b2b2b2" stroke-linejoin="bevel" stroke-width=".5"/>
      <path id="path25-3" d="M412.8,19.82l2.4,2.4" fill="none" stroke="#b2b2b2" stroke-linejoin="bevel" stroke-width=".5"/>
      <path id="path26-7" d="M415.2,19.82l-2.4,2.4" fill="none" stroke="#b2b2b2" stroke-linejoin="bevel" stroke-width=".5"/>
      <rect id="rect26" x="412.8" y="23.42" width="2.4" height="2.4" fill="none" stroke="#b2b2b2" stroke-linejoin="bevel" stroke-width=".5"/>
    </g>
  </g>
  <g id="Text">
    <g>
      <rect x="14.4" y="16.78" width="43.2" height="12" fill="none"/>
      <path d="M15.01,25.93v-6.3h1.59l1.67,2.48,1.68-2.48h1.59v6.3h-1.45v-4.05l-1.82,2.66-1.83-2.66v4.05h-1.45Z" fill="#231f20"/>
      <path d="M25.08,26.05c-.54,0-1.01-.1-1.4-.31-.39-.2-.69-.49-.9-.87s-.31-.82-.31-1.34v-3.91h1.45v3.91c0,.24.05.45.14.62.1.17.23.31.41.41.18.1.39.14.63.14s.45-.05.63-.14c.18-.1.32-.23.41-.41.1-.17.14-.38.14-.62v-3.91h1.45v3.91c0,.52-.11.96-.32,1.34s-.52.67-.92.87c-.4.2-.87.31-1.42.31Z" fill="#231f20"/>
      <path d="M30.81,26.04c-.31,0-.6-.04-.88-.12s-.53-.19-.76-.33c-.23-.14-.41-.3-.55-.48s-.23-.37-.27-.57l1.43-.41c.07.17.18.33.35.45s.37.2.62.2c.25,0,.45-.05.62-.17.16-.12.25-.28.25-.47,0-.15-.06-.28-.18-.4s-.28-.2-.5-.26l-.89-.22c-.31-.08-.58-.2-.81-.37-.23-.17-.41-.37-.54-.62s-.19-.52-.19-.83c0-.61.2-1.08.6-1.42.4-.34.97-.51,1.7-.51.4,0,.75.06,1.05.17.3.11.56.27.77.49s.38.49.51.81l-1.42.42c-.05-.16-.15-.31-.31-.44-.16-.13-.36-.2-.62-.2s-.45.06-.59.17c-.14.11-.21.28-.21.5,0,.15.06.27.17.37.11.1.27.17.47.22l.89.23c.51.13.91.36,1.19.71.28.35.43.74.43,1.17,0,.4-.09.74-.27,1.02-.18.28-.45.5-.8.65-.35.15-.77.23-1.26.23Z" fill="#231f20"/>
      <path d="M33.85,25.93v-6.3h4.1v1.33h-2.66v1.15h2.22v1.29h-2.22v1.2h2.7v1.33h-4.15Z" fill="#231f20"/>
    </g>
  </g>
  <g id="Layer_8" data-name="Layer 8">
    <g isolation="isolate">
      <g>
        <path d="M19.77,328.87c-.47,0-.88-.11-1.25-.33-.36-.22-.65-.52-.85-.9-.21-.38-.31-.82-.31-1.31s.1-.93.31-1.31c.21-.38.49-.68.85-.9s.77-.33,1.24-.33c.3,0,.59.05.87.16s.52.26.74.46.38.42.5.68l-.62.28c-.09-.19-.21-.36-.36-.5-.15-.14-.33-.25-.52-.33-.19-.08-.4-.12-.61-.12-.33,0-.62.08-.88.25-.26.16-.46.39-.6.67-.14.28-.22.61-.22.99s.07.71.22.99c.15.29.35.51.61.68.26.16.55.24.88.24.21,0,.42-.04.61-.13.19-.09.36-.21.51-.36s.27-.33.37-.52l.62.27c-.12.27-.28.5-.5.71-.21.21-.46.37-.74.48s-.57.17-.88.17Z" fill="#231f20"/>
        <path d="M22.73,328.78v-4.9h.69v4.27h2.27v.63h-2.96Z" fill="#231f20"/>
        <path d="M28.4,328.87c-.48,0-.9-.11-1.27-.32-.37-.21-.66-.51-.87-.9-.21-.38-.31-.82-.31-1.31s.1-.94.31-1.32c.21-.38.49-.68.86-.9.36-.22.78-.33,1.26-.33s.9.11,1.26.33.65.52.85.9c.21.38.31.82.31,1.31s-.1.93-.31,1.32c-.21.38-.49.68-.85.9-.36.21-.78.32-1.25.32ZM28.41,328.24c.33,0,.62-.08.88-.25.26-.16.46-.39.6-.67.14-.28.22-.61.22-.99s-.07-.7-.22-.98-.35-.51-.61-.67c-.26-.16-.56-.25-.89-.25s-.63.08-.9.25c-.26.16-.47.39-.61.67s-.22.62-.22.98.07.7.22.99c.15.29.36.51.62.67.26.16.57.25.91.25Z" fill="#231f20"/>
        <path d="M33.82,328.87c-.47,0-.88-.11-1.25-.33-.36-.22-.65-.52-.85-.9-.21-.38-.31-.82-.31-1.31s.1-.93.31-1.31c.21-.38.49-.68.85-.9s.77-.33,1.24-.33c.3,0,.59.05.87.16s.52.26.74.46c.22.19.38.42.5.68l-.62.28c-.09-.19-.21-.36-.36-.5-.15-.14-.33-.25-.52-.33-.19-.08-.4-.12-.61-.12-.33,0-.62.08-.88.25-.26.16-.46.39-.6.67-.14.28-.22.61-.22.99s.07.71.22.99c.15.29.35.51.61.68s.55.24.89.24c.21,0,.42-.04.61-.13.19-.09.36-.21.51-.36.15-.15.27-.33.37-.52l.62.27c-.12.27-.28.5-.5.71-.21.21-.46.37-.74.48s-.57.17-.88.17Z" fill="#231f20"/>
        <path d="M36.79,328.78v-4.9h.67v2.17l2.08-2.17h.88l-2.09,2.21,2.18,2.69h-.85l-1.79-2.22-.41.43v1.79h-.67Z" fill="#231f20"/>
      </g>
    </g>
    <g isolation="isolate">
      <g>
        <path d="M50.83,328.78v-4.9h1.65c.33,0,.62.06.87.19.25.13.45.31.59.53.14.23.21.49.21.79,0,.32-.09.6-.27.85-.18.24-.42.42-.71.53l1.18,2.01h-.78l-1.09-1.88h-.96v1.88h-.69ZM51.52,326.28h1.03c.17,0,.32-.04.45-.12s.24-.18.32-.32.12-.28.12-.45c0-.26-.09-.47-.27-.64-.18-.16-.42-.25-.71-.25h-.94v1.76Z" fill="#231f20"/>
        <path d="M57.09,328.89c-.38,0-.71-.08-1-.23s-.51-.38-.67-.66-.24-.61-.24-.98v-3.14h.69v3.14c0,.24.05.46.16.64.11.19.25.33.43.43.18.1.4.15.64.15s.46-.05.64-.15c.19-.1.33-.25.43-.43.1-.19.15-.4.15-.64v-3.14h.69v3.14c0,.37-.08.69-.24.98-.16.28-.39.5-.68.66s-.63.23-1.02.23Z" fill="#231f20"/>
        <path d="M60.19,328.78v-4.9h.71l2.77,3.75v-3.75h.69v4.9h-.69l-2.79-3.79v3.79h-.69Z" fill="#231f20"/>
      </g>
    </g>
    <g isolation="isolate">
      <g>
        <path d="M106.43,328.87c-.26,0-.5-.03-.71-.09s-.4-.14-.55-.25c-.16-.11-.29-.22-.39-.35-.1-.13-.17-.27-.22-.41l.67-.22c.07.19.2.36.4.5.2.14.44.21.72.22.35,0,.62-.07.82-.21.2-.14.3-.32.3-.55,0-.21-.09-.38-.26-.51-.17-.13-.4-.23-.69-.3l-.57-.15c-.22-.06-.43-.15-.61-.26-.18-.11-.33-.25-.44-.43s-.16-.38-.16-.62c0-.45.15-.8.44-1.05.29-.25.71-.38,1.26-.38.32,0,.59.05.83.15.23.1.43.23.58.4s.26.34.33.54l-.67.22c-.08-.21-.21-.38-.41-.51-.19-.13-.43-.19-.71-.19-.29,0-.53.07-.7.21-.17.14-.26.33-.26.57,0,.21.07.36.2.47.13.11.31.19.54.25l.57.14c.46.11.81.3,1.06.56.25.26.38.54.38.85,0,.27-.07.51-.2.72-.13.21-.33.38-.59.5-.26.12-.58.19-.96.19Z" fill="#231f20"/>
        <path d="M111.22,328.87c-.47,0-.88-.11-1.25-.33-.36-.22-.65-.52-.85-.9-.21-.38-.31-.82-.31-1.31s.1-.93.31-1.31c.21-.38.49-.68.85-.9s.77-.33,1.24-.33c.3,0,.59.05.87.16s.52.26.74.46.38.42.5.68l-.62.28c-.09-.19-.21-.36-.36-.5-.15-.14-.33-.25-.52-.33-.19-.08-.4-.12-.61-.12-.33,0-.62.08-.88.25-.26.16-.46.39-.6.67-.14.28-.22.61-.22.99s.07.71.22.99c.15.29.35.51.61.68.26.16.55.24.88.24.21,0,.42-.04.61-.13.19-.09.36-.21.51-.36s.27-.33.37-.52l.62.27c-.12.27-.28.5-.5.71-.21.21-.46.37-.74.48s-.57.17-.88.17Z" fill="#231f20"/>
        <path d="M113.63,328.78l1.97-4.9h.74l1.97,4.9h-.73l-.53-1.31h-2.16l-.53,1.31h-.74ZM115.12,326.86h1.69l-.84-2.11-.85,2.11Z" fill="#231f20"/>
        <path d="M118.99,328.78v-4.9h.69v4.27h2.27v.63h-2.96Z" fill="#231f20"/>
        <path d="M122.66,328.78v-4.9h2.95v.63h-2.26v1.46h2.04v.62h-2.04v1.57h2.27v.63h-2.96Z" fill="#231f20"/>
      </g>
    </g>
    <line x1="86.4" y1="345.58" x2="57.6" y2="345.58" fill="none" stroke="#b2b2b2" stroke-miterlimit="11.34" stroke-width=".5"/>
    <rect x="357.6" y="316.82" width="62.4" height="43.16" rx="3" ry="3" fill="#2a2a2a"/>
    <g id="DisplayFrame">
      <rect x="264" y="43.69" width="153.07" height="198.43" rx="2.5" ry="2.5" fill="#1a1a2e" stroke="#404060" stroke-width=".7"/>
    </g>
    <g id="ScopeFrame">
      <rect x="264" y="247.79" width="153.07" height="39.69" rx="2.5" ry="2.5" fill="#1a1a2e" stroke="#404060" stroke-width=".7"/>
    </g>
    <g>
      <line x1="60.43" y1="345.58" x2="54.77" y2="345.58" fill="none" stroke="red" stroke-miterlimit="11.34" stroke-width=".57"/>
      <line x1="57.6" y1="348.41" x2="57.6" y2="342.75" fill="none" stroke="red" stroke-miterlimit="11.34" stroke-width=".57"/>
      <circle cx="57.6" cy="345.58" r="2.27" fill="none" stroke="red" stroke-miterlimit="11.34" stroke-width=".43"/>
    </g>
    <g>
      <line x1="23.13" y1="345.58" x2="34.47" y2="345.58" fill="none" stroke="red" stroke-miterlimit="11.34" stroke-width=".57"/>
      <line x1="28.8" y1="339.92" x2="28.8" y2="351.25" fill="none" stroke="red" stroke-miterlimit="11.34" stroke-width=".57"/>
      <circle cx="28.8" cy="345.58" r="4.25" fill="none" stroke="red" stroke-miterlimit="11.34" stroke-width=".43"/>
    </g>
    <g>
      <line x1="92.07" y1="345.59" x2="80.73" y2="345.59" fill="none" stroke="red" stroke-miterlimit="11.34" stroke-width=".57"/>
      <line x1="86.4" y1="351.25" x2="86.4" y2="339.92" fill="none" stroke="red" stroke-miterlimit="11.34" stroke-width=".57"/>
      <circle cx="86.4" cy="345.59" r="4.25" fill="none" stroke="red" stroke-miterlimit="11.34" stroke-width=".43"/>
    </g>
    <line x1="144" y1="345.58" x2="115.2" y2="345.58" fill="none" stroke="#b2b2b2" stroke-miterlimit="11.34" stroke-width=".5"/>
    <g>
      <line x1="118.03" y1="345.58" x2="112.37" y2="345.58" fill="none" stroke="red" stroke-miterlimit="11.34" stroke-width=".57"/>
      <line x1="115.2" y1="348.41" x2="115.2" y2="342.75" fill="none" stroke="red" stroke-miterlimit="11.34" stroke-width=".57"/>
      <circle cx="115.2" cy="345.58" r="2.27" fill="none" stroke="red" stroke-miterlimit="11.34" stroke-width=".43"/>
    </g>
    <g>
      <line x1="149.67" y1="345.59" x2="138.33" y2="345.59" fill="none" stroke="red" stroke-miterlimit="11.34" stroke-width=".57"/>
      <line x1="144" y1="351.25" x2="144" y2="339.92" fill="none" stroke="red" stroke-miterlimit="11.34" stroke-width=".57"/>
      <circle cx="144" cy="345.59" r="4.25" fill="none" stroke="red" stroke-miterlimit="11.34" stroke-width=".43"/>
    </g>
    <g isolation="isolate">
      <g>
        <path d="M163.84,328.78v-4.9h1.65c.33,0,.62.06.87.19.25.13.45.31.59.53.14.23.21.49.21.79,0,.32-.09.6-.27.85-.18.24-.42.42-.71.53l1.18,2.01h-.78l-1.09-1.88h-.96v1.88h-.69ZM164.53,326.28h1.03c.17,0,.32-.04.45-.12s.24-.18.32-.31c.08-.13.12-.28.12-.45,0-.26-.09-.47-.27-.64-.18-.16-.42-.25-.71-.25h-.95v1.76Z" fill="#231f20"/>
        <path d="M170.38,328.87c-.48,0-.9-.11-1.27-.32-.37-.21-.66-.51-.86-.9-.21-.38-.31-.82-.31-1.31s.1-.94.31-1.32.49-.68.86-.9c.36-.22.78-.33,1.26-.33s.9.11,1.26.33c.36.22.65.52.85.9s.31.82.31,1.31-.1.93-.31,1.32c-.21.38-.49.68-.85.9s-.78.32-1.25.32ZM170.39,328.24c.33,0,.62-.08.88-.25s.46-.39.6-.67c.14-.29.22-.61.22-.99s-.07-.7-.22-.98c-.15-.29-.35-.51-.61-.68s-.56-.25-.89-.25-.63.08-.9.25c-.26.16-.47.39-.61.68-.15.29-.22.62-.22.98s.07.7.22.99c.15.28.36.51.62.67.26.16.57.25.91.25Z" fill="#231f20"/>
        <path d="M175.83,328.87c-.48,0-.9-.11-1.27-.32-.37-.21-.66-.51-.86-.9-.21-.38-.31-.82-.31-1.31s.1-.94.31-1.32.49-.68.86-.9c.36-.22.78-.33,1.26-.33s.9.11,1.26.33c.36.22.65.52.85.9s.31.82.31,1.31-.1.93-.31,1.32c-.21.38-.49.68-.85.9s-.78.32-1.25.32ZM175.84,328.24c.33,0,.62-.08.88-.25s.46-.39.6-.67c.14-.29.22-.61.22-.99s-.07-.7-.22-.98c-.15-.29-.35-.51-.61-.68s-.56-.25-.89-.25-.63.08-.9.25c-.26.16-.47.39-.61.68-.15.29-.22.62-.22.98s.07.7.22.99c.15.28.36.51.62.67.26.16.57.25.91.25Z" fill="#231f20"/>
        <path d="M180.07,328.78v-4.27h-1.53v-.63h3.76v.63h-1.53v4.27h-.69Z" fill="#231f20"/>
      </g>
    </g>
    <line x1="201.6" y1="345.58" x2="172.8" y2="345.58" fill="none" stroke="#b2b2b2" stroke-miterlimit="11.34" stroke-width=".5"/>
    <g>
      <line x1="175.63" y1="345.58" x2="169.97" y2="345.58" fill="none" stroke="red" stroke-miterlimit="11.34" stroke-width=".57"/>
      <line x1="172.8" y1="348.41" x2="172.8" y2="342.75" fill="none" stroke="red" stroke-miterlimit="11.34" stroke-width=".57"/>
      <circle cx="172.8" cy="345.58" r="2.27" fill="none" stroke="red" stroke-miterlimit="11.34" stroke-width=".43"/>
    </g>
    <g>
      <line x1="207.27" y1="345.59" x2="195.93" y2="345.59" fill="none" stroke="red" stroke-miterlimit="11.34" stroke-width=".57"/>
      <line x1="201.6" y1="351.25" x2="201.6" y2="339.92" fill="none" stroke="red" stroke-miterlimit="11.34" stroke-width=".57"/>
      <circle cx="201.6" cy="345.59" r="4.25" fill="none" stroke="red" stroke-miterlimit="11.34" stroke-width=".43"/>
    </g>
    <g isolation="isolate">
      <g>
        <path d="M221,328.78v-4.9h1.65c.33,0,.61.06.86.19.25.13.45.31.59.53.14.23.21.49.21.79,0,.32-.09.6-.27.85-.18.24-.42.42-.71.53l1.18,2.01h-.78l-1.09-1.88h-.96v1.88h-.69ZM221.69,326.28h1.03c.17,0,.32-.04.45-.12s.24-.18.32-.32c.08-.13.12-.28.12-.45,0-.26-.09-.47-.27-.64-.18-.16-.42-.25-.71-.25h-.95v1.76Z" fill="#231f20"/>
        <path d="M225.42,328.78v-4.9h2.95v.63h-2.26v1.46h2.04v.62h-2.04v1.57h2.27v.63h-2.96Z" fill="#231f20"/>
        <path d="M231.14,328.87c-.26,0-.5-.03-.71-.09s-.4-.14-.55-.25c-.16-.11-.29-.22-.39-.35-.1-.13-.17-.27-.22-.41l.67-.22c.07.19.2.36.4.5.2.14.44.21.72.22.35,0,.62-.07.82-.21.2-.14.3-.32.3-.55,0-.21-.09-.38-.26-.51-.17-.13-.4-.23-.69-.3l-.57-.15c-.22-.06-.43-.15-.61-.26-.18-.11-.33-.25-.44-.43s-.16-.38-.16-.62c0-.45.15-.8.44-1.05.29-.25.71-.38,1.26-.38.32,0,.59.05.83.15.23.1.43.23.58.4s.26.34.33.54l-.67.22c-.08-.21-.21-.38-.41-.51-.19-.13-.43-.19-.71-.19-.29,0-.53.07-.7.21-.17.14-.26.33-.26.57,0,.21.07.36.2.47.13.11.31.19.54.25l.57.14c.46.11.81.3,1.06.56.25.26.38.54.38.85,0,.27-.07.51-.2.72-.13.21-.33.38-.59.5-.26.12-.58.19-.96.19Z" fill="#231f20"/>
        <path d="M233.84,328.78v-4.9h2.95v.63h-2.26v1.46h2.04v.62h-2.04v1.57h2.28v.63h-2.96Z" fill="#231f20"/>
        <path d="M238.97,328.78v-4.27h-1.53v-.63h3.76v.63h-1.53v4.27h-.69Z" fill="#231f20"/>
      </g>
    </g>
    <line x1="259.2" y1="345.58" x2="230.4" y2="345.58" fill="none" stroke="#b2b2b2" stroke-miterlimit="11.34" stroke-width=".5"/>
    <g>
      <line x1="233.23" y1="345.58" x2="227.57" y2="345.58" fill="none" stroke="red" stroke-miterlimit="11.34" stroke-width=".57"/>
      <line x1="230.4" y1="348.41" x2="230.4" y2="342.75" fill="none" stroke="red" stroke-miterlimit="11.34" stroke-width=".57"/>
      <circle cx="230.4" cy="345.58" r="2.27" fill="none" stroke="red" stroke-miterlimit="11.34" stroke-width=".43"/>
    </g>
    <g>
      <line x1="264.87" y1="345.59" x2="253.53" y2="345.59" fill="none" stroke="red" stroke-miterlimit="11.34" stroke-width=".57"/>
      <line x1="259.2" y1="351.25" x2="259.2" y2="339.92" fill="none" stroke="red" stroke-miterlimit="11.34" stroke-width=".57"/>
      <circle cx="259.2" cy="345.59" r="4.25" fill="none" stroke="red" stroke-miterlimit="11.34" stroke-width=".43"/>
    </g>
    <g isolation="isolate">
      <g>
        <path d="M273.6,328.78v-4.9h1.65c.33,0,.61.06.86.19.25.13.45.31.59.53s.21.49.21.79c0,.32-.09.6-.27.85-.18.24-.42.42-.71.53l1.18,2.01h-.78l-1.09-1.88h-.96v1.88h-.69ZM274.29,326.28h1.03c.17,0,.32-.04.45-.12s.24-.18.32-.31c.08-.13.12-.28.12-.45,0-.26-.09-.47-.27-.64-.18-.16-.42-.25-.71-.25h-.94v1.76Z" fill="#231f20"/>
        <path d="M277.48,328.78l1.97-4.9h.73l1.97,4.9h-.74l-.53-1.31h-2.16l-.53,1.31h-.74ZM278.98,326.86h1.69l-.84-2.11-.85,2.11Z" fill="#231f20"/>
        <path d="M282.85,328.78v-4.9h.71l2.77,3.75v-3.75h.69v4.9h-.69l-2.79-3.79v3.79h-.69Z" fill="#231f20"/>
        <path d="M288.27,328.78v-4.9h1.51c.47,0,.88.1,1.24.31.36.21.65.5.85.86.21.37.31.79.31,1.27s-.1.9-.31,1.27c-.21.37-.49.66-.85.87-.36.21-.78.32-1.24.32h-1.51ZM288.95,328.14h.83c.24,0,.46-.04.67-.14.21-.09.39-.22.54-.39.16-.17.28-.36.36-.58.09-.22.13-.46.13-.71s-.04-.49-.13-.71c-.09-.22-.21-.41-.36-.58-.16-.17-.34-.29-.54-.39-.21-.09-.43-.14-.67-.14h-.83v3.61Z" fill="#231f20"/>
        <path d="M295.23,328.87c-.48,0-.9-.11-1.27-.32-.37-.21-.66-.51-.87-.9-.21-.38-.31-.82-.31-1.31s.1-.94.31-1.32c.21-.38.49-.68.86-.9.36-.22.78-.33,1.26-.33s.9.11,1.26.33c.36.22.65.52.85.9.21.38.31.82.31,1.31s-.1.93-.31,1.32c-.21.38-.49.68-.85.9-.36.21-.78.32-1.25.32ZM295.23,328.24c.33,0,.63-.08.88-.25.26-.16.46-.39.6-.67.14-.29.22-.61.22-.99s-.07-.7-.22-.98c-.15-.29-.35-.51-.61-.68-.26-.16-.56-.25-.89-.25s-.63.08-.9.25c-.26.16-.46.39-.61.68-.15.29-.22.62-.22.98s.08.7.22.99c.15.28.36.51.62.67s.57.25.91.25Z" fill="#231f20"/>
        <path d="M298.56,328.78v-4.9h.73l1.62,2.4,1.62-2.4h.73v4.9h-.69v-3.79l-1.67,2.46-1.66-2.45v3.79h-.69Z" fill="#231f20"/>
      </g>
    </g>
    <line x1="317.23" y1="345.58" x2="288.43" y2="345.58" fill="none" stroke="#b2b2b2" stroke-miterlimit="11.34" stroke-width=".5"/>
    <g>
      <line x1="290.83" y1="345.58" x2="285.17" y2="345.58" fill="none" stroke="red" stroke-miterlimit="11.34" stroke-width=".57"/>
      <line x1="288" y1="348.41" x2="288" y2="342.75" fill="none" stroke="red" stroke-miterlimit="11.34" stroke-width=".57"/>
      <circle cx="288" cy="345.58" r="2.27" fill="none" stroke="red" stroke-miterlimit="11.34" stroke-width=".43"/>
    </g>
    <g>
      <line x1="322.47" y1="345.59" x2="311.13" y2="345.59" fill="none" stroke="red" stroke-miterlimit="11.34" stroke-width=".57"/>
      <line x1="316.8" y1="351.25" x2="316.8" y2="339.92" fill="none" stroke="red" stroke-miterlimit="11.34" stroke-width=".57"/>
      <circle cx="316.8" cy="345.59" r="4.25" fill="none" stroke="red" stroke-miterlimit="11.34" stroke-width=".43"/>
    </g>
    <g>
      <line x1="23.13" y1="302.38" x2="34.47" y2="302.38" fill="none" stroke="red" stroke-miterlimit="11.34" stroke-width=".57"/>
      <line x1="28.8" y1="296.72" x2="28.8" y2="308.05" fill="none" stroke="red" stroke-miterlimit="11.34" stroke-width=".57"/>
      <circle cx="28.8" cy="302.38" r="4.25" fill="none" stroke="red" stroke-miterlimit="11.34" stroke-width=".43"/>
    </g>
    <g>
      <line x1="51.93" y1="302.38" x2="63.27" y2="302.38" fill="none" stroke="red" stroke-miterlimit="11.34" stroke-width=".57"/>
      <line x1="57.6" y1="296.72" x2="57.6" y2="308.05" fill="none" stroke="red" stroke-miterlimit="11.34" stroke-width=".57"/>
      <circle cx="57.6" cy="302.38" r="4.25" fill="none" stroke="red" stroke-miterlimit="11.34" stroke-width=".43"/>
    </g>
    <g>
      <line x1="80.73" y1="302.38" x2="92.07" y2="302.38" fill="none" stroke="red" stroke-miterlimit="11.34" stroke-width=".57"/>
      <line x1="86.4" y1="296.72" x2="86.4" y2="308.05" fill="none" stroke="red" stroke-miterlimit="11.34" stroke-width=".57"/>
      <circle cx="86.4" cy="302.38" r="4.25" fill="none" stroke="red" stroke-miterlimit="11.34" stroke-width=".43"/>
    </g>
    <g>
      <line x1="109.53" y1="302.38" x2="120.87" y2="302.38" fill="none" stroke="red" stroke-miterlimit="11.34" stroke-width=".57"/>
      <line x1="115.2" y1="296.72" x2="115.2" y2="308.05" fill="none" stroke="red" stroke-miterlimit="11.34" stroke-width=".57"/>
      <circle cx="115.2" cy="302.38" r="4.25" fill="none" stroke="red" stroke-miterlimit="11.34" stroke-width=".43"/>
    </g>
    <g>
      <line x1="152.73" y1="302.38" x2="164.07" y2="302.38" fill="none" stroke="red" stroke-miterlimit="11.34" stroke-width=".57"/>
      <line x1="158.4" y1="296.72" x2="158.4" y2="308.05" fill="none" stroke="red" stroke-miterlimit="11.34" stroke-width=".57"/>
      <circle cx="158.4" cy="302.38" r="4.25" fill="none" stroke="red" stroke-miterlimit="11.34" stroke-width=".43"/>
    </g>
    <g>
      <line x1="181.53" y1="302.38" x2="192.87" y2="302.38" fill="none" stroke="red" stroke-miterlimit="11.34" stroke-width=".57"/>
      <line x1="187.2" y1="296.72" x2="187.2" y2="308.05" fill="none" stroke="red" stroke-miterlimit="11.34" stroke-width=".57"/>
      <circle cx="187.2" cy="302.38" r="4.25" fill="none" stroke="red" stroke-miterlimit="11.34" stroke-width=".43"/>
    </g>
    <g>
      <line x1="210.33" y1="302.38" x2="221.67" y2="302.38" fill="none" stroke="red" stroke-miterlimit="11.34" stroke-width=".57"/>
      <line x1="216" y1="296.72" x2="216" y2="308.05" fill="none" stroke="red" stroke-miterlimit="11.34" stroke-width=".57"/>
      <circle cx="216" cy="302.38" r="4.25" fill="none" stroke="red" stroke-miterlimit="11.34" stroke-width=".43"/>
    </g>
    <g>
      <line x1="239.13" y1="302.38" x2="250.47" y2="302.38" fill="none" stroke="red" stroke-miterlimit="11.34" stroke-width=".57"/>
      <line x1="244.8" y1="296.72" x2="244.8" y2="308.05" fill="none" stroke="red" stroke-miterlimit="11.34" stroke-width=".57"/>
      <circle cx="244.8" cy="302.38" r="4.25" fill="none" stroke="red" stroke-miterlimit="11.34" stroke-width=".43"/>
    </g>
    <g>
      <line x1="368.73" y1="345.58" x2="380.07" y2="345.58" fill="none" stroke="red" stroke-miterlimit="11.34" stroke-width=".57"/>
      <line x1="374.4" y1="339.91" x2="374.4" y2="351.25" fill="none" stroke="red" stroke-miterlimit="11.34" stroke-width=".57"/>
      <circle cx="374.4" cy="345.58" r="4.25" fill="none" stroke="red" stroke-miterlimit="11.34" stroke-width=".43"/>
    </g>
    <g>
      <line x1="397.53" y1="345.58" x2="408.87" y2="345.58" fill="none" stroke="red" stroke-miterlimit="11.34" stroke-width=".57"/>
      <line x1="403.2" y1="339.91" x2="403.2" y2="351.25" fill="none" stroke="red" stroke-miterlimit="11.34" stroke-width=".57"/>
      <circle cx="403.2" cy="345.58" r="4.25" fill="none" stroke="red" stroke-miterlimit="11.34" stroke-width=".43"/>
    </g>
    <line x1="28.8" y1="52.6" x2="244.8" y2="52.6" fill="none" stroke="#b2b2b2" stroke-miterlimit="11.34" stroke-width=".5"/>
    <line x1="28.8" y1="96.54" x2="244.8" y2="96.54" fill="none" stroke="#b2b2b2" stroke-miterlimit="11.34" stroke-width=".5"/>
    <line x1="28.8" y1="121.64" x2="244.8" y2="121.64" fill="none" stroke="#b2b2b2" stroke-miterlimit="11.34" stroke-width=".5"/>
    <line x1="30.22" y1="146.75" x2="246.22" y2="146.75" fill="none" stroke="#b2b2b2" stroke-miterlimit="11.34" stroke-width=".5"/>
    <line x1="30.22" y1="171.86" x2="246.22" y2="171.86" fill="none" stroke="#b2b2b2" stroke-miterlimit="11.34" stroke-width=".5"/>
    <line x1="30.22" y1="196.97" x2="246.22" y2="196.97" fill="none" stroke="#b2b2b2" stroke-miterlimit="11.34" stroke-width=".5"/>
    <line x1="30.22" y1="222.08" x2="246.22" y2="222.08" fill="none" stroke="#b2b2b2" stroke-miterlimit="11.34" stroke-width=".5"/>
    <line x1="30.22" y1="240.91" x2="246.22" y2="240.91" fill="none" stroke="#b2b2b2" stroke-miterlimit="11.34" stroke-width=".5"/>
    <line x1="30.22" y1="266.01" x2="246.22" y2="266.01" fill="none" stroke="#b2b2b2" stroke-miterlimit="11.34" stroke-width=".5"/>
    <g isolation="isolate">
      <g>
        <path d="M397.09,328.87c-.5,0-.93-.11-1.32-.33-.38-.22-.69-.52-.9-.9-.22-.38-.33-.82-.33-1.3s.11-.94.33-1.32c.22-.38.52-.68.9-.9.39-.22.83-.33,1.32-.33.27,0,.53.04.78.13.25.09.48.21.68.36s.37.33.49.52l-.55.36c-.09-.15-.21-.27-.36-.39-.15-.11-.31-.2-.49-.26-.18-.06-.36-.09-.54-.09-.36,0-.68.08-.96.25-.28.16-.5.39-.65.67-.16.28-.24.62-.24.99s.08.7.23.98c.16.29.38.51.66.67.28.16.61.25.97.25.29,0,.55-.06.78-.18.23-.12.41-.28.54-.5.13-.21.2-.46.21-.74h-1.18v-.57h1.86v.5c0,.42-.1.79-.29,1.11-.19.32-.45.56-.78.74-.33.18-.71.26-1.14.26Z" fill="#fff"/>
        <path d="M399.51,328.78l1.97-4.9h.74l1.97,4.9h-.73l-.53-1.31h-2.16l-.53,1.31h-.73ZM401.01,326.86h1.69l-.84-2.11-.85,2.11Z" fill="#fff"/>
        <path d="M405.72,328.78v-4.27h-1.53v-.63h3.76v.63h-1.53v4.27h-.69Z" fill="#fff"/>
        <path d="M408.65,328.78v-4.9h2.95v.63h-2.26v1.46h2.04v.62h-2.04v1.57h2.27v.63h-2.96Z" fill="#fff"/>
      </g>
    </g>
    <g isolation="isolate">
      <g>
        <path d="M365.4,328.78l-2.01-4.9h.74l1.65,4.1,1.66-4.1h.74l-2.01,4.9h-.76Z" fill="#fff"/>
        <path d="M368.34,329.37l1.93-5.82h.67l-1.92,5.82h-.68Z" fill="#fff"/>
        <path d="M373.78,328.87c-.48,0-.9-.11-1.27-.32-.37-.21-.66-.51-.87-.9-.21-.38-.31-.82-.31-1.31s.1-.94.31-1.32c.21-.38.49-.68.86-.9s.78-.33,1.26-.33.9.11,1.26.33c.36.22.65.52.85.9.21.38.31.82.31,1.31s-.1.93-.31,1.32-.49.68-.85.9c-.36.21-.78.32-1.25.32ZM373.79,328.24c.33,0,.63-.08.88-.25.26-.16.46-.39.6-.67.14-.28.22-.61.22-.99s-.07-.7-.22-.98c-.15-.29-.35-.51-.61-.67-.26-.16-.56-.25-.89-.25s-.63.08-.9.25c-.26.16-.47.39-.61.67-.15.29-.22.62-.22.98s.08.7.22.99c.15.29.36.51.62.67.26.16.57.25.91.25Z" fill="#fff"/>
        <path d="M379.2,328.87c-.47,0-.88-.11-1.25-.33-.36-.22-.65-.52-.85-.9-.21-.38-.31-.82-.31-1.31s.1-.93.31-1.31c.21-.38.49-.68.85-.9s.77-.33,1.24-.33c.3,0,.59.05.87.16s.52.26.74.46.38.42.5.68l-.62.28c-.09-.19-.21-.36-.36-.5-.15-.14-.33-.25-.52-.33-.19-.08-.4-.12-.61-.12-.33,0-.62.08-.88.25-.26.16-.46.39-.6.67-.14.28-.22.61-.22.99s.07.71.22.99c.15.29.35.51.61.68.26.16.55.24.88.24.21,0,.42-.04.61-.13.19-.09.36-.21.51-.36s.27-.33.37-.52l.62.27c-.12.27-.28.5-.5.71-.21.21-.46.37-.74.48s-.57.17-.88.17Z" fill="#fff"/>
        <path d="M383.16,328.78v-4.27h-1.53v-.63h3.76v.63h-1.53v4.27h-.69Z" fill="#fff"/>
      </g>
    </g>
    <g>
      <rect x="129.6" y="40.78" width="14.4" height="4.8" fill="none"/>
      <path d="M136.08,43.23c0,.93-.56,1.42-1.25,1.42s-1.21-.55-1.21-1.37c0-.86.53-1.42,1.25-1.42s1.21.56,1.21,1.36ZM133.99,43.27c0,.58.31,1.09.86,1.09s.86-.51.86-1.12c0-.54-.28-1.1-.86-1.1s-.86.53-.86,1.12Z"/>
      <path d="M136.53,41.91h1.45v.29h-1.1v.9h1.02v.29h-1.02v1.22h-.35v-2.69Z"/>
      <path d="M138.48,41.91h1.45v.29h-1.1v.9h1.02v.29h-1.02v1.22h-.35v-2.69Z"/>
    </g>
    <g>
      <rect x="151.2" y="35.98" width="14.4" height="4.8" fill="none"/>
      <path d="M156.98,40.51l-1.03-4.04h.55l.48,2.04c.12.5.23,1.01.3,1.4h.01c.07-.4.19-.88.33-1.4l.54-2.04h.55l.49,2.05c.11.48.22.96.28,1.39h.01c.08-.44.2-.89.32-1.4l.53-2.04h.53l-1.15,4.04h-.55l-.51-2.1c-.13-.52-.21-.91-.26-1.32h-.01c-.07.4-.16.8-.31,1.32l-.58,2.1h-.55Z"/>
    </g>
    <g>
      <rect x="180" y="35.98" width="14.4" height="4.8" fill="none"/>
      <path d="M188.16,40.51l-.52-.89c-.21-.34-.34-.56-.47-.8h-.01c-.11.23-.23.45-.44.8l-.49.89h-.6l1.23-2.04-1.19-2h.61l.53.95c.15.26.26.47.37.68h.02c.11-.24.22-.43.37-.68l.55-.95h.6l-1.23,1.97,1.26,2.07h-.61Z"/>
    </g>
    <g>
      <rect x="208.8" y="35.98" width="14.4" height="4.8" fill="none"/>
      <path d="M215.73,40.51v-1.71l-1.28-2.33h.59l.57,1.12c.16.31.28.55.4.83h.01c.11-.26.25-.53.41-.83l.58-1.12h.59l-1.36,2.32v1.72h-.53Z"/>
    </g>
    <g>
      <rect x="237.6" y="35.98" width="14.4" height="4.8" fill="none"/>
      <path d="M243.32,40.21l2.24-3.28v-.02h-2.05v-.44h2.73v.32l-2.23,3.27v.02h2.26v.44h-2.95v-.31Z"/>
    </g>
    <g>
      <rect x="21.6" y="35.98" width="14.4" height="4.8" fill="none"/>
      <path d="M28.07,39.24l-.42,1.27h-.54l1.37-4.04h.63l1.38,4.04h-.56l-.43-1.27h-1.43ZM29.4,38.83l-.4-1.16c-.09-.26-.15-.5-.21-.74h-.01c-.06.24-.13.49-.2.73l-.4,1.17h1.22Z"/>
    </g>
    <g>
      <rect x="50.4" y="35.98" width="14.4" height="4.8" fill="none"/>
      <path d="M56.43,36.53c.23-.05.59-.08.95-.08.52,0,.86.09,1.11.29.21.16.34.4.34.71,0,.39-.26.73-.68.89h0c.38.11.83.43.83,1.03,0,.35-.14.61-.34.81-.28.26-.74.38-1.4.38-.36,0-.64-.02-.81-.05v-3.98ZM56.95,38.18h.47c.55,0,.88-.29.88-.68,0-.47-.36-.66-.89-.66-.24,0-.38.02-.46.04v1.3ZM56.95,40.12c.1.02.25.02.44.02.54,0,1.04-.2,1.04-.79,0-.55-.47-.78-1.04-.78h-.43v1.54Z"/>
    </g>
    <g>
      <rect x="79.2" y="35.98" width="14.4" height="4.8" fill="none"/>
      <path d="M87.94,40.38c-.19.1-.58.19-1.07.19-1.14,0-2-.72-2-2.04s.86-2.12,2.11-2.12c.5,0,.82.11.96.18l-.13.43c-.2-.1-.48-.17-.82-.17-.95,0-1.58.61-1.58,1.67,0,.99.57,1.62,1.55,1.62.32,0,.64-.07.85-.17l.11.41Z"/>
    </g>
    <g>
      <path d="M56.2,33.63v-4.9h.69v4.9h-.69Z" fill="#231f20"/>
      <path d="M58.13,33.63v-4.9h.71l2.77,3.75v-3.75h.69v4.9h-.69l-2.79-3.79v3.79h-.69Z" fill="#231f20"/>
      <path d="M64.55,33.63v-4.27h-1.53v-.63h3.76v.63h-1.53v4.27h-.69Z" fill="#231f20"/>
      <path d="M67.48,33.63v-4.9h2.95v.63h-2.26v1.46h2.04v.62h-2.04v1.57h2.28v.63h-2.96Z" fill="#231f20"/>
      <path d="M71.61,33.63v-4.9h1.65c.33,0,.61.06.86.19.25.13.45.31.59.53.14.23.21.49.21.79,0,.32-.09.6-.27.85s-.42.42-.71.53l1.18,2.01h-.78l-1.09-1.88h-.96v1.88h-.69ZM72.3,31.13h1.03c.17,0,.32-.04.45-.12.13-.08.24-.18.32-.31.08-.13.12-.28.12-.45,0-.26-.09-.47-.27-.64-.18-.16-.42-.25-.71-.25h-.95v1.76Z" fill="#231f20"/>
      <path d="M77.48,33.63l-2.01-4.9h.73l1.65,4.1,1.66-4.1h.73l-2.01,4.9h-.76Z" fill="#231f20"/>
      <path d="M80.01,33.63l1.97-4.9h.74l1.97,4.9h-.74l-.52-1.31h-2.16l-.53,1.31h-.73ZM81.51,31.71h1.69l-.84-2.11-.85,2.11Z" fill="#231f20"/>
      <path d="M85.38,33.63v-4.9h.69v4.27h2.28v.63h-2.96Z" fill="#231f20"/>
    </g>
    <g>
      <path d="M191.52,33.63v-4.27h-1.53v-.63h3.76v.63h-1.53v4.27h-.69Z" fill="#231f20"/>
      <path d="M194.45,33.63v-4.9h.69v2.06h2.64v-2.06h.69v4.9h-.69v-2.21h-2.64v2.21h-.69Z" fill="#231f20"/>
      <path d="M199.71,33.63v-4.9h2.95v.63h-2.26v1.46h2.04v.62h-2.04v1.57h2.28v.63h-2.96Z" fill="#231f20"/>
      <path d="M203.84,33.63v-4.9h.73l1.62,2.4,1.62-2.4h.73v4.9h-.69v-3.79l-1.67,2.46-1.66-2.45v3.79h-.69Z" fill="#231f20"/>
      <path d="M209.79,33.63v-4.9h2.95v.63h-2.26v1.46h2.04v.62h-2.04v1.57h2.28v.63h-2.96Z" fill="#231f20"/>
    </g>
    <g>
      <rect x="108" y="35.98" width="14.4" height="4.8" fill="none"/>
      <path d="M113.66,36.53c.32-.05.7-.08,1.11-.08.75,0,1.28.17,1.64.5.36.33.57.8.57,1.45s-.2,1.2-.58,1.57c-.38.38-1,.58-1.79.58-.37,0-.68-.02-.95-.05v-3.98ZM114.18,40.1c.13.02.32.03.53.03,1.12,0,1.72-.62,1.72-1.71,0-.95-.53-1.56-1.64-1.56-.27,0-.47.02-.61.05v3.19Z"/>
    </g>
    <g>
      <rect x="129.6" y="47.06" width="14.4" height="4.8" fill="none"/>
      <path d="M136.71,49.5c0,.93-.56,1.42-1.25,1.42s-1.21-.55-1.21-1.37c0-.86.53-1.42,1.25-1.42s1.21.56,1.21,1.36ZM134.62,49.55c0,.58.31,1.09.86,1.09s.86-.51.86-1.12c0-.54-.28-1.1-.86-1.1s-.86.53-.86,1.12Z"/>
      <path d="M137.17,50.88v-2.69h.38l.86,1.36c.2.32.36.6.48.88h0c-.03-.36-.04-.69-.04-1.11v-1.13h.33v2.69h-.35l-.86-1.37c-.19-.3-.37-.61-.5-.9h-.01c.02.34.03.67.03,1.12v1.15h-.33Z"/>
    </g>
    <g>
      <rect x="129.6" y="53.34" width="14.4" height="4.8" fill="none"/>
      <path d="M135.09,57.07c-.13.06-.38.13-.71.13-.76,0-1.33-.48-1.33-1.36s.57-1.42,1.41-1.42c.34,0,.55.07.64.12l-.08.28c-.13-.06-.32-.11-.54-.11-.63,0-1.05.4-1.05,1.11,0,.66.38,1.08,1.04,1.08.21,0,.43-.04.57-.11l.07.28Z"/>
      <path d="M136.17,54.89h0l-.45.24-.07-.27.57-.3h.3v2.6h-.34v-2.27Z"/>
      <path d="M137.27,57.32l1.12-2.9h.27l-1.12,2.9h-.27Z"/>
      <path d="M138.83,57.16v-.22l.28-.27c.66-.63.96-.97.97-1.36,0-.26-.13-.51-.52-.51-.24,0-.43.12-.55.22l-.11-.25c.18-.15.44-.26.74-.26.56,0,.8.38.8.76,0,.48-.35.87-.9,1.4l-.21.19h0s1.17,0,1.17,0v.29h-1.66Z"/>
    </g>
    <g>
      <rect x="129.6" y="59.61" width="14.4" height="4.8" fill="none"/>
      <path d="M136.8,63.35c-.13.06-.38.13-.71.13-.76,0-1.33-.48-1.33-1.36s.57-1.42,1.41-1.42c.34,0,.55.07.64.12l-.08.28c-.13-.06-.32-.11-.54-.11-.63,0-1.05.4-1.05,1.11,0,.66.38,1.08,1.04,1.08.21,0,.43-.04.57-.11l.07.28Z"/>
      <path d="M137.88,61.16h0l-.45.24-.07-.27.57-.3h.3v2.6h-.34v-2.27Z"/>
    </g>
    <g>
      <rect x="129.6" y="65.89" width="14.4" height="4.8" fill="none"/>
      <path d="M136.8,69.62c-.13.06-.38.13-.71.13-.76,0-1.33-.48-1.33-1.36s.57-1.42,1.41-1.42c.34,0,.55.07.64.12l-.08.28c-.13-.06-.32-.11-.54-.11-.63,0-1.05.4-1.05,1.11,0,.66.38,1.08,1.04,1.08.21,0,.43-.04.57-.11l.07.28Z"/>
      <path d="M137.11,69.71v-.22l.28-.27c.66-.63.96-.97.97-1.36,0-.26-.13-.51-.52-.51-.24,0-.43.12-.55.22l-.11-.25c.18-.15.44-.26.74-.26.56,0,.8.38.8.76,0,.48-.35.87-.9,1.4l-.21.19h0s1.17,0,1.17,0v.29h-1.66Z"/>
    </g>
    <g>
      <rect x="129.6" y="72.17" width="14.4" height="4.8" fill="none"/>
      <path d="M136.8,75.9c-.13.06-.38.13-.71.13-.76,0-1.33-.48-1.33-1.36s.57-1.42,1.41-1.42c.34,0,.55.07.64.12l-.08.28c-.13-.06-.32-.11-.54-.11-.63,0-1.05.4-1.05,1.11,0,.66.38,1.08,1.04,1.08.21,0,.43-.04.57-.11l.07.28Z"/>
      <path d="M137.2,75.58c.1.06.33.16.58.16.45,0,.59-.29.59-.5,0-.36-.33-.52-.67-.52h-.2v-.26h.2c.26,0,.58-.13.58-.44,0-.21-.13-.39-.46-.39-.21,0-.41.09-.52.17l-.09-.26c.14-.1.4-.2.68-.2.51,0,.74.3.74.62,0,.27-.16.5-.48.61h0c.32.07.58.31.58.68,0,.42-.32.78-.95.78-.29,0-.55-.09-.68-.18l.1-.27Z"/>
    </g>
    <g>
      <rect x="129.6" y="78.44" width="14.4" height="4.8" fill="none"/>
      <path d="M136.8,82.18c-.13.06-.38.13-.71.13-.76,0-1.33-.48-1.33-1.36s.57-1.42,1.41-1.42c.34,0,.55.07.64.12l-.08.28c-.13-.06-.32-.11-.54-.11-.63,0-1.05.4-1.05,1.11,0,.66.38,1.08,1.04,1.08.21,0,.43-.04.57-.11l.07.28Z"/>
      <path d="M138.2,82.27v-.71h-1.21v-.23l1.16-1.66h.38v1.62h.36v.28h-.36v.71h-.33ZM138.2,81.28v-.87c0-.14,0-.27.01-.41h-.01c-.08.15-.14.26-.22.38l-.64.88h0s.85,0,.85,0Z"/>
    </g>
    <g>
      <rect x="129.6" y="84.72" width="14.4" height="4.8" fill="none"/>
      <path d="M136.8,88.45c-.13.06-.38.13-.71.13-.76,0-1.33-.48-1.33-1.36s.57-1.42,1.41-1.42c.34,0,.55.07.64.12l-.08.28c-.13-.06-.32-.11-.54-.11-.63,0-1.05.4-1.05,1.11,0,.66.38,1.08,1.04,1.08.21,0,.43-.04.57-.11l.07.28Z"/>
      <path d="M138.67,86.24h-.99l-.1.67c.06,0,.12-.02.21-.02.2,0,.4.04.56.14.2.12.37.34.37.67,0,.51-.4.89-.97.89-.28,0-.52-.08-.65-.16l.09-.27c.11.06.32.14.56.14.33,0,.62-.22.62-.56,0-.34-.23-.58-.75-.58-.15,0-.26.02-.36.03l.17-1.25h1.24v.3Z"/>
    </g>
    <g>
      <rect x="129.6" y="91" width="14.4" height="4.8" fill="none"/>
      <path d="M136.8,94.73c-.13.06-.38.13-.71.13-.76,0-1.33-.48-1.33-1.36s.57-1.42,1.41-1.42c.34,0,.55.07.64.12l-.08.28c-.13-.06-.32-.11-.54-.11-.63,0-1.05.4-1.05,1.11,0,.66.38,1.08,1.04,1.08.21,0,.43-.04.57-.11l.07.28Z"/>
      <path d="M138.6,92.47c-.07,0-.16,0-.26.02-.55.09-.84.5-.9.92h.01c.12-.16.34-.3.63-.3.46,0,.78.33.78.84,0,.48-.32.92-.86.92s-.92-.43-.92-1.11c0-.51.18-.92.44-1.17.22-.21.5-.34.83-.38.1-.02.19-.02.26-.02v.29ZM138.5,93.97c0-.37-.21-.6-.54-.6-.21,0-.41.13-.5.32-.02.04-.04.09-.04.16,0,.43.2.74.57.74.3,0,.51-.25.51-.62Z"/>
    </g>
    <g>
      <rect x="129.6" y="97.28" width="14.4" height="4.8" fill="none"/>
      <path d="M134.99,98.44c.15-.03.39-.06.64-.06.35,0,.57.06.74.2.14.1.22.26.22.48,0,.26-.17.49-.46.59h0c.26.07.56.28.56.68,0,.23-.09.41-.23.54-.19.17-.49.25-.93.25-.24,0-.42-.02-.54-.03v-2.65ZM135.34,99.54h.32c.37,0,.58-.19.58-.45,0-.32-.24-.44-.59-.44-.16,0-.25.01-.31.02v.87ZM135.34,100.83c.07.01.17.02.29.02.36,0,.69-.13.69-.52,0-.37-.32-.52-.7-.52h-.29v1.03Z"/>
      <path d="M137.8,98.82h0l-.45.24-.07-.27.57-.3h.3v2.6h-.34v-2.27Z"/>
    </g>
    <g>
      <rect x="129.6" y="103.55" width="14.4" height="4.8" fill="none"/>
      <path d="M134.99,104.71c.15-.03.39-.06.64-.06.35,0,.57.06.74.2.14.1.22.26.22.48,0,.26-.17.49-.46.59h0c.26.07.56.28.56.68,0,.23-.09.41-.23.54-.19.17-.49.25-.93.25-.24,0-.42-.02-.54-.03v-2.65ZM135.34,105.82h.32c.37,0,.58-.19.58-.45,0-.32-.24-.44-.59-.44-.16,0-.25.01-.31.02v.87ZM135.34,107.11c.07.01.17.02.29.02.36,0,.69-.13.69-.52,0-.37-.32-.52-.7-.52h-.29v1.03Z"/>
      <path d="M137.04,107.37v-.22l.28-.27c.66-.63.96-.97.97-1.36,0-.26-.13-.51-.52-.51-.24,0-.43.12-.55.22l-.11-.25c.18-.15.44-.26.74-.26.56,0,.8.38.8.76,0,.48-.35.87-.9,1.4l-.21.19h0s1.17,0,1.17,0v.29h-1.66Z"/>
    </g>
    <g>
      <rect x="129.6" y="109.83" width="14.4" height="4.8" fill="none"/>
      <path d="M134.99,110.99c.15-.03.39-.06.64-.06.35,0,.57.06.74.2.14.1.22.26.22.48,0,.26-.17.49-.46.59h0c.26.07.56.28.56.68,0,.23-.09.41-.23.54-.19.17-.49.25-.93.25-.24,0-.42-.02-.54-.03v-2.65ZM135.34,112.09h.32c.37,0,.58-.19.58-.45,0-.32-.24-.44-.59-.44-.16,0-.25.01-.31.02v.87ZM135.34,113.39c.07.01.17.02.29.02.36,0,.69-.13.69-.52,0-.37-.32-.52-.7-.52h-.29v1.03Z"/>
      <path d="M137.12,113.25c.1.06.33.16.58.16.45,0,.59-.29.59-.5,0-.36-.33-.52-.67-.52h-.2v-.26h.2c.26,0,.58-.13.58-.44,0-.21-.13-.39-.46-.39-.21,0-.41.09-.52.17l-.09-.26c.14-.1.4-.2.68-.2.51,0,.74.3.74.62,0,.27-.16.5-.48.61h0c.32.07.58.31.58.68,0,.42-.32.78-.95.78-.29,0-.55-.09-.68-.18l.1-.27Z"/>
    </g>
    <g>
      <rect x="129.6" y="116.11" width="14.4" height="4.8" fill="none"/>
      <path d="M134.99,117.27c.15-.03.39-.06.64-.06.35,0,.57.06.74.2.14.1.22.26.22.48,0,.26-.17.49-.46.59h0c.26.07.56.28.56.68,0,.23-.09.41-.23.54-.19.17-.49.25-.93.25-.24,0-.42-.02-.54-.03v-2.65ZM135.34,118.37h.32c.37,0,.58-.19.58-.45,0-.32-.24-.44-.59-.44-.16,0-.25.01-.31.02v.87ZM135.34,119.66c.07.01.17.02.29.02.36,0,.69-.13.69-.52,0-.37-.32-.52-.7-.52h-.29v1.03Z"/>
      <path d="M138.13,119.93v-.71h-1.21v-.23l1.16-1.66h.38v1.62h.36v.28h-.36v.71h-.33ZM138.13,118.94v-.87c0-.14,0-.27.01-.41h-.01c-.08.15-.14.26-.22.38l-.64.88h0s.85,0,.85,0Z"/>
    </g>
    <g>
      <rect x="129.6" y="122.38" width="14.4" height="4.8" fill="none"/>
      <path d="M134.99,123.54c.15-.03.39-.06.64-.06.35,0,.57.06.74.2.14.1.22.26.22.48,0,.26-.17.49-.46.59h0c.26.07.56.28.56.68,0,.23-.09.41-.23.54-.19.17-.49.25-.93.25-.24,0-.42-.02-.54-.03v-2.65ZM135.34,124.65h.32c.37,0,.58-.19.58-.45,0-.32-.24-.44-.59-.44-.16,0-.25.01-.31.02v.87ZM135.34,125.94c.07.01.17.02.29.02.36,0,.69-.13.69-.52,0-.37-.32-.52-.7-.52h-.29v1.03Z"/>
      <path d="M138.59,123.9h-.99l-.1.67c.06,0,.12-.02.21-.02.2,0,.4.04.56.14.2.12.37.34.37.67,0,.51-.4.89-.97.89-.28,0-.52-.08-.65-.16l.09-.27c.11.06.32.14.56.14.33,0,.62-.22.62-.56,0-.34-.23-.58-.75-.58-.15,0-.26.02-.36.03l.17-1.25h1.24v.3Z"/>
    </g>
    <g>
      <rect x="129.6" y="128.66" width="14.4" height="4.8" fill="none"/>
      <path d="M134.99,129.82c.15-.03.39-.06.64-.06.35,0,.57.06.74.2.14.1.22.26.22.48,0,.26-.17.49-.46.59h0c.26.07.56.28.56.68,0,.23-.09.41-.23.54-.19.17-.49.25-.93.25-.24,0-.42-.02-.54-.03v-2.65ZM135.34,130.93h.32c.37,0,.58-.19.58-.45,0-.32-.24-.44-.59-.44-.16,0-.25.01-.31.02v.87ZM135.34,132.22c.07.01.17.02.29.02.36,0,.69-.13.69-.52,0-.37-.32-.52-.7-.52h-.29v1.03Z"/>
      <path d="M138.52,130.13c-.07,0-.16,0-.26.02-.55.09-.84.5-.9.92h.01c.12-.16.34-.3.63-.3.46,0,.78.33.78.84,0,.48-.32.92-.86.92s-.92-.43-.92-1.11c0-.51.18-.92.44-1.17.22-.21.5-.34.83-.38.1-.02.19-.02.26-.02v.29ZM138.42,131.63c0-.37-.21-.6-.54-.6-.21,0-.41.13-.5.32-.02.04-.04.09-.04.16,0,.43.2.74.57.74.3,0,.51-.25.51-.62Z"/>
    </g>
    <g>
      <rect x="129.6" y="134.94" width="14.4" height="4.8" fill="none"/>
      <path d="M134.99,136.1c.15-.03.39-.06.64-.06.35,0,.57.06.74.2.14.1.22.26.22.48,0,.26-.17.49-.46.59h0c.26.07.56.28.56.68,0,.23-.09.41-.23.54-.19.17-.49.25-.93.25-.24,0-.42-.02-.54-.03v-2.65ZM135.34,137.2h.32c.37,0,.58-.19.58-.45,0-.32-.24-.44-.59-.44-.16,0-.25.01-.31.02v.87ZM135.34,138.49c.07.01.17.02.29.02.36,0,.69-.13.69-.52,0-.37-.32-.52-.7-.52h-.29v1.03Z"/>
      <path d="M138.72,136.16v.23l-1.13,2.37h-.36l1.13-2.3h0s-1.27,0-1.27,0v-.29h1.64Z"/>
    </g>
    <g>
      <rect x="129.6" y="141.21" width="14.4" height="4.8" fill="none"/>
      <path d="M134.99,142.38c.15-.03.39-.06.64-.06.35,0,.57.06.74.2.14.1.22.26.22.48,0,.26-.17.49-.46.59h0c.26.07.56.28.56.68,0,.23-.09.41-.23.54-.19.17-.49.25-.93.25-.24,0-.42-.02-.54-.03v-2.65ZM135.34,143.48h.32c.37,0,.58-.19.58-.45,0-.32-.24-.44-.59-.44-.16,0-.25.01-.31.02v.87ZM135.34,144.77c.07.01.17.02.29.02.36,0,.69-.13.69-.52,0-.37-.32-.52-.7-.52h-.29v1.03Z"/>
      <path d="M137.01,144.37c0-.33.2-.56.52-.7h0c-.29-.15-.41-.37-.41-.6,0-.41.35-.69.8-.69.5,0,.75.32.75.64,0,.22-.11.46-.43.61h0c.32.14.52.37.52.68,0,.45-.39.76-.88.76-.54,0-.87-.32-.87-.7ZM138.4,144.36c0-.32-.22-.47-.57-.57-.3.09-.47.29-.47.54-.01.26.19.5.52.5s.52-.2.52-.46ZM137.44,143.06c0,.26.2.4.5.48.22-.08.4-.24.4-.47,0-.21-.12-.42-.44-.42-.29,0-.45.19-.45.42Z"/>
    </g>
    <g>
      <rect x="129.6" y="147.49" width="14.4" height="4.8" fill="none"/>
      <path d="M134.99,148.65c.15-.03.39-.06.64-.06.35,0,.57.06.74.2.14.1.22.26.22.48,0,.26-.17.49-.46.59h0c.26.07.56.28.56.68,0,.23-.09.41-.23.54-.19.17-.49.25-.93.25-.24,0-.42-.02-.54-.03v-2.65ZM135.34,149.76h.32c.37,0,.58-.19.58-.45,0-.32-.24-.44-.59-.44-.16,0-.25.01-.31.02v.87ZM135.34,151.05c.07.01.17.02.29.02.36,0,.69-.13.69-.52,0-.37-.32-.52-.7-.52h-.29v1.03Z"/>
      <path d="M137.24,151.06c.08,0,.16,0,.28-.01.2-.03.4-.11.54-.25.17-.16.3-.38.34-.69h-.01c-.14.18-.35.28-.61.28-.47,0-.77-.35-.77-.8,0-.49.36-.92.89-.92s.86.43.86,1.1c0,.57-.19.97-.45,1.22-.2.2-.48.32-.75.35-.13.02-.24.02-.32.02v-.29ZM137.37,149.57c0,.32.2.55.5.55.24,0,.42-.12.51-.27.02-.03.03-.07.03-.13,0-.44-.16-.78-.53-.78-.3,0-.51.26-.51.63Z"/>
    </g>
    <g>
      <rect x="129.6" y="153.77" width="14.4" height="4.8" fill="none"/>
      <path d="M133.97,154.93c.15-.03.39-.06.64-.06.35,0,.57.06.74.2.14.1.22.26.22.48,0,.26-.17.49-.46.59h0c.26.07.56.28.56.68,0,.23-.09.41-.23.54-.19.17-.49.25-.93.25-.24,0-.42-.02-.54-.03v-2.65ZM134.32,156.03h.32c.37,0,.58-.19.58-.45,0-.32-.24-.44-.59-.44-.16,0-.25.01-.31.02v.87ZM134.32,157.32c.07.01.17.02.29.02.36,0,.69-.13.69-.52,0-.37-.32-.52-.7-.52h-.29v1.03Z"/>
      <path d="M136.78,155.32h0l-.45.24-.07-.27.57-.3h.3v2.6h-.34v-2.27Z"/>
      <path d="M139.79,156.26c0,.88-.33,1.37-.9,1.37-.51,0-.85-.48-.86-1.34,0-.87.38-1.35.9-1.35s.86.49.86,1.32ZM138.38,156.3c0,.68.21,1.06.53,1.06.36,0,.53-.42.53-1.08s-.16-1.06-.53-1.06c-.31,0-.53.38-.53,1.08Z"/>
    </g>
    <g>
      <rect x="129.6" y="160.04" width="14.4" height="4.8" fill="none"/>
      <path d="M133.97,161.21c.15-.03.39-.06.64-.06.35,0,.57.06.74.2.14.1.22.26.22.48,0,.26-.17.49-.46.59h0c.26.07.56.28.56.68,0,.23-.09.41-.23.54-.19.17-.49.25-.93.25-.24,0-.42-.02-.54-.03v-2.65ZM134.32,162.31h.32c.37,0,.58-.19.58-.45,0-.32-.24-.44-.59-.44-.16,0-.25.01-.31.02v.87ZM134.32,163.6c.07.01.17.02.29.02.36,0,.69-.13.69-.52,0-.37-.32-.52-.7-.52h-.29v1.03Z"/>
      <path d="M136.78,161.59h0l-.45.24-.07-.27.57-.3h.3v2.6h-.34v-2.27Z"/>
      <path d="M138.83,161.59h0l-.45.24-.07-.27.57-.3h.3v2.6h-.34v-2.27Z"/>
    </g>
    <g>
      <rect x="129.6" y="166.32" width="14.4" height="4.8" fill="none"/>
      <path d="M133.97,167.48c.15-.03.39-.06.64-.06.35,0,.57.06.74.2.14.1.22.26.22.48,0,.26-.17.49-.46.59h0c.26.07.56.28.56.68,0,.23-.09.41-.23.54-.19.17-.49.25-.93.25-.24,0-.42-.02-.54-.03v-2.65ZM134.32,168.59h.32c.37,0,.58-.19.58-.45,0-.32-.24-.44-.59-.44-.16,0-.25.01-.31.02v.87ZM134.32,169.88c.07.01.17.02.29.02.36,0,.69-.13.69-.52,0-.37-.32-.52-.7-.52h-.29v1.03Z"/>
      <path d="M136.78,167.87h0l-.45.24-.07-.27.57-.3h.3v2.6h-.34v-2.27Z"/>
      <path d="M138.06,170.14v-.22l.28-.27c.66-.63.96-.97.97-1.36,0-.26-.13-.51-.52-.51-.24,0-.43.12-.55.22l-.11-.25c.18-.15.44-.26.74-.26.56,0,.8.38.8.76,0,.48-.35.87-.9,1.4l-.21.19h0s1.17,0,1.17,0v.29h-1.66Z"/>
    </g>
    <g>
      <rect x="129.6" y="172.6" width="14.4" height="4.8" fill="none"/>
      <path d="M133.97,173.76c.15-.03.39-.06.64-.06.35,0,.57.06.74.2.14.1.22.26.22.48,0,.26-.17.49-.46.59h0c.26.07.56.28.56.68,0,.23-.09.41-.23.54-.19.17-.49.25-.93.25-.24,0-.42-.02-.54-.03v-2.65ZM134.32,174.86h.32c.37,0,.58-.19.58-.45,0-.32-.24-.44-.59-.44-.16,0-.25.01-.31.02v.87ZM134.32,176.16c.07.01.17.02.29.02.36,0,.69-.13.69-.52,0-.37-.32-.52-.7-.52h-.29v1.03Z"/>
      <path d="M136.78,174.15h0l-.45.24-.07-.27.57-.3h.3v2.6h-.34v-2.27Z"/>
      <path d="M138.15,176.02c.1.06.33.16.58.16.45,0,.59-.29.59-.5,0-.36-.33-.52-.67-.52h-.2v-.26h.2c.26,0,.58-.13.58-.44,0-.21-.13-.39-.46-.39-.21,0-.41.09-.52.17l-.09-.26c.14-.1.4-.2.68-.2.51,0,.74.3.74.62,0,.27-.16.5-.48.61h0c.32.07.58.31.58.68,0,.42-.32.78-.95.78-.29,0-.55-.09-.68-.18l.1-.27Z"/>
    </g>
    <g>
      <rect x="129.6" y="178.88" width="14.4" height="4.8" fill="none"/>
      <path d="M133.97,180.04c.15-.03.39-.06.64-.06.35,0,.57.06.74.2.14.1.22.26.22.48,0,.26-.17.49-.46.59h0c.26.07.56.28.56.68,0,.23-.09.41-.23.54-.19.17-.49.25-.93.25-.24,0-.42-.02-.54-.03v-2.65ZM134.32,181.14h.32c.37,0,.58-.19.58-.45,0-.32-.24-.44-.59-.44-.16,0-.25.01-.31.02v.87ZM134.32,182.43c.07.01.17.02.29.02.36,0,.69-.13.69-.52,0-.37-.32-.52-.7-.52h-.29v1.03Z"/>
      <path d="M136.78,180.42h0l-.45.24-.07-.27.57-.3h.3v2.6h-.34v-2.27Z"/>
      <path d="M139.15,182.7v-.71h-1.21v-.23l1.16-1.66h.38v1.62h.36v.28h-.36v.71h-.33ZM139.15,181.71v-.87c0-.14,0-.27.01-.41h-.01c-.08.15-.14.26-.22.38l-.64.88h0s.85,0,.85,0Z"/>
    </g>
    <g>
      <rect x="129.6" y="185.15" width="14.4" height="4.8" fill="none"/>
      <path d="M133.97,186.31c.15-.03.39-.06.64-.06.35,0,.57.06.74.2.14.1.22.26.22.48,0,.26-.17.49-.46.59h0c.26.07.56.28.56.68,0,.23-.09.41-.23.54-.19.17-.49.25-.93.25-.24,0-.42-.02-.54-.03v-2.65ZM134.32,187.42h.32c.37,0,.58-.19.58-.45,0-.32-.24-.44-.59-.44-.16,0-.25.01-.31.02v.87ZM134.32,188.71c.07.01.17.02.29.02.36,0,.69-.13.69-.52,0-.37-.32-.52-.7-.52h-.29v1.03Z"/>
      <path d="M136.78,186.7h0l-.45.24-.07-.27.57-.3h.3v2.6h-.34v-2.27Z"/>
      <path d="M139.62,186.67h-.99l-.1.67c.06,0,.12-.02.21-.02.2,0,.4.04.56.14.2.12.37.34.37.67,0,.51-.4.89-.97.89-.28,0-.52-.08-.65-.16l.09-.27c.11.06.32.14.56.14.33,0,.62-.22.62-.56,0-.33-.23-.58-.75-.58-.15,0-.26.02-.36.03l.17-1.25h1.24v.3Z"/>
    </g>
    <g>
      <rect x="129.6" y="191.43" width="14.4" height="4.8" fill="none"/>
      <path d="M133.97,192.59c.15-.03.39-.06.64-.06.35,0,.57.06.74.2.14.1.22.26.22.48,0,.26-.17.49-.46.59h0c.26.07.56.28.56.68,0,.23-.09.41-.23.54-.19.17-.49.25-.93.25-.24,0-.42-.02-.54-.03v-2.65ZM134.32,193.69h.32c.37,0,.58-.19.58-.45,0-.32-.24-.44-.59-.44-.16,0-.25.01-.31.02v.87ZM134.32,194.99c.07.01.17.02.29.02.36,0,.69-.13.69-.52,0-.37-.32-.52-.7-.52h-.29v1.03Z"/>
      <path d="M136.78,192.98h0l-.45.24-.07-.27.57-.3h.3v2.6h-.34v-2.27Z"/>
      <path d="M139.55,192.9c-.07,0-.16,0-.26.02-.55.09-.84.5-.9.92h.01c.12-.16.34-.3.63-.3.46,0,.78.33.78.84,0,.48-.32.92-.86.92s-.92-.43-.92-1.11c0-.51.18-.92.44-1.17.22-.21.5-.34.83-.38.1-.02.19-.02.26-.02v.29ZM139.45,194.4c0-.37-.21-.6-.54-.6-.21,0-.41.13-.5.32-.02.04-.04.09-.04.16,0,.43.2.74.57.74.3,0,.51-.25.51-.62Z"/>
    </g>
    <g>
      <rect x="129.6" y="197.71" width="14.4" height="4.8" fill="none"/>
      <path d="M133.97,198.87c.15-.03.39-.06.64-.06.35,0,.57.06.74.2.14.1.22.26.22.48,0,.26-.17.49-.46.59h0c.26.07.56.28.56.68,0,.23-.09.41-.23.54-.19.17-.49.25-.93.25-.24,0-.42-.02-.54-.03v-2.65ZM134.32,199.97h.32c.37,0,.58-.19.58-.45,0-.32-.24-.44-.59-.44-.16,0-.25.01-.31.02v.87ZM134.32,201.26c.07.01.17.02.29.02.36,0,.69-.13.69-.52,0-.37-.32-.52-.7-.52h-.29v1.03Z"/>
      <path d="M136.78,199.26h0l-.45.24-.07-.27.57-.3h.3v2.6h-.34v-2.27Z"/>
      <path d="M139.75,198.93v.23l-1.13,2.37h-.36l1.13-2.3h0s-1.27,0-1.27,0v-.29h1.64Z"/>
    </g>
    <g>
      <rect x="129.6" y="203.98" width="14.4" height="4.8" fill="none"/>
      <path d="M133.97,205.14c.15-.03.39-.06.64-.06.35,0,.57.06.74.2.14.1.22.26.22.48,0,.26-.17.49-.46.59h0c.26.07.56.28.56.68,0,.23-.09.41-.23.54-.19.17-.49.25-.93.25-.24,0-.42-.02-.54-.03v-2.65ZM134.32,206.25h.32c.37,0,.58-.19.58-.45,0-.32-.24-.44-.59-.44-.16,0-.25.01-.31.02v.87ZM134.32,207.54c.07.01.17.02.29.02.36,0,.69-.13.69-.52,0-.37-.32-.52-.7-.52h-.29v1.03Z"/>
      <path d="M136.78,205.53h0l-.45.24-.07-.27.57-.3h.3v2.6h-.34v-2.27Z"/>
      <path d="M138.03,207.14c0-.33.2-.56.52-.7h0c-.29-.15-.41-.37-.41-.6,0-.41.35-.69.8-.69.5,0,.75.32.75.64,0,.22-.11.46-.43.61h0c.32.14.52.37.52.68,0,.45-.39.76-.88.76-.54,0-.87-.32-.87-.7ZM139.43,207.13c0-.32-.22-.47-.57-.57-.3.09-.47.29-.47.54-.01.26.19.5.52.5s.52-.2.52-.46ZM138.46,205.83c0,.26.2.4.5.48.22-.08.4-.24.4-.47,0-.21-.12-.42-.44-.42-.29,0-.45.19-.45.42Z"/>
    </g>
    <g>
      <rect x="129.6" y="210.26" width="14.4" height="4.8" fill="none"/>
      <path d="M133.97,211.42c.15-.03.39-.06.64-.06.35,0,.57.06.74.2.14.1.22.26.22.48,0,.26-.17.49-.46.59h0c.26.07.56.28.56.68,0,.23-.09.41-.23.54-.19.17-.49.25-.93.25-.24,0-.42-.02-.54-.03v-2.65ZM134.32,212.53h.32c.37,0,.58-.19.58-.45,0-.32-.24-.44-.59-.44-.16,0-.25.01-.31.02v.87ZM134.32,213.82c.07.01.17.02.29.02.36,0,.69-.13.69-.52,0-.37-.32-.52-.7-.52h-.29v1.03Z"/>
      <path d="M136.78,211.81h0l-.45.24-.07-.27.57-.3h.3v2.6h-.34v-2.27Z"/>
      <path d="M138.27,213.83c.08,0,.16,0,.28-.01.2-.03.4-.11.54-.25.17-.16.3-.38.34-.69h-.01c-.14.18-.35.28-.61.28-.47,0-.77-.35-.77-.8,0-.49.36-.92.89-.92s.86.43.86,1.1c0,.57-.19.97-.45,1.22-.2.2-.48.32-.75.35-.13.02-.24.02-.32.02v-.29ZM138.4,212.34c0,.32.2.55.5.55.24,0,.42-.12.51-.27.02-.03.03-.07.03-.13,0-.44-.16-.78-.53-.78-.3,0-.51.26-.51.63Z"/>
    </g>
    <g>
      <rect x="129.6" y="216.54" width="14.4" height="4.8" fill="none"/>
      <path d="M133.97,217.7c.15-.03.39-.06.64-.06.35,0,.57.06.74.2.14.1.22.26.22.48,0,.26-.17.49-.46.59h0c.26.07.56.28.56.68,0,.23-.09.41-.23.54-.19.17-.49.25-.93.25-.24,0-.42-.02-.54-.03v-2.65ZM134.32,218.8h.32c.37,0,.58-.19.58-.45,0-.32-.24-.44-.59-.44-.16,0-.25.01-.31.02v.87ZM134.32,220.09c.07.01.17.02.29.02.36,0,.69-.13.69-.52,0-.37-.32-.52-.7-.52h-.29v1.03Z"/>
      <path d="M136.01,220.36v-.22l.28-.27c.66-.63.96-.97.97-1.36,0-.26-.13-.51-.52-.51-.24,0-.43.12-.55.22l-.11-.25c.18-.15.44-.26.74-.26.56,0,.8.38.8.76,0,.48-.35.87-.9,1.4l-.21.19h0s1.17,0,1.17,0v.29h-1.66Z"/>
      <path d="M139.79,219.03c0,.88-.33,1.37-.9,1.37-.51,0-.85-.48-.86-1.33,0-.87.38-1.35.9-1.35s.86.49.86,1.32ZM138.38,219.07c0,.68.21,1.06.53,1.06.36,0,.53-.42.53-1.08s-.16-1.06-.53-1.06c-.31,0-.53.38-.53,1.08Z"/>
    </g>
    <g>
      <rect x="129.6" y="222.81" width="14.4" height="4.8" fill="none"/>
      <path d="M133.97,223.98c.15-.03.39-.06.64-.06.35,0,.57.06.74.2.14.1.22.26.22.48,0,.26-.17.49-.46.59h0c.26.07.56.28.56.68,0,.23-.09.41-.23.54-.19.17-.49.25-.93.25-.24,0-.42-.02-.54-.03v-2.65ZM134.32,225.08h.32c.37,0,.58-.19.58-.45,0-.32-.24-.44-.59-.44-.16,0-.25.01-.31.02v.87ZM134.32,226.37c.07.01.17.02.29.02.36,0,.69-.13.69-.52,0-.37-.32-.52-.7-.52h-.29v1.03Z"/>
      <path d="M136.01,226.63v-.22l.28-.27c.66-.63.96-.97.97-1.36,0-.26-.13-.51-.52-.51-.24,0-.43.12-.55.22l-.11-.25c.18-.15.44-.26.74-.26.56,0,.8.38.8.75,0,.48-.35.87-.9,1.4l-.21.19h0s1.17,0,1.17,0v.29h-1.66Z"/>
      <path d="M138.83,224.36h0l-.45.24-.07-.27.57-.3h.3v2.6h-.34v-2.27Z"/>
    </g>
    <g>
      <rect x="129.6" y="229.09" width="14.4" height="4.8" fill="none"/>
      <path d="M133.97,230.25c.15-.03.39-.06.64-.06.35,0,.57.06.74.2.14.1.22.26.22.48,0,.26-.17.49-.46.59h0c.26.07.56.28.56.68,0,.23-.09.41-.23.54-.19.17-.49.25-.93.25-.24,0-.42-.02-.54-.03v-2.65ZM134.32,231.36h.32c.37,0,.58-.19.58-.45,0-.32-.24-.44-.59-.44-.16,0-.25.01-.31.02v.87ZM134.32,232.65c.07.01.17.02.29.02.36,0,.69-.13.69-.52,0-.37-.32-.52-.7-.52h-.29v1.03Z"/>
      <path d="M136.01,232.91v-.22l.28-.27c.66-.63.96-.97.97-1.36,0-.26-.13-.51-.52-.51-.24,0-.43.12-.55.22l-.11-.25c.18-.15.44-.26.74-.26.56,0,.8.38.8.76,0,.48-.35.87-.9,1.4l-.21.19h0s1.17,0,1.17,0v.29h-1.66Z"/>
      <path d="M138.06,232.91v-.22l.28-.27c.66-.63.96-.97.97-1.36,0-.26-.13-.51-.52-.51-.24,0-.43.12-.55.22l-.11-.25c.18-.15.44-.26.74-.26.56,0,.8.38.8.76,0,.48-.35.87-.9,1.4l-.21.19h0s1.17,0,1.17,0v.29h-1.66Z"/>
    </g>
    <g>
      <rect x="129.6" y="235.37" width="14.4" height="4.8" fill="none"/>
      <path d="M133.97,236.53c.15-.03.39-.06.64-.06.35,0,.57.06.74.2.14.1.22.26.22.48,0,.26-.17.49-.46.59h0c.26.07.56.28.56.68,0,.23-.09.41-.23.54-.19.17-.49.25-.93.25-.24,0-.42-.02-.54-.03v-2.65ZM134.32,237.63h.32c.37,0,.58-.19.58-.45,0-.32-.24-.44-.59-.44-.16,0-.25.01-.31.02v.87ZM134.32,238.92c.07.01.17.02.29.02.36,0,.69-.13.69-.52,0-.37-.32-.52-.7-.52h-.29v1.03Z"/>
      <path d="M136.01,239.19v-.22l.28-.27c.66-.63.96-.97.97-1.36,0-.26-.13-.51-.52-.51-.24,0-.43.12-.55.22l-.11-.25c.18-.15.44-.26.74-.26.56,0,.8.38.8.75,0,.48-.35.87-.9,1.4l-.21.19h0s1.17,0,1.17,0v.29h-1.66Z"/>
      <path d="M138.15,238.78c.1.06.33.16.58.16.45,0,.59-.29.59-.5,0-.36-.33-.52-.67-.52h-.2v-.26h.2c.26,0,.58-.13.58-.44,0-.21-.13-.39-.46-.39-.21,0-.41.09-.52.17l-.09-.26c.14-.1.4-.2.68-.2.51,0,.74.3.74.62,0,.27-.16.5-.48.61h0c.32.07.58.31.58.67,0,.42-.32.78-.95.78-.29,0-.55-.09-.68-.18l.1-.27Z"/>
    </g>
    <g>
      <rect x="129.6" y="241.64" width="14.4" height="4.8" fill="none"/>
      <path d="M133.97,242.81c.15-.03.39-.06.64-.06.35,0,.57.06.74.2.14.1.22.26.22.48,0,.26-.17.49-.46.59h0c.26.07.56.28.56.68,0,.23-.09.41-.23.54-.19.17-.49.25-.93.25-.24,0-.42-.02-.54-.03v-2.65ZM134.32,243.91h.32c.37,0,.58-.19.58-.45,0-.32-.24-.44-.59-.44-.16,0-.25.01-.31.02v.87ZM134.32,245.2c.07.01.17.02.29.02.36,0,.69-.13.69-.52,0-.37-.32-.52-.7-.52h-.29v1.03Z"/>
      <path d="M136.01,245.46v-.22l.28-.27c.66-.63.96-.97.97-1.36,0-.26-.13-.51-.52-.51-.24,0-.43.12-.55.22l-.11-.25c.18-.15.44-.26.74-.26.56,0,.8.38.8.76,0,.48-.35.87-.9,1.4l-.21.19h0s1.17,0,1.17,0v.29h-1.66Z"/>
      <path d="M139.15,245.46v-.71h-1.21v-.23l1.16-1.66h.38v1.62h.36v.28h-.36v.71h-.33ZM139.15,244.48v-.87c0-.14,0-.27.01-.41h-.01c-.08.15-.14.26-.22.38l-.64.88h0s.85,0,.85,0Z"/>
    </g>
    <g>
      <rect x="129.6" y="247.92" width="14.4" height="4.8" fill="none"/>
      <path d="M133.97,249.08c.15-.03.39-.06.64-.06.35,0,.57.06.74.2.14.1.22.26.22.48,0,.26-.17.49-.46.59h0c.26.07.56.28.56.68,0,.23-.09.41-.23.54-.19.17-.49.25-.93.25-.24,0-.42-.02-.54-.03v-2.65ZM134.32,250.19h.32c.37,0,.58-.19.58-.45,0-.32-.24-.44-.59-.44-.16,0-.25.01-.31.02v.87ZM134.32,251.48c.07.01.17.02.29.02.36,0,.69-.13.69-.52,0-.37-.32-.52-.7-.52h-.29v1.03Z"/>
      <path d="M136.01,251.74v-.22l.28-.27c.66-.63.96-.97.97-1.36,0-.26-.13-.51-.52-.51-.24,0-.43.12-.55.22l-.11-.25c.18-.15.44-.26.74-.26.56,0,.8.38.8.75,0,.48-.35.87-.9,1.4l-.21.19h0s1.17,0,1.17,0v.29h-1.66Z"/>
      <path d="M139.62,249.44h-.99l-.1.67c.06,0,.12-.02.21-.02.2,0,.4.04.56.14.2.12.37.34.37.67,0,.51-.4.89-.97.89-.28,0-.52-.08-.65-.16l.09-.27c.11.06.32.14.56.14.33,0,.62-.22.62-.56,0-.34-.23-.58-.75-.58-.15,0-.26.02-.36.03l.17-1.25h1.24v.3Z"/>
    </g>
    <g>
      <rect x="129.6" y="254.2" width="14.4" height="4.8" fill="none"/>
      <path d="M133.97,255.36c.15-.03.39-.06.64-.06.35,0,.57.06.74.2.14.1.22.26.22.48,0,.26-.17.49-.46.59h0c.26.07.56.28.56.68,0,.23-.09.41-.23.54-.19.17-.49.25-.93.25-.24,0-.42-.02-.54-.03v-2.65ZM134.32,256.46h.32c.37,0,.58-.19.58-.45,0-.32-.24-.44-.59-.44-.16,0-.25.01-.31.02v.87ZM134.32,257.75c.07.01.17.02.29.02.36,0,.69-.13.69-.52,0-.37-.32-.52-.7-.52h-.29v1.03Z"/>
      <path d="M136.01,258.02v-.22l.28-.27c.66-.63.96-.97.97-1.36,0-.26-.13-.51-.52-.51-.24,0-.43.12-.55.22l-.11-.25c.18-.15.44-.26.74-.26.56,0,.8.38.8.76,0,.48-.35.87-.9,1.4l-.21.19h0s1.17,0,1.17,0v.29h-1.66Z"/>
      <path d="M139.55,255.67c-.07,0-.16,0-.26.02-.55.09-.84.5-.9.92h.01c.12-.16.34-.3.63-.3.46,0,.78.33.78.84,0,.48-.32.92-.86.92s-.92-.43-.92-1.11c0-.51.18-.92.44-1.17.22-.21.5-.34.83-.38.1-.02.19-.02.26-.02v.29ZM139.45,257.17c0-.37-.21-.6-.54-.6-.21,0-.41.13-.5.32-.02.04-.04.09-.04.16,0,.43.2.74.57.74.3,0,.51-.25.51-.62Z"/>
    </g>
    <g>
      <rect x="129.6" y="260.48" width="14.4" height="4.8" fill="none"/>
      <path d="M133.97,261.64c.15-.03.39-.06.64-.06.35,0,.57.06.74.2.14.1.22.26.22.48,0,.26-.17.49-.46.59h0c.26.07.56.28.56.68,0,.23-.09.41-.23.54-.19.17-.49.25-.93.25-.24,0-.42-.02-.54-.03v-2.65ZM134.32,262.74h.32c.37,0,.58-.19.58-.45,0-.32-.24-.44-.59-.44-.16,0-.25.01-.31.02v.87ZM134.32,264.03c.07.01.17.02.29.02.36,0,.69-.13.69-.52,0-.37-.32-.52-.7-.52h-.29v1.03Z"/>
      <path d="M136.01,264.3v-.22l.28-.27c.66-.63.96-.97.97-1.36,0-.26-.13-.51-.52-.51-.24,0-.43.12-.55.22l-.11-.25c.18-.15.44-.26.74-.26.56,0,.8.38.8.76,0,.48-.35.87-.9,1.4l-.21.19h0s1.17,0,1.17,0v.29h-1.66Z"/>
      <path d="M139.75,261.7v.23l-1.13,2.37h-.36l1.13-2.3h0s-1.27,0-1.27,0v-.29h1.64Z"/>
    </g>
    <g>
      <rect x="129.6" y="266.75" width="14.4" height="4.8" fill="none"/>
      <path d="M133.97,267.91c.15-.03.39-.06.64-.06.35,0,.57.06.74.2.14.1.22.26.22.48,0,.26-.17.49-.46.59h0c.26.07.56.28.56.68,0,.23-.09.41-.23.54-.19.17-.49.25-.93.25-.24,0-.42-.02-.54-.03v-2.65ZM134.32,269.02h.32c.37,0,.58-.19.58-.45,0-.32-.24-.44-.59-.44-.16,0-.25.01-.31.02v.87ZM134.32,270.31c.07.01.17.02.29.02.36,0,.69-.13.69-.52,0-.37-.32-.52-.7-.52h-.29v1.03Z"/>
      <path d="M136.01,270.57v-.22l.28-.27c.66-.63.96-.97.97-1.36,0-.26-.13-.51-.52-.51-.24,0-.43.12-.55.22l-.11-.25c.18-.15.44-.26.74-.26.56,0,.8.38.8.75,0,.48-.35.87-.9,1.4l-.21.19h0s1.17,0,1.17,0v.29h-1.66Z"/>
      <path d="M138.03,269.91c0-.33.2-.56.52-.7h0c-.29-.15-.41-.37-.41-.6,0-.41.35-.69.8-.69.5,0,.75.32.75.64,0,.22-.11.46-.43.61h0c.32.14.52.37.52.68,0,.45-.39.76-.88.76-.54,0-.87-.32-.87-.7ZM139.43,269.9c0-.32-.22-.47-.57-.57-.3.09-.47.29-.47.54-.01.26.19.5.52.5s.52-.2.52-.46ZM138.46,268.6c0,.26.2.4.5.48.22-.08.4-.24.4-.47,0-.21-.12-.42-.44-.42-.29,0-.45.19-.45.42Z"/>
    </g>
    <g>
      <rect x="129.6" y="273.03" width="14.4" height="4.8" fill="none"/>
      <path d="M133.97,274.19c.15-.03.39-.06.64-.06.35,0,.57.06.74.2.14.1.22.26.22.48,0,.26-.17.49-.46.59h0c.26.07.56.28.56.68,0,.23-.09.41-.23.54-.19.17-.49.25-.93.25-.24,0-.42-.02-.54-.03v-2.65ZM134.32,275.29h.32c.37,0,.58-.19.58-.45,0-.32-.24-.44-.59-.44-.16,0-.25.01-.31.02v.87ZM134.32,276.59c.07.01.17.02.29.02.36,0,.69-.13.69-.52,0-.37-.32-.52-.7-.52h-.29v1.03Z"/>
      <path d="M136.01,276.85v-.22l.28-.27c.66-.63.96-.97.97-1.36,0-.26-.13-.51-.52-.51-.24,0-.43.12-.55.22l-.11-.25c.18-.15.44-.26.74-.26.56,0,.8.38.8.76,0,.48-.35.87-.9,1.4l-.21.19h0s1.17,0,1.17,0v.29h-1.66Z"/>
      <path d="M138.27,276.6c.08,0,.16,0,.28-.01.2-.03.4-.11.54-.25.17-.16.3-.38.34-.69h-.01c-.14.18-.35.28-.61.28-.47,0-.77-.35-.77-.8,0-.49.36-.92.89-.92s.86.43.86,1.1c0,.57-.19.97-.45,1.22-.2.2-.48.32-.75.35-.13.02-.24.02-.32.02v-.29ZM138.4,275.11c0,.32.2.55.5.55.24,0,.42-.12.51-.27.02-.03.03-.07.03-.13,0-.44-.16-.78-.53-.78-.3,0-.51.26-.51.63Z"/>
    </g>
    <g>
      <rect x="129.6" y="279.31" width="14.4" height="4.8" fill="none"/>
      <path d="M133.97,280.47c.15-.03.39-.06.64-.06.35,0,.57.06.74.2.14.1.22.26.22.48,0,.26-.17.49-.46.59h0c.26.07.56.28.56.68,0,.23-.09.41-.23.54-.19.17-.49.25-.93.25-.24,0-.42-.02-.54-.03v-2.65ZM134.32,281.57h.32c.37,0,.58-.19.58-.45,0-.32-.24-.44-.59-.44-.16,0-.25.01-.31.02v.87ZM134.32,282.86c.07.01.17.02.29.02.36,0,.69-.13.69-.52,0-.37-.32-.52-.7-.52h-.29v1.03Z"/>
      <path d="M136.1,282.72c.1.06.33.16.58.16.45,0,.59-.29.59-.5,0-.36-.33-.52-.67-.52h-.2v-.26h.2c.26,0,.58-.13.58-.44,0-.21-.13-.39-.46-.39-.21,0-.41.09-.52.17l-.09-.26c.14-.1.4-.2.68-.2.51,0,.74.3.74.62,0,.27-.16.5-.48.61h0c.32.07.58.31.58.67,0,.42-.32.78-.95.78-.29,0-.55-.09-.68-.18l.1-.27Z"/>
      <path d="M139.79,281.8c0,.88-.33,1.37-.9,1.37-.51,0-.85-.48-.86-1.34,0-.87.38-1.35.9-1.35s.86.49.86,1.32ZM138.38,281.84c0,.67.21,1.06.53,1.06.36,0,.53-.42.53-1.08s-.16-1.06-.53-1.06c-.31,0-.53.38-.53,1.08Z"/>
    </g>
    <g>
      <rect x="129.6" y="285.58" width="14.4" height="4.8" fill="none"/>
      <path d="M133.97,286.75c.15-.03.39-.06.64-.06.35,0,.57.06.74.2.14.1.22.26.22.48,0,.26-.17.49-.46.59h0c.26.07.56.28.56.68,0,.23-.09.41-.23.54-.19.17-.49.25-.93.25-.24,0-.42-.02-.54-.03v-2.65ZM134.32,287.85h.32c.37,0,.58-.19.58-.45,0-.32-.24-.44-.59-.44-.16,0-.25.01-.31.02v.87ZM134.32,289.14c.07.01.17.02.29.02.36,0,.69-.13.69-.52,0-.37-.32-.52-.7-.52h-.29v1.03Z"/>
      <path d="M136.1,289c.1.06.33.16.58.16.45,0,.59-.29.59-.5,0-.36-.33-.52-.67-.52h-.2v-.26h.2c.26,0,.58-.13.58-.44,0-.21-.13-.39-.46-.39-.21,0-.41.09-.52.17l-.09-.26c.14-.1.4-.2.68-.2.51,0,.74.3.74.62,0,.27-.16.5-.48.61h0c.32.07.58.31.58.68,0,.42-.32.78-.95.78-.29,0-.55-.09-.68-.18l.1-.27Z"/>
      <path d="M138.83,287.13h0l-.45.24-.07-.27.57-.3h.3v2.6h-.34v-2.27Z"/>
    </g>
  </g>
</svg>