<?xml version="1.0" encoding="UTF-8"?>
<svg xmlns="http://www.w3.org/2000/svg" width="101.6mm" height="128.5mm" viewBox="0 0 288 364.25">
  <g id="Background">
    <rect y="0" width="288" height="364.25" fill="#f0f0f0"/>
  </g>
  <g id="UI">
    <g>
      <path id="path12" d="M234.1,22.79h1.2v-1.2h1.2v2.4h1.2v-3.6h1.2v4.8h1.2v-6h1.2v6h1.2v-3.6h1.2v2.4h1.2v-1.2h1.2" fill="none" stroke="#b2b2b2" stroke-linecap="round" stroke-linejoin="round" stroke-width=".5"/>
      <path id="path13" d="M247.87,25.19l3.6-6c0,1.31,1.01,3.6,2.4,3.6h4.8l1.2,2.4" fill="none" stroke="#b2b2b2" stroke-linecap="square" stroke-linejoin="bevel" stroke-width=".5"/>
      <path id="path17" d="M263.9,19.19h-1.2v7.2h1.2" fill="none" stroke="#b2b2b2" stroke-linecap="square" stroke-linejoin="bevel" stroke-width=".5"/>
      <path id="path18" d="M273.5,19.19h1.2v7.2h-1.2" fill="none" stroke="#b2b2b2" stroke-linecap="square" stroke-linejoin="bevel" stroke-width=".5"/>
      <path id="path21" d="M265.1,19.83l2.4,2.4" fill="none" stroke="#b2b2b2" stroke-linejoin="bevel" stroke-width=".5"/>
      <path id="path22" d="M267.5,19.83l-2.4,2.4" fill="none" stroke="#b2b2b2" stroke-linejoin="bevel" stroke-width=".5"/>
      <path id="path23-5" d="M265.1,23.43l2.4,2.4" fill="none" stroke="#b2b2b2" stroke-linejoin="bevel" stroke-width=".5"/>
      <path id="path24" d="M265.1,25.83l2.4-2.4" fill="none" stroke="#b2b2b2" stroke-linejoin="bevel" stroke-width=".5"/>
      <path id="path25-3" d="M269.9,19.83l2.4,2.4" fill="none" stroke="#b2b2b2" stroke-linejoin="bevel" stroke-width=".5"/>
      <path id="path26-7" d="M272.3,19.83l-2.4,2.4" fill="none" stroke="#b2b2b2" stroke-linejoin="bevel" stroke-width=".5"/>
      <rect id="rect26" x="269.9" y="23.43" width="2.4" height="2.4" fill="none" stroke="#b2b2b2" stroke-linejoin="bevel" stroke-width=".5"/>
    </g>
  </g>
  <g id="Text">
    <g>
      <rect x="12" y="16.79" width="55.2" height="12" fill="none"/>
      <path d="M15.58,26.05c-.65,0-1.22-.14-1.72-.42s-.89-.66-1.17-1.15c-.28-.49-.42-1.05-.42-1.68s.14-1.2.42-1.69c.28-.49.67-.87,1.16-1.15.5-.28,1.06-.42,1.71-.42s1.21.14,1.71.42c.49.28.88.66,1.16,1.15.28.49.42,1.05.42,1.69s-.14,1.19-.42,1.68c-.28.49-.66.87-1.16,1.15s-1.06.42-1.7.42ZM15.58,24.72c.35,0,.67-.08.94-.24s.48-.39.63-.68c.15-.29.22-.62.22-.99s-.08-.71-.23-1-.37-.52-.64-.68-.58-.25-.94-.25-.67.08-.94.25c-.27.17-.48.39-.64.68s-.23.62-.23.99.08.71.23,1,.37.52.65.68.59.24.95.24Z" fill="#231f20"/>
      <path d="M19.52,25.94v-6.3h2.47c.46,0,.86.09,1.21.27s.63.44.83.76c.2.32.3.7.3,1.12s-.1.79-.29,1.12-.47.58-.81.77c-.35.19-.75.28-1.2.28h-1.07v1.99h-1.45ZM20.96,22.62h1.04c.26,0,.46-.08.62-.23.16-.15.23-.35.23-.6s-.08-.45-.25-.6c-.16-.15-.38-.23-.65-.23h-.99v1.66Z" fill="#231f20"/>
      <path d="M24.67,23.86v-1.19h2.7v1.19h-2.7Z" fill="#231f20"/>
      <path d="M28.23,25.94v-6.3h4.1v1.33h-2.65v1.15h2.22v1.29h-2.22v1.2h2.7v1.33h-4.15Z" fill="#231f20"/>
      <path d="M33.29,25.94v-6.3h1.52l2.76,3.84v-3.84h1.45v6.3h-1.45l-2.84-3.95v3.95h-1.45Z" fill="#231f20"/>
      <path d="M41.94,25.94l-2.47-6.3h1.56l1.69,4.56,1.67-4.56h1.56l-2.46,6.3h-1.56Z" fill="#231f20"/>
    </g>
  </g>
  <g id="Layer_8" data-name="Layer 8">
    <rect x="242.4" y="311.99" width="33.6" height="48" rx="3" ry="3" fill="#2a2a2a"/>
  </g>
  <g id="Layer_10" data-name="Layer 10">
    <line x1="72" y1="187.19" x2="72" y2="158.39" fill="none" stroke="#b2b2b2" stroke-miterlimit="11.34" stroke-width=".5"/>
    <line x1="115.2" y1="187.19" x2="115.2" y2="158.39" fill="none" stroke="#b2b2b2" stroke-miterlimit="11.34" stroke-width=".5"/>
    <line x1="158.4" y1="187.19" x2="158.4" y2="158.39" fill="none" stroke="#b2b2b2" stroke-miterlimit="11.34" stroke-width=".5"/>
    <line x1="201.6" y1="187.19" x2="201.6" y2="158.39" fill="none" stroke="#b2b2b2" stroke-miterlimit="11.34" stroke-width=".5"/>
    <line x1="259.2" y1="187.46" x2="259.2" y2="158.66" fill="none" stroke="#b2b2b2" stroke-miterlimit="11.34" stroke-width=".5"/>
    <line x1="230.4" y1="273.59" x2="230.4" y2="158.39" fill="none" stroke="#b2b2b2" stroke-miterlimit="11.34" stroke-width=".5"/>
    <line x1="52.8" y1="359.99" x2="52.8" y2="273.59" fill="none" stroke="#b2b2b2" stroke-miterlimit="11.34" stroke-width=".5"/>
    <line x1="180" y1="359.99" x2="180" y2="273.59" fill="none" stroke="#b2b2b2" stroke-miterlimit="11.34" stroke-width=".5"/>
    <line x1="72" y1="259.19" x2="72" y2="230.39" fill="none" stroke="#b2b2b2" stroke-miterlimit="11.34" stroke-width=".5"/>
    <line x1="201.6" y1="230.39" x2="72" y2="230.39" fill="none" stroke="#b2b2b2" stroke-miterlimit="11.34" stroke-width=".5"/>
    <line x1="158.4" y1="302.39" x2="72" y2="302.39" fill="none" stroke="#b2b2b2" stroke-miterlimit="11.34" stroke-width=".5"/>
    <line x1="158.4" y1="345.59" x2="136.8" y2="345.59" fill="none" stroke="#b2b2b2" stroke-miterlimit="11.34" stroke-width=".5"/>
    <line x1="278.4" y1="273.59" x2="14.4" y2="273.59" fill="none" stroke="#b2b2b2" stroke-miterlimit="11.34" stroke-width=".5"/>
    <line x1="201.6" y1="158.39" x2="72" y2="158.39" fill="none" stroke="#b2b2b2" stroke-miterlimit="11.34" stroke-width=".5"/>
    <line x1="115.2" y1="259.19" x2="115.2" y2="230.39" fill="none" stroke="#b2b2b2" stroke-miterlimit="11.34" stroke-width=".5"/>
    <line x1="136.8" y1="345.59" x2="136.8" y2="302.39" fill="none" stroke="#b2b2b2" stroke-miterlimit="11.34" stroke-width=".5"/>
    <line x1="158.4" y1="259.19" x2="158.4" y2="230.39" fill="none" stroke="#b2b2b2" stroke-miterlimit="11.34" stroke-width=".5"/>
    <line x1="201.6" y1="259.19" x2="201.6" y2="230.39" fill="none" stroke="#b2b2b2" stroke-miterlimit="11.34" stroke-width=".5"/>
    <line x1="259.2" y1="259.46" x2="259.2" y2="230.66" fill="none" stroke="#b2b2b2" stroke-miterlimit="11.34" stroke-width=".5"/>
    <g isolation="isolate">
      <g>
        <path d="M19.8,285.59l-2.01-4.9h.73l1.65,4.1,1.66-4.1h.74l-2.01,4.9h-.76Z" fill="#231f20"/>
        <path d="M22.74,286.18l1.93-5.82h.66l-1.92,5.82h-.68Z" fill="#231f20"/>
        <path d="M28.18,285.68c-.48,0-.9-.11-1.27-.32-.37-.21-.66-.51-.86-.9s-.31-.82-.31-1.31.1-.94.31-1.32c.21-.38.49-.68.86-.9.36-.22.78-.33,1.26-.33s.9.11,1.26.33c.36.22.65.52.85.9.21.38.31.82.31,1.31s-.1.93-.31,1.32-.49.68-.85.9c-.36.21-.78.32-1.25.32ZM28.19,285.05c.33,0,.63-.08.88-.25.26-.16.46-.39.6-.67.14-.29.22-.61.22-.99s-.07-.7-.22-.98-.35-.51-.61-.68c-.26-.16-.56-.24-.89-.24s-.63.08-.9.24c-.26.16-.46.39-.61.68s-.22.62-.22.98.08.7.22.99c.15.28.36.51.62.67.26.16.57.25.91.25Z" fill="#231f20"/>
        <path d="M33.6,285.68c-.47,0-.88-.11-1.25-.33-.36-.22-.65-.52-.85-.9-.21-.38-.31-.82-.31-1.31s.1-.93.31-1.31c.21-.38.49-.68.85-.9.36-.22.77-.33,1.24-.33.3,0,.59.06.87.17s.52.26.74.46c.22.19.38.42.5.67l-.62.28c-.09-.19-.21-.36-.36-.5-.15-.14-.33-.25-.52-.33-.19-.08-.4-.12-.61-.12-.33,0-.62.08-.88.24-.26.16-.46.39-.6.67-.14.28-.22.61-.22.99s.07.71.22.99.35.51.61.68c.26.16.55.24.89.24.21,0,.42-.04.61-.13.19-.09.36-.21.51-.36.15-.15.27-.33.37-.52l.62.27c-.12.27-.28.5-.5.71-.21.21-.46.37-.74.48-.28.11-.57.17-.88.17Z" fill="#231f20"/>
        <path d="M37.56,285.59v-4.27h-1.53v-.63h3.76v.63h-1.53v4.27h-.69Z" fill="#231f20"/>
      </g>
    </g>
    <g isolation="isolate">
      <g>
        <path d="M104.69,285.59v-4.9h1.51c.47,0,.88.1,1.24.31.36.21.65.5.85.87.21.37.31.79.31,1.27s-.1.9-.31,1.27c-.21.37-.49.66-.85.87-.36.21-.78.32-1.24.32h-1.51ZM105.38,284.95h.83c.24,0,.46-.05.67-.14.21-.09.39-.22.54-.38.16-.17.28-.36.37-.58.09-.22.13-.46.13-.71s-.04-.49-.13-.71c-.09-.22-.21-.41-.37-.58-.16-.17-.34-.29-.54-.38-.21-.09-.43-.14-.67-.14h-.83v3.61Z" fill="#231f20"/>
        <path d="M109.53,285.59v-4.9h2.95v.63h-2.26v1.46h2.04v.62h-2.04v1.57h2.27v.63h-2.96Z" fill="#231f20"/>
        <path d="M113.67,285.59v-4.9h1.65c.33,0,.62.07.87.2.25.13.45.32.59.56.14.24.21.51.21.82s-.06.57-.2.81c-.13.24-.31.42-.54.56-.23.14-.5.2-.79.2h-1.1v1.75h-.69ZM114.35,283.21h1.09c.25,0,.45-.09.61-.26s.24-.4.24-.68-.09-.51-.28-.68c-.18-.17-.42-.26-.7-.26h-.96v1.88Z" fill="#231f20"/>
        <path d="M118.76,285.59v-4.27h-1.53v-.63h3.76v.63h-1.53v4.27h-.69Z" fill="#231f20"/>
        <path d="M121.7,285.59v-4.9h.69v2.07h2.64v-2.07h.69v4.9h-.69v-2.21h-2.64v2.21h-.69Z" fill="#231f20"/>
      </g>
    </g>
    <g isolation="isolate">
      <g>
        <path d="M143.17,285.59l1.97-4.9h.74l1.97,4.9h-.73l-.53-1.31h-2.16l-.53,1.31h-.74ZM144.67,283.67h1.69l-.84-2.11-.85,2.11Z" fill="#231f20"/>
        <path d="M148.54,285.59v-4.9h.73l1.62,2.4,1.62-2.4h.73v4.9h-.69v-3.79l-1.67,2.46-1.66-2.45v3.79h-.69Z" fill="#231f20"/>
        <path d="M157.77,285.68c-.26,0-.5-.03-.71-.09s-.4-.14-.55-.25c-.16-.1-.29-.22-.39-.35-.1-.13-.18-.27-.22-.41l.66-.22c.07.19.2.36.4.5.2.14.44.21.72.22.34,0,.62-.07.81-.21.2-.14.3-.32.3-.55,0-.21-.09-.38-.26-.51-.17-.13-.4-.23-.69-.3l-.57-.15c-.22-.06-.43-.15-.61-.26-.18-.11-.33-.25-.44-.43-.11-.17-.16-.38-.16-.62,0-.45.15-.8.44-1.05.29-.25.71-.38,1.26-.38.32,0,.59.05.83.15.23.1.43.23.58.4.15.16.26.34.33.54l-.67.22c-.08-.21-.21-.38-.41-.51-.19-.13-.43-.19-.71-.19s-.53.07-.7.21-.25.33-.25.57c0,.21.07.36.2.47.13.11.31.19.54.25l.57.14c.46.11.81.3,1.06.56.25.26.37.54.37.85,0,.27-.07.51-.2.72s-.33.38-.59.5c-.26.12-.58.19-.96.19Z" fill="#231f20"/>
        <path d="M160.48,285.59v-4.9h2.95v.63h-2.26v1.46h2.04v.62h-2.04v1.57h2.28v.63h-2.96Z" fill="#231f20"/>
        <path d="M164.61,285.59v-4.9h.71l2.77,3.75v-3.75h.69v4.9h-.69l-2.79-3.79v3.79h-.69Z" fill="#231f20"/>
        <path d="M171.61,285.68c-.26,0-.5-.03-.71-.09s-.4-.14-.55-.25c-.16-.1-.29-.22-.39-.35-.1-.13-.17-.27-.22-.41l.67-.22c.07.19.2.36.4.5.2.14.44.21.72.22.35,0,.62-.07.82-.21.2-.14.3-.32.3-.55,0-.21-.09-.38-.26-.51-.17-.13-.4-.23-.69-.3l-.57-.15c-.22-.06-.43-.15-.61-.26-.18-.11-.33-.25-.44-.43-.11-.17-.16-.38-.16-.62,0-.45.15-.8.44-1.05.29-.25.71-.38,1.26-.38.32,0,.59.05.83.15.23.1.43.23.58.4.15.16.26.34.33.54l-.67.22c-.08-.21-.21-.38-.41-.51-.19-.13-.43-.19-.71-.19-.29,0-.53.07-.7.21s-.26.33-.26.57c0,.21.07.36.2.47.13.11.31.19.54.25l.57.14c.46.11.81.3,1.06.56.25.26.38.54.38.85,0,.27-.07.51-.2.72s-.33.38-.59.5c-.26.12-.58.19-.96.19Z" fill="#231f20"/>
      </g>
    </g>
    <g isolation="isolate">
      <g>
        <path d="M66.15,285.59v-4.9h.69v4.27h2.27v.63h-2.96Z" fill="#231f20"/>
        <path d="M69.82,285.59v-4.9h2.97v.63h-2.28v1.54h1.99v.63h-1.99v2.1h-.69Z" fill="#231f20"/>
        <path d="M75.76,285.68c-.48,0-.9-.11-1.27-.32-.37-.21-.66-.51-.86-.9-.21-.38-.31-.82-.31-1.31s.1-.94.31-1.32c.21-.38.49-.68.86-.9.36-.22.78-.33,1.26-.33s.9.11,1.26.33c.36.22.65.52.85.9.21.38.31.82.31,1.31s-.1.93-.31,1.32c-.21.38-.49.68-.85.9-.36.21-.78.32-1.25.32ZM75.77,285.05c.33,0,.62-.08.88-.25.26-.16.46-.39.6-.67.14-.29.22-.61.22-.99s-.07-.7-.22-.98c-.15-.29-.35-.51-.61-.68-.26-.16-.56-.24-.89-.24s-.63.08-.9.24c-.26.16-.46.39-.61.68-.15.29-.22.62-.22.98s.07.7.22.99c.15.28.36.51.62.67.26.16.56.25.91.25Z" fill="#231f20"/>
      </g>
    </g>
    <g isolation="isolate">
      <g>
        <path d="M35.4,160.79v-4.9h.69v4.27h2.27v.63h-2.96Z" fill="#231f20"/>
        <path d="M39.07,160.79v-4.9h2.95v.63h-2.26v1.46h2.04v.62h-2.04v1.57h2.27v.63h-2.96Z" fill="#231f20"/>
        <path d="M44.66,160.79l-2.01-4.9h.74l1.65,4.1,1.66-4.1h.74l-2.01,4.9h-.76Z" fill="#231f20"/>
        <path d="M48.12,160.79v-4.9h2.95v.63h-2.26v1.46h2.04v.62h-2.04v1.57h2.28v.63h-2.96Z" fill="#231f20"/>
        <path d="M52.25,160.79v-4.9h.69v4.27h2.28v.63h-2.96Z" fill="#231f20"/>
      </g>
    </g>
    <g isolation="isolate">
      <g>
        <path d="M38.77,233.06v-4.9h1.65c.33,0,.61.06.86.19.25.13.45.31.59.53.14.23.21.49.21.79,0,.32-.09.6-.27.85-.18.24-.42.42-.71.53l1.18,2.01h-.78l-1.09-1.88h-.96v1.88h-.69ZM39.46,230.55h1.03c.17,0,.32-.04.45-.12.13-.08.24-.18.32-.32.08-.13.12-.28.12-.45,0-.26-.09-.47-.27-.64-.18-.16-.42-.24-.71-.24h-.95v1.76Z" fill="#231f20"/>
        <path d="M42.65,233.06l1.97-4.9h.73l1.97,4.9h-.73l-.53-1.31h-2.16l-.53,1.31h-.74ZM44.15,231.13h1.69l-.84-2.11-.85,2.11Z" fill="#231f20"/>
        <path d="M48.85,233.06v-4.27h-1.53v-.63h3.76v.63h-1.53v4.27h-.69Z" fill="#231f20"/>
        <path d="M51.78,233.06v-4.9h2.95v.63h-2.26v1.46h2.04v.62h-2.04v1.57h2.27v.63h-2.96Z" fill="#231f20"/>
      </g>
    </g>
    <g isolation="isolate">
      <g>
        <path d="M22.69,328.88c-.49,0-.93-.11-1.32-.33-.38-.22-.69-.52-.9-.9-.22-.38-.33-.82-.33-1.31s.11-.94.33-1.32c.22-.38.52-.68.9-.9.39-.22.83-.33,1.32-.33.27,0,.53.04.78.13s.48.21.68.36c.2.15.37.33.49.52l-.55.36c-.09-.14-.21-.27-.37-.38-.15-.11-.31-.2-.49-.26-.18-.06-.36-.09-.54-.09-.36,0-.68.08-.96.24-.28.16-.5.39-.66.67-.16.28-.24.62-.24.99s.08.7.23.98c.16.28.38.51.66.67.28.16.61.25.97.25.29,0,.55-.06.78-.18s.41-.28.54-.5c.13-.21.2-.46.21-.74h-1.18v-.57h1.85v.5c0,.42-.1.8-.29,1.11-.19.32-.45.56-.78.74-.33.17-.71.26-1.14.26Z" fill="#231f20"/>
        <path d="M25.11,328.79l1.97-4.9h.74l1.97,4.9h-.73l-.53-1.31h-2.16l-.53,1.31h-.74ZM26.61,326.87h1.69l-.84-2.11-.85,2.11Z" fill="#231f20"/>
        <path d="M31.32,328.79v-4.27h-1.53v-.63h3.76v.63h-1.53v4.27h-.69Z" fill="#231f20"/>
        <path d="M34.25,328.79v-4.9h2.95v.63h-2.26v1.46h2.04v.62h-2.04v1.57h2.28v.63h-2.96Z" fill="#231f20"/>
      </g>
    </g>
    <g isolation="isolate">
      <g>
        <path d="M190.25,285.68c-.48,0-.9-.11-1.27-.32-.37-.21-.66-.51-.86-.9s-.31-.82-.31-1.31.1-.94.31-1.32c.21-.38.49-.68.86-.9.36-.22.78-.33,1.26-.33s.9.11,1.26.33c.36.22.65.52.85.9.21.38.31.82.31,1.31s-.1.93-.31,1.32-.49.68-.85.9c-.36.21-.78.32-1.25.32ZM190.26,285.05c.33,0,.63-.08.88-.25.26-.16.46-.39.6-.67.14-.29.22-.61.22-.99s-.07-.7-.22-.98-.35-.51-.61-.68c-.26-.16-.56-.24-.89-.24s-.63.08-.9.24c-.26.16-.46.39-.61.68s-.22.62-.22.98.08.7.22.99c.15.28.36.51.62.67.26.16.57.25.91.25Z" fill="#231f20"/>
        <path d="M195.42,285.7c-.38,0-.71-.08-1-.24s-.51-.38-.67-.66-.24-.61-.24-.98v-3.14h.69v3.14c0,.24.05.46.16.64s.25.33.43.43c.18.1.4.15.64.15s.46-.05.64-.15c.19-.1.33-.25.43-.43s.15-.4.15-.64v-3.14h.69v3.14c0,.37-.08.69-.24.98-.16.28-.39.5-.68.66s-.63.24-1.02.24Z" fill="#231f20"/>
        <path d="M199.43,285.59v-4.27h-1.53v-.63h3.76v.63h-1.53v4.27h-.69Z" fill="#231f20"/>
        <path d="M204.07,285.59v-4.9h.69v4.27h2.27v.63h-2.96Z" fill="#231f20"/>
        <path d="M209.19,285.59l-2.01-4.9h.74l1.65,4.1,1.66-4.1h.74l-2.01,4.9h-.76Z" fill="#231f20"/>
        <path d="M212.65,285.59v-4.9h.69v4.27h2.27v.63h-2.96Z" fill="#231f20"/>
      </g>
    </g>
    <g isolation="isolate">
      <path d="M72.12,213.86v-4.01c-.17.14-.35.25-.53.33-.18.08-.37.12-.55.12v-.62c.1,0,.22-.03.36-.1.14-.07.28-.16.42-.27.14-.11.26-.23.37-.34h.61v4.9h-.67Z" fill="#231f20"/>
    </g>
    <g isolation="isolate">
      <path d="M113.72,213.86v-.55c0-.14.03-.29.1-.45.07-.16.17-.31.29-.46.13-.15.28-.3.46-.43l.95-.7c.11-.08.21-.17.3-.28.09-.11.16-.21.22-.33.05-.11.08-.23.08-.34,0-.15-.04-.29-.11-.41-.08-.12-.18-.22-.32-.29s-.3-.11-.48-.11c-.18,0-.33.03-.46.1-.13.07-.24.16-.33.27-.09.11-.15.23-.19.36l-.71-.13c.05-.21.15-.42.3-.6.15-.19.34-.34.57-.45.23-.11.5-.17.79-.17.34,0,.63.06.87.19.25.12.44.29.57.51.13.22.2.46.2.75s-.07.52-.22.75-.36.45-.63.67l-.88.66c-.17.13-.31.27-.41.41-.1.14-.16.29-.19.45h2.39v.62h-3.17Z" fill="#231f20"/>
    </g>
    <g isolation="isolate">
      <path d="M158.49,213.94c-.25,0-.48-.04-.69-.11-.21-.07-.38-.18-.52-.31-.14-.13-.25-.27-.32-.43l.6-.27c.05.07.11.14.17.22s.16.15.28.21c.12.06.26.08.43.08.29,0,.53-.08.7-.25.18-.17.26-.38.26-.64,0-.19-.05-.35-.15-.49-.1-.13-.25-.23-.45-.3-.2-.07-.44-.1-.72-.1h-.18v-.58h.18c.38,0,.68-.07.9-.2.21-.13.32-.32.32-.55,0-.14-.04-.26-.11-.37-.07-.11-.17-.2-.3-.27-.13-.07-.28-.1-.46-.1-.11,0-.22.02-.33.05-.1.04-.2.09-.29.15-.09.07-.17.16-.23.26l-.57-.26c.08-.17.19-.32.34-.44.14-.12.31-.21.5-.28s.39-.1.61-.1c.29,0,.56.06.79.17.23.11.41.27.54.46.13.2.2.42.2.66s-.07.47-.21.65-.33.32-.57.43c.28.12.5.29.66.5.16.21.24.46.24.76s-.07.54-.22.76c-.15.22-.34.38-.59.5-.25.12-.51.17-.81.17Z" fill="#231f20"/>
    </g>
    <g isolation="isolate">
      <path d="M202.05,213.86v-1.13h-2.26v-.54l2.21-3.23h.71v3.16h.96v.61h-.96v1.13h-.67ZM200.54,212.12h1.5v-2.21l-1.5,2.21Z" fill="#231f20"/>
    </g>
    <g isolation="isolate">
      <path d="M72.12,141.67v-4.01c-.17.14-.35.25-.53.33-.18.08-.37.12-.55.12v-.62c.1,0,.22-.03.36-.1.14-.07.28-.16.42-.27.14-.11.26-.23.37-.34h.61v4.9h-.67Z" fill="#231f20"/>
    </g>
    <g isolation="isolate">
      <path d="M113.72,141.67v-.55c0-.14.03-.29.1-.45.07-.16.17-.31.29-.46.13-.15.28-.3.46-.43l.95-.7c.11-.08.21-.17.3-.28.09-.11.16-.21.22-.33.05-.11.08-.23.08-.34,0-.15-.04-.29-.11-.41-.08-.12-.18-.22-.32-.29s-.3-.11-.48-.11c-.18,0-.33.03-.46.1-.13.07-.24.16-.33.27-.09.11-.15.23-.19.36l-.71-.13c.05-.21.15-.42.3-.6.15-.19.34-.34.57-.45.23-.11.5-.17.79-.17.34,0,.63.06.87.19.25.12.44.29.57.51.13.22.2.46.2.75s-.07.52-.22.75-.36.45-.63.67l-.88.66c-.17.13-.31.27-.41.41-.1.14-.16.29-.19.45h2.39v.62h-3.17Z" fill="#231f20"/>
    </g>
    <g isolation="isolate">
      <path d="M158.39,141.68c-.25,0-.48-.04-.69-.11-.21-.07-.38-.18-.52-.31-.14-.13-.25-.27-.32-.43l.59-.27c.05.07.1.14.17.22s.16.15.28.21c.12.06.26.08.43.08.29,0,.53-.08.7-.25.17-.17.26-.38.26-.64,0-.19-.05-.35-.15-.49-.1-.13-.25-.23-.45-.3-.2-.07-.44-.1-.72-.1h-.17v-.58h.17c.38,0,.68-.07.9-.2s.32-.32.32-.55c0-.14-.04-.26-.11-.37-.07-.11-.17-.2-.3-.27-.13-.07-.28-.1-.46-.1-.11,0-.22.02-.33.05-.11.04-.2.09-.29.15-.09.07-.17.16-.23.26l-.57-.26c.08-.17.19-.32.34-.44.14-.12.31-.21.5-.28s.39-.1.61-.1c.29,0,.55.06.78.17.23.11.41.27.54.46.13.2.2.42.2.66s-.07.47-.21.65-.33.32-.57.43c.28.12.5.29.66.5.16.21.24.46.24.76s-.07.54-.22.76c-.15.22-.34.38-.59.5-.25.12-.51.17-.81.17Z" fill="#231f20"/>
    </g>
    <g isolation="isolate">
      <path d="M202.05,141.67v-1.13h-2.26v-.54l2.21-3.23h.71v3.16h.96v.61h-.96v1.13h-.67ZM200.54,139.94h1.5v-2.21l-1.5,2.21Z" fill="#231f20"/>
    </g>
    <g isolation="isolate">
      <g>
        <path d="M251.68,141.59l-1.75-4.9h.64l1.44,4.1,1.44-4.1h.64l-1.75,4.9h-.66Z" fill="#231f20"/>
        <path d="M256.49,141.68c-.41,0-.78-.11-1.1-.32-.32-.21-.57-.51-.75-.9-.18-.38-.27-.82-.27-1.31s.09-.94.27-1.32c.18-.38.43-.68.75-.9.32-.22.68-.33,1.1-.33s.78.11,1.1.33c.32.22.56.52.74.9.18.38.27.82.27,1.31s-.09.93-.27,1.32c-.18.38-.43.68-.74.9-.31.21-.68.32-1.09.32ZM256.5,141.05c.29,0,.54-.08.77-.25.22-.16.4-.39.52-.67s.19-.61.19-.99-.06-.7-.19-.98-.3-.51-.53-.68c-.23-.16-.48-.25-.78-.25s-.55.08-.78.25c-.23.16-.41.39-.53.68s-.19.62-.19.98.06.7.19.99.31.51.54.67c.23.16.49.25.79.25Z" fill="#231f20"/>
        <path d="M259.39,141.59v-4.9h.6v4.9h-.6Z" fill="#231f20"/>
        <path d="M262.89,141.68c-.41,0-.77-.11-1.08-.33-.32-.22-.56-.52-.74-.9-.18-.38-.27-.82-.27-1.31s.09-.93.27-1.31c.18-.38.42-.68.74-.9.31-.22.67-.33,1.08-.33.26,0,.52.05.76.16.24.11.45.26.64.46.19.19.33.42.44.68l-.54.28c-.08-.19-.18-.36-.32-.5-.13-.14-.29-.25-.45-.33-.17-.08-.34-.12-.53-.12-.28,0-.54.08-.76.25-.22.16-.4.39-.52.67s-.19.61-.19.99.06.71.19.99c.13.29.3.51.53.68.23.16.48.24.77.24.19,0,.36-.04.53-.13.17-.09.32-.21.45-.36.13-.15.24-.33.32-.52l.54.27c-.1.27-.25.5-.43.71-.19.21-.4.37-.64.48-.24.11-.5.17-.76.17Z" fill="#231f20"/>
        <path d="M265.47,141.59v-4.9h2.56v.63h-1.97v1.46h1.77v.62h-1.77v1.57h1.98v.63h-2.58Z" fill="#231f20"/>
      </g>
    </g>
    <g isolation="isolate">
      <g>
        <path d="M251.53,213.59v-4.9h1.37c.29,0,.54.05.75.15s.37.25.49.46c.12.2.17.45.17.74,0,.22-.04.42-.14.6-.09.18-.22.32-.38.43.21.12.37.27.48.47.11.2.17.43.17.7,0,.29-.06.53-.17.73-.11.2-.27.36-.47.46-.2.11-.45.16-.73.16h-1.55ZM252.12,210.8h.88c.22,0,.39-.07.52-.2s.19-.32.19-.56-.07-.44-.22-.57c-.15-.13-.35-.2-.62-.2h-.75v1.53ZM252.12,212.97h.92c.25,0,.45-.07.59-.21.14-.14.21-.32.21-.56,0-.26-.08-.46-.24-.61-.16-.14-.38-.21-.67-.21h-.8v1.58Z" fill="#231f20"/>
        <path d="M254.76,213.59l1.72-4.9h.64l1.72,4.9h-.64l-.46-1.31h-1.88l-.46,1.31h-.64ZM256.07,211.67h1.47l-.73-2.11-.74,2.11Z" fill="#231f20"/>
        <path d="M259.43,213.59v-4.9h.62l2.41,3.75v-3.75h.6v4.9h-.6l-2.43-3.79v3.79h-.6Z" fill="#231f20"/>
        <path d="M264.15,213.59v-4.9h.58v2.17l1.81-2.17h.76l-1.82,2.21,1.9,2.7h-.74l-1.56-2.22-.35.43v1.79h-.58Z" fill="#231f20"/>
      </g>
    </g>
    <rect x="12" y="34.95" width="263.62" height="85.04" rx="8" ry="8" fill="#1a1a2e" stroke="#8a8a8a" stroke-dasharray="4 3" stroke-width=".6"/>
    <line x1="115.2" y1="345.59" x2="115.2" y2="302.39" fill="none" stroke="#b2b2b2" stroke-miterlimit="11.34" stroke-width=".5"/>
    <g isolation="isolate">
      <g>
        <path d="M148.2,328.79v-4.9h1.51c.47,0,.88.1,1.24.31.36.21.64.5.85.87.21.37.31.79.31,1.27s-.1.9-.31,1.27c-.21.37-.49.66-.85.87s-.78.32-1.24.32h-1.51ZM148.89,328.15h.83c.24,0,.46-.05.66-.14.21-.09.39-.22.54-.38.16-.17.28-.36.36-.58.09-.22.13-.46.13-.71s-.04-.49-.13-.71c-.09-.22-.21-.41-.36-.58s-.34-.29-.54-.38c-.21-.09-.43-.14-.66-.14h-.83v3.61Z" fill="#231f20"/>
        <path d="M153.04,328.79v-4.9h2.95v.63h-2.26v1.46h2.04v.62h-2.04v1.57h2.27v.63h-2.96Z" fill="#231f20"/>
        <path d="M157.18,328.79v-4.9h.69v4.27h2.27v.63h-2.96Z" fill="#231f20"/>
        <path d="M160.28,328.79l1.97-4.9h.74l1.97,4.9h-.73l-.53-1.31h-2.16l-.53,1.31h-.74ZM161.78,326.87h1.69l-.84-2.11-.85,2.11Z" fill="#231f20"/>
        <path d="M166.72,328.79v-2.05l-1.75-2.85h.79l1.3,2.14,1.3-2.14h.8l-1.75,2.84v2.06h-.69Z" fill="#231f20"/>
      </g>
    </g>
    <line x1="201.6" y1="345.59" x2="201.6" y2="302.39" fill="none" stroke="#b2b2b2" stroke-miterlimit="11.34" stroke-width=".5"/>
    <line x1="72" y1="345.59" x2="72" y2="302.39" fill="none" stroke="#b2b2b2" stroke-miterlimit="11.34" stroke-width=".5"/>
    <g isolation="isolate">
      <g>
        <path d="M252.59,328.79v-4.9h2.95v.63h-2.26v1.46h2.04v.62h-2.04v1.57h2.28v.63h-2.96Z" fill="#fff"/>
        <path d="M256.73,328.79v-4.9h.71l2.77,3.75v-3.75h.69v4.9h-.69l-2.79-3.79v3.79h-.69Z" fill="#fff"/>
        <path d="M263.6,328.79l-2.01-4.9h.74l1.65,4.1,1.66-4.1h.73l-2.01,4.9h-.76Z" fill="#fff"/>
      </g>
    </g>
  </g>
</svg>