<?xml version="1.0" encoding="UTF-8"?>
<svg xmlns="http://www.w3.org/2000/svg" width="50.8mm" height="128.5mm" viewBox="0 0 144 364.25">
  <g id="Background">
    <rect y="0" width="144" height="364.25" fill="#f0f0f0"/>
  </g>
  <g id="UI">
    <g>
      <path id="path12" d="M96.19,22.21h1.2v-1.2h1.2v2.4h1.2v-3.6h1.2v4.8h1.2v-6h1.2v6h1.2v-3.6h1.2v2.4h1.2v-1.2h1.2" fill="none" stroke="#b2b2b2" stroke-linecap="round" stroke-linejoin="round" stroke-width=".5"/>
      <path id="path13" d="M109.96,24.61l3.6-6c0,1.31,1.01,3.6,2.4,3.6h4.8l1.2,2.4" fill="none" stroke="#b2b2b2" stroke-linecap="square" stroke-linejoin="bevel" stroke-width=".5"/>
      <path id="path17" d="M126,18.61h-1.2v7.2h1.2" fill="none" stroke="#b2b2b2" stroke-linecap="square" stroke-linejoin="bevel" stroke-width=".5"/>
      <path id="path18" d="M135.6,18.61h1.2v7.2h-1.2" fill="none" stroke="#b2b2b2" stroke-linecap="square" stroke-linejoin="bevel" stroke-width=".5"/>
      <path id="path21" d="M127.2,19.25l2.4,2.4" fill="none" stroke="#b2b2b2" stroke-linejoin="bevel" stroke-width=".5"/>
      <path id="path22" d="M129.6,19.25l-2.4,2.4" fill="none" stroke="#b2b2b2" stroke-linejoin="bevel" stroke-width=".5"/>
      <path id="path23-5" d="M127.2,22.85l2.4,2.4" fill="none" stroke="#b2b2b2" stroke-linejoin="bevel" stroke-width=".5"/>
      <path id="path24" d="M127.2,25.25l2.4-2.4" fill="none" stroke="#b2b2b2" stroke-linejoin="bevel" stroke-width=".5"/>
      <path id="path25-3" d="M132,19.25l2.4,2.4" fill="none" stroke="#b2b2b2" stroke-linejoin="bevel" stroke-width=".5"/>
      <path id="path26-7" d="M134.4,19.25l-2.4,2.4" fill="none" stroke="#b2b2b2" stroke-linejoin="bevel" stroke-width=".5"/>
      <rect id="rect26" x="132" y="22.85" width="2.4" height="2.4" fill="none" stroke="#b2b2b2" stroke-linejoin="bevel" stroke-width=".5"/>
    </g>
  </g>
  <g id="Text">
    <g>
      <rect x="7.2" y="16.21" width="55.2" height="12" fill="none"/>
      <path d="M10.78,25.47c-.65,0-1.22-.14-1.72-.42s-.89-.66-1.17-1.15c-.28-.49-.42-1.05-.42-1.68s.14-1.2.42-1.69c.28-.49.67-.87,1.17-1.15.49-.28,1.06-.42,1.71-.42s1.21.14,1.71.42c.5.28.88.66,1.17,1.15.28.49.42,1.05.42,1.69s-.14,1.19-.42,1.68c-.28.49-.66.87-1.16,1.15s-1.06.42-1.7.42ZM10.78,24.14c.35,0,.67-.08.94-.24.27-.16.48-.39.63-.68s.22-.62.22-.99-.08-.71-.23-1-.37-.52-.64-.68-.58-.25-.94-.25-.67.08-.94.25-.48.39-.64.68c-.16.29-.23.62-.23.99s.08.71.23,1c.15.29.37.52.65.68.28.16.59.24.95.24Z" fill="#231f20"/>
      <path d="M14.71,25.36v-6.3h2.47c.46,0,.86.09,1.21.27.36.18.63.44.83.76.2.32.3.7.3,1.12s-.1.79-.29,1.12-.47.58-.81.77c-.35.19-.75.28-1.2.28h-1.07v1.99h-1.45ZM16.16,22.04h1.04c.26,0,.46-.08.62-.23.16-.15.23-.35.23-.6s-.08-.45-.25-.6c-.17-.15-.38-.23-.65-.23h-.99v1.66Z" fill="#231f20"/>
      <path d="M20.02,25.36v-6.3h4.1v1.33h-2.65v1.15h2.22v1.29h-2.22v1.2h2.7v1.33h-4.15Z" fill="#231f20"/>
      <path d="M25.07,25.36v-6.3h2.47c.46,0,.86.09,1.21.27.36.18.63.42.83.74.2.32.3.68.3,1.08s-.11.78-.32,1.1-.5.57-.85.73l1.42,2.38h-1.66l-1.21-2.12h-.77v2.12h-1.45ZM26.52,21.92h.98c.17,0,.32-.03.45-.1.13-.07.23-.16.31-.27.07-.12.11-.25.11-.39,0-.22-.08-.41-.25-.55-.17-.14-.38-.22-.65-.22h-.95v1.53Z" fill="#231f20"/>
      <path d="M30.27,25.36l2.45-6.3h1.55l2.45,6.3h-1.53l-.46-1.2h-2.47l-.46,1.2h-1.53ZM32.72,22.89h1.52l-.76-2.02-.76,2.02Z" fill="#231f20"/>
      <path d="M37.96,25.36v-4.97h-1.84v-1.33h5.11v1.33h-1.84v4.97h-1.44Z" fill="#231f20"/>
      <path d="M44.73,25.47c-.65,0-1.22-.14-1.72-.42s-.89-.66-1.17-1.15c-.28-.49-.42-1.05-.42-1.68s.14-1.2.42-1.69c.28-.49.67-.87,1.16-1.15.5-.28,1.06-.42,1.71-.42s1.21.14,1.71.42c.49.28.88.66,1.16,1.15.28.49.42,1.05.42,1.69s-.14,1.19-.42,1.68c-.28.49-.66.87-1.16,1.15s-1.06.42-1.7.42ZM44.73,24.14c.35,0,.67-.08.94-.24s.48-.39.63-.68c.15-.29.22-.62.22-.99s-.08-.71-.23-1-.37-.52-.64-.68-.58-.25-.94-.25-.67.08-.94.25c-.27.17-.48.39-.64.68s-.23.62-.23.99.08.71.23,1,.37.52.65.68.59.24.95.24Z" fill="#231f20"/>
      <path d="M48.66,25.36v-6.3h2.47c.46,0,.86.09,1.21.27.36.18.63.42.83.74.2.32.3.68.3,1.08s-.11.78-.32,1.1-.5.57-.85.73l1.42,2.38h-1.66l-1.21-2.12h-.77v2.12h-1.45ZM50.11,21.92h.98c.17,0,.32-.03.45-.1.13-.07.23-.16.31-.27.07-.12.11-.25.11-.39,0-.22-.08-.41-.25-.55-.17-.14-.38-.22-.65-.22h-.95v1.53Z" fill="#231f20"/>
    </g>
  </g>
  <g id="Layer_8" data-name="Layer 8">
    <rect x="108" y="228.31" width="28.8" height="131.1" rx="3" ry="3" fill="#2a2a2a"/>
  </g>
  <g id="Layer_10" data-name="Layer 10">
    <line x1="21.6" y1="301.81" x2="21.6" y2="258.61" fill="none" stroke="#b2b2b2" stroke-miterlimit="11.34" stroke-width=".5"/>
    <line x1="52.8" y1="301.81" x2="52.8" y2="258.61" fill="none" stroke="#b2b2b2" stroke-miterlimit="11.34" stroke-width=".5"/>
    <line x1="84" y1="301.81" x2="84" y2="258.61" fill="none" stroke="#b2b2b2" stroke-miterlimit="11.34" stroke-width=".5"/>
    <rect x="6.8" y="34.02" width="130.39" height="119.15" rx="8" ry="8" fill="#1a1a2e" stroke="#8a8a8a" stroke-dasharray="4 3" stroke-width=".6"/>
    <g isolation="isolate">
      <g>
        <path d="M12.6,328.21l-2.01-4.9h.73l1.65,4.1,1.66-4.1h.74l-2.01,4.9h-.76Z" fill="#231f20"/>
        <path d="M15.54,328.8l1.93-5.82h.66l-1.92,5.82h-.68Z" fill="#231f20"/>
        <path d="M20.98,328.3c-.48,0-.9-.11-1.27-.32-.37-.21-.66-.51-.86-.9s-.31-.82-.31-1.31.1-.94.31-1.32c.21-.38.49-.68.86-.9.36-.22.78-.33,1.26-.33s.9.11,1.26.33c.36.22.65.52.85.9.21.38.31.82.31,1.31s-.1.93-.31,1.32-.49.68-.85.9c-.36.21-.78.32-1.25.32ZM20.99,327.67c.33,0,.63-.08.88-.25.26-.16.46-.39.6-.67.14-.29.22-.61.22-.99s-.07-.7-.22-.98-.35-.51-.61-.68c-.26-.16-.56-.24-.89-.24s-.63.08-.9.24c-.26.16-.46.39-.61.68s-.22.62-.22.98.08.7.22.99c.15.28.36.51.62.67.26.16.57.25.91.25Z" fill="#231f20"/>
        <path d="M26.4,328.3c-.47,0-.88-.11-1.25-.33-.36-.22-.65-.52-.85-.9-.21-.38-.31-.82-.31-1.31s.1-.93.31-1.31c.21-.38.49-.68.85-.9.36-.22.77-.33,1.24-.33.3,0,.59.06.87.17s.52.26.74.46c.22.19.38.42.5.67l-.62.28c-.09-.19-.21-.36-.36-.5-.15-.14-.33-.25-.52-.33-.19-.08-.4-.12-.61-.12-.33,0-.62.08-.88.24-.26.16-.46.39-.6.67-.14.28-.22.61-.22.99s.07.71.22.99.35.51.61.68c.26.16.55.24.89.24.21,0,.42-.04.61-.13.19-.09.36-.21.51-.36.15-.15.27-.33.37-.52l.62.27c-.12.27-.28.5-.5.71-.21.21-.46.37-.74.48-.28.11-.57.17-.88.17Z" fill="#231f20"/>
        <path d="M30.36,328.21v-4.27h-1.53v-.63h3.76v.63h-1.53v4.27h-.69Z" fill="#231f20"/>
      </g>
    </g>
    <g isolation="isolate">
      <g>
        <path d="M46.69,328.3c-.49,0-.93-.11-1.32-.33-.38-.22-.69-.52-.9-.9-.22-.38-.33-.82-.33-1.31s.11-.94.33-1.32c.22-.38.52-.68.9-.9.39-.22.83-.33,1.32-.33.27,0,.53.04.78.13.25.09.48.21.68.36.2.15.37.33.49.52l-.55.36c-.09-.14-.21-.27-.36-.38s-.31-.2-.49-.26c-.18-.06-.36-.09-.54-.09-.36,0-.68.08-.96.24-.28.16-.5.39-.65.67-.16.28-.24.62-.24.99s.08.7.23.98c.16.28.38.51.66.67s.61.25.97.25c.29,0,.55-.06.78-.18s.41-.28.54-.5c.13-.21.2-.46.21-.74h-1.18v-.57h1.86v.5c0,.42-.1.8-.29,1.11s-.45.56-.78.74-.71.26-1.14.26Z" fill="#231f20"/>
        <path d="M49.12,328.21l1.97-4.9h.74l1.97,4.9h-.74l-.53-1.31h-2.16l-.53,1.31h-.73ZM50.61,326.29h1.69l-.84-2.11-.85,2.11Z" fill="#231f20"/>
        <path d="M55.32,328.21v-4.27h-1.53v-.63h3.76v.63h-1.53v4.27h-.69Z" fill="#231f20"/>
        <path d="M58.25,328.21v-4.9h2.95v.63h-2.26v1.46h2.04v.62h-2.04v1.57h2.28v.63h-2.96Z" fill="#231f20"/>
      </g>
    </g>
    <g isolation="isolate">
      <g>
        <path d="M79.72,328.21l-2.01-4.9h.73l1.65,4.1,1.66-4.1h.74l-2.01,4.9h-.76Z" fill="#231f20"/>
        <path d="M83.17,328.21v-4.9h2.95v.63h-2.26v1.46h2.04v.62h-2.04v1.57h2.28v.63h-2.96Z" fill="#231f20"/>
        <path d="M87.31,328.21v-4.9h.69v4.27h2.27v.63h-2.96Z" fill="#231f20"/>
      </g>
    </g>
    <g isolation="isolate">
      <g>
        <path d="M45.21,244.21v-4.27h-1.53v-.63h3.76v.63h-1.53v4.27h-.69Z" fill="#231f20"/>
        <path d="M49.97,244.32c-.38,0-.71-.08-1-.24s-.51-.38-.67-.66-.24-.61-.24-.98v-3.14h.69v3.14c0,.24.05.46.16.64s.25.33.43.43c.18.1.4.15.64.15s.46-.05.64-.15c.19-.1.33-.25.43-.43s.15-.4.15-.64v-3.14h.69v3.14c0,.37-.08.69-.24.98s-.39.5-.68.66c-.29.16-.63.24-1.02.24Z" fill="#231f20"/>
        <path d="M53.08,244.21v-4.9h.71l2.77,3.75v-3.75h.69v4.9h-.69l-2.79-3.79v3.79h-.69Z" fill="#231f20"/>
        <path d="M58.5,244.21v-4.9h2.95v.63h-2.26v1.46h2.04v.62h-2.04v1.57h2.28v.63h-2.96Z" fill="#231f20"/>
      </g>
    </g>
    <g isolation="isolate">
      <g>
        <path d="M72.07,244.21v-4.9h1.58c.34,0,.62.05.86.15s.43.25.56.46c.13.2.2.45.2.74,0,.22-.05.42-.16.6-.1.17-.25.32-.44.43.24.12.43.27.56.47.13.2.19.43.19.7s-.06.53-.19.73-.31.36-.54.46c-.23.1-.51.16-.84.16h-1.78ZM72.75,241.42h1.01c.25,0,.45-.07.6-.2.15-.13.22-.32.22-.56s-.08-.44-.25-.57c-.17-.13-.4-.2-.71-.2h-.87v1.53ZM72.75,243.59h1.06c.29,0,.51-.07.68-.21.16-.14.24-.32.24-.56,0-.26-.09-.46-.28-.61-.18-.14-.44-.21-.77-.21h-.92v1.58Z" fill="#231f20"/>
        <path d="M76.35,244.21v-4.9h1.65c.33,0,.61.06.86.19.25.13.45.31.59.53.14.23.21.49.21.79,0,.32-.09.6-.27.85-.18.24-.42.42-.71.53l1.18,2.01h-.78l-1.09-1.88h-.96v1.88h-.69ZM77.04,241.71h1.03c.17,0,.32-.04.45-.12.13-.08.24-.18.32-.32s.12-.28.12-.45c0-.26-.09-.47-.27-.64-.18-.16-.42-.24-.71-.24h-.95v1.76Z" fill="#231f20"/>
        <path d="M80.77,244.21v-4.9h.69v4.9h-.69Z" fill="#231f20"/>
        <path d="M84.92,244.3c-.5,0-.93-.11-1.32-.33-.38-.22-.69-.52-.9-.9-.22-.38-.33-.82-.33-1.31s.11-.94.33-1.32c.22-.38.52-.68.9-.9.38-.22.82-.33,1.32-.33.27,0,.53.04.78.13s.48.21.68.36c.2.15.37.33.49.52l-.55.36c-.09-.14-.21-.27-.36-.38-.15-.11-.31-.2-.49-.26-.18-.06-.36-.09-.54-.09-.36,0-.68.08-.96.24-.28.16-.5.39-.65.67-.16.28-.24.62-.24.99s.08.7.23.98c.16.28.38.51.66.67.28.16.61.25.97.25.29,0,.55-.06.78-.18.23-.12.41-.28.54-.5.13-.21.2-.46.21-.74h-1.18v-.57h1.86v.5c0,.42-.1.8-.29,1.11-.19.32-.45.56-.78.74-.33.17-.71.26-1.14.26Z" fill="#231f20"/>
        <path d="M87.99,244.21v-4.9h.69v2.07h2.64v-2.07h.69v4.9h-.69v-2.21h-2.64v2.21h-.69Z" fill="#231f20"/>
        <path d="M94.24,244.21v-4.27h-1.53v-.63h3.76v.63h-1.53v4.27h-.69Z" fill="#231f20"/>
      </g>
    </g>
    <g isolation="isolate">
      <g>
        <path d="M13.76,244.21v-4.9h2.97v.63h-2.28v1.54h1.99v.63h-1.99v2.1h-.69Z" fill="#231f20"/>
        <path d="M17.58,244.21v-4.9h2.95v.63h-2.26v1.46h2.04v.62h-2.04v1.57h2.27v.63h-2.96Z" fill="#231f20"/>
        <path d="M21.72,244.21v-4.9h2.95v.63h-2.26v1.46h2.04v.62h-2.04v1.57h2.27v.63h-2.96Z" fill="#231f20"/>
        <path d="M25.85,244.21v-4.9h1.51c.47,0,.88.1,1.24.31.36.21.64.5.85.87.21.37.31.79.31,1.27s-.1.9-.31,1.27c-.21.37-.49.66-.85.87-.36.21-.78.32-1.24.32h-1.51ZM26.54,243.57h.83c.24,0,.46-.05.67-.14s.39-.22.54-.38c.16-.17.28-.36.36-.58.09-.22.13-.46.13-.71s-.04-.49-.13-.71c-.09-.22-.21-.41-.36-.58s-.34-.29-.54-.38c-.21-.09-.43-.14-.67-.14h-.83v3.61Z" fill="#231f20"/>
      </g>
    </g>
    <line x1="21.6" y1="220.21" x2="21.6" y2="181.81" fill="none" stroke="#b2b2b2" stroke-miterlimit="11.34" stroke-width=".5"/>
    <line x1="84" y1="220.21" x2="84" y2="181.81" fill="none" stroke="#b2b2b2" stroke-miterlimit="11.34" stroke-width=".5"/>
    <g isolation="isolate">
      <g>
        <path d="M75.35,167.41l-2.01-4.9h.74l1.65,4.1,1.66-4.1h.74l-2.01,4.9h-.76Z" fill="#231f20"/>
        <path d="M80.89,167.5c-.48,0-.9-.11-1.27-.32-.37-.21-.66-.51-.86-.9s-.31-.82-.31-1.31.1-.94.31-1.32c.21-.38.49-.68.86-.9.36-.22.78-.33,1.26-.33s.9.11,1.26.33c.36.22.65.52.85.9.21.38.31.82.31,1.31s-.1.93-.31,1.32-.49.68-.85.9c-.36.21-.78.32-1.25.32ZM80.9,166.87c.33,0,.63-.08.88-.25.26-.16.46-.39.6-.67.14-.29.22-.61.22-.99s-.07-.7-.22-.98-.35-.51-.61-.68c-.26-.16-.56-.24-.89-.24s-.63.08-.9.24c-.26.16-.46.39-.61.68s-.22.62-.22.98.08.7.22.99c.15.28.36.51.62.67.26.16.57.25.91.25Z" fill="#231f20"/>
        <path d="M84.22,167.41v-4.9h.69v4.9h-.69Z" fill="#231f20"/>
        <path d="M88.24,167.5c-.47,0-.88-.11-1.25-.33-.36-.22-.65-.52-.85-.9-.21-.38-.31-.82-.31-1.31s.1-.93.31-1.31c.21-.38.49-.68.85-.9.36-.22.77-.33,1.24-.33.3,0,.59.06.87.17s.52.26.74.46c.22.19.38.42.5.67l-.62.28c-.09-.19-.21-.36-.36-.5-.15-.14-.33-.25-.52-.33-.19-.08-.4-.12-.61-.12-.33,0-.62.08-.88.24-.26.16-.46.39-.6.67-.14.28-.22.61-.22.99s.07.71.22.99c.15.29.35.51.61.68s.55.24.89.24c.21,0,.42-.04.61-.13.19-.09.36-.21.51-.36.15-.15.27-.33.37-.52l.62.27c-.12.27-.28.5-.5.71-.21.21-.46.37-.74.48s-.57.17-.88.17Z" fill="#231f20"/>
        <path d="M91.21,167.41v-4.9h2.95v.63h-2.26v1.46h2.04v.62h-2.04v1.57h2.28v.63h-2.96Z" fill="#231f20"/>
      </g>
    </g>
    <g isolation="isolate">
      <g>
        <path d="M12.78,167.41v-4.9h1.58c.34,0,.62.05.86.15s.43.25.56.46c.13.2.2.45.2.74,0,.22-.05.42-.16.6-.1.17-.25.32-.44.43.24.12.43.27.56.47.13.2.19.43.19.7s-.06.53-.19.73-.31.36-.54.46c-.23.1-.51.16-.84.16h-1.78ZM13.46,164.62h1.01c.25,0,.45-.07.6-.2.15-.13.22-.32.22-.56s-.08-.44-.25-.57c-.17-.13-.4-.2-.71-.2h-.87v1.53ZM13.46,166.79h1.06c.29,0,.51-.07.68-.21.16-.14.24-.32.24-.56,0-.26-.09-.46-.28-.61-.18-.14-.44-.21-.77-.21h-.92v1.58Z" fill="#231f20"/>
        <path d="M16.5,167.41l1.97-4.9h.73l1.97,4.9h-.73l-.53-1.31h-2.16l-.53,1.31h-.74ZM18,165.49h1.69l-.84-2.11-.85,2.11Z" fill="#231f20"/>
        <path d="M21.87,167.41v-4.9h.71l2.77,3.75v-3.75h.69v4.9h-.69l-2.79-3.79v3.79h-.69Z" fill="#231f20"/>
        <path d="M27.29,167.41v-4.9h.67v2.17l2.08-2.17h.88l-2.09,2.21,2.18,2.7h-.85l-1.79-2.22-.41.43v1.79h-.67Z" fill="#231f20"/>
      </g>
    </g>
    <g isolation="isolate">
      <g>
        <path d="M115.79,241.81v-4.9h2.95v.63h-2.26v1.46h2.04v.62h-2.04v1.57h2.28v.63h-2.96Z" fill="#fff"/>
        <path d="M119.93,241.81v-4.9h.71l2.77,3.75v-3.75h.69v4.9h-.69l-2.79-3.79v3.79h-.69Z" fill="#fff"/>
        <path d="M126.8,241.81l-2.01-4.9h.73l1.65,4.1,1.66-4.1h.74l-2.01,4.9h-.76Z" fill="#fff"/>
      </g>
    </g>
    <g isolation="isolate">
      <g>
        <path d="M116.76,285.01l-2.01-4.9h.73l1.65,4.1,1.66-4.1h.74l-2.01,4.9h-.76Z" fill="#fff"/>
        <path d="M122.31,285.1c-.47,0-.88-.11-1.25-.33-.36-.22-.65-.52-.85-.9-.21-.38-.31-.82-.31-1.31s.1-.93.31-1.31c.21-.38.49-.68.85-.9.36-.22.77-.33,1.24-.33.3,0,.59.06.87.17s.52.26.74.46c.22.19.38.42.5.67l-.62.28c-.09-.19-.21-.36-.36-.5-.15-.14-.33-.25-.52-.33-.19-.08-.4-.12-.61-.12-.33,0-.62.08-.88.24-.26.16-.46.39-.6.67-.14.28-.22.61-.22.99s.07.71.22.99.35.51.61.68c.26.16.55.24.89.24.21,0,.42-.04.61-.13.19-.09.36-.21.51-.36.15-.15.27-.33.37-.52l.62.27c-.12.27-.28.5-.5.71-.21.21-.46.37-.74.48-.28.11-.57.17-.88.17Z" fill="#fff"/>
        <path d="M127.4,285.1c-.48,0-.9-.11-1.27-.32-.37-.21-.66-.51-.87-.9-.21-.38-.31-.82-.31-1.31s.1-.94.31-1.32c.21-.38.49-.68.86-.9.36-.22.78-.33,1.26-.33s.9.11,1.26.33c.36.22.65.52.85.9.21.38.31.82.31,1.31s-.1.93-.31,1.32-.49.68-.85.9c-.36.21-.78.32-1.25.32ZM127.4,284.47c.33,0,.63-.08.88-.25.26-.16.46-.39.6-.67.14-.29.22-.61.22-.99s-.07-.7-.22-.98c-.15-.29-.35-.51-.61-.68-.26-.16-.56-.24-.89-.24s-.63.08-.9.24c-.26.16-.47.39-.61.68-.15.29-.22.62-.22.98s.08.7.22.99c.15.28.36.51.62.67s.57.25.91.25Z" fill="#fff"/>
      </g>
    </g>
    <g isolation="isolate">
      <g>
        <path d="M117.09,328.21l-2.01-4.9h.74l1.65,4.1,1.66-4.1h.73l-2.01,4.9h-.76Z" fill="#fff"/>
        <path d="M122.63,328.3c-.47,0-.88-.11-1.25-.33-.36-.22-.65-.52-.85-.9-.21-.38-.31-.82-.31-1.31s.1-.93.31-1.31c.21-.38.49-.68.85-.9.36-.22.77-.33,1.24-.33.3,0,.59.06.87.17s.52.26.74.46c.22.19.38.42.5.67l-.62.28c-.09-.19-.21-.36-.36-.5-.15-.14-.33-.25-.52-.33-.19-.08-.4-.12-.61-.12-.33,0-.62.08-.88.24-.26.16-.46.39-.6.67-.14.28-.22.61-.22.99s.07.71.22.99c.15.29.35.51.61.68s.55.24.89.24c.21,0,.42-.04.61-.13.19-.09.36-.21.51-.36.15-.15.27-.33.37-.52l.62.27c-.12.27-.28.5-.5.71-.21.21-.46.37-.74.48s-.57.17-.88.17Z" fill="#fff"/>
        <path d="M125.04,328.21l1.97-4.9h.73l1.97,4.9h-.73l-.53-1.31h-2.16l-.53,1.31h-.74ZM126.54,326.29h1.69l-.84-2.11-.85,2.11Z" fill="#fff"/>
      </g>
    </g>
    <polyline points="50.4 177.01 45.6 181.81 50.4 186.61" fill="none" stroke="#9e9e9e" stroke-miterlimit="11.34"/>
    <polyline points="117.6 186.61 122.4 181.81 117.6 177.01" fill="none" stroke="#9e9e9e" stroke-miterlimit="11.34"/>
  </g>
</svg>