<?xml version="1.0" encoding="UTF-8"?>
<svg xmlns="http://www.w3.org/2000/svg" width="81.28mm" height="128.5mm" viewBox="0 0 230.4 364.25">
  <g id="Background">
    <rect width="230.4" height="364.25" fill="#f0f0f0"/>
  </g>
  <g id="UI">
    <g>
      <path id="path12" d="M175.39,22.53h1.2v-1.2h1.2v2.4h1.2v-3.6h1.2v4.8h1.2v-6h1.2v6h1.2v-3.6h1.2v2.4h1.2v-1.2h1.2" fill="none" stroke="#b2b2b2" stroke-linecap="round" stroke-linejoin="round" stroke-width=".5"/>
      <path id="path13" d="M189.16,24.93l3.6-6c0,1.31,1.01,3.6,2.4,3.6h4.8l1.2,2.4" fill="none" stroke="#b2b2b2" stroke-linecap="square" stroke-linejoin="bevel" stroke-width=".5"/>
      <path id="path17" d="M205.2,18.93h-1.2v7.2h1.2" fill="none" stroke="#b2b2b2" stroke-linecap="square" stroke-linejoin="bevel" stroke-width=".5"/>
      <path id="path18" d="M214.8,18.93h1.2v7.2h-1.2" fill="none" stroke="#b2b2b2" stroke-linecap="square" stroke-linejoin="bevel" stroke-width=".5"/>
      <path id="path21" d="M206.4,19.56l2.4,2.4" fill="none" stroke="#b2b2b2" stroke-linejoin="bevel" stroke-width=".5"/>
      <path id="path22" d="M208.8,19.56l-2.4,2.4" fill="none" stroke="#b2b2b2" stroke-linejoin="bevel" stroke-width=".5"/>
      <path id="path23-5" d="M206.4,23.16l2.4,2.4" fill="none" stroke="#b2b2b2" stroke-linejoin="bevel" stroke-width=".5"/>
      <path id="path24" d="M206.4,25.56l2.4-2.4" fill="none" stroke="#b2b2b2" stroke-linejoin="bevel" stroke-width=".5"/>
      <path id="path25-3" d="M211.2,19.56l2.4,2.4" fill="none" stroke="#b2b2b2" stroke-linejoin="bevel" stroke-width=".5"/>
      <path id="path26-7" d="M213.6,19.56l-2.4,2.4" fill="none" stroke="#b2b2b2" stroke-linejoin="bevel" stroke-width=".5"/>
      <rect id="rect26" x="211.2" y="23.16" width="2.4" height="2.4" fill="none" stroke="#b2b2b2" stroke-linejoin="bevel" stroke-width=".5"/>
    </g>
  </g>
  <g id="Layer_10" data-name="Layer 10">
    <rect id="rect48" x="139.2" y="311.72" width="79.2" height="50.4" rx="5.67" ry="5.67"/>
    <path id="path6" d="M28.8,230.13h43.2" fill="none" stroke="#b2b2b2" stroke-miterlimit="11.34" stroke-width=".87"/>
    <path id="path6-2" data-name="path6" d="M28.8,287.73h43.2" fill="none" stroke="#b2b2b2" stroke-miterlimit="11.34" stroke-width=".87"/>
    <rect x="11.34" y="34.02" width="206.93" height="161.58" rx="2.83" ry="2.83" fill="#1a1a2e" stroke="#404060" stroke-width=".85"/>
    <g isolation="isolate">
      <g>
        <path d="M15.01,28.52v-6.3h2.48c.46,0,.86.09,1.21.27.35.18.63.44.83.76.2.32.3.7.3,1.12s-.1.79-.29,1.12c-.2.32-.47.58-.81.77-.35.19-.75.28-1.2.28h-1.07v1.99h-1.45ZM16.46,25.2h1.04c.26,0,.46-.08.62-.23.16-.15.23-.35.23-.6s-.08-.45-.25-.6c-.17-.15-.38-.23-.65-.23h-.99v1.66Z" fill="#231f20"/>
        <path d="M20.31,28.52v-6.3h1.45v4.97h2.68v1.33h-4.13Z" fill="#231f20"/>
        <path d="M24.45,28.52l2.45-6.3h1.55l2.45,6.3h-1.53l-.46-1.2h-2.46l-.46,1.2h-1.53ZM26.91,26.05h1.52l-.76-2.02-.77,2.02Z" fill="#231f20"/>
        <path d="M32.59,28.52v-2.66l-2.22-3.64h1.65l1.3,2.19,1.29-2.19h1.65l-2.21,3.63v2.67h-1.45Z" fill="#231f20"/>
      </g>
    </g>
    <circle cx="28.8" cy="230.12" r="13.33" fill="#9a9aa6"/>
    <g isolation="isolate">
      <g>
        <path d="M10.06,210.93v-4.9h.6v4.9h-.6Z" fill="#231f20"/>
        <path d="M11.74,210.93v-4.9h.61l2.41,3.75v-3.75h.6v4.9h-.6l-2.43-3.79v3.79h-.6Z" fill="#231f20"/>
        <path d="M17.83,211.01c-.23,0-.43-.03-.62-.09-.18-.06-.34-.14-.48-.25-.14-.1-.25-.22-.34-.35-.09-.13-.15-.27-.19-.41l.58-.22c.06.19.18.36.35.5.17.14.38.21.63.22.3,0,.54-.07.71-.21s.26-.32.26-.55c0-.21-.08-.38-.22-.51-.15-.13-.35-.23-.6-.3l-.49-.15c-.2-.06-.37-.15-.53-.26s-.29-.25-.38-.43c-.09-.17-.14-.38-.14-.62,0-.45.13-.8.38-1.05.25-.25.62-.38,1.1-.38.28,0,.52.05.72.15.2.1.37.23.5.4.13.16.23.34.28.54l-.58.22c-.07-.21-.19-.38-.35-.51-.17-.13-.37-.19-.62-.19s-.46.07-.61.21-.22.33-.22.57c0,.21.06.36.17.47.12.11.27.19.47.25l.49.14c.4.11.71.3.92.56.22.26.33.54.33.85,0,.27-.06.51-.17.72-.12.21-.29.38-.51.5-.22.12-.5.19-.83.19Z" fill="#231f20"/>
        <path d="M21.04,210.93v-4.27h-1.33v-.63h3.27v.63h-1.33v4.27h-.6Z" fill="#231f20"/>
        <path d="M23.59,210.93v-4.9h1.44c.28,0,.53.06.75.19.22.13.39.31.51.53.12.23.19.49.19.79,0,.32-.08.6-.24.85-.16.24-.37.42-.62.53l1.03,2.01h-.68l-.95-1.88h-.83v1.88h-.6ZM24.19,208.42h.9c.15,0,.28-.04.39-.12.12-.08.21-.18.28-.32.07-.13.11-.28.11-.45,0-.26-.08-.47-.24-.64-.16-.16-.36-.24-.62-.24h-.82v1.76Z" fill="#231f20"/>
        <path d="M29.03,211.03c-.33,0-.62-.08-.87-.24-.25-.16-.44-.38-.58-.66s-.21-.61-.21-.98v-3.14h.6v3.14c0,.24.05.46.14.64.09.19.22.33.38.43.16.1.35.15.56.15s.4-.05.56-.15c.16-.1.29-.25.38-.43.09-.19.13-.4.13-.64v-3.14h.6v3.14c0,.37-.07.69-.21.98s-.34.5-.59.66c-.25.16-.55.24-.89.24Z" fill="#231f20"/>
        <path d="M31.73,210.93v-4.9h.63l1.41,2.4,1.41-2.4h.63v4.9h-.6v-3.79l-1.45,2.46-1.44-2.45v3.79h-.6Z" fill="#231f20"/>
        <path d="M36.9,210.93v-4.9h2.56v.63h-1.97v1.46h1.77v.62h-1.77v1.57h1.98v.63h-2.58Z" fill="#231f20"/>
        <path d="M40.5,210.93v-4.9h.62l2.41,3.75v-3.75h.6v4.9h-.6l-2.43-3.79v3.79h-.6Z" fill="#231f20"/>
        <path d="M46.08,210.93v-4.27h-1.33v-.63h3.27v.63h-1.33v4.27h-.6Z" fill="#231f20"/>
      </g>
    </g>
    <circle cx="28.8" cy="287.72" r="13.33" fill="#9a9aa6"/>
    <g isolation="isolate">
      <g>
        <path d="M20.42,268.52v-4.9h.6v4.27h1.98v.63h-2.58Z" fill="#231f20"/>
        <path d="M23.61,268.52v-4.9h2.56v.63h-1.97v1.46h1.77v.62h-1.77v1.57h1.98v.63h-2.58Z" fill="#231f20"/>
        <path d="M28.47,268.52l-1.75-4.9h.64l1.44,4.1,1.44-4.1h.64l-1.75,4.9h-.66Z" fill="#231f20"/>
        <path d="M31.48,268.52v-4.9h2.56v.63h-1.97v1.46h1.77v.62h-1.77v1.57h1.98v.63h-2.58Z" fill="#231f20"/>
        <path d="M35.08,268.52v-4.9h.6v4.27h1.98v.63h-2.58Z" fill="#231f20"/>
      </g>
    </g>
    <circle cx="28.8" cy="345.32" r="11.15" fill="#d0595a"/>
    <g>
      <path d="M20.97,328.52l-1.75-4.9h.64l1.44,4.1,1.44-4.1h.64l-1.75,4.9h-.66Z" fill="#231f20"/>
      <path d="M23.53,329.11l1.68-5.82h.58l-1.67,5.82h-.59Z" fill="#231f20"/>
      <path d="M28.26,328.61c-.41,0-.78-.11-1.1-.32-.32-.21-.57-.51-.75-.89s-.27-.82-.27-1.31.09-.94.27-1.32.43-.68.75-.9c.32-.22.68-.33,1.1-.33s.78.11,1.1.33c.32.22.56.52.74.9s.27.82.27,1.31-.09.93-.27,1.32-.43.68-.74.89c-.31.21-.68.32-1.09.32ZM28.27,327.98c.29,0,.54-.08.77-.25.22-.16.4-.39.52-.67.12-.29.19-.61.19-.99s-.06-.7-.19-.98c-.13-.29-.3-.51-.53-.68-.22-.16-.48-.24-.78-.24s-.55.08-.78.24c-.23.16-.41.39-.53.68-.13.29-.19.62-.19.98s.07.7.19.99c.13.29.31.51.54.67.23.16.49.25.79.25Z" fill="#231f20"/>
      <path d="M32.98,328.61c-.41,0-.77-.11-1.08-.32-.32-.22-.56-.52-.74-.9s-.27-.82-.27-1.31.09-.93.27-1.31.42-.68.74-.9.67-.33,1.08-.33c.26,0,.52.06.75.17.24.11.45.26.64.46.19.19.33.42.44.67l-.54.28c-.08-.19-.18-.36-.32-.5-.13-.14-.29-.25-.45-.33s-.34-.12-.53-.12c-.28,0-.54.08-.76.24-.22.16-.4.39-.52.67-.13.28-.19.61-.19.99s.06.71.19.99c.13.29.3.51.53.68.23.16.48.24.77.24.19,0,.36-.04.53-.13s.32-.21.45-.36c.13-.15.24-.32.32-.52l.54.27c-.1.27-.25.5-.43.71-.19.21-.4.37-.64.48-.24.12-.5.17-.76.17Z" fill="#231f20"/>
      <path d="M36.42,328.52v-4.27h-1.33v-.63h3.27v.63h-1.33v4.27h-.6Z" fill="#231f20"/>
    </g>
    <circle cx="72" cy="345.32" r="11.15" fill="#d0595a"/>
    <g>
      <path d="M66.68,328.61c-.43,0-.81-.11-1.15-.33-.33-.22-.6-.52-.79-.9-.19-.38-.28-.82-.28-1.31s.09-.94.28-1.32c.19-.38.45-.68.79-.9.33-.22.72-.33,1.15-.33.24,0,.46.04.68.13.22.09.41.21.59.36.18.15.32.33.43.52l-.48.36c-.08-.14-.19-.27-.32-.38s-.27-.2-.43-.26c-.16-.06-.31-.09-.47-.09-.31,0-.59.08-.83.24-.24.16-.43.39-.57.67-.14.28-.21.62-.21.99s.07.7.2.98c.14.28.33.51.57.67s.53.25.84.25c.25,0,.48-.06.68-.18.2-.12.36-.28.47-.5.12-.21.18-.46.18-.74h-1.03v-.57h1.61v.5c0,.42-.09.8-.25,1.11s-.39.56-.68.74c-.29.17-.62.26-.99.26Z" fill="#231f20"/>
      <path d="M68.79,328.52l1.72-4.9h.64l1.72,4.9h-.64l-.46-1.31h-1.88l-.46,1.31h-.64ZM70.1,326.6h1.47l-.73-2.11-.74,2.11Z" fill="#231f20"/>
      <path d="M74.19,328.52v-4.27h-1.33v-.63h3.27v.63h-1.33v4.27h-.6Z" fill="#231f20"/>
      <path d="M76.74,328.52v-4.9h2.56v.63h-1.97v1.46h1.77v.62h-1.77v1.57h1.98v.63h-2.58Z" fill="#231f20"/>
    </g>
    <circle cx="115.2" cy="345.32" r="11.15" fill="#d0595a"/>
    <g>
      <path d="M102.53,328.52l-1.75-4.9h.64l1.44,4.1,1.44-4.1h.64l-1.75,4.9h-.66Z" fill="#231f20"/>
      <path d="M105.54,328.52v-4.9h2.56v.63h-1.97v1.46h1.77v.62h-1.77v1.57h1.98v.63h-2.58Z" fill="#231f20"/>
      <path d="M109.14,328.52v-4.9h.6v4.27h1.98v.63h-2.58Z" fill="#231f20"/>
      <path d="M114.07,328.61c-.41,0-.78-.11-1.1-.32-.32-.21-.57-.51-.75-.89-.18-.38-.27-.82-.27-1.31s.09-.94.27-1.32c.18-.38.43-.68.75-.9.32-.22.68-.33,1.1-.33s.78.11,1.1.33.56.52.74.9c.18.38.27.82.27,1.31s-.09.93-.27,1.32c-.18.38-.42.68-.74.89-.31.21-.68.32-1.09.32ZM114.08,327.98c.29,0,.54-.08.77-.25.22-.16.4-.39.52-.67.13-.29.19-.61.19-.99s-.06-.7-.19-.98-.3-.51-.53-.68c-.22-.16-.48-.24-.78-.24s-.55.08-.78.24c-.23.16-.41.39-.53.68s-.19.62-.19.98.06.7.19.99.31.51.54.67c.23.16.49.25.79.25Z" fill="#231f20"/>
      <path d="M118.78,328.61c-.41,0-.77-.11-1.08-.32-.32-.22-.56-.52-.74-.9-.18-.38-.27-.82-.27-1.31s.09-.93.27-1.31c.18-.38.42-.68.74-.9s.67-.33,1.08-.33c.26,0,.52.06.75.17.24.11.45.26.64.46.19.19.33.42.44.67l-.54.28c-.08-.19-.18-.36-.32-.5-.13-.14-.29-.25-.45-.33-.17-.08-.34-.12-.53-.12-.29,0-.54.08-.76.24-.22.16-.4.39-.52.67-.13.28-.19.61-.19.99s.06.71.19.99.3.51.53.68c.22.16.48.24.77.24.19,0,.36-.04.53-.13.17-.09.32-.21.45-.36.13-.15.24-.32.32-.52l.54.27c-.1.27-.25.5-.43.71-.19.21-.4.37-.64.48-.24.12-.5.17-.76.17Z" fill="#231f20"/>
      <path d="M121.37,328.52v-4.9h.6v4.9h-.6Z" fill="#231f20"/>
      <path d="M123.91,328.52v-4.27h-1.33v-.63h3.27v.63h-1.33v4.27h-.6Z" fill="#231f20"/>
      <path d="M127.5,328.52v-2.05l-1.52-2.85h.69l1.13,2.14,1.13-2.14h.69l-1.52,2.84v2.06h-.6Z" fill="#231f20"/>
    </g>
    <circle cx="72" cy="230.12" r="11.15" fill="#d0595a"/>
    <circle cx="72" cy="287.72" r="11.15" fill="#d0595a"/>
    <circle cx="158.4" cy="346.18" r="11.15" fill="#e0803f"/>
    <g isolation="isolate">
      <g>
        <path d="M152.18,328.52v-4.9h.6v4.27h1.98v.63h-2.58Z" fill="#fff"/>
        <path d="M155.37,328.52v-4.9h2.56v.63h-1.97v1.46h1.77v.62h-1.77v1.57h1.98v.63h-2.58Z" fill="#fff"/>
        <path d="M158.97,328.52v-4.9h2.58v.63h-1.98v1.54h1.73v.63h-1.73v2.1h-.6Z" fill="#fff"/>
        <path d="M163.16,328.52v-4.27h-1.33v-.63h3.27v.63h-1.33v4.27h-.6Z" fill="#fff"/>
      </g>
    </g>
    <circle cx="201.6" cy="345.32" r="11.15" fill="#e0803f"/>
    <g isolation="isolate">
      <g>
        <path d="M193.08,328.52v-4.9h1.44c.28,0,.53.06.75.19.22.13.39.31.51.53.12.23.19.49.19.79,0,.32-.08.6-.24.85-.16.24-.37.42-.62.53l1.03,2.01h-.68l-.95-1.88h-.83v1.88h-.6ZM193.68,326.02h.9c.15,0,.28-.04.39-.12.12-.08.21-.18.28-.32.07-.13.11-.28.11-.45,0-.26-.08-.47-.24-.64-.16-.16-.36-.24-.62-.24h-.82v1.76Z" fill="#fff"/>
        <path d="M196.93,328.52v-4.9h.6v4.9h-.6Z" fill="#fff"/>
        <path d="M200.54,328.61c-.43,0-.81-.11-1.15-.33-.33-.22-.6-.52-.79-.9-.19-.38-.28-.82-.28-1.31s.09-.94.28-1.32c.19-.38.45-.68.79-.9.33-.22.72-.33,1.15-.33.24,0,.46.04.68.13s.41.21.59.36c.18.15.32.33.43.52l-.48.36c-.08-.14-.19-.27-.32-.38s-.27-.2-.43-.26c-.16-.06-.31-.09-.47-.09-.31,0-.59.08-.83.24-.24.16-.43.39-.57.67-.14.28-.21.62-.21.99s.07.7.2.98c.14.28.33.51.57.67s.53.25.84.25c.25,0,.48-.06.68-.18s.36-.28.47-.5c.12-.21.17-.46.18-.74h-1.03v-.57h1.61v.5c0,.42-.09.8-.25,1.11-.16.32-.39.56-.68.74-.29.17-.62.26-.99.26Z" fill="#fff"/>
        <path d="M203.21,328.52v-4.9h.6v2.07h2.3v-2.07h.6v4.9h-.6v-2.21h-2.3v2.21h-.6Z" fill="#fff"/>
        <path d="M208.65,328.52v-4.27h-1.33v-.63h3.27v.63h-1.33v4.27h-.6Z" fill="#fff"/>
      </g>
    </g>
  </g>
</svg>