<?xml version="1.0" encoding="UTF-8"?>
<svg xmlns="http://www.w3.org/2000/svg" width="81.28mm" height="128.5mm" viewBox="0 0 230.4 364.25">
  <g id="Background">
    <rect width="230.4" height="364.25" fill="#f0f0f0"/>
  </g>
  <g id="UI">
    <g>
      <path id="path12" d="M175.39,23.49h1.2v-1.2h1.2v2.4h1.2v-3.6h1.2v4.8h1.2v-6h1.2v6h1.2v-3.6h1.2v2.4h1.2v-1.2h1.2" fill="none" stroke="#b2b2b2" stroke-linecap="round" stroke-linejoin="round" stroke-width=".5"/>
      <path id="path13" d="M189.16,25.89l3.6-6c0,1.31,1.01,3.6,2.4,3.6h4.8l1.2,2.4" fill="none" stroke="#b2b2b2" stroke-linecap="square" stroke-linejoin="bevel" stroke-width=".5"/>
      <path id="path17" d="M205.2,19.89h-1.2v7.2h1.2" fill="none" stroke="#b2b2b2" stroke-linecap="square" stroke-linejoin="bevel" stroke-width=".5"/>
      <path id="path18" d="M214.8,19.89h1.2v7.2h-1.2" fill="none" stroke="#b2b2b2" stroke-linecap="square" stroke-linejoin="bevel" stroke-width=".5"/>
      <path id="path21" d="M206.4,20.52l2.4,2.4" fill="none" stroke="#b2b2b2" stroke-linejoin="bevel" stroke-width=".5"/>
      <path id="path22" d="M208.8,20.52l-2.4,2.4" fill="none" stroke="#b2b2b2" stroke-linejoin="bevel" stroke-width=".5"/>
      <path id="path23-5" d="M206.4,24.12l2.4,2.4" fill="none" stroke="#b2b2b2" stroke-linejoin="bevel" stroke-width=".5"/>
      <path id="path24" d="M206.4,26.52l2.4-2.4" fill="none" stroke="#b2b2b2" stroke-linejoin="bevel" stroke-width=".5"/>
      <path id="path25-3" d="M211.2,20.52l2.4,2.4" fill="none" stroke="#b2b2b2" stroke-linejoin="bevel" stroke-width=".5"/>
      <path id="path26-7" d="M213.6,20.52l-2.4,2.4" fill="none" stroke="#b2b2b2" stroke-linejoin="bevel" stroke-width=".5"/>
      <rect id="rect26" x="211.2" y="24.12" width="2.4" height="2.4" fill="none" stroke="#b2b2b2" stroke-linejoin="bevel" stroke-width=".5"/>
    </g>
  </g>
  <g id="Layer_10" data-name="Layer 10">
    <line x1="122.4" y1="202.02" x2="122.4" y2="358.29" fill="none" stroke="#b2b2b2" stroke-miterlimit="11.34" stroke-width=".5"/>
    <rect x="11.34" y="34.02" width="206.93" height="161.58" rx="2.83" ry="2.83" fill="#1a1a2e" stroke="#404060" stroke-width=".85"/>
    <g isolation="isolate">
      <g>
        <path d="M15.01,29.49v-6.3h2.48c.46,0,.86.09,1.21.27s.63.42.83.74c.2.32.3.68.3,1.08s-.11.78-.32,1.1c-.21.32-.5.57-.85.73l1.42,2.38h-1.66l-1.21-2.12h-.77v2.12h-1.45ZM16.46,26.04h.98c.17,0,.32-.03.45-.1.13-.07.24-.16.31-.27.07-.12.11-.25.11-.39,0-.22-.08-.41-.25-.55-.17-.14-.38-.22-.65-.22h-.96v1.53Z" fill="#231f20"/>
        <path d="M20.67,29.49v-6.3h4.1v1.33h-2.65v1.15h2.22v1.29h-2.22v1.2h2.7v1.33h-4.15Z" fill="#231f20"/>
        <path d="M28.57,29.6c-.62,0-1.17-.14-1.65-.42s-.85-.66-1.12-1.15c-.27-.49-.41-1.05-.41-1.69s.14-1.2.41-1.69c.27-.49.65-.87,1.12-1.15.48-.28,1.03-.42,1.65-.42.46,0,.87.08,1.25.24.38.16.71.38.99.67s.49.62.64,1l-1.36.46c-.09-.21-.21-.39-.37-.55-.15-.16-.33-.28-.52-.36s-.41-.13-.64-.13c-.33,0-.62.08-.88.24s-.46.39-.6.68c-.14.29-.22.62-.22,1s.07.71.22,1,.35.52.61.68c.26.17.56.25.89.25.25,0,.46-.04.66-.13.19-.09.36-.22.5-.38.14-.16.26-.35.36-.56l1.36.46c-.14.38-.36.72-.64,1.01-.28.29-.62.52-1,.68-.38.16-.81.24-1.27.24Z" fill="#231f20"/>
        <path d="M35.02,29.6c-.65,0-1.22-.14-1.72-.42s-.89-.66-1.17-1.15c-.28-.49-.42-1.05-.42-1.68s.14-1.2.42-1.69c.28-.49.67-.87,1.17-1.15.5-.28,1.06-.42,1.71-.42s1.21.14,1.71.42c.49.28.88.66,1.17,1.15.28.49.42,1.05.42,1.69s-.14,1.19-.42,1.68c-.28.49-.67.87-1.16,1.15-.49.28-1.06.42-1.7.42ZM35.02,28.26c.35,0,.67-.08.94-.24s.48-.39.63-.68.23-.62.23-.99-.08-.71-.23-1-.37-.52-.64-.68c-.27-.17-.58-.25-.94-.25s-.67.08-.94.25c-.27.17-.48.39-.64.68s-.23.62-.23.99.08.71.23,1,.37.52.65.68c.28.16.59.24.95.24Z" fill="#231f20"/>
        <path d="M38.95,29.49v-6.3h2.48c.46,0,.86.09,1.21.27s.63.42.83.74c.2.32.3.68.3,1.08s-.11.78-.32,1.1c-.21.32-.5.57-.85.73l1.42,2.38h-1.66l-1.21-2.12h-.77v2.12h-1.45ZM40.4,26.04h.98c.17,0,.32-.03.45-.1.13-.07.24-.16.31-.27.07-.12.11-.25.11-.39,0-.22-.08-.41-.25-.55-.17-.14-.38-.22-.65-.22h-.96v1.53Z" fill="#231f20"/>
        <path d="M44.61,29.49v-6.3h2.06c.67,0,1.26.13,1.77.41.51.27.91.64,1.2,1.11.29.47.43,1.02.43,1.63s-.14,1.16-.43,1.63c-.29.47-.69.85-1.2,1.12-.51.27-1.1.41-1.77.41h-2.06ZM46.06,28.12h.61c.28,0,.53-.04.77-.13.23-.09.44-.21.61-.37s.31-.35.41-.57c.1-.22.14-.46.14-.72s-.05-.5-.14-.71c-.1-.22-.23-.41-.41-.57s-.38-.28-.61-.37c-.23-.09-.49-.13-.77-.13h-.61v3.56Z" fill="#231f20"/>
      </g>
    </g>
    <g>
      <circle cx="86.4" cy="226.29" r="13.33" fill="#9a9aa6"/>
      <g isolation="isolate">
        <g>
          <path d="M12.41,207.09v-4.9h2.58v.63h-1.99v1.54h1.73v.63h-1.73v2.1h-.6Z" fill="#231f20"/>
          <path d="M15.73,207.09v-4.9h.6v4.9h-.6Z" fill="#231f20"/>
          <path d="M17.41,207.09v-4.9h1.44c.29,0,.54.06.75.19.22.13.39.31.51.53.12.23.19.49.19.79,0,.32-.08.6-.24.85-.16.24-.37.42-.62.53l1.03,2.01h-.68l-.95-1.88h-.83v1.88h-.6ZM18.01,204.58h.89c.15,0,.28-.04.39-.12.12-.08.21-.18.28-.32.07-.13.11-.28.11-.45,0-.26-.08-.47-.24-.64-.16-.16-.36-.24-.62-.24h-.82v1.76Z" fill="#231f20"/>
          <path d="M22.63,207.17c-.23,0-.43-.03-.62-.09-.19-.06-.35-.14-.48-.25-.14-.1-.25-.22-.34-.35-.09-.13-.15-.27-.19-.41l.58-.22c.06.19.18.36.35.5.17.14.38.21.63.22.3,0,.54-.07.71-.21s.26-.32.26-.55c0-.21-.08-.38-.23-.51-.15-.13-.35-.23-.6-.3l-.49-.15c-.19-.06-.37-.15-.53-.26-.16-.11-.29-.25-.38-.43-.09-.17-.14-.38-.14-.62,0-.45.13-.8.38-1.05.25-.25.62-.38,1.1-.38.28,0,.51.05.72.15.2.1.37.23.5.4.13.16.23.34.28.54l-.58.22c-.07-.21-.19-.38-.35-.51-.17-.13-.37-.19-.62-.19-.26,0-.46.07-.61.21-.15.14-.22.33-.22.57,0,.21.06.36.17.47.12.11.27.19.47.25l.49.14c.4.11.71.3.92.56.22.26.33.54.33.85,0,.27-.06.51-.17.72-.12.21-.29.38-.51.5-.23.12-.5.19-.83.19Z" fill="#231f20"/>
          <path d="M25.84,207.09v-4.27h-1.33v-.63h3.27v.63h-1.33v4.27h-.6Z" fill="#231f20"/>
          <path d="M29.88,207.09v-4.9h.62l2.41,3.75v-3.75h.6v4.9h-.6l-2.43-3.79v3.79h-.6Z" fill="#231f20"/>
          <path d="M36.44,207.17c-.41,0-.78-.11-1.1-.32-.32-.21-.57-.51-.75-.9-.18-.38-.27-.82-.27-1.31s.09-.94.27-1.32c.18-.38.43-.68.75-.9.32-.22.68-.33,1.1-.33s.78.11,1.1.33c.32.22.56.52.74.9.18.38.27.82.27,1.31s-.09.93-.27,1.32c-.18.38-.43.68-.74.9-.31.21-.68.32-1.09.32ZM36.45,206.54c.29,0,.54-.08.77-.25s.4-.39.52-.67c.13-.29.19-.61.19-.99s-.06-.7-.19-.98-.3-.51-.53-.68c-.23-.16-.48-.24-.78-.24s-.55.08-.78.24c-.23.16-.4.39-.53.68s-.19.62-.19.98.07.7.2.99c.13.28.31.51.54.67.23.16.49.25.79.25Z" fill="#231f20"/>
          <path d="M40.13,207.09v-4.27h-1.33v-.63h3.27v.63h-1.33v4.27h-.6Z" fill="#231f20"/>
          <path d="M42.68,207.09v-4.9h2.56v.63h-1.97v1.46h1.77v.62h-1.77v1.57h1.98v.63h-2.58Z" fill="#231f20"/>
        </g>
      </g>
      <circle cx="28.8" cy="226.29" r="13.33" fill="#9a9aa6"/>
      <g isolation="isolate">
        <g>
          <path d="M70.84,267.09l-1.75-4.9h.64l1.44,4.1,1.44-4.1h.64l-1.75,4.9h-.66Z" fill="#231f20"/>
          <path d="M73.84,267.09v-4.9h2.56v.63h-1.97v1.46h1.77v.62h-1.77v1.57h1.98v.63h-2.58Z" fill="#231f20"/>
          <path d="M77.44,267.09v-4.9h.6v4.27h1.98v.63h-2.58Z" fill="#231f20"/>
          <path d="M82.12,267.09v-4.9h.6v4.27h1.98v.63h-2.58Z" fill="#231f20"/>
          <path d="M84.82,267.09l1.72-4.9h.64l1.72,4.9h-.64l-.46-1.31h-1.88l-.46,1.31h-.64ZM86.13,265.16h1.47l-.73-2.11-.74,2.11Z" fill="#231f20"/>
          <path d="M90.42,267.09v-2.05l-1.52-2.85h.69l1.13,2.14,1.13-2.14h.69l-1.52,2.84v2.06h-.6Z" fill="#231f20"/>
          <path d="M93.14,267.09v-4.9h2.56v.63h-1.97v1.46h1.77v.62h-1.77v1.57h1.98v.63h-2.58Z" fill="#231f20"/>
          <path d="M96.74,267.09v-4.9h1.44c.28,0,.54.06.75.19.22.13.39.31.51.53.12.23.19.49.19.79,0,.32-.08.6-.24.85-.16.24-.37.42-.62.53l1.03,2.01h-.68l-.95-1.88h-.83v1.88h-.6ZM97.34,264.58h.89c.15,0,.28-.04.39-.12.12-.08.21-.18.28-.32s.11-.28.11-.45c0-.26-.08-.47-.24-.64-.16-.16-.36-.24-.62-.24h-.82v1.76Z" fill="#231f20"/>
          <path d="M101.96,267.17c-.23,0-.43-.03-.62-.09-.18-.06-.34-.14-.48-.25-.14-.1-.25-.22-.34-.35-.09-.13-.15-.27-.19-.41l.58-.22c.06.19.18.36.35.5.17.14.38.21.63.22.3,0,.54-.07.71-.21s.26-.32.26-.55c0-.21-.08-.38-.22-.51-.15-.13-.35-.23-.6-.3l-.49-.15c-.2-.06-.37-.15-.53-.26s-.29-.25-.38-.43c-.09-.17-.14-.38-.14-.62,0-.45.13-.8.38-1.05.25-.25.62-.38,1.1-.38.28,0,.52.05.72.15.2.1.37.23.5.4.13.16.23.34.28.54l-.58.22c-.07-.21-.19-.38-.35-.51-.17-.13-.37-.19-.62-.19s-.46.07-.61.21-.22.33-.22.57c0,.21.06.36.17.47.12.11.27.19.47.25l.49.14c.4.11.71.3.92.56.22.26.33.54.33.85,0,.27-.06.51-.17.72-.12.21-.29.38-.51.5-.22.12-.5.19-.83.19Z" fill="#231f20"/>
        </g>
      </g>
      <circle cx="28.8" cy="346.29" r="13.33" fill="#9a9aa6"/>
      <g isolation="isolate">
        <g>
          <path d="M79.3,207.17c-.23,0-.43-.03-.62-.09-.18-.06-.34-.14-.48-.25-.14-.1-.25-.22-.34-.35-.09-.13-.15-.27-.19-.41l.58-.22c.06.19.18.36.35.5.17.14.38.21.63.22.3,0,.54-.07.71-.21s.26-.32.26-.55c0-.21-.08-.38-.22-.51-.15-.13-.35-.23-.6-.3l-.49-.15c-.2-.06-.37-.15-.53-.26s-.29-.25-.38-.43c-.09-.17-.14-.38-.14-.62,0-.45.13-.8.38-1.05.25-.25.62-.38,1.1-.38.28,0,.52.05.72.15.2.1.37.23.5.4.13.16.23.34.28.54l-.58.22c-.07-.21-.19-.38-.35-.51-.17-.13-.37-.19-.62-.19s-.46.07-.61.21-.22.33-.22.57c0,.21.06.36.17.47.12.11.27.19.47.25l.49.14c.4.11.71.3.92.56.22.26.33.54.33.85,0,.27-.06.51-.17.72-.12.21-.29.38-.51.5-.22.12-.5.19-.83.19Z" fill="#231f20"/>
          <path d="M82.52,207.09v-4.27h-1.33v-.63h3.27v.63h-1.33v4.27h-.6Z" fill="#231f20"/>
          <path d="M85.07,207.09v-4.9h2.56v.63h-1.97v1.46h1.77v.62h-1.77v1.57h1.98v.63h-2.58Z" fill="#231f20"/>
          <path d="M88.66,207.09v-4.9h1.44c.29,0,.54.07.75.2.22.13.39.32.51.56.12.24.19.51.19.82s-.06.57-.17.81c-.11.24-.27.42-.47.56-.2.14-.43.2-.69.2h-.96v1.75h-.6ZM89.26,204.7h.95c.22,0,.39-.09.53-.26s.21-.4.21-.68-.08-.51-.24-.68c-.16-.17-.36-.26-.61-.26h-.83v1.88Z" fill="#231f20"/>
          <path d="M93.61,207.17c-.23,0-.43-.03-.62-.09-.18-.06-.34-.14-.48-.25-.14-.1-.25-.22-.34-.35-.09-.13-.15-.27-.19-.41l.58-.22c.06.19.18.36.35.5.17.14.38.21.63.22.3,0,.54-.07.71-.21s.26-.32.26-.55c0-.21-.08-.38-.22-.51-.15-.13-.35-.23-.6-.3l-.49-.15c-.2-.06-.37-.15-.53-.26s-.29-.25-.38-.43c-.09-.17-.14-.38-.14-.62,0-.45.13-.8.38-1.05.25-.25.62-.38,1.1-.38.28,0,.52.05.72.15.2.1.37.23.5.4.13.16.23.34.28.54l-.58.22c-.07-.21-.19-.38-.35-.51-.17-.13-.37-.19-.62-.19s-.46.07-.61.21-.22.33-.22.57c0,.21.06.36.17.47.12.11.27.19.47.25l.49.14c.4.11.71.3.92.56.22.26.33.54.33.85,0,.27-.06.51-.17.72-.12.21-.29.38-.51.5-.22.12-.5.19-.83.19Z" fill="#231f20"/>
        </g>
      </g>
      <circle cx="28.8" cy="285.75" r="13.33" fill="#9a9aa6"/>
      <g isolation="isolate">
        <g>
          <path d="M9.65,267.09v-4.9h1.44c.29,0,.54.06.75.19.22.13.39.31.51.53.12.23.19.49.19.79,0,.32-.08.6-.24.85-.16.24-.37.42-.62.53l1.03,2.01h-.68l-.95-1.88h-.83v1.88h-.6ZM10.25,264.58h.89c.15,0,.28-.04.39-.12.12-.08.21-.18.28-.32.07-.13.11-.28.11-.45,0-.26-.08-.47-.24-.64-.16-.16-.36-.24-.62-.24h-.82v1.76Z" fill="#231f20"/>
          <path d="M13.02,267.09l1.72-4.9h.64l1.72,4.9h-.64l-.46-1.31h-1.88l-.46,1.31h-.64ZM14.33,265.16h1.47l-.73-2.11-.74,2.11Z" fill="#231f20"/>
          <path d="M17.7,267.09v-4.9h.61l2.41,3.75v-3.75h.6v4.9h-.6l-2.43-3.79v3.79h-.6Z" fill="#231f20"/>
          <path d="M24.34,267.17c-.43,0-.81-.11-1.15-.33-.33-.22-.6-.52-.79-.9-.19-.38-.28-.82-.28-1.31s.09-.94.28-1.32c.19-.38.45-.68.79-.9.34-.22.72-.33,1.15-.33.23,0,.46.04.68.13.22.09.41.21.59.36.18.15.32.33.43.52l-.48.36c-.08-.14-.19-.27-.32-.38-.13-.11-.27-.2-.43-.26-.16-.06-.31-.09-.47-.09-.31,0-.59.08-.83.24-.24.16-.43.39-.57.67-.14.28-.21.62-.21.99s.07.7.2.98c.14.28.33.51.57.67.25.16.53.25.84.25.25,0,.48-.06.68-.18s.36-.28.47-.5c.12-.21.17-.46.18-.74h-1.03v-.57h1.61v.5c0,.42-.09.8-.25,1.11-.16.32-.39.56-.68.74s-.62.26-.99.26Z" fill="#231f20"/>
          <path d="M27.01,267.09v-4.9h2.56v.63h-1.97v1.46h1.77v.62h-1.77v1.57h1.98v.63h-2.58Z" fill="#231f20"/>
          <path d="M32.89,267.79c-.19-.29-.36-.59-.51-.93s-.28-.69-.37-1.06c-.09-.37-.13-.76-.13-1.16s.04-.79.13-1.17c.09-.37.21-.72.37-1.06.15-.33.32-.64.51-.93h.58c-.19.3-.36.62-.51.96-.15.34-.28.69-.37,1.06-.09.37-.13.74-.13,1.13s.04.76.13,1.13c.09.37.21.72.37,1.06.15.34.33.66.51.96h-.58Z" fill="#231f20"/>
          <path d="M36.13,267.17c-.41,0-.78-.11-1.1-.32-.32-.21-.57-.51-.75-.9s-.27-.82-.27-1.31.09-.94.27-1.32c.18-.38.43-.68.75-.9.32-.22.68-.33,1.1-.33s.78.11,1.1.33c.32.22.56.52.74.9.18.38.27.82.27,1.31s-.09.93-.27,1.32-.42.68-.74.9c-.31.21-.68.32-1.09.32ZM36.14,266.54c.29,0,.54-.08.77-.25.22-.16.4-.39.52-.67.13-.29.19-.61.19-.99s-.06-.7-.19-.98c-.13-.29-.3-.51-.53-.68-.23-.16-.48-.24-.78-.24s-.55.08-.78.24c-.23.16-.4.39-.53.68-.13.29-.19.62-.19.98s.06.7.2.99c.13.28.31.51.54.67.23.16.49.25.79.25Z" fill="#231f20"/>
          <path d="M40.84,267.17c-.41,0-.77-.11-1.08-.33-.32-.22-.56-.52-.74-.9-.18-.38-.27-.82-.27-1.31s.09-.93.27-1.31c.18-.38.42-.68.74-.9.31-.22.67-.33,1.08-.33.26,0,.52.06.75.17s.45.26.64.46.33.42.43.67l-.54.28c-.08-.19-.18-.36-.32-.5-.13-.14-.29-.25-.45-.33-.17-.08-.34-.12-.53-.12-.28,0-.54.08-.76.24-.22.16-.4.39-.52.67-.12.28-.19.61-.19.99s.06.71.19.99c.13.29.3.51.53.68s.48.24.77.24c.19,0,.36-.04.53-.13.17-.09.32-.21.45-.36.13-.15.24-.33.32-.52l.54.27c-.1.27-.25.5-.43.71-.19.21-.4.37-.64.48s-.5.17-.76.17Z" fill="#231f20"/>
          <path d="M44.29,267.09v-4.27h-1.33v-.63h3.27v.63h-1.33v4.27h-.6Z" fill="#231f20"/>
          <path d="M47.15,267.79h-.58c.19-.3.36-.62.51-.96.15-.34.27-.69.36-1.06.09-.37.13-.74.13-1.13s-.04-.76-.13-1.13c-.09-.37-.21-.72-.36-1.06-.15-.34-.32-.66-.51-.96h.58c.19.28.36.59.51.93.15.33.27.69.36,1.06.09.37.13.76.13,1.17s-.04.79-.13,1.16c-.09.37-.21.73-.36,1.06-.15.33-.32.64-.51.93Z" fill="#231f20"/>
        </g>
      </g>
      <circle cx="86.4" cy="285.75" r="13.33" fill="#9a9aa6"/>
      <g isolation="isolate">
        <g>
          <path d="M75.65,327.17c-.23,0-.43-.03-.62-.09-.19-.06-.35-.14-.48-.25-.14-.1-.25-.22-.34-.35-.09-.13-.15-.27-.19-.41l.58-.22c.06.19.18.36.35.5.17.14.38.21.63.22.3,0,.54-.07.71-.21s.26-.32.26-.55c0-.21-.08-.38-.23-.51-.15-.13-.35-.23-.6-.3l-.49-.15c-.19-.06-.37-.15-.53-.26-.16-.11-.29-.25-.38-.43-.09-.17-.14-.38-.14-.62,0-.45.13-.8.38-1.05.25-.25.62-.38,1.1-.38.28,0,.51.05.72.15.2.1.37.23.5.4.13.16.23.34.28.54l-.58.22c-.07-.21-.19-.38-.35-.51-.17-.13-.37-.19-.62-.19-.26,0-.46.07-.61.21-.15.14-.22.33-.22.57,0,.21.06.36.17.47.12.11.27.19.47.25l.49.14c.4.11.71.3.92.56.22.26.33.54.33.85,0,.27-.06.51-.17.72-.12.21-.29.38-.51.5-.23.12-.5.19-.83.19Z" fill="#231f20"/>
          <path d="M79.6,327.19c-.33,0-.62-.08-.87-.24-.25-.16-.44-.38-.58-.66s-.21-.61-.21-.98v-3.14h.6v3.14c0,.24.05.46.14.64.09.19.22.33.38.43.16.1.35.15.56.15s.4-.05.56-.15c.16-.1.29-.25.38-.43.09-.19.13-.4.13-.64v-3.14h.6v3.14c0,.37-.07.69-.21.98s-.34.5-.59.66-.55.24-.89.24Z" fill="#231f20"/>
          <path d="M83.68,327.17c-.23,0-.43-.03-.62-.09s-.34-.14-.48-.25c-.13-.1-.25-.22-.34-.35-.09-.13-.15-.27-.19-.41l.58-.22c.06.19.18.36.35.5.17.14.38.21.63.22.3,0,.54-.07.71-.21.17-.14.26-.32.26-.55,0-.21-.07-.38-.22-.51-.15-.13-.35-.23-.6-.3l-.49-.15c-.2-.06-.37-.15-.53-.26s-.29-.25-.38-.43c-.09-.17-.14-.38-.14-.62,0-.45.13-.8.38-1.05.25-.25.62-.38,1.1-.38.28,0,.52.05.72.15.2.1.37.23.5.4.13.16.23.34.28.54l-.58.22c-.07-.21-.19-.38-.35-.51-.17-.13-.37-.19-.62-.19s-.46.07-.61.21-.22.33-.22.57c0,.21.06.36.17.47.12.11.27.19.47.25l.49.14c.4.11.71.3.92.56.22.26.33.54.33.85,0,.27-.06.51-.17.72s-.29.38-.51.5c-.23.12-.5.19-.83.19Z" fill="#231f20"/>
          <path d="M86.89,327.09v-4.27h-1.33v-.63h3.27v.63h-1.33v4.27h-.6Z" fill="#231f20"/>
          <path d="M88.55,327.09l1.72-4.9h.64l1.72,4.9h-.64l-.46-1.31h-1.88l-.46,1.31h-.64ZM89.85,325.16h1.47l-.73-2.11-.74,2.11Z" fill="#231f20"/>
          <path d="M93.22,327.09v-4.9h.6v4.9h-.6Z" fill="#231f20"/>
          <path d="M94.9,327.09v-4.9h.61l2.41,3.75v-3.75h.6v4.9h-.6l-2.43-3.79v3.79h-.6Z" fill="#231f20"/>
        </g>
      </g>
      <circle cx="86.4" cy="346.29" r="13.33" fill="#9a9aa6"/>
      <g isolation="isolate">
        <g>
          <path d="M24.18,327.09v-4.27h-1.33v-.63h3.27v.63h-1.33v4.27h-.6Z" fill="#231f20"/>
          <path d="M25.83,327.09l1.72-4.9h.64l1.72,4.9h-.64l-.46-1.31h-1.88l-.46,1.31h-.64ZM27.13,325.16h1.47l-.73-2.11-.74,2.11Z" fill="#231f20"/>
          <path d="M30.5,327.09v-4.9h.6v4.9h-.6Z" fill="#231f20"/>
          <path d="M32.18,327.09v-4.9h.6v4.27h1.98v.63h-2.58Z" fill="#231f20"/>
        </g>
      </g>
    </g>
    <rect id="rect48" x="139.2" y="274.29" width="79.2" height="86.4" rx="5.67" ry="5.67"/>
    <circle cx="201.6" cy="221.49" r="8.47" fill="#7a5fd0"/>
    <g isolation="isolate">
      <g>
        <path d="M189.83,207.09v-4.9h1.44c.28,0,.53.06.75.19.22.13.39.31.51.53.12.23.19.49.19.79,0,.32-.08.6-.24.85-.16.24-.37.42-.62.53l1.03,2.01h-.68l-.95-1.88h-.83v1.88h-.6ZM190.42,204.58h.9c.15,0,.28-.04.39-.12.12-.08.21-.18.28-.32.07-.13.11-.28.11-.45,0-.26-.08-.47-.24-.64-.16-.16-.36-.24-.62-.24h-.82v1.76Z" fill="#231f20"/>
        <path d="M193.67,207.09v-4.9h2.56v.63h-1.97v1.46h1.77v.62h-1.77v1.57h1.98v.63h-2.58Z" fill="#231f20"/>
        <path d="M199.08,207.17c-.41,0-.77-.11-1.08-.33-.32-.22-.56-.52-.74-.9-.18-.38-.27-.82-.27-1.31s.09-.93.27-1.31c.18-.38.42-.68.74-.9.31-.22.67-.33,1.08-.33.26,0,.52.06.75.17s.45.26.64.46.33.42.43.67l-.54.28c-.08-.19-.18-.36-.32-.5-.13-.14-.29-.25-.45-.33-.17-.08-.34-.12-.53-.12-.28,0-.54.08-.76.24-.22.16-.4.39-.52.67-.12.28-.19.61-.19.99s.06.71.19.99c.13.29.3.51.53.68s.48.24.77.24c.19,0,.36-.04.53-.13.17-.09.32-.21.45-.36.13-.15.24-.33.32-.52l.54.27c-.1.27-.25.5-.43.71-.19.21-.4.37-.64.48s-.5.17-.76.17Z" fill="#231f20"/>
        <path d="M203.51,207.17c-.41,0-.78-.11-1.1-.32-.32-.21-.57-.51-.75-.9-.18-.38-.27-.82-.27-1.31s.09-.94.27-1.32c.18-.38.43-.68.75-.9.32-.22.68-.33,1.1-.33s.78.11,1.1.33c.32.22.56.52.74.9.18.38.27.82.27,1.31s-.09.93-.27,1.32c-.18.38-.43.68-.74.9-.31.21-.68.32-1.09.32ZM203.52,206.54c.29,0,.54-.08.77-.25s.4-.39.52-.67c.13-.29.19-.61.19-.99s-.06-.7-.19-.98-.3-.51-.53-.68c-.23-.16-.48-.24-.78-.24s-.55.08-.78.24c-.23.16-.4.39-.53.68s-.19.62-.19.98.07.7.2.99c.13.28.31.51.54.67.23.16.49.25.79.25Z" fill="#231f20"/>
        <path d="M206.41,207.09v-4.9h1.44c.29,0,.54.06.75.19.22.13.39.31.51.53.12.23.19.49.19.79,0,.32-.08.6-.24.85-.16.24-.37.42-.62.53l1.03,2.01h-.68l-.95-1.88h-.83v1.88h-.6ZM207,204.58h.89c.15,0,.28-.04.39-.12.12-.08.21-.18.28-.32.07-.13.11-.28.11-.45,0-.26-.08-.47-.24-.64-.16-.16-.36-.24-.62-.24h-.82v1.76Z" fill="#231f20"/>
        <path d="M210.25,207.09v-4.9h1.31c.41,0,.77.1,1.08.31.31.21.56.5.74.87.18.37.27.79.27,1.27s-.09.9-.27,1.27c-.18.37-.42.66-.74.87-.32.21-.67.32-1.08.32h-1.31ZM210.85,206.44h.72c.21,0,.4-.05.58-.14.18-.09.34-.22.47-.38.14-.17.24-.36.32-.58.08-.22.11-.46.11-.71s-.04-.49-.11-.71c-.08-.22-.18-.41-.32-.58-.14-.17-.29-.29-.47-.38-.18-.09-.37-.14-.58-.14h-.72v3.61Z" fill="#231f20"/>
      </g>
    </g>
    <circle cx="158.4" cy="221.49" r="8.47" fill="#7a5fd0"/>
    <g isolation="isolate">
      <g>
        <path d="M143.99,207.09l1.72-4.9h.64l1.72,4.9h-.64l-.46-1.31h-1.88l-.46,1.31h-.64ZM145.3,205.16h1.47l-.73-2.11-.74,2.11Z" fill="#231f20"/>
        <path d="M150.26,207.19c-.33,0-.62-.08-.87-.24s-.44-.38-.58-.66c-.14-.28-.21-.61-.21-.98v-3.14h.6v3.14c0,.24.05.46.14.64s.22.33.38.43c.16.1.35.15.56.15s.4-.05.56-.15c.16-.1.29-.25.38-.43s.13-.4.13-.64v-3.14h.6v3.14c0,.37-.07.69-.21.98-.14.28-.34.5-.59.66-.25.16-.55.24-.88.24Z" fill="#231f20"/>
        <path d="M152.96,207.09v-4.9h1.31c.41,0,.77.1,1.08.31.31.21.56.5.74.87.18.37.27.79.27,1.27s-.09.9-.27,1.27c-.18.37-.42.66-.74.87-.32.21-.68.32-1.08.32h-1.31ZM153.56,206.44h.72c.21,0,.4-.05.58-.14s.34-.22.47-.38c.14-.17.24-.36.32-.58.08-.22.11-.46.11-.71s-.04-.49-.11-.71c-.07-.22-.18-.41-.32-.58-.14-.17-.29-.29-.47-.38-.18-.09-.37-.14-.58-.14h-.72v3.61Z" fill="#231f20"/>
        <path d="M157.17,207.09v-4.9h.6v4.9h-.6Z" fill="#231f20"/>
        <path d="M159.71,207.09v-4.27h-1.33v-.63h3.27v.63h-1.33v4.27h-.6Z" fill="#231f20"/>
        <path d="M162.27,207.09v-4.9h.6v4.9h-.6Z" fill="#231f20"/>
        <path d="M165.79,207.17c-.41,0-.78-.11-1.1-.32-.32-.21-.57-.51-.75-.9s-.27-.82-.27-1.31.09-.94.27-1.32c.18-.38.43-.68.75-.9.32-.22.68-.33,1.1-.33s.78.11,1.1.33c.32.22.56.52.74.9.18.38.27.82.27,1.31s-.09.93-.27,1.32-.42.68-.74.9c-.31.21-.68.32-1.09.32ZM165.8,206.54c.29,0,.54-.08.77-.25.22-.16.4-.39.52-.67.13-.29.19-.61.19-.99s-.06-.7-.19-.98c-.13-.29-.3-.51-.53-.68-.23-.16-.48-.24-.78-.24s-.55.08-.78.24c-.23.16-.4.39-.53.68-.13.29-.19.62-.19.98s.06.7.2.99c.13.28.31.51.54.67.23.16.49.25.79.25Z" fill="#231f20"/>
        <path d="M168.69,207.09v-4.9h.62l2.41,3.75v-3.75h.6v4.9h-.6l-2.43-3.79v3.79h-.6Z" fill="#231f20"/>
      </g>
    </g>
    <circle cx="158.4" cy="257.49" r="11.15" fill="#d0595a"/>
    <circle cx="201.6" cy="257.49" r="11.15" fill="#d0595a"/>
    <circle cx="158.4" cy="303.09" r="11.15" fill="#e0803f"/>
    <g isolation="isolate">
      <g>
        <path d="M150.57,329.49l-1.75-4.9h.64l1.44,4.1,1.44-4.1h.64l-1.75,4.9h-.66Z" fill="#fff"/>
        <path d="M153.13,330.08l1.68-5.82h.58l-1.67,5.82h-.59Z" fill="#fff"/>
        <path d="M157.86,329.57c-.41,0-.78-.11-1.1-.32-.32-.21-.57-.51-.75-.9-.18-.38-.27-.82-.27-1.31s.09-.94.27-1.32c.18-.38.43-.68.75-.9.32-.22.68-.33,1.1-.33s.78.11,1.1.33c.32.22.56.52.74.9.18.38.27.82.27,1.31s-.09.93-.27,1.32c-.18.38-.42.68-.74.9-.31.21-.68.32-1.09.32ZM157.87,328.94c.29,0,.54-.08.77-.25s.4-.39.52-.67c.13-.29.19-.61.19-.99s-.06-.7-.19-.98-.3-.51-.53-.68c-.22-.16-.48-.24-.78-.24s-.55.08-.78.24c-.23.16-.41.39-.53.68s-.19.62-.19.98.06.7.19.99c.13.28.31.51.54.67s.49.25.79.25Z" fill="#fff"/>
        <path d="M162.58,329.57c-.41,0-.77-.11-1.08-.33-.32-.22-.56-.52-.74-.9-.18-.38-.27-.82-.27-1.31s.09-.93.27-1.31c.18-.38.42-.68.74-.9.31-.22.67-.33,1.08-.33.26,0,.52.06.75.17.24.11.45.26.64.46.19.19.33.42.44.67l-.54.28c-.08-.19-.18-.36-.32-.5-.13-.14-.29-.25-.45-.33-.17-.08-.34-.12-.53-.12-.29,0-.54.08-.76.24-.22.16-.4.39-.52.67-.13.28-.19.61-.19.99s.06.71.19.99.3.51.53.68c.22.16.48.24.77.24.19,0,.36-.04.53-.13.17-.09.32-.21.45-.36s.24-.33.32-.52l.54.27c-.1.27-.25.5-.43.71-.19.21-.4.37-.64.48-.24.11-.5.17-.76.17Z" fill="#fff"/>
        <path d="M166.02,329.49v-4.27h-1.33v-.63h3.27v.63h-1.33v4.27h-.6Z" fill="#fff"/>
      </g>
    </g>
    <g isolation="isolate">
      <g>
        <path d="M152.18,240.69v-4.9h.6v4.27h1.98v.63h-2.58Z" fill="#231f20"/>
        <path d="M155.37,240.69v-4.9h2.56v.63h-1.97v1.46h1.77v.62h-1.77v1.57h1.98v.63h-2.58Z" fill="#231f20"/>
        <path d="M158.97,240.69v-4.9h2.58v.63h-1.99v1.54h1.73v.63h-1.73v2.1h-.6Z" fill="#231f20"/>
        <path d="M163.16,240.69v-4.27h-1.33v-.63h3.27v.63h-1.33v4.27h-.6Z" fill="#231f20"/>
      </g>
    </g>
    <g isolation="isolate">
      <g>
        <path d="M193.08,240.69v-4.9h1.44c.29,0,.54.06.75.19.22.13.39.31.51.53.12.23.19.49.19.79,0,.32-.08.6-.24.85-.16.24-.37.42-.62.53l1.03,2.01h-.68l-.95-1.88h-.83v1.88h-.6ZM193.68,238.18h.89c.15,0,.28-.04.39-.12.12-.08.21-.18.28-.32.07-.13.11-.28.11-.45,0-.26-.08-.47-.24-.64-.16-.16-.36-.24-.62-.24h-.82v1.76Z" fill="#231f20"/>
        <path d="M196.93,240.69v-4.9h.6v4.9h-.6Z" fill="#231f20"/>
        <path d="M200.54,240.77c-.43,0-.81-.11-1.15-.33-.34-.22-.6-.52-.79-.9-.19-.38-.28-.82-.28-1.31s.09-.94.28-1.32c.19-.38.45-.68.79-.9.33-.22.72-.33,1.15-.33.24,0,.46.04.68.13s.41.21.59.36c.18.15.32.33.43.52l-.48.36c-.08-.14-.19-.27-.32-.38-.13-.11-.27-.2-.43-.26-.16-.06-.31-.09-.47-.09-.31,0-.59.08-.83.24-.24.16-.43.39-.57.67-.14.28-.21.62-.21.99s.07.7.21.98c.13.28.33.51.57.67.25.16.53.25.84.25.25,0,.48-.06.68-.18.2-.12.36-.28.47-.5.12-.21.18-.46.18-.74h-1.03v-.57h1.61v.5c0,.42-.09.8-.25,1.11s-.39.56-.68.74-.62.26-.99.26Z" fill="#231f20"/>
        <path d="M203.21,240.69v-4.9h.6v2.07h2.3v-2.07h.6v4.9h-.6v-2.21h-2.3v2.21h-.6Z" fill="#231f20"/>
        <path d="M208.65,240.69v-4.27h-1.33v-.63h3.27v.63h-1.33v4.27h-.6Z" fill="#231f20"/>
      </g>
    </g>
    <circle cx="199.2" cy="303.09" r="11.15" fill="#e0803f"/>
    <g isolation="isolate">
      <g>
        <path d="M193.88,329.57c-.43,0-.81-.11-1.15-.33-.34-.22-.6-.52-.79-.9-.19-.38-.28-.82-.28-1.31s.09-.94.28-1.32c.19-.38.45-.68.79-.9.33-.22.72-.33,1.15-.33.24,0,.46.04.68.13s.41.21.59.36c.18.15.32.33.43.52l-.48.36c-.08-.14-.19-.27-.32-.38-.13-.11-.27-.2-.43-.26-.16-.06-.31-.09-.47-.09-.31,0-.59.08-.83.24-.24.16-.43.39-.57.67-.14.28-.21.62-.21.99s.07.7.21.98c.13.28.33.51.57.67.25.16.53.25.84.25.25,0,.48-.06.68-.18.2-.12.36-.28.47-.5.12-.21.18-.46.18-.74h-1.03v-.57h1.61v.5c0,.42-.09.8-.25,1.11s-.39.56-.68.74-.62.26-.99.26Z" fill="#fff"/>
        <path d="M195.99,329.49l1.72-4.9h.64l1.72,4.9h-.64l-.46-1.31h-1.88l-.46,1.31h-.64ZM197.3,327.56h1.47l-.73-2.11-.74,2.11Z" fill="#fff"/>
        <path d="M201.39,329.49v-4.27h-1.33v-.63h3.27v.63h-1.33v4.27h-.6Z" fill="#fff"/>
        <path d="M203.94,329.49v-4.9h2.56v.63h-1.97v1.46h1.77v.62h-1.77v1.57h1.98v.63h-2.58Z" fill="#fff"/>
      </g>
    </g>
    <circle cx="158.4" cy="346.29" r="11.15" fill="#e0803f"/>
    <g isolation="isolate">
      <g>
        <path d="M154.67,286.29l-1.75-4.9h.64l1.44,4.1,1.44-4.1h.64l-1.75,4.9h-.66Z" fill="#fff"/>
        <path d="M157.68,286.29v-4.9h2.56v.63h-1.97v1.46h1.77v.62h-1.77v1.57h1.98v.63h-2.58Z" fill="#fff"/>
        <path d="M161.28,286.29v-4.9h.6v4.27h1.98v.63h-2.58Z" fill="#fff"/>
      </g>
    </g>
    <circle cx="199.2" cy="346.29" r="11.15" fill="#e0803f"/>
    <g isolation="isolate">
      <g>
        <path d="M191.11,286.29v-4.9h1.31c.41,0,.77.1,1.08.31.31.21.56.5.74.87.18.37.27.79.27,1.27s-.09.9-.27,1.27c-.18.37-.42.66-.74.87-.32.21-.68.32-1.08.32h-1.31ZM191.71,285.64h.72c.21,0,.4-.05.58-.14s.34-.22.47-.38c.14-.17.24-.36.32-.58.08-.22.11-.46.11-.71s-.04-.49-.11-.71c-.07-.22-.18-.41-.32-.58-.14-.17-.29-.29-.47-.38-.18-.09-.37-.14-.58-.14h-.72v3.61Z" fill="#fff"/>
        <path d="M197.16,286.37c-.41,0-.78-.11-1.1-.32-.32-.21-.57-.51-.75-.9s-.27-.82-.27-1.31.09-.94.27-1.32c.18-.38.43-.68.75-.9.32-.22.68-.33,1.1-.33s.78.11,1.1.33c.32.22.56.52.74.9.18.38.27.82.27,1.31s-.09.93-.27,1.32-.43.68-.74.9c-.31.21-.68.32-1.09.32ZM197.17,285.74c.29,0,.54-.08.77-.25.22-.16.4-.39.52-.67.12-.29.19-.61.19-.99s-.06-.7-.19-.98c-.13-.29-.3-.51-.53-.68-.22-.16-.48-.24-.78-.24s-.55.08-.78.24c-.23.16-.41.39-.53.68-.13.29-.19.62-.19.98s.07.7.19.99c.13.28.31.51.54.67.23.16.49.25.79.25Z" fill="#fff"/>
        <path d="M200.06,286.29v-4.9h.61l2.41,3.75v-3.75h.6v4.9h-.6l-2.43-3.79v3.79h-.6Z" fill="#fff"/>
        <path d="M204.77,286.29v-4.9h2.56v.63h-1.97v1.46h1.77v.62h-1.77v1.57h1.98v.63h-2.58Z" fill="#fff"/>
      </g>
    </g>
    <line x1="201.6" y1="257.49" x2="158.4" y2="257.49" fill="none" stroke="#b2b2b2" stroke-miterlimit="11.34" stroke-width=".75"/>
    <polyline points="189.6 221.49 182.4 221.49 180 223.89 177.6 221.49 170.4 221.49" fill="none" stroke="#b2b2b2" stroke-miterlimit="11.34" stroke-width=".75"/>
    <line x1="180" y1="226.29" x2="180" y2="257.49" fill="none" stroke="#b2b2b2" stroke-miterlimit="11.34" stroke-width=".75"/>
  </g>
</svg>