<?xml version="1.0" encoding="UTF-8"?>
<svg id="Layer_2" data-name="Layer 2" xmlns="http://www.w3.org/2000/svg" width="28.8" height="50.84" viewBox="0 0 28.8 50.84">
  <g id="Layer_1-2" data-name="Layer 1">
    <path d="M21.26,35.34c.22-2.06.34-4.26.34-6.54C21.6,16.87,16.8,0,14.4,0s-7.2,16.87-7.2,28.8c0,2.28.12,4.47.34,6.54-4.49,2.44-7.54,7.19-7.54,12.66,0,.69.05,1.37.14,2.03.12.85,1.24,1.11,1.73.41,1.99-2.87,4.56-5.06,7.48-6.24.25,3.8.25,1.4,5.05,1.4s4.8,2.4,5.05-1.4c2.92,1.19,5.49,3.37,7.48,6.24.49.7,1.61.44,1.73-.41.09-.66.14-1.34.14-2.03,0-5.47-3.05-10.22-7.54-12.66Z" fill="#231f20"/>
  </g>
</svg>