<?xml version="1.0" encoding="UTF-8"?>
<svg xmlns="http://www.w3.org/2000/svg" width="60.96mm" height="128.5mm" viewBox="0 0 60.96 128.5">

  <rect width="60.96" height="128.5" fill="#f0f0f0"/>
  <text x="30.48" y="8" text-anchor="middle" font-family="sans-serif" font-size="3.5" fill="#231f20">SHIFT</text>

  <!-- Inputs (top, 2x2) -->
  <text x="10" y="16"  text-anchor="middle" font-family="sans-serif" font-size="1.5" fill="#808080">CV</text>
  <text x="25" y="16"  text-anchor="middle" font-family="sans-serif" font-size="1.5" fill="#808080">CLK</text>
  <text x="40" y="16"  text-anchor="middle" font-family="sans-serif" font-size="1.5" fill="#808080">N CV</text>
  <text x="52" y="16"  text-anchor="middle" font-family="sans-serif" font-size="1.5" fill="#808080">RST</text>
  <g transform="translate(10,20)"><line x1="-1.5" y1="0" x2="1.5" y2="0" stroke="#0066ff" stroke-width="0.2"/><line x1="0" y1="-1.5" x2="0" y2="1.5" stroke="#0066ff" stroke-width="0.2"/><circle cx="0" cy="0" r="1.2" fill="none" stroke="#0066ff" stroke-width="0.15"/></g>
  <g transform="translate(25,20)"><line x1="-1.5" y1="0" x2="1.5" y2="0" stroke="#0066ff" stroke-width="0.2"/><line x1="0" y1="-1.5" x2="0" y2="1.5" stroke="#0066ff" stroke-width="0.2"/><circle cx="0" cy="0" r="1.2" fill="none" stroke="#0066ff" stroke-width="0.15"/></g>
  <g transform="translate(40,20)"><line x1="-1.5" y1="0" x2="1.5" y2="0" stroke="#0066ff" stroke-width="0.2"/><line x1="0" y1="-1.5" x2="0" y2="1.5" stroke="#0066ff" stroke-width="0.2"/><circle cx="0" cy="0" r="1.2" fill="none" stroke="#0066ff" stroke-width="0.15"/></g>
  <g transform="translate(52,20)"><line x1="-1.5" y1="0" x2="1.5" y2="0" stroke="#0066ff" stroke-width="0.2"/><line x1="0" y1="-1.5" x2="0" y2="1.5" stroke="#0066ff" stroke-width="0.2"/><circle cx="0" cy="0" r="1.2" fill="none" stroke="#0066ff" stroke-width="0.15"/></g>

  <!-- Column headings -->
  <text x="10" y="35" text-anchor="middle" font-family="sans-serif" font-size="1.3" fill="#808080">N</text>
  <text x="22" y="35" text-anchor="middle" font-family="sans-serif" font-size="1.3" fill="#808080">MODE</text>
  <text x="44" y="35" text-anchor="middle" font-family="sans-serif" font-size="1.3" fill="#808080">OUT</text>

  <!-- Output dark plate (right side) -->
  <rect x="36" y="38" width="20" height="86" rx="1.5" ry="1.5" fill="#2a2a2a"/>

  <!-- Per-output rows (4 rows at y=46, 66, 86, 106) -->
  <!-- Row A -->
  <text x="6" y="48" text-anchor="middle" font-family="sans-serif" font-size="2" fill="#231f20">A</text>
  <g transform="translate(14,46)"><line x1="-2" y1="0" x2="2" y2="0" stroke="#ff0000" stroke-width="0.2"/><line x1="0" y1="-2" x2="0" y2="2" stroke="#ff0000" stroke-width="0.2"/><circle cx="0" cy="0" r="1.5" fill="none" stroke="#ff0000" stroke-width="0.15"/></g>
  <rect x="20.5" y="43" width="3" height="6" fill="none" stroke="#404040" stroke-width="0.15"/>
  <circle cx="40" cy="46" r="0.5" fill="#fff" opacity="0.4"/>
  <g transform="translate(48,46)"><line x1="-1.2" y1="0" x2="1.2" y2="0" stroke="#0066ff" stroke-width="0.2"/><line x1="0" y1="-1.2" x2="0" y2="1.2" stroke="#0066ff" stroke-width="0.2"/><circle cx="0" cy="0" r="1" fill="none" stroke="#0066ff" stroke-width="0.15"/></g>

  <!-- Row B -->
  <text x="6" y="68" text-anchor="middle" font-family="sans-serif" font-size="2" fill="#231f20">B</text>
  <g transform="translate(14,66)"><line x1="-2" y1="0" x2="2" y2="0" stroke="#ff0000" stroke-width="0.2"/><line x1="0" y1="-2" x2="0" y2="2" stroke="#ff0000" stroke-width="0.2"/><circle cx="0" cy="0" r="1.5" fill="none" stroke="#ff0000" stroke-width="0.15"/></g>
  <rect x="20.5" y="63" width="3" height="6" fill="none" stroke="#404040" stroke-width="0.15"/>
  <circle cx="40" cy="66" r="0.5" fill="#fff" opacity="0.4"/>
  <g transform="translate(48,66)"><line x1="-1.2" y1="0" x2="1.2" y2="0" stroke="#0066ff" stroke-width="0.2"/><line x1="0" y1="-1.2" x2="0" y2="1.2" stroke="#0066ff" stroke-width="0.2"/><circle cx="0" cy="0" r="1" fill="none" stroke="#0066ff" stroke-width="0.15"/></g>

  <!-- Row C -->
  <text x="6" y="88" text-anchor="middle" font-family="sans-serif" font-size="2" fill="#231f20">C</text>
  <g transform="translate(14,86)"><line x1="-2" y1="0" x2="2" y2="0" stroke="#ff0000" stroke-width="0.2"/><line x1="0" y1="-2" x2="0" y2="2" stroke="#ff0000" stroke-width="0.2"/><circle cx="0" cy="0" r="1.5" fill="none" stroke="#ff0000" stroke-width="0.15"/></g>
  <rect x="20.5" y="83" width="3" height="6" fill="none" stroke="#404040" stroke-width="0.15"/>
  <circle cx="40" cy="86" r="0.5" fill="#fff" opacity="0.4"/>
  <g transform="translate(48,86)"><line x1="-1.2" y1="0" x2="1.2" y2="0" stroke="#0066ff" stroke-width="0.2"/><line x1="0" y1="-1.2" x2="0" y2="1.2" stroke="#0066ff" stroke-width="0.2"/><circle cx="0" cy="0" r="1" fill="none" stroke="#0066ff" stroke-width="0.15"/></g>

  <!-- Row D -->
  <text x="6" y="108" text-anchor="middle" font-family="sans-serif" font-size="2" fill="#231f20">D</text>
  <g transform="translate(14,106)"><line x1="-2" y1="0" x2="2" y2="0" stroke="#ff0000" stroke-width="0.2"/><line x1="0" y1="-2" x2="0" y2="2" stroke="#ff0000" stroke-width="0.2"/><circle cx="0" cy="0" r="1.5" fill="none" stroke="#ff0000" stroke-width="0.15"/></g>
  <rect x="20.5" y="103" width="3" height="6" fill="none" stroke="#404040" stroke-width="0.15"/>
  <circle cx="40" cy="106" r="0.5" fill="#fff" opacity="0.4"/>
  <g transform="translate(48,106)"><line x1="-1.2" y1="0" x2="1.2" y2="0" stroke="#0066ff" stroke-width="0.2"/><line x1="0" y1="-1.2" x2="0" y2="1.2" stroke="#0066ff" stroke-width="0.2"/><circle cx="0" cy="0" r="1" fill="none" stroke="#0066ff" stroke-width="0.15"/></g>
</svg>
