<?xml version="1.0" encoding="UTF-8"?>
<svg xmlns="http://www.w3.org/2000/svg" width="30.48mm" height="128.5mm" viewBox="0 0 86.4 364.25">
  <g id="Background">
    <g id="Background-2" data-name="Background">
      <rect y="0" width="86.4" height="364.25" fill="#f0f0f0"/>
    </g>
  </g>
  <g id="UI">
    <g>
      <path id="path12" d="M36,22.79h1.2v-1.2h1.2v2.4h1.2v-3.6h1.2v4.8h1.2v-6h1.2v6h1.2v-3.6h1.2v2.4h1.2v-1.2h1.2" fill="none" stroke="#b2b2b2" stroke-linecap="round" stroke-linejoin="round" stroke-width=".5"/>
      <path id="path13" d="M49.77,25.19l3.6-6c0,1.31,1.01,3.6,2.4,3.6h4.8l1.2,2.4" fill="none" stroke="#b2b2b2" stroke-linecap="square" stroke-linejoin="bevel" stroke-width=".5"/>
      <path id="path17" d="M65.81,19.19h-1.2v7.2h1.2" fill="none" stroke="#b2b2b2" stroke-linecap="square" stroke-linejoin="bevel" stroke-width=".5"/>
      <path id="path18" d="M75.41,19.19h1.2v7.2h-1.2" fill="none" stroke="#b2b2b2" stroke-linecap="square" stroke-linejoin="bevel" stroke-width=".5"/>
      <path id="path21" d="M67.01,19.82l2.4,2.4" fill="none" stroke="#b2b2b2" stroke-linejoin="bevel" stroke-width=".5"/>
      <path id="path22" d="M69.41,19.82l-2.4,2.4" fill="none" stroke="#b2b2b2" stroke-linejoin="bevel" stroke-width=".5"/>
      <path id="path23-5" d="M67.01,23.42l2.4,2.4" fill="none" stroke="#b2b2b2" stroke-linejoin="bevel" stroke-width=".5"/>
      <path id="path24" d="M67.01,25.82l2.4-2.4" fill="none" stroke="#b2b2b2" stroke-linejoin="bevel" stroke-width=".5"/>
      <path id="path25-3" d="M71.81,19.82l2.4,2.4" fill="none" stroke="#b2b2b2" stroke-linejoin="bevel" stroke-width=".5"/>
      <path id="path26-7" d="M74.21,19.82l-2.4,2.4" fill="none" stroke="#b2b2b2" stroke-linejoin="bevel" stroke-width=".5"/>
      <rect id="rect26" x="71.81" y="23.42" width="2.4" height="2.4" fill="none" stroke="#b2b2b2" stroke-linejoin="bevel" stroke-width=".5"/>
    </g>
  </g>
  <g id="Text">
    <g>
      <rect x="14.4" y="16.79" width="19.2" height="12" fill="none"/>
      <path d="M16.94,25.94l-2.47-6.3h1.56l1.69,4.56,1.67-4.56h1.57l-2.46,6.3h-1.57Z" fill="#231f20"/>
      <path d="M20.03,25.94l2.45-6.3h1.55l2.45,6.3h-1.53l-.46-1.2h-2.47l-.46,1.2h-1.53ZM22.48,23.46h1.52l-.76-2.02-.76,2.02Z" fill="#231f20"/>
      <path d="M29.52,26.04c-.62,0-1.17-.14-1.65-.42-.48-.28-.85-.66-1.12-1.15-.27-.49-.41-1.05-.41-1.69s.14-1.2.41-1.69c.27-.49.65-.87,1.12-1.15.48-.28,1.03-.42,1.65-.42.46,0,.87.08,1.26.24.38.16.71.38.99.67.28.29.49.62.64,1l-1.36.46c-.09-.21-.21-.39-.37-.55-.15-.16-.33-.28-.52-.36-.2-.08-.41-.13-.64-.13-.33,0-.62.08-.88.24s-.46.39-.6.68c-.14.29-.22.62-.22,1s.07.71.22,1c.15.29.35.52.61.68.26.17.56.25.9.25.25,0,.46-.04.66-.13.19-.09.36-.22.5-.38.14-.16.26-.35.36-.56l1.36.46c-.14.38-.36.72-.64,1.01-.28.29-.61.52-1,.68-.38.16-.81.24-1.27.24Z" fill="#231f20"/>
    </g>
  </g>
  <g id="Layer_8" data-name="Layer 8">
    <line x1="21.6" y1="57.59" x2="64.8" y2="57.59" fill="none" stroke="#b2b2b2" stroke-miterlimit="11.34" stroke-width=".5"/>
    <line x1="21.6" y1="100.79" x2="64.8" y2="100.79" fill="none" stroke="#b2b2b2" stroke-miterlimit="11.34" stroke-width=".5"/>
    <line x1="21.6" y1="158.39" x2="64.8" y2="158.39" fill="none" stroke="#b2b2b2" stroke-miterlimit="11.34" stroke-width=".5"/>
    <line x1="43.2" y1="158.39" x2="43.2" y2="175.19" fill="none" stroke="#b2b2b2" stroke-miterlimit="11.34" stroke-width=".5"/>
    <line x1="43.2" y1="57.59" x2="43.2" y2="74.39" fill="none" stroke="#b2b2b2" stroke-miterlimit="11.34" stroke-width=".5"/>
    <line x1="21.6" y1="201.59" x2="64.8" y2="201.59" fill="none" stroke="#b2b2b2" stroke-miterlimit="11.34" stroke-width=".5"/>
    <line x1="21.6" y1="244.79" x2="64.8" y2="244.79" fill="none" stroke="#b2b2b2" stroke-miterlimit="11.34" stroke-width=".5"/>
    <rect x="50.4" y="273.59" width="28.8" height="86.4" rx="3" ry="3" fill="#2a2a2a"/>
    <g isolation="isolate">
      <g>
        <path d="M60.42,328.87c-.48,0-.9-.11-1.27-.32-.37-.21-.66-.51-.86-.9-.21-.38-.31-.82-.31-1.31s.1-.94.31-1.32.49-.68.86-.9c.36-.22.78-.33,1.26-.33s.9.11,1.26.33c.36.22.65.52.85.9s.31.82.31,1.31-.1.93-.31,1.32c-.21.38-.49.68-.85.9s-.78.32-1.25.32ZM60.43,328.24c.33,0,.62-.08.88-.25s.46-.39.6-.67c.14-.29.22-.61.22-.99s-.07-.7-.22-.98c-.15-.29-.35-.51-.61-.68s-.56-.25-.89-.25-.63.08-.9.25c-.26.16-.47.39-.61.68-.15.29-.22.62-.22.98s.07.7.22.99c.15.28.36.51.62.67.26.16.57.25.91.25Z" fill="#fff"/>
        <path d="M65.59,328.89c-.38,0-.71-.08-1-.23s-.51-.38-.67-.66c-.16-.28-.24-.61-.24-.98v-3.14h.69v3.14c0,.24.05.46.16.64.1.19.25.33.43.43s.4.15.64.15.46-.05.64-.15c.19-.1.33-.25.43-.43s.15-.4.15-.64v-3.14h.69v3.14c0,.37-.08.69-.24.98-.16.28-.39.5-.68.66-.29.16-.63.23-1.02.23Z" fill="#fff"/>
        <path d="M69.61,328.79v-4.27h-1.53v-.63h3.76v.63h-1.53v4.27h-.69Z" fill="#fff"/>
      </g>
    </g>
    <g isolation="isolate">
      <g>
        <path d="M58.1,287.99v-4.9h2.95v.63h-2.26v1.46h2.04v.62h-2.04v1.57h2.28v.63h-2.96Z" fill="#fff"/>
        <path d="M64.36,288.07c-.48,0-.9-.11-1.27-.32s-.66-.51-.87-.9c-.21-.38-.31-.82-.31-1.31s.1-.94.31-1.32c.21-.38.49-.68.86-.9.36-.22.78-.33,1.26-.33s.9.11,1.26.33c.36.22.65.52.85.9s.31.82.31,1.31-.1.93-.31,1.32c-.21.38-.49.68-.85.9-.36.21-.78.32-1.25.32ZM64.37,287.44c.33,0,.63-.08.88-.25.26-.16.46-.39.6-.67.14-.29.22-.61.22-.99s-.07-.7-.22-.98c-.15-.29-.35-.51-.61-.68s-.56-.25-.89-.25-.63.08-.9.25c-.26.16-.47.39-.61.68-.15.29-.22.62-.22.98s.08.7.22.99c.15.28.36.51.62.67s.57.25.91.25Z" fill="#fff"/>
        <path d="M69.78,288.07c-.47,0-.88-.11-1.25-.33-.36-.22-.65-.52-.85-.9-.21-.38-.31-.82-.31-1.31s.1-.93.31-1.31c.21-.38.49-.68.85-.9.36-.22.77-.33,1.24-.33.3,0,.59.05.87.17.28.11.52.26.74.46.22.19.38.42.5.67l-.62.28c-.09-.19-.21-.36-.36-.5-.15-.14-.33-.25-.52-.33-.19-.08-.4-.12-.61-.12-.33,0-.62.08-.88.25s-.46.39-.6.67c-.14.29-.22.61-.22.99s.07.71.22.99c.15.29.35.51.61.68.26.16.55.24.88.24.21,0,.42-.04.61-.13.19-.09.36-.21.51-.36.15-.15.27-.33.37-.52l.62.27c-.12.27-.28.5-.5.71-.21.21-.46.37-.74.48s-.57.17-.88.17Z" fill="#fff"/>
      </g>
    </g>
  </g>
  <g id="Layer_10" data-name="Layer 10">
    <g>
      <line x1="15.93" y1="57.59" x2="27.27" y2="57.59" fill="none" stroke="red" stroke-miterlimit="11.34" stroke-width=".57"/>
      <line x1="21.6" y1="51.92" x2="21.6" y2="63.26" fill="none" stroke="red" stroke-miterlimit="11.34" stroke-width=".57"/>
      <circle cx="21.6" cy="57.59" r="4.25" fill="none" stroke="red" stroke-miterlimit="11.34" stroke-width=".43"/>
    </g>
    <g>
      <line x1="15.93" y1="100.79" x2="27.27" y2="100.79" fill="none" stroke="red" stroke-miterlimit="11.34" stroke-width=".57"/>
      <line x1="21.6" y1="95.12" x2="21.6" y2="106.46" fill="none" stroke="red" stroke-miterlimit="11.34" stroke-width=".57"/>
      <circle cx="21.6" cy="100.79" r="4.25" fill="none" stroke="red" stroke-miterlimit="11.34" stroke-width=".43"/>
    </g>
    <g>
      <line x1="59.13" y1="57.59" x2="70.47" y2="57.59" fill="none" stroke="red" stroke-miterlimit="11.34" stroke-width=".57"/>
      <line x1="64.8" y1="51.92" x2="64.8" y2="63.26" fill="none" stroke="red" stroke-miterlimit="11.34" stroke-width=".57"/>
      <circle cx="64.8" cy="57.59" r="4.25" fill="none" stroke="red" stroke-miterlimit="11.34" stroke-width=".43"/>
    </g>
    <g>
      <line x1="59.13" y1="100.79" x2="70.47" y2="100.79" fill="none" stroke="red" stroke-miterlimit="11.34" stroke-width=".57"/>
      <line x1="64.8" y1="95.12" x2="64.8" y2="106.46" fill="none" stroke="red" stroke-miterlimit="11.34" stroke-width=".57"/>
      <circle cx="64.8" cy="100.79" r="4.25" fill="none" stroke="red" stroke-miterlimit="11.34" stroke-width=".43"/>
    </g>
    <g>
      <line x1="15.93" y1="158.39" x2="27.27" y2="158.39" fill="none" stroke="red" stroke-miterlimit="11.34" stroke-width=".57"/>
      <line x1="21.6" y1="152.72" x2="21.6" y2="164.06" fill="none" stroke="red" stroke-miterlimit="11.34" stroke-width=".57"/>
      <circle cx="21.6" cy="158.39" r="4.25" fill="none" stroke="red" stroke-miterlimit="11.34" stroke-width=".43"/>
    </g>
    <g>
      <line x1="59.13" y1="158.39" x2="70.47" y2="158.39" fill="none" stroke="red" stroke-miterlimit="11.34" stroke-width=".57"/>
      <line x1="64.8" y1="152.72" x2="64.8" y2="164.06" fill="none" stroke="red" stroke-miterlimit="11.34" stroke-width=".57"/>
      <circle cx="64.8" cy="158.39" r="4.25" fill="none" stroke="red" stroke-miterlimit="11.34" stroke-width=".43"/>
    </g>
    <g>
      <line x1="15.93" y1="201.59" x2="27.27" y2="201.59" fill="none" stroke="red" stroke-miterlimit="11.34" stroke-width=".57"/>
      <line x1="21.6" y1="195.92" x2="21.6" y2="207.26" fill="none" stroke="red" stroke-miterlimit="11.34" stroke-width=".57"/>
      <circle cx="21.6" cy="201.59" r="4.25" fill="none" stroke="red" stroke-miterlimit="11.34" stroke-width=".43"/>
    </g>
    <g>
      <line x1="15.93" y1="244.79" x2="27.27" y2="244.79" fill="none" stroke="red" stroke-miterlimit="11.34" stroke-width=".57"/>
      <line x1="21.6" y1="239.12" x2="21.6" y2="250.46" fill="none" stroke="red" stroke-miterlimit="11.34" stroke-width=".57"/>
      <circle cx="21.6" cy="244.79" r="4.25" fill="none" stroke="red" stroke-miterlimit="11.34" stroke-width=".43"/>
    </g>
    <g>
      <line x1="15.93" y1="345.59" x2="27.27" y2="345.59" fill="none" stroke="red" stroke-miterlimit="11.34" stroke-width=".57"/>
      <line x1="21.6" y1="339.92" x2="21.6" y2="351.26" fill="none" stroke="red" stroke-miterlimit="11.34" stroke-width=".57"/>
      <circle cx="21.6" cy="345.59" r="4.25" fill="none" stroke="red" stroke-miterlimit="11.34" stroke-width=".43"/>
    </g>
    <g>
      <line x1="15.93" y1="302.39" x2="27.27" y2="302.39" fill="none" stroke="red" stroke-miterlimit="11.34" stroke-width=".57"/>
      <line x1="21.6" y1="296.72" x2="21.6" y2="308.06" fill="none" stroke="red" stroke-miterlimit="11.34" stroke-width=".57"/>
      <circle cx="21.6" cy="302.39" r="4.25" fill="none" stroke="red" stroke-miterlimit="11.34" stroke-width=".43"/>
    </g>
    <g>
      <line x1="59.13" y1="201.59" x2="70.47" y2="201.59" fill="none" stroke="red" stroke-miterlimit="11.34" stroke-width=".57"/>
      <line x1="64.8" y1="195.92" x2="64.8" y2="207.26" fill="none" stroke="red" stroke-miterlimit="11.34" stroke-width=".57"/>
      <circle cx="64.8" cy="201.59" r="4.25" fill="none" stroke="red" stroke-miterlimit="11.34" stroke-width=".43"/>
    </g>
    <g>
      <line x1="59.13" y1="244.79" x2="70.47" y2="244.79" fill="none" stroke="red" stroke-miterlimit="11.34" stroke-width=".57"/>
      <line x1="64.8" y1="239.12" x2="64.8" y2="250.46" fill="none" stroke="red" stroke-miterlimit="11.34" stroke-width=".57"/>
      <circle cx="64.8" cy="244.79" r="4.25" fill="none" stroke="red" stroke-miterlimit="11.34" stroke-width=".43"/>
    </g>
    <g>
      <line x1="59.13" y1="345.59" x2="70.47" y2="345.59" fill="none" stroke="red" stroke-miterlimit="11.34" stroke-width=".57"/>
      <line x1="64.8" y1="339.92" x2="64.8" y2="351.26" fill="none" stroke="red" stroke-miterlimit="11.34" stroke-width=".57"/>
      <circle cx="64.8" cy="345.59" r="4.25" fill="none" stroke="red" stroke-miterlimit="11.34" stroke-width=".43"/>
    </g>
    <g>
      <line x1="59.13" y1="302.39" x2="70.47" y2="302.39" fill="none" stroke="red" stroke-miterlimit="11.34" stroke-width=".57"/>
      <line x1="64.8" y1="296.72" x2="64.8" y2="308.06" fill="none" stroke="red" stroke-miterlimit="11.34" stroke-width=".57"/>
      <circle cx="64.8" cy="302.39" r="4.25" fill="none" stroke="red" stroke-miterlimit="11.34" stroke-width=".43"/>
    </g>
    <g isolation="isolate">
      <g>
        <path d="M36.62,43.19v-4.9h1.65c.33,0,.61.06.86.19.25.13.45.31.59.53.14.23.21.49.21.79,0,.32-.09.6-.27.85-.18.24-.42.42-.71.53l1.18,2.01h-.78l-1.09-1.88h-.96v1.88h-.69ZM37.31,40.68h1.03c.17,0,.32-.04.45-.12.13-.08.24-.18.32-.32.08-.13.12-.28.12-.45,0-.26-.09-.47-.27-.64-.18-.16-.42-.24-.71-.24h-.95v1.76Z" fill="#231f20"/>
        <path d="M41.04,43.19v-4.9h.69v4.9h-.69Z" fill="#231f20"/>
        <path d="M44.55,43.27c-.26,0-.5-.03-.71-.09s-.4-.14-.55-.25c-.16-.1-.29-.22-.39-.35-.1-.13-.17-.27-.22-.41l.67-.22c.07.19.2.36.4.5.2.14.44.21.72.22.35,0,.62-.07.82-.21.2-.14.3-.32.3-.55,0-.21-.09-.38-.26-.51-.17-.13-.4-.23-.69-.3l-.57-.15c-.22-.06-.43-.15-.61-.26-.18-.11-.33-.25-.44-.43-.11-.17-.16-.38-.16-.62,0-.45.15-.8.44-1.05.29-.25.71-.38,1.26-.38.32,0,.59.05.83.15.23.1.43.23.58.4.15.16.26.34.33.54l-.67.22c-.08-.21-.21-.38-.41-.51-.19-.13-.43-.19-.71-.19-.29,0-.53.07-.7.21s-.26.33-.26.57c0,.21.07.36.2.47.13.11.31.19.54.25l.57.14c.46.11.81.3,1.06.56.25.26.38.54.38.85,0,.27-.07.51-.2.72s-.33.38-.59.5c-.26.12-.58.19-.96.19Z" fill="#231f20"/>
        <path d="M47.26,43.19v-4.9h2.95v.63h-2.26v1.46h2.04v.62h-2.04v1.57h2.28v.63h-2.96Z" fill="#231f20"/>
      </g>
    </g>
    <g isolation="isolate">
      <g>
        <path d="M28.61,86.47c-.26,0-.5-.03-.71-.09s-.4-.14-.55-.25c-.16-.1-.29-.22-.39-.35-.1-.13-.18-.27-.22-.41l.66-.22c.07.19.2.36.4.5.2.14.44.21.72.22.34,0,.62-.07.81-.21.2-.14.3-.32.3-.55,0-.21-.09-.38-.26-.51-.17-.13-.4-.23-.69-.3l-.57-.15c-.22-.06-.43-.15-.61-.26-.18-.11-.33-.25-.44-.43-.11-.17-.16-.38-.16-.62,0-.45.15-.8.44-1.05.29-.25.71-.38,1.26-.38.32,0,.59.05.83.15.23.1.43.23.58.4.15.16.26.34.33.54l-.67.22c-.08-.21-.21-.38-.41-.51-.19-.13-.43-.19-.71-.19s-.53.07-.7.21-.25.33-.25.57c0,.21.07.36.2.47.13.11.31.19.54.25l.57.14c.46.11.81.3,1.06.56.25.26.37.54.37.85,0,.27-.07.51-.2.72s-.33.38-.59.5c-.26.12-.58.19-.96.19Z" fill="#231f20"/>
        <path d="M32.3,86.39v-4.27h-1.53v-.63h3.76v.63h-1.53v4.27h-.69Z" fill="#231f20"/>
        <path d="M34.21,86.39l1.97-4.9h.73l1.97,4.9h-.74l-.53-1.31h-2.16l-.53,1.31h-.73ZM35.7,84.46h1.69l-.84-2.11-.85,2.11Z" fill="#231f20"/>
        <path d="M39.57,86.39v-4.9h1.57c.34,0,.62.05.87.15s.43.25.56.46c.13.2.2.45.2.74,0,.22-.05.42-.16.6-.11.17-.25.32-.44.43.24.12.43.27.56.47.13.2.19.43.19.7s-.06.53-.19.73c-.13.2-.31.36-.54.46-.23.1-.51.16-.84.16h-1.78ZM40.25,83.59h1.01c.25,0,.45-.07.6-.2.15-.13.22-.32.22-.56s-.08-.44-.25-.57c-.17-.13-.4-.2-.71-.2h-.87v1.53ZM40.25,85.76h1.06c.29,0,.51-.07.68-.21s.24-.32.24-.56c0-.26-.09-.46-.28-.61s-.44-.21-.77-.21h-.92v1.58Z" fill="#231f20"/>
        <path d="M43.85,86.39v-4.9h.69v4.9h-.69Z" fill="#231f20"/>
        <path d="M45.78,86.39v-4.9h.69v4.27h2.28v.63h-2.96Z" fill="#231f20"/>
        <path d="M49.45,86.39v-4.9h.69v4.9h-.69Z" fill="#231f20"/>
        <path d="M52.38,86.39v-4.27h-1.53v-.63h3.76v.63h-1.53v4.27h-.69Z" fill="#231f20"/>
        <path d="M56.5,86.39v-2.05l-1.75-2.85h.79l1.3,2.14,1.3-2.14h.8l-1.75,2.84v2.06h-.69Z" fill="#231f20"/>
      </g>
    </g>
    <g isolation="isolate">
      <g>
        <path d="M35.84,143.99v-4.9h2.97v.63h-2.28v1.54h1.99v.63h-1.99v2.1h-.69Z" fill="#231f20"/>
        <path d="M39.1,143.99l1.97-4.9h.73l1.97,4.9h-.74l-.53-1.31h-2.16l-.53,1.31h-.73ZM40.6,142.06h1.69l-.84-2.11-.85,2.11Z" fill="#231f20"/>
        <path d="M44.47,143.99v-4.9h.69v4.27h2.28v.63h-2.96Z" fill="#231f20"/>
        <path d="M48.14,143.99v-4.9h.69v4.27h2.28v.63h-2.96Z" fill="#231f20"/>
      </g>
    </g>
    <g isolation="isolate">
      <g>
        <path d="M29.11,187.27c-.26,0-.5-.03-.71-.09s-.4-.14-.55-.25c-.16-.1-.29-.22-.39-.35-.1-.13-.17-.27-.22-.41l.67-.22c.07.19.2.36.4.5.2.14.44.21.72.22.35,0,.62-.07.82-.21.2-.14.3-.32.3-.55,0-.21-.09-.38-.26-.51-.17-.13-.4-.23-.69-.3l-.57-.15c-.22-.06-.43-.15-.61-.26-.18-.11-.33-.25-.44-.43-.11-.17-.16-.38-.16-.62,0-.45.15-.8.44-1.05.29-.25.71-.38,1.26-.38.32,0,.59.05.83.15.23.1.43.23.58.4.15.16.26.34.33.54l-.67.22c-.08-.21-.21-.38-.41-.51-.19-.13-.43-.19-.71-.19-.29,0-.53.07-.7.21s-.26.33-.26.57c0,.21.07.36.2.47.13.11.31.19.54.25l.57.14c.46.11.81.3,1.06.56.25.26.38.54.38.85,0,.27-.07.51-.2.72s-.33.38-.59.5c-.26.12-.58.19-.96.19Z" fill="#231f20"/>
        <path d="M32.8,187.19v-4.27h-1.53v-.63h3.76v.63h-1.53v4.27h-.69Z" fill="#231f20"/>
        <path d="M34.71,187.19l1.97-4.9h.74l1.97,4.9h-.73l-.53-1.31h-2.16l-.53,1.31h-.74ZM36.2,185.26h1.69l-.84-2.11-.85,2.11Z" fill="#231f20"/>
        <path d="M40.07,187.19v-4.9h1.58c.34,0,.62.05.86.15s.43.25.56.46c.13.2.2.45.2.74,0,.22-.05.42-.16.6-.1.17-.25.32-.44.43.24.12.43.27.56.47.13.2.19.43.19.7s-.06.53-.19.73-.31.36-.54.46c-.23.1-.51.16-.84.16h-1.78ZM40.75,184.39h1.01c.25,0,.45-.07.6-.2.15-.13.22-.32.22-.56s-.08-.44-.25-.57c-.17-.13-.4-.2-.71-.2h-.87v1.53ZM40.75,186.56h1.06c.29,0,.51-.07.68-.21.16-.14.24-.32.24-.56,0-.26-.09-.46-.28-.61-.18-.14-.44-.21-.77-.21h-.92v1.58Z" fill="#231f20"/>
        <path d="M44.35,187.19v-4.9h.69v4.9h-.69Z" fill="#231f20"/>
        <path d="M46.28,187.19v-4.9h.69v4.27h2.27v.63h-2.96Z" fill="#231f20"/>
        <path d="M49.95,187.19v-4.9h.69v4.9h-.69Z" fill="#231f20"/>
        <path d="M52.88,187.19v-4.27h-1.53v-.63h3.76v.63h-1.53v4.27h-.69Z" fill="#231f20"/>
        <path d="M57,187.19v-2.05l-1.75-2.85h.79l1.3,2.14,1.3-2.14h.8l-1.75,2.84v2.06h-.69Z" fill="#231f20"/>
      </g>
    </g>
    <g isolation="isolate">
      <g>
        <path d="M34.18,230.47c-.47,0-.88-.11-1.25-.33-.36-.22-.65-.52-.85-.9-.21-.38-.31-.82-.31-1.31s.1-.93.31-1.31c.21-.38.49-.68.85-.9.36-.22.77-.33,1.24-.33.3,0,.59.06.87.17s.52.26.74.46c.22.19.38.42.5.67l-.62.28c-.09-.19-.21-.36-.36-.5-.15-.14-.33-.25-.52-.33-.19-.08-.4-.12-.61-.12-.33,0-.62.08-.88.24-.26.16-.46.39-.6.67-.14.28-.22.61-.22.99s.07.71.22.99c.15.29.35.51.61.68s.55.24.89.24c.21,0,.42-.04.61-.13.19-.09.36-.21.51-.36.15-.15.27-.33.37-.52l.62.27c-.12.27-.28.5-.5.71-.21.21-.46.37-.74.48s-.57.17-.88.17Z" fill="#231f20"/>
        <path d="M38.98,230.49c-.38,0-.71-.08-1-.24s-.51-.38-.67-.66c-.16-.28-.24-.61-.24-.98v-3.14h.69v3.14c0,.24.05.46.16.64.1.19.25.33.43.43.18.1.4.15.64.15s.46-.05.64-.15c.19-.1.33-.25.43-.43.1-.19.15-.4.15-.64v-3.14h.69v3.14c0,.37-.08.69-.24.98-.16.28-.39.5-.68.66-.29.16-.63.24-1.02.24Z" fill="#231f20"/>
        <path d="M42.09,230.39v-4.9h1.65c.33,0,.62.06.87.19.25.13.45.31.59.53.14.23.21.49.21.79,0,.32-.09.6-.27.85-.18.24-.42.42-.71.53l1.18,2.01h-.78l-1.09-1.88h-.96v1.88h-.69ZM42.78,227.88h1.03c.17,0,.32-.04.45-.12.13-.08.24-.18.32-.32.08-.13.12-.28.12-.45,0-.26-.09-.47-.27-.64-.18-.16-.42-.24-.71-.24h-.94v1.76Z" fill="#231f20"/>
        <path d="M47.96,230.39l-2.01-4.9h.73l1.65,4.1,1.66-4.1h.74l-2.01,4.9h-.76Z" fill="#231f20"/>
        <path d="M51.41,230.39v-4.9h2.95v.63h-2.26v1.46h2.04v.62h-2.04v1.57h2.28v.63h-2.96Z" fill="#231f20"/>
      </g>
    </g>
    <g isolation="isolate">
      <g>
        <path d="M15.43,333.58v-4.27h-1.53v-.63h3.76v.63h-1.53v4.27h-.69Z" fill="#231f20"/>
        <path d="M18.37,333.58v-4.9h1.65c.33,0,.62.06.87.19.25.13.45.31.59.53.14.23.21.49.21.79,0,.32-.09.6-.27.85-.18.24-.42.42-.71.53l1.18,2.01h-.78l-1.09-1.88h-.96v1.88h-.69ZM19.05,331.08h1.03c.17,0,.32-.04.45-.12.13-.08.24-.18.32-.32s.12-.28.12-.45c0-.26-.09-.47-.27-.64-.18-.16-.42-.24-.71-.24h-.94v1.76Z" fill="#231f20"/>
        <path d="M22.78,333.58v-4.9h.69v4.9h-.69Z" fill="#231f20"/>
        <path d="M26.94,333.67c-.49,0-.93-.11-1.32-.33-.38-.22-.69-.52-.9-.9-.22-.38-.33-.82-.33-1.31s.11-.94.33-1.32c.22-.38.52-.68.9-.9.39-.22.83-.33,1.32-.33.27,0,.53.04.78.13s.48.21.68.36c.2.15.37.33.49.52l-.55.36c-.09-.14-.21-.27-.37-.38-.15-.11-.31-.2-.49-.26-.18-.06-.36-.09-.54-.09-.36,0-.68.08-.96.24-.28.16-.5.39-.66.67-.16.28-.24.62-.24.99s.08.7.23.98c.16.28.38.51.66.67.28.16.61.25.97.25.29,0,.55-.06.78-.18s.41-.28.54-.5c.13-.21.2-.46.21-.74h-1.18v-.57h1.85v.5c0,.42-.1.8-.29,1.11-.19.32-.45.56-.78.74-.33.17-.71.26-1.14.26Z" fill="#231f20"/>
      </g>
    </g>
    <g isolation="isolate">
      <g>
        <path d="M12.95,287.99v-4.9h.69v4.27h2.28v.63h-2.96Z" fill="#231f20"/>
        <path d="M18.62,288.07c-.48,0-.9-.11-1.27-.32-.37-.21-.66-.51-.87-.9-.21-.38-.31-.82-.31-1.31s.1-.94.31-1.32c.21-.38.49-.68.86-.9.36-.22.78-.33,1.26-.33s.9.11,1.26.33c.36.22.65.52.85.9.21.38.31.82.31,1.31s-.1.93-.31,1.32-.49.68-.85.9c-.36.21-.78.32-1.25.32ZM18.62,287.44c.33,0,.63-.08.88-.25.26-.16.46-.39.6-.67.14-.29.22-.61.22-.99s-.07-.7-.22-.98c-.15-.29-.35-.51-.61-.68-.26-.16-.56-.24-.89-.24s-.63.08-.9.24c-.26.16-.47.39-.61.68-.15.29-.22.62-.22.98s.08.7.22.99c.15.28.36.51.62.67s.57.25.91.25Z" fill="#231f20"/>
        <path d="M24.07,288.07c-.48,0-.9-.11-1.27-.32-.37-.21-.66-.51-.87-.9-.21-.38-.31-.82-.31-1.31s.1-.94.31-1.32c.21-.38.49-.68.86-.9.36-.22.78-.33,1.26-.33s.9.11,1.26.33c.36.22.65.52.85.9.21.38.31.82.31,1.31s-.1.93-.31,1.32-.49.68-.85.9c-.36.21-.78.32-1.25.32ZM24.07,287.44c.33,0,.63-.08.88-.25.26-.16.46-.39.6-.67.14-.29.22-.61.22-.99s-.07-.7-.22-.98c-.15-.29-.35-.51-.61-.68-.26-.16-.56-.24-.89-.24s-.63.08-.9.24c-.26.16-.47.39-.61.68-.15.29-.22.62-.22.98s.08.7.22.99c.15.28.36.51.62.67s.57.25.91.25Z" fill="#231f20"/>
        <path d="M27.4,287.99v-4.9h1.65c.33,0,.62.07.87.2.25.13.45.32.59.56.14.24.21.51.21.82s-.06.57-.2.81c-.13.24-.31.42-.54.56-.23.14-.5.2-.79.2h-1.1v1.75h-.69ZM28.09,285.6h1.09c.25,0,.45-.09.61-.26s.24-.4.24-.68-.09-.51-.28-.68c-.18-.17-.42-.26-.7-.26h-.96v1.88Z" fill="#231f20"/>
      </g>
    </g>
    <g>
      <line x1="21.6" y1="86.39" x2="21.6" y2="91.19" fill="none" stroke="#b2b2b2" stroke-miterlimit="11.34" stroke-width=".5"/>
      <line x1="16.8" y1="88.79" x2="19.2" y2="88.79" fill="none" stroke="#b2b2b2" stroke-miterlimit="11.34" stroke-width=".5"/>
      <line x1="24" y1="88.79" x2="26.4" y2="88.79" fill="none" stroke="#b2b2b2" stroke-miterlimit="11.34" stroke-width=".5"/>
      <line x1="25.2" y1="89.99" x2="25.2" y2="87.59" fill="none" stroke="#b2b2b2" stroke-miterlimit="11.34" stroke-width=".5"/>
    </g>
    <g>
      <line x1="21.6" y1="187.19" x2="21.6" y2="191.99" fill="none" stroke="#b2b2b2" stroke-miterlimit="11.34" stroke-width=".5"/>
      <line x1="16.8" y1="189.59" x2="19.2" y2="189.59" fill="none" stroke="#b2b2b2" stroke-miterlimit="11.34" stroke-width=".5"/>
      <line x1="24" y1="189.59" x2="26.4" y2="189.59" fill="none" stroke="#b2b2b2" stroke-miterlimit="11.34" stroke-width=".5"/>
      <line x1="25.2" y1="190.79" x2="25.2" y2="188.39" fill="none" stroke="#b2b2b2" stroke-miterlimit="11.34" stroke-width=".5"/>
    </g>
    <line x1="14.4" y1="249.59" x2="9.6" y2="254.39" fill="none" stroke="#b2b2b2" stroke-miterlimit="11.34" stroke-width=".5"/>
    <path d="M33.6,249.59c0,2.65-2.15,4.8-4.8,4.8" fill="none" stroke="#b2b2b2" stroke-miterlimit="11.34" stroke-width=".5"/>
  </g>
</svg>